%TF.GenerationSoftware,KiCad,Pcbnew,7.0.6*%
%TF.CreationDate,2023-10-11T20:15:21+08:00*%
%TF.ProjectId,PCB_ESP32WROOM32E_RPI_Zero_Form_Hackster,5043425f-4553-4503-9332-57524f4f4d33,rev?*%
%TF.SameCoordinates,Original*%
%TF.FileFunction,Soldermask,Bot*%
%TF.FilePolarity,Negative*%
%FSLAX46Y46*%
G04 Gerber Fmt 4.6, Leading zero omitted, Abs format (unit mm)*
G04 Created by KiCad (PCBNEW 7.0.6) date 2023-10-11 20:15:21*
%MOMM*%
%LPD*%
G01*
G04 APERTURE LIST*
G04 Aperture macros list*
%AMRoundRect*
0 Rectangle with rounded corners*
0 $1 Rounding radius*
0 $2 $3 $4 $5 $6 $7 $8 $9 X,Y pos of 4 corners*
0 Add a 4 corners polygon primitive as box body*
4,1,4,$2,$3,$4,$5,$6,$7,$8,$9,$2,$3,0*
0 Add four circle primitives for the rounded corners*
1,1,$1+$1,$2,$3*
1,1,$1+$1,$4,$5*
1,1,$1+$1,$6,$7*
1,1,$1+$1,$8,$9*
0 Add four rect primitives between the rounded corners*
20,1,$1+$1,$2,$3,$4,$5,0*
20,1,$1+$1,$4,$5,$6,$7,0*
20,1,$1+$1,$6,$7,$8,$9,0*
20,1,$1+$1,$8,$9,$2,$3,0*%
G04 Aperture macros list end*
%ADD10RoundRect,0.250000X0.600000X0.725000X-0.600000X0.725000X-0.600000X-0.725000X0.600000X-0.725000X0*%
%ADD11O,1.700000X1.950000*%
%ADD12RoundRect,0.102000X0.754000X0.754000X-0.754000X0.754000X-0.754000X-0.754000X0.754000X-0.754000X0*%
%ADD13C,1.712000*%
%ADD14C,2.154000*%
%ADD15RoundRect,0.250000X0.600000X0.750000X-0.600000X0.750000X-0.600000X-0.750000X0.600000X-0.750000X0*%
%ADD16O,1.700000X2.000000*%
%ADD17C,3.600000*%
%ADD18RoundRect,0.050000X0.762000X0.762000X-0.762000X0.762000X-0.762000X-0.762000X0.762000X-0.762000X0*%
%ADD19C,1.624000*%
%ADD20RoundRect,0.102000X-0.754000X-0.754000X0.754000X-0.754000X0.754000X0.754000X-0.754000X0.754000X0*%
%ADD21R,0.900000X0.600000*%
%ADD22RoundRect,0.102000X0.775000X-0.300000X0.775000X0.300000X-0.775000X0.300000X-0.775000X-0.300000X0*%
%ADD23RoundRect,0.102000X-0.900000X0.400000X-0.900000X-0.400000X0.900000X-0.400000X0.900000X0.400000X0*%
%ADD24R,0.600000X0.900000*%
%ADD25RoundRect,0.237500X0.237500X-0.250000X0.237500X0.250000X-0.237500X0.250000X-0.237500X-0.250000X0*%
%ADD26RoundRect,0.237500X-0.300000X-0.237500X0.300000X-0.237500X0.300000X0.237500X-0.300000X0.237500X0*%
%ADD27RoundRect,0.237500X-0.237500X0.250000X-0.237500X-0.250000X0.237500X-0.250000X0.237500X0.250000X0*%
%ADD28RoundRect,0.237500X-0.250000X-0.237500X0.250000X-0.237500X0.250000X0.237500X-0.250000X0.237500X0*%
%ADD29RoundRect,0.250000X-0.425000X0.537500X-0.425000X-0.537500X0.425000X-0.537500X0.425000X0.537500X0*%
%ADD30C,0.900000*%
%ADD31R,1.600000X0.700000*%
%ADD32R,1.600000X1.400000*%
%ADD33R,2.200000X1.400000*%
%ADD34R,1.400000X1.800000*%
%ADD35RoundRect,0.237500X0.237500X-0.300000X0.237500X0.300000X-0.237500X0.300000X-0.237500X-0.300000X0*%
G04 APERTURE END LIST*
D10*
%TO.C,J4*%
X91700000Y-107900000D03*
D11*
X89200000Y-107900000D03*
X86700000Y-107900000D03*
X84200000Y-107900000D03*
X81700000Y-107900000D03*
X79200000Y-107900000D03*
%TD*%
D12*
%TO.C,S5*%
X82300000Y-83500000D03*
D13*
X77800000Y-83500000D03*
D14*
X83550000Y-86000000D03*
X76550000Y-86000000D03*
%TD*%
D15*
%TO.C,J1*%
X89850000Y-95900000D03*
D16*
X87350000Y-95900000D03*
%TD*%
D17*
%TO.C,Coral_Dev_Board1*%
X129130000Y-107530000D03*
X129130000Y-84530000D03*
X71130000Y-107530000D03*
X71130000Y-84530000D03*
D18*
X124630000Y-82060000D03*
D19*
X122090000Y-82060000D03*
X119550000Y-82060000D03*
X117010000Y-82060000D03*
X114470000Y-82060000D03*
X111930000Y-82060000D03*
X109390000Y-82060000D03*
X106850000Y-82060000D03*
X104310000Y-82060000D03*
X101770000Y-82060000D03*
X99230000Y-82060000D03*
X96690000Y-82060000D03*
D18*
X124630000Y-110000000D03*
D19*
X122090000Y-110000000D03*
X119550000Y-110000000D03*
X117010000Y-110000000D03*
X114470000Y-110000000D03*
X111930000Y-110000000D03*
X109390000Y-110000000D03*
X106850000Y-110000000D03*
X104310000Y-110000000D03*
X101770000Y-110000000D03*
X99230000Y-110000000D03*
X96690000Y-110000000D03*
%TD*%
D12*
%TO.C,S6*%
X94150000Y-83500000D03*
D13*
X89650000Y-83500000D03*
D14*
X95400000Y-86000000D03*
X88400000Y-86000000D03*
%TD*%
D20*
%TO.C,S4*%
X75400000Y-83500000D03*
D13*
X79900000Y-83500000D03*
D14*
X74150000Y-86000000D03*
X81150000Y-86000000D03*
%TD*%
D21*
%TO.C,JP13*%
X112150000Y-106450000D03*
X112150000Y-105250000D03*
%TD*%
%TO.C,JP8*%
X121030000Y-86870000D03*
X121030000Y-85670000D03*
%TD*%
%TO.C,JP10*%
X113400000Y-106450000D03*
X113400000Y-105250000D03*
%TD*%
D22*
%TO.C,J2*%
X120100000Y-97600000D03*
X120100000Y-96600000D03*
X120100000Y-95600000D03*
X120100000Y-94600000D03*
D23*
X116225000Y-98900000D03*
X116225000Y-93300000D03*
%TD*%
D24*
%TO.C,JP4*%
X110050000Y-101800000D03*
X111250000Y-101800000D03*
%TD*%
%TO.C,JP3*%
X110050000Y-100550000D03*
X111250000Y-100550000D03*
%TD*%
%TO.C,JP14*%
X124240000Y-96960000D03*
X123040000Y-96960000D03*
%TD*%
D21*
%TO.C,JP9*%
X119760000Y-86870000D03*
X119760000Y-85670000D03*
%TD*%
D25*
%TO.C,R21*%
X122410000Y-100362500D03*
X122410000Y-98537500D03*
%TD*%
D21*
%TO.C,JP6*%
X118490000Y-89000000D03*
X118490000Y-87800000D03*
%TD*%
%TO.C,JP11*%
X114650000Y-103200000D03*
X114650000Y-104400000D03*
%TD*%
D26*
%TO.C,C17*%
X124317500Y-94932500D03*
X126042500Y-94932500D03*
%TD*%
D27*
%TO.C,R9*%
X126100000Y-91510000D03*
X126100000Y-93335000D03*
%TD*%
D28*
%TO.C,R10*%
X124347500Y-89982500D03*
X126172500Y-89982500D03*
%TD*%
D21*
%TO.C,JP16*%
X110850000Y-86900000D03*
X110850000Y-85700000D03*
%TD*%
D25*
%TO.C,R22*%
X123940000Y-100382500D03*
X123940000Y-98557500D03*
%TD*%
D21*
%TO.C,JP2*%
X112100000Y-86900000D03*
X112100000Y-85700000D03*
%TD*%
%TO.C,JP15*%
X95500000Y-108500000D03*
X95500000Y-107300000D03*
%TD*%
%TO.C,JP5*%
X121000000Y-106500000D03*
X121000000Y-105300000D03*
%TD*%
D29*
%TO.C,C13*%
X125800000Y-96925000D03*
X125800000Y-99800000D03*
%TD*%
D21*
%TO.C,JP7*%
X118490000Y-106460000D03*
X118490000Y-105260000D03*
%TD*%
D30*
%TO.C,P2*%
X71070000Y-101300000D03*
X71070000Y-93300000D03*
D31*
X81570000Y-94100000D03*
X81570000Y-95200000D03*
X81570000Y-96300000D03*
X81570000Y-97400000D03*
X81570000Y-98500000D03*
X81570000Y-99600000D03*
X81570000Y-100700000D03*
X81570000Y-101800000D03*
X81570000Y-102900000D03*
D32*
X80970000Y-104200000D03*
D33*
X71470000Y-104200000D03*
X71470000Y-88500000D03*
D34*
X81070000Y-89400000D03*
%TD*%
D24*
%TO.C,JP12*%
X119600000Y-91000000D03*
X120800000Y-91000000D03*
%TD*%
D35*
%TO.C,C19*%
X124540000Y-93285000D03*
X124540000Y-91560000D03*
%TD*%
D24*
%TO.C,JP1*%
X110050000Y-91650000D03*
X111250000Y-91650000D03*
%TD*%
D20*
%TO.C,S3*%
X87250000Y-83500000D03*
D13*
X91750000Y-83500000D03*
D14*
X86000000Y-86000000D03*
X93000000Y-86000000D03*
%TD*%
M02*
