%TF.GenerationSoftware,KiCad,Pcbnew,7.0.6*%
%TF.CreationDate,2023-10-11T20:15:25+08:00*%
%TF.ProjectId,PCB_ESP32WROOM32E_RPI_Zero_Form_Hackster,5043425f-4553-4503-9332-57524f4f4d33,rev?*%
%TF.SameCoordinates,Original*%
%TF.FileFunction,Drillmap*%
%TF.FilePolarity,Positive*%
%FSLAX45Y45*%
G04 Gerber Fmt 4.5, Leading zero omitted, Abs format (unit mm)*
G04 Created by KiCad (PCBNEW 7.0.6) date 2023-10-11 20:15:25*
%MOMM*%
%LPD*%
G01*
G04 APERTURE LIST*
%ADD10C,0.200000*%
%ADD11C,0.030000*%
%ADD12C,0.095000*%
%ADD13C,0.100000*%
%ADD14C,0.101600*%
%ADD15C,0.130000*%
%ADD16C,0.275000*%
G04 APERTURE END LIST*
D10*
D11*
X6820000Y-9565000D02*
X6850000Y-9595000D01*
X6850000Y-9565000D02*
X6820000Y-9595000D01*
X6820000Y-9635000D02*
X6850000Y-9665000D01*
X6850000Y-9635000D02*
X6820000Y-9665000D01*
X6820000Y-9705000D02*
X6850000Y-9735000D01*
X6850000Y-9705000D02*
X6820000Y-9735000D01*
X6820000Y-10190000D02*
X6850000Y-10220000D01*
X6850000Y-10190000D02*
X6820000Y-10220000D01*
X6820000Y-10260000D02*
X6850000Y-10290000D01*
X6850000Y-10260000D02*
X6820000Y-10290000D01*
X6820000Y-10330000D02*
X6850000Y-10360000D01*
X6850000Y-10330000D02*
X6820000Y-10360000D01*
X6830000Y-9025000D02*
X6860000Y-9055000D01*
X6860000Y-9025000D02*
X6830000Y-9055000D01*
X6830000Y-9095000D02*
X6860000Y-9125000D01*
X6860000Y-9095000D02*
X6830000Y-9125000D01*
X6830000Y-9165000D02*
X6860000Y-9195000D01*
X6860000Y-9165000D02*
X6830000Y-9195000D01*
X6895000Y-9565000D02*
X6925000Y-9595000D01*
X6925000Y-9565000D02*
X6895000Y-9595000D01*
X6895000Y-9635000D02*
X6925000Y-9665000D01*
X6925000Y-9635000D02*
X6895000Y-9665000D01*
X6895000Y-9705000D02*
X6925000Y-9735000D01*
X6925000Y-9705000D02*
X6895000Y-9735000D01*
X6895000Y-10190000D02*
X6925000Y-10220000D01*
X6925000Y-10190000D02*
X6895000Y-10220000D01*
X6895000Y-10260000D02*
X6925000Y-10290000D01*
X6925000Y-10260000D02*
X6895000Y-10290000D01*
X6895000Y-10330000D02*
X6925000Y-10360000D01*
X6925000Y-10330000D02*
X6895000Y-10360000D01*
X6905000Y-9025000D02*
X6935000Y-9055000D01*
X6935000Y-9025000D02*
X6905000Y-9055000D01*
X6905000Y-9095000D02*
X6935000Y-9125000D01*
X6935000Y-9095000D02*
X6905000Y-9125000D01*
X6905000Y-9165000D02*
X6935000Y-9195000D01*
X6935000Y-9165000D02*
X6905000Y-9195000D01*
X7060000Y-8795000D02*
X7090000Y-8825000D01*
X7090000Y-8795000D02*
X7060000Y-8825000D01*
X7060000Y-8870000D02*
X7090000Y-8900000D01*
X7090000Y-8870000D02*
X7060000Y-8900000D01*
X7060000Y-10400000D02*
X7090000Y-10430000D01*
X7090000Y-10400000D02*
X7060000Y-10430000D01*
X7060000Y-10475000D02*
X7090000Y-10505000D01*
X7090000Y-10475000D02*
X7060000Y-10505000D01*
X7107650Y-9649420D02*
X7137650Y-9679420D01*
X7137650Y-9649420D02*
X7107650Y-9679420D01*
X7108750Y-9900000D02*
X7138750Y-9930000D01*
X7138750Y-9900000D02*
X7108750Y-9930000D01*
X7130000Y-8795000D02*
X7160000Y-8825000D01*
X7160000Y-8795000D02*
X7130000Y-8825000D01*
X7130000Y-8870000D02*
X7160000Y-8900000D01*
X7160000Y-8870000D02*
X7130000Y-8900000D01*
X7130000Y-10400000D02*
X7160000Y-10430000D01*
X7160000Y-10400000D02*
X7130000Y-10430000D01*
X7130000Y-10475000D02*
X7160000Y-10505000D01*
X7160000Y-10475000D02*
X7130000Y-10505000D01*
X7200000Y-8795000D02*
X7230000Y-8825000D01*
X7230000Y-8795000D02*
X7200000Y-8825000D01*
X7200000Y-8870000D02*
X7230000Y-8900000D01*
X7230000Y-8870000D02*
X7200000Y-8900000D01*
X7200000Y-10400000D02*
X7230000Y-10430000D01*
X7230000Y-10400000D02*
X7200000Y-10430000D01*
X7200000Y-10475000D02*
X7230000Y-10505000D01*
X7230000Y-10475000D02*
X7200000Y-10505000D01*
X7260000Y-10265000D02*
X7290000Y-10295000D01*
X7290000Y-10265000D02*
X7260000Y-10295000D01*
X7305000Y-10295000D02*
X7335000Y-10325000D01*
X7335000Y-10295000D02*
X7305000Y-10325000D01*
X7375000Y-10795000D02*
X7405000Y-10825000D01*
X7405000Y-10795000D02*
X7375000Y-10825000D01*
X7375000Y-10870000D02*
X7405000Y-10900000D01*
X7405000Y-10870000D02*
X7375000Y-10900000D01*
X7375000Y-10945000D02*
X7405000Y-10975000D01*
X7405000Y-10945000D02*
X7375000Y-10975000D01*
X7375000Y-11020000D02*
X7405000Y-11050000D01*
X7405000Y-11020000D02*
X7375000Y-11050000D01*
X7445000Y-10795000D02*
X7475000Y-10825000D01*
X7475000Y-10795000D02*
X7445000Y-10825000D01*
X7445000Y-10870000D02*
X7475000Y-10900000D01*
X7475000Y-10870000D02*
X7445000Y-10900000D01*
X7445000Y-10945000D02*
X7475000Y-10975000D01*
X7475000Y-10945000D02*
X7445000Y-10975000D01*
X7445000Y-11020000D02*
X7475000Y-11050000D01*
X7475000Y-11020000D02*
X7445000Y-11050000D01*
X7490000Y-9660000D02*
X7520000Y-9690000D01*
X7520000Y-9660000D02*
X7490000Y-9690000D01*
X7510000Y-8150000D02*
X7540000Y-8180000D01*
X7540000Y-8150000D02*
X7510000Y-8180000D01*
X7515000Y-10795000D02*
X7545000Y-10825000D01*
X7545000Y-10795000D02*
X7515000Y-10825000D01*
X7515000Y-10870000D02*
X7545000Y-10900000D01*
X7545000Y-10870000D02*
X7515000Y-10900000D01*
X7515000Y-10945000D02*
X7545000Y-10975000D01*
X7545000Y-10945000D02*
X7515000Y-10975000D01*
X7515000Y-11020000D02*
X7545000Y-11050000D01*
X7545000Y-11020000D02*
X7515000Y-11050000D01*
X7569900Y-9363170D02*
X7599900Y-9393170D01*
X7599900Y-9363170D02*
X7569900Y-9393170D01*
X7580000Y-8150000D02*
X7610000Y-8180000D01*
X7610000Y-8150000D02*
X7580000Y-8180000D01*
X7650000Y-8150000D02*
X7680000Y-8180000D01*
X7680000Y-8150000D02*
X7650000Y-8180000D01*
X7724000Y-10281000D02*
X7754000Y-10311000D01*
X7754000Y-10281000D02*
X7724000Y-10311000D01*
X7726000Y-9366000D02*
X7756000Y-9396000D01*
X7756000Y-9366000D02*
X7726000Y-9396000D01*
X7730000Y-8848750D02*
X7760000Y-8878750D01*
X7760000Y-8848750D02*
X7730000Y-8878750D01*
X7730000Y-9020000D02*
X7760000Y-9050000D01*
X7760000Y-9020000D02*
X7730000Y-9050000D01*
X7825000Y-9020000D02*
X7855000Y-9050000D01*
X7855000Y-9020000D02*
X7825000Y-9050000D01*
X7895000Y-9740000D02*
X7925000Y-9770000D01*
X7925000Y-9740000D02*
X7895000Y-9770000D01*
X7915000Y-9020000D02*
X7945000Y-9050000D01*
X7945000Y-9020000D02*
X7915000Y-9050000D01*
X8080000Y-8140000D02*
X8110000Y-8170000D01*
X8110000Y-8140000D02*
X8080000Y-8170000D01*
X8150000Y-8140000D02*
X8180000Y-8170000D01*
X8180000Y-8140000D02*
X8150000Y-8170000D01*
X8220000Y-8140000D02*
X8250000Y-8170000D01*
X8250000Y-8140000D02*
X8220000Y-8170000D01*
X8305000Y-9595000D02*
X8335000Y-9625000D01*
X8335000Y-9595000D02*
X8305000Y-9625000D01*
X8368000Y-8822000D02*
X8398000Y-8852000D01*
X8398000Y-8822000D02*
X8368000Y-8852000D01*
X8500000Y-10005000D02*
X8530000Y-10035000D01*
X8530000Y-10005000D02*
X8500000Y-10035000D01*
X8500000Y-10080000D02*
X8530000Y-10110000D01*
X8530000Y-10080000D02*
X8500000Y-10110000D01*
X8500000Y-10160000D02*
X8530000Y-10190000D01*
X8530000Y-10160000D02*
X8500000Y-10190000D01*
X8500000Y-10235000D02*
X8530000Y-10265000D01*
X8530000Y-10235000D02*
X8500000Y-10265000D01*
X8500000Y-10310000D02*
X8530000Y-10340000D01*
X8530000Y-10310000D02*
X8500000Y-10340000D01*
X8580000Y-10005000D02*
X8610000Y-10035000D01*
X8610000Y-10005000D02*
X8580000Y-10035000D01*
X8580000Y-10080000D02*
X8610000Y-10110000D01*
X8610000Y-10080000D02*
X8580000Y-10110000D01*
X8580000Y-10160000D02*
X8610000Y-10190000D01*
X8610000Y-10160000D02*
X8580000Y-10190000D01*
X8580000Y-10235000D02*
X8610000Y-10265000D01*
X8610000Y-10235000D02*
X8580000Y-10265000D01*
X8580000Y-10310000D02*
X8610000Y-10340000D01*
X8610000Y-10310000D02*
X8580000Y-10340000D01*
X8590000Y-10515000D02*
X8620000Y-10545000D01*
X8620000Y-10515000D02*
X8590000Y-10545000D01*
X8890000Y-8155000D02*
X8920000Y-8185000D01*
X8920000Y-8155000D02*
X8890000Y-8185000D01*
X8960000Y-8155000D02*
X8990000Y-8185000D01*
X8990000Y-8155000D02*
X8960000Y-8185000D01*
X8960000Y-9025000D02*
X8990000Y-9055000D01*
X8990000Y-9025000D02*
X8960000Y-9055000D01*
X8967500Y-8761000D02*
X8997500Y-8791000D01*
X8997500Y-8761000D02*
X8967500Y-8791000D01*
X9010000Y-10645000D02*
X9040000Y-10675000D01*
X9040000Y-10645000D02*
X9010000Y-10675000D01*
X9030000Y-8155000D02*
X9060000Y-8185000D01*
X9060000Y-8155000D02*
X9030000Y-8185000D01*
X9050000Y-9025000D02*
X9080000Y-9055000D01*
X9080000Y-9025000D02*
X9050000Y-9055000D01*
X9135000Y-9025000D02*
X9165000Y-9055000D01*
X9165000Y-9025000D02*
X9135000Y-9055000D01*
X9225000Y-8155000D02*
X9255000Y-8185000D01*
X9255000Y-8155000D02*
X9225000Y-8185000D01*
X9295000Y-8155000D02*
X9325000Y-8185000D01*
X9325000Y-8155000D02*
X9295000Y-8185000D01*
X9309000Y-9301000D02*
X9339000Y-9331000D01*
X9339000Y-9301000D02*
X9309000Y-9331000D01*
X9365000Y-8155000D02*
X9395000Y-8185000D01*
X9395000Y-8155000D02*
X9365000Y-8185000D01*
X9425000Y-10715000D02*
X9455000Y-10745000D01*
X9455000Y-10715000D02*
X9425000Y-10745000D01*
X9480000Y-10715000D02*
X9510000Y-10745000D01*
X9510000Y-10715000D02*
X9480000Y-10745000D01*
X9535000Y-10715000D02*
X9565000Y-10745000D01*
X9565000Y-10715000D02*
X9535000Y-10745000D01*
X9590000Y-10715000D02*
X9620000Y-10745000D01*
X9620000Y-10715000D02*
X9590000Y-10745000D01*
X9600000Y-9300000D02*
X9630000Y-9330000D01*
X9630000Y-9300000D02*
X9600000Y-9330000D01*
X9626000Y-8796000D02*
X9656000Y-8826000D01*
X9656000Y-8796000D02*
X9626000Y-8826000D01*
X9645000Y-10715000D02*
X9675000Y-10745000D01*
X9675000Y-10715000D02*
X9645000Y-10745000D01*
X9792000Y-8461000D02*
X9822000Y-8491000D01*
X9822000Y-8461000D02*
X9792000Y-8491000D01*
X9805000Y-9215000D02*
X9835000Y-9245000D01*
X9835000Y-9215000D02*
X9805000Y-9245000D01*
X9805000Y-9315000D02*
X9835000Y-9345000D01*
X9835000Y-9315000D02*
X9805000Y-9345000D01*
X9805000Y-9405000D02*
X9835000Y-9435000D01*
X9835000Y-9405000D02*
X9805000Y-9435000D01*
X9935000Y-10070000D02*
X9965000Y-10100000D01*
X9965000Y-10070000D02*
X9935000Y-10100000D01*
X9955000Y-10340000D02*
X9985000Y-10370000D01*
X9985000Y-10340000D02*
X9955000Y-10370000D01*
X9955000Y-10415000D02*
X9985000Y-10445000D01*
X9985000Y-10415000D02*
X9955000Y-10445000D01*
X10010000Y-8405000D02*
X10040000Y-8435000D01*
X10040000Y-8405000D02*
X10010000Y-8435000D01*
X10010000Y-8495000D02*
X10040000Y-8525000D01*
X10040000Y-8495000D02*
X10010000Y-8525000D01*
X10010000Y-8575000D02*
X10040000Y-8605000D01*
X10040000Y-8575000D02*
X10010000Y-8605000D01*
X10025000Y-10340000D02*
X10055000Y-10370000D01*
X10055000Y-10340000D02*
X10025000Y-10370000D01*
X10025000Y-10415000D02*
X10055000Y-10445000D01*
X10055000Y-10415000D02*
X10025000Y-10445000D01*
X10090000Y-9595000D02*
X10120000Y-9625000D01*
X10120000Y-9595000D02*
X10090000Y-9625000D01*
X10145000Y-9830000D02*
X10175000Y-9860000D01*
X10175000Y-9830000D02*
X10145000Y-9860000D01*
X10151250Y-10560000D02*
X10181250Y-10590000D01*
X10181250Y-10560000D02*
X10151250Y-10590000D01*
X10151250Y-10720000D02*
X10181250Y-10750000D01*
X10181250Y-10720000D02*
X10151250Y-10750000D01*
X10225000Y-10245000D02*
X10255000Y-10275000D01*
X10255000Y-10245000D02*
X10225000Y-10275000D01*
X10357800Y-9474200D02*
X10387800Y-9504200D01*
X10387800Y-9474200D02*
X10357800Y-9504200D01*
X10400000Y-10745000D02*
X10430000Y-10775000D01*
X10430000Y-10745000D02*
X10400000Y-10775000D01*
X10450000Y-9945000D02*
X10480000Y-9975000D01*
X10480000Y-9945000D02*
X10450000Y-9975000D01*
X10490000Y-8320000D02*
X10520000Y-8350000D01*
X10520000Y-8320000D02*
X10490000Y-8350000D01*
X10515000Y-8710000D02*
X10545000Y-8740000D01*
X10545000Y-8710000D02*
X10515000Y-8740000D01*
X10560000Y-8320000D02*
X10590000Y-8350000D01*
X10590000Y-8320000D02*
X10560000Y-8350000D01*
X10562350Y-9654700D02*
X10592350Y-9684700D01*
X10592350Y-9654700D02*
X10562350Y-9684700D01*
X10585000Y-8710000D02*
X10615000Y-8740000D01*
X10615000Y-8710000D02*
X10585000Y-8740000D01*
X10645000Y-10725000D02*
X10675000Y-10755000D01*
X10675000Y-10725000D02*
X10645000Y-10755000D01*
X10655000Y-8710000D02*
X10685000Y-8740000D01*
X10685000Y-8710000D02*
X10655000Y-8740000D01*
X10680000Y-8492550D02*
X10710000Y-8522550D01*
X10710000Y-8492550D02*
X10680000Y-8522550D01*
X10690000Y-8380000D02*
X10720000Y-8410000D01*
X10720000Y-8380000D02*
X10690000Y-8410000D01*
X10695000Y-10460000D02*
X10725000Y-10490000D01*
X10725000Y-10460000D02*
X10695000Y-10490000D01*
X10733050Y-10237450D02*
X10763050Y-10267450D01*
X10763050Y-10237450D02*
X10733050Y-10267450D01*
X10740000Y-10010000D02*
X10770000Y-10040000D01*
X10770000Y-10010000D02*
X10740000Y-10040000D01*
X10805000Y-8372550D02*
X10835000Y-8402550D01*
X10835000Y-8372550D02*
X10805000Y-8402550D01*
X10820000Y-10470000D02*
X10850000Y-10500000D01*
X10850000Y-10470000D02*
X10820000Y-10500000D01*
X10885000Y-10280000D02*
X10915000Y-10310000D01*
X10915000Y-10280000D02*
X10885000Y-10310000D01*
X10955000Y-8875000D02*
X10985000Y-8905000D01*
X10985000Y-8875000D02*
X10955000Y-8905000D01*
X10985000Y-9148000D02*
X11015000Y-9178000D01*
X11015000Y-9148000D02*
X10985000Y-9178000D01*
X10985000Y-10036000D02*
X11015000Y-10066000D01*
X11015000Y-10036000D02*
X10985000Y-10066000D01*
X10985000Y-10165000D02*
X11015000Y-10195000D01*
X11015000Y-10165000D02*
X10985000Y-10195000D01*
X11070000Y-8680000D02*
X11100000Y-8710000D01*
X11100000Y-8680000D02*
X11070000Y-8710000D01*
X11110000Y-9150000D02*
X11140000Y-9180000D01*
X11140000Y-9150000D02*
X11110000Y-9180000D01*
X11110000Y-10040000D02*
X11140000Y-10070000D01*
X11140000Y-10040000D02*
X11110000Y-10070000D01*
X11180000Y-10640000D02*
X11210000Y-10670000D01*
X11210000Y-10640000D02*
X11180000Y-10670000D01*
X11195000Y-8680000D02*
X11225000Y-8710000D01*
X11225000Y-8680000D02*
X11195000Y-8710000D01*
X11200000Y-9585000D02*
X11230000Y-9615000D01*
X11230000Y-9585000D02*
X11200000Y-9615000D01*
X11200000Y-9655000D02*
X11230000Y-9685000D01*
X11230000Y-9655000D02*
X11200000Y-9685000D01*
X11200000Y-9725000D02*
X11230000Y-9755000D01*
X11230000Y-9725000D02*
X11200000Y-9755000D01*
X11200000Y-10510000D02*
X11230000Y-10540000D01*
X11230000Y-10510000D02*
X11200000Y-10540000D01*
X11265000Y-9400000D02*
X11295000Y-9430000D01*
X11295000Y-9400000D02*
X11265000Y-9430000D01*
X11275000Y-9090000D02*
X11305000Y-9120000D01*
X11305000Y-9090000D02*
X11275000Y-9120000D01*
X11275000Y-9585000D02*
X11305000Y-9615000D01*
X11305000Y-9585000D02*
X11275000Y-9615000D01*
X11275000Y-9655000D02*
X11305000Y-9685000D01*
X11305000Y-9655000D02*
X11275000Y-9685000D01*
X11275000Y-9725000D02*
X11305000Y-9755000D01*
X11305000Y-9725000D02*
X11275000Y-9755000D01*
X11325000Y-8760000D02*
X11355000Y-8790000D01*
X11355000Y-8760000D02*
X11325000Y-8790000D01*
X11325000Y-10510000D02*
X11355000Y-10540000D01*
X11355000Y-10510000D02*
X11325000Y-10540000D01*
X11325000Y-10635000D02*
X11355000Y-10665000D01*
X11355000Y-10635000D02*
X11325000Y-10665000D01*
X11355000Y-9005000D02*
X11385000Y-9035000D01*
X11385000Y-9005000D02*
X11355000Y-9035000D01*
X11445000Y-10035000D02*
X11475000Y-10065000D01*
X11475000Y-10035000D02*
X11445000Y-10065000D01*
X11450000Y-10430000D02*
X11480000Y-10460000D01*
X11480000Y-10430000D02*
X11450000Y-10460000D01*
X11570000Y-9315000D02*
X11600000Y-9345000D01*
X11600000Y-9315000D02*
X11570000Y-9345000D01*
X11572500Y-10047500D02*
X11602500Y-10077500D01*
X11602500Y-10047500D02*
X11572500Y-10077500D01*
X11590000Y-8355000D02*
X11620000Y-8385000D01*
X11620000Y-8355000D02*
X11590000Y-8385000D01*
X11640000Y-9315000D02*
X11670000Y-9345000D01*
X11670000Y-9315000D02*
X11640000Y-9345000D01*
X11640000Y-9725000D02*
X11670000Y-9755000D01*
X11670000Y-9725000D02*
X11640000Y-9755000D01*
X11660000Y-8355000D02*
X11690000Y-8385000D01*
X11690000Y-8355000D02*
X11660000Y-8385000D01*
X11670000Y-9145000D02*
X11700000Y-9175000D01*
X11700000Y-9145000D02*
X11670000Y-9175000D01*
X11695000Y-9620000D02*
X11725000Y-9650000D01*
X11725000Y-9620000D02*
X11695000Y-9650000D01*
X11725000Y-10690000D02*
X11755000Y-10720000D01*
X11755000Y-10690000D02*
X11725000Y-10720000D01*
X11730000Y-8355000D02*
X11760000Y-8385000D01*
X11760000Y-8355000D02*
X11730000Y-8385000D01*
X11795000Y-10765000D02*
X11825000Y-10795000D01*
X11825000Y-10765000D02*
X11795000Y-10795000D01*
X11832000Y-8760000D02*
X11862000Y-8790000D01*
X11862000Y-8760000D02*
X11832000Y-8790000D01*
X11834000Y-10511000D02*
X11864000Y-10541000D01*
X11864000Y-10511000D02*
X11834000Y-10541000D01*
X11960000Y-8680000D02*
X11990000Y-8710000D01*
X11990000Y-8680000D02*
X11960000Y-8710000D01*
X11961000Y-8552000D02*
X11991000Y-8582000D01*
X11991000Y-8552000D02*
X11961000Y-8582000D01*
X12045000Y-9750000D02*
X12075000Y-9780000D01*
X12075000Y-9750000D02*
X12045000Y-9780000D01*
X12045000Y-9820000D02*
X12075000Y-9850000D01*
X12075000Y-9820000D02*
X12045000Y-9850000D01*
X12045000Y-9890000D02*
X12075000Y-9920000D01*
X12075000Y-9890000D02*
X12045000Y-9920000D01*
X12065000Y-9085000D02*
X12095000Y-9115000D01*
X12095000Y-9085000D02*
X12065000Y-9115000D01*
X12090000Y-8550000D02*
X12120000Y-8580000D01*
X12120000Y-8550000D02*
X12090000Y-8580000D01*
X12090000Y-8680000D02*
X12120000Y-8710000D01*
X12120000Y-8680000D02*
X12090000Y-8710000D01*
X12090000Y-10510000D02*
X12120000Y-10540000D01*
X12120000Y-10510000D02*
X12090000Y-10540000D01*
X12226000Y-10016250D02*
X12256000Y-10046250D01*
X12256000Y-10016250D02*
X12226000Y-10046250D01*
X12379000Y-10018250D02*
X12409000Y-10048250D01*
X12409000Y-10018250D02*
X12379000Y-10048250D01*
X12400000Y-9487500D02*
X12430000Y-9517500D01*
X12430000Y-9487500D02*
X12400000Y-9517500D01*
X12420000Y-10705000D02*
X12450000Y-10735000D01*
X12450000Y-10705000D02*
X12420000Y-10735000D01*
X12420000Y-10780000D02*
X12450000Y-10810000D01*
X12450000Y-10780000D02*
X12420000Y-10810000D01*
X12437500Y-9295000D02*
X12467500Y-9325000D01*
X12467500Y-9295000D02*
X12437500Y-9325000D01*
X12437500Y-9362500D02*
X12467500Y-9392500D01*
X12467500Y-9362500D02*
X12437500Y-9392500D01*
X12437500Y-9432500D02*
X12467500Y-9462500D01*
X12467500Y-9432500D02*
X12437500Y-9462500D01*
X12439000Y-9141000D02*
X12469000Y-9171000D01*
X12469000Y-9141000D02*
X12439000Y-9171000D01*
X12450000Y-8405000D02*
X12480000Y-8435000D01*
X12480000Y-8405000D02*
X12450000Y-8435000D01*
X12450000Y-8480000D02*
X12480000Y-8510000D01*
X12480000Y-8480000D02*
X12450000Y-8510000D01*
X12469500Y-8742500D02*
X12499500Y-8772500D01*
X12499500Y-8742500D02*
X12469500Y-8772500D01*
X12490000Y-10705000D02*
X12520000Y-10735000D01*
X12520000Y-10705000D02*
X12490000Y-10735000D01*
X12490000Y-10780000D02*
X12520000Y-10810000D01*
X12520000Y-10780000D02*
X12490000Y-10810000D01*
X12520000Y-8405000D02*
X12550000Y-8435000D01*
X12550000Y-8405000D02*
X12520000Y-8435000D01*
X12520000Y-8480000D02*
X12550000Y-8510000D01*
X12550000Y-8480000D02*
X12520000Y-8510000D01*
X12560000Y-10705000D02*
X12590000Y-10735000D01*
X12590000Y-10705000D02*
X12560000Y-10735000D01*
X12560000Y-10780000D02*
X12590000Y-10810000D01*
X12590000Y-10780000D02*
X12560000Y-10810000D01*
X12590000Y-8405000D02*
X12620000Y-8435000D01*
X12620000Y-8405000D02*
X12590000Y-8435000D01*
X12590000Y-8480000D02*
X12620000Y-8510000D01*
X12620000Y-8480000D02*
X12590000Y-8510000D01*
X12590000Y-9527500D02*
X12620000Y-9557500D01*
X12620000Y-9527500D02*
X12590000Y-9557500D01*
X12590000Y-9600000D02*
X12620000Y-9630000D01*
X12620000Y-9600000D02*
X12590000Y-9630000D01*
X12592500Y-9310000D02*
X12622500Y-9340000D01*
X12622500Y-9310000D02*
X12592500Y-9340000D01*
X12592500Y-9382500D02*
X12622500Y-9412500D01*
X12622500Y-9382500D02*
X12592500Y-9412500D01*
X12592500Y-9455000D02*
X12622500Y-9485000D01*
X12622500Y-9455000D02*
X12592500Y-9485000D01*
X12600000Y-8685000D02*
X12630000Y-8715000D01*
X12630000Y-8685000D02*
X12600000Y-8715000D01*
X12600000Y-8755000D02*
X12630000Y-8785000D01*
X12630000Y-8755000D02*
X12600000Y-8785000D01*
X12600000Y-8825000D02*
X12630000Y-8855000D01*
X12630000Y-8825000D02*
X12600000Y-8855000D01*
X12605000Y-9920000D02*
X12635000Y-9950000D01*
X12635000Y-9920000D02*
X12605000Y-9950000D01*
X12605000Y-9990000D02*
X12635000Y-10020000D01*
X12635000Y-9990000D02*
X12605000Y-10020000D01*
X12605000Y-10060000D02*
X12635000Y-10090000D01*
X12635000Y-10060000D02*
X12605000Y-10090000D01*
D12*
X7967500Y-10790000D02*
G75*
G03*
X7967500Y-10790000I-47500J0D01*
G01*
X8217500Y-10790000D02*
G75*
G03*
X8217500Y-10790000I-47500J0D01*
G01*
X8467500Y-10790000D02*
G75*
G03*
X8467500Y-10790000I-47500J0D01*
G01*
X8717500Y-10790000D02*
G75*
G03*
X8717500Y-10790000I-47500J0D01*
G01*
X8967500Y-10790000D02*
G75*
G03*
X8967500Y-10790000I-47500J0D01*
G01*
X9217500Y-10790000D02*
G75*
G03*
X9217500Y-10790000I-47500J0D01*
G01*
D13*
X7540000Y-8300000D02*
X7540000Y-8400000D01*
X7490000Y-8350000D02*
X7590000Y-8350000D01*
X7780000Y-8300000D02*
X7780000Y-8400000D01*
X7730000Y-8350000D02*
X7830000Y-8350000D01*
X7990000Y-8300000D02*
X7990000Y-8400000D01*
X7940000Y-8350000D02*
X8040000Y-8350000D01*
X8230000Y-8300000D02*
X8230000Y-8400000D01*
X8180000Y-8350000D02*
X8280000Y-8350000D01*
X8725000Y-8300000D02*
X8725000Y-8400000D01*
X8675000Y-8350000D02*
X8775000Y-8350000D01*
X8735000Y-9540000D02*
X8735000Y-9640000D01*
X8685000Y-9590000D02*
X8785000Y-9590000D01*
X8965000Y-8300000D02*
X8965000Y-8400000D01*
X8915000Y-8350000D02*
X9015000Y-8350000D01*
X8985000Y-9540000D02*
X8985000Y-9640000D01*
X8935000Y-9590000D02*
X9035000Y-9590000D01*
X9175000Y-8300000D02*
X9175000Y-8400000D01*
X9125000Y-8350000D02*
X9225000Y-8350000D01*
X9415000Y-8300000D02*
X9415000Y-8400000D01*
X9365000Y-8350000D02*
X9465000Y-8350000D01*
D14*
X9704921Y-8241921D02*
X9704921Y-8170079D01*
X9633079Y-8170079D01*
X9633079Y-8241921D01*
X9704921Y-8241921D01*
X9704921Y-11035921D02*
X9704921Y-10964079D01*
X9633079Y-10964079D01*
X9633079Y-11035921D01*
X9704921Y-11035921D01*
X9958921Y-8241921D02*
X9958921Y-8170079D01*
X9887079Y-8170079D01*
X9887079Y-8241921D01*
X9958921Y-8241921D01*
X9958921Y-11035921D02*
X9958921Y-10964079D01*
X9887079Y-10964079D01*
X9887079Y-11035921D01*
X9958921Y-11035921D01*
X10212921Y-8241921D02*
X10212921Y-8170079D01*
X10141079Y-8170079D01*
X10141079Y-8241921D01*
X10212921Y-8241921D01*
X10212921Y-11035921D02*
X10212921Y-10964079D01*
X10141079Y-10964079D01*
X10141079Y-11035921D01*
X10212921Y-11035921D01*
X10466921Y-8241921D02*
X10466921Y-8170079D01*
X10395079Y-8170079D01*
X10395079Y-8241921D01*
X10466921Y-8241921D01*
X10466921Y-11035921D02*
X10466921Y-10964079D01*
X10395079Y-10964079D01*
X10395079Y-11035921D01*
X10466921Y-11035921D01*
X10720921Y-8241921D02*
X10720921Y-8170079D01*
X10649079Y-8170079D01*
X10649079Y-8241921D01*
X10720921Y-8241921D01*
X10720921Y-11035921D02*
X10720921Y-10964079D01*
X10649079Y-10964079D01*
X10649079Y-11035921D01*
X10720921Y-11035921D01*
X10974921Y-8241921D02*
X10974921Y-8170079D01*
X10903079Y-8170079D01*
X10903079Y-8241921D01*
X10974921Y-8241921D01*
X10974921Y-11035921D02*
X10974921Y-10964079D01*
X10903079Y-10964079D01*
X10903079Y-11035921D01*
X10974921Y-11035921D01*
X11228921Y-8241921D02*
X11228921Y-8170079D01*
X11157079Y-8170079D01*
X11157079Y-8241921D01*
X11228921Y-8241921D01*
X11228921Y-11035921D02*
X11228921Y-10964079D01*
X11157079Y-10964079D01*
X11157079Y-11035921D01*
X11228921Y-11035921D01*
X11482921Y-8241921D02*
X11482921Y-8170079D01*
X11411079Y-8170079D01*
X11411079Y-8241921D01*
X11482921Y-8241921D01*
X11482921Y-11035921D02*
X11482921Y-10964079D01*
X11411079Y-10964079D01*
X11411079Y-11035921D01*
X11482921Y-11035921D01*
X11736921Y-8241921D02*
X11736921Y-8170079D01*
X11665079Y-8170079D01*
X11665079Y-8241921D01*
X11736921Y-8241921D01*
X11736921Y-11035921D02*
X11736921Y-10964079D01*
X11665079Y-10964079D01*
X11665079Y-11035921D01*
X11736921Y-11035921D01*
X11990921Y-8241921D02*
X11990921Y-8170079D01*
X11919079Y-8170079D01*
X11919079Y-8241921D01*
X11990921Y-8241921D01*
X11990921Y-11035921D02*
X11990921Y-10964079D01*
X11919079Y-10964079D01*
X11919079Y-11035921D01*
X11990921Y-11035921D01*
X12244921Y-8241921D02*
X12244921Y-8170079D01*
X12173079Y-8170079D01*
X12173079Y-8241921D01*
X12244921Y-8241921D01*
X12244921Y-11035921D02*
X12244921Y-10964079D01*
X12173079Y-10964079D01*
X12173079Y-11035921D01*
X12244921Y-11035921D01*
X12498921Y-8241921D02*
X12498921Y-8170079D01*
X12427079Y-8170079D01*
X12427079Y-8241921D01*
X12498921Y-8241921D01*
X12498921Y-11035921D02*
X12498921Y-10964079D01*
X12427079Y-10964079D01*
X12427079Y-11035921D01*
X12498921Y-11035921D01*
D15*
X7415000Y-8665000D02*
X7480000Y-8600000D01*
X7415000Y-8535000D01*
X7350000Y-8600000D01*
X7415000Y-8665000D01*
X7655000Y-8665000D02*
X7720000Y-8600000D01*
X7655000Y-8535000D01*
X7590000Y-8600000D01*
X7655000Y-8665000D01*
X8115000Y-8665000D02*
X8180000Y-8600000D01*
X8115000Y-8535000D01*
X8050000Y-8600000D01*
X8115000Y-8665000D01*
X8355000Y-8665000D02*
X8420000Y-8600000D01*
X8355000Y-8535000D01*
X8290000Y-8600000D01*
X8355000Y-8665000D01*
X8600000Y-8665000D02*
X8665000Y-8600000D01*
X8600000Y-8535000D01*
X8535000Y-8600000D01*
X8600000Y-8665000D01*
X8840000Y-8665000D02*
X8905000Y-8600000D01*
X8840000Y-8535000D01*
X8775000Y-8600000D01*
X8840000Y-8665000D01*
X9300000Y-8665000D02*
X9365000Y-8600000D01*
X9300000Y-8535000D01*
X9235000Y-8600000D01*
X9300000Y-8665000D01*
X9540000Y-8665000D02*
X9605000Y-8600000D01*
X9540000Y-8535000D01*
X9475000Y-8600000D01*
X9540000Y-8665000D01*
D16*
X6975500Y-8315500D02*
X7250500Y-8590500D01*
X7250500Y-8315500D02*
X6975500Y-8590500D01*
X7250500Y-8453000D02*
G75*
G03*
X7250500Y-8453000I-137500J0D01*
G01*
X6975500Y-10615500D02*
X7250500Y-10890500D01*
X7250500Y-10615500D02*
X6975500Y-10890500D01*
X7250500Y-10753000D02*
G75*
G03*
X7250500Y-10753000I-137500J0D01*
G01*
X12775500Y-8315500D02*
X13050500Y-8590500D01*
X13050500Y-8315500D02*
X12775500Y-8590500D01*
X13050500Y-8453000D02*
G75*
G03*
X13050500Y-8453000I-137500J0D01*
G01*
X12775500Y-10615500D02*
X13050500Y-10890500D01*
X13050500Y-10615500D02*
X12775500Y-10890500D01*
X13050500Y-10753000D02*
G75*
G03*
X13050500Y-10753000I-137500J0D01*
G01*
D10*
X7021277Y-11416984D02*
X7021277Y-11216984D01*
X7021277Y-11216984D02*
X7068896Y-11216984D01*
X7068896Y-11216984D02*
X7097467Y-11226508D01*
X7097467Y-11226508D02*
X7116515Y-11245555D01*
X7116515Y-11245555D02*
X7126039Y-11264603D01*
X7126039Y-11264603D02*
X7135562Y-11302698D01*
X7135562Y-11302698D02*
X7135562Y-11331269D01*
X7135562Y-11331269D02*
X7126039Y-11369365D01*
X7126039Y-11369365D02*
X7116515Y-11388412D01*
X7116515Y-11388412D02*
X7097467Y-11407460D01*
X7097467Y-11407460D02*
X7068896Y-11416984D01*
X7068896Y-11416984D02*
X7021277Y-11416984D01*
X7221277Y-11416984D02*
X7221277Y-11283650D01*
X7221277Y-11321746D02*
X7230801Y-11302698D01*
X7230801Y-11302698D02*
X7240324Y-11293174D01*
X7240324Y-11293174D02*
X7259372Y-11283650D01*
X7259372Y-11283650D02*
X7278420Y-11283650D01*
X7345086Y-11416984D02*
X7345086Y-11283650D01*
X7345086Y-11216984D02*
X7335562Y-11226508D01*
X7335562Y-11226508D02*
X7345086Y-11236031D01*
X7345086Y-11236031D02*
X7354610Y-11226508D01*
X7354610Y-11226508D02*
X7345086Y-11216984D01*
X7345086Y-11216984D02*
X7345086Y-11236031D01*
X7468896Y-11416984D02*
X7449848Y-11407460D01*
X7449848Y-11407460D02*
X7440324Y-11388412D01*
X7440324Y-11388412D02*
X7440324Y-11216984D01*
X7573658Y-11416984D02*
X7554610Y-11407460D01*
X7554610Y-11407460D02*
X7545086Y-11388412D01*
X7545086Y-11388412D02*
X7545086Y-11216984D01*
X7802229Y-11416984D02*
X7802229Y-11216984D01*
X7802229Y-11216984D02*
X7868896Y-11359841D01*
X7868896Y-11359841D02*
X7935562Y-11216984D01*
X7935562Y-11216984D02*
X7935562Y-11416984D01*
X8116515Y-11416984D02*
X8116515Y-11312222D01*
X8116515Y-11312222D02*
X8106991Y-11293174D01*
X8106991Y-11293174D02*
X8087943Y-11283650D01*
X8087943Y-11283650D02*
X8049848Y-11283650D01*
X8049848Y-11283650D02*
X8030801Y-11293174D01*
X8116515Y-11407460D02*
X8097467Y-11416984D01*
X8097467Y-11416984D02*
X8049848Y-11416984D01*
X8049848Y-11416984D02*
X8030801Y-11407460D01*
X8030801Y-11407460D02*
X8021277Y-11388412D01*
X8021277Y-11388412D02*
X8021277Y-11369365D01*
X8021277Y-11369365D02*
X8030801Y-11350317D01*
X8030801Y-11350317D02*
X8049848Y-11340793D01*
X8049848Y-11340793D02*
X8097467Y-11340793D01*
X8097467Y-11340793D02*
X8116515Y-11331269D01*
X8211753Y-11283650D02*
X8211753Y-11483650D01*
X8211753Y-11293174D02*
X8230801Y-11283650D01*
X8230801Y-11283650D02*
X8268896Y-11283650D01*
X8268896Y-11283650D02*
X8287943Y-11293174D01*
X8287943Y-11293174D02*
X8297467Y-11302698D01*
X8297467Y-11302698D02*
X8306991Y-11321746D01*
X8306991Y-11321746D02*
X8306991Y-11378888D01*
X8306991Y-11378888D02*
X8297467Y-11397936D01*
X8297467Y-11397936D02*
X8287943Y-11407460D01*
X8287943Y-11407460D02*
X8268896Y-11416984D01*
X8268896Y-11416984D02*
X8230801Y-11416984D01*
X8230801Y-11416984D02*
X8211753Y-11407460D01*
X8392705Y-11397936D02*
X8402229Y-11407460D01*
X8402229Y-11407460D02*
X8392705Y-11416984D01*
X8392705Y-11416984D02*
X8383182Y-11407460D01*
X8383182Y-11407460D02*
X8392705Y-11397936D01*
X8392705Y-11397936D02*
X8392705Y-11416984D01*
X8392705Y-11293174D02*
X8402229Y-11302698D01*
X8402229Y-11302698D02*
X8392705Y-11312222D01*
X8392705Y-11312222D02*
X8383182Y-11302698D01*
X8383182Y-11302698D02*
X8392705Y-11293174D01*
X8392705Y-11293174D02*
X8392705Y-11312222D01*
D11*
X6730500Y-11730500D02*
X6760500Y-11760500D01*
X6760500Y-11730500D02*
X6730500Y-11760500D01*
D10*
X7059372Y-11636984D02*
X7078420Y-11636984D01*
X7078420Y-11636984D02*
X7097467Y-11646508D01*
X7097467Y-11646508D02*
X7106991Y-11656031D01*
X7106991Y-11656031D02*
X7116515Y-11675079D01*
X7116515Y-11675079D02*
X7126039Y-11713174D01*
X7126039Y-11713174D02*
X7126039Y-11760793D01*
X7126039Y-11760793D02*
X7116515Y-11798888D01*
X7116515Y-11798888D02*
X7106991Y-11817936D01*
X7106991Y-11817936D02*
X7097467Y-11827460D01*
X7097467Y-11827460D02*
X7078420Y-11836984D01*
X7078420Y-11836984D02*
X7059372Y-11836984D01*
X7059372Y-11836984D02*
X7040324Y-11827460D01*
X7040324Y-11827460D02*
X7030801Y-11817936D01*
X7030801Y-11817936D02*
X7021277Y-11798888D01*
X7021277Y-11798888D02*
X7011753Y-11760793D01*
X7011753Y-11760793D02*
X7011753Y-11713174D01*
X7011753Y-11713174D02*
X7021277Y-11675079D01*
X7021277Y-11675079D02*
X7030801Y-11656031D01*
X7030801Y-11656031D02*
X7040324Y-11646508D01*
X7040324Y-11646508D02*
X7059372Y-11636984D01*
X7211753Y-11817936D02*
X7221277Y-11827460D01*
X7221277Y-11827460D02*
X7211753Y-11836984D01*
X7211753Y-11836984D02*
X7202229Y-11827460D01*
X7202229Y-11827460D02*
X7211753Y-11817936D01*
X7211753Y-11817936D02*
X7211753Y-11836984D01*
X7287943Y-11636984D02*
X7411753Y-11636984D01*
X7411753Y-11636984D02*
X7345086Y-11713174D01*
X7345086Y-11713174D02*
X7373658Y-11713174D01*
X7373658Y-11713174D02*
X7392705Y-11722698D01*
X7392705Y-11722698D02*
X7402229Y-11732222D01*
X7402229Y-11732222D02*
X7411753Y-11751269D01*
X7411753Y-11751269D02*
X7411753Y-11798888D01*
X7411753Y-11798888D02*
X7402229Y-11817936D01*
X7402229Y-11817936D02*
X7392705Y-11827460D01*
X7392705Y-11827460D02*
X7373658Y-11836984D01*
X7373658Y-11836984D02*
X7316515Y-11836984D01*
X7316515Y-11836984D02*
X7297467Y-11827460D01*
X7297467Y-11827460D02*
X7287943Y-11817936D01*
X7535562Y-11636984D02*
X7554610Y-11636984D01*
X7554610Y-11636984D02*
X7573658Y-11646508D01*
X7573658Y-11646508D02*
X7583182Y-11656031D01*
X7583182Y-11656031D02*
X7592705Y-11675079D01*
X7592705Y-11675079D02*
X7602229Y-11713174D01*
X7602229Y-11713174D02*
X7602229Y-11760793D01*
X7602229Y-11760793D02*
X7592705Y-11798888D01*
X7592705Y-11798888D02*
X7583182Y-11817936D01*
X7583182Y-11817936D02*
X7573658Y-11827460D01*
X7573658Y-11827460D02*
X7554610Y-11836984D01*
X7554610Y-11836984D02*
X7535562Y-11836984D01*
X7535562Y-11836984D02*
X7516515Y-11827460D01*
X7516515Y-11827460D02*
X7506991Y-11817936D01*
X7506991Y-11817936D02*
X7497467Y-11798888D01*
X7497467Y-11798888D02*
X7487943Y-11760793D01*
X7487943Y-11760793D02*
X7487943Y-11713174D01*
X7487943Y-11713174D02*
X7497467Y-11675079D01*
X7497467Y-11675079D02*
X7506991Y-11656031D01*
X7506991Y-11656031D02*
X7516515Y-11646508D01*
X7516515Y-11646508D02*
X7535562Y-11636984D01*
X7726039Y-11636984D02*
X7745086Y-11636984D01*
X7745086Y-11636984D02*
X7764134Y-11646508D01*
X7764134Y-11646508D02*
X7773658Y-11656031D01*
X7773658Y-11656031D02*
X7783182Y-11675079D01*
X7783182Y-11675079D02*
X7792705Y-11713174D01*
X7792705Y-11713174D02*
X7792705Y-11760793D01*
X7792705Y-11760793D02*
X7783182Y-11798888D01*
X7783182Y-11798888D02*
X7773658Y-11817936D01*
X7773658Y-11817936D02*
X7764134Y-11827460D01*
X7764134Y-11827460D02*
X7745086Y-11836984D01*
X7745086Y-11836984D02*
X7726039Y-11836984D01*
X7726039Y-11836984D02*
X7706991Y-11827460D01*
X7706991Y-11827460D02*
X7697467Y-11817936D01*
X7697467Y-11817936D02*
X7687943Y-11798888D01*
X7687943Y-11798888D02*
X7678420Y-11760793D01*
X7678420Y-11760793D02*
X7678420Y-11713174D01*
X7678420Y-11713174D02*
X7687943Y-11675079D01*
X7687943Y-11675079D02*
X7697467Y-11656031D01*
X7697467Y-11656031D02*
X7706991Y-11646508D01*
X7706991Y-11646508D02*
X7726039Y-11636984D01*
X7878420Y-11836984D02*
X7878420Y-11703650D01*
X7878420Y-11722698D02*
X7887943Y-11713174D01*
X7887943Y-11713174D02*
X7906991Y-11703650D01*
X7906991Y-11703650D02*
X7935563Y-11703650D01*
X7935563Y-11703650D02*
X7954610Y-11713174D01*
X7954610Y-11713174D02*
X7964134Y-11732222D01*
X7964134Y-11732222D02*
X7964134Y-11836984D01*
X7964134Y-11732222D02*
X7973658Y-11713174D01*
X7973658Y-11713174D02*
X7992705Y-11703650D01*
X7992705Y-11703650D02*
X8021277Y-11703650D01*
X8021277Y-11703650D02*
X8040324Y-11713174D01*
X8040324Y-11713174D02*
X8049848Y-11732222D01*
X8049848Y-11732222D02*
X8049848Y-11836984D01*
X8145086Y-11836984D02*
X8145086Y-11703650D01*
X8145086Y-11722698D02*
X8154610Y-11713174D01*
X8154610Y-11713174D02*
X8173658Y-11703650D01*
X8173658Y-11703650D02*
X8202229Y-11703650D01*
X8202229Y-11703650D02*
X8221277Y-11713174D01*
X8221277Y-11713174D02*
X8230801Y-11732222D01*
X8230801Y-11732222D02*
X8230801Y-11836984D01*
X8230801Y-11732222D02*
X8240324Y-11713174D01*
X8240324Y-11713174D02*
X8259372Y-11703650D01*
X8259372Y-11703650D02*
X8287943Y-11703650D01*
X8287943Y-11703650D02*
X8306991Y-11713174D01*
X8306991Y-11713174D02*
X8316515Y-11732222D01*
X8316515Y-11732222D02*
X8316515Y-11836984D01*
X8706991Y-11627460D02*
X8535563Y-11884603D01*
X8964134Y-11636984D02*
X8983182Y-11636984D01*
X8983182Y-11636984D02*
X9002229Y-11646508D01*
X9002229Y-11646508D02*
X9011753Y-11656031D01*
X9011753Y-11656031D02*
X9021277Y-11675079D01*
X9021277Y-11675079D02*
X9030801Y-11713174D01*
X9030801Y-11713174D02*
X9030801Y-11760793D01*
X9030801Y-11760793D02*
X9021277Y-11798888D01*
X9021277Y-11798888D02*
X9011753Y-11817936D01*
X9011753Y-11817936D02*
X9002229Y-11827460D01*
X9002229Y-11827460D02*
X8983182Y-11836984D01*
X8983182Y-11836984D02*
X8964134Y-11836984D01*
X8964134Y-11836984D02*
X8945087Y-11827460D01*
X8945087Y-11827460D02*
X8935563Y-11817936D01*
X8935563Y-11817936D02*
X8926039Y-11798888D01*
X8926039Y-11798888D02*
X8916515Y-11760793D01*
X8916515Y-11760793D02*
X8916515Y-11713174D01*
X8916515Y-11713174D02*
X8926039Y-11675079D01*
X8926039Y-11675079D02*
X8935563Y-11656031D01*
X8935563Y-11656031D02*
X8945087Y-11646508D01*
X8945087Y-11646508D02*
X8964134Y-11636984D01*
X9116515Y-11817936D02*
X9126039Y-11827460D01*
X9126039Y-11827460D02*
X9116515Y-11836984D01*
X9116515Y-11836984D02*
X9106991Y-11827460D01*
X9106991Y-11827460D02*
X9116515Y-11817936D01*
X9116515Y-11817936D02*
X9116515Y-11836984D01*
X9249848Y-11636984D02*
X9268896Y-11636984D01*
X9268896Y-11636984D02*
X9287944Y-11646508D01*
X9287944Y-11646508D02*
X9297468Y-11656031D01*
X9297468Y-11656031D02*
X9306991Y-11675079D01*
X9306991Y-11675079D02*
X9316515Y-11713174D01*
X9316515Y-11713174D02*
X9316515Y-11760793D01*
X9316515Y-11760793D02*
X9306991Y-11798888D01*
X9306991Y-11798888D02*
X9297468Y-11817936D01*
X9297468Y-11817936D02*
X9287944Y-11827460D01*
X9287944Y-11827460D02*
X9268896Y-11836984D01*
X9268896Y-11836984D02*
X9249848Y-11836984D01*
X9249848Y-11836984D02*
X9230801Y-11827460D01*
X9230801Y-11827460D02*
X9221277Y-11817936D01*
X9221277Y-11817936D02*
X9211753Y-11798888D01*
X9211753Y-11798888D02*
X9202229Y-11760793D01*
X9202229Y-11760793D02*
X9202229Y-11713174D01*
X9202229Y-11713174D02*
X9211753Y-11675079D01*
X9211753Y-11675079D02*
X9221277Y-11656031D01*
X9221277Y-11656031D02*
X9230801Y-11646508D01*
X9230801Y-11646508D02*
X9249848Y-11636984D01*
X9506991Y-11836984D02*
X9392706Y-11836984D01*
X9449848Y-11836984D02*
X9449848Y-11636984D01*
X9449848Y-11636984D02*
X9430801Y-11665555D01*
X9430801Y-11665555D02*
X9411753Y-11684603D01*
X9411753Y-11684603D02*
X9392706Y-11694127D01*
X9697468Y-11836984D02*
X9583182Y-11836984D01*
X9640325Y-11836984D02*
X9640325Y-11636984D01*
X9640325Y-11636984D02*
X9621277Y-11665555D01*
X9621277Y-11665555D02*
X9602229Y-11684603D01*
X9602229Y-11684603D02*
X9583182Y-11694127D01*
X9811753Y-11722698D02*
X9792706Y-11713174D01*
X9792706Y-11713174D02*
X9783182Y-11703650D01*
X9783182Y-11703650D02*
X9773658Y-11684603D01*
X9773658Y-11684603D02*
X9773658Y-11675079D01*
X9773658Y-11675079D02*
X9783182Y-11656031D01*
X9783182Y-11656031D02*
X9792706Y-11646508D01*
X9792706Y-11646508D02*
X9811753Y-11636984D01*
X9811753Y-11636984D02*
X9849849Y-11636984D01*
X9849849Y-11636984D02*
X9868896Y-11646508D01*
X9868896Y-11646508D02*
X9878420Y-11656031D01*
X9878420Y-11656031D02*
X9887944Y-11675079D01*
X9887944Y-11675079D02*
X9887944Y-11684603D01*
X9887944Y-11684603D02*
X9878420Y-11703650D01*
X9878420Y-11703650D02*
X9868896Y-11713174D01*
X9868896Y-11713174D02*
X9849849Y-11722698D01*
X9849849Y-11722698D02*
X9811753Y-11722698D01*
X9811753Y-11722698D02*
X9792706Y-11732222D01*
X9792706Y-11732222D02*
X9783182Y-11741746D01*
X9783182Y-11741746D02*
X9773658Y-11760793D01*
X9773658Y-11760793D02*
X9773658Y-11798888D01*
X9773658Y-11798888D02*
X9783182Y-11817936D01*
X9783182Y-11817936D02*
X9792706Y-11827460D01*
X9792706Y-11827460D02*
X9811753Y-11836984D01*
X9811753Y-11836984D02*
X9849849Y-11836984D01*
X9849849Y-11836984D02*
X9868896Y-11827460D01*
X9868896Y-11827460D02*
X9878420Y-11817936D01*
X9878420Y-11817936D02*
X9887944Y-11798888D01*
X9887944Y-11798888D02*
X9887944Y-11760793D01*
X9887944Y-11760793D02*
X9878420Y-11741746D01*
X9878420Y-11741746D02*
X9868896Y-11732222D01*
X9868896Y-11732222D02*
X9849849Y-11722698D01*
X9964134Y-11636984D02*
X9964134Y-11675079D01*
X10040325Y-11636984D02*
X10040325Y-11675079D01*
X10335563Y-11913174D02*
X10326039Y-11903650D01*
X10326039Y-11903650D02*
X10306991Y-11875079D01*
X10306991Y-11875079D02*
X10297468Y-11856031D01*
X10297468Y-11856031D02*
X10287944Y-11827460D01*
X10287944Y-11827460D02*
X10278420Y-11779841D01*
X10278420Y-11779841D02*
X10278420Y-11741746D01*
X10278420Y-11741746D02*
X10287944Y-11694127D01*
X10287944Y-11694127D02*
X10297468Y-11665555D01*
X10297468Y-11665555D02*
X10306991Y-11646508D01*
X10306991Y-11646508D02*
X10326039Y-11617936D01*
X10326039Y-11617936D02*
X10335563Y-11608412D01*
X10402230Y-11656031D02*
X10411753Y-11646508D01*
X10411753Y-11646508D02*
X10430801Y-11636984D01*
X10430801Y-11636984D02*
X10478420Y-11636984D01*
X10478420Y-11636984D02*
X10497468Y-11646508D01*
X10497468Y-11646508D02*
X10506991Y-11656031D01*
X10506991Y-11656031D02*
X10516515Y-11675079D01*
X10516515Y-11675079D02*
X10516515Y-11694127D01*
X10516515Y-11694127D02*
X10506991Y-11722698D01*
X10506991Y-11722698D02*
X10392706Y-11836984D01*
X10392706Y-11836984D02*
X10516515Y-11836984D01*
X10640325Y-11636984D02*
X10659372Y-11636984D01*
X10659372Y-11636984D02*
X10678420Y-11646508D01*
X10678420Y-11646508D02*
X10687944Y-11656031D01*
X10687944Y-11656031D02*
X10697468Y-11675079D01*
X10697468Y-11675079D02*
X10706991Y-11713174D01*
X10706991Y-11713174D02*
X10706991Y-11760793D01*
X10706991Y-11760793D02*
X10697468Y-11798888D01*
X10697468Y-11798888D02*
X10687944Y-11817936D01*
X10687944Y-11817936D02*
X10678420Y-11827460D01*
X10678420Y-11827460D02*
X10659372Y-11836984D01*
X10659372Y-11836984D02*
X10640325Y-11836984D01*
X10640325Y-11836984D02*
X10621277Y-11827460D01*
X10621277Y-11827460D02*
X10611753Y-11817936D01*
X10611753Y-11817936D02*
X10602230Y-11798888D01*
X10602230Y-11798888D02*
X10592706Y-11760793D01*
X10592706Y-11760793D02*
X10592706Y-11713174D01*
X10592706Y-11713174D02*
X10602230Y-11675079D01*
X10602230Y-11675079D02*
X10611753Y-11656031D01*
X10611753Y-11656031D02*
X10621277Y-11646508D01*
X10621277Y-11646508D02*
X10640325Y-11636984D01*
X10887944Y-11636984D02*
X10792706Y-11636984D01*
X10792706Y-11636984D02*
X10783182Y-11732222D01*
X10783182Y-11732222D02*
X10792706Y-11722698D01*
X10792706Y-11722698D02*
X10811753Y-11713174D01*
X10811753Y-11713174D02*
X10859372Y-11713174D01*
X10859372Y-11713174D02*
X10878420Y-11722698D01*
X10878420Y-11722698D02*
X10887944Y-11732222D01*
X10887944Y-11732222D02*
X10897468Y-11751269D01*
X10897468Y-11751269D02*
X10897468Y-11798888D01*
X10897468Y-11798888D02*
X10887944Y-11817936D01*
X10887944Y-11817936D02*
X10878420Y-11827460D01*
X10878420Y-11827460D02*
X10859372Y-11836984D01*
X10859372Y-11836984D02*
X10811753Y-11836984D01*
X10811753Y-11836984D02*
X10792706Y-11827460D01*
X10792706Y-11827460D02*
X10783182Y-11817936D01*
X11135563Y-11836984D02*
X11135563Y-11636984D01*
X11221277Y-11836984D02*
X11221277Y-11732222D01*
X11221277Y-11732222D02*
X11211753Y-11713174D01*
X11211753Y-11713174D02*
X11192706Y-11703650D01*
X11192706Y-11703650D02*
X11164134Y-11703650D01*
X11164134Y-11703650D02*
X11145087Y-11713174D01*
X11145087Y-11713174D02*
X11135563Y-11722698D01*
X11345087Y-11836984D02*
X11326039Y-11827460D01*
X11326039Y-11827460D02*
X11316515Y-11817936D01*
X11316515Y-11817936D02*
X11306991Y-11798888D01*
X11306991Y-11798888D02*
X11306991Y-11741746D01*
X11306991Y-11741746D02*
X11316515Y-11722698D01*
X11316515Y-11722698D02*
X11326039Y-11713174D01*
X11326039Y-11713174D02*
X11345087Y-11703650D01*
X11345087Y-11703650D02*
X11373658Y-11703650D01*
X11373658Y-11703650D02*
X11392706Y-11713174D01*
X11392706Y-11713174D02*
X11402230Y-11722698D01*
X11402230Y-11722698D02*
X11411753Y-11741746D01*
X11411753Y-11741746D02*
X11411753Y-11798888D01*
X11411753Y-11798888D02*
X11402230Y-11817936D01*
X11402230Y-11817936D02*
X11392706Y-11827460D01*
X11392706Y-11827460D02*
X11373658Y-11836984D01*
X11373658Y-11836984D02*
X11345087Y-11836984D01*
X11526039Y-11836984D02*
X11506991Y-11827460D01*
X11506991Y-11827460D02*
X11497468Y-11808412D01*
X11497468Y-11808412D02*
X11497468Y-11636984D01*
X11678420Y-11827460D02*
X11659372Y-11836984D01*
X11659372Y-11836984D02*
X11621277Y-11836984D01*
X11621277Y-11836984D02*
X11602230Y-11827460D01*
X11602230Y-11827460D02*
X11592706Y-11808412D01*
X11592706Y-11808412D02*
X11592706Y-11732222D01*
X11592706Y-11732222D02*
X11602230Y-11713174D01*
X11602230Y-11713174D02*
X11621277Y-11703650D01*
X11621277Y-11703650D02*
X11659372Y-11703650D01*
X11659372Y-11703650D02*
X11678420Y-11713174D01*
X11678420Y-11713174D02*
X11687944Y-11732222D01*
X11687944Y-11732222D02*
X11687944Y-11751269D01*
X11687944Y-11751269D02*
X11592706Y-11770317D01*
X11764134Y-11827460D02*
X11783182Y-11836984D01*
X11783182Y-11836984D02*
X11821277Y-11836984D01*
X11821277Y-11836984D02*
X11840325Y-11827460D01*
X11840325Y-11827460D02*
X11849849Y-11808412D01*
X11849849Y-11808412D02*
X11849849Y-11798888D01*
X11849849Y-11798888D02*
X11840325Y-11779841D01*
X11840325Y-11779841D02*
X11821277Y-11770317D01*
X11821277Y-11770317D02*
X11792706Y-11770317D01*
X11792706Y-11770317D02*
X11773658Y-11760793D01*
X11773658Y-11760793D02*
X11764134Y-11741746D01*
X11764134Y-11741746D02*
X11764134Y-11732222D01*
X11764134Y-11732222D02*
X11773658Y-11713174D01*
X11773658Y-11713174D02*
X11792706Y-11703650D01*
X11792706Y-11703650D02*
X11821277Y-11703650D01*
X11821277Y-11703650D02*
X11840325Y-11713174D01*
X11916515Y-11913174D02*
X11926039Y-11903650D01*
X11926039Y-11903650D02*
X11945087Y-11875079D01*
X11945087Y-11875079D02*
X11954611Y-11856031D01*
X11954611Y-11856031D02*
X11964134Y-11827460D01*
X11964134Y-11827460D02*
X11973658Y-11779841D01*
X11973658Y-11779841D02*
X11973658Y-11741746D01*
X11973658Y-11741746D02*
X11964134Y-11694127D01*
X11964134Y-11694127D02*
X11954611Y-11665555D01*
X11954611Y-11665555D02*
X11945087Y-11646508D01*
X11945087Y-11646508D02*
X11926039Y-11617936D01*
X11926039Y-11617936D02*
X11916515Y-11608412D01*
D12*
X6760500Y-12009500D02*
G75*
G03*
X6760500Y-12009500I-47500J0D01*
G01*
D10*
X7059372Y-11900984D02*
X7078420Y-11900984D01*
X7078420Y-11900984D02*
X7097467Y-11910508D01*
X7097467Y-11910508D02*
X7106991Y-11920031D01*
X7106991Y-11920031D02*
X7116515Y-11939079D01*
X7116515Y-11939079D02*
X7126039Y-11977174D01*
X7126039Y-11977174D02*
X7126039Y-12024793D01*
X7126039Y-12024793D02*
X7116515Y-12062888D01*
X7116515Y-12062888D02*
X7106991Y-12081936D01*
X7106991Y-12081936D02*
X7097467Y-12091460D01*
X7097467Y-12091460D02*
X7078420Y-12100984D01*
X7078420Y-12100984D02*
X7059372Y-12100984D01*
X7059372Y-12100984D02*
X7040324Y-12091460D01*
X7040324Y-12091460D02*
X7030801Y-12081936D01*
X7030801Y-12081936D02*
X7021277Y-12062888D01*
X7021277Y-12062888D02*
X7011753Y-12024793D01*
X7011753Y-12024793D02*
X7011753Y-11977174D01*
X7011753Y-11977174D02*
X7021277Y-11939079D01*
X7021277Y-11939079D02*
X7030801Y-11920031D01*
X7030801Y-11920031D02*
X7040324Y-11910508D01*
X7040324Y-11910508D02*
X7059372Y-11900984D01*
X7211753Y-12081936D02*
X7221277Y-12091460D01*
X7221277Y-12091460D02*
X7211753Y-12100984D01*
X7211753Y-12100984D02*
X7202229Y-12091460D01*
X7202229Y-12091460D02*
X7211753Y-12081936D01*
X7211753Y-12081936D02*
X7211753Y-12100984D01*
X7316515Y-12100984D02*
X7354610Y-12100984D01*
X7354610Y-12100984D02*
X7373658Y-12091460D01*
X7373658Y-12091460D02*
X7383182Y-12081936D01*
X7383182Y-12081936D02*
X7402229Y-12053365D01*
X7402229Y-12053365D02*
X7411753Y-12015269D01*
X7411753Y-12015269D02*
X7411753Y-11939079D01*
X7411753Y-11939079D02*
X7402229Y-11920031D01*
X7402229Y-11920031D02*
X7392705Y-11910508D01*
X7392705Y-11910508D02*
X7373658Y-11900984D01*
X7373658Y-11900984D02*
X7335562Y-11900984D01*
X7335562Y-11900984D02*
X7316515Y-11910508D01*
X7316515Y-11910508D02*
X7306991Y-11920031D01*
X7306991Y-11920031D02*
X7297467Y-11939079D01*
X7297467Y-11939079D02*
X7297467Y-11986698D01*
X7297467Y-11986698D02*
X7306991Y-12005746D01*
X7306991Y-12005746D02*
X7316515Y-12015269D01*
X7316515Y-12015269D02*
X7335562Y-12024793D01*
X7335562Y-12024793D02*
X7373658Y-12024793D01*
X7373658Y-12024793D02*
X7392705Y-12015269D01*
X7392705Y-12015269D02*
X7402229Y-12005746D01*
X7402229Y-12005746D02*
X7411753Y-11986698D01*
X7592705Y-11900984D02*
X7497467Y-11900984D01*
X7497467Y-11900984D02*
X7487943Y-11996222D01*
X7487943Y-11996222D02*
X7497467Y-11986698D01*
X7497467Y-11986698D02*
X7516515Y-11977174D01*
X7516515Y-11977174D02*
X7564134Y-11977174D01*
X7564134Y-11977174D02*
X7583182Y-11986698D01*
X7583182Y-11986698D02*
X7592705Y-11996222D01*
X7592705Y-11996222D02*
X7602229Y-12015269D01*
X7602229Y-12015269D02*
X7602229Y-12062888D01*
X7602229Y-12062888D02*
X7592705Y-12081936D01*
X7592705Y-12081936D02*
X7583182Y-12091460D01*
X7583182Y-12091460D02*
X7564134Y-12100984D01*
X7564134Y-12100984D02*
X7516515Y-12100984D01*
X7516515Y-12100984D02*
X7497467Y-12091460D01*
X7497467Y-12091460D02*
X7487943Y-12081936D01*
X7726039Y-11900984D02*
X7745086Y-11900984D01*
X7745086Y-11900984D02*
X7764134Y-11910508D01*
X7764134Y-11910508D02*
X7773658Y-11920031D01*
X7773658Y-11920031D02*
X7783182Y-11939079D01*
X7783182Y-11939079D02*
X7792705Y-11977174D01*
X7792705Y-11977174D02*
X7792705Y-12024793D01*
X7792705Y-12024793D02*
X7783182Y-12062888D01*
X7783182Y-12062888D02*
X7773658Y-12081936D01*
X7773658Y-12081936D02*
X7764134Y-12091460D01*
X7764134Y-12091460D02*
X7745086Y-12100984D01*
X7745086Y-12100984D02*
X7726039Y-12100984D01*
X7726039Y-12100984D02*
X7706991Y-12091460D01*
X7706991Y-12091460D02*
X7697467Y-12081936D01*
X7697467Y-12081936D02*
X7687943Y-12062888D01*
X7687943Y-12062888D02*
X7678420Y-12024793D01*
X7678420Y-12024793D02*
X7678420Y-11977174D01*
X7678420Y-11977174D02*
X7687943Y-11939079D01*
X7687943Y-11939079D02*
X7697467Y-11920031D01*
X7697467Y-11920031D02*
X7706991Y-11910508D01*
X7706991Y-11910508D02*
X7726039Y-11900984D01*
X7878420Y-12100984D02*
X7878420Y-11967650D01*
X7878420Y-11986698D02*
X7887943Y-11977174D01*
X7887943Y-11977174D02*
X7906991Y-11967650D01*
X7906991Y-11967650D02*
X7935563Y-11967650D01*
X7935563Y-11967650D02*
X7954610Y-11977174D01*
X7954610Y-11977174D02*
X7964134Y-11996222D01*
X7964134Y-11996222D02*
X7964134Y-12100984D01*
X7964134Y-11996222D02*
X7973658Y-11977174D01*
X7973658Y-11977174D02*
X7992705Y-11967650D01*
X7992705Y-11967650D02*
X8021277Y-11967650D01*
X8021277Y-11967650D02*
X8040324Y-11977174D01*
X8040324Y-11977174D02*
X8049848Y-11996222D01*
X8049848Y-11996222D02*
X8049848Y-12100984D01*
X8145086Y-12100984D02*
X8145086Y-11967650D01*
X8145086Y-11986698D02*
X8154610Y-11977174D01*
X8154610Y-11977174D02*
X8173658Y-11967650D01*
X8173658Y-11967650D02*
X8202229Y-11967650D01*
X8202229Y-11967650D02*
X8221277Y-11977174D01*
X8221277Y-11977174D02*
X8230801Y-11996222D01*
X8230801Y-11996222D02*
X8230801Y-12100984D01*
X8230801Y-11996222D02*
X8240324Y-11977174D01*
X8240324Y-11977174D02*
X8259372Y-11967650D01*
X8259372Y-11967650D02*
X8287943Y-11967650D01*
X8287943Y-11967650D02*
X8306991Y-11977174D01*
X8306991Y-11977174D02*
X8316515Y-11996222D01*
X8316515Y-11996222D02*
X8316515Y-12100984D01*
X8706991Y-11891460D02*
X8535563Y-12148603D01*
X8964134Y-11900984D02*
X8983182Y-11900984D01*
X8983182Y-11900984D02*
X9002229Y-11910508D01*
X9002229Y-11910508D02*
X9011753Y-11920031D01*
X9011753Y-11920031D02*
X9021277Y-11939079D01*
X9021277Y-11939079D02*
X9030801Y-11977174D01*
X9030801Y-11977174D02*
X9030801Y-12024793D01*
X9030801Y-12024793D02*
X9021277Y-12062888D01*
X9021277Y-12062888D02*
X9011753Y-12081936D01*
X9011753Y-12081936D02*
X9002229Y-12091460D01*
X9002229Y-12091460D02*
X8983182Y-12100984D01*
X8983182Y-12100984D02*
X8964134Y-12100984D01*
X8964134Y-12100984D02*
X8945087Y-12091460D01*
X8945087Y-12091460D02*
X8935563Y-12081936D01*
X8935563Y-12081936D02*
X8926039Y-12062888D01*
X8926039Y-12062888D02*
X8916515Y-12024793D01*
X8916515Y-12024793D02*
X8916515Y-11977174D01*
X8916515Y-11977174D02*
X8926039Y-11939079D01*
X8926039Y-11939079D02*
X8935563Y-11920031D01*
X8935563Y-11920031D02*
X8945087Y-11910508D01*
X8945087Y-11910508D02*
X8964134Y-11900984D01*
X9116515Y-12081936D02*
X9126039Y-12091460D01*
X9126039Y-12091460D02*
X9116515Y-12100984D01*
X9116515Y-12100984D02*
X9106991Y-12091460D01*
X9106991Y-12091460D02*
X9116515Y-12081936D01*
X9116515Y-12081936D02*
X9116515Y-12100984D01*
X9249848Y-11900984D02*
X9268896Y-11900984D01*
X9268896Y-11900984D02*
X9287944Y-11910508D01*
X9287944Y-11910508D02*
X9297468Y-11920031D01*
X9297468Y-11920031D02*
X9306991Y-11939079D01*
X9306991Y-11939079D02*
X9316515Y-11977174D01*
X9316515Y-11977174D02*
X9316515Y-12024793D01*
X9316515Y-12024793D02*
X9306991Y-12062888D01*
X9306991Y-12062888D02*
X9297468Y-12081936D01*
X9297468Y-12081936D02*
X9287944Y-12091460D01*
X9287944Y-12091460D02*
X9268896Y-12100984D01*
X9268896Y-12100984D02*
X9249848Y-12100984D01*
X9249848Y-12100984D02*
X9230801Y-12091460D01*
X9230801Y-12091460D02*
X9221277Y-12081936D01*
X9221277Y-12081936D02*
X9211753Y-12062888D01*
X9211753Y-12062888D02*
X9202229Y-12024793D01*
X9202229Y-12024793D02*
X9202229Y-11977174D01*
X9202229Y-11977174D02*
X9211753Y-11939079D01*
X9211753Y-11939079D02*
X9221277Y-11920031D01*
X9221277Y-11920031D02*
X9230801Y-11910508D01*
X9230801Y-11910508D02*
X9249848Y-11900984D01*
X9383182Y-11900984D02*
X9506991Y-11900984D01*
X9506991Y-11900984D02*
X9440325Y-11977174D01*
X9440325Y-11977174D02*
X9468896Y-11977174D01*
X9468896Y-11977174D02*
X9487944Y-11986698D01*
X9487944Y-11986698D02*
X9497468Y-11996222D01*
X9497468Y-11996222D02*
X9506991Y-12015269D01*
X9506991Y-12015269D02*
X9506991Y-12062888D01*
X9506991Y-12062888D02*
X9497468Y-12081936D01*
X9497468Y-12081936D02*
X9487944Y-12091460D01*
X9487944Y-12091460D02*
X9468896Y-12100984D01*
X9468896Y-12100984D02*
X9411753Y-12100984D01*
X9411753Y-12100984D02*
X9392706Y-12091460D01*
X9392706Y-12091460D02*
X9383182Y-12081936D01*
X9573658Y-11900984D02*
X9706991Y-11900984D01*
X9706991Y-11900984D02*
X9621277Y-12100984D01*
X9868896Y-11967650D02*
X9868896Y-12100984D01*
X9821277Y-11891460D02*
X9773658Y-12034317D01*
X9773658Y-12034317D02*
X9897468Y-12034317D01*
X9964134Y-11900984D02*
X9964134Y-11939079D01*
X10040325Y-11900984D02*
X10040325Y-11939079D01*
X10335563Y-12177174D02*
X10326039Y-12167650D01*
X10326039Y-12167650D02*
X10306991Y-12139079D01*
X10306991Y-12139079D02*
X10297468Y-12120031D01*
X10297468Y-12120031D02*
X10287944Y-12091460D01*
X10287944Y-12091460D02*
X10278420Y-12043841D01*
X10278420Y-12043841D02*
X10278420Y-12005746D01*
X10278420Y-12005746D02*
X10287944Y-11958127D01*
X10287944Y-11958127D02*
X10297468Y-11929555D01*
X10297468Y-11929555D02*
X10306991Y-11910508D01*
X10306991Y-11910508D02*
X10326039Y-11881936D01*
X10326039Y-11881936D02*
X10335563Y-11872412D01*
X10497468Y-11900984D02*
X10459372Y-11900984D01*
X10459372Y-11900984D02*
X10440325Y-11910508D01*
X10440325Y-11910508D02*
X10430801Y-11920031D01*
X10430801Y-11920031D02*
X10411753Y-11948603D01*
X10411753Y-11948603D02*
X10402230Y-11986698D01*
X10402230Y-11986698D02*
X10402230Y-12062888D01*
X10402230Y-12062888D02*
X10411753Y-12081936D01*
X10411753Y-12081936D02*
X10421277Y-12091460D01*
X10421277Y-12091460D02*
X10440325Y-12100984D01*
X10440325Y-12100984D02*
X10478420Y-12100984D01*
X10478420Y-12100984D02*
X10497468Y-12091460D01*
X10497468Y-12091460D02*
X10506991Y-12081936D01*
X10506991Y-12081936D02*
X10516515Y-12062888D01*
X10516515Y-12062888D02*
X10516515Y-12015269D01*
X10516515Y-12015269D02*
X10506991Y-11996222D01*
X10506991Y-11996222D02*
X10497468Y-11986698D01*
X10497468Y-11986698D02*
X10478420Y-11977174D01*
X10478420Y-11977174D02*
X10440325Y-11977174D01*
X10440325Y-11977174D02*
X10421277Y-11986698D01*
X10421277Y-11986698D02*
X10411753Y-11996222D01*
X10411753Y-11996222D02*
X10402230Y-12015269D01*
X10754611Y-12100984D02*
X10754611Y-11900984D01*
X10840325Y-12100984D02*
X10840325Y-11996222D01*
X10840325Y-11996222D02*
X10830801Y-11977174D01*
X10830801Y-11977174D02*
X10811753Y-11967650D01*
X10811753Y-11967650D02*
X10783182Y-11967650D01*
X10783182Y-11967650D02*
X10764134Y-11977174D01*
X10764134Y-11977174D02*
X10754611Y-11986698D01*
X10964134Y-12100984D02*
X10945087Y-12091460D01*
X10945087Y-12091460D02*
X10935563Y-12081936D01*
X10935563Y-12081936D02*
X10926039Y-12062888D01*
X10926039Y-12062888D02*
X10926039Y-12005746D01*
X10926039Y-12005746D02*
X10935563Y-11986698D01*
X10935563Y-11986698D02*
X10945087Y-11977174D01*
X10945087Y-11977174D02*
X10964134Y-11967650D01*
X10964134Y-11967650D02*
X10992706Y-11967650D01*
X10992706Y-11967650D02*
X11011753Y-11977174D01*
X11011753Y-11977174D02*
X11021277Y-11986698D01*
X11021277Y-11986698D02*
X11030801Y-12005746D01*
X11030801Y-12005746D02*
X11030801Y-12062888D01*
X11030801Y-12062888D02*
X11021277Y-12081936D01*
X11021277Y-12081936D02*
X11011753Y-12091460D01*
X11011753Y-12091460D02*
X10992706Y-12100984D01*
X10992706Y-12100984D02*
X10964134Y-12100984D01*
X11145087Y-12100984D02*
X11126039Y-12091460D01*
X11126039Y-12091460D02*
X11116515Y-12072412D01*
X11116515Y-12072412D02*
X11116515Y-11900984D01*
X11297468Y-12091460D02*
X11278420Y-12100984D01*
X11278420Y-12100984D02*
X11240325Y-12100984D01*
X11240325Y-12100984D02*
X11221277Y-12091460D01*
X11221277Y-12091460D02*
X11211753Y-12072412D01*
X11211753Y-12072412D02*
X11211753Y-11996222D01*
X11211753Y-11996222D02*
X11221277Y-11977174D01*
X11221277Y-11977174D02*
X11240325Y-11967650D01*
X11240325Y-11967650D02*
X11278420Y-11967650D01*
X11278420Y-11967650D02*
X11297468Y-11977174D01*
X11297468Y-11977174D02*
X11306991Y-11996222D01*
X11306991Y-11996222D02*
X11306991Y-12015269D01*
X11306991Y-12015269D02*
X11211753Y-12034317D01*
X11383182Y-12091460D02*
X11402230Y-12100984D01*
X11402230Y-12100984D02*
X11440325Y-12100984D01*
X11440325Y-12100984D02*
X11459372Y-12091460D01*
X11459372Y-12091460D02*
X11468896Y-12072412D01*
X11468896Y-12072412D02*
X11468896Y-12062888D01*
X11468896Y-12062888D02*
X11459372Y-12043841D01*
X11459372Y-12043841D02*
X11440325Y-12034317D01*
X11440325Y-12034317D02*
X11411753Y-12034317D01*
X11411753Y-12034317D02*
X11392706Y-12024793D01*
X11392706Y-12024793D02*
X11383182Y-12005746D01*
X11383182Y-12005746D02*
X11383182Y-11996222D01*
X11383182Y-11996222D02*
X11392706Y-11977174D01*
X11392706Y-11977174D02*
X11411753Y-11967650D01*
X11411753Y-11967650D02*
X11440325Y-11967650D01*
X11440325Y-11967650D02*
X11459372Y-11977174D01*
X11535563Y-12177174D02*
X11545087Y-12167650D01*
X11545087Y-12167650D02*
X11564134Y-12139079D01*
X11564134Y-12139079D02*
X11573658Y-12120031D01*
X11573658Y-12120031D02*
X11583182Y-12091460D01*
X11583182Y-12091460D02*
X11592706Y-12043841D01*
X11592706Y-12043841D02*
X11592706Y-12005746D01*
X11592706Y-12005746D02*
X11583182Y-11958127D01*
X11583182Y-11958127D02*
X11573658Y-11929555D01*
X11573658Y-11929555D02*
X11564134Y-11910508D01*
X11564134Y-11910508D02*
X11545087Y-11881936D01*
X11545087Y-11881936D02*
X11535563Y-11872412D01*
D13*
X6710500Y-12223500D02*
X6710500Y-12323500D01*
X6660500Y-12273500D02*
X6760500Y-12273500D01*
D10*
X7126039Y-12364984D02*
X7011753Y-12364984D01*
X7068896Y-12364984D02*
X7068896Y-12164984D01*
X7068896Y-12164984D02*
X7049848Y-12193555D01*
X7049848Y-12193555D02*
X7030801Y-12212603D01*
X7030801Y-12212603D02*
X7011753Y-12222127D01*
X7211753Y-12345936D02*
X7221277Y-12355460D01*
X7221277Y-12355460D02*
X7211753Y-12364984D01*
X7211753Y-12364984D02*
X7202229Y-12355460D01*
X7202229Y-12355460D02*
X7211753Y-12345936D01*
X7211753Y-12345936D02*
X7211753Y-12364984D01*
X7345086Y-12164984D02*
X7364134Y-12164984D01*
X7364134Y-12164984D02*
X7383182Y-12174508D01*
X7383182Y-12174508D02*
X7392705Y-12184031D01*
X7392705Y-12184031D02*
X7402229Y-12203079D01*
X7402229Y-12203079D02*
X7411753Y-12241174D01*
X7411753Y-12241174D02*
X7411753Y-12288793D01*
X7411753Y-12288793D02*
X7402229Y-12326888D01*
X7402229Y-12326888D02*
X7392705Y-12345936D01*
X7392705Y-12345936D02*
X7383182Y-12355460D01*
X7383182Y-12355460D02*
X7364134Y-12364984D01*
X7364134Y-12364984D02*
X7345086Y-12364984D01*
X7345086Y-12364984D02*
X7326039Y-12355460D01*
X7326039Y-12355460D02*
X7316515Y-12345936D01*
X7316515Y-12345936D02*
X7306991Y-12326888D01*
X7306991Y-12326888D02*
X7297467Y-12288793D01*
X7297467Y-12288793D02*
X7297467Y-12241174D01*
X7297467Y-12241174D02*
X7306991Y-12203079D01*
X7306991Y-12203079D02*
X7316515Y-12184031D01*
X7316515Y-12184031D02*
X7326039Y-12174508D01*
X7326039Y-12174508D02*
X7345086Y-12164984D01*
X7535562Y-12164984D02*
X7554610Y-12164984D01*
X7554610Y-12164984D02*
X7573658Y-12174508D01*
X7573658Y-12174508D02*
X7583182Y-12184031D01*
X7583182Y-12184031D02*
X7592705Y-12203079D01*
X7592705Y-12203079D02*
X7602229Y-12241174D01*
X7602229Y-12241174D02*
X7602229Y-12288793D01*
X7602229Y-12288793D02*
X7592705Y-12326888D01*
X7592705Y-12326888D02*
X7583182Y-12345936D01*
X7583182Y-12345936D02*
X7573658Y-12355460D01*
X7573658Y-12355460D02*
X7554610Y-12364984D01*
X7554610Y-12364984D02*
X7535562Y-12364984D01*
X7535562Y-12364984D02*
X7516515Y-12355460D01*
X7516515Y-12355460D02*
X7506991Y-12345936D01*
X7506991Y-12345936D02*
X7497467Y-12326888D01*
X7497467Y-12326888D02*
X7487943Y-12288793D01*
X7487943Y-12288793D02*
X7487943Y-12241174D01*
X7487943Y-12241174D02*
X7497467Y-12203079D01*
X7497467Y-12203079D02*
X7506991Y-12184031D01*
X7506991Y-12184031D02*
X7516515Y-12174508D01*
X7516515Y-12174508D02*
X7535562Y-12164984D01*
X7726039Y-12164984D02*
X7745086Y-12164984D01*
X7745086Y-12164984D02*
X7764134Y-12174508D01*
X7764134Y-12174508D02*
X7773658Y-12184031D01*
X7773658Y-12184031D02*
X7783182Y-12203079D01*
X7783182Y-12203079D02*
X7792705Y-12241174D01*
X7792705Y-12241174D02*
X7792705Y-12288793D01*
X7792705Y-12288793D02*
X7783182Y-12326888D01*
X7783182Y-12326888D02*
X7773658Y-12345936D01*
X7773658Y-12345936D02*
X7764134Y-12355460D01*
X7764134Y-12355460D02*
X7745086Y-12364984D01*
X7745086Y-12364984D02*
X7726039Y-12364984D01*
X7726039Y-12364984D02*
X7706991Y-12355460D01*
X7706991Y-12355460D02*
X7697467Y-12345936D01*
X7697467Y-12345936D02*
X7687943Y-12326888D01*
X7687943Y-12326888D02*
X7678420Y-12288793D01*
X7678420Y-12288793D02*
X7678420Y-12241174D01*
X7678420Y-12241174D02*
X7687943Y-12203079D01*
X7687943Y-12203079D02*
X7697467Y-12184031D01*
X7697467Y-12184031D02*
X7706991Y-12174508D01*
X7706991Y-12174508D02*
X7726039Y-12164984D01*
X7878420Y-12364984D02*
X7878420Y-12231650D01*
X7878420Y-12250698D02*
X7887943Y-12241174D01*
X7887943Y-12241174D02*
X7906991Y-12231650D01*
X7906991Y-12231650D02*
X7935563Y-12231650D01*
X7935563Y-12231650D02*
X7954610Y-12241174D01*
X7954610Y-12241174D02*
X7964134Y-12260222D01*
X7964134Y-12260222D02*
X7964134Y-12364984D01*
X7964134Y-12260222D02*
X7973658Y-12241174D01*
X7973658Y-12241174D02*
X7992705Y-12231650D01*
X7992705Y-12231650D02*
X8021277Y-12231650D01*
X8021277Y-12231650D02*
X8040324Y-12241174D01*
X8040324Y-12241174D02*
X8049848Y-12260222D01*
X8049848Y-12260222D02*
X8049848Y-12364984D01*
X8145086Y-12364984D02*
X8145086Y-12231650D01*
X8145086Y-12250698D02*
X8154610Y-12241174D01*
X8154610Y-12241174D02*
X8173658Y-12231650D01*
X8173658Y-12231650D02*
X8202229Y-12231650D01*
X8202229Y-12231650D02*
X8221277Y-12241174D01*
X8221277Y-12241174D02*
X8230801Y-12260222D01*
X8230801Y-12260222D02*
X8230801Y-12364984D01*
X8230801Y-12260222D02*
X8240324Y-12241174D01*
X8240324Y-12241174D02*
X8259372Y-12231650D01*
X8259372Y-12231650D02*
X8287943Y-12231650D01*
X8287943Y-12231650D02*
X8306991Y-12241174D01*
X8306991Y-12241174D02*
X8316515Y-12260222D01*
X8316515Y-12260222D02*
X8316515Y-12364984D01*
X8706991Y-12155460D02*
X8535563Y-12412603D01*
X8964134Y-12164984D02*
X8983182Y-12164984D01*
X8983182Y-12164984D02*
X9002229Y-12174508D01*
X9002229Y-12174508D02*
X9011753Y-12184031D01*
X9011753Y-12184031D02*
X9021277Y-12203079D01*
X9021277Y-12203079D02*
X9030801Y-12241174D01*
X9030801Y-12241174D02*
X9030801Y-12288793D01*
X9030801Y-12288793D02*
X9021277Y-12326888D01*
X9021277Y-12326888D02*
X9011753Y-12345936D01*
X9011753Y-12345936D02*
X9002229Y-12355460D01*
X9002229Y-12355460D02*
X8983182Y-12364984D01*
X8983182Y-12364984D02*
X8964134Y-12364984D01*
X8964134Y-12364984D02*
X8945087Y-12355460D01*
X8945087Y-12355460D02*
X8935563Y-12345936D01*
X8935563Y-12345936D02*
X8926039Y-12326888D01*
X8926039Y-12326888D02*
X8916515Y-12288793D01*
X8916515Y-12288793D02*
X8916515Y-12241174D01*
X8916515Y-12241174D02*
X8926039Y-12203079D01*
X8926039Y-12203079D02*
X8935563Y-12184031D01*
X8935563Y-12184031D02*
X8945087Y-12174508D01*
X8945087Y-12174508D02*
X8964134Y-12164984D01*
X9116515Y-12345936D02*
X9126039Y-12355460D01*
X9126039Y-12355460D02*
X9116515Y-12364984D01*
X9116515Y-12364984D02*
X9106991Y-12355460D01*
X9106991Y-12355460D02*
X9116515Y-12345936D01*
X9116515Y-12345936D02*
X9116515Y-12364984D01*
X9249848Y-12164984D02*
X9268896Y-12164984D01*
X9268896Y-12164984D02*
X9287944Y-12174508D01*
X9287944Y-12174508D02*
X9297468Y-12184031D01*
X9297468Y-12184031D02*
X9306991Y-12203079D01*
X9306991Y-12203079D02*
X9316515Y-12241174D01*
X9316515Y-12241174D02*
X9316515Y-12288793D01*
X9316515Y-12288793D02*
X9306991Y-12326888D01*
X9306991Y-12326888D02*
X9297468Y-12345936D01*
X9297468Y-12345936D02*
X9287944Y-12355460D01*
X9287944Y-12355460D02*
X9268896Y-12364984D01*
X9268896Y-12364984D02*
X9249848Y-12364984D01*
X9249848Y-12364984D02*
X9230801Y-12355460D01*
X9230801Y-12355460D02*
X9221277Y-12345936D01*
X9221277Y-12345936D02*
X9211753Y-12326888D01*
X9211753Y-12326888D02*
X9202229Y-12288793D01*
X9202229Y-12288793D02*
X9202229Y-12241174D01*
X9202229Y-12241174D02*
X9211753Y-12203079D01*
X9211753Y-12203079D02*
X9221277Y-12184031D01*
X9221277Y-12184031D02*
X9230801Y-12174508D01*
X9230801Y-12174508D02*
X9249848Y-12164984D01*
X9383182Y-12164984D02*
X9506991Y-12164984D01*
X9506991Y-12164984D02*
X9440325Y-12241174D01*
X9440325Y-12241174D02*
X9468896Y-12241174D01*
X9468896Y-12241174D02*
X9487944Y-12250698D01*
X9487944Y-12250698D02*
X9497468Y-12260222D01*
X9497468Y-12260222D02*
X9506991Y-12279269D01*
X9506991Y-12279269D02*
X9506991Y-12326888D01*
X9506991Y-12326888D02*
X9497468Y-12345936D01*
X9497468Y-12345936D02*
X9487944Y-12355460D01*
X9487944Y-12355460D02*
X9468896Y-12364984D01*
X9468896Y-12364984D02*
X9411753Y-12364984D01*
X9411753Y-12364984D02*
X9392706Y-12355460D01*
X9392706Y-12355460D02*
X9383182Y-12345936D01*
X9602229Y-12364984D02*
X9640325Y-12364984D01*
X9640325Y-12364984D02*
X9659372Y-12355460D01*
X9659372Y-12355460D02*
X9668896Y-12345936D01*
X9668896Y-12345936D02*
X9687944Y-12317365D01*
X9687944Y-12317365D02*
X9697468Y-12279269D01*
X9697468Y-12279269D02*
X9697468Y-12203079D01*
X9697468Y-12203079D02*
X9687944Y-12184031D01*
X9687944Y-12184031D02*
X9678420Y-12174508D01*
X9678420Y-12174508D02*
X9659372Y-12164984D01*
X9659372Y-12164984D02*
X9621277Y-12164984D01*
X9621277Y-12164984D02*
X9602229Y-12174508D01*
X9602229Y-12174508D02*
X9592706Y-12184031D01*
X9592706Y-12184031D02*
X9583182Y-12203079D01*
X9583182Y-12203079D02*
X9583182Y-12250698D01*
X9583182Y-12250698D02*
X9592706Y-12269746D01*
X9592706Y-12269746D02*
X9602229Y-12279269D01*
X9602229Y-12279269D02*
X9621277Y-12288793D01*
X9621277Y-12288793D02*
X9659372Y-12288793D01*
X9659372Y-12288793D02*
X9678420Y-12279269D01*
X9678420Y-12279269D02*
X9687944Y-12269746D01*
X9687944Y-12269746D02*
X9697468Y-12250698D01*
X9868896Y-12231650D02*
X9868896Y-12364984D01*
X9821277Y-12155460D02*
X9773658Y-12298317D01*
X9773658Y-12298317D02*
X9897468Y-12298317D01*
X9964134Y-12164984D02*
X9964134Y-12203079D01*
X10040325Y-12164984D02*
X10040325Y-12203079D01*
X10335563Y-12441174D02*
X10326039Y-12431650D01*
X10326039Y-12431650D02*
X10306991Y-12403079D01*
X10306991Y-12403079D02*
X10297468Y-12384031D01*
X10297468Y-12384031D02*
X10287944Y-12355460D01*
X10287944Y-12355460D02*
X10278420Y-12307841D01*
X10278420Y-12307841D02*
X10278420Y-12269746D01*
X10278420Y-12269746D02*
X10287944Y-12222127D01*
X10287944Y-12222127D02*
X10297468Y-12193555D01*
X10297468Y-12193555D02*
X10306991Y-12174508D01*
X10306991Y-12174508D02*
X10326039Y-12145936D01*
X10326039Y-12145936D02*
X10335563Y-12136412D01*
X10516515Y-12364984D02*
X10402230Y-12364984D01*
X10459372Y-12364984D02*
X10459372Y-12164984D01*
X10459372Y-12164984D02*
X10440325Y-12193555D01*
X10440325Y-12193555D02*
X10421277Y-12212603D01*
X10421277Y-12212603D02*
X10402230Y-12222127D01*
X10640325Y-12164984D02*
X10659372Y-12164984D01*
X10659372Y-12164984D02*
X10678420Y-12174508D01*
X10678420Y-12174508D02*
X10687944Y-12184031D01*
X10687944Y-12184031D02*
X10697468Y-12203079D01*
X10697468Y-12203079D02*
X10706991Y-12241174D01*
X10706991Y-12241174D02*
X10706991Y-12288793D01*
X10706991Y-12288793D02*
X10697468Y-12326888D01*
X10697468Y-12326888D02*
X10687944Y-12345936D01*
X10687944Y-12345936D02*
X10678420Y-12355460D01*
X10678420Y-12355460D02*
X10659372Y-12364984D01*
X10659372Y-12364984D02*
X10640325Y-12364984D01*
X10640325Y-12364984D02*
X10621277Y-12355460D01*
X10621277Y-12355460D02*
X10611753Y-12345936D01*
X10611753Y-12345936D02*
X10602230Y-12326888D01*
X10602230Y-12326888D02*
X10592706Y-12288793D01*
X10592706Y-12288793D02*
X10592706Y-12241174D01*
X10592706Y-12241174D02*
X10602230Y-12203079D01*
X10602230Y-12203079D02*
X10611753Y-12184031D01*
X10611753Y-12184031D02*
X10621277Y-12174508D01*
X10621277Y-12174508D02*
X10640325Y-12164984D01*
X10945087Y-12364984D02*
X10945087Y-12164984D01*
X11030801Y-12364984D02*
X11030801Y-12260222D01*
X11030801Y-12260222D02*
X11021277Y-12241174D01*
X11021277Y-12241174D02*
X11002230Y-12231650D01*
X11002230Y-12231650D02*
X10973658Y-12231650D01*
X10973658Y-12231650D02*
X10954611Y-12241174D01*
X10954611Y-12241174D02*
X10945087Y-12250698D01*
X11154611Y-12364984D02*
X11135563Y-12355460D01*
X11135563Y-12355460D02*
X11126039Y-12345936D01*
X11126039Y-12345936D02*
X11116515Y-12326888D01*
X11116515Y-12326888D02*
X11116515Y-12269746D01*
X11116515Y-12269746D02*
X11126039Y-12250698D01*
X11126039Y-12250698D02*
X11135563Y-12241174D01*
X11135563Y-12241174D02*
X11154611Y-12231650D01*
X11154611Y-12231650D02*
X11183182Y-12231650D01*
X11183182Y-12231650D02*
X11202230Y-12241174D01*
X11202230Y-12241174D02*
X11211753Y-12250698D01*
X11211753Y-12250698D02*
X11221277Y-12269746D01*
X11221277Y-12269746D02*
X11221277Y-12326888D01*
X11221277Y-12326888D02*
X11211753Y-12345936D01*
X11211753Y-12345936D02*
X11202230Y-12355460D01*
X11202230Y-12355460D02*
X11183182Y-12364984D01*
X11183182Y-12364984D02*
X11154611Y-12364984D01*
X11335563Y-12364984D02*
X11316515Y-12355460D01*
X11316515Y-12355460D02*
X11306991Y-12336412D01*
X11306991Y-12336412D02*
X11306991Y-12164984D01*
X11487944Y-12355460D02*
X11468896Y-12364984D01*
X11468896Y-12364984D02*
X11430801Y-12364984D01*
X11430801Y-12364984D02*
X11411753Y-12355460D01*
X11411753Y-12355460D02*
X11402230Y-12336412D01*
X11402230Y-12336412D02*
X11402230Y-12260222D01*
X11402230Y-12260222D02*
X11411753Y-12241174D01*
X11411753Y-12241174D02*
X11430801Y-12231650D01*
X11430801Y-12231650D02*
X11468896Y-12231650D01*
X11468896Y-12231650D02*
X11487944Y-12241174D01*
X11487944Y-12241174D02*
X11497468Y-12260222D01*
X11497468Y-12260222D02*
X11497468Y-12279269D01*
X11497468Y-12279269D02*
X11402230Y-12298317D01*
X11573658Y-12355460D02*
X11592706Y-12364984D01*
X11592706Y-12364984D02*
X11630801Y-12364984D01*
X11630801Y-12364984D02*
X11649849Y-12355460D01*
X11649849Y-12355460D02*
X11659372Y-12336412D01*
X11659372Y-12336412D02*
X11659372Y-12326888D01*
X11659372Y-12326888D02*
X11649849Y-12307841D01*
X11649849Y-12307841D02*
X11630801Y-12298317D01*
X11630801Y-12298317D02*
X11602230Y-12298317D01*
X11602230Y-12298317D02*
X11583182Y-12288793D01*
X11583182Y-12288793D02*
X11573658Y-12269746D01*
X11573658Y-12269746D02*
X11573658Y-12260222D01*
X11573658Y-12260222D02*
X11583182Y-12241174D01*
X11583182Y-12241174D02*
X11602230Y-12231650D01*
X11602230Y-12231650D02*
X11630801Y-12231650D01*
X11630801Y-12231650D02*
X11649849Y-12241174D01*
X11726039Y-12441174D02*
X11735563Y-12431650D01*
X11735563Y-12431650D02*
X11754611Y-12403079D01*
X11754611Y-12403079D02*
X11764134Y-12384031D01*
X11764134Y-12384031D02*
X11773658Y-12355460D01*
X11773658Y-12355460D02*
X11783182Y-12307841D01*
X11783182Y-12307841D02*
X11783182Y-12269746D01*
X11783182Y-12269746D02*
X11773658Y-12222127D01*
X11773658Y-12222127D02*
X11764134Y-12193555D01*
X11764134Y-12193555D02*
X11754611Y-12174508D01*
X11754611Y-12174508D02*
X11735563Y-12145936D01*
X11735563Y-12145936D02*
X11726039Y-12136412D01*
D14*
X6745621Y-12573421D02*
X6745621Y-12501579D01*
X6673779Y-12501579D01*
X6673779Y-12573421D01*
X6745621Y-12573421D01*
D10*
X7126039Y-12628984D02*
X7011753Y-12628984D01*
X7068896Y-12628984D02*
X7068896Y-12428984D01*
X7068896Y-12428984D02*
X7049848Y-12457555D01*
X7049848Y-12457555D02*
X7030801Y-12476603D01*
X7030801Y-12476603D02*
X7011753Y-12486127D01*
X7211753Y-12609936D02*
X7221277Y-12619460D01*
X7221277Y-12619460D02*
X7211753Y-12628984D01*
X7211753Y-12628984D02*
X7202229Y-12619460D01*
X7202229Y-12619460D02*
X7211753Y-12609936D01*
X7211753Y-12609936D02*
X7211753Y-12628984D01*
X7345086Y-12428984D02*
X7364134Y-12428984D01*
X7364134Y-12428984D02*
X7383182Y-12438508D01*
X7383182Y-12438508D02*
X7392705Y-12448031D01*
X7392705Y-12448031D02*
X7402229Y-12467079D01*
X7402229Y-12467079D02*
X7411753Y-12505174D01*
X7411753Y-12505174D02*
X7411753Y-12552793D01*
X7411753Y-12552793D02*
X7402229Y-12590888D01*
X7402229Y-12590888D02*
X7392705Y-12609936D01*
X7392705Y-12609936D02*
X7383182Y-12619460D01*
X7383182Y-12619460D02*
X7364134Y-12628984D01*
X7364134Y-12628984D02*
X7345086Y-12628984D01*
X7345086Y-12628984D02*
X7326039Y-12619460D01*
X7326039Y-12619460D02*
X7316515Y-12609936D01*
X7316515Y-12609936D02*
X7306991Y-12590888D01*
X7306991Y-12590888D02*
X7297467Y-12552793D01*
X7297467Y-12552793D02*
X7297467Y-12505174D01*
X7297467Y-12505174D02*
X7306991Y-12467079D01*
X7306991Y-12467079D02*
X7316515Y-12448031D01*
X7316515Y-12448031D02*
X7326039Y-12438508D01*
X7326039Y-12438508D02*
X7345086Y-12428984D01*
X7602229Y-12628984D02*
X7487943Y-12628984D01*
X7545086Y-12628984D02*
X7545086Y-12428984D01*
X7545086Y-12428984D02*
X7526039Y-12457555D01*
X7526039Y-12457555D02*
X7506991Y-12476603D01*
X7506991Y-12476603D02*
X7487943Y-12486127D01*
X7773658Y-12428984D02*
X7735562Y-12428984D01*
X7735562Y-12428984D02*
X7716515Y-12438508D01*
X7716515Y-12438508D02*
X7706991Y-12448031D01*
X7706991Y-12448031D02*
X7687943Y-12476603D01*
X7687943Y-12476603D02*
X7678420Y-12514698D01*
X7678420Y-12514698D02*
X7678420Y-12590888D01*
X7678420Y-12590888D02*
X7687943Y-12609936D01*
X7687943Y-12609936D02*
X7697467Y-12619460D01*
X7697467Y-12619460D02*
X7716515Y-12628984D01*
X7716515Y-12628984D02*
X7754610Y-12628984D01*
X7754610Y-12628984D02*
X7773658Y-12619460D01*
X7773658Y-12619460D02*
X7783182Y-12609936D01*
X7783182Y-12609936D02*
X7792705Y-12590888D01*
X7792705Y-12590888D02*
X7792705Y-12543269D01*
X7792705Y-12543269D02*
X7783182Y-12524222D01*
X7783182Y-12524222D02*
X7773658Y-12514698D01*
X7773658Y-12514698D02*
X7754610Y-12505174D01*
X7754610Y-12505174D02*
X7716515Y-12505174D01*
X7716515Y-12505174D02*
X7697467Y-12514698D01*
X7697467Y-12514698D02*
X7687943Y-12524222D01*
X7687943Y-12524222D02*
X7678420Y-12543269D01*
X7878420Y-12628984D02*
X7878420Y-12495650D01*
X7878420Y-12514698D02*
X7887943Y-12505174D01*
X7887943Y-12505174D02*
X7906991Y-12495650D01*
X7906991Y-12495650D02*
X7935563Y-12495650D01*
X7935563Y-12495650D02*
X7954610Y-12505174D01*
X7954610Y-12505174D02*
X7964134Y-12524222D01*
X7964134Y-12524222D02*
X7964134Y-12628984D01*
X7964134Y-12524222D02*
X7973658Y-12505174D01*
X7973658Y-12505174D02*
X7992705Y-12495650D01*
X7992705Y-12495650D02*
X8021277Y-12495650D01*
X8021277Y-12495650D02*
X8040324Y-12505174D01*
X8040324Y-12505174D02*
X8049848Y-12524222D01*
X8049848Y-12524222D02*
X8049848Y-12628984D01*
X8145086Y-12628984D02*
X8145086Y-12495650D01*
X8145086Y-12514698D02*
X8154610Y-12505174D01*
X8154610Y-12505174D02*
X8173658Y-12495650D01*
X8173658Y-12495650D02*
X8202229Y-12495650D01*
X8202229Y-12495650D02*
X8221277Y-12505174D01*
X8221277Y-12505174D02*
X8230801Y-12524222D01*
X8230801Y-12524222D02*
X8230801Y-12628984D01*
X8230801Y-12524222D02*
X8240324Y-12505174D01*
X8240324Y-12505174D02*
X8259372Y-12495650D01*
X8259372Y-12495650D02*
X8287943Y-12495650D01*
X8287943Y-12495650D02*
X8306991Y-12505174D01*
X8306991Y-12505174D02*
X8316515Y-12524222D01*
X8316515Y-12524222D02*
X8316515Y-12628984D01*
X8706991Y-12419460D02*
X8535563Y-12676603D01*
X8964134Y-12428984D02*
X8983182Y-12428984D01*
X8983182Y-12428984D02*
X9002229Y-12438508D01*
X9002229Y-12438508D02*
X9011753Y-12448031D01*
X9011753Y-12448031D02*
X9021277Y-12467079D01*
X9021277Y-12467079D02*
X9030801Y-12505174D01*
X9030801Y-12505174D02*
X9030801Y-12552793D01*
X9030801Y-12552793D02*
X9021277Y-12590888D01*
X9021277Y-12590888D02*
X9011753Y-12609936D01*
X9011753Y-12609936D02*
X9002229Y-12619460D01*
X9002229Y-12619460D02*
X8983182Y-12628984D01*
X8983182Y-12628984D02*
X8964134Y-12628984D01*
X8964134Y-12628984D02*
X8945087Y-12619460D01*
X8945087Y-12619460D02*
X8935563Y-12609936D01*
X8935563Y-12609936D02*
X8926039Y-12590888D01*
X8926039Y-12590888D02*
X8916515Y-12552793D01*
X8916515Y-12552793D02*
X8916515Y-12505174D01*
X8916515Y-12505174D02*
X8926039Y-12467079D01*
X8926039Y-12467079D02*
X8935563Y-12448031D01*
X8935563Y-12448031D02*
X8945087Y-12438508D01*
X8945087Y-12438508D02*
X8964134Y-12428984D01*
X9116515Y-12609936D02*
X9126039Y-12619460D01*
X9126039Y-12619460D02*
X9116515Y-12628984D01*
X9116515Y-12628984D02*
X9106991Y-12619460D01*
X9106991Y-12619460D02*
X9116515Y-12609936D01*
X9116515Y-12609936D02*
X9116515Y-12628984D01*
X9249848Y-12428984D02*
X9268896Y-12428984D01*
X9268896Y-12428984D02*
X9287944Y-12438508D01*
X9287944Y-12438508D02*
X9297468Y-12448031D01*
X9297468Y-12448031D02*
X9306991Y-12467079D01*
X9306991Y-12467079D02*
X9316515Y-12505174D01*
X9316515Y-12505174D02*
X9316515Y-12552793D01*
X9316515Y-12552793D02*
X9306991Y-12590888D01*
X9306991Y-12590888D02*
X9297468Y-12609936D01*
X9297468Y-12609936D02*
X9287944Y-12619460D01*
X9287944Y-12619460D02*
X9268896Y-12628984D01*
X9268896Y-12628984D02*
X9249848Y-12628984D01*
X9249848Y-12628984D02*
X9230801Y-12619460D01*
X9230801Y-12619460D02*
X9221277Y-12609936D01*
X9221277Y-12609936D02*
X9211753Y-12590888D01*
X9211753Y-12590888D02*
X9202229Y-12552793D01*
X9202229Y-12552793D02*
X9202229Y-12505174D01*
X9202229Y-12505174D02*
X9211753Y-12467079D01*
X9211753Y-12467079D02*
X9221277Y-12448031D01*
X9221277Y-12448031D02*
X9230801Y-12438508D01*
X9230801Y-12438508D02*
X9249848Y-12428984D01*
X9487944Y-12495650D02*
X9487944Y-12628984D01*
X9440325Y-12419460D02*
X9392706Y-12562317D01*
X9392706Y-12562317D02*
X9516515Y-12562317D01*
X9630801Y-12428984D02*
X9649849Y-12428984D01*
X9649849Y-12428984D02*
X9668896Y-12438508D01*
X9668896Y-12438508D02*
X9678420Y-12448031D01*
X9678420Y-12448031D02*
X9687944Y-12467079D01*
X9687944Y-12467079D02*
X9697468Y-12505174D01*
X9697468Y-12505174D02*
X9697468Y-12552793D01*
X9697468Y-12552793D02*
X9687944Y-12590888D01*
X9687944Y-12590888D02*
X9678420Y-12609936D01*
X9678420Y-12609936D02*
X9668896Y-12619460D01*
X9668896Y-12619460D02*
X9649849Y-12628984D01*
X9649849Y-12628984D02*
X9630801Y-12628984D01*
X9630801Y-12628984D02*
X9611753Y-12619460D01*
X9611753Y-12619460D02*
X9602229Y-12609936D01*
X9602229Y-12609936D02*
X9592706Y-12590888D01*
X9592706Y-12590888D02*
X9583182Y-12552793D01*
X9583182Y-12552793D02*
X9583182Y-12505174D01*
X9583182Y-12505174D02*
X9592706Y-12467079D01*
X9592706Y-12467079D02*
X9602229Y-12448031D01*
X9602229Y-12448031D02*
X9611753Y-12438508D01*
X9611753Y-12438508D02*
X9630801Y-12428984D01*
X9821277Y-12428984D02*
X9840325Y-12428984D01*
X9840325Y-12428984D02*
X9859372Y-12438508D01*
X9859372Y-12438508D02*
X9868896Y-12448031D01*
X9868896Y-12448031D02*
X9878420Y-12467079D01*
X9878420Y-12467079D02*
X9887944Y-12505174D01*
X9887944Y-12505174D02*
X9887944Y-12552793D01*
X9887944Y-12552793D02*
X9878420Y-12590888D01*
X9878420Y-12590888D02*
X9868896Y-12609936D01*
X9868896Y-12609936D02*
X9859372Y-12619460D01*
X9859372Y-12619460D02*
X9840325Y-12628984D01*
X9840325Y-12628984D02*
X9821277Y-12628984D01*
X9821277Y-12628984D02*
X9802229Y-12619460D01*
X9802229Y-12619460D02*
X9792706Y-12609936D01*
X9792706Y-12609936D02*
X9783182Y-12590888D01*
X9783182Y-12590888D02*
X9773658Y-12552793D01*
X9773658Y-12552793D02*
X9773658Y-12505174D01*
X9773658Y-12505174D02*
X9783182Y-12467079D01*
X9783182Y-12467079D02*
X9792706Y-12448031D01*
X9792706Y-12448031D02*
X9802229Y-12438508D01*
X9802229Y-12438508D02*
X9821277Y-12428984D01*
X9964134Y-12428984D02*
X9964134Y-12467079D01*
X10040325Y-12428984D02*
X10040325Y-12467079D01*
X10335563Y-12705174D02*
X10326039Y-12695650D01*
X10326039Y-12695650D02*
X10306991Y-12667079D01*
X10306991Y-12667079D02*
X10297468Y-12648031D01*
X10297468Y-12648031D02*
X10287944Y-12619460D01*
X10287944Y-12619460D02*
X10278420Y-12571841D01*
X10278420Y-12571841D02*
X10278420Y-12533746D01*
X10278420Y-12533746D02*
X10287944Y-12486127D01*
X10287944Y-12486127D02*
X10297468Y-12457555D01*
X10297468Y-12457555D02*
X10306991Y-12438508D01*
X10306991Y-12438508D02*
X10326039Y-12409936D01*
X10326039Y-12409936D02*
X10335563Y-12400412D01*
X10402230Y-12448031D02*
X10411753Y-12438508D01*
X10411753Y-12438508D02*
X10430801Y-12428984D01*
X10430801Y-12428984D02*
X10478420Y-12428984D01*
X10478420Y-12428984D02*
X10497468Y-12438508D01*
X10497468Y-12438508D02*
X10506991Y-12448031D01*
X10506991Y-12448031D02*
X10516515Y-12467079D01*
X10516515Y-12467079D02*
X10516515Y-12486127D01*
X10516515Y-12486127D02*
X10506991Y-12514698D01*
X10506991Y-12514698D02*
X10392706Y-12628984D01*
X10392706Y-12628984D02*
X10516515Y-12628984D01*
X10687944Y-12495650D02*
X10687944Y-12628984D01*
X10640325Y-12419460D02*
X10592706Y-12562317D01*
X10592706Y-12562317D02*
X10716515Y-12562317D01*
X10945087Y-12628984D02*
X10945087Y-12428984D01*
X11030801Y-12628984D02*
X11030801Y-12524222D01*
X11030801Y-12524222D02*
X11021277Y-12505174D01*
X11021277Y-12505174D02*
X11002230Y-12495650D01*
X11002230Y-12495650D02*
X10973658Y-12495650D01*
X10973658Y-12495650D02*
X10954611Y-12505174D01*
X10954611Y-12505174D02*
X10945087Y-12514698D01*
X11154611Y-12628984D02*
X11135563Y-12619460D01*
X11135563Y-12619460D02*
X11126039Y-12609936D01*
X11126039Y-12609936D02*
X11116515Y-12590888D01*
X11116515Y-12590888D02*
X11116515Y-12533746D01*
X11116515Y-12533746D02*
X11126039Y-12514698D01*
X11126039Y-12514698D02*
X11135563Y-12505174D01*
X11135563Y-12505174D02*
X11154611Y-12495650D01*
X11154611Y-12495650D02*
X11183182Y-12495650D01*
X11183182Y-12495650D02*
X11202230Y-12505174D01*
X11202230Y-12505174D02*
X11211753Y-12514698D01*
X11211753Y-12514698D02*
X11221277Y-12533746D01*
X11221277Y-12533746D02*
X11221277Y-12590888D01*
X11221277Y-12590888D02*
X11211753Y-12609936D01*
X11211753Y-12609936D02*
X11202230Y-12619460D01*
X11202230Y-12619460D02*
X11183182Y-12628984D01*
X11183182Y-12628984D02*
X11154611Y-12628984D01*
X11335563Y-12628984D02*
X11316515Y-12619460D01*
X11316515Y-12619460D02*
X11306991Y-12600412D01*
X11306991Y-12600412D02*
X11306991Y-12428984D01*
X11487944Y-12619460D02*
X11468896Y-12628984D01*
X11468896Y-12628984D02*
X11430801Y-12628984D01*
X11430801Y-12628984D02*
X11411753Y-12619460D01*
X11411753Y-12619460D02*
X11402230Y-12600412D01*
X11402230Y-12600412D02*
X11402230Y-12524222D01*
X11402230Y-12524222D02*
X11411753Y-12505174D01*
X11411753Y-12505174D02*
X11430801Y-12495650D01*
X11430801Y-12495650D02*
X11468896Y-12495650D01*
X11468896Y-12495650D02*
X11487944Y-12505174D01*
X11487944Y-12505174D02*
X11497468Y-12524222D01*
X11497468Y-12524222D02*
X11497468Y-12543269D01*
X11497468Y-12543269D02*
X11402230Y-12562317D01*
X11573658Y-12619460D02*
X11592706Y-12628984D01*
X11592706Y-12628984D02*
X11630801Y-12628984D01*
X11630801Y-12628984D02*
X11649849Y-12619460D01*
X11649849Y-12619460D02*
X11659372Y-12600412D01*
X11659372Y-12600412D02*
X11659372Y-12590888D01*
X11659372Y-12590888D02*
X11649849Y-12571841D01*
X11649849Y-12571841D02*
X11630801Y-12562317D01*
X11630801Y-12562317D02*
X11602230Y-12562317D01*
X11602230Y-12562317D02*
X11583182Y-12552793D01*
X11583182Y-12552793D02*
X11573658Y-12533746D01*
X11573658Y-12533746D02*
X11573658Y-12524222D01*
X11573658Y-12524222D02*
X11583182Y-12505174D01*
X11583182Y-12505174D02*
X11602230Y-12495650D01*
X11602230Y-12495650D02*
X11630801Y-12495650D01*
X11630801Y-12495650D02*
X11649849Y-12505174D01*
X11726039Y-12705174D02*
X11735563Y-12695650D01*
X11735563Y-12695650D02*
X11754611Y-12667079D01*
X11754611Y-12667079D02*
X11764134Y-12648031D01*
X11764134Y-12648031D02*
X11773658Y-12619460D01*
X11773658Y-12619460D02*
X11783182Y-12571841D01*
X11783182Y-12571841D02*
X11783182Y-12533746D01*
X11783182Y-12533746D02*
X11773658Y-12486127D01*
X11773658Y-12486127D02*
X11764134Y-12457555D01*
X11764134Y-12457555D02*
X11754611Y-12438508D01*
X11754611Y-12438508D02*
X11735563Y-12409936D01*
X11735563Y-12409936D02*
X11726039Y-12400412D01*
D15*
X6695500Y-12866500D02*
X6760500Y-12801500D01*
X6695500Y-12736500D01*
X6630500Y-12801500D01*
X6695500Y-12866500D01*
D10*
X7126039Y-12892984D02*
X7011753Y-12892984D01*
X7068896Y-12892984D02*
X7068896Y-12692984D01*
X7068896Y-12692984D02*
X7049848Y-12721555D01*
X7049848Y-12721555D02*
X7030801Y-12740603D01*
X7030801Y-12740603D02*
X7011753Y-12750127D01*
X7211753Y-12873936D02*
X7221277Y-12883460D01*
X7221277Y-12883460D02*
X7211753Y-12892984D01*
X7211753Y-12892984D02*
X7202229Y-12883460D01*
X7202229Y-12883460D02*
X7211753Y-12873936D01*
X7211753Y-12873936D02*
X7211753Y-12892984D01*
X7287943Y-12692984D02*
X7411753Y-12692984D01*
X7411753Y-12692984D02*
X7345086Y-12769174D01*
X7345086Y-12769174D02*
X7373658Y-12769174D01*
X7373658Y-12769174D02*
X7392705Y-12778698D01*
X7392705Y-12778698D02*
X7402229Y-12788222D01*
X7402229Y-12788222D02*
X7411753Y-12807269D01*
X7411753Y-12807269D02*
X7411753Y-12854888D01*
X7411753Y-12854888D02*
X7402229Y-12873936D01*
X7402229Y-12873936D02*
X7392705Y-12883460D01*
X7392705Y-12883460D02*
X7373658Y-12892984D01*
X7373658Y-12892984D02*
X7316515Y-12892984D01*
X7316515Y-12892984D02*
X7297467Y-12883460D01*
X7297467Y-12883460D02*
X7287943Y-12873936D01*
X7535562Y-12692984D02*
X7554610Y-12692984D01*
X7554610Y-12692984D02*
X7573658Y-12702508D01*
X7573658Y-12702508D02*
X7583182Y-12712031D01*
X7583182Y-12712031D02*
X7592705Y-12731079D01*
X7592705Y-12731079D02*
X7602229Y-12769174D01*
X7602229Y-12769174D02*
X7602229Y-12816793D01*
X7602229Y-12816793D02*
X7592705Y-12854888D01*
X7592705Y-12854888D02*
X7583182Y-12873936D01*
X7583182Y-12873936D02*
X7573658Y-12883460D01*
X7573658Y-12883460D02*
X7554610Y-12892984D01*
X7554610Y-12892984D02*
X7535562Y-12892984D01*
X7535562Y-12892984D02*
X7516515Y-12883460D01*
X7516515Y-12883460D02*
X7506991Y-12873936D01*
X7506991Y-12873936D02*
X7497467Y-12854888D01*
X7497467Y-12854888D02*
X7487943Y-12816793D01*
X7487943Y-12816793D02*
X7487943Y-12769174D01*
X7487943Y-12769174D02*
X7497467Y-12731079D01*
X7497467Y-12731079D02*
X7506991Y-12712031D01*
X7506991Y-12712031D02*
X7516515Y-12702508D01*
X7516515Y-12702508D02*
X7535562Y-12692984D01*
X7726039Y-12692984D02*
X7745086Y-12692984D01*
X7745086Y-12692984D02*
X7764134Y-12702508D01*
X7764134Y-12702508D02*
X7773658Y-12712031D01*
X7773658Y-12712031D02*
X7783182Y-12731079D01*
X7783182Y-12731079D02*
X7792705Y-12769174D01*
X7792705Y-12769174D02*
X7792705Y-12816793D01*
X7792705Y-12816793D02*
X7783182Y-12854888D01*
X7783182Y-12854888D02*
X7773658Y-12873936D01*
X7773658Y-12873936D02*
X7764134Y-12883460D01*
X7764134Y-12883460D02*
X7745086Y-12892984D01*
X7745086Y-12892984D02*
X7726039Y-12892984D01*
X7726039Y-12892984D02*
X7706991Y-12883460D01*
X7706991Y-12883460D02*
X7697467Y-12873936D01*
X7697467Y-12873936D02*
X7687943Y-12854888D01*
X7687943Y-12854888D02*
X7678420Y-12816793D01*
X7678420Y-12816793D02*
X7678420Y-12769174D01*
X7678420Y-12769174D02*
X7687943Y-12731079D01*
X7687943Y-12731079D02*
X7697467Y-12712031D01*
X7697467Y-12712031D02*
X7706991Y-12702508D01*
X7706991Y-12702508D02*
X7726039Y-12692984D01*
X7878420Y-12892984D02*
X7878420Y-12759650D01*
X7878420Y-12778698D02*
X7887943Y-12769174D01*
X7887943Y-12769174D02*
X7906991Y-12759650D01*
X7906991Y-12759650D02*
X7935563Y-12759650D01*
X7935563Y-12759650D02*
X7954610Y-12769174D01*
X7954610Y-12769174D02*
X7964134Y-12788222D01*
X7964134Y-12788222D02*
X7964134Y-12892984D01*
X7964134Y-12788222D02*
X7973658Y-12769174D01*
X7973658Y-12769174D02*
X7992705Y-12759650D01*
X7992705Y-12759650D02*
X8021277Y-12759650D01*
X8021277Y-12759650D02*
X8040324Y-12769174D01*
X8040324Y-12769174D02*
X8049848Y-12788222D01*
X8049848Y-12788222D02*
X8049848Y-12892984D01*
X8145086Y-12892984D02*
X8145086Y-12759650D01*
X8145086Y-12778698D02*
X8154610Y-12769174D01*
X8154610Y-12769174D02*
X8173658Y-12759650D01*
X8173658Y-12759650D02*
X8202229Y-12759650D01*
X8202229Y-12759650D02*
X8221277Y-12769174D01*
X8221277Y-12769174D02*
X8230801Y-12788222D01*
X8230801Y-12788222D02*
X8230801Y-12892984D01*
X8230801Y-12788222D02*
X8240324Y-12769174D01*
X8240324Y-12769174D02*
X8259372Y-12759650D01*
X8259372Y-12759650D02*
X8287943Y-12759650D01*
X8287943Y-12759650D02*
X8306991Y-12769174D01*
X8306991Y-12769174D02*
X8316515Y-12788222D01*
X8316515Y-12788222D02*
X8316515Y-12892984D01*
X8706991Y-12683460D02*
X8535563Y-12940603D01*
X8964134Y-12692984D02*
X8983182Y-12692984D01*
X8983182Y-12692984D02*
X9002229Y-12702508D01*
X9002229Y-12702508D02*
X9011753Y-12712031D01*
X9011753Y-12712031D02*
X9021277Y-12731079D01*
X9021277Y-12731079D02*
X9030801Y-12769174D01*
X9030801Y-12769174D02*
X9030801Y-12816793D01*
X9030801Y-12816793D02*
X9021277Y-12854888D01*
X9021277Y-12854888D02*
X9011753Y-12873936D01*
X9011753Y-12873936D02*
X9002229Y-12883460D01*
X9002229Y-12883460D02*
X8983182Y-12892984D01*
X8983182Y-12892984D02*
X8964134Y-12892984D01*
X8964134Y-12892984D02*
X8945087Y-12883460D01*
X8945087Y-12883460D02*
X8935563Y-12873936D01*
X8935563Y-12873936D02*
X8926039Y-12854888D01*
X8926039Y-12854888D02*
X8916515Y-12816793D01*
X8916515Y-12816793D02*
X8916515Y-12769174D01*
X8916515Y-12769174D02*
X8926039Y-12731079D01*
X8926039Y-12731079D02*
X8935563Y-12712031D01*
X8935563Y-12712031D02*
X8945087Y-12702508D01*
X8945087Y-12702508D02*
X8964134Y-12692984D01*
X9116515Y-12873936D02*
X9126039Y-12883460D01*
X9126039Y-12883460D02*
X9116515Y-12892984D01*
X9116515Y-12892984D02*
X9106991Y-12883460D01*
X9106991Y-12883460D02*
X9116515Y-12873936D01*
X9116515Y-12873936D02*
X9116515Y-12892984D01*
X9249848Y-12692984D02*
X9268896Y-12692984D01*
X9268896Y-12692984D02*
X9287944Y-12702508D01*
X9287944Y-12702508D02*
X9297468Y-12712031D01*
X9297468Y-12712031D02*
X9306991Y-12731079D01*
X9306991Y-12731079D02*
X9316515Y-12769174D01*
X9316515Y-12769174D02*
X9316515Y-12816793D01*
X9316515Y-12816793D02*
X9306991Y-12854888D01*
X9306991Y-12854888D02*
X9297468Y-12873936D01*
X9297468Y-12873936D02*
X9287944Y-12883460D01*
X9287944Y-12883460D02*
X9268896Y-12892984D01*
X9268896Y-12892984D02*
X9249848Y-12892984D01*
X9249848Y-12892984D02*
X9230801Y-12883460D01*
X9230801Y-12883460D02*
X9221277Y-12873936D01*
X9221277Y-12873936D02*
X9211753Y-12854888D01*
X9211753Y-12854888D02*
X9202229Y-12816793D01*
X9202229Y-12816793D02*
X9202229Y-12769174D01*
X9202229Y-12769174D02*
X9211753Y-12731079D01*
X9211753Y-12731079D02*
X9221277Y-12712031D01*
X9221277Y-12712031D02*
X9230801Y-12702508D01*
X9230801Y-12702508D02*
X9249848Y-12692984D01*
X9497468Y-12692984D02*
X9402229Y-12692984D01*
X9402229Y-12692984D02*
X9392706Y-12788222D01*
X9392706Y-12788222D02*
X9402229Y-12778698D01*
X9402229Y-12778698D02*
X9421277Y-12769174D01*
X9421277Y-12769174D02*
X9468896Y-12769174D01*
X9468896Y-12769174D02*
X9487944Y-12778698D01*
X9487944Y-12778698D02*
X9497468Y-12788222D01*
X9497468Y-12788222D02*
X9506991Y-12807269D01*
X9506991Y-12807269D02*
X9506991Y-12854888D01*
X9506991Y-12854888D02*
X9497468Y-12873936D01*
X9497468Y-12873936D02*
X9487944Y-12883460D01*
X9487944Y-12883460D02*
X9468896Y-12892984D01*
X9468896Y-12892984D02*
X9421277Y-12892984D01*
X9421277Y-12892984D02*
X9402229Y-12883460D01*
X9402229Y-12883460D02*
X9392706Y-12873936D01*
X9697468Y-12892984D02*
X9583182Y-12892984D01*
X9640325Y-12892984D02*
X9640325Y-12692984D01*
X9640325Y-12692984D02*
X9621277Y-12721555D01*
X9621277Y-12721555D02*
X9602229Y-12740603D01*
X9602229Y-12740603D02*
X9583182Y-12750127D01*
X9773658Y-12712031D02*
X9783182Y-12702508D01*
X9783182Y-12702508D02*
X9802229Y-12692984D01*
X9802229Y-12692984D02*
X9849849Y-12692984D01*
X9849849Y-12692984D02*
X9868896Y-12702508D01*
X9868896Y-12702508D02*
X9878420Y-12712031D01*
X9878420Y-12712031D02*
X9887944Y-12731079D01*
X9887944Y-12731079D02*
X9887944Y-12750127D01*
X9887944Y-12750127D02*
X9878420Y-12778698D01*
X9878420Y-12778698D02*
X9764134Y-12892984D01*
X9764134Y-12892984D02*
X9887944Y-12892984D01*
X9964134Y-12692984D02*
X9964134Y-12731079D01*
X10040325Y-12692984D02*
X10040325Y-12731079D01*
X10335563Y-12969174D02*
X10326039Y-12959650D01*
X10326039Y-12959650D02*
X10306991Y-12931079D01*
X10306991Y-12931079D02*
X10297468Y-12912031D01*
X10297468Y-12912031D02*
X10287944Y-12883460D01*
X10287944Y-12883460D02*
X10278420Y-12835841D01*
X10278420Y-12835841D02*
X10278420Y-12797746D01*
X10278420Y-12797746D02*
X10287944Y-12750127D01*
X10287944Y-12750127D02*
X10297468Y-12721555D01*
X10297468Y-12721555D02*
X10306991Y-12702508D01*
X10306991Y-12702508D02*
X10326039Y-12673936D01*
X10326039Y-12673936D02*
X10335563Y-12664412D01*
X10440325Y-12778698D02*
X10421277Y-12769174D01*
X10421277Y-12769174D02*
X10411753Y-12759650D01*
X10411753Y-12759650D02*
X10402230Y-12740603D01*
X10402230Y-12740603D02*
X10402230Y-12731079D01*
X10402230Y-12731079D02*
X10411753Y-12712031D01*
X10411753Y-12712031D02*
X10421277Y-12702508D01*
X10421277Y-12702508D02*
X10440325Y-12692984D01*
X10440325Y-12692984D02*
X10478420Y-12692984D01*
X10478420Y-12692984D02*
X10497468Y-12702508D01*
X10497468Y-12702508D02*
X10506991Y-12712031D01*
X10506991Y-12712031D02*
X10516515Y-12731079D01*
X10516515Y-12731079D02*
X10516515Y-12740603D01*
X10516515Y-12740603D02*
X10506991Y-12759650D01*
X10506991Y-12759650D02*
X10497468Y-12769174D01*
X10497468Y-12769174D02*
X10478420Y-12778698D01*
X10478420Y-12778698D02*
X10440325Y-12778698D01*
X10440325Y-12778698D02*
X10421277Y-12788222D01*
X10421277Y-12788222D02*
X10411753Y-12797746D01*
X10411753Y-12797746D02*
X10402230Y-12816793D01*
X10402230Y-12816793D02*
X10402230Y-12854888D01*
X10402230Y-12854888D02*
X10411753Y-12873936D01*
X10411753Y-12873936D02*
X10421277Y-12883460D01*
X10421277Y-12883460D02*
X10440325Y-12892984D01*
X10440325Y-12892984D02*
X10478420Y-12892984D01*
X10478420Y-12892984D02*
X10497468Y-12883460D01*
X10497468Y-12883460D02*
X10506991Y-12873936D01*
X10506991Y-12873936D02*
X10516515Y-12854888D01*
X10516515Y-12854888D02*
X10516515Y-12816793D01*
X10516515Y-12816793D02*
X10506991Y-12797746D01*
X10506991Y-12797746D02*
X10497468Y-12788222D01*
X10497468Y-12788222D02*
X10478420Y-12778698D01*
X10754611Y-12892984D02*
X10754611Y-12692984D01*
X10840325Y-12892984D02*
X10840325Y-12788222D01*
X10840325Y-12788222D02*
X10830801Y-12769174D01*
X10830801Y-12769174D02*
X10811753Y-12759650D01*
X10811753Y-12759650D02*
X10783182Y-12759650D01*
X10783182Y-12759650D02*
X10764134Y-12769174D01*
X10764134Y-12769174D02*
X10754611Y-12778698D01*
X10964134Y-12892984D02*
X10945087Y-12883460D01*
X10945087Y-12883460D02*
X10935563Y-12873936D01*
X10935563Y-12873936D02*
X10926039Y-12854888D01*
X10926039Y-12854888D02*
X10926039Y-12797746D01*
X10926039Y-12797746D02*
X10935563Y-12778698D01*
X10935563Y-12778698D02*
X10945087Y-12769174D01*
X10945087Y-12769174D02*
X10964134Y-12759650D01*
X10964134Y-12759650D02*
X10992706Y-12759650D01*
X10992706Y-12759650D02*
X11011753Y-12769174D01*
X11011753Y-12769174D02*
X11021277Y-12778698D01*
X11021277Y-12778698D02*
X11030801Y-12797746D01*
X11030801Y-12797746D02*
X11030801Y-12854888D01*
X11030801Y-12854888D02*
X11021277Y-12873936D01*
X11021277Y-12873936D02*
X11011753Y-12883460D01*
X11011753Y-12883460D02*
X10992706Y-12892984D01*
X10992706Y-12892984D02*
X10964134Y-12892984D01*
X11145087Y-12892984D02*
X11126039Y-12883460D01*
X11126039Y-12883460D02*
X11116515Y-12864412D01*
X11116515Y-12864412D02*
X11116515Y-12692984D01*
X11297468Y-12883460D02*
X11278420Y-12892984D01*
X11278420Y-12892984D02*
X11240325Y-12892984D01*
X11240325Y-12892984D02*
X11221277Y-12883460D01*
X11221277Y-12883460D02*
X11211753Y-12864412D01*
X11211753Y-12864412D02*
X11211753Y-12788222D01*
X11211753Y-12788222D02*
X11221277Y-12769174D01*
X11221277Y-12769174D02*
X11240325Y-12759650D01*
X11240325Y-12759650D02*
X11278420Y-12759650D01*
X11278420Y-12759650D02*
X11297468Y-12769174D01*
X11297468Y-12769174D02*
X11306991Y-12788222D01*
X11306991Y-12788222D02*
X11306991Y-12807269D01*
X11306991Y-12807269D02*
X11211753Y-12826317D01*
X11383182Y-12883460D02*
X11402230Y-12892984D01*
X11402230Y-12892984D02*
X11440325Y-12892984D01*
X11440325Y-12892984D02*
X11459372Y-12883460D01*
X11459372Y-12883460D02*
X11468896Y-12864412D01*
X11468896Y-12864412D02*
X11468896Y-12854888D01*
X11468896Y-12854888D02*
X11459372Y-12835841D01*
X11459372Y-12835841D02*
X11440325Y-12826317D01*
X11440325Y-12826317D02*
X11411753Y-12826317D01*
X11411753Y-12826317D02*
X11392706Y-12816793D01*
X11392706Y-12816793D02*
X11383182Y-12797746D01*
X11383182Y-12797746D02*
X11383182Y-12788222D01*
X11383182Y-12788222D02*
X11392706Y-12769174D01*
X11392706Y-12769174D02*
X11411753Y-12759650D01*
X11411753Y-12759650D02*
X11440325Y-12759650D01*
X11440325Y-12759650D02*
X11459372Y-12769174D01*
X11535563Y-12969174D02*
X11545087Y-12959650D01*
X11545087Y-12959650D02*
X11564134Y-12931079D01*
X11564134Y-12931079D02*
X11573658Y-12912031D01*
X11573658Y-12912031D02*
X11583182Y-12883460D01*
X11583182Y-12883460D02*
X11592706Y-12835841D01*
X11592706Y-12835841D02*
X11592706Y-12797746D01*
X11592706Y-12797746D02*
X11583182Y-12750127D01*
X11583182Y-12750127D02*
X11573658Y-12721555D01*
X11573658Y-12721555D02*
X11564134Y-12702508D01*
X11564134Y-12702508D02*
X11545087Y-12673936D01*
X11545087Y-12673936D02*
X11535563Y-12664412D01*
X6560500Y-12965500D02*
X6760500Y-13165500D01*
X6760500Y-12965500D02*
X6560500Y-13165500D01*
X6760500Y-13065500D02*
G75*
G03*
X6760500Y-13065500I-100000J0D01*
G01*
X7011753Y-12976031D02*
X7021277Y-12966508D01*
X7021277Y-12966508D02*
X7040324Y-12956984D01*
X7040324Y-12956984D02*
X7087943Y-12956984D01*
X7087943Y-12956984D02*
X7106991Y-12966508D01*
X7106991Y-12966508D02*
X7116515Y-12976031D01*
X7116515Y-12976031D02*
X7126039Y-12995079D01*
X7126039Y-12995079D02*
X7126039Y-13014127D01*
X7126039Y-13014127D02*
X7116515Y-13042698D01*
X7116515Y-13042698D02*
X7002229Y-13156984D01*
X7002229Y-13156984D02*
X7126039Y-13156984D01*
X7211753Y-13137936D02*
X7221277Y-13147460D01*
X7221277Y-13147460D02*
X7211753Y-13156984D01*
X7211753Y-13156984D02*
X7202229Y-13147460D01*
X7202229Y-13147460D02*
X7211753Y-13137936D01*
X7211753Y-13137936D02*
X7211753Y-13156984D01*
X7287943Y-12956984D02*
X7421277Y-12956984D01*
X7421277Y-12956984D02*
X7335562Y-13156984D01*
X7592705Y-12956984D02*
X7497467Y-12956984D01*
X7497467Y-12956984D02*
X7487943Y-13052222D01*
X7487943Y-13052222D02*
X7497467Y-13042698D01*
X7497467Y-13042698D02*
X7516515Y-13033174D01*
X7516515Y-13033174D02*
X7564134Y-13033174D01*
X7564134Y-13033174D02*
X7583182Y-13042698D01*
X7583182Y-13042698D02*
X7592705Y-13052222D01*
X7592705Y-13052222D02*
X7602229Y-13071269D01*
X7602229Y-13071269D02*
X7602229Y-13118888D01*
X7602229Y-13118888D02*
X7592705Y-13137936D01*
X7592705Y-13137936D02*
X7583182Y-13147460D01*
X7583182Y-13147460D02*
X7564134Y-13156984D01*
X7564134Y-13156984D02*
X7516515Y-13156984D01*
X7516515Y-13156984D02*
X7497467Y-13147460D01*
X7497467Y-13147460D02*
X7487943Y-13137936D01*
X7726039Y-12956984D02*
X7745086Y-12956984D01*
X7745086Y-12956984D02*
X7764134Y-12966508D01*
X7764134Y-12966508D02*
X7773658Y-12976031D01*
X7773658Y-12976031D02*
X7783182Y-12995079D01*
X7783182Y-12995079D02*
X7792705Y-13033174D01*
X7792705Y-13033174D02*
X7792705Y-13080793D01*
X7792705Y-13080793D02*
X7783182Y-13118888D01*
X7783182Y-13118888D02*
X7773658Y-13137936D01*
X7773658Y-13137936D02*
X7764134Y-13147460D01*
X7764134Y-13147460D02*
X7745086Y-13156984D01*
X7745086Y-13156984D02*
X7726039Y-13156984D01*
X7726039Y-13156984D02*
X7706991Y-13147460D01*
X7706991Y-13147460D02*
X7697467Y-13137936D01*
X7697467Y-13137936D02*
X7687943Y-13118888D01*
X7687943Y-13118888D02*
X7678420Y-13080793D01*
X7678420Y-13080793D02*
X7678420Y-13033174D01*
X7678420Y-13033174D02*
X7687943Y-12995079D01*
X7687943Y-12995079D02*
X7697467Y-12976031D01*
X7697467Y-12976031D02*
X7706991Y-12966508D01*
X7706991Y-12966508D02*
X7726039Y-12956984D01*
X7878420Y-13156984D02*
X7878420Y-13023650D01*
X7878420Y-13042698D02*
X7887943Y-13033174D01*
X7887943Y-13033174D02*
X7906991Y-13023650D01*
X7906991Y-13023650D02*
X7935563Y-13023650D01*
X7935563Y-13023650D02*
X7954610Y-13033174D01*
X7954610Y-13033174D02*
X7964134Y-13052222D01*
X7964134Y-13052222D02*
X7964134Y-13156984D01*
X7964134Y-13052222D02*
X7973658Y-13033174D01*
X7973658Y-13033174D02*
X7992705Y-13023650D01*
X7992705Y-13023650D02*
X8021277Y-13023650D01*
X8021277Y-13023650D02*
X8040324Y-13033174D01*
X8040324Y-13033174D02*
X8049848Y-13052222D01*
X8049848Y-13052222D02*
X8049848Y-13156984D01*
X8145086Y-13156984D02*
X8145086Y-13023650D01*
X8145086Y-13042698D02*
X8154610Y-13033174D01*
X8154610Y-13033174D02*
X8173658Y-13023650D01*
X8173658Y-13023650D02*
X8202229Y-13023650D01*
X8202229Y-13023650D02*
X8221277Y-13033174D01*
X8221277Y-13033174D02*
X8230801Y-13052222D01*
X8230801Y-13052222D02*
X8230801Y-13156984D01*
X8230801Y-13052222D02*
X8240324Y-13033174D01*
X8240324Y-13033174D02*
X8259372Y-13023650D01*
X8259372Y-13023650D02*
X8287943Y-13023650D01*
X8287943Y-13023650D02*
X8306991Y-13033174D01*
X8306991Y-13033174D02*
X8316515Y-13052222D01*
X8316515Y-13052222D02*
X8316515Y-13156984D01*
X8706991Y-12947460D02*
X8535563Y-13204603D01*
X8964134Y-12956984D02*
X8983182Y-12956984D01*
X8983182Y-12956984D02*
X9002229Y-12966508D01*
X9002229Y-12966508D02*
X9011753Y-12976031D01*
X9011753Y-12976031D02*
X9021277Y-12995079D01*
X9021277Y-12995079D02*
X9030801Y-13033174D01*
X9030801Y-13033174D02*
X9030801Y-13080793D01*
X9030801Y-13080793D02*
X9021277Y-13118888D01*
X9021277Y-13118888D02*
X9011753Y-13137936D01*
X9011753Y-13137936D02*
X9002229Y-13147460D01*
X9002229Y-13147460D02*
X8983182Y-13156984D01*
X8983182Y-13156984D02*
X8964134Y-13156984D01*
X8964134Y-13156984D02*
X8945087Y-13147460D01*
X8945087Y-13147460D02*
X8935563Y-13137936D01*
X8935563Y-13137936D02*
X8926039Y-13118888D01*
X8926039Y-13118888D02*
X8916515Y-13080793D01*
X8916515Y-13080793D02*
X8916515Y-13033174D01*
X8916515Y-13033174D02*
X8926039Y-12995079D01*
X8926039Y-12995079D02*
X8935563Y-12976031D01*
X8935563Y-12976031D02*
X8945087Y-12966508D01*
X8945087Y-12966508D02*
X8964134Y-12956984D01*
X9116515Y-13137936D02*
X9126039Y-13147460D01*
X9126039Y-13147460D02*
X9116515Y-13156984D01*
X9116515Y-13156984D02*
X9106991Y-13147460D01*
X9106991Y-13147460D02*
X9116515Y-13137936D01*
X9116515Y-13137936D02*
X9116515Y-13156984D01*
X9316515Y-13156984D02*
X9202229Y-13156984D01*
X9259372Y-13156984D02*
X9259372Y-12956984D01*
X9259372Y-12956984D02*
X9240325Y-12985555D01*
X9240325Y-12985555D02*
X9221277Y-13004603D01*
X9221277Y-13004603D02*
X9202229Y-13014127D01*
X9440325Y-12956984D02*
X9459372Y-12956984D01*
X9459372Y-12956984D02*
X9478420Y-12966508D01*
X9478420Y-12966508D02*
X9487944Y-12976031D01*
X9487944Y-12976031D02*
X9497468Y-12995079D01*
X9497468Y-12995079D02*
X9506991Y-13033174D01*
X9506991Y-13033174D02*
X9506991Y-13080793D01*
X9506991Y-13080793D02*
X9497468Y-13118888D01*
X9497468Y-13118888D02*
X9487944Y-13137936D01*
X9487944Y-13137936D02*
X9478420Y-13147460D01*
X9478420Y-13147460D02*
X9459372Y-13156984D01*
X9459372Y-13156984D02*
X9440325Y-13156984D01*
X9440325Y-13156984D02*
X9421277Y-13147460D01*
X9421277Y-13147460D02*
X9411753Y-13137936D01*
X9411753Y-13137936D02*
X9402229Y-13118888D01*
X9402229Y-13118888D02*
X9392706Y-13080793D01*
X9392706Y-13080793D02*
X9392706Y-13033174D01*
X9392706Y-13033174D02*
X9402229Y-12995079D01*
X9402229Y-12995079D02*
X9411753Y-12976031D01*
X9411753Y-12976031D02*
X9421277Y-12966508D01*
X9421277Y-12966508D02*
X9440325Y-12956984D01*
X9621277Y-13042698D02*
X9602229Y-13033174D01*
X9602229Y-13033174D02*
X9592706Y-13023650D01*
X9592706Y-13023650D02*
X9583182Y-13004603D01*
X9583182Y-13004603D02*
X9583182Y-12995079D01*
X9583182Y-12995079D02*
X9592706Y-12976031D01*
X9592706Y-12976031D02*
X9602229Y-12966508D01*
X9602229Y-12966508D02*
X9621277Y-12956984D01*
X9621277Y-12956984D02*
X9659372Y-12956984D01*
X9659372Y-12956984D02*
X9678420Y-12966508D01*
X9678420Y-12966508D02*
X9687944Y-12976031D01*
X9687944Y-12976031D02*
X9697468Y-12995079D01*
X9697468Y-12995079D02*
X9697468Y-13004603D01*
X9697468Y-13004603D02*
X9687944Y-13023650D01*
X9687944Y-13023650D02*
X9678420Y-13033174D01*
X9678420Y-13033174D02*
X9659372Y-13042698D01*
X9659372Y-13042698D02*
X9621277Y-13042698D01*
X9621277Y-13042698D02*
X9602229Y-13052222D01*
X9602229Y-13052222D02*
X9592706Y-13061746D01*
X9592706Y-13061746D02*
X9583182Y-13080793D01*
X9583182Y-13080793D02*
X9583182Y-13118888D01*
X9583182Y-13118888D02*
X9592706Y-13137936D01*
X9592706Y-13137936D02*
X9602229Y-13147460D01*
X9602229Y-13147460D02*
X9621277Y-13156984D01*
X9621277Y-13156984D02*
X9659372Y-13156984D01*
X9659372Y-13156984D02*
X9678420Y-13147460D01*
X9678420Y-13147460D02*
X9687944Y-13137936D01*
X9687944Y-13137936D02*
X9697468Y-13118888D01*
X9697468Y-13118888D02*
X9697468Y-13080793D01*
X9697468Y-13080793D02*
X9687944Y-13061746D01*
X9687944Y-13061746D02*
X9678420Y-13052222D01*
X9678420Y-13052222D02*
X9659372Y-13042698D01*
X9764134Y-12956984D02*
X9887944Y-12956984D01*
X9887944Y-12956984D02*
X9821277Y-13033174D01*
X9821277Y-13033174D02*
X9849849Y-13033174D01*
X9849849Y-13033174D02*
X9868896Y-13042698D01*
X9868896Y-13042698D02*
X9878420Y-13052222D01*
X9878420Y-13052222D02*
X9887944Y-13071269D01*
X9887944Y-13071269D02*
X9887944Y-13118888D01*
X9887944Y-13118888D02*
X9878420Y-13137936D01*
X9878420Y-13137936D02*
X9868896Y-13147460D01*
X9868896Y-13147460D02*
X9849849Y-13156984D01*
X9849849Y-13156984D02*
X9792706Y-13156984D01*
X9792706Y-13156984D02*
X9773658Y-13147460D01*
X9773658Y-13147460D02*
X9764134Y-13137936D01*
X9964134Y-12956984D02*
X9964134Y-12995079D01*
X10040325Y-12956984D02*
X10040325Y-12995079D01*
X10335563Y-13233174D02*
X10326039Y-13223650D01*
X10326039Y-13223650D02*
X10306991Y-13195079D01*
X10306991Y-13195079D02*
X10297468Y-13176031D01*
X10297468Y-13176031D02*
X10287944Y-13147460D01*
X10287944Y-13147460D02*
X10278420Y-13099841D01*
X10278420Y-13099841D02*
X10278420Y-13061746D01*
X10278420Y-13061746D02*
X10287944Y-13014127D01*
X10287944Y-13014127D02*
X10297468Y-12985555D01*
X10297468Y-12985555D02*
X10306991Y-12966508D01*
X10306991Y-12966508D02*
X10326039Y-12937936D01*
X10326039Y-12937936D02*
X10335563Y-12928412D01*
X10497468Y-13023650D02*
X10497468Y-13156984D01*
X10449849Y-12947460D02*
X10402230Y-13090317D01*
X10402230Y-13090317D02*
X10526039Y-13090317D01*
X10754611Y-13156984D02*
X10754611Y-12956984D01*
X10840325Y-13156984D02*
X10840325Y-13052222D01*
X10840325Y-13052222D02*
X10830801Y-13033174D01*
X10830801Y-13033174D02*
X10811753Y-13023650D01*
X10811753Y-13023650D02*
X10783182Y-13023650D01*
X10783182Y-13023650D02*
X10764134Y-13033174D01*
X10764134Y-13033174D02*
X10754611Y-13042698D01*
X10964134Y-13156984D02*
X10945087Y-13147460D01*
X10945087Y-13147460D02*
X10935563Y-13137936D01*
X10935563Y-13137936D02*
X10926039Y-13118888D01*
X10926039Y-13118888D02*
X10926039Y-13061746D01*
X10926039Y-13061746D02*
X10935563Y-13042698D01*
X10935563Y-13042698D02*
X10945087Y-13033174D01*
X10945087Y-13033174D02*
X10964134Y-13023650D01*
X10964134Y-13023650D02*
X10992706Y-13023650D01*
X10992706Y-13023650D02*
X11011753Y-13033174D01*
X11011753Y-13033174D02*
X11021277Y-13042698D01*
X11021277Y-13042698D02*
X11030801Y-13061746D01*
X11030801Y-13061746D02*
X11030801Y-13118888D01*
X11030801Y-13118888D02*
X11021277Y-13137936D01*
X11021277Y-13137936D02*
X11011753Y-13147460D01*
X11011753Y-13147460D02*
X10992706Y-13156984D01*
X10992706Y-13156984D02*
X10964134Y-13156984D01*
X11145087Y-13156984D02*
X11126039Y-13147460D01*
X11126039Y-13147460D02*
X11116515Y-13128412D01*
X11116515Y-13128412D02*
X11116515Y-12956984D01*
X11297468Y-13147460D02*
X11278420Y-13156984D01*
X11278420Y-13156984D02*
X11240325Y-13156984D01*
X11240325Y-13156984D02*
X11221277Y-13147460D01*
X11221277Y-13147460D02*
X11211753Y-13128412D01*
X11211753Y-13128412D02*
X11211753Y-13052222D01*
X11211753Y-13052222D02*
X11221277Y-13033174D01*
X11221277Y-13033174D02*
X11240325Y-13023650D01*
X11240325Y-13023650D02*
X11278420Y-13023650D01*
X11278420Y-13023650D02*
X11297468Y-13033174D01*
X11297468Y-13033174D02*
X11306991Y-13052222D01*
X11306991Y-13052222D02*
X11306991Y-13071269D01*
X11306991Y-13071269D02*
X11211753Y-13090317D01*
X11383182Y-13147460D02*
X11402230Y-13156984D01*
X11402230Y-13156984D02*
X11440325Y-13156984D01*
X11440325Y-13156984D02*
X11459372Y-13147460D01*
X11459372Y-13147460D02*
X11468896Y-13128412D01*
X11468896Y-13128412D02*
X11468896Y-13118888D01*
X11468896Y-13118888D02*
X11459372Y-13099841D01*
X11459372Y-13099841D02*
X11440325Y-13090317D01*
X11440325Y-13090317D02*
X11411753Y-13090317D01*
X11411753Y-13090317D02*
X11392706Y-13080793D01*
X11392706Y-13080793D02*
X11383182Y-13061746D01*
X11383182Y-13061746D02*
X11383182Y-13052222D01*
X11383182Y-13052222D02*
X11392706Y-13033174D01*
X11392706Y-13033174D02*
X11411753Y-13023650D01*
X11411753Y-13023650D02*
X11440325Y-13023650D01*
X11440325Y-13023650D02*
X11459372Y-13033174D01*
X11535563Y-13233174D02*
X11545087Y-13223650D01*
X11545087Y-13223650D02*
X11564134Y-13195079D01*
X11564134Y-13195079D02*
X11573658Y-13176031D01*
X11573658Y-13176031D02*
X11583182Y-13147460D01*
X11583182Y-13147460D02*
X11592706Y-13099841D01*
X11592706Y-13099841D02*
X11592706Y-13061746D01*
X11592706Y-13061746D02*
X11583182Y-13014127D01*
X11583182Y-13014127D02*
X11573658Y-12985555D01*
X11573658Y-12985555D02*
X11564134Y-12966508D01*
X11564134Y-12966508D02*
X11545087Y-12937936D01*
X11545087Y-12937936D02*
X11535563Y-12928412D01*
M02*
