%TF.GenerationSoftware,KiCad,Pcbnew,7.0.6*%
%TF.CreationDate,2023-10-11T20:15:21+08:00*%
%TF.ProjectId,PCB_ESP32WROOM32E_RPI_Zero_Form_Hackster,5043425f-4553-4503-9332-57524f4f4d33,rev?*%
%TF.SameCoordinates,Original*%
%TF.FileFunction,Copper,L4,Bot*%
%TF.FilePolarity,Positive*%
%FSLAX46Y46*%
G04 Gerber Fmt 4.6, Leading zero omitted, Abs format (unit mm)*
G04 Created by KiCad (PCBNEW 7.0.6) date 2023-10-11 20:15:21*
%MOMM*%
%LPD*%
G01*
G04 APERTURE LIST*
G04 Aperture macros list*
%AMRoundRect*
0 Rectangle with rounded corners*
0 $1 Rounding radius*
0 $2 $3 $4 $5 $6 $7 $8 $9 X,Y pos of 4 corners*
0 Add a 4 corners polygon primitive as box body*
4,1,4,$2,$3,$4,$5,$6,$7,$8,$9,$2,$3,0*
0 Add four circle primitives for the rounded corners*
1,1,$1+$1,$2,$3*
1,1,$1+$1,$4,$5*
1,1,$1+$1,$6,$7*
1,1,$1+$1,$8,$9*
0 Add four rect primitives between the rounded corners*
20,1,$1+$1,$2,$3,$4,$5,0*
20,1,$1+$1,$4,$5,$6,$7,0*
20,1,$1+$1,$6,$7,$8,$9,0*
20,1,$1+$1,$8,$9,$2,$3,0*%
G04 Aperture macros list end*
%TA.AperFunction,ComponentPad*%
%ADD10RoundRect,0.250000X0.600000X0.725000X-0.600000X0.725000X-0.600000X-0.725000X0.600000X-0.725000X0*%
%TD*%
%TA.AperFunction,ComponentPad*%
%ADD11O,1.700000X1.950000*%
%TD*%
%TA.AperFunction,ComponentPad*%
%ADD12R,1.508000X1.508000*%
%TD*%
%TA.AperFunction,ComponentPad*%
%ADD13C,1.508000*%
%TD*%
%TA.AperFunction,ComponentPad*%
%ADD14C,1.950000*%
%TD*%
%TA.AperFunction,ComponentPad*%
%ADD15RoundRect,0.250000X0.600000X0.750000X-0.600000X0.750000X-0.600000X-0.750000X0.600000X-0.750000X0*%
%TD*%
%TA.AperFunction,ComponentPad*%
%ADD16O,1.700000X2.000000*%
%TD*%
%TA.AperFunction,ComponentPad*%
%ADD17C,3.500000*%
%TD*%
%TA.AperFunction,ComponentPad*%
%ADD18R,1.524000X1.524000*%
%TD*%
%TA.AperFunction,ComponentPad*%
%ADD19C,1.524000*%
%TD*%
%TA.AperFunction,SMDPad,CuDef*%
%ADD20R,0.900000X0.600000*%
%TD*%
%TA.AperFunction,SMDPad,CuDef*%
%ADD21R,1.550000X0.600000*%
%TD*%
%TA.AperFunction,SMDPad,CuDef*%
%ADD22R,1.800000X0.800000*%
%TD*%
%TA.AperFunction,SMDPad,CuDef*%
%ADD23R,0.600000X0.900000*%
%TD*%
%TA.AperFunction,SMDPad,CuDef*%
%ADD24RoundRect,0.237500X0.237500X-0.250000X0.237500X0.250000X-0.237500X0.250000X-0.237500X-0.250000X0*%
%TD*%
%TA.AperFunction,SMDPad,CuDef*%
%ADD25RoundRect,0.237500X-0.300000X-0.237500X0.300000X-0.237500X0.300000X0.237500X-0.300000X0.237500X0*%
%TD*%
%TA.AperFunction,SMDPad,CuDef*%
%ADD26RoundRect,0.237500X-0.237500X0.250000X-0.237500X-0.250000X0.237500X-0.250000X0.237500X0.250000X0*%
%TD*%
%TA.AperFunction,SMDPad,CuDef*%
%ADD27RoundRect,0.237500X-0.250000X-0.237500X0.250000X-0.237500X0.250000X0.237500X-0.250000X0.237500X0*%
%TD*%
%TA.AperFunction,SMDPad,CuDef*%
%ADD28RoundRect,0.250000X-0.425000X0.537500X-0.425000X-0.537500X0.425000X-0.537500X0.425000X0.537500X0*%
%TD*%
%TA.AperFunction,SMDPad,CuDef*%
%ADD29R,1.600000X0.700000*%
%TD*%
%TA.AperFunction,SMDPad,CuDef*%
%ADD30R,1.600000X1.400000*%
%TD*%
%TA.AperFunction,SMDPad,CuDef*%
%ADD31R,2.200000X1.400000*%
%TD*%
%TA.AperFunction,SMDPad,CuDef*%
%ADD32R,1.400000X1.800000*%
%TD*%
%TA.AperFunction,SMDPad,CuDef*%
%ADD33RoundRect,0.237500X0.237500X-0.300000X0.237500X0.300000X-0.237500X0.300000X-0.237500X-0.300000X0*%
%TD*%
%TA.AperFunction,ViaPad*%
%ADD34C,0.700000*%
%TD*%
%TA.AperFunction,Conductor*%
%ADD35C,0.800000*%
%TD*%
%TA.AperFunction,Conductor*%
%ADD36C,0.500000*%
%TD*%
%TA.AperFunction,Conductor*%
%ADD37C,1.000000*%
%TD*%
%TA.AperFunction,Conductor*%
%ADD38C,0.250000*%
%TD*%
G04 APERTURE END LIST*
D10*
%TO.P,J4,1,Pin_1*%
%TO.N,GND*%
X91700000Y-107900000D03*
D11*
%TO.P,J4,2,Pin_2*%
%TO.N,/ESP32S3_Minsys/RTS*%
X89200000Y-107900000D03*
%TO.P,J4,3,Pin_3*%
%TO.N,/ESP32S3_Minsys/ESP_TXD*%
X86700000Y-107900000D03*
%TO.P,J4,4,Pin_4*%
%TO.N,/ESP32S3_Minsys/ESP_RXD*%
X84200000Y-107900000D03*
%TO.P,J4,5,Pin_5*%
%TO.N,/ESP32S3_Minsys/DTR*%
X81700000Y-107900000D03*
%TO.P,J4,6,Pin_6*%
%TO.N,/ESP32S3_Minsys/3V3*%
X79200000Y-107900000D03*
%TD*%
D12*
%TO.P,S5,1*%
%TO.N,GND*%
X82300000Y-83500000D03*
D13*
%TO.P,S5,2*%
%TO.N,/ESP32S3_Minsys/IO33*%
X77800000Y-83500000D03*
D14*
%TO.P,S5,SH1*%
%TO.N,N/C*%
X83550000Y-86000000D03*
%TO.P,S5,SH2*%
X76550000Y-86000000D03*
%TD*%
D15*
%TO.P,J1,1,Pin_1*%
%TO.N,/ESP32S3_Minsys/5V*%
X89850000Y-95900000D03*
D16*
%TO.P,J1,2,Pin_2*%
%TO.N,GND*%
X87350000Y-95900000D03*
%TD*%
D17*
%TO.P,Coral_Dev_Board1,*%
%TO.N,*%
X129130000Y-107530000D03*
X129130000Y-84530000D03*
X71130000Y-107530000D03*
X71130000Y-84530000D03*
D18*
%TO.P,Coral_Dev_Board1,1,Pin_1*%
%TO.N,GND*%
X124630000Y-82060000D03*
D19*
%TO.P,Coral_Dev_Board1,2,Pin_2*%
%TO.N,unconnected-(Coral_Dev_Board1-Pin_2-Pad2)*%
X122090000Y-82060000D03*
%TO.P,Coral_Dev_Board1,3,Pin_3*%
%TO.N,Net-(Coral_Dev_Board1-Pin_3)*%
X119550000Y-82060000D03*
%TO.P,Coral_Dev_Board1,4,Pin_4*%
%TO.N,unconnected-(Coral_Dev_Board1-Pin_4-Pad4)*%
X117010000Y-82060000D03*
%TO.P,Coral_Dev_Board1,5,Pin_5*%
%TO.N,Net-(Coral_Dev_Board1-Pin_5)*%
X114470000Y-82060000D03*
%TO.P,Coral_Dev_Board1,6,Pin_6*%
%TO.N,Net-(Coral_Dev_Board1-Pin_6)*%
X111930000Y-82060000D03*
%TO.P,Coral_Dev_Board1,7,Pin_7*%
%TO.N,Net-(Coral_Dev_Board1-Pin_7)*%
X109390000Y-82060000D03*
%TO.P,Coral_Dev_Board1,8,Pin_8*%
%TO.N,Net-(Coral_Dev_Board1-Pin_8)*%
X106850000Y-82060000D03*
%TO.P,Coral_Dev_Board1,9,Pin_9*%
%TO.N,unconnected-(Coral_Dev_Board1-Pin_9-Pad9)*%
X104310000Y-82060000D03*
%TO.P,Coral_Dev_Board1,10,Pin_10*%
%TO.N,Net-(Coral_Dev_Board1-Pin_10)*%
X101770000Y-82060000D03*
%TO.P,Coral_Dev_Board1,11,Pin_11*%
%TO.N,Net-(Coral_Dev_Board1-Pin_11)*%
X99230000Y-82060000D03*
%TO.P,Coral_Dev_Board1,12,Pin_12*%
%TO.N,Net-(Coral_Dev_Board1-Pin_12)*%
X96690000Y-82060000D03*
D18*
%TO.P,Coral_Dev_Board1,13,Pin_13*%
%TO.N,GND*%
X124630000Y-110000000D03*
D19*
%TO.P,Coral_Dev_Board1,14,Pin_14*%
%TO.N,unconnected-(Coral_Dev_Board1-Pin_14-Pad14)*%
X122090000Y-110000000D03*
%TO.P,Coral_Dev_Board1,15,Pin_15*%
%TO.N,Net-(Coral_Dev_Board1-Pin_15)*%
X119550000Y-110000000D03*
%TO.P,Coral_Dev_Board1,16,Pin_16*%
%TO.N,Net-(Coral_Dev_Board1-Pin_16)*%
X117010000Y-110000000D03*
%TO.P,Coral_Dev_Board1,17,Pin_17*%
%TO.N,Net-(Coral_Dev_Board1-Pin_17)*%
X114470000Y-110000000D03*
%TO.P,Coral_Dev_Board1,18,Pin_18*%
%TO.N,Net-(Coral_Dev_Board1-Pin_18)*%
X111930000Y-110000000D03*
%TO.P,Coral_Dev_Board1,19,Pin_19*%
%TO.N,Net-(Coral_Dev_Board1-Pin_19)*%
X109390000Y-110000000D03*
%TO.P,Coral_Dev_Board1,20,Pin_20*%
%TO.N,Net-(Coral_Dev_Board1-Pin_20)*%
X106850000Y-110000000D03*
%TO.P,Coral_Dev_Board1,21,Pin_21*%
%TO.N,Net-(Coral_Dev_Board1-Pin_21)*%
X104310000Y-110000000D03*
%TO.P,Coral_Dev_Board1,22,Pin_22*%
%TO.N,Net-(Coral_Dev_Board1-Pin_22)*%
X101770000Y-110000000D03*
%TO.P,Coral_Dev_Board1,23,Pin_23*%
%TO.N,Net-(Coral_Dev_Board1-Pin_23)*%
X99230000Y-110000000D03*
%TO.P,Coral_Dev_Board1,24,Pin_24*%
%TO.N,Net-(Coral_Dev_Board1-Pin_24)*%
X96690000Y-110000000D03*
%TD*%
D12*
%TO.P,S6,1*%
%TO.N,GND*%
X94150000Y-83500000D03*
D13*
%TO.P,S6,2*%
%TO.N,/ESP32S3_Minsys/IO26*%
X89650000Y-83500000D03*
D14*
%TO.P,S6,SH1*%
%TO.N,N/C*%
X95400000Y-86000000D03*
%TO.P,S6,SH2*%
X88400000Y-86000000D03*
%TD*%
D12*
%TO.P,S4,1*%
%TO.N,GND*%
X75400000Y-83500000D03*
D13*
%TO.P,S4,2*%
%TO.N,/ESP32S3_Minsys/IO25*%
X79900000Y-83500000D03*
D14*
%TO.P,S4,SH1*%
%TO.N,N/C*%
X74150000Y-86000000D03*
%TO.P,S4,SH2*%
X81150000Y-86000000D03*
%TD*%
D20*
%TO.P,JP13,1,A*%
%TO.N,Net-(Coral_Dev_Board1-Pin_23)*%
X112150000Y-106450000D03*
%TO.P,JP13,2,B*%
%TO.N,/ESP32S3_Minsys/IO4*%
X112150000Y-105250000D03*
%TD*%
%TO.P,JP8,1,A*%
%TO.N,/ESP32S3_Minsys/IO34*%
X121030000Y-86870000D03*
%TO.P,JP8,2,B*%
%TO.N,Net-(Coral_Dev_Board1-Pin_10)*%
X121030000Y-85670000D03*
%TD*%
%TO.P,JP10,1,A*%
%TO.N,Net-(Coral_Dev_Board1-Pin_20)*%
X113400000Y-106450000D03*
%TO.P,JP10,2,B*%
%TO.N,/ESP32S3_Minsys/IO16*%
X113400000Y-105250000D03*
%TD*%
D21*
%TO.P,J2,1,1*%
%TO.N,GND*%
X120100000Y-97600000D03*
%TO.P,J2,2,2*%
%TO.N,/ESP32S3_Minsys/3V3*%
X120100000Y-96600000D03*
%TO.P,J2,3,3*%
%TO.N,/ESP32S3_Minsys/SDA*%
X120100000Y-95600000D03*
%TO.P,J2,4,4*%
%TO.N,/ESP32S3_Minsys/SCL*%
X120100000Y-94600000D03*
D22*
%TO.P,J2,S1,SHIELD*%
%TO.N,GND*%
X116225000Y-98900000D03*
%TO.P,J2,S2,SHIELD*%
X116225000Y-93300000D03*
%TD*%
D23*
%TO.P,JP4,1,A*%
%TO.N,/ESP32S3_Minsys/MISO*%
X110050000Y-101800000D03*
%TO.P,JP4,2,B*%
%TO.N,Net-(Coral_Dev_Board1-Pin_8)*%
X111250000Y-101800000D03*
%TD*%
%TO.P,JP3,1,A*%
%TO.N,/ESP32S3_Minsys/MOSI*%
X110050000Y-100550000D03*
%TO.P,JP3,2,B*%
%TO.N,Net-(Coral_Dev_Board1-Pin_7)*%
X111250000Y-100550000D03*
%TD*%
%TO.P,JP14,1,A*%
%TO.N,/ESP32S3_Minsys/3V3*%
X124240000Y-96960000D03*
%TO.P,JP14,2,B*%
%TO.N,Net-(Coral_Dev_Board1-Pin_3)*%
X123040000Y-96960000D03*
%TD*%
D20*
%TO.P,JP9,1,A*%
%TO.N,/ESP32S3_Minsys/IO35*%
X119760000Y-86870000D03*
%TO.P,JP9,2,B*%
%TO.N,Net-(Coral_Dev_Board1-Pin_11)*%
X119760000Y-85670000D03*
%TD*%
D24*
%TO.P,R21,1*%
%TO.N,/ESP32S3_Minsys/SDA*%
X122410000Y-100362500D03*
%TO.P,R21,2*%
%TO.N,/ESP32S3_Minsys/3V3*%
X122410000Y-98537500D03*
%TD*%
D20*
%TO.P,JP6,1,A*%
%TO.N,Net-(Coral_Dev_Board1-Pin_16)*%
X118490000Y-89000000D03*
%TO.P,JP6,2,B*%
%TO.N,/ESP32S3_Minsys/IO32*%
X118490000Y-87800000D03*
%TD*%
%TO.P,JP11,1,A*%
%TO.N,Net-(Coral_Dev_Board1-Pin_21)*%
X114650000Y-103200000D03*
%TO.P,JP11,2,B*%
%TO.N,/ESP32S3_Minsys/IO17*%
X114650000Y-104400000D03*
%TD*%
D25*
%TO.P,C17,1*%
%TO.N,GND*%
X124317500Y-94932500D03*
%TO.P,C17,2*%
%TO.N,/ESP32S3_Minsys/3V3*%
X126042500Y-94932500D03*
%TD*%
D26*
%TO.P,R9,1*%
%TO.N,/ESP32S3_Minsys/ESP_3V3*%
X126100000Y-91510000D03*
%TO.P,R9,2*%
%TO.N,/ESP32S3_Minsys/3V3*%
X126100000Y-93335000D03*
%TD*%
D27*
%TO.P,R10,1*%
%TO.N,/ESP32S3_Minsys/CHIP_PU*%
X124347500Y-89982500D03*
%TO.P,R10,2*%
%TO.N,/ESP32S3_Minsys/ESP_3V3*%
X126172500Y-89982500D03*
%TD*%
D20*
%TO.P,JP16,1,A*%
%TO.N,/ESP32S3_Minsys/IO12*%
X110850000Y-86900000D03*
%TO.P,JP16,2,B*%
%TO.N,Net-(Coral_Dev_Board1-Pin_12)*%
X110850000Y-85700000D03*
%TD*%
D24*
%TO.P,R22,1*%
%TO.N,/ESP32S3_Minsys/SCL*%
X123940000Y-100382500D03*
%TO.P,R22,2*%
%TO.N,/ESP32S3_Minsys/3V3*%
X123940000Y-98557500D03*
%TD*%
D20*
%TO.P,JP2,1,A*%
%TO.N,/ESP32S3_Minsys/SCK*%
X112100000Y-86900000D03*
%TO.P,JP2,2,B*%
%TO.N,Net-(Coral_Dev_Board1-Pin_6)*%
X112100000Y-85700000D03*
%TD*%
%TO.P,JP15,1,A*%
%TO.N,Net-(Coral_Dev_Board1-Pin_24)*%
X95500000Y-108500000D03*
%TO.P,JP15,2,B*%
%TO.N,/ESP32S3_Minsys/5V*%
X95500000Y-107300000D03*
%TD*%
%TO.P,JP5,1,A*%
%TO.N,Net-(Coral_Dev_Board1-Pin_15)*%
X121000000Y-106500000D03*
%TO.P,JP5,2,B*%
%TO.N,/ESP32S3_Minsys/IO21*%
X121000000Y-105300000D03*
%TD*%
D28*
%TO.P,C13,1*%
%TO.N,/ESP32S3_Minsys/3V3*%
X125800000Y-96925000D03*
%TO.P,C13,2*%
%TO.N,GND*%
X125800000Y-99800000D03*
%TD*%
D20*
%TO.P,JP7,1,A*%
%TO.N,Net-(Coral_Dev_Board1-Pin_19)*%
X118490000Y-106460000D03*
%TO.P,JP7,2,B*%
%TO.N,/ESP32S3_Minsys/IO19*%
X118490000Y-105260000D03*
%TD*%
D29*
%TO.P,P2,1,DAT2*%
%TO.N,unconnected-(P2-DAT2-Pad1)*%
X81570000Y-94100000D03*
%TO.P,P2,2,SPI_CS*%
%TO.N,/ESP32S3_Minsys/SPI_CS*%
X81570000Y-95200000D03*
%TO.P,P2,3,SPI_MOSI*%
%TO.N,/ESP32S3_Minsys/SPI_MOSI*%
X81570000Y-96300000D03*
%TO.P,P2,4,VDD*%
%TO.N,/ESP32S3_Minsys/3V3*%
X81570000Y-97400000D03*
%TO.P,P2,5,SPI_CLK*%
%TO.N,/ESP32S3_Minsys/SPI_CLK*%
X81570000Y-98500000D03*
%TO.P,P2,6,GND*%
%TO.N,GND*%
X81570000Y-99600000D03*
%TO.P,P2,7,SPI_MISO*%
%TO.N,/ESP32S3_Minsys/SPI_MISO*%
X81570000Y-100700000D03*
%TO.P,P2,8,DAT1*%
%TO.N,unconnected-(P2-DAT1-Pad8)*%
X81570000Y-101800000D03*
%TO.P,P2,9,CD*%
%TO.N,unconnected-(P2-CD-Pad9)*%
X81570000Y-102900000D03*
D30*
%TO.P,P2,G1,GND*%
%TO.N,GND*%
X80970000Y-104200000D03*
D31*
%TO.P,P2,G2,GND*%
X71470000Y-104200000D03*
%TO.P,P2,G3,GND*%
X71470000Y-88500000D03*
D32*
%TO.P,P2,G4,GND*%
X81070000Y-89400000D03*
%TD*%
D23*
%TO.P,JP12,1,A*%
%TO.N,Net-(Coral_Dev_Board1-Pin_22)*%
X119600000Y-91000000D03*
%TO.P,JP12,2,B*%
%TO.N,/ESP32S3_Minsys/SVN*%
X120800000Y-91000000D03*
%TD*%
D33*
%TO.P,C19,1*%
%TO.N,GND*%
X124540000Y-93285000D03*
%TO.P,C19,2*%
%TO.N,/ESP32S3_Minsys/CHIP_PU*%
X124540000Y-91560000D03*
%TD*%
D23*
%TO.P,JP1,1,A*%
%TO.N,/ESP32S3_Minsys/CS*%
X110050000Y-91650000D03*
%TO.P,JP1,2,B*%
%TO.N,Net-(Coral_Dev_Board1-Pin_5)*%
X111250000Y-91650000D03*
%TD*%
D12*
%TO.P,S3,1*%
%TO.N,GND*%
X87250000Y-83500000D03*
D13*
%TO.P,S3,2*%
%TO.N,/ESP32S3_Minsys/IO27*%
X91750000Y-83500000D03*
D14*
%TO.P,S3,SH1*%
%TO.N,N/C*%
X86000000Y-86000000D03*
%TO.P,S3,SH2*%
X93000000Y-86000000D03*
%TD*%
D34*
%TO.N,GND*%
X76650000Y-81650000D03*
X99700000Y-104300000D03*
X74600000Y-108850000D03*
X105050000Y-83350000D03*
X73900000Y-108850000D03*
X126200000Y-99350000D03*
X69200000Y-90400000D03*
X68350000Y-97200000D03*
X72150000Y-104150000D03*
X75300000Y-109600000D03*
X93800000Y-81700000D03*
X75300000Y-110350000D03*
X126200000Y-100750000D03*
X75300000Y-108850000D03*
X116550000Y-93300000D03*
X125750000Y-107950000D03*
X125350000Y-84200000D03*
X105750000Y-83350000D03*
X69100000Y-97200000D03*
X112150000Y-96000000D03*
X116050000Y-83700000D03*
X115850000Y-93300000D03*
X75950000Y-81650000D03*
X69200000Y-91100000D03*
X71450000Y-104150000D03*
X126050000Y-84950000D03*
X69100000Y-103450000D03*
X74600000Y-109600000D03*
X73900000Y-110350000D03*
X72150000Y-104900000D03*
X112900000Y-96000000D03*
X70750000Y-88850000D03*
X68450000Y-90400000D03*
X112150000Y-97400000D03*
X73900000Y-109600000D03*
X124350000Y-107200000D03*
X124525000Y-93100000D03*
X72150000Y-88100000D03*
X124150000Y-95025000D03*
X75300000Y-108100000D03*
X68350000Y-102750000D03*
X70750000Y-88100000D03*
X80950000Y-81550000D03*
X70750000Y-104900000D03*
X89050000Y-81700000D03*
X72150000Y-88850000D03*
X106000000Y-87250000D03*
X100400000Y-104300000D03*
X120600000Y-99050000D03*
X105300000Y-87250000D03*
X124650000Y-84200000D03*
X93100000Y-81700000D03*
X70750000Y-104150000D03*
X68350000Y-103450000D03*
X124525000Y-94475000D03*
X116750000Y-83700000D03*
X124525000Y-93775000D03*
X120600000Y-97650000D03*
X100400000Y-103550000D03*
X112900000Y-97400000D03*
X69100000Y-102050000D03*
X68350000Y-96500000D03*
X69100000Y-96500000D03*
X125050000Y-107200000D03*
X68450000Y-91100000D03*
X75250000Y-81650000D03*
X71450000Y-88850000D03*
X117450000Y-83700000D03*
X69100000Y-95800000D03*
X74600000Y-110350000D03*
X99700000Y-103550000D03*
X90450000Y-81700000D03*
X69100000Y-102750000D03*
X68450000Y-91800000D03*
X106700000Y-87250000D03*
X74600000Y-108100000D03*
X126050000Y-84200000D03*
X68350000Y-95800000D03*
X125750000Y-107200000D03*
X125050000Y-107950000D03*
X112150000Y-96700000D03*
X120600000Y-98350000D03*
X69200000Y-91800000D03*
X125350000Y-84950000D03*
X73900000Y-108100000D03*
X81650000Y-81550000D03*
X112900000Y-96700000D03*
X124350000Y-107950000D03*
X124650000Y-84950000D03*
X71450000Y-104900000D03*
X89750000Y-81700000D03*
X92400000Y-81700000D03*
X126200000Y-100050000D03*
X82350000Y-81550000D03*
X68350000Y-102050000D03*
X71450000Y-88100000D03*
%TO.N,/ESP32S3_Minsys/5V*%
X94950000Y-107300000D03*
X95500000Y-107300000D03*
X96600000Y-107300000D03*
X94400000Y-107300000D03*
X96050000Y-107300000D03*
%TO.N,/ESP32S3_Minsys/3V3*%
X85150000Y-100200000D03*
X85150000Y-103250000D03*
X100250000Y-85100000D03*
X85950000Y-102500000D03*
X85950000Y-100200000D03*
X85150000Y-102500000D03*
X91500000Y-90400000D03*
X126075000Y-93250000D03*
X126075000Y-94700000D03*
X126075000Y-93975000D03*
X126050000Y-96150000D03*
X100250000Y-84200000D03*
X89750000Y-90400000D03*
X79300000Y-90350000D03*
X85950000Y-103250000D03*
X77450000Y-90350000D03*
X78400000Y-90350000D03*
X85150000Y-101750000D03*
X85150000Y-100950000D03*
X85950000Y-100950000D03*
X126050000Y-95425000D03*
X98200000Y-93300000D03*
X73200000Y-103100000D03*
X85950000Y-101750000D03*
X90650000Y-90400000D03*
X98200000Y-94200000D03*
X72750000Y-102800000D03*
X98200000Y-92300000D03*
X100250000Y-85900000D03*
%TO.N,/ESP32S3_Minsys/SPI_CS*%
X75050000Y-96750000D03*
%TO.N,/ESP32S3_Minsys/SPI_MOSI*%
X83200000Y-96100000D03*
%TO.N,/ESP32S3_Minsys/SPI_CLK*%
X79100000Y-97550000D03*
%TO.N,/ESP32S3_Minsys/SPI_MISO*%
X77390000Y-102960000D03*
%TO.N,/ESP32S3_Minsys/CHIP_PU*%
X105773500Y-96697000D03*
X124540000Y-91560000D03*
X124845000Y-87575000D03*
X112800000Y-94150000D03*
%TO.N,Net-(Coral_Dev_Board1-Pin_12)*%
X98070000Y-84760000D03*
%TO.N,/ESP32S3_Minsys/RTS*%
X107550000Y-100250000D03*
X101600000Y-98450000D03*
X99500000Y-100850000D03*
%TO.N,/ESP32S3_Minsys/DTR*%
X90250000Y-106600000D03*
X107480500Y-102524500D03*
X102400000Y-102600000D03*
%TO.N,/ESP32S3_Minsys/ESP_RXD*%
X86050000Y-105300000D03*
%TO.N,/ESP32S3_Minsys/ESP_3V3*%
X126150000Y-87700000D03*
X126150000Y-88400000D03*
X126150000Y-87000000D03*
%TO.N,Net-(Coral_Dev_Board1-Pin_16)*%
X116550000Y-97400000D03*
X115875000Y-100625000D03*
%TO.N,/ESP32S3_Minsys/SDA*%
X122410000Y-100312500D03*
%TO.N,/ESP32S3_Minsys/SCL*%
X123940000Y-100332500D03*
%TO.N,/ESP32S3_Minsys/CS*%
X71226500Y-96644200D03*
X110000000Y-91630000D03*
%TO.N,/ESP32S3_Minsys/IO0*%
X101050000Y-96100000D03*
X103728000Y-94892000D03*
X104650000Y-99600000D03*
%TO.N,/ESP32S3_Minsys/SCK*%
X112100000Y-86950000D03*
X77410000Y-93810000D03*
X96150000Y-93150000D03*
X93240000Y-93160000D03*
%TO.N,/ESP32S3_Minsys/MOSI*%
X75849000Y-93781700D03*
X110000000Y-100510000D03*
%TO.N,Net-(Coral_Dev_Board1-Pin_5)*%
X116850000Y-91600000D03*
X111250000Y-91650000D03*
%TO.N,Net-(Coral_Dev_Board1-Pin_6)*%
X108200000Y-83875500D03*
%TO.N,Net-(Coral_Dev_Board1-Pin_7)*%
X114600000Y-100500000D03*
X111250000Y-100550000D03*
%TO.N,Net-(Coral_Dev_Board1-Pin_10)*%
X107050000Y-83950000D03*
X121050000Y-85650000D03*
%TO.N,Net-(Coral_Dev_Board1-Pin_11)*%
X106950000Y-85075500D03*
X119760000Y-85670000D03*
%TO.N,Net-(Coral_Dev_Board1-Pin_20)*%
X113400000Y-106500000D03*
%TO.N,Net-(Coral_Dev_Board1-Pin_21)*%
X106600000Y-107400000D03*
X108350000Y-104850000D03*
%TO.N,Net-(Coral_Dev_Board1-Pin_22)*%
X117100000Y-96350000D03*
X109000000Y-102950000D03*
X104150000Y-107600000D03*
X107100000Y-104750000D03*
%TO.N,Net-(Coral_Dev_Board1-Pin_23)*%
X111950000Y-106550000D03*
%TO.N,/ESP32S3_Minsys/MISO*%
X110000000Y-101800000D03*
X71237500Y-99150000D03*
%TO.N,/ESP32S3_Minsys/SVN*%
X120800000Y-91000000D03*
%TO.N,/ESP32S3_Minsys/IO21*%
X121050000Y-105250000D03*
%TO.N,/ESP32S3_Minsys/IO19*%
X118490000Y-105260000D03*
%TO.N,/ESP32S3_Minsys/IO16*%
X113400000Y-105250000D03*
%TO.N,/ESP32S3_Minsys/IO27*%
X113400000Y-87750000D03*
X96410000Y-88110000D03*
%TO.N,/ESP32S3_Minsys/IO4*%
X112150000Y-105250000D03*
%TO.N,/ESP32S3_Minsys/IO12*%
X110850000Y-86950000D03*
%TO.N,/ESP32S3_Minsys/IO32*%
X118470000Y-87750000D03*
%TO.N,/ESP32S3_Minsys/IO33*%
X112900000Y-91050000D03*
X77450000Y-88637500D03*
%TO.N,/ESP32S3_Minsys/IO25*%
X83830000Y-88370000D03*
X113700000Y-90200000D03*
%TO.N,/ESP32S3_Minsys/IO26*%
X89825000Y-87760000D03*
X109700000Y-88900000D03*
%TO.N,/ESP32S3_Minsys/IO17*%
X114650000Y-104450000D03*
%TO.N,Net-(IC1-RXD0)*%
X117400000Y-107050000D03*
X101662500Y-105750000D03*
%TO.N,/ESP32S3_Minsys/IO34*%
X121050000Y-86950000D03*
%TO.N,/ESP32S3_Minsys/IO35*%
X119750000Y-86950000D03*
%TO.N,Net-(IC1-TXD0)*%
X118100000Y-107800000D03*
X101662500Y-107350000D03*
%TD*%
D35*
%TO.N,Net-(Coral_Dev_Board1-Pin_3)*%
X122000000Y-84050000D02*
X122700000Y-84750000D01*
X120350000Y-84050000D02*
X122000000Y-84050000D01*
X123040000Y-96140000D02*
X123040000Y-96960000D01*
X122700000Y-95800000D02*
X123040000Y-96140000D01*
X119550000Y-82060000D02*
X119550000Y-83250000D01*
X122700000Y-84750000D02*
X122700000Y-95800000D01*
X119550000Y-83250000D02*
X120350000Y-84050000D01*
%TO.N,GND*%
X124540000Y-94710000D02*
X124317500Y-94932500D01*
X124540000Y-93285000D02*
X124540000Y-94710000D01*
%TO.N,/ESP32S3_Minsys/5V*%
X95500000Y-107300000D02*
X96550000Y-107300000D01*
X95500000Y-107300000D02*
X94400000Y-107300000D01*
D36*
%TO.N,/ESP32S3_Minsys/3V3*%
X121850000Y-98027500D02*
X122410000Y-98587500D01*
D37*
X126100000Y-94875000D02*
X126042500Y-94932500D01*
X123920000Y-98587500D02*
X123940000Y-98607500D01*
D35*
X124240000Y-96960000D02*
X124240000Y-98307500D01*
D36*
X120100000Y-96600000D02*
X121350000Y-96600000D01*
D35*
X125765000Y-96960000D02*
X125800000Y-96925000D01*
X124240000Y-98307500D02*
X123940000Y-98607500D01*
D37*
X126042500Y-94932500D02*
X126042500Y-96682500D01*
D36*
X84350000Y-97400000D02*
X85950000Y-99000000D01*
D37*
X126100000Y-93285000D02*
X126100000Y-94875000D01*
X126042500Y-96682500D02*
X125800000Y-96925000D01*
D36*
X121350000Y-96600000D02*
X121850000Y-97100000D01*
X121850000Y-97100000D02*
X121850000Y-98027500D01*
D37*
X122410000Y-98587500D02*
X123920000Y-98587500D01*
D36*
X85950000Y-99000000D02*
X85950000Y-100200000D01*
X81570000Y-97400000D02*
X84350000Y-97400000D01*
D35*
X124240000Y-96960000D02*
X125765000Y-96960000D01*
D38*
%TO.N,/ESP32S3_Minsys/SPI_CS*%
X75050000Y-96750000D02*
X76300000Y-95500000D01*
X76300000Y-95500000D02*
X79050000Y-95500000D01*
X79350000Y-95200000D02*
X81570000Y-95200000D01*
X79050000Y-95500000D02*
X79350000Y-95200000D01*
%TO.N,/ESP32S3_Minsys/SPI_MOSI*%
X83000000Y-96300000D02*
X81570000Y-96300000D01*
X83200000Y-96100000D02*
X83000000Y-96300000D01*
%TO.N,/ESP32S3_Minsys/SPI_CLK*%
X79550000Y-98500000D02*
X79100000Y-98050000D01*
X79100000Y-98050000D02*
X79100000Y-97550000D01*
X81570000Y-98500000D02*
X79550000Y-98500000D01*
%TO.N,/ESP32S3_Minsys/SPI_MISO*%
X77700000Y-102960000D02*
X77390000Y-102960000D01*
X79960000Y-100700000D02*
X77700000Y-102960000D01*
X81570000Y-100700000D02*
X79960000Y-100700000D01*
%TO.N,/ESP32S3_Minsys/CHIP_PU*%
X108320500Y-94150000D02*
X105773500Y-96697000D01*
D36*
X124397500Y-89982500D02*
X124397500Y-91417500D01*
X124397500Y-91417500D02*
X124540000Y-91560000D01*
X124397500Y-89982500D02*
X124397500Y-89402500D01*
D38*
X112800000Y-94150000D02*
X108320500Y-94150000D01*
D36*
X124800000Y-89000000D02*
X124800000Y-87620000D01*
X124800000Y-87620000D02*
X124845000Y-87575000D01*
X124397500Y-89402500D02*
X124800000Y-89000000D01*
D38*
%TO.N,Net-(Coral_Dev_Board1-Pin_12)*%
X100100000Y-88100000D02*
X98070000Y-86070000D01*
X110880000Y-85660000D02*
X110190000Y-85660000D01*
X98070000Y-86070000D02*
X98070000Y-84760000D01*
X110190000Y-85660000D02*
X107750000Y-88100000D01*
X107750000Y-88100000D02*
X100100000Y-88100000D01*
%TO.N,Net-(Coral_Dev_Board1-Pin_15)*%
X121050000Y-108500000D02*
X119550000Y-110000000D01*
X121050000Y-106450000D02*
X121050000Y-108500000D01*
%TO.N,/ESP32S3_Minsys/RTS*%
X89650000Y-105650000D02*
X95350000Y-105650000D01*
X99500000Y-101500000D02*
X99500000Y-100850000D01*
X107300000Y-100500000D02*
X107550000Y-100250000D01*
X95350000Y-105650000D02*
X99500000Y-101500000D01*
X103650000Y-100500000D02*
X107300000Y-100500000D01*
X101600000Y-98450000D02*
X103650000Y-100500000D01*
X89200000Y-107900000D02*
X89200000Y-106100000D01*
X89200000Y-106100000D02*
X89650000Y-105650000D01*
%TO.N,/ESP32S3_Minsys/DTR*%
X95650000Y-106300000D02*
X99350000Y-102600000D01*
X99350000Y-102600000D02*
X102400000Y-102600000D01*
X90250000Y-106600000D02*
X90550000Y-106300000D01*
X107405000Y-102600000D02*
X102400000Y-102600000D01*
X107480500Y-102524500D02*
X107405000Y-102600000D01*
X90550000Y-106300000D02*
X95650000Y-106300000D01*
%TO.N,/ESP32S3_Minsys/ESP_RXD*%
X84200000Y-106200000D02*
X85100000Y-105300000D01*
X84200000Y-107900000D02*
X84200000Y-106200000D01*
X85100000Y-105300000D02*
X86050000Y-105300000D01*
D37*
%TO.N,/ESP32S3_Minsys/ESP_3V3*%
X126122500Y-87027500D02*
X126150000Y-87000000D01*
X126122500Y-89982500D02*
X126122500Y-91537500D01*
X126122500Y-89982500D02*
X126122500Y-87027500D01*
D38*
%TO.N,Net-(Coral_Dev_Board1-Pin_16)*%
X117175000Y-100625000D02*
X119800000Y-103250000D01*
X115875000Y-100625000D02*
X117175000Y-100625000D01*
X117900000Y-90050000D02*
X118490000Y-89460000D01*
X119800000Y-103250000D02*
X119800000Y-108050000D01*
X117850000Y-110000000D02*
X117010000Y-110000000D01*
X118490000Y-89000000D02*
X118490000Y-89460000D01*
X116200000Y-97050000D02*
X116200000Y-95600000D01*
X116550000Y-97400000D02*
X116200000Y-97050000D01*
X119800000Y-108050000D02*
X117850000Y-110000000D01*
X117900000Y-93900000D02*
X117900000Y-90050000D01*
X116200000Y-95600000D02*
X117900000Y-93900000D01*
D35*
%TO.N,Net-(Coral_Dev_Board1-Pin_24)*%
X95500000Y-108810000D02*
X96690000Y-110000000D01*
X95500000Y-108500000D02*
X95500000Y-108810000D01*
D38*
%TO.N,/ESP32S3_Minsys/SDA*%
X122047500Y-99950000D02*
X122410000Y-100312500D01*
X118550000Y-98550000D02*
X119950000Y-99950000D01*
X119950000Y-99950000D02*
X122047500Y-99950000D01*
X118950000Y-95600000D02*
X118550000Y-96000000D01*
X120100000Y-95600000D02*
X118950000Y-95600000D01*
X118550000Y-96000000D02*
X118550000Y-98550000D01*
%TO.N,/ESP32S3_Minsys/SCL*%
X120100000Y-94600000D02*
X119050000Y-94600000D01*
X117950000Y-95700000D02*
X117950000Y-98850000D01*
X123940000Y-101110000D02*
X123940000Y-100332500D01*
X117950000Y-98850000D02*
X120650000Y-101550000D01*
X123500000Y-101550000D02*
X123940000Y-101110000D01*
X120650000Y-101550000D02*
X123500000Y-101550000D01*
X119050000Y-94600000D02*
X117950000Y-95700000D01*
%TO.N,/ESP32S3_Minsys/CS*%
X109870000Y-91500000D02*
X110000000Y-91630000D01*
X71226500Y-95923500D02*
X71226500Y-96644200D01*
X75650000Y-91500000D02*
X109870000Y-91500000D01*
X75650000Y-91500000D02*
X71226500Y-95923500D01*
%TO.N,/ESP32S3_Minsys/IO0*%
X103728000Y-96100000D02*
X103728000Y-94892000D01*
X101050000Y-96100000D02*
X103728000Y-96100000D01*
X104550000Y-99600000D02*
X103728000Y-98778000D01*
X103728000Y-98778000D02*
X103728000Y-96100000D01*
X104650000Y-99600000D02*
X104550000Y-99600000D01*
%TO.N,/ESP32S3_Minsys/SCK*%
X96150000Y-93150000D02*
X96150000Y-93175305D01*
X113940000Y-86840000D02*
X112150000Y-86840000D01*
X77410000Y-93290000D02*
X77410000Y-93810000D01*
X114950000Y-87850000D02*
X113940000Y-86840000D01*
X114950000Y-90350000D02*
X114950000Y-87850000D01*
X96150000Y-93175305D02*
X97899695Y-94925000D01*
X104575305Y-92600000D02*
X112700000Y-92600000D01*
X97899695Y-94925000D02*
X102250305Y-94925000D01*
X93240000Y-93160000D02*
X92770000Y-92690000D01*
X78010000Y-92690000D02*
X77410000Y-93290000D01*
X112700000Y-92600000D02*
X114950000Y-90350000D01*
X92770000Y-92690000D02*
X78010000Y-92690000D01*
X102250305Y-94925000D02*
X104575305Y-92600000D01*
%TO.N,/ESP32S3_Minsys/MOSI*%
X75849000Y-93221000D02*
X76950000Y-92120000D01*
X102710000Y-101100000D02*
X108300000Y-101100000D01*
X93730000Y-92120000D02*
X102710000Y-101100000D01*
X76950000Y-92120000D02*
X93730000Y-92120000D01*
X108300000Y-101100000D02*
X108890000Y-100510000D01*
X108890000Y-100510000D02*
X110000000Y-100510000D01*
X75849000Y-93781700D02*
X75849000Y-93221000D01*
%TO.N,Net-(Coral_Dev_Board1-Pin_5)*%
X114470000Y-82060000D02*
X114470000Y-84170000D01*
X114470000Y-84170000D02*
X117200000Y-86900000D01*
X117200000Y-86900000D02*
X117200000Y-91250000D01*
X117200000Y-91250000D02*
X116850000Y-91600000D01*
%TO.N,Net-(Coral_Dev_Board1-Pin_6)*%
X108200000Y-83900000D02*
X108200000Y-83875500D01*
X112150000Y-85050000D02*
X111850000Y-84750000D01*
X111850000Y-84750000D02*
X109050000Y-84750000D01*
X109050000Y-84750000D02*
X108200000Y-83900000D01*
X112150000Y-85640000D02*
X112150000Y-85050000D01*
%TO.N,Net-(Coral_Dev_Board1-Pin_7)*%
X109390000Y-82060000D02*
X109390000Y-82790000D01*
X116550000Y-87300000D02*
X116550000Y-90600000D01*
X110100000Y-83500000D02*
X112750000Y-83500000D01*
X112750000Y-83500000D02*
X116550000Y-87300000D01*
X114400000Y-92750000D02*
X114400000Y-100300000D01*
X114400000Y-100300000D02*
X114600000Y-100500000D01*
X116550000Y-90600000D02*
X114400000Y-92750000D01*
X109390000Y-82790000D02*
X110100000Y-83500000D01*
%TO.N,Net-(Coral_Dev_Board1-Pin_8)*%
X107560000Y-82060000D02*
X109550000Y-84050000D01*
X111975000Y-101800000D02*
X111250000Y-101800000D01*
X113800000Y-92450000D02*
X113800000Y-99975000D01*
X115900000Y-87650000D02*
X115900000Y-90350000D01*
X115900000Y-90350000D02*
X113800000Y-92450000D01*
X113800000Y-99975000D02*
X111975000Y-101800000D01*
X109550000Y-84050000D02*
X112300000Y-84050000D01*
X106850000Y-82060000D02*
X107560000Y-82060000D01*
X112300000Y-84050000D02*
X115900000Y-87650000D01*
%TO.N,Net-(Coral_Dev_Board1-Pin_10)*%
X107050000Y-83950000D02*
X106650000Y-83950000D01*
X101770000Y-83170000D02*
X101770000Y-82060000D01*
X106200000Y-84400000D02*
X103000000Y-84400000D01*
X103000000Y-84400000D02*
X101770000Y-83170000D01*
X106650000Y-83950000D02*
X106200000Y-84400000D01*
X121030000Y-85670000D02*
X121050000Y-85650000D01*
%TO.N,Net-(Coral_Dev_Board1-Pin_11)*%
X106950000Y-85075500D02*
X106725500Y-85300000D01*
X99760000Y-82060000D02*
X99230000Y-82060000D01*
X103000000Y-85300000D02*
X99760000Y-82060000D01*
X106725500Y-85300000D02*
X103000000Y-85300000D01*
%TO.N,Net-(Coral_Dev_Board1-Pin_19)*%
X109390000Y-109660000D02*
X109390000Y-110000000D01*
X118490000Y-106460000D02*
X119150000Y-107120000D01*
X118400000Y-108600000D02*
X110450000Y-108600000D01*
X119150000Y-107850000D02*
X118400000Y-108600000D01*
X110450000Y-108600000D02*
X109390000Y-109660000D01*
X119150000Y-107120000D02*
X119150000Y-107850000D01*
%TO.N,Net-(Coral_Dev_Board1-Pin_20)*%
X113400000Y-106450000D02*
X113400000Y-106500000D01*
%TO.N,Net-(Coral_Dev_Board1-Pin_21)*%
X104310000Y-108840000D02*
X105750000Y-107400000D01*
X105750000Y-107400000D02*
X106600000Y-107400000D01*
X112600000Y-104050000D02*
X109150000Y-104050000D01*
X112600000Y-104050000D02*
X113450000Y-103200000D01*
X104310000Y-110000000D02*
X104310000Y-108840000D01*
X109150000Y-104050000D02*
X108350000Y-104850000D01*
X113450000Y-103200000D02*
X114650000Y-103200000D01*
%TO.N,Net-(Coral_Dev_Board1-Pin_22)*%
X101770000Y-110000000D02*
X104150000Y-107620000D01*
X118500000Y-92100000D02*
X119600000Y-91000000D01*
X117100000Y-96350000D02*
X117100000Y-95650000D01*
X107100000Y-104550000D02*
X107100000Y-104750000D01*
X109000000Y-102950000D02*
X108700000Y-102950000D01*
X104150000Y-107620000D02*
X104150000Y-107600000D01*
X107100000Y-104550000D02*
X108700000Y-102950000D01*
X117100000Y-95650000D02*
X118500000Y-94250000D01*
X118500000Y-94250000D02*
X118500000Y-92100000D01*
%TO.N,Net-(Coral_Dev_Board1-Pin_23)*%
X112150000Y-106450000D02*
X112050000Y-106450000D01*
X112050000Y-106450000D02*
X111950000Y-106550000D01*
%TO.N,/ESP32S3_Minsys/MISO*%
X71237500Y-99150000D02*
X71237500Y-98712500D01*
X79850000Y-93300000D02*
X92050000Y-93300000D01*
X74510000Y-94700000D02*
X78450000Y-94700000D01*
X92050000Y-93300000D02*
X92850000Y-94100000D01*
X73080000Y-96870000D02*
X73080000Y-96130000D01*
X94860000Y-94100000D02*
X102410000Y-101650000D01*
X71237500Y-98712500D02*
X73080000Y-96870000D01*
X102410000Y-101650000D02*
X109850000Y-101650000D01*
X78450000Y-94700000D02*
X79850000Y-93300000D01*
X109850000Y-101650000D02*
X110000000Y-101800000D01*
X92850000Y-94100000D02*
X94860000Y-94100000D01*
X73080000Y-96130000D02*
X74510000Y-94700000D01*
%TO.N,/ESP32S3_Minsys/IO27*%
X96990000Y-88690000D02*
X97470000Y-88690000D01*
X108120000Y-88680000D02*
X108800000Y-88000000D01*
X96410000Y-88110000D02*
X96990000Y-88690000D01*
X113150000Y-88000000D02*
X113400000Y-87750000D01*
X97480000Y-88680000D02*
X108120000Y-88680000D01*
X97470000Y-88690000D02*
X97480000Y-88680000D01*
X108800000Y-88000000D02*
X112850000Y-88000000D01*
X112850000Y-88000000D02*
X113150000Y-88000000D01*
%TO.N,/ESP32S3_Minsys/IO33*%
X112380000Y-90530000D02*
X95260000Y-90530000D01*
X112900000Y-91050000D02*
X112380000Y-90530000D01*
X79790000Y-87810000D02*
X78962500Y-88637500D01*
X94130000Y-89400000D02*
X83540000Y-89400000D01*
X95260000Y-90530000D02*
X94130000Y-89400000D01*
X83540000Y-89400000D02*
X81950000Y-87810000D01*
X81950000Y-87810000D02*
X79790000Y-87810000D01*
X78962500Y-88637500D02*
X77450000Y-88637500D01*
%TO.N,/ESP32S3_Minsys/IO25*%
X94490000Y-88820000D02*
X84280000Y-88820000D01*
X113700000Y-90200000D02*
X113470000Y-89970000D01*
X95640000Y-89970000D02*
X94490000Y-88820000D01*
X113470000Y-89970000D02*
X95640000Y-89970000D01*
X84280000Y-88820000D02*
X83830000Y-88370000D01*
%TO.N,/ESP32S3_Minsys/IO26*%
X109280000Y-89320000D02*
X95990000Y-89320000D01*
X109700000Y-88900000D02*
X109280000Y-89320000D01*
X90290000Y-87760000D02*
X89825000Y-87760000D01*
X94910000Y-88240000D02*
X90770000Y-88240000D01*
X95990000Y-89320000D02*
X94910000Y-88240000D01*
X90770000Y-88240000D02*
X90290000Y-87760000D01*
%TO.N,Net-(IC1-RXD0)*%
X109250000Y-105750000D02*
X101662500Y-105750000D01*
X110950000Y-107450000D02*
X109250000Y-105750000D01*
X117400000Y-107050000D02*
X117000000Y-107450000D01*
X117000000Y-107450000D02*
X110950000Y-107450000D01*
%TO.N,Net-(IC1-TXD0)*%
X108950000Y-106400000D02*
X102612500Y-106400000D01*
X118100000Y-107800000D02*
X117850000Y-108050000D01*
X102612500Y-106400000D02*
X101662500Y-107350000D01*
X110600000Y-108050000D02*
X108950000Y-106400000D01*
X117850000Y-108050000D02*
X110600000Y-108050000D01*
%TD*%
%TA.AperFunction,Conductor*%
%TO.N,GND*%
G36*
X95959640Y-81075185D02*
G01*
X96005395Y-81127989D01*
X96015339Y-81197147D01*
X95986314Y-81260703D01*
X95971266Y-81275353D01*
X95935063Y-81305063D01*
X95802291Y-81466846D01*
X95703629Y-81651428D01*
X95642872Y-81851715D01*
X95622359Y-82060000D01*
X95642872Y-82268284D01*
X95673250Y-82368427D01*
X95703628Y-82468569D01*
X95784021Y-82618974D01*
X95802291Y-82653153D01*
X95935063Y-82814936D01*
X96096846Y-82947708D01*
X96096850Y-82947711D01*
X96281431Y-83046372D01*
X96481714Y-83107127D01*
X96690000Y-83127641D01*
X96898286Y-83107127D01*
X97098569Y-83046372D01*
X97283150Y-82947711D01*
X97444936Y-82814936D01*
X97577711Y-82653150D01*
X97676372Y-82468569D01*
X97737127Y-82268286D01*
X97757641Y-82060000D01*
X97737127Y-81851714D01*
X97676372Y-81651431D01*
X97577711Y-81466850D01*
X97567171Y-81454007D01*
X97444936Y-81305063D01*
X97408734Y-81275353D01*
X97369400Y-81217607D01*
X97367529Y-81147763D01*
X97403717Y-81087994D01*
X97466473Y-81057279D01*
X97487399Y-81055500D01*
X98432601Y-81055500D01*
X98499640Y-81075185D01*
X98545395Y-81127989D01*
X98555339Y-81197147D01*
X98526314Y-81260703D01*
X98511266Y-81275353D01*
X98475063Y-81305063D01*
X98342291Y-81466846D01*
X98243629Y-81651428D01*
X98182872Y-81851715D01*
X98162359Y-82060000D01*
X98182872Y-82268284D01*
X98213250Y-82368427D01*
X98243628Y-82468569D01*
X98324021Y-82618974D01*
X98342291Y-82653153D01*
X98475063Y-82814936D01*
X98636846Y-82947708D01*
X98636850Y-82947711D01*
X98821431Y-83046372D01*
X99021714Y-83107127D01*
X99230000Y-83127641D01*
X99438286Y-83107127D01*
X99638569Y-83046372D01*
X99823150Y-82947711D01*
X99858653Y-82918573D01*
X99922959Y-82891261D01*
X99991827Y-82903051D01*
X100024998Y-82926746D01*
X100437716Y-83339464D01*
X100471201Y-83400787D01*
X100466217Y-83470479D01*
X100424345Y-83526412D01*
X100358881Y-83550829D01*
X100335091Y-83550241D01*
X100328987Y-83549500D01*
X100328985Y-83549500D01*
X100171015Y-83549500D01*
X100171014Y-83549500D01*
X100017634Y-83587303D01*
X99877762Y-83660715D01*
X99877759Y-83660717D01*
X99877760Y-83660717D01*
X99763869Y-83761615D01*
X99759516Y-83765471D01*
X99669781Y-83895475D01*
X99669780Y-83895476D01*
X99613762Y-84043181D01*
X99594722Y-84199999D01*
X99594722Y-84200000D01*
X99613762Y-84356818D01*
X99663588Y-84488196D01*
X99669780Y-84504523D01*
X99694315Y-84540068D01*
X99721574Y-84579560D01*
X99743457Y-84645915D01*
X99725991Y-84713566D01*
X99721574Y-84720440D01*
X99669781Y-84795475D01*
X99669780Y-84795476D01*
X99613762Y-84943181D01*
X99594722Y-85099999D01*
X99594722Y-85100000D01*
X99613762Y-85256818D01*
X99669780Y-85404523D01*
X99669782Y-85404527D01*
X99687062Y-85429562D01*
X99708944Y-85495916D01*
X99691478Y-85563568D01*
X99687062Y-85570438D01*
X99669782Y-85595472D01*
X99669780Y-85595476D01*
X99613762Y-85743181D01*
X99594722Y-85899999D01*
X99594722Y-85900000D01*
X99613762Y-86056818D01*
X99657736Y-86172765D01*
X99669780Y-86204523D01*
X99759517Y-86334530D01*
X99877760Y-86439283D01*
X99877762Y-86439284D01*
X100017634Y-86512696D01*
X100171014Y-86550500D01*
X100171015Y-86550500D01*
X100328985Y-86550500D01*
X100482365Y-86512696D01*
X100506538Y-86500009D01*
X100622240Y-86439283D01*
X100740483Y-86334530D01*
X100830220Y-86204523D01*
X100886237Y-86056818D01*
X100905278Y-85900000D01*
X100886237Y-85743182D01*
X100879486Y-85725382D01*
X100854496Y-85659487D01*
X100830220Y-85595477D01*
X100812937Y-85570438D01*
X100791055Y-85504086D01*
X100808520Y-85436435D01*
X100812925Y-85429577D01*
X100830220Y-85404523D01*
X100886237Y-85256818D01*
X100905278Y-85100000D01*
X100901929Y-85072414D01*
X100886237Y-84943181D01*
X100835621Y-84809719D01*
X100830220Y-84795477D01*
X100778423Y-84720436D01*
X100756542Y-84654086D01*
X100774007Y-84586435D01*
X100778403Y-84579592D01*
X100830220Y-84504523D01*
X100886237Y-84356818D01*
X100905278Y-84200000D01*
X100894281Y-84109432D01*
X100905741Y-84040510D01*
X100952645Y-83988724D01*
X101020101Y-83970517D01*
X101086692Y-83991669D01*
X101105058Y-84006805D01*
X102651472Y-85553220D01*
X102746780Y-85648528D01*
X102768299Y-85659492D01*
X102784878Y-85669651D01*
X102804419Y-85683849D01*
X102827381Y-85691309D01*
X102845354Y-85698753D01*
X102866874Y-85709719D01*
X102890724Y-85713495D01*
X102909645Y-85718039D01*
X102927908Y-85723973D01*
X102932607Y-85725500D01*
X102932608Y-85725500D01*
X106792893Y-85725500D01*
X106802533Y-85723973D01*
X106802756Y-85725382D01*
X106860069Y-85723302D01*
X106871015Y-85726000D01*
X106871016Y-85726000D01*
X107028985Y-85726000D01*
X107182365Y-85688196D01*
X107190647Y-85683849D01*
X107322240Y-85614783D01*
X107440483Y-85510030D01*
X107530220Y-85380023D01*
X107586237Y-85232318D01*
X107605278Y-85075500D01*
X107604904Y-85072415D01*
X107586237Y-84918681D01*
X107544967Y-84809862D01*
X107530220Y-84770977D01*
X107440483Y-84640970D01*
X107440481Y-84640967D01*
X107439393Y-84639739D01*
X107438880Y-84638648D01*
X107436222Y-84634797D01*
X107436862Y-84634354D01*
X107409675Y-84576504D01*
X107418863Y-84507241D01*
X107449985Y-84464702D01*
X107540483Y-84384530D01*
X107557025Y-84360563D01*
X107611307Y-84316574D01*
X107680755Y-84308914D01*
X107741300Y-84338187D01*
X107793611Y-84384530D01*
X107827762Y-84414785D01*
X107967634Y-84488196D01*
X108121014Y-84526000D01*
X108121015Y-84526000D01*
X108172890Y-84526000D01*
X108239929Y-84545685D01*
X108260571Y-84562319D01*
X108701472Y-85003220D01*
X108796780Y-85098528D01*
X108818294Y-85109490D01*
X108834884Y-85119656D01*
X108854420Y-85133850D01*
X108877383Y-85141311D01*
X108895359Y-85148756D01*
X108916874Y-85159719D01*
X108940728Y-85163496D01*
X108959639Y-85168036D01*
X108982607Y-85175500D01*
X109016512Y-85175500D01*
X109773390Y-85175500D01*
X109840429Y-85195185D01*
X109886184Y-85247989D01*
X109896128Y-85317147D01*
X109867103Y-85380703D01*
X109861081Y-85387170D01*
X109854803Y-85393448D01*
X109848539Y-85399712D01*
X109848538Y-85399713D01*
X109841470Y-85406780D01*
X109841470Y-85406781D01*
X108710740Y-86537512D01*
X107610071Y-87638181D01*
X107548748Y-87671666D01*
X107522390Y-87674500D01*
X100327610Y-87674500D01*
X100260571Y-87654815D01*
X100239929Y-87638181D01*
X98531819Y-85930071D01*
X98498334Y-85868748D01*
X98495500Y-85842390D01*
X98495500Y-85307907D01*
X98515185Y-85240868D01*
X98537270Y-85215094D01*
X98560483Y-85194530D01*
X98650220Y-85064523D01*
X98706237Y-84916818D01*
X98725278Y-84760000D01*
X98722260Y-84735140D01*
X98706237Y-84603181D01*
X98668821Y-84504524D01*
X98650220Y-84455477D01*
X98560483Y-84325470D01*
X98442240Y-84220717D01*
X98442238Y-84220716D01*
X98442237Y-84220715D01*
X98302365Y-84147303D01*
X98148986Y-84109500D01*
X98148985Y-84109500D01*
X97991015Y-84109500D01*
X97991014Y-84109500D01*
X97837634Y-84147303D01*
X97697762Y-84220715D01*
X97579516Y-84325471D01*
X97489781Y-84455475D01*
X97489780Y-84455476D01*
X97433762Y-84603181D01*
X97414722Y-84759999D01*
X97414722Y-84760000D01*
X97433762Y-84916818D01*
X97468065Y-85007265D01*
X97489780Y-85064523D01*
X97503577Y-85084511D01*
X97579515Y-85194528D01*
X97579516Y-85194529D01*
X97579517Y-85194530D01*
X97602727Y-85215092D01*
X97639853Y-85274279D01*
X97644500Y-85307907D01*
X97644500Y-86137394D01*
X97651962Y-86160358D01*
X97656503Y-86179273D01*
X97656986Y-86182319D01*
X97660281Y-86203127D01*
X97671243Y-86224641D01*
X97678688Y-86242615D01*
X97681805Y-86252206D01*
X97686151Y-86265581D01*
X97691435Y-86272853D01*
X97700341Y-86285111D01*
X97710508Y-86301703D01*
X97721469Y-86323216D01*
X97721471Y-86323219D01*
X97721472Y-86323220D01*
X97745446Y-86347193D01*
X97745446Y-86347194D01*
X98586546Y-87188294D01*
X99441071Y-88042819D01*
X99474556Y-88104142D01*
X99469572Y-88173834D01*
X99427700Y-88229767D01*
X99362236Y-88254184D01*
X99353390Y-88254500D01*
X97412605Y-88254500D01*
X97400509Y-88258431D01*
X97362190Y-88264500D01*
X97217610Y-88264500D01*
X97150571Y-88244815D01*
X97129929Y-88228181D01*
X97101597Y-88199849D01*
X97068112Y-88138526D01*
X97065278Y-88112168D01*
X97065278Y-88109999D01*
X97046237Y-87953181D01*
X97024992Y-87897164D01*
X96990220Y-87805477D01*
X96900483Y-87675470D01*
X96782240Y-87570717D01*
X96782238Y-87570716D01*
X96782237Y-87570715D01*
X96642365Y-87497303D01*
X96488986Y-87459500D01*
X96488985Y-87459500D01*
X96331015Y-87459500D01*
X96331014Y-87459500D01*
X96177634Y-87497303D01*
X96037762Y-87570715D01*
X95919516Y-87675471D01*
X95829781Y-87805475D01*
X95829780Y-87805476D01*
X95773762Y-87953181D01*
X95754722Y-88109999D01*
X95754722Y-88110000D01*
X95762954Y-88177802D01*
X95751493Y-88246726D01*
X95704589Y-88298511D01*
X95637133Y-88316718D01*
X95570542Y-88295565D01*
X95552177Y-88280429D01*
X95369962Y-88098214D01*
X95187194Y-87915446D01*
X95187193Y-87915446D01*
X95163220Y-87891472D01*
X95163219Y-87891471D01*
X95163216Y-87891469D01*
X95141703Y-87880508D01*
X95125111Y-87870341D01*
X95105581Y-87856151D01*
X95105579Y-87856150D01*
X95105580Y-87856150D01*
X95082615Y-87848688D01*
X95064641Y-87841243D01*
X95043127Y-87830281D01*
X95038010Y-87829470D01*
X95019273Y-87826503D01*
X95000358Y-87821962D01*
X94977394Y-87814500D01*
X94977393Y-87814500D01*
X94943488Y-87814500D01*
X90997610Y-87814500D01*
X90930571Y-87794815D01*
X90909929Y-87778181D01*
X90732248Y-87600500D01*
X90567194Y-87435446D01*
X90567193Y-87435446D01*
X90543220Y-87411472D01*
X90543219Y-87411471D01*
X90543216Y-87411469D01*
X90521703Y-87400508D01*
X90505111Y-87390341D01*
X90485581Y-87376151D01*
X90485579Y-87376150D01*
X90485580Y-87376150D01*
X90462615Y-87368688D01*
X90444641Y-87361243D01*
X90423127Y-87350281D01*
X90418010Y-87349470D01*
X90399273Y-87346503D01*
X90380358Y-87341962D01*
X90357388Y-87334498D01*
X90354512Y-87334043D01*
X90351254Y-87332505D01*
X90348111Y-87331484D01*
X90348241Y-87331083D01*
X90291684Y-87304386D01*
X90218996Y-87239991D01*
X90197237Y-87220714D01*
X90057365Y-87147303D01*
X89903986Y-87109500D01*
X89903985Y-87109500D01*
X89746015Y-87109500D01*
X89746014Y-87109500D01*
X89592634Y-87147303D01*
X89452762Y-87220715D01*
X89334516Y-87325471D01*
X89244781Y-87455475D01*
X89244780Y-87455476D01*
X89188762Y-87603181D01*
X89169722Y-87759999D01*
X89169722Y-87760000D01*
X89188762Y-87916818D01*
X89240988Y-88054524D01*
X89244780Y-88064523D01*
X89277667Y-88112168D01*
X89338334Y-88200060D01*
X89360217Y-88266415D01*
X89342751Y-88334066D01*
X89291484Y-88381536D01*
X89236284Y-88394500D01*
X84598107Y-88394500D01*
X84531068Y-88374815D01*
X84485313Y-88322011D01*
X84475011Y-88285446D01*
X84474402Y-88280429D01*
X84466237Y-88213182D01*
X84410220Y-88065477D01*
X84320483Y-87935470D01*
X84202240Y-87830717D01*
X84202238Y-87830716D01*
X84202237Y-87830715D01*
X84062365Y-87757303D01*
X83908986Y-87719500D01*
X83908985Y-87719500D01*
X83751015Y-87719500D01*
X83751014Y-87719500D01*
X83597634Y-87757303D01*
X83457762Y-87830715D01*
X83339516Y-87935471D01*
X83249781Y-88065475D01*
X83249780Y-88065476D01*
X83196100Y-88207019D01*
X83153922Y-88262722D01*
X83088324Y-88286779D01*
X83020134Y-88271552D01*
X82992477Y-88250729D01*
X82603702Y-87861954D01*
X82227194Y-87485446D01*
X82227193Y-87485446D01*
X82203220Y-87461472D01*
X82203219Y-87461471D01*
X82203216Y-87461469D01*
X82181703Y-87450508D01*
X82165111Y-87440341D01*
X82154805Y-87432853D01*
X82145581Y-87426151D01*
X82145579Y-87426150D01*
X82145580Y-87426150D01*
X82122615Y-87418688D01*
X82104641Y-87411243D01*
X82083127Y-87400281D01*
X82078010Y-87399470D01*
X82059273Y-87396503D01*
X82040358Y-87391962D01*
X82017394Y-87384500D01*
X82017393Y-87384500D01*
X81983488Y-87384500D01*
X81758347Y-87384500D01*
X81691308Y-87364815D01*
X81645553Y-87312011D01*
X81635609Y-87242853D01*
X81664634Y-87179297D01*
X81705943Y-87148118D01*
X81722344Y-87140470D01*
X81790186Y-87108835D01*
X81973007Y-86980822D01*
X82130822Y-86823007D01*
X82248426Y-86655050D01*
X82303002Y-86611427D01*
X82372501Y-86604235D01*
X82434855Y-86635757D01*
X82451571Y-86655047D01*
X82569178Y-86823007D01*
X82726993Y-86980822D01*
X82909814Y-87108835D01*
X83112087Y-87203156D01*
X83327666Y-87260920D01*
X83490199Y-87275140D01*
X83549999Y-87280372D01*
X83550000Y-87280372D01*
X83550001Y-87280372D01*
X83609801Y-87275140D01*
X83772334Y-87260920D01*
X83987913Y-87203156D01*
X84190186Y-87108835D01*
X84373007Y-86980822D01*
X84530822Y-86823007D01*
X84658835Y-86640186D01*
X84662617Y-86632074D01*
X84708788Y-86579634D01*
X84775981Y-86560481D01*
X84842863Y-86580695D01*
X84887383Y-86632075D01*
X84891163Y-86640183D01*
X84891164Y-86640184D01*
X84891165Y-86640186D01*
X85019178Y-86823007D01*
X85176993Y-86980822D01*
X85359814Y-87108835D01*
X85562087Y-87203156D01*
X85777666Y-87260920D01*
X85940199Y-87275140D01*
X85999999Y-87280372D01*
X86000000Y-87280372D01*
X86000001Y-87280372D01*
X86059801Y-87275140D01*
X86222334Y-87260920D01*
X86437913Y-87203156D01*
X86640186Y-87108835D01*
X86823007Y-86980822D01*
X86980822Y-86823007D01*
X87098426Y-86655050D01*
X87153002Y-86611427D01*
X87222501Y-86604235D01*
X87284855Y-86635757D01*
X87301571Y-86655047D01*
X87419178Y-86823007D01*
X87576993Y-86980822D01*
X87759814Y-87108835D01*
X87962087Y-87203156D01*
X88177666Y-87260920D01*
X88340199Y-87275140D01*
X88399999Y-87280372D01*
X88400000Y-87280372D01*
X88400001Y-87280372D01*
X88459801Y-87275140D01*
X88622334Y-87260920D01*
X88837913Y-87203156D01*
X89040186Y-87108835D01*
X89223007Y-86980822D01*
X89380822Y-86823007D01*
X89508835Y-86640186D01*
X89603156Y-86437913D01*
X89660920Y-86222334D01*
X89680372Y-86000000D01*
X91719628Y-86000000D01*
X91739079Y-86222329D01*
X91739081Y-86222339D01*
X91796841Y-86437905D01*
X91796843Y-86437909D01*
X91796844Y-86437913D01*
X91891165Y-86640186D01*
X92019178Y-86823007D01*
X92176993Y-86980822D01*
X92359814Y-87108835D01*
X92562087Y-87203156D01*
X92777666Y-87260920D01*
X92940199Y-87275140D01*
X92999999Y-87280372D01*
X93000000Y-87280372D01*
X93000001Y-87280372D01*
X93059801Y-87275140D01*
X93222334Y-87260920D01*
X93437913Y-87203156D01*
X93640186Y-87108835D01*
X93823007Y-86980822D01*
X93980822Y-86823007D01*
X94098426Y-86655050D01*
X94153002Y-86611427D01*
X94222501Y-86604235D01*
X94284855Y-86635757D01*
X94301571Y-86655047D01*
X94419178Y-86823007D01*
X94576993Y-86980822D01*
X94759814Y-87108835D01*
X94962087Y-87203156D01*
X95177666Y-87260920D01*
X95340199Y-87275140D01*
X95399999Y-87280372D01*
X95400000Y-87280372D01*
X95400001Y-87280372D01*
X95459801Y-87275140D01*
X95622334Y-87260920D01*
X95837913Y-87203156D01*
X96040186Y-87108835D01*
X96223007Y-86980822D01*
X96380822Y-86823007D01*
X96508835Y-86640186D01*
X96603156Y-86437913D01*
X96660920Y-86222334D01*
X96680372Y-86000000D01*
X96660920Y-85777666D01*
X96612101Y-85595472D01*
X96603158Y-85562094D01*
X96603157Y-85562093D01*
X96603156Y-85562087D01*
X96508835Y-85359814D01*
X96380822Y-85176993D01*
X96223007Y-85019178D01*
X96040186Y-84891165D01*
X95837913Y-84796844D01*
X95837909Y-84796843D01*
X95837905Y-84796841D01*
X95622339Y-84739081D01*
X95622329Y-84739079D01*
X95400001Y-84719628D01*
X95399999Y-84719628D01*
X95177670Y-84739079D01*
X95177660Y-84739081D01*
X94962094Y-84796841D01*
X94962087Y-84796843D01*
X94962087Y-84796844D01*
X94759814Y-84891165D01*
X94576993Y-85019178D01*
X94576991Y-85019179D01*
X94576988Y-85019182D01*
X94419178Y-85176992D01*
X94301574Y-85344947D01*
X94246997Y-85388572D01*
X94177499Y-85395764D01*
X94115144Y-85364242D01*
X94098426Y-85344947D01*
X94007277Y-85214775D01*
X93980822Y-85176993D01*
X93823007Y-85019178D01*
X93640186Y-84891165D01*
X93437913Y-84796844D01*
X93437909Y-84796843D01*
X93437905Y-84796841D01*
X93222339Y-84739081D01*
X93222329Y-84739079D01*
X93000001Y-84719628D01*
X92999999Y-84719628D01*
X92777670Y-84739079D01*
X92777660Y-84739081D01*
X92562094Y-84796841D01*
X92562087Y-84796843D01*
X92562087Y-84796844D01*
X92359814Y-84891165D01*
X92176993Y-85019178D01*
X92176991Y-85019179D01*
X92176988Y-85019182D01*
X92019182Y-85176988D01*
X92019179Y-85176991D01*
X92019178Y-85176993D01*
X91891165Y-85359814D01*
X91821119Y-85510030D01*
X91796845Y-85562085D01*
X91796841Y-85562094D01*
X91739081Y-85777660D01*
X91739079Y-85777670D01*
X91719628Y-85999999D01*
X91719628Y-86000000D01*
X89680372Y-86000000D01*
X89660920Y-85777666D01*
X89612101Y-85595472D01*
X89603158Y-85562094D01*
X89603157Y-85562093D01*
X89603156Y-85562087D01*
X89508835Y-85359814D01*
X89380822Y-85176993D01*
X89223007Y-85019178D01*
X89040186Y-84891165D01*
X88837913Y-84796844D01*
X88837909Y-84796843D01*
X88837905Y-84796841D01*
X88622339Y-84739081D01*
X88622329Y-84739079D01*
X88400001Y-84719628D01*
X88399999Y-84719628D01*
X88177670Y-84739079D01*
X88177660Y-84739081D01*
X87962094Y-84796841D01*
X87962087Y-84796843D01*
X87962087Y-84796844D01*
X87759814Y-84891165D01*
X87576993Y-85019178D01*
X87576991Y-85019179D01*
X87576988Y-85019182D01*
X87419178Y-85176992D01*
X87301574Y-85344947D01*
X87246997Y-85388572D01*
X87177499Y-85395764D01*
X87115144Y-85364242D01*
X87098426Y-85344947D01*
X87007277Y-85214775D01*
X86980822Y-85176993D01*
X86823007Y-85019178D01*
X86640186Y-84891165D01*
X86437913Y-84796844D01*
X86437909Y-84796843D01*
X86437905Y-84796841D01*
X86222339Y-84739081D01*
X86222329Y-84739079D01*
X86000001Y-84719628D01*
X85999999Y-84719628D01*
X85777670Y-84739079D01*
X85777660Y-84739081D01*
X85562094Y-84796841D01*
X85562087Y-84796843D01*
X85562087Y-84796844D01*
X85359814Y-84891165D01*
X85176993Y-85019178D01*
X85176991Y-85019179D01*
X85176988Y-85019182D01*
X85019182Y-85176988D01*
X85019179Y-85176991D01*
X85019178Y-85176993D01*
X84992723Y-85214775D01*
X84894441Y-85355136D01*
X84891165Y-85359814D01*
X84887380Y-85367929D01*
X84841209Y-85420367D01*
X84774015Y-85439518D01*
X84707134Y-85419302D01*
X84662619Y-85367929D01*
X84658835Y-85359814D01*
X84530822Y-85176993D01*
X84373007Y-85019178D01*
X84190186Y-84891165D01*
X83987913Y-84796844D01*
X83987909Y-84796843D01*
X83987905Y-84796841D01*
X83772339Y-84739081D01*
X83772329Y-84739079D01*
X83550001Y-84719628D01*
X83549999Y-84719628D01*
X83327670Y-84739079D01*
X83327660Y-84739081D01*
X83112094Y-84796841D01*
X83112087Y-84796843D01*
X83112087Y-84796844D01*
X82909814Y-84891165D01*
X82726993Y-85019178D01*
X82726991Y-85019179D01*
X82726988Y-85019182D01*
X82569178Y-85176992D01*
X82451574Y-85344947D01*
X82396997Y-85388572D01*
X82327499Y-85395764D01*
X82265144Y-85364242D01*
X82248426Y-85344947D01*
X82157277Y-85214775D01*
X82130822Y-85176993D01*
X81973007Y-85019178D01*
X81790186Y-84891165D01*
X81587913Y-84796844D01*
X81587909Y-84796843D01*
X81587905Y-84796841D01*
X81372339Y-84739081D01*
X81372329Y-84739079D01*
X81150001Y-84719628D01*
X81149999Y-84719628D01*
X80927670Y-84739079D01*
X80927660Y-84739081D01*
X80712094Y-84796841D01*
X80712087Y-84796843D01*
X80712087Y-84796844D01*
X80509814Y-84891165D01*
X80326993Y-85019178D01*
X80326991Y-85019179D01*
X80326988Y-85019182D01*
X80169182Y-85176988D01*
X80169179Y-85176991D01*
X80169178Y-85176993D01*
X80041165Y-85359814D01*
X79971119Y-85510030D01*
X79946845Y-85562085D01*
X79946841Y-85562094D01*
X79889081Y-85777660D01*
X79889079Y-85777670D01*
X79869628Y-85999999D01*
X79869628Y-86000000D01*
X79889079Y-86222329D01*
X79889081Y-86222339D01*
X79946841Y-86437905D01*
X79946843Y-86437909D01*
X79946844Y-86437913D01*
X80041165Y-86640186D01*
X80169178Y-86823007D01*
X80326993Y-86980822D01*
X80509814Y-87108835D01*
X80552040Y-87128525D01*
X80594057Y-87148118D01*
X80646497Y-87194290D01*
X80665649Y-87261483D01*
X80645434Y-87328365D01*
X80592268Y-87373699D01*
X80541653Y-87384500D01*
X79857393Y-87384500D01*
X79722607Y-87384500D01*
X79722603Y-87384501D01*
X79722604Y-87384501D01*
X79699635Y-87391963D01*
X79680722Y-87396503D01*
X79656874Y-87400280D01*
X79635359Y-87411242D01*
X79617389Y-87418685D01*
X79594421Y-87426148D01*
X79594417Y-87426149D01*
X79574880Y-87440344D01*
X79558299Y-87450506D01*
X79536780Y-87461471D01*
X79536778Y-87461473D01*
X79495368Y-87502881D01*
X79495364Y-87502887D01*
X78822571Y-88175681D01*
X78761248Y-88209166D01*
X78734890Y-88212000D01*
X77997702Y-88212000D01*
X77930663Y-88192315D01*
X77915482Y-88180821D01*
X77837988Y-88112168D01*
X77822237Y-88098214D01*
X77682365Y-88024803D01*
X77528986Y-87987000D01*
X77528985Y-87987000D01*
X77371015Y-87987000D01*
X77371014Y-87987000D01*
X77217634Y-88024803D01*
X77077762Y-88098215D01*
X76959516Y-88202971D01*
X76869781Y-88332975D01*
X76869780Y-88332976D01*
X76813762Y-88480681D01*
X76794722Y-88637499D01*
X76794722Y-88637500D01*
X76813762Y-88794318D01*
X76834738Y-88849625D01*
X76869780Y-88942023D01*
X76959517Y-89072030D01*
X77077760Y-89176783D01*
X77077762Y-89176784D01*
X77217634Y-89250196D01*
X77371014Y-89288000D01*
X77371015Y-89288000D01*
X77528985Y-89288000D01*
X77682365Y-89250196D01*
X77822237Y-89176785D01*
X77822238Y-89176783D01*
X77822240Y-89176783D01*
X77915477Y-89094182D01*
X77978708Y-89064463D01*
X77997702Y-89063000D01*
X79029892Y-89063000D01*
X79029893Y-89063000D01*
X79052860Y-89055536D01*
X79071776Y-89050995D01*
X79095626Y-89047219D01*
X79117136Y-89036257D01*
X79135114Y-89028810D01*
X79158081Y-89021349D01*
X79177618Y-89007153D01*
X79194206Y-88996988D01*
X79215720Y-88986028D01*
X79311028Y-88890720D01*
X79929929Y-88271818D01*
X79991252Y-88238334D01*
X80017610Y-88235500D01*
X81722390Y-88235500D01*
X81789429Y-88255185D01*
X81810071Y-88271819D01*
X83208907Y-89670656D01*
X83208913Y-89670661D01*
X83286780Y-89748528D01*
X83308294Y-89759490D01*
X83324884Y-89769656D01*
X83344420Y-89783850D01*
X83367383Y-89791311D01*
X83385359Y-89798756D01*
X83406874Y-89809719D01*
X83430728Y-89813496D01*
X83449639Y-89818036D01*
X83472607Y-89825500D01*
X83506512Y-89825500D01*
X89119869Y-89825500D01*
X89186908Y-89845185D01*
X89232663Y-89897989D01*
X89242607Y-89967147D01*
X89221919Y-90019940D01*
X89169781Y-90095475D01*
X89169780Y-90095476D01*
X89113762Y-90243181D01*
X89094722Y-90399999D01*
X89094722Y-90400000D01*
X89113762Y-90556818D01*
X89165547Y-90693362D01*
X89169780Y-90704523D01*
X89225819Y-90785709D01*
X89259518Y-90834531D01*
X89285653Y-90857685D01*
X89322780Y-90916874D01*
X89322012Y-90986740D01*
X89283595Y-91045099D01*
X89219724Y-91073424D01*
X89203426Y-91074500D01*
X79790135Y-91074500D01*
X79723096Y-91054815D01*
X79677341Y-91002011D01*
X79667397Y-90932853D01*
X79696422Y-90869297D01*
X79707908Y-90857684D01*
X79720125Y-90846861D01*
X79790483Y-90784530D01*
X79880220Y-90654523D01*
X79936237Y-90506818D01*
X79955278Y-90350000D01*
X79945899Y-90272752D01*
X79936237Y-90193181D01*
X79899182Y-90095476D01*
X79880220Y-90045477D01*
X79790483Y-89915470D01*
X79672240Y-89810717D01*
X79672238Y-89810716D01*
X79672237Y-89810715D01*
X79532365Y-89737303D01*
X79378986Y-89699500D01*
X79378985Y-89699500D01*
X79221015Y-89699500D01*
X79221014Y-89699500D01*
X79067634Y-89737303D01*
X78927764Y-89810714D01*
X78921587Y-89814978D01*
X78919910Y-89812548D01*
X78868992Y-89836481D01*
X78799728Y-89827296D01*
X78779072Y-89814021D01*
X78778413Y-89814978D01*
X78772242Y-89810719D01*
X78772240Y-89810717D01*
X78772237Y-89810715D01*
X78772235Y-89810714D01*
X78632365Y-89737303D01*
X78478986Y-89699500D01*
X78478985Y-89699500D01*
X78321015Y-89699500D01*
X78321014Y-89699500D01*
X78167634Y-89737303D01*
X78027767Y-89810712D01*
X78027761Y-89810716D01*
X78027760Y-89810717D01*
X78022950Y-89814978D01*
X78007225Y-89828909D01*
X77943991Y-89858629D01*
X77874728Y-89849444D01*
X77842775Y-89828909D01*
X77838926Y-89825499D01*
X77822240Y-89810717D01*
X77822235Y-89810714D01*
X77822232Y-89810712D01*
X77682365Y-89737303D01*
X77528986Y-89699500D01*
X77528985Y-89699500D01*
X77371015Y-89699500D01*
X77371014Y-89699500D01*
X77217634Y-89737303D01*
X77077762Y-89810715D01*
X77069495Y-89818039D01*
X76975001Y-89901753D01*
X76959516Y-89915471D01*
X76869781Y-90045475D01*
X76869780Y-90045476D01*
X76813762Y-90193181D01*
X76794722Y-90349999D01*
X76794722Y-90350000D01*
X76813762Y-90506818D01*
X76850619Y-90604000D01*
X76869780Y-90654523D01*
X76896589Y-90693362D01*
X76959348Y-90784286D01*
X76959517Y-90784530D01*
X77002995Y-90823048D01*
X77042092Y-90857684D01*
X77079219Y-90916874D01*
X77078451Y-90986739D01*
X77040034Y-91045099D01*
X76976163Y-91073424D01*
X76959865Y-91074500D01*
X75717393Y-91074500D01*
X75582607Y-91074500D01*
X75582603Y-91074501D01*
X75582604Y-91074501D01*
X75559635Y-91081963D01*
X75540722Y-91086503D01*
X75516874Y-91090280D01*
X75495359Y-91101242D01*
X75477389Y-91108685D01*
X75454421Y-91116148D01*
X75454417Y-91116149D01*
X75434880Y-91130344D01*
X75418299Y-91140506D01*
X75396780Y-91151471D01*
X75396778Y-91151473D01*
X75314245Y-91234002D01*
X75314219Y-91234032D01*
X70973280Y-95574972D01*
X70877971Y-95670280D01*
X70867010Y-95691793D01*
X70856846Y-95708378D01*
X70842652Y-95727914D01*
X70842651Y-95727917D01*
X70835188Y-95750885D01*
X70827743Y-95768858D01*
X70816780Y-95790373D01*
X70813003Y-95814223D01*
X70808462Y-95833139D01*
X70800999Y-95856107D01*
X70800998Y-95914668D01*
X70801000Y-95914677D01*
X70801000Y-96096292D01*
X70781315Y-96163331D01*
X70759228Y-96189107D01*
X70736017Y-96209669D01*
X70736015Y-96209672D01*
X70646281Y-96339675D01*
X70646280Y-96339676D01*
X70590262Y-96487381D01*
X70571222Y-96644199D01*
X70571222Y-96644200D01*
X70590262Y-96801018D01*
X70633733Y-96915639D01*
X70646280Y-96948723D01*
X70736017Y-97078730D01*
X70854260Y-97183483D01*
X70854262Y-97183484D01*
X70994134Y-97256896D01*
X71147514Y-97294700D01*
X71147515Y-97294700D01*
X71305485Y-97294700D01*
X71458865Y-97256896D01*
X71473498Y-97249216D01*
X71598740Y-97183483D01*
X71716983Y-97078730D01*
X71806720Y-96948723D01*
X71862737Y-96801018D01*
X71881778Y-96644200D01*
X71872483Y-96567644D01*
X71862737Y-96487381D01*
X71826744Y-96392476D01*
X71806720Y-96339677D01*
X71726178Y-96222991D01*
X71716981Y-96209667D01*
X71712221Y-96204294D01*
X71682502Y-96141060D01*
X71691687Y-96071797D01*
X71717355Y-96034392D01*
X75789929Y-91961818D01*
X75851252Y-91928334D01*
X75877610Y-91925500D01*
X76243391Y-91925500D01*
X76310430Y-91945185D01*
X76356185Y-91997989D01*
X76366129Y-92067147D01*
X76337104Y-92130703D01*
X76331078Y-92137174D01*
X75762807Y-92705444D01*
X75578339Y-92889912D01*
X75500472Y-92967778D01*
X75489510Y-92989293D01*
X75479346Y-93005878D01*
X75465152Y-93025414D01*
X75465151Y-93025417D01*
X75457688Y-93048385D01*
X75450243Y-93066358D01*
X75439280Y-93087873D01*
X75435503Y-93111722D01*
X75430962Y-93130639D01*
X75423500Y-93153604D01*
X75423500Y-93233792D01*
X75403815Y-93300831D01*
X75381728Y-93326607D01*
X75358517Y-93347169D01*
X75358515Y-93347172D01*
X75268781Y-93477175D01*
X75268780Y-93477176D01*
X75212762Y-93624881D01*
X75193722Y-93781699D01*
X75193722Y-93781700D01*
X75212762Y-93938518D01*
X75268780Y-94086223D01*
X75272267Y-94092867D01*
X75269154Y-94094500D01*
X75286379Y-94145600D01*
X75269359Y-94213365D01*
X75218405Y-94261171D01*
X75162476Y-94274500D01*
X74442604Y-94274500D01*
X74419639Y-94281962D01*
X74400722Y-94286503D01*
X74376873Y-94290280D01*
X74355358Y-94301243D01*
X74337386Y-94308688D01*
X74314418Y-94316151D01*
X74314413Y-94316153D01*
X74294881Y-94330344D01*
X74278301Y-94340505D01*
X74256781Y-94351471D01*
X74256775Y-94351475D01*
X74196727Y-94411518D01*
X74196485Y-94411765D01*
X72768196Y-95840053D01*
X72768192Y-95840059D01*
X72731472Y-95876778D01*
X72720510Y-95898293D01*
X72710346Y-95914878D01*
X72696152Y-95934414D01*
X72696151Y-95934417D01*
X72688688Y-95957385D01*
X72681243Y-95975358D01*
X72670280Y-95996873D01*
X72666503Y-96020722D01*
X72661962Y-96039639D01*
X72654500Y-96062604D01*
X72654500Y-96642390D01*
X72634815Y-96709429D01*
X72618181Y-96730071D01*
X70984280Y-98363972D01*
X70888971Y-98459280D01*
X70878010Y-98480793D01*
X70867846Y-98497378D01*
X70853652Y-98516914D01*
X70853651Y-98516917D01*
X70846188Y-98539885D01*
X70838743Y-98557858D01*
X70827780Y-98579373D01*
X70824003Y-98603222D01*
X70819461Y-98622140D01*
X70816595Y-98630961D01*
X70780892Y-98685458D01*
X70747022Y-98715464D01*
X70747015Y-98715472D01*
X70657281Y-98845475D01*
X70657280Y-98845476D01*
X70601262Y-98993181D01*
X70582222Y-99149999D01*
X70582222Y-99150000D01*
X70601262Y-99306818D01*
X70657280Y-99454522D01*
X70657280Y-99454523D01*
X70747017Y-99584530D01*
X70865260Y-99689283D01*
X70865262Y-99689284D01*
X71005134Y-99762696D01*
X71158514Y-99800500D01*
X71158515Y-99800500D01*
X71316485Y-99800500D01*
X71469865Y-99762696D01*
X71496915Y-99748499D01*
X71609740Y-99689283D01*
X71727983Y-99584530D01*
X71817720Y-99454523D01*
X71873737Y-99306818D01*
X71892778Y-99150000D01*
X71883508Y-99073658D01*
X71873737Y-98993182D01*
X71866303Y-98973581D01*
X71817720Y-98845477D01*
X71817716Y-98845472D01*
X71815503Y-98839635D01*
X71810136Y-98769972D01*
X71843283Y-98708465D01*
X71843512Y-98708234D01*
X73404553Y-97147195D01*
X73428528Y-97123220D01*
X73439493Y-97101698D01*
X73449654Y-97085118D01*
X73463849Y-97065581D01*
X73471309Y-97042616D01*
X73478759Y-97024634D01*
X73481470Y-97019315D01*
X73489719Y-97003126D01*
X73493495Y-96979276D01*
X73498036Y-96960360D01*
X73505500Y-96937393D01*
X73505500Y-96802607D01*
X73505500Y-96777945D01*
X73505499Y-96777939D01*
X73505499Y-96556684D01*
X73505499Y-96357606D01*
X73525184Y-96290571D01*
X73541813Y-96269934D01*
X74649929Y-95161818D01*
X74711252Y-95128334D01*
X74737610Y-95125500D01*
X75773390Y-95125500D01*
X75840429Y-95145185D01*
X75886184Y-95197989D01*
X75896128Y-95267147D01*
X75867103Y-95330703D01*
X75861071Y-95337181D01*
X75135071Y-96063181D01*
X75073748Y-96096666D01*
X75047390Y-96099500D01*
X74971014Y-96099500D01*
X74817634Y-96137303D01*
X74677762Y-96210715D01*
X74649070Y-96236134D01*
X74587623Y-96290571D01*
X74559516Y-96315471D01*
X74469781Y-96445475D01*
X74469780Y-96445476D01*
X74413762Y-96593181D01*
X74394722Y-96749999D01*
X74394722Y-96750000D01*
X74413762Y-96906818D01*
X74461745Y-97033336D01*
X74469780Y-97054523D01*
X74559517Y-97184530D01*
X74677760Y-97289283D01*
X74677762Y-97289284D01*
X74817634Y-97362696D01*
X74971014Y-97400500D01*
X74971015Y-97400500D01*
X75128985Y-97400500D01*
X75282365Y-97362696D01*
X75348424Y-97328025D01*
X75422240Y-97289283D01*
X75540483Y-97184530D01*
X75630220Y-97054523D01*
X75686237Y-96906818D01*
X75705278Y-96750000D01*
X75705278Y-96749999D01*
X75705278Y-96747831D01*
X75705727Y-96746301D01*
X75706182Y-96742555D01*
X75706805Y-96742630D01*
X75724963Y-96680792D01*
X75741597Y-96660150D01*
X76090131Y-96311617D01*
X76439928Y-95961819D01*
X76501252Y-95928334D01*
X76527610Y-95925500D01*
X79117392Y-95925500D01*
X79117393Y-95925500D01*
X79140360Y-95918036D01*
X79159276Y-95913495D01*
X79183126Y-95909719D01*
X79204636Y-95898757D01*
X79222614Y-95891310D01*
X79245581Y-95883849D01*
X79265118Y-95869653D01*
X79281706Y-95859488D01*
X79303220Y-95848528D01*
X79398528Y-95753220D01*
X79398528Y-95753219D01*
X79489930Y-95661816D01*
X79551252Y-95628334D01*
X79577609Y-95625500D01*
X80394049Y-95625500D01*
X80461088Y-95645185D01*
X80506843Y-95697989D01*
X80507548Y-95699560D01*
X80507768Y-95700060D01*
X80516750Y-95769350D01*
X80507704Y-95800085D01*
X80472415Y-95880006D01*
X80472415Y-95880008D01*
X80469500Y-95905131D01*
X80469500Y-96694856D01*
X80469502Y-96694882D01*
X80472413Y-96719987D01*
X80472414Y-96719988D01*
X80472414Y-96719990D01*
X80472415Y-96719991D01*
X80507704Y-96799913D01*
X80516776Y-96869191D01*
X80507705Y-96900083D01*
X80488556Y-96943454D01*
X80472415Y-96980009D01*
X80469500Y-97005131D01*
X80469500Y-97794856D01*
X80469502Y-97794882D01*
X80472413Y-97819987D01*
X80472414Y-97819988D01*
X80472414Y-97819990D01*
X80472415Y-97819991D01*
X80507704Y-97899913D01*
X80516776Y-97969191D01*
X80507722Y-98000045D01*
X80507501Y-98000546D01*
X80462434Y-98053938D01*
X80395656Y-98074490D01*
X80394049Y-98074500D01*
X79777610Y-98074500D01*
X79710571Y-98054815D01*
X79689929Y-98038181D01*
X79682257Y-98030509D01*
X79648772Y-97969186D01*
X79653756Y-97899494D01*
X79667890Y-97872386D01*
X79680217Y-97854527D01*
X79680219Y-97854524D01*
X79680220Y-97854523D01*
X79736237Y-97706818D01*
X79755278Y-97550000D01*
X79749887Y-97505596D01*
X79736237Y-97393181D01*
X79711211Y-97327193D01*
X79680220Y-97245477D01*
X79590483Y-97115470D01*
X79472240Y-97010717D01*
X79472238Y-97010716D01*
X79472237Y-97010715D01*
X79332365Y-96937303D01*
X79178986Y-96899500D01*
X79178985Y-96899500D01*
X79021015Y-96899500D01*
X79021014Y-96899500D01*
X78867634Y-96937303D01*
X78727762Y-97010715D01*
X78609516Y-97115471D01*
X78519781Y-97245475D01*
X78519780Y-97245476D01*
X78463762Y-97393181D01*
X78444722Y-97549999D01*
X78444722Y-97550000D01*
X78463762Y-97706818D01*
X78519780Y-97854523D01*
X78519781Y-97854524D01*
X78609515Y-97984528D01*
X78609516Y-97984529D01*
X78609517Y-97984530D01*
X78632727Y-98005092D01*
X78669853Y-98064279D01*
X78674500Y-98097907D01*
X78674500Y-98117394D01*
X78681962Y-98140358D01*
X78686503Y-98159273D01*
X78689377Y-98177420D01*
X78690281Y-98183127D01*
X78701243Y-98204641D01*
X78708688Y-98222615D01*
X78716150Y-98245580D01*
X78730340Y-98265110D01*
X78740508Y-98281703D01*
X78751470Y-98303218D01*
X78751472Y-98303220D01*
X78775446Y-98327194D01*
X78988137Y-98539885D01*
X79194401Y-98746148D01*
X79194404Y-98746152D01*
X79201472Y-98753220D01*
X79296780Y-98848528D01*
X79318301Y-98859493D01*
X79334880Y-98869653D01*
X79354419Y-98883849D01*
X79377381Y-98891309D01*
X79395354Y-98898753D01*
X79416874Y-98909719D01*
X79440724Y-98913495D01*
X79459645Y-98918039D01*
X79481489Y-98925136D01*
X79482607Y-98925500D01*
X79516512Y-98925500D01*
X80394049Y-98925500D01*
X80461088Y-98945185D01*
X80506843Y-98997989D01*
X80507483Y-98999414D01*
X80517790Y-99022759D01*
X80517793Y-99022763D01*
X80517794Y-99022765D01*
X80597235Y-99102206D01*
X80700009Y-99147585D01*
X80725135Y-99150500D01*
X82414864Y-99150499D01*
X82414879Y-99150497D01*
X82414882Y-99150497D01*
X82439987Y-99147586D01*
X82439988Y-99147585D01*
X82439991Y-99147585D01*
X82542765Y-99102206D01*
X82622206Y-99022765D01*
X82667585Y-98919991D01*
X82670500Y-98894865D01*
X82670499Y-98105136D01*
X82668602Y-98088786D01*
X82680433Y-98019925D01*
X82727613Y-97968391D01*
X82791777Y-97950500D01*
X84070613Y-97950500D01*
X84137652Y-97970185D01*
X84158294Y-97986819D01*
X85363181Y-99191705D01*
X85396666Y-99253028D01*
X85399500Y-99279386D01*
X85399500Y-99433253D01*
X85379815Y-99500292D01*
X85327011Y-99546047D01*
X85257853Y-99555991D01*
X85245829Y-99553651D01*
X85228986Y-99549500D01*
X85228985Y-99549500D01*
X85071015Y-99549500D01*
X85071014Y-99549500D01*
X84917634Y-99587303D01*
X84777762Y-99660715D01*
X84777759Y-99660717D01*
X84777760Y-99660717D01*
X84679927Y-99747389D01*
X84659516Y-99765471D01*
X84569781Y-99895475D01*
X84569780Y-99895476D01*
X84513762Y-100043181D01*
X84494722Y-100199999D01*
X84494722Y-100200000D01*
X84513762Y-100356818D01*
X84569780Y-100504523D01*
X84569783Y-100504530D01*
X84569808Y-100504565D01*
X84569817Y-100504594D01*
X84573267Y-100511167D01*
X84572174Y-100511740D01*
X84591688Y-100570921D01*
X84574219Y-100638571D01*
X84569814Y-100645427D01*
X84569781Y-100645473D01*
X84569781Y-100645475D01*
X84513762Y-100793181D01*
X84494722Y-100949999D01*
X84494722Y-100950000D01*
X84513762Y-101106818D01*
X84569780Y-101254523D01*
X84569781Y-101254524D01*
X84587061Y-101279559D01*
X84608944Y-101345914D01*
X84591479Y-101413565D01*
X84587064Y-101420434D01*
X84569780Y-101445475D01*
X84513762Y-101593181D01*
X84494722Y-101749999D01*
X84494722Y-101750000D01*
X84513762Y-101906818D01*
X84569780Y-102054523D01*
X84569783Y-102054530D01*
X84569808Y-102054565D01*
X84569817Y-102054594D01*
X84573267Y-102061167D01*
X84572174Y-102061740D01*
X84591688Y-102120921D01*
X84574219Y-102188571D01*
X84569808Y-102195435D01*
X84569783Y-102195469D01*
X84569780Y-102195476D01*
X84513762Y-102343181D01*
X84494722Y-102499999D01*
X84494722Y-102500000D01*
X84513762Y-102656818D01*
X84569780Y-102804523D01*
X84569783Y-102804530D01*
X84569808Y-102804565D01*
X84569817Y-102804594D01*
X84573267Y-102811167D01*
X84572174Y-102811740D01*
X84591688Y-102870921D01*
X84574219Y-102938571D01*
X84569808Y-102945435D01*
X84569783Y-102945469D01*
X84569780Y-102945476D01*
X84513762Y-103093181D01*
X84494722Y-103249999D01*
X84494722Y-103250000D01*
X84513762Y-103406818D01*
X84562197Y-103534528D01*
X84569780Y-103554523D01*
X84659517Y-103684530D01*
X84777760Y-103789283D01*
X84789860Y-103795633D01*
X84917634Y-103862696D01*
X85071014Y-103900500D01*
X85071015Y-103900500D01*
X85228985Y-103900500D01*
X85382365Y-103862696D01*
X85492374Y-103804957D01*
X85560882Y-103791232D01*
X85607624Y-103804957D01*
X85717635Y-103862696D01*
X85794325Y-103881597D01*
X85871014Y-103900500D01*
X85871015Y-103900500D01*
X86028985Y-103900500D01*
X86182365Y-103862696D01*
X86210758Y-103847794D01*
X86322240Y-103789283D01*
X86440483Y-103684530D01*
X86530220Y-103554523D01*
X86586237Y-103406818D01*
X86605278Y-103250000D01*
X86596172Y-103175000D01*
X86586237Y-103093181D01*
X86557833Y-103018286D01*
X86530220Y-102945477D01*
X86530217Y-102945472D01*
X86530193Y-102945437D01*
X86530183Y-102945407D01*
X86526733Y-102938833D01*
X86527825Y-102938259D01*
X86508311Y-102879083D01*
X86525777Y-102811431D01*
X86530192Y-102804562D01*
X86530220Y-102804523D01*
X86586237Y-102656818D01*
X86605278Y-102500000D01*
X86603737Y-102487304D01*
X86586237Y-102343181D01*
X86549435Y-102246144D01*
X86530220Y-102195477D01*
X86530217Y-102195472D01*
X86530193Y-102195437D01*
X86530183Y-102195407D01*
X86526733Y-102188833D01*
X86527825Y-102188259D01*
X86508311Y-102129083D01*
X86525777Y-102061431D01*
X86530191Y-102054565D01*
X86530220Y-102054523D01*
X86586237Y-101906818D01*
X86605278Y-101750000D01*
X86598671Y-101695581D01*
X86586237Y-101593181D01*
X86530220Y-101445478D01*
X86530220Y-101445477D01*
X86512937Y-101420438D01*
X86491055Y-101354086D01*
X86508520Y-101286435D01*
X86512925Y-101279577D01*
X86530220Y-101254523D01*
X86586237Y-101106818D01*
X86605278Y-100950000D01*
X86603518Y-100935500D01*
X86586237Y-100793181D01*
X86553484Y-100706820D01*
X86530220Y-100645477D01*
X86530217Y-100645472D01*
X86530193Y-100645437D01*
X86530183Y-100645407D01*
X86526733Y-100638833D01*
X86527825Y-100638259D01*
X86508311Y-100579083D01*
X86525777Y-100511431D01*
X86530191Y-100504565D01*
X86530220Y-100504523D01*
X86586237Y-100356818D01*
X86605278Y-100200000D01*
X86602515Y-100177240D01*
X86586237Y-100043181D01*
X86549182Y-99945476D01*
X86530220Y-99895477D01*
X86522448Y-99884217D01*
X86500567Y-99817862D01*
X86500500Y-99813780D01*
X86500500Y-99009414D01*
X86500787Y-99001009D01*
X86502763Y-98943174D01*
X86496159Y-98916077D01*
X86492281Y-98900163D01*
X86491094Y-98893918D01*
X86490735Y-98891308D01*
X86485070Y-98850080D01*
X86477919Y-98833617D01*
X86471181Y-98813583D01*
X86466933Y-98796148D01*
X86445234Y-98757556D01*
X86442414Y-98751878D01*
X86424780Y-98711280D01*
X86424780Y-98711279D01*
X86413458Y-98697363D01*
X86401557Y-98679876D01*
X86392768Y-98664244D01*
X86392767Y-98664243D01*
X86392766Y-98664241D01*
X86361456Y-98632931D01*
X86357210Y-98628225D01*
X86336868Y-98603222D01*
X86329278Y-98593892D01*
X86314612Y-98583539D01*
X86298445Y-98569920D01*
X84745906Y-97017381D01*
X84734465Y-97005131D01*
X84700680Y-96968956D01*
X84681319Y-96957182D01*
X84662861Y-96945957D01*
X84657610Y-96942383D01*
X84622341Y-96915638D01*
X84622342Y-96915638D01*
X84605642Y-96909052D01*
X84586716Y-96899652D01*
X84571380Y-96890327D01*
X84528758Y-96878384D01*
X84522740Y-96876360D01*
X84481565Y-96860124D01*
X84481556Y-96860122D01*
X84463716Y-96858288D01*
X84442951Y-96854342D01*
X84425669Y-96849500D01*
X84425665Y-96849500D01*
X84381406Y-96849500D01*
X84375064Y-96849175D01*
X84347427Y-96846333D01*
X84331029Y-96844648D01*
X84331024Y-96844648D01*
X84313344Y-96847697D01*
X84292276Y-96849500D01*
X83661915Y-96849500D01*
X83594876Y-96829815D01*
X83549121Y-96777011D01*
X83539177Y-96707853D01*
X83545914Y-96693102D01*
X88699500Y-96693102D01*
X88704014Y-96730691D01*
X88710122Y-96781561D01*
X88710122Y-96781563D01*
X88710123Y-96781564D01*
X88717359Y-96799912D01*
X88765639Y-96922343D01*
X88857077Y-97042922D01*
X88977656Y-97134360D01*
X88977657Y-97134360D01*
X88977658Y-97134361D01*
X89118436Y-97189877D01*
X89206898Y-97200500D01*
X89206903Y-97200500D01*
X90493097Y-97200500D01*
X90493102Y-97200500D01*
X90581564Y-97189877D01*
X90722342Y-97134361D01*
X90842922Y-97042922D01*
X90934361Y-96922342D01*
X90989877Y-96781564D01*
X91000500Y-96693102D01*
X91000500Y-95106898D01*
X90989877Y-95018436D01*
X90934361Y-94877658D01*
X90934360Y-94877657D01*
X90934360Y-94877656D01*
X90842922Y-94757077D01*
X90722343Y-94665639D01*
X90613622Y-94622765D01*
X90581564Y-94610123D01*
X90581563Y-94610122D01*
X90581561Y-94610122D01*
X90535926Y-94604642D01*
X90493102Y-94599500D01*
X89206898Y-94599500D01*
X89167853Y-94604188D01*
X89118438Y-94610122D01*
X88977656Y-94665639D01*
X88857077Y-94757077D01*
X88765639Y-94877656D01*
X88710122Y-95018438D01*
X88705007Y-95061040D01*
X88699500Y-95106898D01*
X88699500Y-96693102D01*
X83545914Y-96693102D01*
X83568202Y-96644297D01*
X83579682Y-96632689D01*
X83690483Y-96534530D01*
X83780220Y-96404523D01*
X83836237Y-96256818D01*
X83855278Y-96100000D01*
X83855248Y-96099748D01*
X83836237Y-95943181D01*
X83812278Y-95880006D01*
X83780220Y-95795477D01*
X83690483Y-95665470D01*
X83572240Y-95560717D01*
X83572238Y-95560716D01*
X83572237Y-95560715D01*
X83432365Y-95487303D01*
X83278986Y-95449500D01*
X83278985Y-95449500D01*
X83121015Y-95449500D01*
X83121014Y-95449500D01*
X82967634Y-95487303D01*
X82852125Y-95547928D01*
X82783616Y-95561654D01*
X82718563Y-95536161D01*
X82677619Y-95479546D01*
X82670499Y-95438136D01*
X82670499Y-94805136D01*
X82670497Y-94805117D01*
X82667586Y-94780012D01*
X82667585Y-94780011D01*
X82667585Y-94780009D01*
X82632294Y-94700083D01*
X82623223Y-94630809D01*
X82632291Y-94599922D01*
X82667585Y-94519991D01*
X82670500Y-94494865D01*
X82670499Y-93849499D01*
X82690183Y-93782461D01*
X82742987Y-93736706D01*
X82794499Y-93725500D01*
X91822390Y-93725500D01*
X91889429Y-93745185D01*
X91910071Y-93761819D01*
X92501472Y-94353220D01*
X92596780Y-94448528D01*
X92618299Y-94459492D01*
X92634878Y-94469651D01*
X92654419Y-94483849D01*
X92677381Y-94491309D01*
X92695354Y-94498753D01*
X92716874Y-94509719D01*
X92740724Y-94513495D01*
X92759645Y-94518039D01*
X92781489Y-94525136D01*
X92782607Y-94525500D01*
X92816512Y-94525500D01*
X94632390Y-94525500D01*
X94699429Y-94545185D01*
X94720071Y-94561819D01*
X102036002Y-101877750D01*
X102069487Y-101939073D01*
X102064503Y-102008765D01*
X102030548Y-102058246D01*
X101934525Y-102143315D01*
X101871292Y-102173037D01*
X101852298Y-102174500D01*
X99726610Y-102174500D01*
X99659571Y-102154815D01*
X99613816Y-102102011D01*
X99603872Y-102032853D01*
X99632897Y-101969297D01*
X99638929Y-101962819D01*
X99727185Y-101874563D01*
X99824553Y-101777195D01*
X99824553Y-101777194D01*
X99848528Y-101753220D01*
X99859498Y-101731689D01*
X99869647Y-101715126D01*
X99883849Y-101695581D01*
X99891309Y-101672616D01*
X99898759Y-101654634D01*
X99909718Y-101633128D01*
X99909718Y-101633127D01*
X99909719Y-101633126D01*
X99913495Y-101609276D01*
X99918036Y-101590360D01*
X99925500Y-101567393D01*
X99925500Y-101432607D01*
X99925499Y-101397907D01*
X99945185Y-101330868D01*
X99967270Y-101305094D01*
X99990483Y-101284530D01*
X100080220Y-101154523D01*
X100136237Y-101006818D01*
X100155278Y-100850000D01*
X100149757Y-100804525D01*
X100136237Y-100693181D01*
X100091416Y-100574999D01*
X100080220Y-100545477D01*
X99990483Y-100415470D01*
X99872240Y-100310717D01*
X99872238Y-100310716D01*
X99872237Y-100310715D01*
X99732365Y-100237303D01*
X99578986Y-100199500D01*
X99578985Y-100199500D01*
X99421015Y-100199500D01*
X99421014Y-100199500D01*
X99267634Y-100237303D01*
X99127762Y-100310715D01*
X99009516Y-100415471D01*
X98919781Y-100545475D01*
X98919780Y-100545476D01*
X98863762Y-100693181D01*
X98844722Y-100849999D01*
X98844722Y-100850000D01*
X98863762Y-101006818D01*
X98908394Y-101124500D01*
X98919780Y-101154523D01*
X98933914Y-101174999D01*
X98993366Y-101261132D01*
X99015249Y-101327487D01*
X98997783Y-101395139D01*
X98978997Y-101419253D01*
X95210071Y-105188181D01*
X95148748Y-105221666D01*
X95122390Y-105224500D01*
X89582604Y-105224500D01*
X89559639Y-105231962D01*
X89540722Y-105236503D01*
X89516873Y-105240280D01*
X89495358Y-105251243D01*
X89477385Y-105258688D01*
X89454418Y-105266150D01*
X89454416Y-105266151D01*
X89434883Y-105280343D01*
X89418301Y-105290505D01*
X89396781Y-105301470D01*
X89396779Y-105301472D01*
X89301471Y-105396781D01*
X88929339Y-105768912D01*
X88851472Y-105846778D01*
X88840510Y-105868293D01*
X88830346Y-105884878D01*
X88816152Y-105904414D01*
X88816151Y-105904417D01*
X88808688Y-105927385D01*
X88801243Y-105945358D01*
X88790280Y-105966873D01*
X88786503Y-105990722D01*
X88781962Y-106009639D01*
X88774500Y-106032604D01*
X88774500Y-106621079D01*
X88754815Y-106688118D01*
X88702011Y-106733873D01*
X88695298Y-106736704D01*
X88684987Y-106740698D01*
X88684979Y-106740702D01*
X88503699Y-106852947D01*
X88346127Y-106996593D01*
X88217632Y-107166746D01*
X88122596Y-107357605D01*
X88122596Y-107357607D01*
X88069266Y-107545039D01*
X88031986Y-107604132D01*
X87968676Y-107633689D01*
X87899437Y-107624327D01*
X87846251Y-107579017D01*
X87830734Y-107545039D01*
X87810714Y-107474677D01*
X87777405Y-107357611D01*
X87777403Y-107357606D01*
X87777403Y-107357605D01*
X87682367Y-107166746D01*
X87553872Y-106996593D01*
X87546948Y-106990281D01*
X87396302Y-106852948D01*
X87215019Y-106740702D01*
X87215017Y-106740701D01*
X87045891Y-106675182D01*
X87016198Y-106663679D01*
X86806610Y-106624500D01*
X86593390Y-106624500D01*
X86383802Y-106663679D01*
X86383799Y-106663679D01*
X86383799Y-106663680D01*
X86184982Y-106740701D01*
X86184980Y-106740702D01*
X86003699Y-106852947D01*
X85846127Y-106996593D01*
X85717632Y-107166746D01*
X85622596Y-107357605D01*
X85622596Y-107357607D01*
X85569266Y-107545039D01*
X85531986Y-107604132D01*
X85468676Y-107633689D01*
X85399437Y-107624327D01*
X85346251Y-107579017D01*
X85330734Y-107545039D01*
X85310714Y-107474677D01*
X85277405Y-107357611D01*
X85277403Y-107357606D01*
X85277403Y-107357605D01*
X85182367Y-107166746D01*
X85053872Y-106996593D01*
X85046948Y-106990281D01*
X84896302Y-106852948D01*
X84819718Y-106805529D01*
X84715020Y-106740702D01*
X84715012Y-106740698D01*
X84704702Y-106736704D01*
X84649302Y-106694129D01*
X84625714Y-106628361D01*
X84625500Y-106621079D01*
X84625500Y-106427609D01*
X84645185Y-106360570D01*
X84661819Y-106339928D01*
X85239928Y-105761819D01*
X85301251Y-105728334D01*
X85327609Y-105725500D01*
X85502298Y-105725500D01*
X85569337Y-105745185D01*
X85584517Y-105756678D01*
X85659070Y-105822725D01*
X85677762Y-105839285D01*
X85817634Y-105912696D01*
X85971014Y-105950500D01*
X85971015Y-105950500D01*
X86128985Y-105950500D01*
X86282365Y-105912696D01*
X86298145Y-105904414D01*
X86422240Y-105839283D01*
X86540483Y-105734530D01*
X86630220Y-105604523D01*
X86686237Y-105456818D01*
X86705278Y-105300000D01*
X86704467Y-105293316D01*
X86686237Y-105143181D01*
X86655713Y-105062696D01*
X86630220Y-104995477D01*
X86540483Y-104865470D01*
X86422240Y-104760717D01*
X86422238Y-104760716D01*
X86422237Y-104760715D01*
X86282365Y-104687303D01*
X86128986Y-104649500D01*
X86128985Y-104649500D01*
X85971015Y-104649500D01*
X85971014Y-104649500D01*
X85817634Y-104687303D01*
X85677762Y-104760714D01*
X85641428Y-104792904D01*
X85584522Y-104843317D01*
X85521292Y-104873037D01*
X85502298Y-104874500D01*
X85032604Y-104874500D01*
X85009639Y-104881962D01*
X84990722Y-104886503D01*
X84966873Y-104890280D01*
X84945358Y-104901243D01*
X84927385Y-104908688D01*
X84904418Y-104916150D01*
X84904416Y-104916151D01*
X84884883Y-104930343D01*
X84868301Y-104940505D01*
X84846781Y-104951470D01*
X84846779Y-104951472D01*
X84798290Y-104999962D01*
X84751472Y-105046780D01*
X84751471Y-105046781D01*
X84341434Y-105456818D01*
X83929339Y-105868912D01*
X83851472Y-105946778D01*
X83840510Y-105968293D01*
X83830346Y-105984878D01*
X83816152Y-106004414D01*
X83816151Y-106004417D01*
X83808688Y-106027385D01*
X83801243Y-106045358D01*
X83790280Y-106066873D01*
X83786503Y-106090722D01*
X83781962Y-106109639D01*
X83774500Y-106132604D01*
X83774500Y-106621079D01*
X83754815Y-106688118D01*
X83702011Y-106733873D01*
X83695298Y-106736704D01*
X83684987Y-106740698D01*
X83684979Y-106740702D01*
X83503699Y-106852947D01*
X83346127Y-106996593D01*
X83217632Y-107166746D01*
X83122596Y-107357605D01*
X83122596Y-107357607D01*
X83069266Y-107545039D01*
X83031986Y-107604132D01*
X82968676Y-107633689D01*
X82899437Y-107624327D01*
X82846251Y-107579017D01*
X82830734Y-107545039D01*
X82810714Y-107474677D01*
X82777405Y-107357611D01*
X82777403Y-107357606D01*
X82777403Y-107357605D01*
X82682367Y-107166746D01*
X82553872Y-106996593D01*
X82546948Y-106990281D01*
X82396302Y-106852948D01*
X82215019Y-106740702D01*
X82215017Y-106740701D01*
X82045891Y-106675182D01*
X82016198Y-106663679D01*
X81806610Y-106624500D01*
X81593390Y-106624500D01*
X81383802Y-106663679D01*
X81383799Y-106663679D01*
X81383799Y-106663680D01*
X81184982Y-106740701D01*
X81184980Y-106740702D01*
X81003699Y-106852947D01*
X80846127Y-106996593D01*
X80717632Y-107166746D01*
X80622596Y-107357605D01*
X80622596Y-107357607D01*
X80569266Y-107545039D01*
X80531986Y-107604132D01*
X80468676Y-107633689D01*
X80399437Y-107624327D01*
X80346251Y-107579017D01*
X80330734Y-107545039D01*
X80310714Y-107474677D01*
X80277405Y-107357611D01*
X80277403Y-107357606D01*
X80277403Y-107357605D01*
X80182367Y-107166746D01*
X80053872Y-106996593D01*
X80046948Y-106990281D01*
X79896302Y-106852948D01*
X79715019Y-106740702D01*
X79715017Y-106740701D01*
X79545891Y-106675182D01*
X79516198Y-106663679D01*
X79306610Y-106624500D01*
X79093390Y-106624500D01*
X78883802Y-106663679D01*
X78883799Y-106663679D01*
X78883799Y-106663680D01*
X78684982Y-106740701D01*
X78684980Y-106740702D01*
X78503699Y-106852947D01*
X78346127Y-106996593D01*
X78217632Y-107166746D01*
X78122596Y-107357605D01*
X78122596Y-107357607D01*
X78065915Y-107556818D01*
X78064244Y-107562690D01*
X78049500Y-107721806D01*
X78049500Y-108078194D01*
X78059727Y-108188560D01*
X78064244Y-108237310D01*
X78122596Y-108442392D01*
X78122596Y-108442394D01*
X78217632Y-108633253D01*
X78346127Y-108803406D01*
X78346128Y-108803407D01*
X78503698Y-108947052D01*
X78684981Y-109059298D01*
X78883802Y-109136321D01*
X79093390Y-109175500D01*
X79093392Y-109175500D01*
X79306608Y-109175500D01*
X79306610Y-109175500D01*
X79516198Y-109136321D01*
X79715019Y-109059298D01*
X79896302Y-108947052D01*
X80053872Y-108803407D01*
X80182366Y-108633255D01*
X80277405Y-108442389D01*
X80330734Y-108254959D01*
X80368014Y-108195867D01*
X80431323Y-108166310D01*
X80500563Y-108175672D01*
X80553749Y-108220982D01*
X80569266Y-108254960D01*
X80622596Y-108442392D01*
X80622596Y-108442394D01*
X80717632Y-108633253D01*
X80846127Y-108803406D01*
X80846128Y-108803407D01*
X81003698Y-108947052D01*
X81184981Y-109059298D01*
X81383802Y-109136321D01*
X81593390Y-109175500D01*
X81593392Y-109175500D01*
X81806608Y-109175500D01*
X81806610Y-109175500D01*
X82016198Y-109136321D01*
X82215019Y-109059298D01*
X82396302Y-108947052D01*
X82553872Y-108803407D01*
X82682366Y-108633255D01*
X82777405Y-108442389D01*
X82830734Y-108254959D01*
X82868014Y-108195867D01*
X82931323Y-108166310D01*
X83000563Y-108175672D01*
X83053749Y-108220982D01*
X83069266Y-108254960D01*
X83122596Y-108442392D01*
X83122596Y-108442394D01*
X83217632Y-108633253D01*
X83346127Y-108803406D01*
X83346128Y-108803407D01*
X83503698Y-108947052D01*
X83684981Y-109059298D01*
X83883802Y-109136321D01*
X84093390Y-109175500D01*
X84093392Y-109175500D01*
X84306608Y-109175500D01*
X84306610Y-109175500D01*
X84516198Y-109136321D01*
X84715019Y-109059298D01*
X84896302Y-108947052D01*
X85053872Y-108803407D01*
X85182366Y-108633255D01*
X85277405Y-108442389D01*
X85330734Y-108254959D01*
X85368014Y-108195867D01*
X85431323Y-108166310D01*
X85500563Y-108175672D01*
X85553749Y-108220982D01*
X85569266Y-108254960D01*
X85622596Y-108442392D01*
X85622596Y-108442394D01*
X85717632Y-108633253D01*
X85846127Y-108803406D01*
X85846128Y-108803407D01*
X86003698Y-108947052D01*
X86184981Y-109059298D01*
X86383802Y-109136321D01*
X86593390Y-109175500D01*
X86593392Y-109175500D01*
X86806608Y-109175500D01*
X86806610Y-109175500D01*
X87016198Y-109136321D01*
X87215019Y-109059298D01*
X87396302Y-108947052D01*
X87553872Y-108803407D01*
X87682366Y-108633255D01*
X87777405Y-108442389D01*
X87830734Y-108254959D01*
X87868014Y-108195867D01*
X87931323Y-108166310D01*
X88000563Y-108175672D01*
X88053749Y-108220982D01*
X88069266Y-108254960D01*
X88122596Y-108442392D01*
X88122596Y-108442394D01*
X88217632Y-108633253D01*
X88346127Y-108803406D01*
X88346128Y-108803407D01*
X88503698Y-108947052D01*
X88684981Y-109059298D01*
X88883802Y-109136321D01*
X89093390Y-109175500D01*
X89093392Y-109175500D01*
X89306608Y-109175500D01*
X89306610Y-109175500D01*
X89516198Y-109136321D01*
X89715019Y-109059298D01*
X89896302Y-108947052D01*
X90053872Y-108803407D01*
X90182366Y-108633255D01*
X90277405Y-108442389D01*
X90335756Y-108237310D01*
X90350500Y-108078194D01*
X90350500Y-107721806D01*
X90335756Y-107562690D01*
X90287469Y-107392981D01*
X90288055Y-107323115D01*
X90326322Y-107264656D01*
X90377058Y-107238651D01*
X90482365Y-107212696D01*
X90622240Y-107139283D01*
X90740483Y-107034530D01*
X90830220Y-106904523D01*
X90867763Y-106805527D01*
X90909941Y-106749826D01*
X90975538Y-106725769D01*
X90983705Y-106725500D01*
X93705282Y-106725500D01*
X93772321Y-106745185D01*
X93818076Y-106797989D01*
X93828020Y-106867147D01*
X93815078Y-106907126D01*
X93740210Y-107049773D01*
X93704864Y-107193181D01*
X93699500Y-107214944D01*
X93699500Y-107385056D01*
X93710438Y-107429433D01*
X93740210Y-107550226D01*
X93819263Y-107700849D01*
X93837832Y-107721809D01*
X93932071Y-107828183D01*
X93973362Y-107856684D01*
X94072068Y-107924817D01*
X94072069Y-107924817D01*
X94072070Y-107924818D01*
X94231128Y-107985140D01*
X94307028Y-107994356D01*
X94357626Y-108000500D01*
X94357628Y-108000500D01*
X94628222Y-108000500D01*
X94695261Y-108020185D01*
X94741016Y-108072989D01*
X94751396Y-108138790D01*
X94749500Y-108155128D01*
X94749500Y-108844856D01*
X94749502Y-108844882D01*
X94752413Y-108869987D01*
X94752415Y-108869991D01*
X94797793Y-108972764D01*
X94804288Y-108982245D01*
X94803316Y-108982910D01*
X94821918Y-109013681D01*
X94823227Y-109013092D01*
X94826304Y-109019930D01*
X94826305Y-109019932D01*
X94831772Y-109032080D01*
X94851759Y-109076490D01*
X94853189Y-109079941D01*
X94875182Y-109137930D01*
X94875183Y-109137931D01*
X94880936Y-109146266D01*
X94891961Y-109165813D01*
X94896120Y-109175055D01*
X94896122Y-109175057D01*
X94922801Y-109209111D01*
X94934371Y-109223878D01*
X94936591Y-109226896D01*
X94971812Y-109277924D01*
X94971816Y-109277928D01*
X94971817Y-109277929D01*
X95018250Y-109319064D01*
X95020941Y-109321598D01*
X95309145Y-109609802D01*
X95587791Y-109888448D01*
X95621276Y-109949771D01*
X95623513Y-109988282D01*
X95622359Y-109999999D01*
X95642872Y-110208284D01*
X95673250Y-110308427D01*
X95703628Y-110408569D01*
X95790385Y-110570880D01*
X95802291Y-110593153D01*
X95935063Y-110754936D01*
X95971266Y-110784647D01*
X96010600Y-110842393D01*
X96012471Y-110912237D01*
X95976283Y-110972006D01*
X95913527Y-111002721D01*
X95892601Y-111004500D01*
X70631623Y-111004500D01*
X70628379Y-111004415D01*
X70610478Y-111003476D01*
X70322323Y-110988374D01*
X70315865Y-110987695D01*
X70014781Y-110940009D01*
X70008429Y-110938659D01*
X69713970Y-110859759D01*
X69707794Y-110857753D01*
X69423198Y-110748506D01*
X69417265Y-110745865D01*
X69385029Y-110729440D01*
X69145635Y-110607463D01*
X69140018Y-110604219D01*
X69122973Y-110593150D01*
X68884362Y-110438193D01*
X68879109Y-110434376D01*
X68642194Y-110242527D01*
X68637368Y-110238181D01*
X68421818Y-110022631D01*
X68417472Y-110017805D01*
X68225623Y-109780890D01*
X68221806Y-109775637D01*
X68159742Y-109680067D01*
X68055775Y-109519973D01*
X68052540Y-109514370D01*
X67914129Y-109242724D01*
X67911493Y-109236801D01*
X67907097Y-109225349D01*
X67802242Y-108952194D01*
X67800240Y-108946029D01*
X67721337Y-108651560D01*
X67719993Y-108645232D01*
X67673048Y-108348830D01*
X67672304Y-108344133D01*
X67671625Y-108337675D01*
X67655585Y-108031622D01*
X67655500Y-108028376D01*
X67655500Y-107530000D01*
X69074709Y-107530000D01*
X69093851Y-107809862D01*
X69093852Y-107809864D01*
X69150921Y-108084499D01*
X69150926Y-108084516D01*
X69244863Y-108348828D01*
X69244864Y-108348830D01*
X69373919Y-108597896D01*
X69535688Y-108827069D01*
X69535692Y-108827073D01*
X69535692Y-108827074D01*
X69727154Y-109032080D01*
X69727155Y-109032081D01*
X69944754Y-109209111D01*
X69944756Y-109209112D01*
X69944757Y-109209113D01*
X70184433Y-109354863D01*
X70393257Y-109445567D01*
X70441725Y-109466620D01*
X70711839Y-109542303D01*
X70956159Y-109575884D01*
X70989741Y-109580500D01*
X70989742Y-109580500D01*
X71270259Y-109580500D01*
X71300219Y-109576381D01*
X71548161Y-109542303D01*
X71818275Y-109466620D01*
X72075568Y-109354862D01*
X72315246Y-109209111D01*
X72532845Y-109032081D01*
X72724312Y-108827069D01*
X72886081Y-108597896D01*
X73015136Y-108348830D01*
X73109075Y-108084511D01*
X73109076Y-108084504D01*
X73109078Y-108084499D01*
X73156418Y-107856684D01*
X73166148Y-107809862D01*
X73185291Y-107530000D01*
X73166148Y-107250138D01*
X73133471Y-107092887D01*
X73109078Y-106975500D01*
X73109073Y-106975483D01*
X73065524Y-106852948D01*
X73015136Y-106711170D01*
X72886081Y-106462104D01*
X72724312Y-106232931D01*
X72724307Y-106232925D01*
X72532845Y-106027919D01*
X72482836Y-105987234D01*
X72315246Y-105850889D01*
X72315244Y-105850888D01*
X72315242Y-105850886D01*
X72075566Y-105705136D01*
X71818276Y-105593380D01*
X71548166Y-105517698D01*
X71548162Y-105517697D01*
X71548161Y-105517697D01*
X71409209Y-105498598D01*
X71270259Y-105479500D01*
X71270258Y-105479500D01*
X70989742Y-105479500D01*
X70989741Y-105479500D01*
X70711839Y-105517697D01*
X70711833Y-105517698D01*
X70441723Y-105593380D01*
X70184433Y-105705136D01*
X69944757Y-105850886D01*
X69727154Y-106027919D01*
X69535692Y-106232925D01*
X69535692Y-106232926D01*
X69535689Y-106232928D01*
X69535688Y-106232931D01*
X69491538Y-106295477D01*
X69373919Y-106462103D01*
X69244863Y-106711171D01*
X69150926Y-106975483D01*
X69150921Y-106975500D01*
X69093852Y-107250135D01*
X69093851Y-107250137D01*
X69074709Y-107530000D01*
X67655500Y-107530000D01*
X67655500Y-102800000D01*
X72094722Y-102800000D01*
X72113762Y-102956818D01*
X72165479Y-103093182D01*
X72169780Y-103104523D01*
X72259517Y-103234530D01*
X72377760Y-103339283D01*
X72517635Y-103412696D01*
X72601856Y-103433453D01*
X72662236Y-103468608D01*
X72674232Y-103483411D01*
X72709514Y-103534527D01*
X72709516Y-103534529D01*
X72709517Y-103534530D01*
X72827760Y-103639283D01*
X72827762Y-103639284D01*
X72967634Y-103712696D01*
X73121014Y-103750500D01*
X73121015Y-103750500D01*
X73278985Y-103750500D01*
X73432365Y-103712696D01*
X73453750Y-103701472D01*
X73572240Y-103639283D01*
X73690483Y-103534530D01*
X73780220Y-103404523D01*
X73836237Y-103256818D01*
X73855278Y-103100000D01*
X73850881Y-103063783D01*
X73838279Y-102960000D01*
X76734722Y-102960000D01*
X76753762Y-103116818D01*
X76805988Y-103254524D01*
X76809780Y-103264523D01*
X76899517Y-103394530D01*
X77017760Y-103499283D01*
X77017762Y-103499284D01*
X77157634Y-103572696D01*
X77311014Y-103610500D01*
X77311015Y-103610500D01*
X77468985Y-103610500D01*
X77622365Y-103572696D01*
X77675386Y-103544868D01*
X77762240Y-103499283D01*
X77880483Y-103394530D01*
X77914777Y-103344845D01*
X77947036Y-103316623D01*
X77945323Y-103314265D01*
X77953213Y-103308531D01*
X77953220Y-103308528D01*
X78048528Y-103213220D01*
X78048527Y-103213220D01*
X78107096Y-103154651D01*
X78107095Y-103154651D01*
X80099928Y-101161819D01*
X80161252Y-101128334D01*
X80187610Y-101125500D01*
X80394049Y-101125500D01*
X80461088Y-101145185D01*
X80506843Y-101197989D01*
X80507548Y-101199560D01*
X80507768Y-101200060D01*
X80516750Y-101269350D01*
X80507704Y-101300085D01*
X80472415Y-101380006D01*
X80472415Y-101380008D01*
X80469500Y-101405131D01*
X80469500Y-102194856D01*
X80469502Y-102194882D01*
X80472413Y-102219987D01*
X80472414Y-102219988D01*
X80472414Y-102219990D01*
X80472415Y-102219991D01*
X80507704Y-102299913D01*
X80516776Y-102369191D01*
X80507705Y-102400083D01*
X80498596Y-102420715D01*
X80472415Y-102480009D01*
X80469500Y-102505131D01*
X80469500Y-103294856D01*
X80469502Y-103294882D01*
X80472413Y-103319987D01*
X80472415Y-103319991D01*
X80517793Y-103422764D01*
X80517794Y-103422765D01*
X80597235Y-103502206D01*
X80700009Y-103547585D01*
X80725135Y-103550500D01*
X82414864Y-103550499D01*
X82414879Y-103550497D01*
X82414882Y-103550497D01*
X82439987Y-103547586D01*
X82439988Y-103547585D01*
X82439991Y-103547585D01*
X82542765Y-103502206D01*
X82622206Y-103422765D01*
X82667585Y-103319991D01*
X82670500Y-103294865D01*
X82670499Y-102505136D01*
X82670159Y-102502205D01*
X82667586Y-102480013D01*
X82667585Y-102480011D01*
X82667585Y-102480009D01*
X82632294Y-102400084D01*
X82623224Y-102330806D01*
X82632294Y-102299915D01*
X82667585Y-102219991D01*
X82670500Y-102194865D01*
X82670499Y-101405136D01*
X82669340Y-101395139D01*
X82667586Y-101380013D01*
X82667585Y-101380011D01*
X82667585Y-101380009D01*
X82632294Y-101300083D01*
X82623224Y-101230808D01*
X82632296Y-101199913D01*
X82656739Y-101144555D01*
X82667585Y-101119991D01*
X82670500Y-101094865D01*
X82670499Y-100305136D01*
X82670497Y-100305117D01*
X82667586Y-100280012D01*
X82667585Y-100280010D01*
X82667585Y-100280009D01*
X82622206Y-100177235D01*
X82542765Y-100097794D01*
X82529557Y-100091962D01*
X82439992Y-100052415D01*
X82414865Y-100049500D01*
X80725143Y-100049500D01*
X80725117Y-100049502D01*
X80700012Y-100052413D01*
X80700008Y-100052415D01*
X80597235Y-100097793D01*
X80517796Y-100177232D01*
X80517790Y-100177240D01*
X80507483Y-100200586D01*
X80462397Y-100253963D01*
X80395611Y-100274490D01*
X80394049Y-100274500D01*
X80027393Y-100274500D01*
X79892607Y-100274500D01*
X79892603Y-100274501D01*
X79892604Y-100274501D01*
X79869635Y-100281963D01*
X79850722Y-100286503D01*
X79826874Y-100290280D01*
X79805359Y-100301242D01*
X79787389Y-100308685D01*
X79764421Y-100316148D01*
X79764417Y-100316149D01*
X79744880Y-100330344D01*
X79728299Y-100340506D01*
X79706780Y-100351471D01*
X79706778Y-100351473D01*
X79624245Y-100434002D01*
X79624219Y-100434032D01*
X77742883Y-102315367D01*
X77681560Y-102348852D01*
X77625528Y-102348083D01*
X77468986Y-102309500D01*
X77468985Y-102309500D01*
X77311015Y-102309500D01*
X77311014Y-102309500D01*
X77157634Y-102347303D01*
X77017762Y-102420715D01*
X76899516Y-102525471D01*
X76809781Y-102655475D01*
X76809780Y-102655476D01*
X76753762Y-102803181D01*
X76734722Y-102959999D01*
X76734722Y-102960000D01*
X73838279Y-102960000D01*
X73836237Y-102943181D01*
X73814992Y-102887163D01*
X73780220Y-102795477D01*
X73690483Y-102665470D01*
X73572240Y-102560717D01*
X73572238Y-102560716D01*
X73572237Y-102560715D01*
X73432366Y-102487304D01*
X73348141Y-102466545D01*
X73287761Y-102431389D01*
X73275771Y-102416595D01*
X73240483Y-102365470D01*
X73122240Y-102260717D01*
X73122238Y-102260716D01*
X73122237Y-102260715D01*
X72982365Y-102187303D01*
X72828986Y-102149500D01*
X72828985Y-102149500D01*
X72671015Y-102149500D01*
X72671014Y-102149500D01*
X72517634Y-102187303D01*
X72377762Y-102260715D01*
X72259516Y-102365471D01*
X72169781Y-102495475D01*
X72169780Y-102495476D01*
X72113762Y-102643181D01*
X72094722Y-102799999D01*
X72094722Y-102800000D01*
X67655500Y-102800000D01*
X67655500Y-101258833D01*
X70415624Y-101258833D01*
X70425944Y-101422860D01*
X70476732Y-101579171D01*
X70476734Y-101579175D01*
X70564798Y-101717940D01*
X70684603Y-101830445D01*
X70684611Y-101830451D01*
X70828628Y-101909625D01*
X70828632Y-101909627D01*
X70987823Y-101950500D01*
X70987827Y-101950500D01*
X71110923Y-101950500D01*
X71110925Y-101950500D01*
X71110930Y-101950499D01*
X71110934Y-101950499D01*
X71124714Y-101948758D01*
X71233058Y-101935071D01*
X71385871Y-101874568D01*
X71385878Y-101874563D01*
X71518835Y-101777965D01*
X71518835Y-101777963D01*
X71518837Y-101777963D01*
X71623600Y-101651326D01*
X71693579Y-101502613D01*
X71724376Y-101341170D01*
X71714056Y-101177140D01*
X71663268Y-101020829D01*
X71655119Y-101007989D01*
X71606821Y-100931883D01*
X71575202Y-100882060D01*
X71541062Y-100850000D01*
X71455396Y-100769554D01*
X71455388Y-100769548D01*
X71311371Y-100690374D01*
X71311361Y-100690371D01*
X71152180Y-100649500D01*
X71152177Y-100649500D01*
X71029075Y-100649500D01*
X71029065Y-100649500D01*
X70906942Y-100664929D01*
X70906939Y-100664929D01*
X70754130Y-100725431D01*
X70754121Y-100725436D01*
X70621164Y-100822034D01*
X70621162Y-100822037D01*
X70516400Y-100948673D01*
X70446420Y-101097387D01*
X70431615Y-101175000D01*
X70415624Y-101258830D01*
X70415624Y-101258832D01*
X70415624Y-101258833D01*
X67655500Y-101258833D01*
X67655500Y-93258833D01*
X70415624Y-93258833D01*
X70425944Y-93422860D01*
X70476732Y-93579171D01*
X70476734Y-93579175D01*
X70564798Y-93717940D01*
X70684603Y-93830445D01*
X70684611Y-93830451D01*
X70802893Y-93895477D01*
X70828632Y-93909627D01*
X70987823Y-93950500D01*
X70987827Y-93950500D01*
X71110923Y-93950500D01*
X71110925Y-93950500D01*
X71110930Y-93950499D01*
X71110934Y-93950499D01*
X71124174Y-93948826D01*
X71233058Y-93935071D01*
X71385871Y-93874568D01*
X71405227Y-93860505D01*
X71518835Y-93777965D01*
X71518835Y-93777963D01*
X71518837Y-93777963D01*
X71623600Y-93651326D01*
X71693579Y-93502613D01*
X71724376Y-93341170D01*
X71714056Y-93177140D01*
X71663268Y-93020829D01*
X71661497Y-93018039D01*
X71612906Y-92941472D01*
X71575202Y-92882060D01*
X71562828Y-92870440D01*
X71455396Y-92769554D01*
X71455388Y-92769548D01*
X71311371Y-92690374D01*
X71311361Y-92690371D01*
X71152180Y-92649500D01*
X71152177Y-92649500D01*
X71029075Y-92649500D01*
X71029065Y-92649500D01*
X70906942Y-92664929D01*
X70906939Y-92664929D01*
X70754130Y-92725431D01*
X70754121Y-92725436D01*
X70621164Y-92822034D01*
X70621162Y-92822037D01*
X70516400Y-92948673D01*
X70446420Y-93097387D01*
X70435697Y-93153604D01*
X70415624Y-93258830D01*
X70415624Y-93258832D01*
X70415624Y-93258833D01*
X67655500Y-93258833D01*
X67655500Y-84529999D01*
X69074709Y-84529999D01*
X69093851Y-84809862D01*
X69093852Y-84809864D01*
X69150921Y-85084499D01*
X69150926Y-85084516D01*
X69236443Y-85325136D01*
X69244864Y-85348830D01*
X69373919Y-85597896D01*
X69535688Y-85827069D01*
X69535692Y-85827073D01*
X69535692Y-85827074D01*
X69711076Y-86014865D01*
X69727155Y-86032081D01*
X69944754Y-86209111D01*
X69944756Y-86209112D01*
X69944757Y-86209113D01*
X70184433Y-86354863D01*
X70358064Y-86430281D01*
X70441725Y-86466620D01*
X70711839Y-86542303D01*
X70956159Y-86575884D01*
X70989741Y-86580500D01*
X70989742Y-86580500D01*
X71270259Y-86580500D01*
X71300219Y-86576381D01*
X71548161Y-86542303D01*
X71818275Y-86466620D01*
X72069078Y-86357681D01*
X72075566Y-86354863D01*
X72075571Y-86354860D01*
X72315246Y-86209111D01*
X72532845Y-86032081D01*
X72655841Y-85900382D01*
X72715984Y-85864825D01*
X72785805Y-85867426D01*
X72843136Y-85907363D01*
X72869774Y-85971955D01*
X72869993Y-85995816D01*
X72869628Y-85999992D01*
X72869628Y-86000000D01*
X72889079Y-86222329D01*
X72889081Y-86222339D01*
X72946841Y-86437905D01*
X72946843Y-86437909D01*
X72946844Y-86437913D01*
X73041165Y-86640186D01*
X73169178Y-86823007D01*
X73326993Y-86980822D01*
X73509814Y-87108835D01*
X73712087Y-87203156D01*
X73927666Y-87260920D01*
X74090199Y-87275140D01*
X74149999Y-87280372D01*
X74150000Y-87280372D01*
X74150001Y-87280372D01*
X74209801Y-87275140D01*
X74372334Y-87260920D01*
X74587913Y-87203156D01*
X74790186Y-87108835D01*
X74973007Y-86980822D01*
X75130822Y-86823007D01*
X75248426Y-86655050D01*
X75303002Y-86611427D01*
X75372501Y-86604235D01*
X75434855Y-86635757D01*
X75451571Y-86655047D01*
X75569178Y-86823007D01*
X75726993Y-86980822D01*
X75909814Y-87108835D01*
X76112087Y-87203156D01*
X76327666Y-87260920D01*
X76490199Y-87275140D01*
X76549999Y-87280372D01*
X76550000Y-87280372D01*
X76550001Y-87280372D01*
X76609801Y-87275140D01*
X76772334Y-87260920D01*
X76987913Y-87203156D01*
X77190186Y-87108835D01*
X77373007Y-86980822D01*
X77530822Y-86823007D01*
X77658835Y-86640186D01*
X77753156Y-86437913D01*
X77810920Y-86222334D01*
X77830372Y-86000000D01*
X77810920Y-85777666D01*
X77762101Y-85595472D01*
X77753158Y-85562094D01*
X77753157Y-85562093D01*
X77753156Y-85562087D01*
X77658835Y-85359814D01*
X77530822Y-85176993D01*
X77373007Y-85019178D01*
X77190186Y-84891165D01*
X76987913Y-84796844D01*
X76987909Y-84796843D01*
X76987905Y-84796841D01*
X76772339Y-84739081D01*
X76772329Y-84739079D01*
X76550001Y-84719628D01*
X76549999Y-84719628D01*
X76327670Y-84739079D01*
X76327660Y-84739081D01*
X76112094Y-84796841D01*
X76112087Y-84796843D01*
X76112087Y-84796844D01*
X75909814Y-84891165D01*
X75726993Y-85019178D01*
X75726991Y-85019179D01*
X75726988Y-85019182D01*
X75569178Y-85176992D01*
X75451574Y-85344947D01*
X75396997Y-85388572D01*
X75327499Y-85395764D01*
X75265144Y-85364242D01*
X75248426Y-85344947D01*
X75157277Y-85214775D01*
X75130822Y-85176993D01*
X74973007Y-85019178D01*
X74790186Y-84891165D01*
X74587913Y-84796844D01*
X74587909Y-84796843D01*
X74587905Y-84796841D01*
X74372339Y-84739081D01*
X74372329Y-84739079D01*
X74150001Y-84719628D01*
X74149999Y-84719628D01*
X73927670Y-84739079D01*
X73927660Y-84739081D01*
X73712094Y-84796841D01*
X73712087Y-84796843D01*
X73712087Y-84796844D01*
X73509814Y-84891165D01*
X73344005Y-85007265D01*
X73277800Y-85029592D01*
X73210033Y-85012582D01*
X73162220Y-84961634D01*
X73149542Y-84892924D01*
X73151477Y-84880461D01*
X73166148Y-84809864D01*
X73166148Y-84809862D01*
X73185291Y-84530000D01*
X73166148Y-84250138D01*
X73135491Y-84102607D01*
X73109078Y-83975500D01*
X73109073Y-83975483D01*
X73072096Y-83871440D01*
X73015136Y-83711170D01*
X72905717Y-83499999D01*
X76740398Y-83499999D01*
X76760757Y-83706716D01*
X76821056Y-83905496D01*
X76918969Y-84088677D01*
X76918974Y-84088684D01*
X77050747Y-84249252D01*
X77152941Y-84333119D01*
X77211317Y-84381027D01*
X77211320Y-84381028D01*
X77211322Y-84381030D01*
X77394503Y-84478943D01*
X77394505Y-84478943D01*
X77394508Y-84478945D01*
X77593282Y-84539242D01*
X77800000Y-84559602D01*
X78006718Y-84539242D01*
X78205492Y-84478945D01*
X78388683Y-84381027D01*
X78549252Y-84249252D01*
X78681027Y-84088683D01*
X78732882Y-83991669D01*
X78740642Y-83977152D01*
X78789604Y-83927308D01*
X78857741Y-83911847D01*
X78923421Y-83935678D01*
X78959358Y-83977152D01*
X79018969Y-84088677D01*
X79018974Y-84088684D01*
X79150747Y-84249252D01*
X79252941Y-84333119D01*
X79311317Y-84381027D01*
X79311320Y-84381028D01*
X79311322Y-84381030D01*
X79494503Y-84478943D01*
X79494505Y-84478943D01*
X79494508Y-84478945D01*
X79693282Y-84539242D01*
X79900000Y-84559602D01*
X80106718Y-84539242D01*
X80305492Y-84478945D01*
X80488683Y-84381027D01*
X80649252Y-84249252D01*
X80781027Y-84088683D01*
X80878945Y-83905492D01*
X80939242Y-83706718D01*
X80959602Y-83500000D01*
X80959602Y-83499999D01*
X88590398Y-83499999D01*
X88610757Y-83706716D01*
X88671056Y-83905496D01*
X88768969Y-84088677D01*
X88768974Y-84088684D01*
X88900747Y-84249252D01*
X89002941Y-84333119D01*
X89061317Y-84381027D01*
X89061320Y-84381028D01*
X89061322Y-84381030D01*
X89244503Y-84478943D01*
X89244505Y-84478943D01*
X89244508Y-84478945D01*
X89443282Y-84539242D01*
X89650000Y-84559602D01*
X89856718Y-84539242D01*
X90055492Y-84478945D01*
X90238683Y-84381027D01*
X90399252Y-84249252D01*
X90531027Y-84088683D01*
X90582882Y-83991669D01*
X90590642Y-83977152D01*
X90639604Y-83927308D01*
X90707741Y-83911847D01*
X90773421Y-83935678D01*
X90809358Y-83977152D01*
X90868969Y-84088677D01*
X90868974Y-84088684D01*
X91000747Y-84249252D01*
X91102941Y-84333119D01*
X91161317Y-84381027D01*
X91161320Y-84381028D01*
X91161322Y-84381030D01*
X91344503Y-84478943D01*
X91344505Y-84478943D01*
X91344508Y-84478945D01*
X91543282Y-84539242D01*
X91750000Y-84559602D01*
X91956718Y-84539242D01*
X92155492Y-84478945D01*
X92338683Y-84381027D01*
X92499252Y-84249252D01*
X92631027Y-84088683D01*
X92728945Y-83905492D01*
X92789242Y-83706718D01*
X92809602Y-83500000D01*
X92789242Y-83293282D01*
X92728945Y-83094508D01*
X92728943Y-83094505D01*
X92728943Y-83094503D01*
X92631030Y-82911322D01*
X92631028Y-82911320D01*
X92631027Y-82911317D01*
X92577103Y-82845610D01*
X92499252Y-82750747D01*
X92338684Y-82618974D01*
X92338677Y-82618969D01*
X92155496Y-82521056D01*
X91956716Y-82460757D01*
X91750000Y-82440398D01*
X91543283Y-82460757D01*
X91344503Y-82521056D01*
X91161322Y-82618969D01*
X91161315Y-82618974D01*
X91000747Y-82750747D01*
X90868974Y-82911315D01*
X90868969Y-82911322D01*
X90809358Y-83022847D01*
X90760396Y-83072692D01*
X90692258Y-83088152D01*
X90626578Y-83064320D01*
X90590642Y-83022847D01*
X90531030Y-82911322D01*
X90531028Y-82911320D01*
X90531027Y-82911317D01*
X90477103Y-82845610D01*
X90399252Y-82750747D01*
X90238684Y-82618974D01*
X90238677Y-82618969D01*
X90055496Y-82521056D01*
X89856716Y-82460757D01*
X89650000Y-82440398D01*
X89443283Y-82460757D01*
X89244503Y-82521056D01*
X89061322Y-82618969D01*
X89061315Y-82618974D01*
X88900747Y-82750747D01*
X88768974Y-82911315D01*
X88768969Y-82911322D01*
X88671056Y-83094503D01*
X88610757Y-83293283D01*
X88590398Y-83499999D01*
X80959602Y-83499999D01*
X80939242Y-83293282D01*
X80878945Y-83094508D01*
X80878943Y-83094505D01*
X80878943Y-83094503D01*
X80781030Y-82911322D01*
X80781028Y-82911320D01*
X80781027Y-82911317D01*
X80727103Y-82845610D01*
X80649252Y-82750747D01*
X80488684Y-82618974D01*
X80488677Y-82618969D01*
X80305496Y-82521056D01*
X80106716Y-82460757D01*
X79922583Y-82442622D01*
X79900000Y-82440398D01*
X79899999Y-82440398D01*
X79693283Y-82460757D01*
X79494503Y-82521056D01*
X79311322Y-82618969D01*
X79311315Y-82618974D01*
X79150747Y-82750747D01*
X79018974Y-82911315D01*
X79018969Y-82911322D01*
X78959358Y-83022847D01*
X78910396Y-83072692D01*
X78842258Y-83088152D01*
X78776578Y-83064320D01*
X78740642Y-83022847D01*
X78681030Y-82911322D01*
X78681028Y-82911320D01*
X78681027Y-82911317D01*
X78627103Y-82845610D01*
X78549252Y-82750747D01*
X78388684Y-82618974D01*
X78388677Y-82618969D01*
X78205496Y-82521056D01*
X78006716Y-82460757D01*
X77800000Y-82440398D01*
X77593283Y-82460757D01*
X77394503Y-82521056D01*
X77211322Y-82618969D01*
X77211315Y-82618974D01*
X77050747Y-82750747D01*
X76918974Y-82911315D01*
X76918969Y-82911322D01*
X76821056Y-83094503D01*
X76760757Y-83293283D01*
X76740398Y-83499999D01*
X72905717Y-83499999D01*
X72886081Y-83462104D01*
X72724312Y-83232931D01*
X72724307Y-83232925D01*
X72532845Y-83027919D01*
X72434249Y-82947705D01*
X72315246Y-82850889D01*
X72315244Y-82850888D01*
X72315242Y-82850886D01*
X72075566Y-82705136D01*
X71818276Y-82593380D01*
X71548166Y-82517698D01*
X71548162Y-82517697D01*
X71548161Y-82517697D01*
X71398773Y-82497164D01*
X71270259Y-82479500D01*
X71270258Y-82479500D01*
X70989742Y-82479500D01*
X70989741Y-82479500D01*
X70711839Y-82517697D01*
X70711833Y-82517698D01*
X70441723Y-82593380D01*
X70184433Y-82705136D01*
X69944757Y-82850886D01*
X69727154Y-83027919D01*
X69535692Y-83232925D01*
X69535692Y-83232926D01*
X69535689Y-83232928D01*
X69535688Y-83232931D01*
X69479041Y-83313181D01*
X69373919Y-83462103D01*
X69244863Y-83711171D01*
X69150926Y-83975483D01*
X69150921Y-83975500D01*
X69093852Y-84250135D01*
X69093851Y-84250137D01*
X69074709Y-84529999D01*
X67655500Y-84529999D01*
X67655500Y-84031623D01*
X67655585Y-84028377D01*
X67671625Y-83722324D01*
X67672304Y-83715866D01*
X67688270Y-83615060D01*
X67719993Y-83414763D01*
X67721336Y-83408443D01*
X67800242Y-83113963D01*
X67802240Y-83107811D01*
X67911497Y-82823188D01*
X67914126Y-82817281D01*
X68052544Y-82545620D01*
X68055770Y-82540034D01*
X68221813Y-82284352D01*
X68225623Y-82279109D01*
X68295539Y-82192770D01*
X68417481Y-82042183D01*
X68421808Y-82037378D01*
X68637378Y-81821808D01*
X68642183Y-81817481D01*
X68879107Y-81625623D01*
X68884352Y-81621813D01*
X69140034Y-81455770D01*
X69145620Y-81452544D01*
X69417281Y-81314126D01*
X69423188Y-81311497D01*
X69707811Y-81202240D01*
X69713963Y-81200242D01*
X70008443Y-81121336D01*
X70014763Y-81119993D01*
X70315866Y-81072303D01*
X70322324Y-81071625D01*
X70382834Y-81068453D01*
X70628379Y-81055584D01*
X70631623Y-81055500D01*
X70638285Y-81055500D01*
X95892601Y-81055500D01*
X95959640Y-81075185D01*
G37*
%TD.AperFunction*%
%TA.AperFunction,Conductor*%
G36*
X101919337Y-103045185D02*
G01*
X101934517Y-103056678D01*
X101988524Y-103104523D01*
X102027762Y-103139285D01*
X102167634Y-103212696D01*
X102321014Y-103250500D01*
X102321015Y-103250500D01*
X102478985Y-103250500D01*
X102632365Y-103212696D01*
X102772237Y-103139285D01*
X102772238Y-103139283D01*
X102772240Y-103139283D01*
X102865477Y-103056682D01*
X102928708Y-103026963D01*
X102947702Y-103025500D01*
X107018020Y-103025500D01*
X107085059Y-103045185D01*
X107100245Y-103056683D01*
X107108259Y-103063783D01*
X107108261Y-103063784D01*
X107248134Y-103137196D01*
X107401514Y-103175000D01*
X107401515Y-103175000D01*
X107559480Y-103175000D01*
X107559485Y-103175000D01*
X107559489Y-103174998D01*
X107559883Y-103174951D01*
X107560178Y-103175000D01*
X107566985Y-103175000D01*
X107566985Y-103176131D01*
X107628808Y-103186404D01*
X107680599Y-103233302D01*
X107698813Y-103300755D01*
X107677668Y-103367349D01*
X107662524Y-103385726D01*
X106949558Y-104098692D01*
X106891554Y-104131407D01*
X106867638Y-104137302D01*
X106867634Y-104137303D01*
X106727762Y-104210715D01*
X106609516Y-104315471D01*
X106519781Y-104445475D01*
X106519780Y-104445476D01*
X106463762Y-104593181D01*
X106444722Y-104749999D01*
X106444722Y-104750000D01*
X106463762Y-104906818D01*
X106501688Y-105006818D01*
X106519780Y-105054523D01*
X106550180Y-105098566D01*
X106571919Y-105130060D01*
X106593802Y-105196415D01*
X106576336Y-105264066D01*
X106525069Y-105311536D01*
X106469869Y-105324500D01*
X102210202Y-105324500D01*
X102143163Y-105304815D01*
X102127982Y-105293321D01*
X102034740Y-105210717D01*
X102034737Y-105210714D01*
X101894865Y-105137303D01*
X101741486Y-105099500D01*
X101741485Y-105099500D01*
X101583515Y-105099500D01*
X101583514Y-105099500D01*
X101430134Y-105137303D01*
X101290262Y-105210715D01*
X101172016Y-105315471D01*
X101082281Y-105445475D01*
X101082280Y-105445476D01*
X101026262Y-105593181D01*
X101007222Y-105749999D01*
X101007222Y-105750000D01*
X101026262Y-105906818D01*
X101078804Y-106045358D01*
X101082280Y-106054523D01*
X101172017Y-106184530D01*
X101290260Y-106289283D01*
X101290262Y-106289284D01*
X101430134Y-106362696D01*
X101583514Y-106400500D01*
X101710890Y-106400500D01*
X101777929Y-106420185D01*
X101823684Y-106472989D01*
X101833628Y-106542147D01*
X101804603Y-106605703D01*
X101798571Y-106612181D01*
X101747571Y-106663181D01*
X101686248Y-106696666D01*
X101659890Y-106699500D01*
X101583514Y-106699500D01*
X101430134Y-106737303D01*
X101290262Y-106810715D01*
X101172016Y-106915471D01*
X101082281Y-107045475D01*
X101082280Y-107045476D01*
X101026262Y-107193181D01*
X101007222Y-107349999D01*
X101007222Y-107350000D01*
X101026262Y-107506818D01*
X101063169Y-107604132D01*
X101082280Y-107654523D01*
X101172017Y-107784530D01*
X101290260Y-107889283D01*
X101290262Y-107889284D01*
X101430134Y-107962696D01*
X101583514Y-108000500D01*
X101583515Y-108000500D01*
X101741485Y-108000500D01*
X101894865Y-107962696D01*
X101939474Y-107939283D01*
X102034740Y-107889283D01*
X102152983Y-107784530D01*
X102242720Y-107654523D01*
X102298737Y-107506818D01*
X102317778Y-107350000D01*
X102317778Y-107349999D01*
X102317778Y-107347831D01*
X102318227Y-107346301D01*
X102318682Y-107342555D01*
X102319305Y-107342630D01*
X102337463Y-107280792D01*
X102354097Y-107260150D01*
X102551533Y-107062715D01*
X102752428Y-106861819D01*
X102813752Y-106828334D01*
X102840110Y-106825500D01*
X103722840Y-106825500D01*
X103789879Y-106845185D01*
X103835634Y-106897989D01*
X103845578Y-106967147D01*
X103816553Y-107030703D01*
X103780469Y-107059295D01*
X103777761Y-107060715D01*
X103659516Y-107165471D01*
X103569781Y-107295475D01*
X103569780Y-107295476D01*
X103513762Y-107443181D01*
X103494722Y-107599999D01*
X103494722Y-107600004D01*
X103495406Y-107605642D01*
X103483940Y-107674565D01*
X103459990Y-107708260D01*
X102212751Y-108955499D01*
X102151428Y-108988984D01*
X102089077Y-108986479D01*
X101978287Y-108952873D01*
X101978285Y-108952872D01*
X101770000Y-108932359D01*
X101561715Y-108952872D01*
X101361428Y-109013629D01*
X101176846Y-109112291D01*
X101015063Y-109245063D01*
X100882291Y-109406846D01*
X100783629Y-109591428D01*
X100722872Y-109791715D01*
X100702359Y-109999999D01*
X100722872Y-110208284D01*
X100753250Y-110308427D01*
X100783628Y-110408569D01*
X100870385Y-110570880D01*
X100882291Y-110593153D01*
X101015063Y-110754936D01*
X101051266Y-110784647D01*
X101090600Y-110842393D01*
X101092471Y-110912237D01*
X101056283Y-110972006D01*
X100993527Y-111002721D01*
X100972601Y-111004500D01*
X100027399Y-111004500D01*
X99960360Y-110984815D01*
X99914605Y-110932011D01*
X99904661Y-110862853D01*
X99933686Y-110799297D01*
X99948734Y-110784647D01*
X99984936Y-110754936D01*
X100105961Y-110607467D01*
X100117711Y-110593150D01*
X100216372Y-110408569D01*
X100277127Y-110208286D01*
X100297641Y-110000000D01*
X100277127Y-109791714D01*
X100216372Y-109591431D01*
X100117711Y-109406850D01*
X100092329Y-109375922D01*
X99984936Y-109245063D01*
X99823153Y-109112291D01*
X99823151Y-109112290D01*
X99823150Y-109112289D01*
X99638569Y-109013628D01*
X99534813Y-108982154D01*
X99438284Y-108952872D01*
X99230000Y-108932359D01*
X99021715Y-108952872D01*
X98821428Y-109013629D01*
X98636846Y-109112291D01*
X98475063Y-109245063D01*
X98342291Y-109406846D01*
X98243629Y-109591428D01*
X98182872Y-109791715D01*
X98162359Y-109999999D01*
X98182872Y-110208284D01*
X98213250Y-110308427D01*
X98243628Y-110408569D01*
X98330385Y-110570880D01*
X98342291Y-110593153D01*
X98475063Y-110754936D01*
X98511266Y-110784647D01*
X98550600Y-110842393D01*
X98552471Y-110912237D01*
X98516283Y-110972006D01*
X98453527Y-111002721D01*
X98432601Y-111004500D01*
X97487399Y-111004500D01*
X97420360Y-110984815D01*
X97374605Y-110932011D01*
X97364661Y-110862853D01*
X97393686Y-110799297D01*
X97408734Y-110784647D01*
X97444936Y-110754936D01*
X97565961Y-110607467D01*
X97577711Y-110593150D01*
X97676372Y-110408569D01*
X97737127Y-110208286D01*
X97757641Y-110000000D01*
X97737127Y-109791714D01*
X97676372Y-109591431D01*
X97577711Y-109406850D01*
X97552329Y-109375922D01*
X97444936Y-109245063D01*
X97283153Y-109112291D01*
X97283151Y-109112290D01*
X97283150Y-109112289D01*
X97098569Y-109013628D01*
X96994813Y-108982154D01*
X96898284Y-108952872D01*
X96690000Y-108932359D01*
X96678282Y-108933513D01*
X96609636Y-108920494D01*
X96578448Y-108897791D01*
X96286818Y-108606161D01*
X96253333Y-108544838D01*
X96250499Y-108518480D01*
X96250499Y-108155143D01*
X96250499Y-108155136D01*
X96248602Y-108138786D01*
X96260433Y-108069925D01*
X96307613Y-108018391D01*
X96371777Y-108000500D01*
X96592374Y-108000500D01*
X96634538Y-107995380D01*
X96718872Y-107985140D01*
X96877930Y-107924818D01*
X97017929Y-107828183D01*
X97130734Y-107700852D01*
X97209790Y-107550225D01*
X97225557Y-107486251D01*
X97227787Y-107479097D01*
X97236237Y-107456818D01*
X97239111Y-107433144D01*
X97240460Y-107425788D01*
X97250500Y-107385057D01*
X97250500Y-107343104D01*
X97250952Y-107335624D01*
X97252471Y-107323115D01*
X97255278Y-107300000D01*
X97250951Y-107264368D01*
X97250500Y-107256895D01*
X97250500Y-107214945D01*
X97245136Y-107193182D01*
X97240456Y-107174194D01*
X97239111Y-107166853D01*
X97236237Y-107143182D01*
X97227787Y-107120901D01*
X97225557Y-107113745D01*
X97212979Y-107062715D01*
X97209790Y-107049775D01*
X97130734Y-106899148D01*
X97017929Y-106771817D01*
X96962958Y-106733873D01*
X96877931Y-106675182D01*
X96718874Y-106614860D01*
X96718868Y-106614859D01*
X96592374Y-106599500D01*
X96592372Y-106599500D01*
X96251609Y-106599500D01*
X96184570Y-106579815D01*
X96138815Y-106527011D01*
X96128871Y-106457853D01*
X96157896Y-106394297D01*
X96163928Y-106387819D01*
X99489928Y-103061819D01*
X99551251Y-103028334D01*
X99577609Y-103025500D01*
X101852298Y-103025500D01*
X101919337Y-103045185D01*
G37*
%TD.AperFunction*%
%TA.AperFunction,Conductor*%
G36*
X128273949Y-81075185D02*
G01*
X128319704Y-81127989D01*
X128330910Y-81179344D01*
X128332650Y-82559269D01*
X128313050Y-82626333D01*
X128260304Y-82672154D01*
X128258053Y-82673159D01*
X128184431Y-82705138D01*
X127944757Y-82850886D01*
X127727154Y-83027919D01*
X127535692Y-83232925D01*
X127535692Y-83232926D01*
X127535689Y-83232928D01*
X127535688Y-83232931D01*
X127479041Y-83313181D01*
X127373919Y-83462103D01*
X127244863Y-83711171D01*
X127150926Y-83975483D01*
X127150921Y-83975500D01*
X127093852Y-84250135D01*
X127093851Y-84250137D01*
X127074709Y-84529999D01*
X127093851Y-84809862D01*
X127093852Y-84809864D01*
X127150921Y-85084499D01*
X127150926Y-85084516D01*
X127236443Y-85325136D01*
X127244864Y-85348830D01*
X127373919Y-85597896D01*
X127535688Y-85827069D01*
X127535692Y-85827073D01*
X127535692Y-85827074D01*
X127711076Y-86014865D01*
X127727155Y-86032081D01*
X127944754Y-86209111D01*
X127944756Y-86209112D01*
X127944757Y-86209113D01*
X128015621Y-86252206D01*
X128184432Y-86354862D01*
X128263025Y-86388999D01*
X128316670Y-86433761D01*
X128337600Y-86500422D01*
X128337622Y-86502577D01*
X128361638Y-105546678D01*
X128342038Y-105613742D01*
X128289292Y-105659563D01*
X128287041Y-105660568D01*
X128184425Y-105705141D01*
X127944757Y-105850886D01*
X127727154Y-106027919D01*
X127535692Y-106232925D01*
X127535692Y-106232926D01*
X127535689Y-106232928D01*
X127535688Y-106232931D01*
X127491538Y-106295477D01*
X127373919Y-106462103D01*
X127244863Y-106711171D01*
X127150926Y-106975483D01*
X127150921Y-106975500D01*
X127093852Y-107250135D01*
X127093851Y-107250137D01*
X127074709Y-107530000D01*
X127093851Y-107809862D01*
X127093852Y-107809864D01*
X127150921Y-108084499D01*
X127150926Y-108084516D01*
X127244863Y-108348828D01*
X127244864Y-108348830D01*
X127373919Y-108597896D01*
X127535688Y-108827069D01*
X127535692Y-108827073D01*
X127535692Y-108827074D01*
X127727154Y-109032080D01*
X127727155Y-109032081D01*
X127944754Y-109209111D01*
X127944756Y-109209112D01*
X127944757Y-109209113D01*
X128184429Y-109354861D01*
X128184434Y-109354863D01*
X128292045Y-109401605D01*
X128345690Y-109446367D01*
X128366620Y-109513028D01*
X128366642Y-109515182D01*
X128368364Y-110880344D01*
X128348764Y-110947408D01*
X128296018Y-110993229D01*
X128244364Y-111004500D01*
X122887399Y-111004500D01*
X122820360Y-110984815D01*
X122774605Y-110932011D01*
X122764661Y-110862853D01*
X122793686Y-110799297D01*
X122808734Y-110784647D01*
X122844936Y-110754936D01*
X122965961Y-110607467D01*
X122977711Y-110593150D01*
X123076372Y-110408569D01*
X123137127Y-110208286D01*
X123157641Y-110000000D01*
X123137127Y-109791714D01*
X123076372Y-109591431D01*
X122977711Y-109406850D01*
X122952329Y-109375922D01*
X122844936Y-109245063D01*
X122683153Y-109112291D01*
X122683151Y-109112290D01*
X122683150Y-109112289D01*
X122498569Y-109013628D01*
X122394813Y-108982154D01*
X122298284Y-108952872D01*
X122090000Y-108932359D01*
X121881715Y-108952872D01*
X121681428Y-109013629D01*
X121496846Y-109112291D01*
X121335063Y-109245063D01*
X121202291Y-109406846D01*
X121103629Y-109591428D01*
X121042872Y-109791715D01*
X121022359Y-110000000D01*
X121042872Y-110208284D01*
X121073250Y-110308427D01*
X121103628Y-110408569D01*
X121190385Y-110570880D01*
X121202291Y-110593153D01*
X121335063Y-110754936D01*
X121371266Y-110784647D01*
X121410600Y-110842393D01*
X121412471Y-110912237D01*
X121376283Y-110972006D01*
X121313527Y-111002721D01*
X121292601Y-111004500D01*
X120347399Y-111004500D01*
X120280360Y-110984815D01*
X120234605Y-110932011D01*
X120224661Y-110862853D01*
X120253686Y-110799297D01*
X120268734Y-110784647D01*
X120304936Y-110754936D01*
X120425961Y-110607467D01*
X120437711Y-110593150D01*
X120536372Y-110408569D01*
X120597127Y-110208286D01*
X120617641Y-110000000D01*
X120597127Y-109791714D01*
X120563518Y-109680922D01*
X120562896Y-109611056D01*
X120594497Y-109557249D01*
X121374553Y-108777195D01*
X121402231Y-108749517D01*
X121405773Y-108739000D01*
X121409495Y-108731695D01*
X121419647Y-108715126D01*
X121433849Y-108695581D01*
X121441309Y-108672616D01*
X121448759Y-108654634D01*
X121450321Y-108651570D01*
X121459719Y-108633126D01*
X121463495Y-108609276D01*
X121468036Y-108590360D01*
X121475500Y-108567393D01*
X121475500Y-108432607D01*
X121475500Y-107198027D01*
X121495185Y-107130988D01*
X121547989Y-107085233D01*
X121549279Y-107084652D01*
X121622765Y-107052206D01*
X121702206Y-106972765D01*
X121747585Y-106869991D01*
X121750500Y-106844865D01*
X121750499Y-106155136D01*
X121750497Y-106155117D01*
X121747586Y-106130012D01*
X121747585Y-106130010D01*
X121747585Y-106130009D01*
X121702206Y-106027235D01*
X121662650Y-105987679D01*
X121629166Y-105926359D01*
X121634150Y-105856668D01*
X121662650Y-105812320D01*
X121702206Y-105772765D01*
X121747585Y-105669991D01*
X121750500Y-105644865D01*
X121750499Y-104955136D01*
X121750074Y-104951470D01*
X121747586Y-104930012D01*
X121747585Y-104930010D01*
X121747585Y-104930009D01*
X121702206Y-104827235D01*
X121622765Y-104747794D01*
X121553413Y-104717172D01*
X121519992Y-104702415D01*
X121494868Y-104699500D01*
X121494865Y-104699500D01*
X121431431Y-104699500D01*
X121373805Y-104685296D01*
X121282365Y-104637304D01*
X121282364Y-104637303D01*
X121282363Y-104637303D01*
X121128986Y-104599500D01*
X121128985Y-104599500D01*
X120971015Y-104599500D01*
X120817633Y-104637304D01*
X120726189Y-104685297D01*
X120668566Y-104699500D01*
X120505143Y-104699500D01*
X120505118Y-104699502D01*
X120480011Y-104702414D01*
X120399585Y-104737925D01*
X120330307Y-104746996D01*
X120267122Y-104717172D01*
X120230092Y-104657922D01*
X120225500Y-104624490D01*
X120225500Y-103182606D01*
X120225499Y-103182601D01*
X120218039Y-103159643D01*
X120213495Y-103140719D01*
X120212937Y-103137196D01*
X120209719Y-103116874D01*
X120198757Y-103095362D01*
X120191309Y-103077379D01*
X120186892Y-103063784D01*
X120183850Y-103054419D01*
X120169653Y-103034878D01*
X120159491Y-103018296D01*
X120148528Y-102996780D01*
X120070659Y-102918911D01*
X120070658Y-102918909D01*
X119412464Y-102260715D01*
X117452194Y-100300446D01*
X117452193Y-100300446D01*
X117428220Y-100276472D01*
X117428219Y-100276471D01*
X117428216Y-100276469D01*
X117406703Y-100265508D01*
X117390111Y-100255341D01*
X117370581Y-100241151D01*
X117370579Y-100241150D01*
X117370580Y-100241150D01*
X117347615Y-100233688D01*
X117329641Y-100226243D01*
X117308127Y-100215281D01*
X117303010Y-100214470D01*
X117284273Y-100211503D01*
X117265358Y-100206962D01*
X117242394Y-100199500D01*
X117242393Y-100199500D01*
X117208488Y-100199500D01*
X116422702Y-100199500D01*
X116355663Y-100179815D01*
X116340482Y-100168321D01*
X116263680Y-100100281D01*
X116247237Y-100085714D01*
X116107365Y-100012303D01*
X115953986Y-99974500D01*
X115953985Y-99974500D01*
X115796015Y-99974500D01*
X115796014Y-99974500D01*
X115642634Y-100012303D01*
X115502762Y-100085715D01*
X115384513Y-100190473D01*
X115382686Y-100193121D01*
X115380849Y-100194608D01*
X115379543Y-100196084D01*
X115379297Y-100195866D01*
X115328401Y-100237109D01*
X115258952Y-100244765D01*
X115196389Y-100213658D01*
X115178590Y-100193116D01*
X115167628Y-100177235D01*
X115090483Y-100065470D01*
X114972240Y-99960717D01*
X114943201Y-99945476D01*
X114891873Y-99918536D01*
X114841661Y-99869951D01*
X114825500Y-99808740D01*
X114825500Y-92977609D01*
X114845185Y-92910570D01*
X114861819Y-92889928D01*
X115429422Y-92322325D01*
X116017978Y-91733768D01*
X116079299Y-91700285D01*
X116148991Y-91705269D01*
X116204924Y-91747141D01*
X116221599Y-91777480D01*
X116269780Y-91904523D01*
X116359517Y-92034530D01*
X116477760Y-92139283D01*
X116477762Y-92139284D01*
X116617634Y-92212696D01*
X116771014Y-92250500D01*
X116771015Y-92250500D01*
X116928985Y-92250500D01*
X117082365Y-92212696D01*
X117222237Y-92139285D01*
X117222238Y-92139283D01*
X117222240Y-92139283D01*
X117268274Y-92098500D01*
X117331504Y-92068781D01*
X117400768Y-92077963D01*
X117454071Y-92123135D01*
X117474492Y-92189954D01*
X117474499Y-92191317D01*
X117474499Y-93672389D01*
X117454814Y-93739428D01*
X117438180Y-93760070D01*
X115929339Y-95268912D01*
X115851472Y-95346778D01*
X115840510Y-95368293D01*
X115830346Y-95384878D01*
X115816152Y-95404414D01*
X115816151Y-95404417D01*
X115808688Y-95427385D01*
X115801243Y-95445358D01*
X115790280Y-95466873D01*
X115786503Y-95490722D01*
X115781962Y-95509639D01*
X115774500Y-95532604D01*
X115774500Y-97117394D01*
X115781962Y-97140358D01*
X115786503Y-97159273D01*
X115787135Y-97163262D01*
X115790281Y-97183127D01*
X115801243Y-97204641D01*
X115808688Y-97222615D01*
X115816150Y-97245580D01*
X115830340Y-97265110D01*
X115840508Y-97281703D01*
X115851470Y-97303218D01*
X115858403Y-97310151D01*
X115891888Y-97371474D01*
X115894722Y-97397832D01*
X115894721Y-97400000D01*
X115913762Y-97556818D01*
X115943592Y-97635471D01*
X115969780Y-97704523D01*
X116059517Y-97834530D01*
X116177760Y-97939283D01*
X116177762Y-97939284D01*
X116317634Y-98012696D01*
X116471014Y-98050500D01*
X116471015Y-98050500D01*
X116628985Y-98050500D01*
X116782365Y-98012696D01*
X116802028Y-98002376D01*
X116922240Y-97939283D01*
X117040483Y-97834530D01*
X117130220Y-97704523D01*
X117186237Y-97556818D01*
X117205278Y-97400000D01*
X117186237Y-97243182D01*
X117151079Y-97150479D01*
X117145713Y-97080821D01*
X117178860Y-97019315D01*
X117237348Y-96986115D01*
X117332365Y-96962696D01*
X117342872Y-96957181D01*
X117411377Y-96943454D01*
X117476431Y-96968943D01*
X117517378Y-97025557D01*
X117524500Y-97066976D01*
X117524499Y-98917391D01*
X117524500Y-98917394D01*
X117531962Y-98940358D01*
X117536503Y-98959273D01*
X117538769Y-98973579D01*
X117540281Y-98983127D01*
X117551243Y-99004641D01*
X117558688Y-99022615D01*
X117566150Y-99045580D01*
X117580340Y-99065110D01*
X117590508Y-99081703D01*
X117601470Y-99103218D01*
X117601472Y-99103219D01*
X117601472Y-99103220D01*
X117625446Y-99127194D01*
X120301472Y-101803220D01*
X120396780Y-101898528D01*
X120418296Y-101909491D01*
X120434878Y-101919653D01*
X120448082Y-101929246D01*
X120454419Y-101933850D01*
X120477383Y-101941311D01*
X120495362Y-101948757D01*
X120516874Y-101959719D01*
X120540721Y-101963495D01*
X120559643Y-101968039D01*
X120582601Y-101975499D01*
X120582607Y-101975500D01*
X123567392Y-101975500D01*
X123567393Y-101975500D01*
X123590360Y-101968036D01*
X123609276Y-101963495D01*
X123633126Y-101959719D01*
X123654636Y-101948757D01*
X123672614Y-101941310D01*
X123695581Y-101933849D01*
X123715118Y-101919653D01*
X123731706Y-101909488D01*
X123753220Y-101898528D01*
X123848528Y-101803220D01*
X123848528Y-101803219D01*
X124264554Y-101387194D01*
X124264554Y-101387193D01*
X124288528Y-101363220D01*
X124299488Y-101341706D01*
X124309653Y-101325118D01*
X124323849Y-101305581D01*
X124331310Y-101282614D01*
X124338759Y-101264634D01*
X124349718Y-101243128D01*
X124349718Y-101243127D01*
X124349719Y-101243126D01*
X124353495Y-101219276D01*
X124358036Y-101200361D01*
X124362609Y-101186287D01*
X124402046Y-101128616D01*
X124435051Y-101109255D01*
X124443658Y-101105862D01*
X124561500Y-101016500D01*
X124650862Y-100898658D01*
X124705117Y-100761077D01*
X124715500Y-100674618D01*
X124715500Y-100090382D01*
X124714939Y-100085714D01*
X124710591Y-100049502D01*
X124705117Y-100003923D01*
X124650862Y-99866342D01*
X124614099Y-99817862D01*
X124561500Y-99748499D01*
X124443660Y-99659139D01*
X124443658Y-99659138D01*
X124363062Y-99627355D01*
X124306075Y-99604882D01*
X124253614Y-99598582D01*
X124189400Y-99571044D01*
X124150269Y-99513160D01*
X124148643Y-99443310D01*
X124185040Y-99383669D01*
X124214589Y-99363752D01*
X124244855Y-99349176D01*
X124283867Y-99337783D01*
X124306077Y-99335117D01*
X124443658Y-99280862D01*
X124561500Y-99191500D01*
X124650862Y-99073658D01*
X124705117Y-98936077D01*
X124713580Y-98865605D01*
X124741116Y-98801395D01*
X124754461Y-98787585D01*
X124768183Y-98775429D01*
X124803421Y-98724376D01*
X124805613Y-98721396D01*
X124843878Y-98672557D01*
X124848034Y-98663321D01*
X124859062Y-98643766D01*
X124864818Y-98635430D01*
X124886816Y-98577425D01*
X124888229Y-98574012D01*
X124913695Y-98517432D01*
X124915521Y-98507461D01*
X124921552Y-98485831D01*
X124925140Y-98476371D01*
X124925140Y-98476368D01*
X124932613Y-98414825D01*
X124933177Y-98411121D01*
X124937447Y-98387814D01*
X124944358Y-98350106D01*
X124941245Y-98298661D01*
X124940613Y-98288196D01*
X124940500Y-98284451D01*
X124940500Y-98065107D01*
X124960185Y-97998068D01*
X125012989Y-97952313D01*
X125082147Y-97942369D01*
X125109990Y-97949753D01*
X125198174Y-97984528D01*
X125243436Y-98002377D01*
X125331898Y-98013000D01*
X125331903Y-98013000D01*
X126268097Y-98013000D01*
X126268102Y-98013000D01*
X126356564Y-98002377D01*
X126497342Y-97946861D01*
X126617922Y-97855422D01*
X126709361Y-97734842D01*
X126764877Y-97594064D01*
X126775500Y-97505602D01*
X126775500Y-97033676D01*
X126787781Y-96979873D01*
X126793039Y-96968955D01*
X126802860Y-96948561D01*
X126812158Y-96907821D01*
X126814071Y-96901180D01*
X126827868Y-96861755D01*
X126832543Y-96820260D01*
X126833708Y-96813405D01*
X126841801Y-96777945D01*
X126843000Y-96772694D01*
X126843000Y-96592306D01*
X126843000Y-96567644D01*
X126842999Y-96567638D01*
X126842999Y-95988876D01*
X126842999Y-95390900D01*
X126851645Y-95345417D01*
X126870117Y-95298577D01*
X126880500Y-95212118D01*
X126880500Y-95089235D01*
X126885237Y-95061363D01*
X126883819Y-95061040D01*
X126885365Y-95054263D01*
X126885368Y-95054255D01*
X126890043Y-95012760D01*
X126891208Y-95005905D01*
X126899405Y-94969990D01*
X126900500Y-94965194D01*
X126900500Y-94784806D01*
X126900500Y-94784805D01*
X126900500Y-93240046D01*
X126885368Y-93105745D01*
X126885184Y-93105219D01*
X126882458Y-93097427D01*
X126875500Y-93056474D01*
X126875500Y-93042881D01*
X126867661Y-92977609D01*
X126865117Y-92956423D01*
X126810862Y-92818842D01*
X126810045Y-92817764D01*
X126721500Y-92700999D01*
X126603660Y-92611639D01*
X126603654Y-92611636D01*
X126466079Y-92557383D01*
X126446331Y-92555011D01*
X126420165Y-92548937D01*
X126380179Y-92534945D01*
X126323403Y-92494223D01*
X126297656Y-92429270D01*
X126311113Y-92360709D01*
X126359500Y-92310306D01*
X126406341Y-92294790D01*
X126466077Y-92287617D01*
X126603658Y-92233362D01*
X126721500Y-92144000D01*
X126810862Y-92026158D01*
X126865117Y-91888577D01*
X126872583Y-91826398D01*
X126878656Y-91800236D01*
X126907868Y-91716755D01*
X126909508Y-91702206D01*
X126922230Y-91589284D01*
X126923000Y-91582454D01*
X126923000Y-90440906D01*
X126931645Y-90395417D01*
X126950117Y-90348577D01*
X126960500Y-90262118D01*
X126960500Y-89702882D01*
X126950117Y-89616423D01*
X126931645Y-89569580D01*
X126923000Y-89524091D01*
X126923000Y-87224650D01*
X126926109Y-87197057D01*
X126928794Y-87185296D01*
X126950500Y-87090194D01*
X126950500Y-86909806D01*
X126950499Y-86909804D01*
X126950499Y-86909799D01*
X126910360Y-86733938D01*
X126832094Y-86571416D01*
X126832092Y-86571413D01*
X126719621Y-86430379D01*
X126578587Y-86317908D01*
X126578586Y-86317907D01*
X126578583Y-86317905D01*
X126416060Y-86239639D01*
X126416062Y-86239639D01*
X126240200Y-86199500D01*
X126240194Y-86199500D01*
X126059806Y-86199500D01*
X126059799Y-86199500D01*
X125883938Y-86239639D01*
X125721416Y-86317905D01*
X125721411Y-86317908D01*
X125628337Y-86392133D01*
X125622664Y-86396159D01*
X125620240Y-86397681D01*
X125492686Y-86525235D01*
X125492683Y-86525239D01*
X125470466Y-86560596D01*
X125466441Y-86566269D01*
X125440410Y-86598910D01*
X125422291Y-86636533D01*
X125418927Y-86642620D01*
X125396712Y-86677976D01*
X125396708Y-86677983D01*
X125382916Y-86717395D01*
X125380255Y-86723820D01*
X125362139Y-86761439D01*
X125352844Y-86802159D01*
X125350919Y-86808841D01*
X125337132Y-86848244D01*
X125332455Y-86889735D01*
X125331291Y-86896588D01*
X125326588Y-86917200D01*
X125292484Y-86978181D01*
X125230824Y-87011043D01*
X125161187Y-87005353D01*
X125148069Y-86999412D01*
X125077365Y-86962303D01*
X124923986Y-86924500D01*
X124923985Y-86924500D01*
X124766015Y-86924500D01*
X124766014Y-86924500D01*
X124612634Y-86962303D01*
X124472762Y-87035715D01*
X124354516Y-87140471D01*
X124264781Y-87270475D01*
X124264780Y-87270476D01*
X124208762Y-87418181D01*
X124189721Y-87574999D01*
X124189721Y-87575000D01*
X124208762Y-87731814D01*
X124208763Y-87731820D01*
X124226346Y-87778181D01*
X124241441Y-87817985D01*
X124249499Y-87861954D01*
X124249498Y-88720612D01*
X124229813Y-88787652D01*
X124213179Y-88808293D01*
X124014881Y-89006593D01*
X123966457Y-89051817D01*
X123943456Y-89089639D01*
X123939884Y-89094888D01*
X123913139Y-89130158D01*
X123913136Y-89130163D01*
X123906555Y-89146852D01*
X123897153Y-89165783D01*
X123887826Y-89181120D01*
X123887825Y-89181122D01*
X123882110Y-89201520D01*
X123845067Y-89260762D01*
X123837635Y-89266865D01*
X123713499Y-89360999D01*
X123623304Y-89479941D01*
X123567112Y-89521465D01*
X123497390Y-89526016D01*
X123436276Y-89492151D01*
X123403173Y-89430622D01*
X123400500Y-89405016D01*
X123400500Y-84773035D01*
X123400613Y-84769290D01*
X123404357Y-84707394D01*
X123393177Y-84646386D01*
X123392615Y-84642689D01*
X123385140Y-84581129D01*
X123385139Y-84581125D01*
X123381546Y-84571651D01*
X123375519Y-84550029D01*
X123373694Y-84540070D01*
X123373694Y-84540068D01*
X123373529Y-84539702D01*
X123348243Y-84483520D01*
X123346809Y-84480057D01*
X123337487Y-84455477D01*
X123324818Y-84422070D01*
X123319060Y-84413728D01*
X123308032Y-84394176D01*
X123303877Y-84384943D01*
X123303876Y-84384942D01*
X123303875Y-84384939D01*
X123265639Y-84336137D01*
X123263428Y-84333133D01*
X123245490Y-84307145D01*
X123228185Y-84282073D01*
X123228183Y-84282071D01*
X123181742Y-84240928D01*
X123179048Y-84238392D01*
X122511598Y-83570941D01*
X122509064Y-83568250D01*
X122467929Y-83521817D01*
X122467928Y-83521816D01*
X122467924Y-83521812D01*
X122416896Y-83486591D01*
X122413887Y-83484377D01*
X122365060Y-83446124D01*
X122365055Y-83446120D01*
X122355813Y-83441961D01*
X122336266Y-83430936D01*
X122327931Y-83425183D01*
X122327932Y-83425183D01*
X122327930Y-83425182D01*
X122269941Y-83403189D01*
X122266490Y-83401759D01*
X122209930Y-83376304D01*
X122199946Y-83374474D01*
X122178343Y-83368451D01*
X122168874Y-83364860D01*
X122161586Y-83363064D01*
X122162269Y-83360289D01*
X122110279Y-83337887D01*
X122071246Y-83279937D01*
X122069741Y-83210083D01*
X122106239Y-83150505D01*
X122169155Y-83120117D01*
X122177264Y-83119046D01*
X122298286Y-83107127D01*
X122498569Y-83046372D01*
X122683150Y-82947711D01*
X122844936Y-82814936D01*
X122977711Y-82653150D01*
X123076372Y-82468569D01*
X123137127Y-82268286D01*
X123157641Y-82060000D01*
X123137127Y-81851714D01*
X123076372Y-81651431D01*
X122977711Y-81466850D01*
X122967171Y-81454007D01*
X122844936Y-81305063D01*
X122808734Y-81275353D01*
X122769400Y-81217607D01*
X122767529Y-81147763D01*
X122803717Y-81087994D01*
X122866473Y-81057279D01*
X122887399Y-81055500D01*
X128206910Y-81055500D01*
X128273949Y-81075185D01*
G37*
%TD.AperFunction*%
%TA.AperFunction,Conductor*%
G36*
X113293834Y-92710428D02*
G01*
X113349767Y-92752300D01*
X113374184Y-92817764D01*
X113374500Y-92826610D01*
X113374500Y-93514387D01*
X113354815Y-93581426D01*
X113302011Y-93627181D01*
X113232853Y-93637125D01*
X113179836Y-93612913D01*
X113178412Y-93614977D01*
X113172238Y-93610715D01*
X113032365Y-93537303D01*
X112878986Y-93499500D01*
X112878985Y-93499500D01*
X112721015Y-93499500D01*
X112721014Y-93499500D01*
X112567634Y-93537303D01*
X112427762Y-93610714D01*
X112379826Y-93653182D01*
X112334522Y-93693317D01*
X112271292Y-93723037D01*
X112252298Y-93724500D01*
X108253104Y-93724500D01*
X108230139Y-93731962D01*
X108211222Y-93736503D01*
X108187373Y-93740280D01*
X108165858Y-93751243D01*
X108147885Y-93758688D01*
X108124917Y-93766151D01*
X108124914Y-93766152D01*
X108105378Y-93780346D01*
X108088793Y-93790510D01*
X108067280Y-93801471D01*
X108058753Y-93809999D01*
X108043306Y-93825446D01*
X106950652Y-94918100D01*
X105858571Y-96010181D01*
X105797248Y-96043666D01*
X105770890Y-96046500D01*
X105694514Y-96046500D01*
X105541134Y-96084303D01*
X105401262Y-96157715D01*
X105322431Y-96227552D01*
X105286370Y-96259500D01*
X105283016Y-96262471D01*
X105193281Y-96392475D01*
X105193280Y-96392476D01*
X105137262Y-96540181D01*
X105118222Y-96696999D01*
X105118222Y-96697000D01*
X105137262Y-96853818D01*
X105188653Y-96989323D01*
X105193280Y-97001523D01*
X105283017Y-97131530D01*
X105401260Y-97236283D01*
X105401262Y-97236284D01*
X105541134Y-97309696D01*
X105694514Y-97347500D01*
X105694515Y-97347500D01*
X105852485Y-97347500D01*
X106005865Y-97309696D01*
X106034437Y-97294700D01*
X106145740Y-97236283D01*
X106263983Y-97131530D01*
X106353720Y-97001523D01*
X106409737Y-96853818D01*
X106428778Y-96697000D01*
X106428778Y-96696999D01*
X106428778Y-96694831D01*
X106429227Y-96693301D01*
X106429682Y-96689555D01*
X106430305Y-96689630D01*
X106448463Y-96627792D01*
X106465097Y-96607150D01*
X108460429Y-94611819D01*
X108521752Y-94578334D01*
X108548110Y-94575500D01*
X112252298Y-94575500D01*
X112319337Y-94595185D01*
X112334517Y-94606678D01*
X112398191Y-94663087D01*
X112427762Y-94689285D01*
X112567634Y-94762696D01*
X112721014Y-94800500D01*
X112721015Y-94800500D01*
X112878985Y-94800500D01*
X113032365Y-94762696D01*
X113172238Y-94689284D01*
X113172237Y-94689284D01*
X113172240Y-94689283D01*
X113172241Y-94689281D01*
X113178412Y-94685023D01*
X113179986Y-94687304D01*
X113231431Y-94663087D01*
X113300700Y-94672228D01*
X113354031Y-94717368D01*
X113374491Y-94784175D01*
X113374499Y-94785612D01*
X113374500Y-99747389D01*
X113354815Y-99814428D01*
X113338181Y-99835070D01*
X112062180Y-101111070D01*
X112000857Y-101144555D01*
X111931165Y-101139571D01*
X111875232Y-101097699D01*
X111850815Y-101032235D01*
X111850499Y-101023414D01*
X111850499Y-100823773D01*
X111858558Y-100779802D01*
X111886236Y-100706823D01*
X111886236Y-100706820D01*
X111886235Y-100706820D01*
X111886237Y-100706818D01*
X111905278Y-100550000D01*
X111886237Y-100393182D01*
X111869792Y-100349820D01*
X111858557Y-100320195D01*
X111850499Y-100276224D01*
X111850499Y-100055143D01*
X111850499Y-100055136D01*
X111850462Y-100054815D01*
X111847586Y-100030012D01*
X111847585Y-100030010D01*
X111847585Y-100030009D01*
X111802206Y-99927235D01*
X111722765Y-99847794D01*
X111693948Y-99835070D01*
X111619992Y-99802415D01*
X111594865Y-99799500D01*
X110905143Y-99799500D01*
X110905117Y-99799502D01*
X110880012Y-99802413D01*
X110880008Y-99802415D01*
X110777235Y-99847793D01*
X110777234Y-99847794D01*
X110737681Y-99887348D01*
X110676358Y-99920833D01*
X110606666Y-99915849D01*
X110562319Y-99887348D01*
X110522765Y-99847794D01*
X110419992Y-99802415D01*
X110394865Y-99799500D01*
X109705143Y-99799500D01*
X109705117Y-99799502D01*
X109680012Y-99802413D01*
X109680008Y-99802415D01*
X109577235Y-99847793D01*
X109497794Y-99927234D01*
X109460990Y-100010587D01*
X109415904Y-100063963D01*
X109349117Y-100084490D01*
X109347556Y-100084500D01*
X108822604Y-100084500D01*
X108799639Y-100091962D01*
X108780722Y-100096503D01*
X108756873Y-100100280D01*
X108735358Y-100111243D01*
X108717385Y-100118688D01*
X108694417Y-100126151D01*
X108694414Y-100126152D01*
X108674878Y-100140346D01*
X108658293Y-100150510D01*
X108636780Y-100161471D01*
X108629936Y-100168316D01*
X108612806Y-100185446D01*
X108561143Y-100237109D01*
X108411968Y-100386283D01*
X108350645Y-100419768D01*
X108280953Y-100414784D01*
X108225020Y-100372912D01*
X108200603Y-100307448D01*
X108201190Y-100283661D01*
X108205278Y-100250000D01*
X108186237Y-100093182D01*
X108185774Y-100091962D01*
X108152386Y-100003924D01*
X108130220Y-99945477D01*
X108040483Y-99815470D01*
X107922240Y-99710717D01*
X107922238Y-99710716D01*
X107922237Y-99710715D01*
X107782365Y-99637303D01*
X107628986Y-99599500D01*
X107628985Y-99599500D01*
X107471015Y-99599500D01*
X107471014Y-99599500D01*
X107317634Y-99637303D01*
X107177762Y-99710715D01*
X107125722Y-99756818D01*
X107066087Y-99809650D01*
X107059516Y-99815471D01*
X106969781Y-99945474D01*
X106969779Y-99945477D01*
X106969780Y-99945477D01*
X106955200Y-99983923D01*
X106951199Y-99994472D01*
X106909021Y-100050174D01*
X106843423Y-100074231D01*
X106835257Y-100074500D01*
X105345401Y-100074500D01*
X105278362Y-100054815D01*
X105232607Y-100002011D01*
X105222663Y-99932853D01*
X105229459Y-99906529D01*
X105233651Y-99895477D01*
X105286237Y-99756818D01*
X105305278Y-99600000D01*
X105303737Y-99587304D01*
X105286237Y-99443181D01*
X105247196Y-99340240D01*
X105230220Y-99295477D01*
X105140483Y-99165470D01*
X105022240Y-99060717D01*
X105022238Y-99060716D01*
X105022237Y-99060715D01*
X104882365Y-98987303D01*
X104728986Y-98949500D01*
X104728985Y-98949500D01*
X104571015Y-98949500D01*
X104571009Y-98949500D01*
X104568726Y-98949777D01*
X104567061Y-98949500D01*
X104563515Y-98949500D01*
X104563514Y-98948910D01*
X104499804Y-98938311D01*
X104466109Y-98914361D01*
X104189819Y-98638070D01*
X104156334Y-98576747D01*
X104153500Y-98550389D01*
X104153500Y-96143245D01*
X104155027Y-96123846D01*
X104158804Y-96100000D01*
X104158804Y-96099999D01*
X104155027Y-96076153D01*
X104153500Y-96056754D01*
X104153500Y-95439907D01*
X104173185Y-95372868D01*
X104195270Y-95347094D01*
X104218483Y-95326530D01*
X104308220Y-95196523D01*
X104364237Y-95048818D01*
X104383278Y-94892000D01*
X104370263Y-94784806D01*
X104364237Y-94735181D01*
X104331932Y-94650000D01*
X104308220Y-94587477D01*
X104218483Y-94457470D01*
X104100240Y-94352717D01*
X104100238Y-94352716D01*
X104100237Y-94352715D01*
X103960366Y-94279304D01*
X103802693Y-94240442D01*
X103742313Y-94205286D01*
X103710524Y-94143067D01*
X103717420Y-94073538D01*
X103744684Y-94032367D01*
X104715233Y-93061819D01*
X104776557Y-93028334D01*
X104802915Y-93025500D01*
X112767392Y-93025500D01*
X112767393Y-93025500D01*
X112790360Y-93018036D01*
X112809276Y-93013495D01*
X112833126Y-93009719D01*
X112854636Y-92998757D01*
X112872614Y-92991310D01*
X112895581Y-92983849D01*
X112915118Y-92969653D01*
X112931706Y-92959488D01*
X112953220Y-92948528D01*
X113048528Y-92853220D01*
X113162819Y-92738928D01*
X113224142Y-92705444D01*
X113293834Y-92710428D01*
G37*
%TD.AperFunction*%
%TA.AperFunction,Conductor*%
G36*
X119149587Y-97151036D02*
G01*
X119152233Y-97152204D01*
X119152235Y-97152206D01*
X119255009Y-97197585D01*
X119280135Y-97200500D01*
X120919864Y-97200499D01*
X120919879Y-97200497D01*
X120919882Y-97200497D01*
X120944986Y-97197586D01*
X120944987Y-97197585D01*
X120944991Y-97197585D01*
X121022727Y-97163261D01*
X121092000Y-97154190D01*
X121155185Y-97184013D01*
X121160490Y-97189015D01*
X121263181Y-97291706D01*
X121296666Y-97353029D01*
X121299500Y-97379386D01*
X121299500Y-98018102D01*
X121297386Y-98080009D01*
X121297238Y-98084329D01*
X121307715Y-98127319D01*
X121308901Y-98133561D01*
X121314929Y-98177420D01*
X121322079Y-98193879D01*
X121328819Y-98213920D01*
X121333067Y-98231352D01*
X121354763Y-98269939D01*
X121357582Y-98275615D01*
X121369573Y-98303220D01*
X121375221Y-98316222D01*
X121386541Y-98330136D01*
X121398439Y-98347617D01*
X121407234Y-98363260D01*
X121407236Y-98363261D01*
X121438532Y-98394557D01*
X121442783Y-98399266D01*
X121470722Y-98433608D01*
X121485381Y-98443955D01*
X121501552Y-98457577D01*
X121570320Y-98526345D01*
X121603805Y-98587668D01*
X121605859Y-98600143D01*
X121624630Y-98766746D01*
X121624631Y-98766753D01*
X121627541Y-98775067D01*
X121634500Y-98816023D01*
X121634500Y-98829618D01*
X121644882Y-98916074D01*
X121644882Y-98916075D01*
X121658503Y-98950615D01*
X121695952Y-99045580D01*
X121699139Y-99053660D01*
X121788499Y-99171500D01*
X121815144Y-99191705D01*
X121906342Y-99260862D01*
X121967922Y-99285146D01*
X122023065Y-99328051D01*
X122046258Y-99393959D01*
X122030138Y-99461944D01*
X121979821Y-99510420D01*
X121922431Y-99524500D01*
X120177610Y-99524500D01*
X120110571Y-99504815D01*
X120089929Y-99488181D01*
X119011819Y-98410071D01*
X118978334Y-98348748D01*
X118975500Y-98322390D01*
X118975500Y-97264470D01*
X118995185Y-97197431D01*
X119047989Y-97151676D01*
X119117147Y-97141732D01*
X119149587Y-97151036D01*
G37*
%TD.AperFunction*%
%TA.AperFunction,Conductor*%
G36*
X123605703Y-90466270D02*
G01*
X123623304Y-90485058D01*
X123713499Y-90604000D01*
X123797925Y-90668021D01*
X123839448Y-90724213D01*
X123847000Y-90766825D01*
X123847000Y-90929604D01*
X123832246Y-90985950D01*
X123832250Y-90985952D01*
X123832237Y-90985984D01*
X123831087Y-90990377D01*
X123829140Y-90993839D01*
X123829138Y-90993842D01*
X123815672Y-91027989D01*
X123774882Y-91131424D01*
X123774882Y-91131425D01*
X123764500Y-91217881D01*
X123764500Y-91902118D01*
X123774882Y-91988574D01*
X123774882Y-91988575D01*
X123798908Y-92049500D01*
X123826984Y-92120697D01*
X123829139Y-92126160D01*
X123918499Y-92244000D01*
X124028755Y-92327609D01*
X124036342Y-92333362D01*
X124173923Y-92387617D01*
X124231562Y-92394539D01*
X124260381Y-92398000D01*
X124260382Y-92398000D01*
X124819619Y-92398000D01*
X124841232Y-92395404D01*
X124906077Y-92387617D01*
X125043658Y-92333362D01*
X125161500Y-92244000D01*
X125182619Y-92216150D01*
X125255987Y-92119400D01*
X125257697Y-92120697D01*
X125299358Y-92080042D01*
X125367808Y-92066025D01*
X125432969Y-92091240D01*
X125456254Y-92114666D01*
X125478498Y-92143999D01*
X125573644Y-92216150D01*
X125596342Y-92233362D01*
X125733923Y-92287617D01*
X125793654Y-92294790D01*
X125857863Y-92322325D01*
X125896996Y-92380208D01*
X125898623Y-92450059D01*
X125862228Y-92509700D01*
X125819819Y-92534946D01*
X125779832Y-92548938D01*
X125753668Y-92555011D01*
X125733920Y-92557383D01*
X125596345Y-92611636D01*
X125596339Y-92611639D01*
X125478499Y-92700999D01*
X125389139Y-92818839D01*
X125334882Y-92956424D01*
X125334882Y-92956425D01*
X125324500Y-93042881D01*
X125324500Y-93056474D01*
X125317542Y-93097427D01*
X125314631Y-93105745D01*
X125314631Y-93105746D01*
X125299500Y-93240039D01*
X125299499Y-93240043D01*
X125299499Y-94347105D01*
X125279814Y-94414145D01*
X125274306Y-94422026D01*
X125269139Y-94428839D01*
X125214882Y-94566424D01*
X125214882Y-94566425D01*
X125204500Y-94652881D01*
X125204500Y-95212118D01*
X125214882Y-95298576D01*
X125221875Y-95316307D01*
X125233354Y-95345417D01*
X125242000Y-95390906D01*
X125242000Y-95763795D01*
X125222315Y-95830834D01*
X125169511Y-95876589D01*
X125163490Y-95879149D01*
X125102660Y-95903137D01*
X125102658Y-95903138D01*
X124982077Y-95994577D01*
X124890638Y-96115158D01*
X124890637Y-96115160D01*
X124864677Y-96180990D01*
X124821771Y-96236134D01*
X124755863Y-96259327D01*
X124749323Y-96259500D01*
X124742785Y-96259500D01*
X124692699Y-96248934D01*
X124649838Y-96230009D01*
X124609992Y-96212415D01*
X124584865Y-96209500D01*
X123895143Y-96209500D01*
X123895132Y-96209501D01*
X123882288Y-96210991D01*
X123813427Y-96199159D01*
X123761895Y-96151977D01*
X123747104Y-96104516D01*
X123745710Y-96104772D01*
X123744358Y-96097394D01*
X123733175Y-96036371D01*
X123732613Y-96032674D01*
X123728266Y-95996874D01*
X123725140Y-95971128D01*
X123721548Y-95961656D01*
X123715521Y-95940034D01*
X123713695Y-95930071D01*
X123713695Y-95930069D01*
X123688224Y-95873476D01*
X123686817Y-95870079D01*
X123664818Y-95812070D01*
X123664816Y-95812068D01*
X123664816Y-95812066D01*
X123659062Y-95803731D01*
X123648034Y-95784177D01*
X123643881Y-95774949D01*
X123643878Y-95774945D01*
X123643878Y-95774944D01*
X123605626Y-95726120D01*
X123603416Y-95723115D01*
X123581796Y-95691793D01*
X123568183Y-95672071D01*
X123568181Y-95672069D01*
X123521761Y-95630944D01*
X123519033Y-95628376D01*
X123436818Y-95546161D01*
X123403334Y-95484837D01*
X123400500Y-95458480D01*
X123400500Y-90559983D01*
X123420185Y-90492944D01*
X123472989Y-90447189D01*
X123542147Y-90437245D01*
X123605703Y-90466270D01*
G37*
%TD.AperFunction*%
%TA.AperFunction,Conductor*%
G36*
X116279640Y-81075185D02*
G01*
X116325395Y-81127989D01*
X116335339Y-81197147D01*
X116306314Y-81260703D01*
X116291266Y-81275353D01*
X116255063Y-81305063D01*
X116122291Y-81466846D01*
X116023629Y-81651428D01*
X115962872Y-81851715D01*
X115942359Y-82060000D01*
X115962872Y-82268284D01*
X115993250Y-82368427D01*
X116023628Y-82468569D01*
X116104021Y-82618974D01*
X116122291Y-82653153D01*
X116255063Y-82814936D01*
X116416846Y-82947708D01*
X116416850Y-82947711D01*
X116601431Y-83046372D01*
X116801714Y-83107127D01*
X117010000Y-83127641D01*
X117218286Y-83107127D01*
X117418569Y-83046372D01*
X117603150Y-82947711D01*
X117764936Y-82814936D01*
X117897711Y-82653150D01*
X117996372Y-82468569D01*
X118057127Y-82268286D01*
X118077641Y-82060000D01*
X118057127Y-81851714D01*
X117996372Y-81651431D01*
X117897711Y-81466850D01*
X117887171Y-81454007D01*
X117764936Y-81305063D01*
X117728734Y-81275353D01*
X117689400Y-81217607D01*
X117687529Y-81147763D01*
X117723717Y-81087994D01*
X117786473Y-81057279D01*
X117807399Y-81055500D01*
X118752601Y-81055500D01*
X118819640Y-81075185D01*
X118865395Y-81127989D01*
X118875339Y-81197147D01*
X118846314Y-81260703D01*
X118831266Y-81275353D01*
X118795063Y-81305063D01*
X118662291Y-81466846D01*
X118563629Y-81651428D01*
X118502872Y-81851715D01*
X118482359Y-82060000D01*
X118502872Y-82268284D01*
X118533250Y-82368427D01*
X118563628Y-82468569D01*
X118644021Y-82618974D01*
X118662291Y-82653153D01*
X118728676Y-82734043D01*
X118795064Y-82814936D01*
X118804164Y-82822404D01*
X118843498Y-82880146D01*
X118849500Y-82918257D01*
X118849500Y-83226951D01*
X118849387Y-83230696D01*
X118846525Y-83278016D01*
X118845642Y-83292606D01*
X118856281Y-83350666D01*
X118856821Y-83353612D01*
X118857384Y-83357313D01*
X118864859Y-83418870D01*
X118864860Y-83418874D01*
X118868451Y-83428343D01*
X118874474Y-83449946D01*
X118876304Y-83459930D01*
X118901759Y-83516490D01*
X118903189Y-83519941D01*
X118925182Y-83577930D01*
X118925183Y-83577931D01*
X118930936Y-83586266D01*
X118941961Y-83605813D01*
X118946120Y-83615055D01*
X118946124Y-83615060D01*
X118984371Y-83663878D01*
X118986591Y-83666896D01*
X119021812Y-83717924D01*
X119021816Y-83717928D01*
X119021817Y-83717929D01*
X119068250Y-83759064D01*
X119070941Y-83761598D01*
X119838399Y-84529056D01*
X119840935Y-84531750D01*
X119882071Y-84578183D01*
X119933130Y-84613427D01*
X119936112Y-84615621D01*
X119984944Y-84653878D01*
X119984947Y-84653880D01*
X119984946Y-84653880D01*
X119994177Y-84658034D01*
X120013731Y-84669062D01*
X120022066Y-84674816D01*
X120022068Y-84674816D01*
X120022070Y-84674818D01*
X120080079Y-84696817D01*
X120083476Y-84698224D01*
X120130770Y-84719509D01*
X120140064Y-84723693D01*
X120140065Y-84723693D01*
X120140069Y-84723695D01*
X120150034Y-84725521D01*
X120171656Y-84731548D01*
X120174777Y-84732731D01*
X120181128Y-84735140D01*
X120226251Y-84740618D01*
X120242674Y-84742613D01*
X120246371Y-84743175D01*
X120307394Y-84754358D01*
X120362752Y-84751009D01*
X120369303Y-84750613D01*
X120373048Y-84750500D01*
X121658481Y-84750500D01*
X121725520Y-84770185D01*
X121746162Y-84786819D01*
X121963180Y-85003837D01*
X121996665Y-85065160D01*
X121999499Y-85091518D01*
X121999499Y-85214775D01*
X121979814Y-85281814D01*
X121927010Y-85327569D01*
X121857852Y-85337513D01*
X121794296Y-85308488D01*
X121762067Y-85264864D01*
X121732206Y-85197235D01*
X121652765Y-85117794D01*
X121643991Y-85113920D01*
X121549992Y-85072415D01*
X121524868Y-85069500D01*
X121524865Y-85069500D01*
X121374272Y-85069500D01*
X121316645Y-85055296D01*
X121282363Y-85037303D01*
X121128986Y-84999500D01*
X121128985Y-84999500D01*
X120971015Y-84999500D01*
X120817632Y-85037304D01*
X120783350Y-85055297D01*
X120725727Y-85069500D01*
X120535142Y-85069500D01*
X120535118Y-85069502D01*
X120510011Y-85072414D01*
X120510010Y-85072414D01*
X120445085Y-85101081D01*
X120375807Y-85110152D01*
X120344915Y-85101081D01*
X120279992Y-85072415D01*
X120254868Y-85069500D01*
X120254865Y-85069500D01*
X120046166Y-85069500D01*
X120000069Y-85058137D01*
X119999377Y-85059963D01*
X119992365Y-85057303D01*
X119838986Y-85019500D01*
X119838985Y-85019500D01*
X119681015Y-85019500D01*
X119527634Y-85057304D01*
X119520624Y-85059963D01*
X119519933Y-85058141D01*
X119473835Y-85069500D01*
X119265142Y-85069500D01*
X119265119Y-85069502D01*
X119240011Y-85072414D01*
X119240008Y-85072415D01*
X119137235Y-85117793D01*
X119057794Y-85197234D01*
X119012415Y-85300006D01*
X119012415Y-85300008D01*
X119009500Y-85325131D01*
X119009500Y-86014856D01*
X119009502Y-86014882D01*
X119012413Y-86039987D01*
X119012415Y-86039991D01*
X119057793Y-86142764D01*
X119097348Y-86182319D01*
X119130833Y-86243642D01*
X119125849Y-86313334D01*
X119097348Y-86357681D01*
X119057794Y-86397234D01*
X119012415Y-86500006D01*
X119012415Y-86500008D01*
X119009500Y-86525131D01*
X119009500Y-87075500D01*
X118989815Y-87142539D01*
X118937011Y-87188294D01*
X118885500Y-87199500D01*
X118851431Y-87199500D01*
X118793805Y-87185296D01*
X118702365Y-87137304D01*
X118702364Y-87137303D01*
X118702363Y-87137303D01*
X118548986Y-87099500D01*
X118548985Y-87099500D01*
X118391015Y-87099500D01*
X118237633Y-87137304D01*
X118146189Y-87185297D01*
X118088566Y-87199500D01*
X117995143Y-87199500D01*
X117995118Y-87199502D01*
X117970011Y-87202414D01*
X117970008Y-87202415D01*
X117867235Y-87247793D01*
X117867234Y-87247794D01*
X117837181Y-87277848D01*
X117775858Y-87311333D01*
X117706166Y-87306349D01*
X117650233Y-87264477D01*
X117625816Y-87199013D01*
X117625500Y-87190167D01*
X117625500Y-86832608D01*
X117625499Y-86832604D01*
X117618039Y-86809645D01*
X117613495Y-86790721D01*
X117609719Y-86766874D01*
X117598753Y-86745354D01*
X117591308Y-86727378D01*
X117583849Y-86704420D01*
X117583849Y-86704419D01*
X117569651Y-86684878D01*
X117559492Y-86668299D01*
X117548528Y-86646780D01*
X117453220Y-86551472D01*
X114931819Y-84030071D01*
X114898334Y-83968748D01*
X114895500Y-83942390D01*
X114895500Y-83111644D01*
X114915185Y-83044605D01*
X114961045Y-83002286D01*
X115063150Y-82947711D01*
X115224936Y-82814936D01*
X115357711Y-82653150D01*
X115456372Y-82468569D01*
X115517127Y-82268286D01*
X115537641Y-82060000D01*
X115517127Y-81851714D01*
X115456372Y-81651431D01*
X115357711Y-81466850D01*
X115347171Y-81454007D01*
X115224936Y-81305063D01*
X115188734Y-81275353D01*
X115149400Y-81217607D01*
X115147529Y-81147763D01*
X115183717Y-81087994D01*
X115246473Y-81057279D01*
X115267399Y-81055500D01*
X116212601Y-81055500D01*
X116279640Y-81075185D01*
G37*
%TD.AperFunction*%
%TA.AperFunction,Conductor*%
G36*
X103579640Y-81075185D02*
G01*
X103625395Y-81127989D01*
X103635339Y-81197147D01*
X103606314Y-81260703D01*
X103591266Y-81275353D01*
X103555063Y-81305063D01*
X103422291Y-81466846D01*
X103323629Y-81651428D01*
X103262872Y-81851715D01*
X103242359Y-82059999D01*
X103262872Y-82268284D01*
X103293250Y-82368427D01*
X103323628Y-82468569D01*
X103404021Y-82618974D01*
X103422291Y-82653153D01*
X103555063Y-82814936D01*
X103716846Y-82947708D01*
X103716850Y-82947711D01*
X103901431Y-83046372D01*
X104101714Y-83107127D01*
X104310000Y-83127641D01*
X104518286Y-83107127D01*
X104718569Y-83046372D01*
X104903150Y-82947711D01*
X105064936Y-82814936D01*
X105197711Y-82653150D01*
X105296372Y-82468569D01*
X105357127Y-82268286D01*
X105377641Y-82060000D01*
X105357127Y-81851714D01*
X105296372Y-81651431D01*
X105197711Y-81466850D01*
X105187171Y-81454007D01*
X105064936Y-81305063D01*
X105028734Y-81275353D01*
X104989400Y-81217607D01*
X104987529Y-81147763D01*
X105023717Y-81087994D01*
X105086473Y-81057279D01*
X105107399Y-81055500D01*
X106052601Y-81055500D01*
X106119640Y-81075185D01*
X106165395Y-81127989D01*
X106175339Y-81197147D01*
X106146314Y-81260703D01*
X106131266Y-81275353D01*
X106095063Y-81305063D01*
X105962291Y-81466846D01*
X105863629Y-81651428D01*
X105802872Y-81851715D01*
X105782359Y-82059999D01*
X105802872Y-82268284D01*
X105833250Y-82368427D01*
X105863628Y-82468569D01*
X105944021Y-82618974D01*
X105962291Y-82653153D01*
X106095063Y-82814936D01*
X106256846Y-82947708D01*
X106256850Y-82947711D01*
X106441431Y-83046372D01*
X106641714Y-83107127D01*
X106746702Y-83117467D01*
X106811489Y-83143628D01*
X106851848Y-83200662D01*
X106854965Y-83270462D01*
X106819851Y-83330867D01*
X106792175Y-83350666D01*
X106677758Y-83410717D01*
X106559324Y-83515639D01*
X106525210Y-83535154D01*
X106525566Y-83535853D01*
X106516875Y-83540280D01*
X106516874Y-83540281D01*
X106503499Y-83547095D01*
X106495357Y-83551244D01*
X106477388Y-83558687D01*
X106454417Y-83566151D01*
X106454416Y-83566151D01*
X106434883Y-83580343D01*
X106418301Y-83590505D01*
X106396781Y-83601470D01*
X106396779Y-83601472D01*
X106060071Y-83938181D01*
X105998748Y-83971666D01*
X105972390Y-83974500D01*
X103227610Y-83974500D01*
X103160571Y-83954815D01*
X103139929Y-83938181D01*
X102341891Y-83140143D01*
X102308406Y-83078820D01*
X102313390Y-83009128D01*
X102355262Y-82953195D01*
X102360691Y-82949353D01*
X102363140Y-82947716D01*
X102363150Y-82947711D01*
X102524936Y-82814936D01*
X102657711Y-82653150D01*
X102756372Y-82468569D01*
X102817127Y-82268286D01*
X102837641Y-82060000D01*
X102817127Y-81851714D01*
X102756372Y-81651431D01*
X102657711Y-81466850D01*
X102647171Y-81454007D01*
X102524936Y-81305063D01*
X102488734Y-81275353D01*
X102449400Y-81217607D01*
X102447529Y-81147763D01*
X102483717Y-81087994D01*
X102546473Y-81057279D01*
X102567399Y-81055500D01*
X103512601Y-81055500D01*
X103579640Y-81075185D01*
G37*
%TD.AperFunction*%
%TD*%
M02*
