%TF.GenerationSoftware,KiCad,Pcbnew,7.0.6*%
%TF.CreationDate,2023-10-11T20:15:21+08:00*%
%TF.ProjectId,PCB_ESP32WROOM32E_RPI_Zero_Form_Hackster,5043425f-4553-4503-9332-57524f4f4d33,rev?*%
%TF.SameCoordinates,Original*%
%TF.FileFunction,Copper,L3,Inr*%
%TF.FilePolarity,Positive*%
%FSLAX46Y46*%
G04 Gerber Fmt 4.6, Leading zero omitted, Abs format (unit mm)*
G04 Created by KiCad (PCBNEW 7.0.6) date 2023-10-11 20:15:21*
%MOMM*%
%LPD*%
G01*
G04 APERTURE LIST*
G04 Aperture macros list*
%AMRoundRect*
0 Rectangle with rounded corners*
0 $1 Rounding radius*
0 $2 $3 $4 $5 $6 $7 $8 $9 X,Y pos of 4 corners*
0 Add a 4 corners polygon primitive as box body*
4,1,4,$2,$3,$4,$5,$6,$7,$8,$9,$2,$3,0*
0 Add four circle primitives for the rounded corners*
1,1,$1+$1,$2,$3*
1,1,$1+$1,$4,$5*
1,1,$1+$1,$6,$7*
1,1,$1+$1,$8,$9*
0 Add four rect primitives between the rounded corners*
20,1,$1+$1,$2,$3,$4,$5,0*
20,1,$1+$1,$4,$5,$6,$7,0*
20,1,$1+$1,$6,$7,$8,$9,0*
20,1,$1+$1,$8,$9,$2,$3,0*%
G04 Aperture macros list end*
%TA.AperFunction,ComponentPad*%
%ADD10RoundRect,0.250000X0.600000X0.725000X-0.600000X0.725000X-0.600000X-0.725000X0.600000X-0.725000X0*%
%TD*%
%TA.AperFunction,ComponentPad*%
%ADD11O,1.700000X1.950000*%
%TD*%
%TA.AperFunction,ComponentPad*%
%ADD12R,1.508000X1.508000*%
%TD*%
%TA.AperFunction,ComponentPad*%
%ADD13C,1.508000*%
%TD*%
%TA.AperFunction,ComponentPad*%
%ADD14C,1.950000*%
%TD*%
%TA.AperFunction,ComponentPad*%
%ADD15RoundRect,0.250000X0.600000X0.750000X-0.600000X0.750000X-0.600000X-0.750000X0.600000X-0.750000X0*%
%TD*%
%TA.AperFunction,ComponentPad*%
%ADD16O,1.700000X2.000000*%
%TD*%
%TA.AperFunction,ComponentPad*%
%ADD17C,3.500000*%
%TD*%
%TA.AperFunction,ComponentPad*%
%ADD18R,1.524000X1.524000*%
%TD*%
%TA.AperFunction,ComponentPad*%
%ADD19C,1.524000*%
%TD*%
%TA.AperFunction,ViaPad*%
%ADD20C,0.700000*%
%TD*%
G04 APERTURE END LIST*
D10*
%TO.N,GND*%
%TO.C,J4*%
X91700000Y-107900000D03*
D11*
%TO.N,/ESP32S3_Minsys/RTS*%
X89200000Y-107900000D03*
%TO.N,/ESP32S3_Minsys/ESP_TXD*%
X86700000Y-107900000D03*
%TO.N,/ESP32S3_Minsys/ESP_RXD*%
X84200000Y-107900000D03*
%TO.N,/ESP32S3_Minsys/DTR*%
X81700000Y-107900000D03*
%TO.N,/ESP32S3_Minsys/3V3*%
X79200000Y-107900000D03*
%TD*%
D12*
%TO.N,GND*%
%TO.C,S5*%
X82300000Y-83500000D03*
D13*
%TO.N,/ESP32S3_Minsys/IO33*%
X77800000Y-83500000D03*
D14*
%TO.N,N/C*%
X83550000Y-86000000D03*
X76550000Y-86000000D03*
%TD*%
D15*
%TO.N,/ESP32S3_Minsys/5V*%
%TO.C,J1*%
X89850000Y-95900000D03*
D16*
%TO.N,GND*%
X87350000Y-95900000D03*
%TD*%
D17*
%TO.N,*%
%TO.C,Coral_Dev_Board1*%
X129130000Y-107530000D03*
X129130000Y-84530000D03*
X71130000Y-107530000D03*
X71130000Y-84530000D03*
D18*
%TO.N,GND*%
X124630000Y-82060000D03*
D19*
%TO.N,unconnected-(Coral_Dev_Board1-Pin_2-Pad2)*%
X122090000Y-82060000D03*
%TO.N,Net-(Coral_Dev_Board1-Pin_3)*%
X119550000Y-82060000D03*
%TO.N,unconnected-(Coral_Dev_Board1-Pin_4-Pad4)*%
X117010000Y-82060000D03*
%TO.N,Net-(Coral_Dev_Board1-Pin_5)*%
X114470000Y-82060000D03*
%TO.N,Net-(Coral_Dev_Board1-Pin_6)*%
X111930000Y-82060000D03*
%TO.N,Net-(Coral_Dev_Board1-Pin_7)*%
X109390000Y-82060000D03*
%TO.N,Net-(Coral_Dev_Board1-Pin_8)*%
X106850000Y-82060000D03*
%TO.N,unconnected-(Coral_Dev_Board1-Pin_9-Pad9)*%
X104310000Y-82060000D03*
%TO.N,Net-(Coral_Dev_Board1-Pin_10)*%
X101770000Y-82060000D03*
%TO.N,Net-(Coral_Dev_Board1-Pin_11)*%
X99230000Y-82060000D03*
%TO.N,Net-(Coral_Dev_Board1-Pin_12)*%
X96690000Y-82060000D03*
D18*
%TO.N,GND*%
X124630000Y-110000000D03*
D19*
%TO.N,unconnected-(Coral_Dev_Board1-Pin_14-Pad14)*%
X122090000Y-110000000D03*
%TO.N,Net-(Coral_Dev_Board1-Pin_15)*%
X119550000Y-110000000D03*
%TO.N,Net-(Coral_Dev_Board1-Pin_16)*%
X117010000Y-110000000D03*
%TO.N,Net-(Coral_Dev_Board1-Pin_17)*%
X114470000Y-110000000D03*
%TO.N,Net-(Coral_Dev_Board1-Pin_18)*%
X111930000Y-110000000D03*
%TO.N,Net-(Coral_Dev_Board1-Pin_19)*%
X109390000Y-110000000D03*
%TO.N,Net-(Coral_Dev_Board1-Pin_20)*%
X106850000Y-110000000D03*
%TO.N,Net-(Coral_Dev_Board1-Pin_21)*%
X104310000Y-110000000D03*
%TO.N,Net-(Coral_Dev_Board1-Pin_22)*%
X101770000Y-110000000D03*
%TO.N,Net-(Coral_Dev_Board1-Pin_23)*%
X99230000Y-110000000D03*
%TO.N,Net-(Coral_Dev_Board1-Pin_24)*%
X96690000Y-110000000D03*
%TD*%
D12*
%TO.N,GND*%
%TO.C,S6*%
X94150000Y-83500000D03*
D13*
%TO.N,/ESP32S3_Minsys/IO26*%
X89650000Y-83500000D03*
D14*
%TO.N,N/C*%
X95400000Y-86000000D03*
X88400000Y-86000000D03*
%TD*%
D12*
%TO.N,GND*%
%TO.C,S4*%
X75400000Y-83500000D03*
D13*
%TO.N,/ESP32S3_Minsys/IO25*%
X79900000Y-83500000D03*
D14*
%TO.N,N/C*%
X74150000Y-86000000D03*
X81150000Y-86000000D03*
%TD*%
D12*
%TO.N,GND*%
%TO.C,S3*%
X87250000Y-83500000D03*
D13*
%TO.N,/ESP32S3_Minsys/IO27*%
X91750000Y-83500000D03*
D14*
%TO.N,N/C*%
X86000000Y-86000000D03*
X93000000Y-86000000D03*
%TD*%
D20*
%TO.N,GND*%
X76650000Y-81650000D03*
X99700000Y-104300000D03*
X74600000Y-108850000D03*
X105050000Y-83350000D03*
X73900000Y-108850000D03*
X126200000Y-99350000D03*
X69200000Y-90400000D03*
X68350000Y-97200000D03*
X72150000Y-104150000D03*
X75300000Y-109600000D03*
X93800000Y-81700000D03*
X75300000Y-110350000D03*
X126200000Y-100750000D03*
X75300000Y-108850000D03*
X116550000Y-93300000D03*
X125750000Y-107950000D03*
X125350000Y-84200000D03*
X105750000Y-83350000D03*
X69100000Y-97200000D03*
X112150000Y-96000000D03*
X116050000Y-83700000D03*
X115850000Y-93300000D03*
X75950000Y-81650000D03*
X69200000Y-91100000D03*
X71450000Y-104150000D03*
X126050000Y-84950000D03*
X69100000Y-103450000D03*
X74600000Y-109600000D03*
X73900000Y-110350000D03*
X72150000Y-104900000D03*
X112900000Y-96000000D03*
X70750000Y-88850000D03*
X68450000Y-90400000D03*
X112150000Y-97400000D03*
X73900000Y-109600000D03*
X124350000Y-107200000D03*
X124525000Y-93100000D03*
X72150000Y-88100000D03*
X124150000Y-95025000D03*
X75300000Y-108100000D03*
X68350000Y-102750000D03*
X70750000Y-88100000D03*
X80950000Y-81550000D03*
X70750000Y-104900000D03*
X89050000Y-81700000D03*
X72150000Y-88850000D03*
X106000000Y-87250000D03*
X100400000Y-104300000D03*
X120600000Y-99050000D03*
X105300000Y-87250000D03*
X124650000Y-84200000D03*
X93100000Y-81700000D03*
X70750000Y-104150000D03*
X68350000Y-103450000D03*
X124525000Y-94475000D03*
X116750000Y-83700000D03*
X124525000Y-93775000D03*
X120600000Y-97650000D03*
X100400000Y-103550000D03*
X112900000Y-97400000D03*
X69100000Y-102050000D03*
X68350000Y-96500000D03*
X69100000Y-96500000D03*
X125050000Y-107200000D03*
X68450000Y-91100000D03*
X75250000Y-81650000D03*
X71450000Y-88850000D03*
X117450000Y-83700000D03*
X69100000Y-95800000D03*
X74600000Y-110350000D03*
X99700000Y-103550000D03*
X90450000Y-81700000D03*
X69100000Y-102750000D03*
X68450000Y-91800000D03*
X106700000Y-87250000D03*
X74600000Y-108100000D03*
X126050000Y-84200000D03*
X68350000Y-95800000D03*
X125750000Y-107200000D03*
X125050000Y-107950000D03*
X112150000Y-96700000D03*
X120600000Y-98350000D03*
X69200000Y-91800000D03*
X125350000Y-84950000D03*
X73900000Y-108100000D03*
X81650000Y-81550000D03*
X112900000Y-96700000D03*
X124350000Y-107950000D03*
X124650000Y-84950000D03*
X71450000Y-104900000D03*
X89750000Y-81700000D03*
X92400000Y-81700000D03*
X126200000Y-100050000D03*
X82350000Y-81550000D03*
X68350000Y-102050000D03*
X71450000Y-88100000D03*
%TO.N,/ESP32S3_Minsys/5V*%
X94950000Y-107300000D03*
X95500000Y-107300000D03*
X96600000Y-107300000D03*
X94400000Y-107300000D03*
X96050000Y-107300000D03*
%TO.N,/ESP32S3_Minsys/3V3*%
X85150000Y-100200000D03*
X85150000Y-103250000D03*
X100250000Y-85100000D03*
X85950000Y-102500000D03*
X85950000Y-100200000D03*
X85150000Y-102500000D03*
X91500000Y-90400000D03*
X126075000Y-93250000D03*
X126075000Y-94700000D03*
X126075000Y-93975000D03*
X126050000Y-96150000D03*
X100250000Y-84200000D03*
X89750000Y-90400000D03*
X79300000Y-90350000D03*
X85950000Y-103250000D03*
X77450000Y-90350000D03*
X78400000Y-90350000D03*
X85150000Y-101750000D03*
X85150000Y-100950000D03*
X85950000Y-100950000D03*
X126050000Y-95425000D03*
X98200000Y-93300000D03*
X73200000Y-103100000D03*
X85950000Y-101750000D03*
X90650000Y-90400000D03*
X98200000Y-94200000D03*
X72750000Y-102800000D03*
X98200000Y-92300000D03*
X100250000Y-85900000D03*
%TO.N,/ESP32S3_Minsys/SPI_CS*%
X75050000Y-96750000D03*
%TO.N,/ESP32S3_Minsys/SPI_MOSI*%
X83200000Y-96100000D03*
%TO.N,/ESP32S3_Minsys/SPI_CLK*%
X79100000Y-97550000D03*
%TO.N,/ESP32S3_Minsys/SPI_MISO*%
X77390000Y-102960000D03*
%TO.N,/ESP32S3_Minsys/CHIP_PU*%
X105773500Y-96697000D03*
X124540000Y-91560000D03*
X124845000Y-87575000D03*
X112800000Y-94150000D03*
%TO.N,Net-(Coral_Dev_Board1-Pin_12)*%
X98070000Y-84760000D03*
%TO.N,/ESP32S3_Minsys/RTS*%
X107550000Y-100250000D03*
X101600000Y-98450000D03*
X99500000Y-100850000D03*
%TO.N,/ESP32S3_Minsys/DTR*%
X90250000Y-106600000D03*
X107480500Y-102524500D03*
X102400000Y-102600000D03*
%TO.N,/ESP32S3_Minsys/ESP_RXD*%
X86050000Y-105300000D03*
%TO.N,/ESP32S3_Minsys/ESP_3V3*%
X126150000Y-87700000D03*
X126150000Y-88400000D03*
X126150000Y-87000000D03*
%TO.N,Net-(Coral_Dev_Board1-Pin_16)*%
X116550000Y-97400000D03*
X115875000Y-100625000D03*
%TO.N,/ESP32S3_Minsys/SDA*%
X122410000Y-100312500D03*
%TO.N,/ESP32S3_Minsys/SCL*%
X123940000Y-100332500D03*
%TO.N,/ESP32S3_Minsys/CS*%
X71226500Y-96644200D03*
X110000000Y-91630000D03*
%TO.N,/ESP32S3_Minsys/IO0*%
X101050000Y-96100000D03*
X103728000Y-94892000D03*
X104650000Y-99600000D03*
%TO.N,/ESP32S3_Minsys/SCK*%
X112100000Y-86950000D03*
X77410000Y-93810000D03*
X96150000Y-93150000D03*
X93240000Y-93160000D03*
%TO.N,/ESP32S3_Minsys/MOSI*%
X75849000Y-93781700D03*
X110000000Y-100510000D03*
%TO.N,Net-(Coral_Dev_Board1-Pin_5)*%
X116850000Y-91600000D03*
X111250000Y-91650000D03*
%TO.N,Net-(Coral_Dev_Board1-Pin_6)*%
X108200000Y-83875500D03*
%TO.N,Net-(Coral_Dev_Board1-Pin_7)*%
X114600000Y-100500000D03*
X111250000Y-100550000D03*
%TO.N,Net-(Coral_Dev_Board1-Pin_10)*%
X107050000Y-83950000D03*
X121050000Y-85650000D03*
%TO.N,Net-(Coral_Dev_Board1-Pin_11)*%
X106950000Y-85075500D03*
X119760000Y-85670000D03*
%TO.N,Net-(Coral_Dev_Board1-Pin_20)*%
X113400000Y-106500000D03*
%TO.N,Net-(Coral_Dev_Board1-Pin_21)*%
X106600000Y-107400000D03*
X108350000Y-104850000D03*
%TO.N,Net-(Coral_Dev_Board1-Pin_22)*%
X117100000Y-96350000D03*
X109000000Y-102950000D03*
X104150000Y-107600000D03*
X107100000Y-104750000D03*
%TO.N,Net-(Coral_Dev_Board1-Pin_23)*%
X111950000Y-106550000D03*
%TO.N,/ESP32S3_Minsys/MISO*%
X110000000Y-101800000D03*
X71237500Y-99150000D03*
%TO.N,/ESP32S3_Minsys/SVN*%
X120800000Y-91000000D03*
%TO.N,/ESP32S3_Minsys/IO21*%
X121050000Y-105250000D03*
%TO.N,/ESP32S3_Minsys/IO19*%
X118490000Y-105260000D03*
%TO.N,/ESP32S3_Minsys/IO16*%
X113400000Y-105250000D03*
%TO.N,/ESP32S3_Minsys/IO27*%
X113400000Y-87750000D03*
X96410000Y-88110000D03*
%TO.N,/ESP32S3_Minsys/IO4*%
X112150000Y-105250000D03*
%TO.N,/ESP32S3_Minsys/IO12*%
X110850000Y-86950000D03*
%TO.N,/ESP32S3_Minsys/IO32*%
X118470000Y-87750000D03*
%TO.N,/ESP32S3_Minsys/IO33*%
X112900000Y-91050000D03*
X77450000Y-88637500D03*
%TO.N,/ESP32S3_Minsys/IO25*%
X83830000Y-88370000D03*
X113700000Y-90200000D03*
%TO.N,/ESP32S3_Minsys/IO26*%
X89825000Y-87760000D03*
X109700000Y-88900000D03*
%TO.N,/ESP32S3_Minsys/IO17*%
X114650000Y-104450000D03*
%TO.N,Net-(IC1-RXD0)*%
X117400000Y-107050000D03*
X101662500Y-105750000D03*
%TO.N,/ESP32S3_Minsys/IO34*%
X121050000Y-86950000D03*
%TO.N,/ESP32S3_Minsys/IO35*%
X119750000Y-86950000D03*
%TO.N,Net-(IC1-TXD0)*%
X118100000Y-107800000D03*
X101662500Y-107350000D03*
%TD*%
%TA.AperFunction,Conductor*%
%TO.N,/ESP32S3_Minsys/5V*%
G36*
X93827229Y-93848784D02*
G01*
X93894069Y-93869131D01*
X93939299Y-93922386D01*
X93950000Y-93972778D01*
X93950000Y-95350000D01*
X97377746Y-95398278D01*
X97444502Y-95418905D01*
X97489509Y-95472348D01*
X97500000Y-95522266D01*
X97500000Y-107476000D01*
X97480315Y-107543039D01*
X97427511Y-107588794D01*
X97376000Y-107600000D01*
X93674000Y-107600000D01*
X93606961Y-107580315D01*
X93561206Y-107527511D01*
X93550000Y-107476000D01*
X93550000Y-100250000D01*
X89073042Y-100250000D01*
X89006003Y-100230315D01*
X88960248Y-100177511D01*
X88949046Y-100126961D01*
X88912964Y-95472348D01*
X88900978Y-93926202D01*
X88920142Y-93859014D01*
X88972590Y-93812851D01*
X89026199Y-93801249D01*
X93827229Y-93848784D01*
G37*
%TD.AperFunction*%
%TD*%
%TA.AperFunction,Conductor*%
%TO.N,/ESP32S3_Minsys/3V3*%
G36*
X104294655Y-83416536D02*
G01*
X104361646Y-83436378D01*
X104407277Y-83489289D01*
X104410945Y-83499864D01*
X104411103Y-83499805D01*
X104420912Y-83525668D01*
X104469780Y-83654523D01*
X104559517Y-83784530D01*
X104677760Y-83889283D01*
X104677762Y-83889284D01*
X104817634Y-83962696D01*
X104971014Y-84000500D01*
X104971015Y-84000500D01*
X105128985Y-84000500D01*
X105282365Y-83962696D01*
X105342375Y-83931199D01*
X105410881Y-83917474D01*
X105457624Y-83931199D01*
X105517635Y-83962696D01*
X105594324Y-83981597D01*
X105671014Y-84000500D01*
X105671015Y-84000500D01*
X105828985Y-84000500D01*
X105982365Y-83962696D01*
X106122238Y-83889284D01*
X106122237Y-83889284D01*
X106122240Y-83889283D01*
X106191093Y-83828284D01*
X106254326Y-83798563D01*
X106323589Y-83807747D01*
X106376893Y-83852919D01*
X106397313Y-83919738D01*
X106396416Y-83936045D01*
X106394722Y-83949998D01*
X106394722Y-83950000D01*
X106413762Y-84106818D01*
X106441526Y-84180024D01*
X106469780Y-84254523D01*
X106488194Y-84281200D01*
X106559518Y-84384532D01*
X106560607Y-84385761D01*
X106561119Y-84386851D01*
X106563778Y-84390703D01*
X106563137Y-84391145D01*
X106590324Y-84448996D01*
X106581136Y-84518259D01*
X106550013Y-84560797D01*
X106459518Y-84640968D01*
X106369781Y-84770975D01*
X106369780Y-84770976D01*
X106313762Y-84918681D01*
X106294722Y-85075499D01*
X106294722Y-85075500D01*
X106313762Y-85232318D01*
X106356678Y-85345477D01*
X106369780Y-85380023D01*
X106459517Y-85510030D01*
X106577760Y-85614783D01*
X106577762Y-85614784D01*
X106717634Y-85688196D01*
X106871014Y-85726000D01*
X106871015Y-85726000D01*
X107028985Y-85726000D01*
X107182365Y-85688196D01*
X107267315Y-85643610D01*
X107322240Y-85614783D01*
X107440483Y-85510030D01*
X107530220Y-85380023D01*
X107586237Y-85232318D01*
X107605278Y-85075500D01*
X107598479Y-85019500D01*
X107586237Y-84918681D01*
X107538641Y-84793182D01*
X107530220Y-84770977D01*
X107440483Y-84640970D01*
X107440481Y-84640967D01*
X107439393Y-84639739D01*
X107438880Y-84638648D01*
X107436222Y-84634797D01*
X107436862Y-84634354D01*
X107409675Y-84576504D01*
X107418863Y-84507241D01*
X107449985Y-84464702D01*
X107540483Y-84384530D01*
X107557025Y-84360563D01*
X107611307Y-84316574D01*
X107680755Y-84308914D01*
X107741300Y-84338187D01*
X107766560Y-84360565D01*
X107827762Y-84414785D01*
X107967634Y-84488196D01*
X108121014Y-84526000D01*
X108121015Y-84526000D01*
X108278985Y-84526000D01*
X108432365Y-84488196D01*
X108477130Y-84464701D01*
X108572240Y-84414783D01*
X108690483Y-84310030D01*
X108780220Y-84180023D01*
X108836237Y-84032318D01*
X108855278Y-83875500D01*
X108836237Y-83718682D01*
X108829151Y-83699999D01*
X108789456Y-83595331D01*
X108784089Y-83525668D01*
X108817236Y-83464162D01*
X108878374Y-83430340D01*
X108905682Y-83427360D01*
X115286333Y-83442338D01*
X115353324Y-83462180D01*
X115398955Y-83515091D01*
X115409136Y-83581284D01*
X115394722Y-83699999D01*
X115394721Y-83700000D01*
X115413762Y-83856818D01*
X115449101Y-83949998D01*
X115469780Y-84004523D01*
X115559517Y-84134530D01*
X115677760Y-84239283D01*
X115677762Y-84239284D01*
X115817634Y-84312696D01*
X115971014Y-84350500D01*
X115971015Y-84350500D01*
X116128985Y-84350500D01*
X116282365Y-84312696D01*
X116342375Y-84281199D01*
X116410881Y-84267474D01*
X116457624Y-84281199D01*
X116517635Y-84312696D01*
X116594324Y-84331597D01*
X116671014Y-84350500D01*
X116671015Y-84350500D01*
X116828985Y-84350500D01*
X116982365Y-84312696D01*
X117042375Y-84281199D01*
X117110881Y-84267474D01*
X117157624Y-84281199D01*
X117217635Y-84312696D01*
X117294324Y-84331597D01*
X117371014Y-84350500D01*
X117371015Y-84350500D01*
X117528985Y-84350500D01*
X117682365Y-84312696D01*
X117708719Y-84298864D01*
X117822240Y-84239283D01*
X117940483Y-84134530D01*
X118030220Y-84004523D01*
X118086237Y-83856818D01*
X118105278Y-83700000D01*
X118091698Y-83588159D01*
X118103158Y-83519236D01*
X118150062Y-83467450D01*
X118215082Y-83449213D01*
X118425554Y-83449707D01*
X118492545Y-83469549D01*
X118538176Y-83522460D01*
X118549259Y-83574445D01*
X118543960Y-84464701D01*
X118529010Y-86976239D01*
X118508928Y-87043159D01*
X118455852Y-87088599D01*
X118405013Y-87099500D01*
X118391014Y-87099500D01*
X118237634Y-87137303D01*
X118097762Y-87210715D01*
X117979516Y-87315471D01*
X117889781Y-87445475D01*
X117889780Y-87445476D01*
X117833762Y-87593181D01*
X117814721Y-87749999D01*
X117814721Y-87750000D01*
X117833762Y-87906818D01*
X117872716Y-88009530D01*
X117889780Y-88054523D01*
X117979517Y-88184530D01*
X118097760Y-88289283D01*
X118097762Y-88289284D01*
X118237634Y-88362696D01*
X118391014Y-88400500D01*
X118395792Y-88400500D01*
X118462831Y-88420185D01*
X118508586Y-88472989D01*
X118519790Y-88525238D01*
X118499999Y-91849999D01*
X118500000Y-91850000D01*
X123907361Y-91881808D01*
X123974281Y-91901886D01*
X124008679Y-91935366D01*
X124049514Y-91994527D01*
X124049516Y-91994529D01*
X124049517Y-91994530D01*
X124167760Y-92099283D01*
X124167762Y-92099284D01*
X124307634Y-92172696D01*
X124307633Y-92172696D01*
X124449874Y-92207754D01*
X124510255Y-92242910D01*
X124531117Y-92283742D01*
X124573242Y-92230578D01*
X124615125Y-92211451D01*
X124618983Y-92210500D01*
X124618985Y-92210500D01*
X124772365Y-92172696D01*
X124912240Y-92099283D01*
X125030483Y-91994530D01*
X125066198Y-91942786D01*
X125120479Y-91898797D01*
X125168970Y-91889229D01*
X126878341Y-91899284D01*
X126945263Y-91919363D01*
X126990706Y-91972435D01*
X127001600Y-92021651D01*
X127097254Y-99291350D01*
X127082232Y-99345113D01*
X127096939Y-99375528D01*
X127098608Y-99394237D01*
X127148338Y-103173717D01*
X127129537Y-103241009D01*
X127077340Y-103287455D01*
X127023708Y-103299346D01*
X109763026Y-103210066D01*
X109696089Y-103190035D01*
X109650608Y-103136995D01*
X109640571Y-103071121D01*
X109644276Y-103040614D01*
X109655278Y-102950000D01*
X109653737Y-102937304D01*
X109636237Y-102793181D01*
X109614992Y-102737164D01*
X109580220Y-102645477D01*
X109507589Y-102540253D01*
X109485707Y-102473899D01*
X109503172Y-102406248D01*
X109554440Y-102358778D01*
X109623234Y-102346561D01*
X109667266Y-102360018D01*
X109767634Y-102412696D01*
X109921014Y-102450500D01*
X109921015Y-102450500D01*
X110078985Y-102450500D01*
X110232365Y-102412696D01*
X110250004Y-102403438D01*
X110372240Y-102339283D01*
X110490483Y-102234530D01*
X110580220Y-102104523D01*
X110636237Y-101956818D01*
X110655278Y-101800000D01*
X110636237Y-101643182D01*
X110580220Y-101495477D01*
X110490483Y-101365470D01*
X110372240Y-101260717D01*
X110372235Y-101260714D01*
X110366928Y-101257051D01*
X110322937Y-101202769D01*
X110315277Y-101133320D01*
X110346379Y-101070755D01*
X110366928Y-101052949D01*
X110372229Y-101049288D01*
X110372240Y-101049283D01*
X110490483Y-100944530D01*
X110509145Y-100917492D01*
X110563427Y-100873503D01*
X110632876Y-100865843D01*
X110695441Y-100896946D01*
X110713244Y-100917492D01*
X110759517Y-100984530D01*
X110877760Y-101089283D01*
X110877762Y-101089284D01*
X111017634Y-101162696D01*
X111171014Y-101200500D01*
X111171015Y-101200500D01*
X111328985Y-101200500D01*
X111482365Y-101162696D01*
X111505602Y-101150500D01*
X111622240Y-101089283D01*
X111740483Y-100984530D01*
X111830220Y-100854523D01*
X111886237Y-100706818D01*
X111905278Y-100550000D01*
X111899207Y-100500000D01*
X113944722Y-100500000D01*
X113963762Y-100656818D01*
X113999102Y-100750000D01*
X114019780Y-100804523D01*
X114109517Y-100934530D01*
X114227760Y-101039283D01*
X114227762Y-101039284D01*
X114367634Y-101112696D01*
X114521014Y-101150500D01*
X114521015Y-101150500D01*
X114678985Y-101150500D01*
X114832365Y-101112696D01*
X114876974Y-101089283D01*
X114972240Y-101039283D01*
X115090483Y-100934530D01*
X115092305Y-100931889D01*
X115094139Y-100930403D01*
X115095457Y-100928916D01*
X115095704Y-100929135D01*
X115146583Y-100887896D01*
X115216031Y-100880232D01*
X115278598Y-100911330D01*
X115296408Y-100931882D01*
X115384517Y-101059530D01*
X115502760Y-101164283D01*
X115502762Y-101164284D01*
X115642634Y-101237696D01*
X115796014Y-101275500D01*
X115796015Y-101275500D01*
X115953985Y-101275500D01*
X116107365Y-101237696D01*
X116107364Y-101237696D01*
X116247240Y-101164283D01*
X116365483Y-101059530D01*
X116455220Y-100929523D01*
X116511237Y-100781818D01*
X116530278Y-100625000D01*
X116529310Y-100617023D01*
X116511237Y-100468181D01*
X116468703Y-100356029D01*
X116455220Y-100320477D01*
X116449714Y-100312500D01*
X121754721Y-100312500D01*
X121773762Y-100469318D01*
X121806077Y-100554523D01*
X121829780Y-100617023D01*
X121919517Y-100747030D01*
X122037760Y-100851783D01*
X122049860Y-100858133D01*
X122177634Y-100925196D01*
X122331014Y-100963000D01*
X122331015Y-100963000D01*
X122488985Y-100963000D01*
X122642365Y-100925196D01*
X122677381Y-100906818D01*
X122782240Y-100851783D01*
X122900483Y-100747030D01*
X122990220Y-100617023D01*
X123046237Y-100469318D01*
X123050689Y-100432646D01*
X123078309Y-100368469D01*
X123136243Y-100329412D01*
X123206095Y-100327876D01*
X123265690Y-100364348D01*
X123296105Y-100427251D01*
X123296881Y-100432644D01*
X123303763Y-100489319D01*
X123328492Y-100554523D01*
X123359780Y-100637023D01*
X123449517Y-100767030D01*
X123567760Y-100871783D01*
X123567762Y-100871784D01*
X123707634Y-100945196D01*
X123861014Y-100983000D01*
X123861015Y-100983000D01*
X124018985Y-100983000D01*
X124172365Y-100945196D01*
X124202966Y-100929135D01*
X124312240Y-100871783D01*
X124430483Y-100767030D01*
X124442238Y-100750000D01*
X125544721Y-100750000D01*
X125563762Y-100906818D01*
X125593234Y-100984528D01*
X125619780Y-101054523D01*
X125709517Y-101184530D01*
X125827760Y-101289283D01*
X125827762Y-101289284D01*
X125967634Y-101362696D01*
X126121014Y-101400500D01*
X126121015Y-101400500D01*
X126278985Y-101400500D01*
X126432365Y-101362696D01*
X126432364Y-101362696D01*
X126572240Y-101289283D01*
X126690483Y-101184530D01*
X126780220Y-101054523D01*
X126836237Y-100906818D01*
X126855278Y-100750000D01*
X126836237Y-100593182D01*
X126780220Y-100445477D01*
X126780217Y-100445473D01*
X126779648Y-100443972D01*
X126774281Y-100374308D01*
X126779648Y-100356028D01*
X126780217Y-100354526D01*
X126780220Y-100354523D01*
X126836237Y-100206818D01*
X126855278Y-100050000D01*
X126842586Y-99945475D01*
X126836237Y-99893182D01*
X126823463Y-99859500D01*
X126780220Y-99745477D01*
X126780217Y-99745473D01*
X126779648Y-99743972D01*
X126774281Y-99674308D01*
X126779648Y-99656028D01*
X126780217Y-99654526D01*
X126780220Y-99654523D01*
X126836237Y-99506818D01*
X126851523Y-99380920D01*
X126866210Y-99346794D01*
X126854758Y-99329478D01*
X126850169Y-99307927D01*
X126836237Y-99193182D01*
X126780220Y-99045477D01*
X126690483Y-98915470D01*
X126572240Y-98810717D01*
X126572238Y-98810716D01*
X126572237Y-98810715D01*
X126432365Y-98737303D01*
X126278986Y-98699500D01*
X126278985Y-98699500D01*
X126121015Y-98699500D01*
X126121014Y-98699500D01*
X125967634Y-98737303D01*
X125827762Y-98810715D01*
X125709516Y-98915471D01*
X125619781Y-99045475D01*
X125619780Y-99045476D01*
X125563762Y-99193181D01*
X125544721Y-99349999D01*
X125544721Y-99350000D01*
X125563763Y-99506818D01*
X125620351Y-99656029D01*
X125625718Y-99725692D01*
X125620351Y-99743971D01*
X125563763Y-99893181D01*
X125544721Y-100049999D01*
X125544721Y-100050000D01*
X125563763Y-100206818D01*
X125620351Y-100356029D01*
X125625718Y-100425692D01*
X125620351Y-100443971D01*
X125563763Y-100593181D01*
X125544721Y-100749999D01*
X125544721Y-100750000D01*
X124442238Y-100750000D01*
X124520220Y-100637023D01*
X124576237Y-100489318D01*
X124595278Y-100332500D01*
X124592850Y-100312499D01*
X124576237Y-100175681D01*
X124544949Y-100093182D01*
X124520220Y-100027977D01*
X124430483Y-99897970D01*
X124312240Y-99793217D01*
X124312238Y-99793216D01*
X124312237Y-99793215D01*
X124172365Y-99719803D01*
X124018986Y-99682000D01*
X124018985Y-99682000D01*
X123861015Y-99682000D01*
X123861014Y-99682000D01*
X123707634Y-99719803D01*
X123567762Y-99793215D01*
X123567759Y-99793217D01*
X123567760Y-99793217D01*
X123472092Y-99877971D01*
X123449516Y-99897971D01*
X123359781Y-100027975D01*
X123359780Y-100027976D01*
X123303763Y-100175680D01*
X123299310Y-100212354D01*
X123271688Y-100276532D01*
X123213753Y-100315588D01*
X123143901Y-100317123D01*
X123084307Y-100280648D01*
X123053893Y-100217745D01*
X123053118Y-100212353D01*
X123051557Y-100199500D01*
X123046237Y-100155682D01*
X122990220Y-100007977D01*
X122900483Y-99877970D01*
X122782240Y-99773217D01*
X122782238Y-99773216D01*
X122782237Y-99773215D01*
X122642365Y-99699803D01*
X122488986Y-99662000D01*
X122488985Y-99662000D01*
X122331015Y-99662000D01*
X122331014Y-99662000D01*
X122177634Y-99699803D01*
X122037762Y-99773215D01*
X121919516Y-99877971D01*
X121829781Y-100007975D01*
X121829780Y-100007976D01*
X121773762Y-100155681D01*
X121754721Y-100312499D01*
X121754721Y-100312500D01*
X116449714Y-100312500D01*
X116365483Y-100190470D01*
X116247240Y-100085717D01*
X116247238Y-100085716D01*
X116247237Y-100085715D01*
X116107365Y-100012303D01*
X115953986Y-99974500D01*
X115953985Y-99974500D01*
X115796015Y-99974500D01*
X115796014Y-99974500D01*
X115642634Y-100012303D01*
X115502762Y-100085715D01*
X115384513Y-100190473D01*
X115382686Y-100193121D01*
X115380849Y-100194608D01*
X115379543Y-100196084D01*
X115379297Y-100195866D01*
X115328401Y-100237109D01*
X115258952Y-100244765D01*
X115196389Y-100213658D01*
X115178590Y-100193116D01*
X115178549Y-100193057D01*
X115090483Y-100065470D01*
X114972240Y-99960717D01*
X114972238Y-99960716D01*
X114972237Y-99960715D01*
X114832365Y-99887303D01*
X114678986Y-99849500D01*
X114678985Y-99849500D01*
X114521015Y-99849500D01*
X114521014Y-99849500D01*
X114367634Y-99887303D01*
X114227762Y-99960715D01*
X114109516Y-100065471D01*
X114019781Y-100195475D01*
X114019780Y-100195476D01*
X113963762Y-100343181D01*
X113944722Y-100499999D01*
X113944722Y-100500000D01*
X111899207Y-100500000D01*
X111895344Y-100468181D01*
X111886237Y-100393181D01*
X111857392Y-100317123D01*
X111830220Y-100245477D01*
X111740483Y-100115470D01*
X111622240Y-100010717D01*
X111622238Y-100010716D01*
X111622237Y-100010715D01*
X111482365Y-99937303D01*
X111328986Y-99899500D01*
X111328985Y-99899500D01*
X111171015Y-99899500D01*
X111171014Y-99899500D01*
X111017634Y-99937303D01*
X110877762Y-100010715D01*
X110759515Y-100115471D01*
X110740852Y-100142509D01*
X110686568Y-100186498D01*
X110617119Y-100194155D01*
X110554555Y-100163050D01*
X110536754Y-100142506D01*
X110534529Y-100139283D01*
X110490483Y-100075470D01*
X110372240Y-99970717D01*
X110372238Y-99970716D01*
X110372237Y-99970715D01*
X110232365Y-99897303D01*
X110078986Y-99859500D01*
X110078985Y-99859500D01*
X109921015Y-99859500D01*
X109921014Y-99859500D01*
X109767634Y-99897303D01*
X109627762Y-99970715D01*
X109509516Y-100075471D01*
X109419781Y-100205475D01*
X109419780Y-100205476D01*
X109363762Y-100353181D01*
X109344722Y-100509999D01*
X109344722Y-100510000D01*
X109363762Y-100666818D01*
X109415988Y-100804524D01*
X109419780Y-100814523D01*
X109509517Y-100944530D01*
X109627760Y-101049283D01*
X109627761Y-101049283D01*
X109627763Y-101049285D01*
X109633075Y-101052952D01*
X109677064Y-101107236D01*
X109684721Y-101176685D01*
X109653616Y-101239249D01*
X109633075Y-101257048D01*
X109627763Y-101260714D01*
X109509516Y-101365471D01*
X109419781Y-101495475D01*
X109419780Y-101495476D01*
X109363762Y-101643181D01*
X109344722Y-101799999D01*
X109344722Y-101800000D01*
X109363762Y-101956818D01*
X109419780Y-102104523D01*
X109419781Y-102104524D01*
X109492409Y-102209745D01*
X109514292Y-102276100D01*
X109496826Y-102343751D01*
X109445559Y-102391221D01*
X109376765Y-102403438D01*
X109332733Y-102389981D01*
X109232365Y-102337303D01*
X109078986Y-102299500D01*
X109078985Y-102299500D01*
X108921015Y-102299500D01*
X108921014Y-102299500D01*
X108767634Y-102337303D01*
X108627762Y-102410715D01*
X108509516Y-102515471D01*
X108419781Y-102645475D01*
X108419780Y-102645476D01*
X108363762Y-102793181D01*
X108344722Y-102949999D01*
X108344722Y-102950000D01*
X108358468Y-103063217D01*
X108347007Y-103132141D01*
X108300103Y-103183926D01*
X108234731Y-103202161D01*
X108024091Y-103201072D01*
X107957154Y-103181041D01*
X107911673Y-103128002D01*
X107902087Y-103058793D01*
X107931440Y-102995388D01*
X107942496Y-102984266D01*
X107970983Y-102959030D01*
X108060720Y-102829023D01*
X108116737Y-102681318D01*
X108135778Y-102524500D01*
X108116737Y-102367682D01*
X108113830Y-102360018D01*
X108089353Y-102295476D01*
X108060720Y-102219977D01*
X107970983Y-102089970D01*
X107852740Y-101985217D01*
X107852738Y-101985216D01*
X107852737Y-101985215D01*
X107712865Y-101911803D01*
X107559486Y-101874000D01*
X107559485Y-101874000D01*
X107401515Y-101874000D01*
X107401514Y-101874000D01*
X107248134Y-101911803D01*
X107108262Y-101985215D01*
X106990016Y-102089971D01*
X106900281Y-102219975D01*
X106900280Y-102219976D01*
X106844262Y-102367681D01*
X106825222Y-102524499D01*
X106825222Y-102524500D01*
X106844262Y-102681318D01*
X106900280Y-102829023D01*
X106900281Y-102829024D01*
X106990015Y-102959028D01*
X106990017Y-102959030D01*
X107007208Y-102974260D01*
X107012102Y-102978595D01*
X107049229Y-103037785D01*
X107048461Y-103107650D01*
X107010044Y-103166010D01*
X106946173Y-103194335D01*
X106929234Y-103195409D01*
X103028980Y-103175235D01*
X102962043Y-103155204D01*
X102916562Y-103102164D01*
X102906976Y-103032955D01*
X102927570Y-102980798D01*
X102980220Y-102904523D01*
X103036237Y-102756818D01*
X103055278Y-102600000D01*
X103046229Y-102525470D01*
X103036237Y-102443181D01*
X102999875Y-102347303D01*
X102980220Y-102295477D01*
X102890483Y-102165470D01*
X102772240Y-102060717D01*
X102772238Y-102060716D01*
X102772237Y-102060715D01*
X102632365Y-101987303D01*
X102478986Y-101949500D01*
X102478985Y-101949500D01*
X102321015Y-101949500D01*
X102321014Y-101949500D01*
X102167634Y-101987303D01*
X102027762Y-102060715D01*
X101909516Y-102165471D01*
X101819781Y-102295475D01*
X101819780Y-102295476D01*
X101763762Y-102443181D01*
X101744722Y-102599999D01*
X101744722Y-102600000D01*
X101763762Y-102756818D01*
X101791147Y-102829024D01*
X101819780Y-102904523D01*
X101858072Y-102959999D01*
X101867916Y-102974260D01*
X101889799Y-103040614D01*
X101872334Y-103108266D01*
X101821066Y-103155736D01*
X101765225Y-103168698D01*
X100988893Y-103164683D01*
X100921956Y-103144652D01*
X100896645Y-103120034D01*
X100895458Y-103121086D01*
X100890483Y-103115470D01*
X100847702Y-103077570D01*
X100772240Y-103010717D01*
X100772238Y-103010716D01*
X100772237Y-103010715D01*
X100632365Y-102937303D01*
X100478986Y-102899500D01*
X100478985Y-102899500D01*
X100321015Y-102899500D01*
X100167635Y-102937303D01*
X100107625Y-102968800D01*
X100039117Y-102982525D01*
X99992375Y-102968800D01*
X99932364Y-102937303D01*
X99778985Y-102899500D01*
X99621015Y-102899500D01*
X99621014Y-102899500D01*
X99467634Y-102937303D01*
X99327762Y-103010715D01*
X99327759Y-103010717D01*
X99327760Y-103010717D01*
X99209517Y-103115470D01*
X99209516Y-103115471D01*
X99203903Y-103120444D01*
X99202511Y-103118873D01*
X99152295Y-103150365D01*
X99118040Y-103155006D01*
X98274118Y-103150641D01*
X98207181Y-103130610D01*
X98161700Y-103077570D01*
X98150761Y-103025882D01*
X98150855Y-103010715D01*
X98164111Y-100850000D01*
X98844722Y-100850000D01*
X98863762Y-101006818D01*
X98911739Y-101133320D01*
X98919780Y-101154523D01*
X99009517Y-101284530D01*
X99127760Y-101389283D01*
X99127762Y-101389284D01*
X99267634Y-101462696D01*
X99421014Y-101500500D01*
X99421015Y-101500500D01*
X99578985Y-101500500D01*
X99732365Y-101462696D01*
X99732364Y-101462696D01*
X99872240Y-101389283D01*
X99990483Y-101284530D01*
X100080220Y-101154523D01*
X100136237Y-101006818D01*
X100155278Y-100850000D01*
X100150971Y-100814524D01*
X100136237Y-100693181D01*
X100098312Y-100593182D01*
X100080220Y-100545477D01*
X99990483Y-100415470D01*
X99872240Y-100310717D01*
X99872238Y-100310716D01*
X99872237Y-100310715D01*
X99732365Y-100237303D01*
X99578986Y-100199500D01*
X99578985Y-100199500D01*
X99421015Y-100199500D01*
X99421014Y-100199500D01*
X99267634Y-100237303D01*
X99127762Y-100310715D01*
X99009516Y-100415471D01*
X98919781Y-100545475D01*
X98919780Y-100545476D01*
X98863762Y-100693181D01*
X98844722Y-100849999D01*
X98844722Y-100850000D01*
X98164111Y-100850000D01*
X98171780Y-99600000D01*
X103994722Y-99600000D01*
X104013762Y-99756818D01*
X104065479Y-99893182D01*
X104069780Y-99904523D01*
X104159517Y-100034530D01*
X104277760Y-100139283D01*
X104277762Y-100139284D01*
X104417634Y-100212696D01*
X104571014Y-100250500D01*
X104571015Y-100250500D01*
X104728985Y-100250500D01*
X104731014Y-100250000D01*
X106894722Y-100250000D01*
X106913762Y-100406818D01*
X106966349Y-100545476D01*
X106969780Y-100554523D01*
X107059517Y-100684530D01*
X107177760Y-100789283D01*
X107177762Y-100789284D01*
X107317634Y-100862696D01*
X107471014Y-100900500D01*
X107471015Y-100900500D01*
X107628985Y-100900500D01*
X107782365Y-100862696D01*
X107806557Y-100849999D01*
X107922240Y-100789283D01*
X108040483Y-100684530D01*
X108130220Y-100554523D01*
X108186237Y-100406818D01*
X108205278Y-100250000D01*
X108203737Y-100237304D01*
X108186237Y-100093181D01*
X108153923Y-100007977D01*
X108130220Y-99945477D01*
X108040483Y-99815470D01*
X107922240Y-99710717D01*
X107922238Y-99710716D01*
X107922237Y-99710715D01*
X107782365Y-99637303D01*
X107628986Y-99599500D01*
X107628985Y-99599500D01*
X107471015Y-99599500D01*
X107471014Y-99599500D01*
X107317634Y-99637303D01*
X107177762Y-99710715D01*
X107059516Y-99815471D01*
X106969781Y-99945475D01*
X106969780Y-99945476D01*
X106913762Y-100093181D01*
X106894722Y-100249999D01*
X106894722Y-100250000D01*
X104731014Y-100250000D01*
X104882365Y-100212696D01*
X104896123Y-100205475D01*
X105022240Y-100139283D01*
X105140483Y-100034530D01*
X105230220Y-99904523D01*
X105286237Y-99756818D01*
X105305278Y-99600000D01*
X105286237Y-99443182D01*
X105230220Y-99295477D01*
X105140483Y-99165470D01*
X105022240Y-99060717D01*
X105022238Y-99060716D01*
X105022237Y-99060715D01*
X105001822Y-99050000D01*
X119944721Y-99050000D01*
X119963762Y-99206818D01*
X120003432Y-99311418D01*
X120019780Y-99354523D01*
X120109517Y-99484530D01*
X120227760Y-99589283D01*
X120227762Y-99589284D01*
X120367634Y-99662696D01*
X120521014Y-99700500D01*
X120521015Y-99700500D01*
X120678985Y-99700500D01*
X120832365Y-99662696D01*
X120847937Y-99654523D01*
X120972240Y-99589283D01*
X121090483Y-99484530D01*
X121180220Y-99354523D01*
X121236237Y-99206818D01*
X121255278Y-99050000D01*
X121236237Y-98893182D01*
X121180220Y-98745477D01*
X121180217Y-98745473D01*
X121179648Y-98743972D01*
X121174281Y-98674308D01*
X121179648Y-98656028D01*
X121180217Y-98654526D01*
X121180220Y-98654523D01*
X121236237Y-98506818D01*
X121255278Y-98350000D01*
X121236237Y-98193182D01*
X121180220Y-98045477D01*
X121180217Y-98045473D01*
X121179648Y-98043972D01*
X121174281Y-97974308D01*
X121179648Y-97956028D01*
X121180217Y-97954526D01*
X121180220Y-97954523D01*
X121236237Y-97806818D01*
X121255278Y-97650000D01*
X121236237Y-97493182D01*
X121180220Y-97345477D01*
X121090483Y-97215470D01*
X120972240Y-97110717D01*
X120972238Y-97110716D01*
X120972237Y-97110715D01*
X120832365Y-97037303D01*
X120678986Y-96999500D01*
X120678985Y-96999500D01*
X120521015Y-96999500D01*
X120521014Y-96999500D01*
X120367634Y-97037303D01*
X120227762Y-97110715D01*
X120109516Y-97215471D01*
X120019781Y-97345475D01*
X120019780Y-97345476D01*
X119963762Y-97493181D01*
X119944721Y-97649999D01*
X119944721Y-97650000D01*
X119963763Y-97806818D01*
X120020351Y-97956029D01*
X120025718Y-98025692D01*
X120020351Y-98043971D01*
X119963763Y-98193181D01*
X119944721Y-98349999D01*
X119944721Y-98350000D01*
X119963763Y-98506818D01*
X120020351Y-98656029D01*
X120025718Y-98725692D01*
X120020351Y-98743971D01*
X119963763Y-98893181D01*
X119944721Y-99049999D01*
X119944721Y-99050000D01*
X105001822Y-99050000D01*
X104882365Y-98987303D01*
X104728986Y-98949500D01*
X104728985Y-98949500D01*
X104571015Y-98949500D01*
X104571014Y-98949500D01*
X104417634Y-98987303D01*
X104277762Y-99060715D01*
X104159516Y-99165471D01*
X104069781Y-99295475D01*
X104069780Y-99295476D01*
X104013762Y-99443181D01*
X103994722Y-99599999D01*
X103994722Y-99600000D01*
X98171780Y-99600000D01*
X98178835Y-98450000D01*
X100944722Y-98450000D01*
X100963762Y-98606818D01*
X101016349Y-98745477D01*
X101019780Y-98754523D01*
X101109517Y-98884530D01*
X101227760Y-98989283D01*
X101227762Y-98989284D01*
X101367634Y-99062696D01*
X101521014Y-99100500D01*
X101521015Y-99100500D01*
X101678985Y-99100500D01*
X101832365Y-99062696D01*
X101856557Y-99049999D01*
X101972240Y-98989283D01*
X102090483Y-98884530D01*
X102180220Y-98754523D01*
X102236237Y-98606818D01*
X102255278Y-98450000D01*
X102236237Y-98293182D01*
X102180220Y-98145477D01*
X102090483Y-98015470D01*
X101972240Y-97910717D01*
X101972238Y-97910716D01*
X101972237Y-97910715D01*
X101832365Y-97837303D01*
X101678986Y-97799500D01*
X101678985Y-97799500D01*
X101521015Y-97799500D01*
X101521014Y-97799500D01*
X101367634Y-97837303D01*
X101227762Y-97910715D01*
X101109516Y-98015471D01*
X101019781Y-98145475D01*
X101019780Y-98145476D01*
X100963762Y-98293181D01*
X100944722Y-98449999D01*
X100944722Y-98450000D01*
X98178835Y-98450000D01*
X98185277Y-97400000D01*
X111494722Y-97400000D01*
X111513762Y-97556818D01*
X111549102Y-97650000D01*
X111569780Y-97704523D01*
X111659517Y-97834530D01*
X111777760Y-97939283D01*
X111777762Y-97939284D01*
X111917634Y-98012696D01*
X112071014Y-98050500D01*
X112071015Y-98050500D01*
X112228985Y-98050500D01*
X112382365Y-98012696D01*
X112467375Y-97968078D01*
X112535881Y-97954353D01*
X112582623Y-97968077D01*
X112667635Y-98012696D01*
X112720363Y-98025692D01*
X112821014Y-98050500D01*
X112821015Y-98050500D01*
X112978985Y-98050500D01*
X113132365Y-98012696D01*
X113205506Y-97974308D01*
X113272240Y-97939283D01*
X113390483Y-97834530D01*
X113480220Y-97704523D01*
X113536237Y-97556818D01*
X113555278Y-97400000D01*
X115894721Y-97400000D01*
X115913762Y-97556818D01*
X115949102Y-97650000D01*
X115969780Y-97704523D01*
X116059517Y-97834530D01*
X116177760Y-97939283D01*
X116177762Y-97939284D01*
X116317634Y-98012696D01*
X116471014Y-98050500D01*
X116471015Y-98050500D01*
X116628985Y-98050500D01*
X116782365Y-98012696D01*
X116855506Y-97974308D01*
X116922240Y-97939283D01*
X117040483Y-97834530D01*
X117130220Y-97704523D01*
X117186237Y-97556818D01*
X117205278Y-97400000D01*
X117186237Y-97243182D01*
X117151079Y-97150479D01*
X117145713Y-97080821D01*
X117178860Y-97019315D01*
X117237348Y-96986115D01*
X117332365Y-96962696D01*
X117358988Y-96948723D01*
X117472240Y-96889283D01*
X117590483Y-96784530D01*
X117680220Y-96654523D01*
X117736237Y-96506818D01*
X117755278Y-96350000D01*
X117752159Y-96324308D01*
X117736237Y-96193181D01*
X117714992Y-96137164D01*
X117680220Y-96045477D01*
X117590483Y-95915470D01*
X117472240Y-95810717D01*
X117472238Y-95810716D01*
X117472237Y-95810715D01*
X117332365Y-95737303D01*
X117178986Y-95699500D01*
X117178985Y-95699500D01*
X117021015Y-95699500D01*
X117021014Y-95699500D01*
X116867634Y-95737303D01*
X116727762Y-95810715D01*
X116609516Y-95915471D01*
X116519781Y-96045475D01*
X116519780Y-96045476D01*
X116463762Y-96193181D01*
X116444721Y-96349999D01*
X116444721Y-96350000D01*
X116463762Y-96506817D01*
X116474272Y-96534528D01*
X116498919Y-96599517D01*
X116504286Y-96669179D01*
X116471139Y-96730685D01*
X116412652Y-96763884D01*
X116317633Y-96787304D01*
X116177762Y-96860715D01*
X116059516Y-96965471D01*
X115969781Y-97095475D01*
X115969780Y-97095476D01*
X115913762Y-97243181D01*
X115894721Y-97399999D01*
X115894721Y-97400000D01*
X113555278Y-97400000D01*
X113536237Y-97243182D01*
X113480220Y-97095477D01*
X113480217Y-97095473D01*
X113479648Y-97093972D01*
X113474281Y-97024308D01*
X113479648Y-97006028D01*
X113480217Y-97004526D01*
X113480220Y-97004523D01*
X113536237Y-96856818D01*
X113555278Y-96700000D01*
X113536237Y-96543182D01*
X113480220Y-96395477D01*
X113480217Y-96395473D01*
X113479648Y-96393972D01*
X113474281Y-96324308D01*
X113479648Y-96306028D01*
X113480217Y-96304526D01*
X113480220Y-96304523D01*
X113536237Y-96156818D01*
X113555278Y-96000000D01*
X113545015Y-95915471D01*
X113536237Y-95843181D01*
X113496082Y-95737303D01*
X113480220Y-95695477D01*
X113390483Y-95565470D01*
X113272240Y-95460717D01*
X113272238Y-95460716D01*
X113272237Y-95460715D01*
X113132365Y-95387303D01*
X112978986Y-95349500D01*
X112978985Y-95349500D01*
X112821015Y-95349500D01*
X112821014Y-95349500D01*
X112667637Y-95387303D01*
X112582625Y-95431921D01*
X112514116Y-95445646D01*
X112467373Y-95431920D01*
X112382365Y-95387304D01*
X112382364Y-95387303D01*
X112382363Y-95387303D01*
X112228986Y-95349500D01*
X112228985Y-95349500D01*
X112071015Y-95349500D01*
X112071014Y-95349500D01*
X111917634Y-95387303D01*
X111777762Y-95460715D01*
X111777759Y-95460717D01*
X111777760Y-95460717D01*
X111690875Y-95537690D01*
X111659516Y-95565471D01*
X111569781Y-95695475D01*
X111569780Y-95695476D01*
X111513762Y-95843181D01*
X111494722Y-95999999D01*
X111494722Y-96000000D01*
X111513763Y-96156818D01*
X111570351Y-96306029D01*
X111575718Y-96375692D01*
X111570351Y-96393971D01*
X111513763Y-96543181D01*
X111494722Y-96699999D01*
X111494722Y-96700000D01*
X111513763Y-96856818D01*
X111570351Y-97006029D01*
X111575718Y-97075692D01*
X111570351Y-97093971D01*
X111513763Y-97243181D01*
X111494722Y-97399999D01*
X111494722Y-97400000D01*
X98185277Y-97400000D01*
X98193252Y-96100000D01*
X100394722Y-96100000D01*
X100413762Y-96256818D01*
X100466349Y-96395477D01*
X100469780Y-96404523D01*
X100559517Y-96534530D01*
X100677760Y-96639283D01*
X100677762Y-96639284D01*
X100817634Y-96712696D01*
X100971014Y-96750500D01*
X100971015Y-96750500D01*
X101128985Y-96750500D01*
X101282365Y-96712696D01*
X101312271Y-96697000D01*
X105118222Y-96697000D01*
X105137262Y-96853818D01*
X105192513Y-96999500D01*
X105193280Y-97001523D01*
X105283017Y-97131530D01*
X105401260Y-97236283D01*
X105401262Y-97236284D01*
X105541134Y-97309696D01*
X105694514Y-97347500D01*
X105694515Y-97347500D01*
X105852485Y-97347500D01*
X106005865Y-97309696D01*
X106044758Y-97289283D01*
X106145740Y-97236283D01*
X106263983Y-97131530D01*
X106353720Y-97001523D01*
X106409737Y-96853818D01*
X106428778Y-96697000D01*
X106425801Y-96672477D01*
X106409737Y-96540181D01*
X106373819Y-96445475D01*
X106353720Y-96392477D01*
X106263983Y-96262470D01*
X106145740Y-96157717D01*
X106145738Y-96157716D01*
X106145737Y-96157715D01*
X106005865Y-96084303D01*
X105852486Y-96046500D01*
X105852485Y-96046500D01*
X105694515Y-96046500D01*
X105694514Y-96046500D01*
X105541134Y-96084303D01*
X105401262Y-96157715D01*
X105283016Y-96262471D01*
X105193281Y-96392475D01*
X105193280Y-96392476D01*
X105137262Y-96540181D01*
X105118222Y-96696999D01*
X105118222Y-96697000D01*
X101312271Y-96697000D01*
X101312273Y-96696999D01*
X101422240Y-96639283D01*
X101540483Y-96534530D01*
X101630220Y-96404523D01*
X101686237Y-96256818D01*
X101705278Y-96100000D01*
X101686237Y-95943182D01*
X101630220Y-95795477D01*
X101540483Y-95665470D01*
X101422240Y-95560717D01*
X101422238Y-95560716D01*
X101422237Y-95560715D01*
X101282365Y-95487303D01*
X101128986Y-95449500D01*
X101128985Y-95449500D01*
X100971015Y-95449500D01*
X100971014Y-95449500D01*
X100817634Y-95487303D01*
X100677762Y-95560715D01*
X100559516Y-95665471D01*
X100469781Y-95795475D01*
X100469780Y-95795476D01*
X100413762Y-95943181D01*
X100394722Y-96099999D01*
X100394722Y-96100000D01*
X98193252Y-96100000D01*
X98200000Y-95000000D01*
X94524000Y-95000000D01*
X94456961Y-94980315D01*
X94411206Y-94927511D01*
X94403481Y-94892000D01*
X103072722Y-94892000D01*
X103091762Y-95048818D01*
X103141253Y-95179312D01*
X103147780Y-95196523D01*
X103237517Y-95326530D01*
X103355760Y-95431283D01*
X103355762Y-95431284D01*
X103495634Y-95504696D01*
X103649014Y-95542500D01*
X103649015Y-95542500D01*
X103806985Y-95542500D01*
X103960365Y-95504696D01*
X104039500Y-95463162D01*
X104100240Y-95431283D01*
X104218483Y-95326530D01*
X104308220Y-95196523D01*
X104364237Y-95048818D01*
X104367129Y-95025000D01*
X123494721Y-95025000D01*
X123513762Y-95181818D01*
X123568644Y-95326528D01*
X123569780Y-95329523D01*
X123659517Y-95459530D01*
X123777760Y-95564283D01*
X123777762Y-95564284D01*
X123917634Y-95637696D01*
X124071014Y-95675500D01*
X124071015Y-95675500D01*
X124228985Y-95675500D01*
X124382365Y-95637696D01*
X124522240Y-95564283D01*
X124640483Y-95459530D01*
X124730220Y-95329523D01*
X124786237Y-95181818D01*
X124792563Y-95129710D01*
X124820183Y-95065533D01*
X124858035Y-95034859D01*
X124897236Y-95014285D01*
X124897235Y-95014285D01*
X124897240Y-95014283D01*
X125015483Y-94909530D01*
X125105220Y-94779523D01*
X125161237Y-94631818D01*
X125180278Y-94475000D01*
X125178517Y-94460500D01*
X125161237Y-94318182D01*
X125156927Y-94306818D01*
X125105220Y-94170477D01*
X125105217Y-94170473D01*
X125104648Y-94168972D01*
X125099281Y-94099308D01*
X125104648Y-94081028D01*
X125105217Y-94079526D01*
X125105220Y-94079523D01*
X125161237Y-93931818D01*
X125180278Y-93775000D01*
X125162051Y-93624881D01*
X125161237Y-93618181D01*
X125128618Y-93532172D01*
X125109388Y-93481469D01*
X125104022Y-93411808D01*
X125109389Y-93393529D01*
X125119750Y-93366211D01*
X125161237Y-93256818D01*
X125180278Y-93100000D01*
X125167587Y-92995475D01*
X125161237Y-92943181D01*
X125127975Y-92855477D01*
X125105220Y-92795477D01*
X125015483Y-92665470D01*
X124897240Y-92560717D01*
X124897238Y-92560716D01*
X124897237Y-92560715D01*
X124757366Y-92487304D01*
X124615124Y-92452245D01*
X124554743Y-92417089D01*
X124533881Y-92376256D01*
X124491757Y-92429421D01*
X124449875Y-92448548D01*
X124292633Y-92487304D01*
X124152762Y-92560715D01*
X124034516Y-92665471D01*
X123944781Y-92795475D01*
X123944780Y-92795476D01*
X123888762Y-92943181D01*
X123869721Y-93099999D01*
X123869721Y-93100000D01*
X123888763Y-93256818D01*
X123940610Y-93393529D01*
X123945977Y-93463192D01*
X123940610Y-93481471D01*
X123888763Y-93618181D01*
X123869721Y-93774999D01*
X123869721Y-93775000D01*
X123888763Y-93931818D01*
X123945351Y-94081029D01*
X123950718Y-94150692D01*
X123945351Y-94168971D01*
X123888763Y-94318178D01*
X123888762Y-94318183D01*
X123882435Y-94370291D01*
X123854812Y-94434469D01*
X123816968Y-94465138D01*
X123777760Y-94485716D01*
X123777760Y-94485717D01*
X123662896Y-94587477D01*
X123659516Y-94590471D01*
X123569781Y-94720475D01*
X123569780Y-94720476D01*
X123513762Y-94868181D01*
X123494721Y-95024999D01*
X123494721Y-95025000D01*
X104367129Y-95025000D01*
X104383278Y-94892000D01*
X104364237Y-94735182D01*
X104358659Y-94720475D01*
X104342992Y-94679164D01*
X104308220Y-94587477D01*
X104218483Y-94457470D01*
X104100240Y-94352717D01*
X104100238Y-94352716D01*
X104100237Y-94352715D01*
X103960365Y-94279303D01*
X103806986Y-94241500D01*
X103806985Y-94241500D01*
X103649015Y-94241500D01*
X103649014Y-94241500D01*
X103495634Y-94279303D01*
X103355762Y-94352715D01*
X103355759Y-94352717D01*
X103355760Y-94352717D01*
X103240843Y-94454524D01*
X103237516Y-94457471D01*
X103147781Y-94587475D01*
X103147780Y-94587476D01*
X103091762Y-94735181D01*
X103072722Y-94891999D01*
X103072722Y-94892000D01*
X94403481Y-94892000D01*
X94400000Y-94876000D01*
X94400000Y-94150000D01*
X112144722Y-94150000D01*
X112163762Y-94306818D01*
X112212336Y-94434895D01*
X112219780Y-94454523D01*
X112309517Y-94584530D01*
X112427760Y-94689283D01*
X112427762Y-94689284D01*
X112567634Y-94762696D01*
X112721014Y-94800500D01*
X112721015Y-94800500D01*
X112878985Y-94800500D01*
X113032365Y-94762696D01*
X113032364Y-94762696D01*
X113172240Y-94689283D01*
X113290483Y-94584530D01*
X113380220Y-94454523D01*
X113436237Y-94306818D01*
X113455278Y-94150000D01*
X113452243Y-94125000D01*
X113436237Y-93993181D01*
X113388562Y-93867474D01*
X113380220Y-93845477D01*
X113290483Y-93715470D01*
X113172240Y-93610717D01*
X113172238Y-93610716D01*
X113172237Y-93610715D01*
X113032365Y-93537303D01*
X112878986Y-93499500D01*
X112878985Y-93499500D01*
X112721015Y-93499500D01*
X112721014Y-93499500D01*
X112567634Y-93537303D01*
X112427762Y-93610715D01*
X112309516Y-93715471D01*
X112219781Y-93845475D01*
X112219780Y-93845476D01*
X112163762Y-93993181D01*
X112144722Y-94149999D01*
X112144722Y-94150000D01*
X94400000Y-94150000D01*
X94400000Y-93350000D01*
X94012821Y-93353253D01*
X93945618Y-93334132D01*
X93899421Y-93281714D01*
X93888683Y-93214312D01*
X93895278Y-93160000D01*
X93894064Y-93150000D01*
X95494722Y-93150000D01*
X95513762Y-93306818D01*
X95553580Y-93411808D01*
X95569780Y-93454523D01*
X95659517Y-93584530D01*
X95777760Y-93689283D01*
X95777762Y-93689284D01*
X95917634Y-93762696D01*
X96071014Y-93800500D01*
X96071015Y-93800500D01*
X96228985Y-93800500D01*
X96382365Y-93762696D01*
X96454906Y-93724623D01*
X96522240Y-93689283D01*
X96640483Y-93584530D01*
X96730220Y-93454523D01*
X96786237Y-93306818D01*
X96787065Y-93300000D01*
X115194721Y-93300000D01*
X115213762Y-93456818D01*
X115259293Y-93576872D01*
X115269780Y-93604523D01*
X115359517Y-93734530D01*
X115477760Y-93839283D01*
X115477762Y-93839284D01*
X115617634Y-93912696D01*
X115771014Y-93950500D01*
X115771015Y-93950500D01*
X115928985Y-93950500D01*
X116082365Y-93912696D01*
X116142372Y-93881200D01*
X116210879Y-93867474D01*
X116257624Y-93881199D01*
X116317635Y-93912696D01*
X116382040Y-93928570D01*
X116471014Y-93950500D01*
X116471015Y-93950500D01*
X116628985Y-93950500D01*
X116782365Y-93912696D01*
X116788799Y-93909319D01*
X116922240Y-93839283D01*
X117040483Y-93734530D01*
X117130220Y-93604523D01*
X117186237Y-93456818D01*
X117205278Y-93300000D01*
X117201723Y-93270717D01*
X117186237Y-93143181D01*
X117133142Y-93003182D01*
X117130220Y-92995477D01*
X117040483Y-92865470D01*
X116922240Y-92760717D01*
X116922238Y-92760716D01*
X116922237Y-92760715D01*
X116782365Y-92687303D01*
X116628986Y-92649500D01*
X116628985Y-92649500D01*
X116471015Y-92649500D01*
X116317637Y-92687303D01*
X116257623Y-92718800D01*
X116189114Y-92732523D01*
X116142373Y-92718799D01*
X116133913Y-92714359D01*
X116082365Y-92687304D01*
X116082362Y-92687303D01*
X115928986Y-92649500D01*
X115928985Y-92649500D01*
X115771015Y-92649500D01*
X115771014Y-92649500D01*
X115617634Y-92687303D01*
X115477762Y-92760715D01*
X115359516Y-92865471D01*
X115269781Y-92995475D01*
X115269780Y-92995476D01*
X115213762Y-93143181D01*
X115194721Y-93299999D01*
X115194721Y-93300000D01*
X96787065Y-93300000D01*
X96805278Y-93150000D01*
X96786516Y-92995475D01*
X96786237Y-92993181D01*
X96764992Y-92937164D01*
X96730220Y-92845477D01*
X96640483Y-92715470D01*
X96522240Y-92610717D01*
X96522238Y-92610716D01*
X96522237Y-92610715D01*
X96382365Y-92537303D01*
X96228986Y-92499500D01*
X96228985Y-92499500D01*
X96071015Y-92499500D01*
X96071014Y-92499500D01*
X95917634Y-92537303D01*
X95777762Y-92610715D01*
X95659516Y-92715471D01*
X95569781Y-92845475D01*
X95569780Y-92845476D01*
X95513762Y-92993181D01*
X95494722Y-93149999D01*
X95494722Y-93150000D01*
X93894064Y-93150000D01*
X93876237Y-93003182D01*
X93820220Y-92855477D01*
X93730483Y-92725470D01*
X93612240Y-92620717D01*
X93612238Y-92620716D01*
X93612237Y-92620715D01*
X93472365Y-92547303D01*
X93318986Y-92509500D01*
X93318985Y-92509500D01*
X93161015Y-92509500D01*
X93161014Y-92509500D01*
X93007634Y-92547303D01*
X92867762Y-92620715D01*
X92749516Y-92725471D01*
X92659781Y-92855475D01*
X92659780Y-92855476D01*
X92603762Y-93003181D01*
X92584722Y-93159999D01*
X92584722Y-93160001D01*
X92592889Y-93227270D01*
X92581428Y-93296193D01*
X92534523Y-93347979D01*
X92470835Y-93366211D01*
X88449999Y-93399999D01*
X88439832Y-94914924D01*
X88419698Y-94981830D01*
X88366588Y-95027230D01*
X88297365Y-95036709D01*
X88234005Y-95007258D01*
X88216882Y-94988821D01*
X88211603Y-94981830D01*
X88203872Y-94971593D01*
X88046302Y-94827948D01*
X87865019Y-94715702D01*
X87865017Y-94715701D01*
X87765608Y-94677190D01*
X87666198Y-94638679D01*
X87456610Y-94599500D01*
X87243390Y-94599500D01*
X87033802Y-94638679D01*
X87033799Y-94638679D01*
X87033799Y-94638680D01*
X86834982Y-94715701D01*
X86834980Y-94715702D01*
X86653699Y-94827947D01*
X86496127Y-94971593D01*
X86367632Y-95141746D01*
X86272596Y-95332605D01*
X86272596Y-95332607D01*
X86218633Y-95522266D01*
X86214244Y-95537690D01*
X86199500Y-95696806D01*
X86199500Y-96103194D01*
X86214244Y-96262310D01*
X86266360Y-96445477D01*
X86272596Y-96467392D01*
X86272596Y-96467394D01*
X86367632Y-96658253D01*
X86486958Y-96816264D01*
X86496128Y-96828407D01*
X86653698Y-96972052D01*
X86834981Y-97084298D01*
X87033802Y-97161321D01*
X87243390Y-97200500D01*
X87243392Y-97200500D01*
X87456608Y-97200500D01*
X87456610Y-97200500D01*
X87666198Y-97161321D01*
X87865019Y-97084298D01*
X88046302Y-96972052D01*
X88203872Y-96828407D01*
X88203876Y-96828402D01*
X88207733Y-96824172D01*
X88208684Y-96825038D01*
X88259624Y-96787229D01*
X88329335Y-96782529D01*
X88390521Y-96816264D01*
X88423756Y-96877723D01*
X88426480Y-96904419D01*
X88400000Y-100849999D01*
X88400000Y-100850000D01*
X92824639Y-100801377D01*
X92891889Y-100820324D01*
X92938222Y-100872622D01*
X92950000Y-100925370D01*
X92950000Y-103150000D01*
X92981131Y-106792348D01*
X92962021Y-106859553D01*
X92909610Y-106905758D01*
X92840539Y-106916292D01*
X92776737Y-106887812D01*
X92758332Y-106868333D01*
X92692922Y-106782077D01*
X92572343Y-106690639D01*
X92431561Y-106635122D01*
X92385926Y-106629642D01*
X92343102Y-106624500D01*
X91056898Y-106624500D01*
X91033340Y-106627329D01*
X90964432Y-106615776D01*
X90912709Y-106568803D01*
X90895462Y-106519159D01*
X90893136Y-106500000D01*
X90886237Y-106443182D01*
X90830220Y-106295477D01*
X90740483Y-106165470D01*
X90622240Y-106060717D01*
X90622238Y-106060716D01*
X90622237Y-106060715D01*
X90482365Y-105987303D01*
X90328986Y-105949500D01*
X90328985Y-105949500D01*
X90171015Y-105949500D01*
X90171014Y-105949500D01*
X90017634Y-105987303D01*
X89877762Y-106060715D01*
X89759516Y-106165471D01*
X89669781Y-106295475D01*
X89669780Y-106295476D01*
X89613763Y-106443180D01*
X89601353Y-106545385D01*
X89573731Y-106609563D01*
X89515797Y-106648619D01*
X89455472Y-106652327D01*
X89391516Y-106640371D01*
X89306610Y-106624500D01*
X89093390Y-106624500D01*
X88883802Y-106663679D01*
X88883799Y-106663679D01*
X88883799Y-106663680D01*
X88684982Y-106740701D01*
X88684980Y-106740702D01*
X88503699Y-106852947D01*
X88346127Y-106996593D01*
X88217632Y-107166746D01*
X88122596Y-107357605D01*
X88122596Y-107357607D01*
X88069266Y-107545039D01*
X88031986Y-107604132D01*
X87968676Y-107633689D01*
X87899437Y-107624327D01*
X87846251Y-107579017D01*
X87830734Y-107545039D01*
X87801752Y-107443182D01*
X87777405Y-107357611D01*
X87777403Y-107357606D01*
X87777403Y-107357605D01*
X87682367Y-107166746D01*
X87553872Y-106996593D01*
X87396302Y-106852948D01*
X87215019Y-106740702D01*
X87215017Y-106740701D01*
X87085790Y-106690639D01*
X87016198Y-106663679D01*
X86806610Y-106624500D01*
X86593390Y-106624500D01*
X86383802Y-106663679D01*
X86383799Y-106663679D01*
X86383799Y-106663680D01*
X86184982Y-106740701D01*
X86184980Y-106740702D01*
X86003699Y-106852947D01*
X85846127Y-106996593D01*
X85717632Y-107166746D01*
X85622596Y-107357605D01*
X85622596Y-107357607D01*
X85569266Y-107545039D01*
X85531986Y-107604132D01*
X85468676Y-107633689D01*
X85399437Y-107624327D01*
X85346251Y-107579017D01*
X85330734Y-107545039D01*
X85301752Y-107443182D01*
X85277405Y-107357611D01*
X85277403Y-107357606D01*
X85277403Y-107357605D01*
X85182367Y-107166746D01*
X85053872Y-106996593D01*
X85053872Y-106996592D01*
X84896302Y-106852948D01*
X84715019Y-106740702D01*
X84715017Y-106740701D01*
X84585790Y-106690639D01*
X84516198Y-106663679D01*
X84306610Y-106624500D01*
X84093390Y-106624500D01*
X83883802Y-106663679D01*
X83883799Y-106663679D01*
X83883799Y-106663680D01*
X83684982Y-106740701D01*
X83684980Y-106740702D01*
X83503699Y-106852947D01*
X83346127Y-106996593D01*
X83217632Y-107166746D01*
X83122596Y-107357605D01*
X83122596Y-107357607D01*
X83069266Y-107545039D01*
X83031986Y-107604132D01*
X82968676Y-107633689D01*
X82899437Y-107624327D01*
X82846251Y-107579017D01*
X82830734Y-107545039D01*
X82801752Y-107443182D01*
X82777405Y-107357611D01*
X82777403Y-107357606D01*
X82777403Y-107357605D01*
X82682367Y-107166746D01*
X82553872Y-106996593D01*
X82396302Y-106852948D01*
X82215019Y-106740702D01*
X82215017Y-106740701D01*
X82085790Y-106690639D01*
X82016198Y-106663679D01*
X81806610Y-106624500D01*
X81593390Y-106624500D01*
X81383802Y-106663679D01*
X81383799Y-106663679D01*
X81383799Y-106663680D01*
X81184982Y-106740701D01*
X81184980Y-106740702D01*
X81003699Y-106852947D01*
X80846127Y-106996593D01*
X80717632Y-107166746D01*
X80622596Y-107357605D01*
X80622596Y-107357607D01*
X80565915Y-107556818D01*
X80564244Y-107562690D01*
X80549500Y-107721806D01*
X80549500Y-108078194D01*
X80564244Y-108237310D01*
X80614146Y-108412696D01*
X80622596Y-108442392D01*
X80622596Y-108442394D01*
X80717632Y-108633253D01*
X80810753Y-108756564D01*
X80846128Y-108803407D01*
X80973747Y-108919748D01*
X80982137Y-108927396D01*
X81018418Y-108987108D01*
X81016657Y-109056955D01*
X80977413Y-109114763D01*
X80913146Y-109142177D01*
X80900064Y-109143024D01*
X76043919Y-109200425D01*
X75976651Y-109181535D01*
X75930275Y-109129275D01*
X75919515Y-109060239D01*
X75926512Y-109032462D01*
X75936236Y-109006822D01*
X75936236Y-109006820D01*
X75936237Y-109006818D01*
X75955278Y-108850000D01*
X75952842Y-108829933D01*
X75936237Y-108693181D01*
X75880220Y-108545477D01*
X75880214Y-108545469D01*
X75880197Y-108545444D01*
X75880188Y-108545417D01*
X75876733Y-108538833D01*
X75877827Y-108538258D01*
X75858312Y-108479093D01*
X75875773Y-108411440D01*
X75880191Y-108404565D01*
X75880220Y-108404523D01*
X75936237Y-108256818D01*
X75955278Y-108100000D01*
X75944678Y-108012696D01*
X75936237Y-107943181D01*
X75914992Y-107887164D01*
X75880220Y-107795477D01*
X75790483Y-107665470D01*
X75672240Y-107560717D01*
X75672238Y-107560716D01*
X75672237Y-107560715D01*
X75532365Y-107487303D01*
X75378986Y-107449500D01*
X75378985Y-107449500D01*
X75221015Y-107449500D01*
X75067635Y-107487303D01*
X75007625Y-107518800D01*
X74939117Y-107532525D01*
X74892375Y-107518800D01*
X74832364Y-107487303D01*
X74678985Y-107449500D01*
X74521015Y-107449500D01*
X74367635Y-107487303D01*
X74307625Y-107518800D01*
X74239117Y-107532525D01*
X74192375Y-107518800D01*
X74132364Y-107487303D01*
X73978985Y-107449500D01*
X73821015Y-107449500D01*
X73821014Y-107449500D01*
X73667634Y-107487303D01*
X73527762Y-107560715D01*
X73409515Y-107665471D01*
X73406921Y-107669230D01*
X73352635Y-107713217D01*
X73283186Y-107720872D01*
X73220623Y-107689766D01*
X73184810Y-107629773D01*
X73181164Y-107590326D01*
X73185291Y-107530000D01*
X73166148Y-107250138D01*
X73122332Y-107039283D01*
X73109078Y-106975500D01*
X73109073Y-106975483D01*
X73065524Y-106852948D01*
X73015136Y-106711170D01*
X72886081Y-106462104D01*
X72724312Y-106232931D01*
X72724307Y-106232925D01*
X72532845Y-106027919D01*
X72315245Y-105850888D01*
X72193700Y-105776975D01*
X72146648Y-105725323D01*
X72134991Y-105656433D01*
X72162429Y-105592176D01*
X72220251Y-105552954D01*
X72228455Y-105550630D01*
X72228982Y-105550500D01*
X72228985Y-105550500D01*
X72382365Y-105512696D01*
X72522240Y-105439283D01*
X72640483Y-105334530D01*
X72664317Y-105300000D01*
X85394722Y-105300000D01*
X85413762Y-105456818D01*
X85454610Y-105564523D01*
X85469780Y-105604523D01*
X85559517Y-105734530D01*
X85677760Y-105839283D01*
X85677762Y-105839284D01*
X85817634Y-105912696D01*
X85971014Y-105950500D01*
X85971015Y-105950500D01*
X86128985Y-105950500D01*
X86282365Y-105912696D01*
X86305602Y-105900500D01*
X86422240Y-105839283D01*
X86540483Y-105734530D01*
X86630220Y-105604523D01*
X86686237Y-105456818D01*
X86705278Y-105300000D01*
X86686237Y-105143182D01*
X86630220Y-104995477D01*
X86540483Y-104865470D01*
X86422240Y-104760717D01*
X86422238Y-104760716D01*
X86422237Y-104760715D01*
X86282365Y-104687303D01*
X86128986Y-104649500D01*
X86128985Y-104649500D01*
X85971015Y-104649500D01*
X85971014Y-104649500D01*
X85817634Y-104687303D01*
X85677762Y-104760715D01*
X85559516Y-104865471D01*
X85469781Y-104995475D01*
X85469780Y-104995476D01*
X85413762Y-105143181D01*
X85394722Y-105299999D01*
X85394722Y-105300000D01*
X72664317Y-105300000D01*
X72730220Y-105204523D01*
X72786237Y-105056818D01*
X72805278Y-104900000D01*
X72801086Y-104865471D01*
X72786237Y-104743181D01*
X72730220Y-104595477D01*
X72730197Y-104595444D01*
X72730188Y-104595417D01*
X72726733Y-104588833D01*
X72727827Y-104588258D01*
X72708312Y-104529093D01*
X72725773Y-104461440D01*
X72730189Y-104454566D01*
X72730220Y-104454523D01*
X72786237Y-104306818D01*
X72805278Y-104150000D01*
X72803737Y-104137304D01*
X72786237Y-103993181D01*
X72754962Y-103910717D01*
X72730220Y-103845477D01*
X72640483Y-103715470D01*
X72522240Y-103610717D01*
X72522238Y-103610716D01*
X72522237Y-103610715D01*
X72382365Y-103537303D01*
X72228986Y-103499500D01*
X72228985Y-103499500D01*
X72071015Y-103499500D01*
X72071011Y-103499500D01*
X72017076Y-103512793D01*
X71947273Y-103509723D01*
X71890212Y-103469402D01*
X71864008Y-103404632D01*
X71863404Y-103392147D01*
X71864393Y-102960000D01*
X76734722Y-102960000D01*
X76753762Y-103116818D01*
X76809779Y-103264523D01*
X76809780Y-103264523D01*
X76899517Y-103394530D01*
X77017760Y-103499283D01*
X77029860Y-103505633D01*
X77157634Y-103572696D01*
X77311014Y-103610500D01*
X77311015Y-103610500D01*
X77468985Y-103610500D01*
X77622365Y-103572696D01*
X77665608Y-103550000D01*
X77762240Y-103499283D01*
X77880483Y-103394530D01*
X77970220Y-103264523D01*
X78026237Y-103116818D01*
X78045278Y-102960000D01*
X78026237Y-102803182D01*
X78008653Y-102756818D01*
X77980020Y-102681318D01*
X77970220Y-102655477D01*
X77880483Y-102525470D01*
X77762240Y-102420717D01*
X77762238Y-102420716D01*
X77762237Y-102420715D01*
X77622365Y-102347303D01*
X77468986Y-102309500D01*
X77468985Y-102309500D01*
X77311015Y-102309500D01*
X77311014Y-102309500D01*
X77157634Y-102347303D01*
X77017762Y-102420715D01*
X76899516Y-102525471D01*
X76809781Y-102655475D01*
X76809780Y-102655476D01*
X76753762Y-102803181D01*
X76734722Y-102959999D01*
X76734722Y-102960000D01*
X71864393Y-102960000D01*
X71872725Y-99318756D01*
X71873178Y-99311418D01*
X71875615Y-99291350D01*
X71892778Y-99150000D01*
X71873934Y-98994811D01*
X71873484Y-98987218D01*
X71876773Y-97550000D01*
X78444722Y-97550000D01*
X78463762Y-97706818D01*
X78501688Y-97806818D01*
X78519780Y-97854523D01*
X78609517Y-97984530D01*
X78727760Y-98089283D01*
X78727762Y-98089284D01*
X78867634Y-98162696D01*
X79021014Y-98200500D01*
X79021015Y-98200500D01*
X79178985Y-98200500D01*
X79332365Y-98162696D01*
X79332364Y-98162695D01*
X79472240Y-98089283D01*
X79590483Y-97984530D01*
X79680220Y-97854523D01*
X79736237Y-97706818D01*
X79755278Y-97550000D01*
X79736237Y-97393182D01*
X79680220Y-97245477D01*
X79590483Y-97115470D01*
X79472240Y-97010717D01*
X79472238Y-97010716D01*
X79472237Y-97010715D01*
X79332365Y-96937303D01*
X79178986Y-96899500D01*
X79178985Y-96899500D01*
X79021015Y-96899500D01*
X79021014Y-96899500D01*
X78867634Y-96937303D01*
X78727762Y-97010715D01*
X78654418Y-97075692D01*
X78633784Y-97093972D01*
X78609516Y-97115471D01*
X78519781Y-97245475D01*
X78519780Y-97245476D01*
X78463762Y-97393181D01*
X78444722Y-97549999D01*
X78444722Y-97550000D01*
X71876773Y-97550000D01*
X71878604Y-96750000D01*
X74394722Y-96750000D01*
X74413762Y-96906818D01*
X74456427Y-97019315D01*
X74469780Y-97054523D01*
X74559517Y-97184530D01*
X74677760Y-97289283D01*
X74677762Y-97289284D01*
X74817634Y-97362696D01*
X74971014Y-97400500D01*
X74971015Y-97400500D01*
X75128985Y-97400500D01*
X75282365Y-97362696D01*
X75311318Y-97347500D01*
X75422240Y-97289283D01*
X75540483Y-97184530D01*
X75630220Y-97054523D01*
X75686237Y-96906818D01*
X75705278Y-96750000D01*
X75690016Y-96624300D01*
X75686237Y-96593181D01*
X75663993Y-96534528D01*
X75630220Y-96445477D01*
X75540483Y-96315470D01*
X75422240Y-96210717D01*
X75422238Y-96210716D01*
X75422237Y-96210715D01*
X75282365Y-96137303D01*
X75131015Y-96100000D01*
X82544722Y-96100000D01*
X82563762Y-96256818D01*
X82616349Y-96395477D01*
X82619780Y-96404523D01*
X82709517Y-96534530D01*
X82827760Y-96639283D01*
X82827762Y-96639284D01*
X82967634Y-96712696D01*
X83121014Y-96750500D01*
X83121015Y-96750500D01*
X83278985Y-96750500D01*
X83432365Y-96712696D01*
X83462273Y-96696999D01*
X83572240Y-96639283D01*
X83690483Y-96534530D01*
X83780220Y-96404523D01*
X83836237Y-96256818D01*
X83855278Y-96100000D01*
X83836237Y-95943182D01*
X83780220Y-95795477D01*
X83690483Y-95665470D01*
X83572240Y-95560717D01*
X83572238Y-95560716D01*
X83572237Y-95560715D01*
X83432365Y-95487303D01*
X83278986Y-95449500D01*
X83278985Y-95449500D01*
X83121015Y-95449500D01*
X83121014Y-95449500D01*
X82967634Y-95487303D01*
X82827762Y-95560715D01*
X82709516Y-95665471D01*
X82619781Y-95795475D01*
X82619780Y-95795476D01*
X82563762Y-95943181D01*
X82544722Y-96099999D01*
X82544722Y-96100000D01*
X75131015Y-96100000D01*
X75128986Y-96099500D01*
X75128985Y-96099500D01*
X74971015Y-96099500D01*
X74971014Y-96099500D01*
X74817634Y-96137303D01*
X74677762Y-96210715D01*
X74559516Y-96315471D01*
X74469781Y-96445475D01*
X74469780Y-96445476D01*
X74413762Y-96593181D01*
X74394722Y-96749999D01*
X74394722Y-96750000D01*
X71878604Y-96750000D01*
X71878781Y-96672477D01*
X71879231Y-96665175D01*
X71881778Y-96644200D01*
X71879360Y-96624288D01*
X71878909Y-96616676D01*
X71879097Y-96534528D01*
X71885396Y-93781700D01*
X75193722Y-93781700D01*
X75212762Y-93938518D01*
X75233494Y-93993182D01*
X75268780Y-94086223D01*
X75358517Y-94216230D01*
X75476760Y-94320983D01*
X75476762Y-94320984D01*
X75616634Y-94394396D01*
X75770014Y-94432200D01*
X75770015Y-94432200D01*
X75927985Y-94432200D01*
X76081365Y-94394396D01*
X76221240Y-94320983D01*
X76339483Y-94216230D01*
X76429220Y-94086223D01*
X76485237Y-93938518D01*
X76500842Y-93810000D01*
X76754722Y-93810000D01*
X76773762Y-93966818D01*
X76824010Y-94099308D01*
X76829780Y-94114523D01*
X76919517Y-94244530D01*
X77037760Y-94349283D01*
X77037762Y-94349284D01*
X77177634Y-94422696D01*
X77331014Y-94460500D01*
X77331015Y-94460500D01*
X77488985Y-94460500D01*
X77642365Y-94422696D01*
X77696285Y-94394396D01*
X77782240Y-94349283D01*
X77900483Y-94244530D01*
X77990220Y-94114523D01*
X78046237Y-93966818D01*
X78065278Y-93810000D01*
X78054912Y-93724623D01*
X78046237Y-93653181D01*
X78004564Y-93543299D01*
X77990220Y-93505477D01*
X77900483Y-93375470D01*
X77782240Y-93270717D01*
X77782238Y-93270716D01*
X77782237Y-93270715D01*
X77642365Y-93197303D01*
X77488986Y-93159500D01*
X77488985Y-93159500D01*
X77331015Y-93159500D01*
X77331014Y-93159500D01*
X77177634Y-93197303D01*
X77037762Y-93270715D01*
X76919516Y-93375471D01*
X76829781Y-93505475D01*
X76829780Y-93505476D01*
X76773762Y-93653181D01*
X76754722Y-93809999D01*
X76754722Y-93810000D01*
X76500842Y-93810000D01*
X76504278Y-93781700D01*
X76503465Y-93775000D01*
X76485237Y-93624881D01*
X76450077Y-93532172D01*
X76429220Y-93477177D01*
X76339483Y-93347170D01*
X76221240Y-93242417D01*
X76221238Y-93242416D01*
X76221237Y-93242415D01*
X76081365Y-93169003D01*
X75927986Y-93131200D01*
X75927985Y-93131200D01*
X75770015Y-93131200D01*
X75770014Y-93131200D01*
X75616634Y-93169003D01*
X75476762Y-93242415D01*
X75358516Y-93347171D01*
X75268781Y-93477175D01*
X75268780Y-93477176D01*
X75212762Y-93624881D01*
X75193722Y-93781699D01*
X75193722Y-93781700D01*
X71885396Y-93781700D01*
X71890320Y-91630000D01*
X109344722Y-91630000D01*
X109363762Y-91786818D01*
X109419780Y-91934522D01*
X109419780Y-91934523D01*
X109509517Y-92064530D01*
X109627760Y-92169283D01*
X109627762Y-92169284D01*
X109767634Y-92242696D01*
X109921014Y-92280500D01*
X109921015Y-92280500D01*
X110078985Y-92280500D01*
X110232365Y-92242696D01*
X110232364Y-92242696D01*
X110372240Y-92169283D01*
X110490483Y-92064530D01*
X110516048Y-92027492D01*
X110570329Y-91983503D01*
X110639777Y-91975843D01*
X110702342Y-92006945D01*
X110720147Y-92027493D01*
X110739184Y-92055073D01*
X110759517Y-92084530D01*
X110877760Y-92189283D01*
X110877762Y-92189284D01*
X111017634Y-92262696D01*
X111171014Y-92300500D01*
X111171015Y-92300500D01*
X111328985Y-92300500D01*
X111482365Y-92262696D01*
X111505602Y-92250500D01*
X111622240Y-92189283D01*
X111740483Y-92084530D01*
X111830220Y-91954523D01*
X111886237Y-91806818D01*
X111905278Y-91650000D01*
X111902850Y-91629999D01*
X111886237Y-91493181D01*
X111863993Y-91434530D01*
X111830220Y-91345477D01*
X111740483Y-91215470D01*
X111622240Y-91110717D01*
X111622238Y-91110716D01*
X111622237Y-91110715D01*
X111506557Y-91050000D01*
X112244722Y-91050000D01*
X112263762Y-91206818D01*
X112316349Y-91345476D01*
X112319780Y-91354523D01*
X112409517Y-91484530D01*
X112527760Y-91589283D01*
X112527762Y-91589284D01*
X112667634Y-91662696D01*
X112821014Y-91700500D01*
X112821015Y-91700500D01*
X112978985Y-91700500D01*
X113132365Y-91662696D01*
X113194663Y-91629999D01*
X113251821Y-91600000D01*
X116194721Y-91600000D01*
X116213762Y-91756818D01*
X116249102Y-91850000D01*
X116269780Y-91904523D01*
X116359517Y-92034530D01*
X116477760Y-92139283D01*
X116477762Y-92139284D01*
X116617634Y-92212696D01*
X116771014Y-92250500D01*
X116771015Y-92250500D01*
X116928985Y-92250500D01*
X117082365Y-92212696D01*
X117126974Y-92189283D01*
X117222240Y-92139283D01*
X117340483Y-92034530D01*
X117430220Y-91904523D01*
X117486237Y-91756818D01*
X117505278Y-91600000D01*
X117486237Y-91443182D01*
X117430220Y-91295477D01*
X117340483Y-91165470D01*
X117222240Y-91060717D01*
X117222238Y-91060716D01*
X117222237Y-91060715D01*
X117082365Y-90987303D01*
X116928986Y-90949500D01*
X116928985Y-90949500D01*
X116771015Y-90949500D01*
X116771014Y-90949500D01*
X116617634Y-90987303D01*
X116477762Y-91060715D01*
X116359516Y-91165471D01*
X116269781Y-91295475D01*
X116269780Y-91295476D01*
X116213762Y-91443181D01*
X116194721Y-91599999D01*
X116194721Y-91600000D01*
X113251821Y-91600000D01*
X113272240Y-91589283D01*
X113390483Y-91484530D01*
X113480220Y-91354523D01*
X113536237Y-91206818D01*
X113555278Y-91050000D01*
X113555278Y-91049999D01*
X113547926Y-90989446D01*
X113559387Y-90920522D01*
X113606291Y-90868737D01*
X113671022Y-90850500D01*
X113778985Y-90850500D01*
X113932365Y-90812696D01*
X113932365Y-90812695D01*
X114072240Y-90739283D01*
X114190483Y-90634530D01*
X114280220Y-90504523D01*
X114336237Y-90356818D01*
X114355278Y-90200000D01*
X114336237Y-90043182D01*
X114280220Y-89895477D01*
X114190483Y-89765470D01*
X114072240Y-89660717D01*
X114072238Y-89660716D01*
X114072237Y-89660715D01*
X113932365Y-89587303D01*
X113778986Y-89549500D01*
X113778985Y-89549500D01*
X113621015Y-89549500D01*
X113621014Y-89549500D01*
X113467634Y-89587303D01*
X113327762Y-89660715D01*
X113209516Y-89765471D01*
X113119781Y-89895475D01*
X113119780Y-89895476D01*
X113063762Y-90043181D01*
X113044722Y-90199999D01*
X113044722Y-90200000D01*
X113052074Y-90260554D01*
X113040613Y-90329478D01*
X112993709Y-90381263D01*
X112928978Y-90399500D01*
X112821014Y-90399500D01*
X112667634Y-90437303D01*
X112527762Y-90510715D01*
X112409516Y-90615471D01*
X112319781Y-90745475D01*
X112319780Y-90745476D01*
X112263762Y-90893181D01*
X112244722Y-91049999D01*
X112244722Y-91050000D01*
X111506557Y-91050000D01*
X111482365Y-91037303D01*
X111328986Y-90999500D01*
X111328985Y-90999500D01*
X111171015Y-90999500D01*
X111171014Y-90999500D01*
X111017634Y-91037303D01*
X110877762Y-91110715D01*
X110759516Y-91215470D01*
X110733951Y-91252508D01*
X110679667Y-91296497D01*
X110610219Y-91304155D01*
X110547654Y-91273051D01*
X110529852Y-91252506D01*
X110527365Y-91248903D01*
X110490483Y-91195470D01*
X110372240Y-91090717D01*
X110372238Y-91090716D01*
X110372237Y-91090715D01*
X110232365Y-91017303D01*
X110078986Y-90979500D01*
X110078985Y-90979500D01*
X109921015Y-90979500D01*
X109921014Y-90979500D01*
X109767634Y-91017303D01*
X109627762Y-91090715D01*
X109509516Y-91195471D01*
X109419781Y-91325475D01*
X109419780Y-91325476D01*
X109363762Y-91473181D01*
X109344722Y-91629999D01*
X109344722Y-91630000D01*
X71890320Y-91630000D01*
X71894931Y-89615085D01*
X71914768Y-89548095D01*
X71967677Y-89502461D01*
X72036858Y-89492676D01*
X72048606Y-89494977D01*
X72071011Y-89500499D01*
X72071014Y-89500500D01*
X72071015Y-89500500D01*
X72228985Y-89500500D01*
X72382365Y-89462696D01*
X72426974Y-89439283D01*
X72522240Y-89389283D01*
X72640483Y-89284530D01*
X72730220Y-89154523D01*
X72786237Y-89006818D01*
X72805278Y-88850000D01*
X72786237Y-88693182D01*
X72765120Y-88637500D01*
X76794722Y-88637500D01*
X76813762Y-88794318D01*
X76834880Y-88850000D01*
X76869780Y-88942023D01*
X76959517Y-89072030D01*
X77077760Y-89176783D01*
X77077762Y-89176784D01*
X77217634Y-89250196D01*
X77371014Y-89288000D01*
X77371015Y-89288000D01*
X77528985Y-89288000D01*
X77682365Y-89250196D01*
X77682365Y-89250195D01*
X77822240Y-89176783D01*
X77940483Y-89072030D01*
X78030220Y-88942023D01*
X78086237Y-88794318D01*
X78105278Y-88637500D01*
X78100176Y-88595476D01*
X78086237Y-88480681D01*
X78059974Y-88411431D01*
X78044261Y-88370000D01*
X83174722Y-88370000D01*
X83193762Y-88526818D01*
X83235739Y-88637500D01*
X83249780Y-88674523D01*
X83339517Y-88804530D01*
X83457760Y-88909283D01*
X83457762Y-88909284D01*
X83597634Y-88982696D01*
X83751014Y-89020500D01*
X83751015Y-89020500D01*
X83908985Y-89020500D01*
X84062365Y-88982696D01*
X84202240Y-88909283D01*
X84212718Y-88900000D01*
X109044722Y-88900000D01*
X109063762Y-89056818D01*
X109109260Y-89176784D01*
X109119780Y-89204523D01*
X109209517Y-89334530D01*
X109327760Y-89439283D01*
X109327762Y-89439284D01*
X109467634Y-89512696D01*
X109621014Y-89550500D01*
X109621015Y-89550500D01*
X109778985Y-89550500D01*
X109932365Y-89512696D01*
X109970509Y-89492676D01*
X110072240Y-89439283D01*
X110190483Y-89334530D01*
X110280220Y-89204523D01*
X110336237Y-89056818D01*
X110355278Y-88900000D01*
X110336237Y-88743182D01*
X110280220Y-88595477D01*
X110190483Y-88465470D01*
X110072240Y-88360717D01*
X110072238Y-88360716D01*
X110072237Y-88360715D01*
X109932365Y-88287303D01*
X109778986Y-88249500D01*
X109778985Y-88249500D01*
X109621015Y-88249500D01*
X109621014Y-88249500D01*
X109467634Y-88287303D01*
X109327762Y-88360715D01*
X109209516Y-88465471D01*
X109119781Y-88595475D01*
X109119780Y-88595476D01*
X109063762Y-88743181D01*
X109044722Y-88899999D01*
X109044722Y-88900000D01*
X84212718Y-88900000D01*
X84320483Y-88804530D01*
X84410220Y-88674523D01*
X84466237Y-88526818D01*
X84485278Y-88370000D01*
X84480783Y-88332975D01*
X84466237Y-88213181D01*
X84444992Y-88157163D01*
X84410220Y-88065477D01*
X84320483Y-87935470D01*
X84202240Y-87830717D01*
X84202238Y-87830716D01*
X84202237Y-87830715D01*
X84062365Y-87757303D01*
X83908986Y-87719500D01*
X83908985Y-87719500D01*
X83751015Y-87719500D01*
X83751014Y-87719500D01*
X83597634Y-87757303D01*
X83457762Y-87830715D01*
X83339516Y-87935471D01*
X83249781Y-88065475D01*
X83249780Y-88065476D01*
X83193762Y-88213181D01*
X83174722Y-88369999D01*
X83174722Y-88370000D01*
X78044261Y-88370000D01*
X78030220Y-88332977D01*
X77940483Y-88202970D01*
X77822240Y-88098217D01*
X77822238Y-88098216D01*
X77822237Y-88098215D01*
X77682365Y-88024803D01*
X77528986Y-87987000D01*
X77528985Y-87987000D01*
X77371015Y-87987000D01*
X77371014Y-87987000D01*
X77217634Y-88024803D01*
X77077762Y-88098215D01*
X76959516Y-88202971D01*
X76869781Y-88332975D01*
X76869780Y-88332976D01*
X76813762Y-88480681D01*
X76794722Y-88637499D01*
X76794722Y-88637500D01*
X72765120Y-88637500D01*
X72730220Y-88545477D01*
X72730217Y-88545472D01*
X72730193Y-88545437D01*
X72730183Y-88545407D01*
X72726733Y-88538833D01*
X72727825Y-88538259D01*
X72708311Y-88479083D01*
X72725777Y-88411431D01*
X72730192Y-88404562D01*
X72730220Y-88404523D01*
X72786237Y-88256818D01*
X72805278Y-88100000D01*
X72800971Y-88064524D01*
X72786237Y-87943181D01*
X72755713Y-87862696D01*
X72730220Y-87795477D01*
X72640483Y-87665470D01*
X72583856Y-87615303D01*
X72546731Y-87556116D01*
X72547498Y-87486250D01*
X72585915Y-87427890D01*
X72649785Y-87399565D01*
X72665831Y-87398489D01*
X89098795Y-87366077D01*
X89165873Y-87385630D01*
X89211732Y-87438343D01*
X89221811Y-87507482D01*
X89214981Y-87534047D01*
X89188763Y-87603178D01*
X89188763Y-87603180D01*
X89169722Y-87759999D01*
X89169722Y-87760000D01*
X89188762Y-87916818D01*
X89240988Y-88054524D01*
X89244780Y-88064523D01*
X89334517Y-88194530D01*
X89452760Y-88299283D01*
X89452762Y-88299284D01*
X89592634Y-88372696D01*
X89746014Y-88410500D01*
X89746015Y-88410500D01*
X89903985Y-88410500D01*
X90057365Y-88372696D01*
X90080189Y-88360717D01*
X90197240Y-88299283D01*
X90315483Y-88194530D01*
X90405220Y-88064523D01*
X90461237Y-87916818D01*
X90480278Y-87760000D01*
X90475360Y-87719500D01*
X90461237Y-87603182D01*
X90460220Y-87600500D01*
X90433931Y-87531183D01*
X90428565Y-87461524D01*
X90461712Y-87400017D01*
X90522850Y-87366196D01*
X90549622Y-87363215D01*
X95956814Y-87352550D01*
X96023891Y-87372103D01*
X96069750Y-87424816D01*
X96079829Y-87493955D01*
X96050930Y-87557568D01*
X96039284Y-87569365D01*
X95919518Y-87675468D01*
X95829781Y-87805475D01*
X95829780Y-87805476D01*
X95773762Y-87953181D01*
X95754722Y-88109999D01*
X95754722Y-88110000D01*
X95773762Y-88266818D01*
X95825996Y-88404545D01*
X95829780Y-88414523D01*
X95919517Y-88544530D01*
X96037760Y-88649283D01*
X96037762Y-88649284D01*
X96177634Y-88722696D01*
X96331014Y-88760500D01*
X96331015Y-88760500D01*
X96488985Y-88760500D01*
X96642365Y-88722696D01*
X96676990Y-88704523D01*
X96782240Y-88649283D01*
X96900483Y-88544530D01*
X96990220Y-88414523D01*
X97046237Y-88266818D01*
X97065278Y-88110000D01*
X97054934Y-88024804D01*
X97046237Y-87953181D01*
X96999791Y-87830715D01*
X96990220Y-87805477D01*
X96900483Y-87675470D01*
X96782240Y-87570717D01*
X96782238Y-87570716D01*
X96778702Y-87567583D01*
X96741575Y-87508393D01*
X96742343Y-87438528D01*
X96780760Y-87380168D01*
X96844631Y-87351843D01*
X96860671Y-87350767D01*
X97250000Y-87350000D01*
X97250000Y-87250000D01*
X104644722Y-87250000D01*
X104663762Y-87406818D01*
X104702285Y-87508393D01*
X104719780Y-87554523D01*
X104809517Y-87684530D01*
X104927760Y-87789283D01*
X104927762Y-87789284D01*
X105067634Y-87862696D01*
X105221014Y-87900500D01*
X105221015Y-87900500D01*
X105378985Y-87900500D01*
X105532365Y-87862696D01*
X105592375Y-87831199D01*
X105660881Y-87817474D01*
X105707624Y-87831199D01*
X105767635Y-87862696D01*
X105835906Y-87879523D01*
X105921014Y-87900500D01*
X105921015Y-87900500D01*
X106078985Y-87900500D01*
X106232365Y-87862696D01*
X106292375Y-87831199D01*
X106360881Y-87817474D01*
X106407624Y-87831199D01*
X106467635Y-87862696D01*
X106535906Y-87879523D01*
X106621014Y-87900500D01*
X106621015Y-87900500D01*
X106778985Y-87900500D01*
X106932365Y-87862696D01*
X106943564Y-87856818D01*
X107072240Y-87789283D01*
X107190483Y-87684530D01*
X107280220Y-87554523D01*
X107336237Y-87406818D01*
X107355278Y-87250000D01*
X107351723Y-87220717D01*
X107336237Y-87093181D01*
X107300898Y-87000000D01*
X107281935Y-86950000D01*
X110194722Y-86950000D01*
X110213762Y-87106818D01*
X110256959Y-87220717D01*
X110269780Y-87254523D01*
X110359517Y-87384530D01*
X110477760Y-87489283D01*
X110477762Y-87489284D01*
X110617634Y-87562696D01*
X110771014Y-87600500D01*
X110771015Y-87600500D01*
X110928985Y-87600500D01*
X111082365Y-87562696D01*
X111136950Y-87534047D01*
X111222240Y-87489283D01*
X111340483Y-87384530D01*
X111372950Y-87337492D01*
X111427233Y-87293503D01*
X111496681Y-87285843D01*
X111559246Y-87316946D01*
X111577049Y-87337492D01*
X111609517Y-87384530D01*
X111727760Y-87489283D01*
X111727762Y-87489284D01*
X111867634Y-87562696D01*
X112021014Y-87600500D01*
X112021015Y-87600500D01*
X112178985Y-87600500D01*
X112332365Y-87562696D01*
X112472238Y-87489284D01*
X112472237Y-87489284D01*
X112472240Y-87489283D01*
X112590483Y-87384530D01*
X112590483Y-87384528D01*
X112594046Y-87381373D01*
X112657279Y-87351651D01*
X112726543Y-87360835D01*
X112779846Y-87406007D01*
X112800266Y-87472826D01*
X112792215Y-87518159D01*
X112763763Y-87593181D01*
X112744722Y-87749999D01*
X112744722Y-87750000D01*
X112763762Y-87906818D01*
X112802716Y-88009530D01*
X112819780Y-88054523D01*
X112909517Y-88184530D01*
X113027760Y-88289283D01*
X113027762Y-88289284D01*
X113167634Y-88362696D01*
X113321014Y-88400500D01*
X113321015Y-88400500D01*
X113478985Y-88400500D01*
X113632365Y-88362696D01*
X113688991Y-88332976D01*
X113772240Y-88289283D01*
X113890483Y-88184530D01*
X113980220Y-88054523D01*
X114036237Y-87906818D01*
X114055278Y-87750000D01*
X114046229Y-87675470D01*
X114036237Y-87593181D01*
X114012725Y-87531187D01*
X113980220Y-87445477D01*
X113890483Y-87315470D01*
X113772240Y-87210717D01*
X113772238Y-87210716D01*
X113772237Y-87210715D01*
X113632365Y-87137303D01*
X113478986Y-87099500D01*
X113478985Y-87099500D01*
X113321015Y-87099500D01*
X113321014Y-87099500D01*
X113167634Y-87137303D01*
X113027761Y-87210715D01*
X113027759Y-87210717D01*
X112905952Y-87318627D01*
X112842719Y-87348348D01*
X112773456Y-87339164D01*
X112720153Y-87293991D01*
X112699733Y-87227172D01*
X112707784Y-87181841D01*
X112736237Y-87106818D01*
X112755278Y-86950000D01*
X112739859Y-86823007D01*
X112736237Y-86793181D01*
X112689065Y-86668800D01*
X112680220Y-86645477D01*
X112590483Y-86515470D01*
X112472240Y-86410717D01*
X112472238Y-86410716D01*
X112472237Y-86410715D01*
X112332365Y-86337303D01*
X112178986Y-86299500D01*
X112178985Y-86299500D01*
X112021015Y-86299500D01*
X112021014Y-86299500D01*
X111867634Y-86337303D01*
X111727762Y-86410715D01*
X111609517Y-86515469D01*
X111577050Y-86562507D01*
X111522766Y-86606497D01*
X111453318Y-86614156D01*
X111390753Y-86583052D01*
X111372950Y-86562507D01*
X111359004Y-86542303D01*
X111340483Y-86515470D01*
X111222240Y-86410717D01*
X111222238Y-86410716D01*
X111222237Y-86410715D01*
X111082365Y-86337303D01*
X110928986Y-86299500D01*
X110928985Y-86299500D01*
X110771015Y-86299500D01*
X110771014Y-86299500D01*
X110617634Y-86337303D01*
X110477762Y-86410715D01*
X110359516Y-86515471D01*
X110269781Y-86645475D01*
X110269780Y-86645476D01*
X110213762Y-86793181D01*
X110194722Y-86949999D01*
X110194722Y-86950000D01*
X107281935Y-86950000D01*
X107280220Y-86945477D01*
X107190483Y-86815470D01*
X107072240Y-86710717D01*
X107072238Y-86710716D01*
X107072237Y-86710715D01*
X106932365Y-86637303D01*
X106778986Y-86599500D01*
X106778985Y-86599500D01*
X106621015Y-86599500D01*
X106467635Y-86637303D01*
X106407624Y-86668800D01*
X106339115Y-86682524D01*
X106292373Y-86668799D01*
X106232365Y-86637304D01*
X106078985Y-86599500D01*
X105921015Y-86599500D01*
X105767635Y-86637303D01*
X105707625Y-86668800D01*
X105639117Y-86682525D01*
X105592375Y-86668800D01*
X105532364Y-86637303D01*
X105378985Y-86599500D01*
X105221015Y-86599500D01*
X105221014Y-86599500D01*
X105067634Y-86637303D01*
X104927762Y-86710715D01*
X104809516Y-86815471D01*
X104719781Y-86945475D01*
X104719780Y-86945476D01*
X104663762Y-87093181D01*
X104644722Y-87249999D01*
X104644722Y-87250000D01*
X97250000Y-87250000D01*
X97250000Y-85108920D01*
X97269685Y-85041881D01*
X97322489Y-84996126D01*
X97391647Y-84986182D01*
X97455203Y-85015207D01*
X97485353Y-85058378D01*
X97486296Y-85057884D01*
X97489778Y-85064519D01*
X97489780Y-85064523D01*
X97579517Y-85194530D01*
X97697760Y-85299283D01*
X97697762Y-85299284D01*
X97837634Y-85372696D01*
X97991014Y-85410500D01*
X97991015Y-85410500D01*
X98148985Y-85410500D01*
X98302365Y-85372696D01*
X98347837Y-85348830D01*
X98442240Y-85299283D01*
X98560483Y-85194530D01*
X98650220Y-85064523D01*
X98706237Y-84916818D01*
X98725278Y-84760000D01*
X98706237Y-84603182D01*
X98696119Y-84576504D01*
X98669459Y-84506206D01*
X98650220Y-84455477D01*
X98560483Y-84325470D01*
X98442240Y-84220717D01*
X98442238Y-84220716D01*
X98442237Y-84220715D01*
X98302365Y-84147303D01*
X98148986Y-84109500D01*
X98148985Y-84109500D01*
X97991015Y-84109500D01*
X97991014Y-84109500D01*
X97837634Y-84147303D01*
X97697762Y-84220715D01*
X97697759Y-84220717D01*
X97697760Y-84220717D01*
X97581187Y-84323991D01*
X97579516Y-84325471D01*
X97489781Y-84455475D01*
X97486296Y-84462116D01*
X97485076Y-84461476D01*
X97447761Y-84510755D01*
X97382162Y-84534810D01*
X97313973Y-84519581D01*
X97264841Y-84469903D01*
X97250000Y-84411079D01*
X97250000Y-83524291D01*
X97269685Y-83457252D01*
X97322489Y-83411497D01*
X97374287Y-83400291D01*
X104294655Y-83416536D01*
G37*
%TD.AperFunction*%
%TD*%
M02*
