%TF.GenerationSoftware,KiCad,Pcbnew,7.0.6*%
%TF.CreationDate,2023-10-11T20:15:21+08:00*%
%TF.ProjectId,PCB_ESP32WROOM32E_RPI_Zero_Form_Hackster,5043425f-4553-4503-9332-57524f4f4d33,rev?*%
%TF.SameCoordinates,Original*%
%TF.FileFunction,Copper,L2,Inr*%
%TF.FilePolarity,Positive*%
%FSLAX46Y46*%
G04 Gerber Fmt 4.6, Leading zero omitted, Abs format (unit mm)*
G04 Created by KiCad (PCBNEW 7.0.6) date 2023-10-11 20:15:21*
%MOMM*%
%LPD*%
G01*
G04 APERTURE LIST*
G04 Aperture macros list*
%AMRoundRect*
0 Rectangle with rounded corners*
0 $1 Rounding radius*
0 $2 $3 $4 $5 $6 $7 $8 $9 X,Y pos of 4 corners*
0 Add a 4 corners polygon primitive as box body*
4,1,4,$2,$3,$4,$5,$6,$7,$8,$9,$2,$3,0*
0 Add four circle primitives for the rounded corners*
1,1,$1+$1,$2,$3*
1,1,$1+$1,$4,$5*
1,1,$1+$1,$6,$7*
1,1,$1+$1,$8,$9*
0 Add four rect primitives between the rounded corners*
20,1,$1+$1,$2,$3,$4,$5,0*
20,1,$1+$1,$4,$5,$6,$7,0*
20,1,$1+$1,$6,$7,$8,$9,0*
20,1,$1+$1,$8,$9,$2,$3,0*%
G04 Aperture macros list end*
%TA.AperFunction,ComponentPad*%
%ADD10RoundRect,0.250000X0.600000X0.725000X-0.600000X0.725000X-0.600000X-0.725000X0.600000X-0.725000X0*%
%TD*%
%TA.AperFunction,ComponentPad*%
%ADD11O,1.700000X1.950000*%
%TD*%
%TA.AperFunction,ComponentPad*%
%ADD12R,1.508000X1.508000*%
%TD*%
%TA.AperFunction,ComponentPad*%
%ADD13C,1.508000*%
%TD*%
%TA.AperFunction,ComponentPad*%
%ADD14C,1.950000*%
%TD*%
%TA.AperFunction,ComponentPad*%
%ADD15RoundRect,0.250000X0.600000X0.750000X-0.600000X0.750000X-0.600000X-0.750000X0.600000X-0.750000X0*%
%TD*%
%TA.AperFunction,ComponentPad*%
%ADD16O,1.700000X2.000000*%
%TD*%
%TA.AperFunction,ComponentPad*%
%ADD17C,3.500000*%
%TD*%
%TA.AperFunction,ComponentPad*%
%ADD18R,1.524000X1.524000*%
%TD*%
%TA.AperFunction,ComponentPad*%
%ADD19C,1.524000*%
%TD*%
%TA.AperFunction,ViaPad*%
%ADD20C,0.700000*%
%TD*%
G04 APERTURE END LIST*
D10*
%TO.N,GND*%
%TO.C,J4*%
X91700000Y-107900000D03*
D11*
%TO.N,/ESP32S3_Minsys/RTS*%
X89200000Y-107900000D03*
%TO.N,/ESP32S3_Minsys/ESP_TXD*%
X86700000Y-107900000D03*
%TO.N,/ESP32S3_Minsys/ESP_RXD*%
X84200000Y-107900000D03*
%TO.N,/ESP32S3_Minsys/DTR*%
X81700000Y-107900000D03*
%TO.N,/ESP32S3_Minsys/3V3*%
X79200000Y-107900000D03*
%TD*%
D12*
%TO.N,GND*%
%TO.C,S5*%
X82300000Y-83500000D03*
D13*
%TO.N,/ESP32S3_Minsys/IO33*%
X77800000Y-83500000D03*
D14*
%TO.N,N/C*%
X83550000Y-86000000D03*
X76550000Y-86000000D03*
%TD*%
D15*
%TO.N,/ESP32S3_Minsys/5V*%
%TO.C,J1*%
X89850000Y-95900000D03*
D16*
%TO.N,GND*%
X87350000Y-95900000D03*
%TD*%
D17*
%TO.N,*%
%TO.C,Coral_Dev_Board1*%
X129130000Y-107530000D03*
X129130000Y-84530000D03*
X71130000Y-107530000D03*
X71130000Y-84530000D03*
D18*
%TO.N,GND*%
X124630000Y-82060000D03*
D19*
%TO.N,unconnected-(Coral_Dev_Board1-Pin_2-Pad2)*%
X122090000Y-82060000D03*
%TO.N,Net-(Coral_Dev_Board1-Pin_3)*%
X119550000Y-82060000D03*
%TO.N,unconnected-(Coral_Dev_Board1-Pin_4-Pad4)*%
X117010000Y-82060000D03*
%TO.N,Net-(Coral_Dev_Board1-Pin_5)*%
X114470000Y-82060000D03*
%TO.N,Net-(Coral_Dev_Board1-Pin_6)*%
X111930000Y-82060000D03*
%TO.N,Net-(Coral_Dev_Board1-Pin_7)*%
X109390000Y-82060000D03*
%TO.N,Net-(Coral_Dev_Board1-Pin_8)*%
X106850000Y-82060000D03*
%TO.N,unconnected-(Coral_Dev_Board1-Pin_9-Pad9)*%
X104310000Y-82060000D03*
%TO.N,Net-(Coral_Dev_Board1-Pin_10)*%
X101770000Y-82060000D03*
%TO.N,Net-(Coral_Dev_Board1-Pin_11)*%
X99230000Y-82060000D03*
%TO.N,Net-(Coral_Dev_Board1-Pin_12)*%
X96690000Y-82060000D03*
D18*
%TO.N,GND*%
X124630000Y-110000000D03*
D19*
%TO.N,unconnected-(Coral_Dev_Board1-Pin_14-Pad14)*%
X122090000Y-110000000D03*
%TO.N,Net-(Coral_Dev_Board1-Pin_15)*%
X119550000Y-110000000D03*
%TO.N,Net-(Coral_Dev_Board1-Pin_16)*%
X117010000Y-110000000D03*
%TO.N,Net-(Coral_Dev_Board1-Pin_17)*%
X114470000Y-110000000D03*
%TO.N,Net-(Coral_Dev_Board1-Pin_18)*%
X111930000Y-110000000D03*
%TO.N,Net-(Coral_Dev_Board1-Pin_19)*%
X109390000Y-110000000D03*
%TO.N,Net-(Coral_Dev_Board1-Pin_20)*%
X106850000Y-110000000D03*
%TO.N,Net-(Coral_Dev_Board1-Pin_21)*%
X104310000Y-110000000D03*
%TO.N,Net-(Coral_Dev_Board1-Pin_22)*%
X101770000Y-110000000D03*
%TO.N,Net-(Coral_Dev_Board1-Pin_23)*%
X99230000Y-110000000D03*
%TO.N,Net-(Coral_Dev_Board1-Pin_24)*%
X96690000Y-110000000D03*
%TD*%
D12*
%TO.N,GND*%
%TO.C,S6*%
X94150000Y-83500000D03*
D13*
%TO.N,/ESP32S3_Minsys/IO26*%
X89650000Y-83500000D03*
D14*
%TO.N,N/C*%
X95400000Y-86000000D03*
X88400000Y-86000000D03*
%TD*%
D12*
%TO.N,GND*%
%TO.C,S4*%
X75400000Y-83500000D03*
D13*
%TO.N,/ESP32S3_Minsys/IO25*%
X79900000Y-83500000D03*
D14*
%TO.N,N/C*%
X74150000Y-86000000D03*
X81150000Y-86000000D03*
%TD*%
D12*
%TO.N,GND*%
%TO.C,S3*%
X87250000Y-83500000D03*
D13*
%TO.N,/ESP32S3_Minsys/IO27*%
X91750000Y-83500000D03*
D14*
%TO.N,N/C*%
X86000000Y-86000000D03*
X93000000Y-86000000D03*
%TD*%
D20*
%TO.N,GND*%
X76650000Y-81650000D03*
X99700000Y-104300000D03*
X74600000Y-108850000D03*
X105050000Y-83350000D03*
X73900000Y-108850000D03*
X126200000Y-99350000D03*
X69200000Y-90400000D03*
X68350000Y-97200000D03*
X72150000Y-104150000D03*
X75300000Y-109600000D03*
X93800000Y-81700000D03*
X75300000Y-110350000D03*
X126200000Y-100750000D03*
X75300000Y-108850000D03*
X116550000Y-93300000D03*
X125750000Y-107950000D03*
X125350000Y-84200000D03*
X105750000Y-83350000D03*
X69100000Y-97200000D03*
X112150000Y-96000000D03*
X116050000Y-83700000D03*
X115850000Y-93300000D03*
X75950000Y-81650000D03*
X69200000Y-91100000D03*
X71450000Y-104150000D03*
X126050000Y-84950000D03*
X69100000Y-103450000D03*
X74600000Y-109600000D03*
X73900000Y-110350000D03*
X72150000Y-104900000D03*
X112900000Y-96000000D03*
X70750000Y-88850000D03*
X68450000Y-90400000D03*
X112150000Y-97400000D03*
X73900000Y-109600000D03*
X124350000Y-107200000D03*
X124525000Y-93100000D03*
X72150000Y-88100000D03*
X124150000Y-95025000D03*
X75300000Y-108100000D03*
X68350000Y-102750000D03*
X70750000Y-88100000D03*
X80950000Y-81550000D03*
X70750000Y-104900000D03*
X89050000Y-81700000D03*
X72150000Y-88850000D03*
X106000000Y-87250000D03*
X100400000Y-104300000D03*
X120600000Y-99050000D03*
X105300000Y-87250000D03*
X124650000Y-84200000D03*
X93100000Y-81700000D03*
X70750000Y-104150000D03*
X68350000Y-103450000D03*
X124525000Y-94475000D03*
X116750000Y-83700000D03*
X124525000Y-93775000D03*
X120600000Y-97650000D03*
X100400000Y-103550000D03*
X112900000Y-97400000D03*
X69100000Y-102050000D03*
X68350000Y-96500000D03*
X69100000Y-96500000D03*
X125050000Y-107200000D03*
X68450000Y-91100000D03*
X75250000Y-81650000D03*
X71450000Y-88850000D03*
X117450000Y-83700000D03*
X69100000Y-95800000D03*
X74600000Y-110350000D03*
X99700000Y-103550000D03*
X90450000Y-81700000D03*
X69100000Y-102750000D03*
X68450000Y-91800000D03*
X106700000Y-87250000D03*
X74600000Y-108100000D03*
X126050000Y-84200000D03*
X68350000Y-95800000D03*
X125750000Y-107200000D03*
X125050000Y-107950000D03*
X112150000Y-96700000D03*
X120600000Y-98350000D03*
X69200000Y-91800000D03*
X125350000Y-84950000D03*
X73900000Y-108100000D03*
X81650000Y-81550000D03*
X112900000Y-96700000D03*
X124350000Y-107950000D03*
X124650000Y-84950000D03*
X71450000Y-104900000D03*
X89750000Y-81700000D03*
X92400000Y-81700000D03*
X126200000Y-100050000D03*
X82350000Y-81550000D03*
X68350000Y-102050000D03*
X71450000Y-88100000D03*
%TO.N,/ESP32S3_Minsys/5V*%
X94950000Y-107300000D03*
X95500000Y-107300000D03*
X96600000Y-107300000D03*
X94400000Y-107300000D03*
X96050000Y-107300000D03*
%TO.N,/ESP32S3_Minsys/3V3*%
X85150000Y-100200000D03*
X85150000Y-103250000D03*
X100250000Y-85100000D03*
X85950000Y-102500000D03*
X85950000Y-100200000D03*
X85150000Y-102500000D03*
X91500000Y-90400000D03*
X126075000Y-93250000D03*
X126075000Y-94700000D03*
X126075000Y-93975000D03*
X126050000Y-96150000D03*
X100250000Y-84200000D03*
X89750000Y-90400000D03*
X79300000Y-90350000D03*
X85950000Y-103250000D03*
X77450000Y-90350000D03*
X78400000Y-90350000D03*
X85150000Y-101750000D03*
X85150000Y-100950000D03*
X85950000Y-100950000D03*
X126050000Y-95425000D03*
X98200000Y-93300000D03*
X73200000Y-103100000D03*
X85950000Y-101750000D03*
X90650000Y-90400000D03*
X98200000Y-94200000D03*
X72750000Y-102800000D03*
X98200000Y-92300000D03*
X100250000Y-85900000D03*
%TO.N,/ESP32S3_Minsys/SPI_CS*%
X75050000Y-96750000D03*
%TO.N,/ESP32S3_Minsys/SPI_MOSI*%
X83200000Y-96100000D03*
%TO.N,/ESP32S3_Minsys/SPI_CLK*%
X79100000Y-97550000D03*
%TO.N,/ESP32S3_Minsys/SPI_MISO*%
X77390000Y-102960000D03*
%TO.N,/ESP32S3_Minsys/CHIP_PU*%
X105773500Y-96697000D03*
X124540000Y-91560000D03*
X124845000Y-87575000D03*
X112800000Y-94150000D03*
%TO.N,Net-(Coral_Dev_Board1-Pin_12)*%
X98070000Y-84760000D03*
%TO.N,/ESP32S3_Minsys/RTS*%
X107550000Y-100250000D03*
X101600000Y-98450000D03*
X99500000Y-100850000D03*
%TO.N,/ESP32S3_Minsys/DTR*%
X90250000Y-106600000D03*
X107480500Y-102524500D03*
X102400000Y-102600000D03*
%TO.N,/ESP32S3_Minsys/ESP_RXD*%
X86050000Y-105300000D03*
%TO.N,/ESP32S3_Minsys/ESP_3V3*%
X126150000Y-87700000D03*
X126150000Y-88400000D03*
X126150000Y-87000000D03*
%TO.N,Net-(Coral_Dev_Board1-Pin_16)*%
X116550000Y-97400000D03*
X115875000Y-100625000D03*
%TO.N,/ESP32S3_Minsys/SDA*%
X122410000Y-100312500D03*
%TO.N,/ESP32S3_Minsys/SCL*%
X123940000Y-100332500D03*
%TO.N,/ESP32S3_Minsys/CS*%
X71226500Y-96644200D03*
X110000000Y-91630000D03*
%TO.N,/ESP32S3_Minsys/IO0*%
X101050000Y-96100000D03*
X103728000Y-94892000D03*
X104650000Y-99600000D03*
%TO.N,/ESP32S3_Minsys/SCK*%
X112100000Y-86950000D03*
X77410000Y-93810000D03*
X96150000Y-93150000D03*
X93240000Y-93160000D03*
%TO.N,/ESP32S3_Minsys/MOSI*%
X75849000Y-93781700D03*
X110000000Y-100510000D03*
%TO.N,Net-(Coral_Dev_Board1-Pin_5)*%
X116850000Y-91600000D03*
X111250000Y-91650000D03*
%TO.N,Net-(Coral_Dev_Board1-Pin_6)*%
X108200000Y-83875500D03*
%TO.N,Net-(Coral_Dev_Board1-Pin_7)*%
X114600000Y-100500000D03*
X111250000Y-100550000D03*
%TO.N,Net-(Coral_Dev_Board1-Pin_10)*%
X107050000Y-83950000D03*
X121050000Y-85650000D03*
%TO.N,Net-(Coral_Dev_Board1-Pin_11)*%
X106950000Y-85075500D03*
X119760000Y-85670000D03*
%TO.N,Net-(Coral_Dev_Board1-Pin_20)*%
X113400000Y-106500000D03*
%TO.N,Net-(Coral_Dev_Board1-Pin_21)*%
X106600000Y-107400000D03*
X108350000Y-104850000D03*
%TO.N,Net-(Coral_Dev_Board1-Pin_22)*%
X117100000Y-96350000D03*
X109000000Y-102950000D03*
X104150000Y-107600000D03*
X107100000Y-104750000D03*
%TO.N,Net-(Coral_Dev_Board1-Pin_23)*%
X111950000Y-106550000D03*
%TO.N,/ESP32S3_Minsys/MISO*%
X110000000Y-101800000D03*
X71237500Y-99150000D03*
%TO.N,/ESP32S3_Minsys/SVN*%
X120800000Y-91000000D03*
%TO.N,/ESP32S3_Minsys/IO21*%
X121050000Y-105250000D03*
%TO.N,/ESP32S3_Minsys/IO19*%
X118490000Y-105260000D03*
%TO.N,/ESP32S3_Minsys/IO16*%
X113400000Y-105250000D03*
%TO.N,/ESP32S3_Minsys/IO27*%
X113400000Y-87750000D03*
X96410000Y-88110000D03*
%TO.N,/ESP32S3_Minsys/IO4*%
X112150000Y-105250000D03*
%TO.N,/ESP32S3_Minsys/IO12*%
X110850000Y-86950000D03*
%TO.N,/ESP32S3_Minsys/IO32*%
X118470000Y-87750000D03*
%TO.N,/ESP32S3_Minsys/IO33*%
X112900000Y-91050000D03*
X77450000Y-88637500D03*
%TO.N,/ESP32S3_Minsys/IO25*%
X83830000Y-88370000D03*
X113700000Y-90200000D03*
%TO.N,/ESP32S3_Minsys/IO26*%
X89825000Y-87760000D03*
X109700000Y-88900000D03*
%TO.N,/ESP32S3_Minsys/IO17*%
X114650000Y-104450000D03*
%TO.N,Net-(IC1-RXD0)*%
X117400000Y-107050000D03*
X101662500Y-105750000D03*
%TO.N,/ESP32S3_Minsys/IO34*%
X121050000Y-86950000D03*
%TO.N,/ESP32S3_Minsys/IO35*%
X119750000Y-86950000D03*
%TO.N,Net-(IC1-TXD0)*%
X118100000Y-107800000D03*
X101662500Y-107350000D03*
%TD*%
%TA.AperFunction,Conductor*%
%TO.N,GND*%
G36*
X95959640Y-81075185D02*
G01*
X96005395Y-81127989D01*
X96015339Y-81197147D01*
X95986314Y-81260703D01*
X95971266Y-81275353D01*
X95935063Y-81305063D01*
X95802291Y-81466846D01*
X95703629Y-81651428D01*
X95642872Y-81851715D01*
X95622359Y-82060000D01*
X95642872Y-82268284D01*
X95673250Y-82368427D01*
X95703628Y-82468569D01*
X95784021Y-82618974D01*
X95802291Y-82653153D01*
X95935063Y-82814936D01*
X96052510Y-82911322D01*
X96096850Y-82947711D01*
X96281431Y-83046372D01*
X96481714Y-83107127D01*
X96690000Y-83127641D01*
X96898286Y-83107127D01*
X97098569Y-83046372D01*
X97283150Y-82947711D01*
X97444936Y-82814936D01*
X97577711Y-82653150D01*
X97676372Y-82468569D01*
X97737127Y-82268286D01*
X97757641Y-82060000D01*
X97737127Y-81851714D01*
X97676372Y-81651431D01*
X97577711Y-81466850D01*
X97567171Y-81454007D01*
X97444936Y-81305063D01*
X97408734Y-81275353D01*
X97369400Y-81217607D01*
X97367529Y-81147763D01*
X97403717Y-81087994D01*
X97466473Y-81057279D01*
X97487399Y-81055500D01*
X98432601Y-81055500D01*
X98499640Y-81075185D01*
X98545395Y-81127989D01*
X98555339Y-81197147D01*
X98526314Y-81260703D01*
X98511266Y-81275353D01*
X98475063Y-81305063D01*
X98342291Y-81466846D01*
X98243629Y-81651428D01*
X98182872Y-81851715D01*
X98162359Y-82060000D01*
X98182872Y-82268284D01*
X98213250Y-82368427D01*
X98243628Y-82468569D01*
X98324021Y-82618974D01*
X98342291Y-82653153D01*
X98475063Y-82814936D01*
X98592510Y-82911322D01*
X98636850Y-82947711D01*
X98821431Y-83046372D01*
X99021714Y-83107127D01*
X99230000Y-83127641D01*
X99438286Y-83107127D01*
X99638569Y-83046372D01*
X99823150Y-82947711D01*
X99984936Y-82814936D01*
X100117711Y-82653150D01*
X100216372Y-82468569D01*
X100277127Y-82268286D01*
X100297641Y-82060000D01*
X100277127Y-81851714D01*
X100216372Y-81651431D01*
X100117711Y-81466850D01*
X100107171Y-81454007D01*
X99984936Y-81305063D01*
X99948734Y-81275353D01*
X99909400Y-81217607D01*
X99907529Y-81147763D01*
X99943717Y-81087994D01*
X100006473Y-81057279D01*
X100027399Y-81055500D01*
X100972601Y-81055500D01*
X101039640Y-81075185D01*
X101085395Y-81127989D01*
X101095339Y-81197147D01*
X101066314Y-81260703D01*
X101051266Y-81275353D01*
X101015063Y-81305063D01*
X100882291Y-81466846D01*
X100783629Y-81651428D01*
X100722872Y-81851715D01*
X100702359Y-82060000D01*
X100722872Y-82268284D01*
X100753250Y-82368427D01*
X100783628Y-82468569D01*
X100864021Y-82618974D01*
X100882291Y-82653153D01*
X101015063Y-82814936D01*
X101132510Y-82911322D01*
X101176850Y-82947711D01*
X101361431Y-83046372D01*
X101561714Y-83107127D01*
X101770000Y-83127641D01*
X101978286Y-83107127D01*
X102178569Y-83046372D01*
X102363150Y-82947711D01*
X102524936Y-82814936D01*
X102657711Y-82653150D01*
X102756372Y-82468569D01*
X102817127Y-82268286D01*
X102837641Y-82060000D01*
X102817127Y-81851714D01*
X102756372Y-81651431D01*
X102657711Y-81466850D01*
X102647171Y-81454007D01*
X102524936Y-81305063D01*
X102488734Y-81275353D01*
X102449400Y-81217607D01*
X102447529Y-81147763D01*
X102483717Y-81087994D01*
X102546473Y-81057279D01*
X102567399Y-81055500D01*
X103512601Y-81055500D01*
X103579640Y-81075185D01*
X103625395Y-81127989D01*
X103635339Y-81197147D01*
X103606314Y-81260703D01*
X103591266Y-81275353D01*
X103555063Y-81305063D01*
X103422291Y-81466846D01*
X103323629Y-81651428D01*
X103262872Y-81851715D01*
X103242359Y-82059999D01*
X103262872Y-82268284D01*
X103293250Y-82368427D01*
X103323628Y-82468569D01*
X103404021Y-82618974D01*
X103422291Y-82653153D01*
X103555063Y-82814936D01*
X103672510Y-82911322D01*
X103716850Y-82947711D01*
X103901431Y-83046372D01*
X104101714Y-83107127D01*
X104310000Y-83127641D01*
X104518286Y-83107127D01*
X104718569Y-83046372D01*
X104903150Y-82947711D01*
X105064936Y-82814936D01*
X105197711Y-82653150D01*
X105296372Y-82468569D01*
X105357127Y-82268286D01*
X105377641Y-82060000D01*
X105357127Y-81851714D01*
X105296372Y-81651431D01*
X105197711Y-81466850D01*
X105187171Y-81454007D01*
X105064936Y-81305063D01*
X105028734Y-81275353D01*
X104989400Y-81217607D01*
X104987529Y-81147763D01*
X105023717Y-81087994D01*
X105086473Y-81057279D01*
X105107399Y-81055500D01*
X106052601Y-81055500D01*
X106119640Y-81075185D01*
X106165395Y-81127989D01*
X106175339Y-81197147D01*
X106146314Y-81260703D01*
X106131266Y-81275353D01*
X106095063Y-81305063D01*
X105962291Y-81466846D01*
X105863629Y-81651428D01*
X105802872Y-81851715D01*
X105782359Y-82059999D01*
X105802872Y-82268284D01*
X105833250Y-82368427D01*
X105863628Y-82468569D01*
X105944021Y-82618974D01*
X105962291Y-82653153D01*
X106095063Y-82814936D01*
X106212510Y-82911322D01*
X106256850Y-82947711D01*
X106441431Y-83046372D01*
X106641714Y-83107127D01*
X106746702Y-83117467D01*
X106811489Y-83143628D01*
X106851848Y-83200662D01*
X106854965Y-83270462D01*
X106819851Y-83330867D01*
X106792175Y-83350666D01*
X106677761Y-83410716D01*
X106559516Y-83515471D01*
X106469781Y-83645475D01*
X106469780Y-83645476D01*
X106413762Y-83793181D01*
X106394722Y-83949999D01*
X106394722Y-83950000D01*
X106413762Y-84106818D01*
X106469780Y-84254523D01*
X106469781Y-84254524D01*
X106559518Y-84384532D01*
X106560607Y-84385761D01*
X106561119Y-84386851D01*
X106563778Y-84390703D01*
X106563137Y-84391145D01*
X106590324Y-84448996D01*
X106581136Y-84518259D01*
X106550013Y-84560797D01*
X106459518Y-84640968D01*
X106369781Y-84770975D01*
X106369780Y-84770976D01*
X106313762Y-84918681D01*
X106294722Y-85075499D01*
X106294722Y-85075500D01*
X106313762Y-85232318D01*
X106356678Y-85345476D01*
X106369780Y-85380023D01*
X106459517Y-85510030D01*
X106577760Y-85614783D01*
X106577762Y-85614784D01*
X106717634Y-85688196D01*
X106871014Y-85726000D01*
X106871015Y-85726000D01*
X107028985Y-85726000D01*
X107182365Y-85688196D01*
X107267315Y-85643610D01*
X107322240Y-85614783D01*
X107440483Y-85510030D01*
X107530220Y-85380023D01*
X107586237Y-85232318D01*
X107605278Y-85075500D01*
X107598479Y-85019500D01*
X107586237Y-84918681D01*
X107544967Y-84809862D01*
X107530220Y-84770977D01*
X107440483Y-84640970D01*
X107440481Y-84640967D01*
X107439393Y-84639739D01*
X107438880Y-84638648D01*
X107436222Y-84634797D01*
X107436862Y-84634354D01*
X107409675Y-84576504D01*
X107418863Y-84507241D01*
X107449985Y-84464702D01*
X107540483Y-84384530D01*
X107557025Y-84360563D01*
X107611307Y-84316574D01*
X107680755Y-84308914D01*
X107741300Y-84338187D01*
X107793611Y-84384530D01*
X107827762Y-84414785D01*
X107967634Y-84488196D01*
X108121014Y-84526000D01*
X108121015Y-84526000D01*
X108278985Y-84526000D01*
X108432365Y-84488196D01*
X108494705Y-84455477D01*
X108572240Y-84414783D01*
X108690483Y-84310030D01*
X108780220Y-84180023D01*
X108836237Y-84032318D01*
X108855278Y-83875500D01*
X108836237Y-83718682D01*
X108833388Y-83711171D01*
X108808473Y-83645475D01*
X108780220Y-83570977D01*
X108690483Y-83440970D01*
X108572240Y-83336217D01*
X108572238Y-83336216D01*
X108572237Y-83336215D01*
X108432365Y-83262803D01*
X108278986Y-83225000D01*
X108278985Y-83225000D01*
X108121015Y-83225000D01*
X108121014Y-83225000D01*
X107967634Y-83262803D01*
X107827762Y-83336215D01*
X107709515Y-83440971D01*
X107692972Y-83464938D01*
X107638688Y-83508927D01*
X107569239Y-83516584D01*
X107508698Y-83487311D01*
X107452745Y-83437742D01*
X107422237Y-83410714D01*
X107282366Y-83337304D01*
X107178374Y-83311673D01*
X107117994Y-83276517D01*
X107086205Y-83214298D01*
X107093101Y-83144769D01*
X107136492Y-83090006D01*
X107172048Y-83072617D01*
X107258569Y-83046372D01*
X107443150Y-82947711D01*
X107604936Y-82814936D01*
X107737711Y-82653150D01*
X107836372Y-82468569D01*
X107897127Y-82268286D01*
X107917641Y-82060000D01*
X107897127Y-81851714D01*
X107836372Y-81651431D01*
X107737711Y-81466850D01*
X107727171Y-81454007D01*
X107604936Y-81305063D01*
X107568734Y-81275353D01*
X107529400Y-81217607D01*
X107527529Y-81147763D01*
X107563717Y-81087994D01*
X107626473Y-81057279D01*
X107647399Y-81055500D01*
X108592601Y-81055500D01*
X108659640Y-81075185D01*
X108705395Y-81127989D01*
X108715339Y-81197147D01*
X108686314Y-81260703D01*
X108671266Y-81275353D01*
X108635063Y-81305063D01*
X108502291Y-81466846D01*
X108403629Y-81651428D01*
X108342872Y-81851715D01*
X108322359Y-82059999D01*
X108342872Y-82268284D01*
X108373250Y-82368427D01*
X108403628Y-82468569D01*
X108484021Y-82618974D01*
X108502291Y-82653153D01*
X108635063Y-82814936D01*
X108752510Y-82911322D01*
X108796850Y-82947711D01*
X108981431Y-83046372D01*
X109181714Y-83107127D01*
X109390000Y-83127641D01*
X109598286Y-83107127D01*
X109798569Y-83046372D01*
X109983150Y-82947711D01*
X110144936Y-82814936D01*
X110277711Y-82653150D01*
X110376372Y-82468569D01*
X110437127Y-82268286D01*
X110457641Y-82060000D01*
X110437127Y-81851714D01*
X110376372Y-81651431D01*
X110277711Y-81466850D01*
X110267171Y-81454007D01*
X110144936Y-81305063D01*
X110108734Y-81275353D01*
X110069400Y-81217607D01*
X110067529Y-81147763D01*
X110103717Y-81087994D01*
X110166473Y-81057279D01*
X110187399Y-81055500D01*
X111132601Y-81055500D01*
X111199640Y-81075185D01*
X111245395Y-81127989D01*
X111255339Y-81197147D01*
X111226314Y-81260703D01*
X111211266Y-81275353D01*
X111175063Y-81305063D01*
X111042291Y-81466846D01*
X110943629Y-81651428D01*
X110882872Y-81851715D01*
X110862359Y-82059999D01*
X110882872Y-82268284D01*
X110913250Y-82368427D01*
X110943628Y-82468569D01*
X111024021Y-82618974D01*
X111042291Y-82653153D01*
X111175063Y-82814936D01*
X111292510Y-82911322D01*
X111336850Y-82947711D01*
X111521431Y-83046372D01*
X111721714Y-83107127D01*
X111930000Y-83127641D01*
X112138286Y-83107127D01*
X112338569Y-83046372D01*
X112523150Y-82947711D01*
X112684936Y-82814936D01*
X112817711Y-82653150D01*
X112916372Y-82468569D01*
X112977127Y-82268286D01*
X112997641Y-82060000D01*
X112977127Y-81851714D01*
X112916372Y-81651431D01*
X112817711Y-81466850D01*
X112807171Y-81454007D01*
X112684936Y-81305063D01*
X112648734Y-81275353D01*
X112609400Y-81217607D01*
X112607529Y-81147763D01*
X112643717Y-81087994D01*
X112706473Y-81057279D01*
X112727399Y-81055500D01*
X113672601Y-81055500D01*
X113739640Y-81075185D01*
X113785395Y-81127989D01*
X113795339Y-81197147D01*
X113766314Y-81260703D01*
X113751266Y-81275353D01*
X113715063Y-81305063D01*
X113582291Y-81466846D01*
X113483629Y-81651428D01*
X113422872Y-81851715D01*
X113402359Y-82060000D01*
X113422872Y-82268284D01*
X113453250Y-82368427D01*
X113483628Y-82468569D01*
X113564021Y-82618974D01*
X113582291Y-82653153D01*
X113715063Y-82814936D01*
X113832510Y-82911322D01*
X113876850Y-82947711D01*
X114061431Y-83046372D01*
X114261714Y-83107127D01*
X114470000Y-83127641D01*
X114678286Y-83107127D01*
X114878569Y-83046372D01*
X115063150Y-82947711D01*
X115224936Y-82814936D01*
X115357711Y-82653150D01*
X115456372Y-82468569D01*
X115517127Y-82268286D01*
X115537641Y-82060000D01*
X115517127Y-81851714D01*
X115456372Y-81651431D01*
X115357711Y-81466850D01*
X115347171Y-81454007D01*
X115224936Y-81305063D01*
X115188734Y-81275353D01*
X115149400Y-81217607D01*
X115147529Y-81147763D01*
X115183717Y-81087994D01*
X115246473Y-81057279D01*
X115267399Y-81055500D01*
X116212601Y-81055500D01*
X116279640Y-81075185D01*
X116325395Y-81127989D01*
X116335339Y-81197147D01*
X116306314Y-81260703D01*
X116291266Y-81275353D01*
X116255063Y-81305063D01*
X116122291Y-81466846D01*
X116023629Y-81651428D01*
X115962872Y-81851715D01*
X115942359Y-82060000D01*
X115962872Y-82268284D01*
X115993250Y-82368427D01*
X116023628Y-82468569D01*
X116104021Y-82618974D01*
X116122291Y-82653153D01*
X116255063Y-82814936D01*
X116372510Y-82911322D01*
X116416850Y-82947711D01*
X116601431Y-83046372D01*
X116801714Y-83107127D01*
X117010000Y-83127641D01*
X117218286Y-83107127D01*
X117418569Y-83046372D01*
X117603150Y-82947711D01*
X117764936Y-82814936D01*
X117897711Y-82653150D01*
X117996372Y-82468569D01*
X118057127Y-82268286D01*
X118077641Y-82060000D01*
X118057127Y-81851714D01*
X117996372Y-81651431D01*
X117897711Y-81466850D01*
X117887171Y-81454007D01*
X117764936Y-81305063D01*
X117728734Y-81275353D01*
X117689400Y-81217607D01*
X117687529Y-81147763D01*
X117723717Y-81087994D01*
X117786473Y-81057279D01*
X117807399Y-81055500D01*
X118752601Y-81055500D01*
X118819640Y-81075185D01*
X118865395Y-81127989D01*
X118875339Y-81197147D01*
X118846314Y-81260703D01*
X118831266Y-81275353D01*
X118795063Y-81305063D01*
X118662291Y-81466846D01*
X118563629Y-81651428D01*
X118502872Y-81851715D01*
X118482359Y-82060000D01*
X118502872Y-82268284D01*
X118533250Y-82368427D01*
X118563628Y-82468569D01*
X118644021Y-82618974D01*
X118662291Y-82653153D01*
X118795063Y-82814936D01*
X118912510Y-82911322D01*
X118956850Y-82947711D01*
X119141431Y-83046372D01*
X119341714Y-83107127D01*
X119550000Y-83127641D01*
X119758286Y-83107127D01*
X119958569Y-83046372D01*
X120143150Y-82947711D01*
X120304936Y-82814936D01*
X120437711Y-82653150D01*
X120536372Y-82468569D01*
X120597127Y-82268286D01*
X120617641Y-82060000D01*
X120597127Y-81851714D01*
X120536372Y-81651431D01*
X120437711Y-81466850D01*
X120427171Y-81454007D01*
X120304936Y-81305063D01*
X120268734Y-81275353D01*
X120229400Y-81217607D01*
X120227529Y-81147763D01*
X120263717Y-81087994D01*
X120326473Y-81057279D01*
X120347399Y-81055500D01*
X121292601Y-81055500D01*
X121359640Y-81075185D01*
X121405395Y-81127989D01*
X121415339Y-81197147D01*
X121386314Y-81260703D01*
X121371266Y-81275353D01*
X121335063Y-81305063D01*
X121202291Y-81466846D01*
X121103629Y-81651428D01*
X121042872Y-81851715D01*
X121022359Y-82060000D01*
X121042872Y-82268284D01*
X121073250Y-82368427D01*
X121103628Y-82468569D01*
X121184021Y-82618974D01*
X121202291Y-82653153D01*
X121335063Y-82814936D01*
X121452510Y-82911322D01*
X121496850Y-82947711D01*
X121681431Y-83046372D01*
X121881714Y-83107127D01*
X122090000Y-83127641D01*
X122298286Y-83107127D01*
X122498569Y-83046372D01*
X122683150Y-82947711D01*
X122844936Y-82814936D01*
X122977711Y-82653150D01*
X123076372Y-82468569D01*
X123137127Y-82268286D01*
X123157641Y-82060000D01*
X123137127Y-81851714D01*
X123076372Y-81651431D01*
X122977711Y-81466850D01*
X122967171Y-81454007D01*
X122844936Y-81305063D01*
X122808734Y-81275353D01*
X122769400Y-81217607D01*
X122767529Y-81147763D01*
X122803717Y-81087994D01*
X122866473Y-81057279D01*
X122887399Y-81055500D01*
X128226976Y-81055500D01*
X128294015Y-81075185D01*
X128339770Y-81127989D01*
X128350976Y-81179344D01*
X128352705Y-82550558D01*
X128333105Y-82617622D01*
X128280359Y-82663443D01*
X128278108Y-82664447D01*
X128184432Y-82705137D01*
X128184430Y-82705138D01*
X127944757Y-82850886D01*
X127727154Y-83027919D01*
X127535692Y-83232925D01*
X127535692Y-83232926D01*
X127535689Y-83232928D01*
X127535688Y-83232931D01*
X127470982Y-83324597D01*
X127373919Y-83462103D01*
X127244863Y-83711171D01*
X127150926Y-83975483D01*
X127150921Y-83975500D01*
X127093852Y-84250135D01*
X127093851Y-84250137D01*
X127074709Y-84529999D01*
X127093851Y-84809862D01*
X127093852Y-84809864D01*
X127150921Y-85084499D01*
X127150926Y-85084516D01*
X127243672Y-85345476D01*
X127244864Y-85348830D01*
X127373919Y-85597896D01*
X127535688Y-85827069D01*
X127535692Y-85827073D01*
X127535692Y-85827074D01*
X127714488Y-86018518D01*
X127727155Y-86032081D01*
X127944754Y-86209111D01*
X127944756Y-86209112D01*
X127944757Y-86209113D01*
X128184433Y-86354863D01*
X128184437Y-86354865D01*
X128283100Y-86397720D01*
X128336747Y-86442483D01*
X128357677Y-86509144D01*
X128357699Y-86511298D01*
X128381693Y-105537967D01*
X128362093Y-105605031D01*
X128309347Y-105650852D01*
X128307096Y-105651857D01*
X128184425Y-105705141D01*
X127944757Y-105850886D01*
X127727154Y-106027919D01*
X127535692Y-106232925D01*
X127535692Y-106232926D01*
X127535689Y-106232928D01*
X127535688Y-106232931D01*
X127491539Y-106295475D01*
X127373919Y-106462103D01*
X127244863Y-106711171D01*
X127150926Y-106975483D01*
X127150921Y-106975500D01*
X127093852Y-107250135D01*
X127093851Y-107250137D01*
X127074709Y-107530000D01*
X127093851Y-107809862D01*
X127093852Y-107809864D01*
X127150921Y-108084499D01*
X127150926Y-108084516D01*
X127244863Y-108348828D01*
X127244864Y-108348830D01*
X127373919Y-108597896D01*
X127535688Y-108827069D01*
X127535692Y-108827073D01*
X127535692Y-108827074D01*
X127652556Y-108952205D01*
X127727155Y-109032081D01*
X127944754Y-109209111D01*
X127944756Y-109209112D01*
X127944757Y-109209113D01*
X128184433Y-109354863D01*
X128184437Y-109354865D01*
X128312120Y-109410325D01*
X128365767Y-109455088D01*
X128386697Y-109521749D01*
X128386719Y-109523903D01*
X128388430Y-110880344D01*
X128368830Y-110947408D01*
X128316084Y-110993229D01*
X128264430Y-111004500D01*
X122887399Y-111004500D01*
X122820360Y-110984815D01*
X122774605Y-110932011D01*
X122764661Y-110862853D01*
X122793686Y-110799297D01*
X122808734Y-110784647D01*
X122844936Y-110754936D01*
X122965961Y-110607467D01*
X122977711Y-110593150D01*
X123076372Y-110408569D01*
X123137127Y-110208286D01*
X123157641Y-110000000D01*
X123137127Y-109791714D01*
X123076372Y-109591431D01*
X122977711Y-109406850D01*
X122935048Y-109354865D01*
X122844936Y-109245063D01*
X122683153Y-109112291D01*
X122683151Y-109112290D01*
X122683150Y-109112289D01*
X122498569Y-109013628D01*
X122398427Y-108983250D01*
X122298284Y-108952872D01*
X122090000Y-108932359D01*
X121881715Y-108952872D01*
X121681428Y-109013629D01*
X121496846Y-109112291D01*
X121335063Y-109245063D01*
X121202291Y-109406846D01*
X121103629Y-109591428D01*
X121042872Y-109791715D01*
X121022359Y-110000000D01*
X121042872Y-110208284D01*
X121052640Y-110240484D01*
X121103628Y-110408569D01*
X121190385Y-110570880D01*
X121202291Y-110593153D01*
X121335063Y-110754936D01*
X121371266Y-110784647D01*
X121410600Y-110842393D01*
X121412471Y-110912237D01*
X121376283Y-110972006D01*
X121313527Y-111002721D01*
X121292601Y-111004500D01*
X120347399Y-111004500D01*
X120280360Y-110984815D01*
X120234605Y-110932011D01*
X120224661Y-110862853D01*
X120253686Y-110799297D01*
X120268734Y-110784647D01*
X120304936Y-110754936D01*
X120425961Y-110607467D01*
X120437711Y-110593150D01*
X120536372Y-110408569D01*
X120597127Y-110208286D01*
X120617641Y-110000000D01*
X120597127Y-109791714D01*
X120536372Y-109591431D01*
X120437711Y-109406850D01*
X120395048Y-109354865D01*
X120304936Y-109245063D01*
X120143153Y-109112291D01*
X120143151Y-109112290D01*
X120143150Y-109112289D01*
X119958569Y-109013628D01*
X119858427Y-108983250D01*
X119758284Y-108952872D01*
X119550000Y-108932359D01*
X119341715Y-108952872D01*
X119141428Y-109013629D01*
X118956846Y-109112291D01*
X118795063Y-109245063D01*
X118662291Y-109406846D01*
X118563629Y-109591428D01*
X118502872Y-109791715D01*
X118482359Y-110000000D01*
X118502872Y-110208284D01*
X118512640Y-110240484D01*
X118563628Y-110408569D01*
X118650385Y-110570880D01*
X118662291Y-110593153D01*
X118795063Y-110754936D01*
X118831266Y-110784647D01*
X118870600Y-110842393D01*
X118872471Y-110912237D01*
X118836283Y-110972006D01*
X118773527Y-111002721D01*
X118752601Y-111004500D01*
X117807399Y-111004500D01*
X117740360Y-110984815D01*
X117694605Y-110932011D01*
X117684661Y-110862853D01*
X117713686Y-110799297D01*
X117728734Y-110784647D01*
X117764936Y-110754936D01*
X117885961Y-110607467D01*
X117897711Y-110593150D01*
X117996372Y-110408569D01*
X118057127Y-110208286D01*
X118077641Y-110000000D01*
X118057127Y-109791714D01*
X117996372Y-109591431D01*
X117897711Y-109406850D01*
X117855048Y-109354865D01*
X117764936Y-109245063D01*
X117603153Y-109112291D01*
X117603151Y-109112290D01*
X117603150Y-109112289D01*
X117418569Y-109013628D01*
X117318427Y-108983250D01*
X117218284Y-108952872D01*
X117010000Y-108932359D01*
X116801715Y-108952872D01*
X116601428Y-109013629D01*
X116416846Y-109112291D01*
X116255063Y-109245063D01*
X116122291Y-109406846D01*
X116023629Y-109591428D01*
X115962872Y-109791715D01*
X115942359Y-110000000D01*
X115962872Y-110208284D01*
X115972640Y-110240484D01*
X116023628Y-110408569D01*
X116110385Y-110570880D01*
X116122291Y-110593153D01*
X116255063Y-110754936D01*
X116291266Y-110784647D01*
X116330600Y-110842393D01*
X116332471Y-110912237D01*
X116296283Y-110972006D01*
X116233527Y-111002721D01*
X116212601Y-111004500D01*
X115267399Y-111004500D01*
X115200360Y-110984815D01*
X115154605Y-110932011D01*
X115144661Y-110862853D01*
X115173686Y-110799297D01*
X115188734Y-110784647D01*
X115224936Y-110754936D01*
X115345961Y-110607467D01*
X115357711Y-110593150D01*
X115456372Y-110408569D01*
X115517127Y-110208286D01*
X115537641Y-110000000D01*
X115517127Y-109791714D01*
X115456372Y-109591431D01*
X115357711Y-109406850D01*
X115315048Y-109354865D01*
X115224936Y-109245063D01*
X115063153Y-109112291D01*
X115063151Y-109112290D01*
X115063150Y-109112289D01*
X114878569Y-109013628D01*
X114778427Y-108983250D01*
X114678284Y-108952872D01*
X114470000Y-108932359D01*
X114261715Y-108952872D01*
X114061428Y-109013629D01*
X113876846Y-109112291D01*
X113715063Y-109245063D01*
X113582291Y-109406846D01*
X113483629Y-109591428D01*
X113422872Y-109791715D01*
X113402359Y-110000000D01*
X113422872Y-110208284D01*
X113432640Y-110240484D01*
X113483628Y-110408569D01*
X113570385Y-110570880D01*
X113582291Y-110593153D01*
X113715063Y-110754936D01*
X113751266Y-110784647D01*
X113790600Y-110842393D01*
X113792471Y-110912237D01*
X113756283Y-110972006D01*
X113693527Y-111002721D01*
X113672601Y-111004500D01*
X112727399Y-111004500D01*
X112660360Y-110984815D01*
X112614605Y-110932011D01*
X112604661Y-110862853D01*
X112633686Y-110799297D01*
X112648734Y-110784647D01*
X112684936Y-110754936D01*
X112805961Y-110607467D01*
X112817711Y-110593150D01*
X112916372Y-110408569D01*
X112977127Y-110208286D01*
X112997641Y-110000000D01*
X112977127Y-109791714D01*
X112916372Y-109591431D01*
X112817711Y-109406850D01*
X112775048Y-109354865D01*
X112684936Y-109245063D01*
X112523153Y-109112291D01*
X112523151Y-109112290D01*
X112523150Y-109112289D01*
X112338569Y-109013628D01*
X112238427Y-108983250D01*
X112138284Y-108952872D01*
X111930000Y-108932359D01*
X111721715Y-108952872D01*
X111521428Y-109013629D01*
X111336846Y-109112291D01*
X111175063Y-109245063D01*
X111042291Y-109406846D01*
X110943629Y-109591428D01*
X110882872Y-109791715D01*
X110862359Y-110000000D01*
X110882872Y-110208284D01*
X110892640Y-110240484D01*
X110943628Y-110408569D01*
X111030385Y-110570880D01*
X111042291Y-110593153D01*
X111175063Y-110754936D01*
X111211266Y-110784647D01*
X111250600Y-110842393D01*
X111252471Y-110912237D01*
X111216283Y-110972006D01*
X111153527Y-111002721D01*
X111132601Y-111004500D01*
X110187399Y-111004500D01*
X110120360Y-110984815D01*
X110074605Y-110932011D01*
X110064661Y-110862853D01*
X110093686Y-110799297D01*
X110108734Y-110784647D01*
X110144936Y-110754936D01*
X110265961Y-110607467D01*
X110277711Y-110593150D01*
X110376372Y-110408569D01*
X110437127Y-110208286D01*
X110457641Y-110000000D01*
X110437127Y-109791714D01*
X110376372Y-109591431D01*
X110277711Y-109406850D01*
X110235048Y-109354865D01*
X110144936Y-109245063D01*
X109983153Y-109112291D01*
X109983151Y-109112290D01*
X109983150Y-109112289D01*
X109798569Y-109013628D01*
X109698427Y-108983250D01*
X109598284Y-108952872D01*
X109390000Y-108932359D01*
X109181715Y-108952872D01*
X108981428Y-109013629D01*
X108796846Y-109112291D01*
X108635063Y-109245063D01*
X108502291Y-109406846D01*
X108403629Y-109591428D01*
X108342872Y-109791715D01*
X108322359Y-110000000D01*
X108342872Y-110208284D01*
X108352640Y-110240484D01*
X108403628Y-110408569D01*
X108490385Y-110570880D01*
X108502291Y-110593153D01*
X108635063Y-110754936D01*
X108671266Y-110784647D01*
X108710600Y-110842393D01*
X108712471Y-110912237D01*
X108676283Y-110972006D01*
X108613527Y-111002721D01*
X108592601Y-111004500D01*
X107647399Y-111004500D01*
X107580360Y-110984815D01*
X107534605Y-110932011D01*
X107524661Y-110862853D01*
X107553686Y-110799297D01*
X107568734Y-110784647D01*
X107604936Y-110754936D01*
X107725961Y-110607467D01*
X107737711Y-110593150D01*
X107836372Y-110408569D01*
X107897127Y-110208286D01*
X107917641Y-110000000D01*
X107897127Y-109791714D01*
X107836372Y-109591431D01*
X107737711Y-109406850D01*
X107695048Y-109354865D01*
X107604936Y-109245063D01*
X107443153Y-109112291D01*
X107443151Y-109112290D01*
X107443150Y-109112289D01*
X107258569Y-109013628D01*
X107158427Y-108983250D01*
X107058284Y-108952872D01*
X106850000Y-108932359D01*
X106641715Y-108952872D01*
X106441428Y-109013629D01*
X106256846Y-109112291D01*
X106095063Y-109245063D01*
X105962291Y-109406846D01*
X105863629Y-109591428D01*
X105802872Y-109791715D01*
X105782359Y-110000000D01*
X105802872Y-110208284D01*
X105812640Y-110240484D01*
X105863628Y-110408569D01*
X105950385Y-110570880D01*
X105962291Y-110593153D01*
X106095063Y-110754936D01*
X106131266Y-110784647D01*
X106170600Y-110842393D01*
X106172471Y-110912237D01*
X106136283Y-110972006D01*
X106073527Y-111002721D01*
X106052601Y-111004500D01*
X105107399Y-111004500D01*
X105040360Y-110984815D01*
X104994605Y-110932011D01*
X104984661Y-110862853D01*
X105013686Y-110799297D01*
X105028734Y-110784647D01*
X105064936Y-110754936D01*
X105185961Y-110607467D01*
X105197711Y-110593150D01*
X105296372Y-110408569D01*
X105357127Y-110208286D01*
X105377641Y-110000000D01*
X105357127Y-109791714D01*
X105296372Y-109591431D01*
X105197711Y-109406850D01*
X105155048Y-109354865D01*
X105064936Y-109245063D01*
X104903153Y-109112291D01*
X104903151Y-109112290D01*
X104903150Y-109112289D01*
X104718569Y-109013628D01*
X104618427Y-108983250D01*
X104518284Y-108952872D01*
X104310000Y-108932359D01*
X104101715Y-108952872D01*
X103901428Y-109013629D01*
X103716846Y-109112291D01*
X103555063Y-109245063D01*
X103422291Y-109406846D01*
X103323629Y-109591428D01*
X103262872Y-109791715D01*
X103242359Y-110000000D01*
X103262872Y-110208284D01*
X103272640Y-110240484D01*
X103323628Y-110408569D01*
X103410385Y-110570880D01*
X103422291Y-110593153D01*
X103555063Y-110754936D01*
X103591266Y-110784647D01*
X103630600Y-110842393D01*
X103632471Y-110912237D01*
X103596283Y-110972006D01*
X103533527Y-111002721D01*
X103512601Y-111004500D01*
X102567399Y-111004500D01*
X102500360Y-110984815D01*
X102454605Y-110932011D01*
X102444661Y-110862853D01*
X102473686Y-110799297D01*
X102488734Y-110784647D01*
X102524936Y-110754936D01*
X102645961Y-110607467D01*
X102657711Y-110593150D01*
X102756372Y-110408569D01*
X102817127Y-110208286D01*
X102837641Y-110000000D01*
X102817127Y-109791714D01*
X102756372Y-109591431D01*
X102657711Y-109406850D01*
X102615048Y-109354865D01*
X102524936Y-109245063D01*
X102363153Y-109112291D01*
X102363151Y-109112290D01*
X102363150Y-109112289D01*
X102178569Y-109013628D01*
X102078427Y-108983250D01*
X101978284Y-108952872D01*
X101770000Y-108932359D01*
X101561715Y-108952872D01*
X101361428Y-109013629D01*
X101176846Y-109112291D01*
X101015063Y-109245063D01*
X100882291Y-109406846D01*
X100783629Y-109591428D01*
X100722872Y-109791715D01*
X100702359Y-109999999D01*
X100722872Y-110208284D01*
X100732640Y-110240484D01*
X100783628Y-110408569D01*
X100870385Y-110570880D01*
X100882291Y-110593153D01*
X101015063Y-110754936D01*
X101051266Y-110784647D01*
X101090600Y-110842393D01*
X101092471Y-110912237D01*
X101056283Y-110972006D01*
X100993527Y-111002721D01*
X100972601Y-111004500D01*
X100027399Y-111004500D01*
X99960360Y-110984815D01*
X99914605Y-110932011D01*
X99904661Y-110862853D01*
X99933686Y-110799297D01*
X99948734Y-110784647D01*
X99984936Y-110754936D01*
X100105961Y-110607467D01*
X100117711Y-110593150D01*
X100216372Y-110408569D01*
X100277127Y-110208286D01*
X100297641Y-110000000D01*
X100277127Y-109791714D01*
X100216372Y-109591431D01*
X100117711Y-109406850D01*
X100075048Y-109354865D01*
X99984936Y-109245063D01*
X99823153Y-109112291D01*
X99823151Y-109112290D01*
X99823150Y-109112289D01*
X99638569Y-109013628D01*
X99538427Y-108983250D01*
X99438284Y-108952872D01*
X99230000Y-108932359D01*
X99021715Y-108952872D01*
X98821428Y-109013629D01*
X98636846Y-109112291D01*
X98475063Y-109245063D01*
X98342291Y-109406846D01*
X98243629Y-109591428D01*
X98182872Y-109791715D01*
X98162359Y-109999999D01*
X98182872Y-110208284D01*
X98192640Y-110240484D01*
X98243628Y-110408569D01*
X98330385Y-110570880D01*
X98342291Y-110593153D01*
X98475063Y-110754936D01*
X98511266Y-110784647D01*
X98550600Y-110842393D01*
X98552471Y-110912237D01*
X98516283Y-110972006D01*
X98453527Y-111002721D01*
X98432601Y-111004500D01*
X97487399Y-111004500D01*
X97420360Y-110984815D01*
X97374605Y-110932011D01*
X97364661Y-110862853D01*
X97393686Y-110799297D01*
X97408734Y-110784647D01*
X97444936Y-110754936D01*
X97565961Y-110607467D01*
X97577711Y-110593150D01*
X97676372Y-110408569D01*
X97737127Y-110208286D01*
X97757641Y-110000000D01*
X97737127Y-109791714D01*
X97676372Y-109591431D01*
X97577711Y-109406850D01*
X97535048Y-109354865D01*
X97444936Y-109245063D01*
X97283153Y-109112291D01*
X97283151Y-109112290D01*
X97283150Y-109112289D01*
X97098569Y-109013628D01*
X96998427Y-108983250D01*
X96898284Y-108952872D01*
X96690000Y-108932359D01*
X96481715Y-108952872D01*
X96281428Y-109013629D01*
X96096846Y-109112291D01*
X95935063Y-109245063D01*
X95802291Y-109406846D01*
X95703629Y-109591428D01*
X95642872Y-109791715D01*
X95622359Y-110000000D01*
X95642872Y-110208284D01*
X95652640Y-110240484D01*
X95703628Y-110408569D01*
X95790385Y-110570880D01*
X95802291Y-110593153D01*
X95935063Y-110754936D01*
X95971266Y-110784647D01*
X96010600Y-110842393D01*
X96012471Y-110912237D01*
X95976283Y-110972006D01*
X95913527Y-111002721D01*
X95892601Y-111004500D01*
X70631623Y-111004500D01*
X70628379Y-111004415D01*
X70610478Y-111003476D01*
X70322323Y-110988374D01*
X70315865Y-110987695D01*
X70014781Y-110940009D01*
X70008429Y-110938659D01*
X69713970Y-110859759D01*
X69707794Y-110857753D01*
X69423198Y-110748506D01*
X69417265Y-110745865D01*
X69385029Y-110729440D01*
X69145635Y-110607463D01*
X69140018Y-110604219D01*
X69122973Y-110593150D01*
X68884362Y-110438193D01*
X68879109Y-110434376D01*
X68642194Y-110242527D01*
X68637368Y-110238181D01*
X68421818Y-110022631D01*
X68417472Y-110017805D01*
X68225623Y-109780890D01*
X68221806Y-109775637D01*
X68159742Y-109680067D01*
X68055775Y-109519973D01*
X68052540Y-109514370D01*
X67914129Y-109242724D01*
X67911493Y-109236801D01*
X67802242Y-108952194D01*
X67800240Y-108946029D01*
X67768365Y-108827069D01*
X67721337Y-108651560D01*
X67719993Y-108645232D01*
X67673048Y-108348830D01*
X67672304Y-108344133D01*
X67671625Y-108337675D01*
X67655585Y-108031622D01*
X67655500Y-108028376D01*
X67655500Y-107530000D01*
X69074709Y-107530000D01*
X69093851Y-107809862D01*
X69093852Y-107809864D01*
X69150921Y-108084499D01*
X69150926Y-108084516D01*
X69244863Y-108348828D01*
X69244864Y-108348830D01*
X69373919Y-108597896D01*
X69535688Y-108827069D01*
X69535692Y-108827073D01*
X69535692Y-108827074D01*
X69652556Y-108952205D01*
X69727155Y-109032081D01*
X69944754Y-109209111D01*
X69944756Y-109209112D01*
X69944757Y-109209113D01*
X70184433Y-109354863D01*
X70393257Y-109445567D01*
X70441725Y-109466620D01*
X70711839Y-109542303D01*
X70956159Y-109575884D01*
X70989741Y-109580500D01*
X70989742Y-109580500D01*
X71270259Y-109580500D01*
X71300219Y-109576381D01*
X71548161Y-109542303D01*
X71818275Y-109466620D01*
X72075568Y-109354862D01*
X72315246Y-109209111D01*
X72532845Y-109032081D01*
X72724312Y-108827069D01*
X72886081Y-108597896D01*
X73015136Y-108348830D01*
X73109075Y-108084511D01*
X73109076Y-108084504D01*
X73109078Y-108084499D01*
X73110388Y-108078194D01*
X78049500Y-108078194D01*
X78064244Y-108237310D01*
X78114146Y-108412696D01*
X78122596Y-108442392D01*
X78122596Y-108442394D01*
X78217632Y-108633253D01*
X78217634Y-108633255D01*
X78346128Y-108803407D01*
X78503698Y-108947052D01*
X78684981Y-109059298D01*
X78883802Y-109136321D01*
X79093390Y-109175500D01*
X79093392Y-109175500D01*
X79306608Y-109175500D01*
X79306610Y-109175500D01*
X79516198Y-109136321D01*
X79715019Y-109059298D01*
X79896302Y-108947052D01*
X80053872Y-108803407D01*
X80182366Y-108633255D01*
X80246756Y-108503942D01*
X80277403Y-108442394D01*
X80277403Y-108442393D01*
X80277405Y-108442389D01*
X80330734Y-108254959D01*
X80368014Y-108195867D01*
X80431323Y-108166310D01*
X80500563Y-108175672D01*
X80553749Y-108220982D01*
X80569265Y-108254959D01*
X80614146Y-108412696D01*
X80622596Y-108442392D01*
X80622596Y-108442394D01*
X80717632Y-108633253D01*
X80717634Y-108633255D01*
X80846128Y-108803407D01*
X81003698Y-108947052D01*
X81184981Y-109059298D01*
X81383802Y-109136321D01*
X81593390Y-109175500D01*
X81593392Y-109175500D01*
X81806608Y-109175500D01*
X81806610Y-109175500D01*
X82016198Y-109136321D01*
X82215019Y-109059298D01*
X82396302Y-108947052D01*
X82553872Y-108803407D01*
X82682366Y-108633255D01*
X82746756Y-108503942D01*
X82777403Y-108442394D01*
X82777403Y-108442393D01*
X82777405Y-108442389D01*
X82830734Y-108254959D01*
X82868014Y-108195867D01*
X82931323Y-108166310D01*
X83000563Y-108175672D01*
X83053749Y-108220982D01*
X83069265Y-108254959D01*
X83114146Y-108412696D01*
X83122596Y-108442392D01*
X83122596Y-108442394D01*
X83217632Y-108633253D01*
X83217634Y-108633255D01*
X83346128Y-108803407D01*
X83503698Y-108947052D01*
X83684981Y-109059298D01*
X83883802Y-109136321D01*
X84093390Y-109175500D01*
X84093392Y-109175500D01*
X84306608Y-109175500D01*
X84306610Y-109175500D01*
X84516198Y-109136321D01*
X84715019Y-109059298D01*
X84896302Y-108947052D01*
X85053872Y-108803407D01*
X85182366Y-108633255D01*
X85246756Y-108503942D01*
X85277403Y-108442394D01*
X85277403Y-108442393D01*
X85277405Y-108442389D01*
X85330734Y-108254959D01*
X85368014Y-108195867D01*
X85431323Y-108166310D01*
X85500563Y-108175672D01*
X85553749Y-108220982D01*
X85569265Y-108254959D01*
X85614146Y-108412696D01*
X85622596Y-108442392D01*
X85622596Y-108442394D01*
X85717632Y-108633253D01*
X85717634Y-108633255D01*
X85846128Y-108803407D01*
X86003698Y-108947052D01*
X86184981Y-109059298D01*
X86383802Y-109136321D01*
X86593390Y-109175500D01*
X86593392Y-109175500D01*
X86806608Y-109175500D01*
X86806610Y-109175500D01*
X87016198Y-109136321D01*
X87215019Y-109059298D01*
X87396302Y-108947052D01*
X87553872Y-108803407D01*
X87682366Y-108633255D01*
X87746756Y-108503942D01*
X87777403Y-108442394D01*
X87777403Y-108442393D01*
X87777405Y-108442389D01*
X87830734Y-108254959D01*
X87868014Y-108195867D01*
X87931323Y-108166310D01*
X88000563Y-108175672D01*
X88053749Y-108220982D01*
X88069265Y-108254959D01*
X88114146Y-108412696D01*
X88122596Y-108442392D01*
X88122596Y-108442394D01*
X88217632Y-108633253D01*
X88217634Y-108633255D01*
X88346128Y-108803407D01*
X88503698Y-108947052D01*
X88684981Y-109059298D01*
X88883802Y-109136321D01*
X89093390Y-109175500D01*
X89093392Y-109175500D01*
X89306608Y-109175500D01*
X89306610Y-109175500D01*
X89516198Y-109136321D01*
X89715019Y-109059298D01*
X89896302Y-108947052D01*
X90053872Y-108803407D01*
X90182366Y-108633255D01*
X90246756Y-108503942D01*
X90277403Y-108442394D01*
X90277403Y-108442393D01*
X90277405Y-108442389D01*
X90335756Y-108237310D01*
X90350500Y-108078194D01*
X90350500Y-107721806D01*
X90335756Y-107562690D01*
X90287469Y-107392981D01*
X90288055Y-107323115D01*
X90303186Y-107300000D01*
X93744722Y-107300000D01*
X93763762Y-107456818D01*
X93801688Y-107556818D01*
X93819780Y-107604523D01*
X93909517Y-107734530D01*
X94027760Y-107839283D01*
X94027762Y-107839284D01*
X94167634Y-107912696D01*
X94321014Y-107950500D01*
X94321015Y-107950500D01*
X94478985Y-107950500D01*
X94639649Y-107910901D01*
X94640046Y-107912512D01*
X94700665Y-107907829D01*
X94715202Y-107912096D01*
X94717633Y-107912695D01*
X94717635Y-107912696D01*
X94804585Y-107934127D01*
X94871014Y-107950500D01*
X94871015Y-107950500D01*
X95028985Y-107950500D01*
X95189649Y-107910901D01*
X95190046Y-107912512D01*
X95250665Y-107907829D01*
X95265202Y-107912096D01*
X95267633Y-107912695D01*
X95267635Y-107912696D01*
X95354585Y-107934127D01*
X95421014Y-107950500D01*
X95421015Y-107950500D01*
X95578985Y-107950500D01*
X95739649Y-107910901D01*
X95740046Y-107912512D01*
X95800665Y-107907829D01*
X95815202Y-107912096D01*
X95817633Y-107912695D01*
X95817635Y-107912696D01*
X95904585Y-107934127D01*
X95971014Y-107950500D01*
X95971015Y-107950500D01*
X96128985Y-107950500D01*
X96289649Y-107910901D01*
X96290046Y-107912512D01*
X96350665Y-107907829D01*
X96365202Y-107912096D01*
X96367633Y-107912695D01*
X96367635Y-107912696D01*
X96454585Y-107934127D01*
X96521014Y-107950500D01*
X96521015Y-107950500D01*
X96678985Y-107950500D01*
X96832365Y-107912696D01*
X96876974Y-107889283D01*
X96972240Y-107839283D01*
X97090483Y-107734530D01*
X97180220Y-107604523D01*
X97236237Y-107456818D01*
X97249207Y-107350000D01*
X101007222Y-107350000D01*
X101026262Y-107506818D01*
X101077979Y-107643182D01*
X101082280Y-107654523D01*
X101172017Y-107784530D01*
X101290260Y-107889283D01*
X101290262Y-107889284D01*
X101430134Y-107962696D01*
X101583514Y-108000500D01*
X101583515Y-108000500D01*
X101741485Y-108000500D01*
X101894865Y-107962696D01*
X101939474Y-107939283D01*
X102034740Y-107889283D01*
X102152983Y-107784530D01*
X102242720Y-107654523D01*
X102263398Y-107600000D01*
X103494722Y-107600000D01*
X103513762Y-107756818D01*
X103545038Y-107839284D01*
X103569780Y-107904523D01*
X103659517Y-108034530D01*
X103777760Y-108139283D01*
X103777762Y-108139284D01*
X103917634Y-108212696D01*
X104071014Y-108250500D01*
X104071015Y-108250500D01*
X104228985Y-108250500D01*
X104382365Y-108212696D01*
X104382365Y-108212695D01*
X104522240Y-108139283D01*
X104640483Y-108034530D01*
X104730220Y-107904523D01*
X104786237Y-107756818D01*
X104805278Y-107600000D01*
X104796779Y-107529999D01*
X104786237Y-107443181D01*
X104769860Y-107400000D01*
X105944722Y-107400000D01*
X105963762Y-107556818D01*
X106000818Y-107654524D01*
X106019780Y-107704523D01*
X106109517Y-107834530D01*
X106227760Y-107939283D01*
X106227762Y-107939284D01*
X106367634Y-108012696D01*
X106521014Y-108050500D01*
X106521015Y-108050500D01*
X106678985Y-108050500D01*
X106832365Y-108012696D01*
X106855602Y-108000500D01*
X106972240Y-107939283D01*
X107090483Y-107834530D01*
X107180220Y-107704523D01*
X107236237Y-107556818D01*
X107255278Y-107400000D01*
X107251086Y-107365471D01*
X107236237Y-107243181D01*
X107198312Y-107143182D01*
X107180220Y-107095477D01*
X107090483Y-106965470D01*
X106972240Y-106860717D01*
X106972238Y-106860716D01*
X106972237Y-106860715D01*
X106832365Y-106787303D01*
X106678986Y-106749500D01*
X106678985Y-106749500D01*
X106521015Y-106749500D01*
X106521014Y-106749500D01*
X106367634Y-106787303D01*
X106227762Y-106860715D01*
X106109516Y-106965471D01*
X106019781Y-107095475D01*
X106019780Y-107095476D01*
X105963762Y-107243181D01*
X105944722Y-107399999D01*
X105944722Y-107400000D01*
X104769860Y-107400000D01*
X104753782Y-107357605D01*
X104730220Y-107295477D01*
X104640483Y-107165470D01*
X104522240Y-107060717D01*
X104522238Y-107060716D01*
X104522237Y-107060715D01*
X104382365Y-106987303D01*
X104228986Y-106949500D01*
X104228985Y-106949500D01*
X104071015Y-106949500D01*
X104071014Y-106949500D01*
X103917634Y-106987303D01*
X103777762Y-107060715D01*
X103659516Y-107165471D01*
X103569781Y-107295475D01*
X103569780Y-107295476D01*
X103513762Y-107443181D01*
X103494722Y-107599999D01*
X103494722Y-107600000D01*
X102263398Y-107600000D01*
X102298737Y-107506818D01*
X102317778Y-107350000D01*
X102307416Y-107264656D01*
X102298737Y-107193181D01*
X102261682Y-107095476D01*
X102242720Y-107045477D01*
X102152983Y-106915470D01*
X102034740Y-106810717D01*
X102034738Y-106810716D01*
X102034737Y-106810715D01*
X101894865Y-106737303D01*
X101741486Y-106699500D01*
X101741485Y-106699500D01*
X101583515Y-106699500D01*
X101583514Y-106699500D01*
X101430134Y-106737303D01*
X101290262Y-106810715D01*
X101172016Y-106915471D01*
X101082281Y-107045475D01*
X101082280Y-107045476D01*
X101026262Y-107193181D01*
X101007222Y-107349999D01*
X101007222Y-107350000D01*
X97249207Y-107350000D01*
X97255278Y-107300000D01*
X97250987Y-107264656D01*
X97236237Y-107143181D01*
X97199182Y-107045476D01*
X97180220Y-106995477D01*
X97090483Y-106865470D01*
X96972240Y-106760717D01*
X96972238Y-106760716D01*
X96972237Y-106760715D01*
X96832365Y-106687303D01*
X96678986Y-106649500D01*
X96678985Y-106649500D01*
X96521015Y-106649500D01*
X96367635Y-106687304D01*
X96367634Y-106687304D01*
X96360353Y-106689099D01*
X96359957Y-106687493D01*
X96299301Y-106692163D01*
X96284781Y-106687899D01*
X96128985Y-106649500D01*
X95971015Y-106649500D01*
X95817635Y-106687304D01*
X95817634Y-106687304D01*
X95810353Y-106689099D01*
X95809957Y-106687494D01*
X95749293Y-106692161D01*
X95734791Y-106687902D01*
X95677263Y-106673723D01*
X95578985Y-106649500D01*
X95421015Y-106649500D01*
X95267635Y-106687304D01*
X95267634Y-106687304D01*
X95260353Y-106689099D01*
X95259957Y-106687493D01*
X95199301Y-106692163D01*
X95184781Y-106687899D01*
X95028985Y-106649500D01*
X94871015Y-106649500D01*
X94717635Y-106687304D01*
X94717634Y-106687304D01*
X94710353Y-106689099D01*
X94709957Y-106687493D01*
X94649301Y-106692163D01*
X94634781Y-106687899D01*
X94478985Y-106649500D01*
X94321015Y-106649500D01*
X94321014Y-106649500D01*
X94167634Y-106687303D01*
X94027762Y-106760715D01*
X93909516Y-106865471D01*
X93819781Y-106995475D01*
X93819780Y-106995476D01*
X93763762Y-107143181D01*
X93744722Y-107299999D01*
X93744722Y-107300000D01*
X90303186Y-107300000D01*
X90326322Y-107264656D01*
X90377058Y-107238651D01*
X90482365Y-107212696D01*
X90622240Y-107139283D01*
X90740483Y-107034530D01*
X90830220Y-106904523D01*
X90886237Y-106756818D01*
X90905278Y-106600000D01*
X90899207Y-106550000D01*
X111294722Y-106550000D01*
X111313762Y-106706818D01*
X111369182Y-106852947D01*
X111369780Y-106854523D01*
X111459517Y-106984530D01*
X111577760Y-107089283D01*
X111577762Y-107089284D01*
X111717634Y-107162696D01*
X111871014Y-107200500D01*
X111871015Y-107200500D01*
X112028985Y-107200500D01*
X112182365Y-107162696D01*
X112205602Y-107150500D01*
X112322240Y-107089283D01*
X112440483Y-106984530D01*
X112530220Y-106854523D01*
X112568539Y-106753482D01*
X112610717Y-106697780D01*
X112676314Y-106673723D01*
X112744505Y-106688950D01*
X112793638Y-106738626D01*
X112800421Y-106753478D01*
X112813250Y-106787304D01*
X112819781Y-106804525D01*
X112861849Y-106865471D01*
X112909517Y-106934530D01*
X113027760Y-107039283D01*
X113027762Y-107039284D01*
X113167634Y-107112696D01*
X113321014Y-107150500D01*
X113321015Y-107150500D01*
X113478985Y-107150500D01*
X113632365Y-107112696D01*
X113632364Y-107112696D01*
X113751821Y-107050000D01*
X116744721Y-107050000D01*
X116763762Y-107206818D01*
X116818064Y-107349999D01*
X116819780Y-107354523D01*
X116909517Y-107484530D01*
X117027760Y-107589283D01*
X117027762Y-107589284D01*
X117167634Y-107662696D01*
X117321014Y-107700500D01*
X117321015Y-107700500D01*
X117322786Y-107700500D01*
X117324035Y-107700866D01*
X117328460Y-107701404D01*
X117328370Y-107702139D01*
X117389825Y-107720185D01*
X117435580Y-107772989D01*
X117445882Y-107809554D01*
X117463762Y-107956818D01*
X117509793Y-108078190D01*
X117519780Y-108104523D01*
X117609517Y-108234530D01*
X117727760Y-108339283D01*
X117727762Y-108339284D01*
X117867634Y-108412696D01*
X118021014Y-108450500D01*
X118021015Y-108450500D01*
X118178985Y-108450500D01*
X118332365Y-108412696D01*
X118332365Y-108412695D01*
X118472240Y-108339283D01*
X118590483Y-108234530D01*
X118680220Y-108104523D01*
X118736237Y-107956818D01*
X118755278Y-107800000D01*
X118738607Y-107662696D01*
X118736237Y-107643181D01*
X118705710Y-107562689D01*
X118680220Y-107495477D01*
X118590483Y-107365470D01*
X118472240Y-107260717D01*
X118472238Y-107260716D01*
X118472237Y-107260715D01*
X118332365Y-107187303D01*
X118178986Y-107149500D01*
X118178985Y-107149500D01*
X118177214Y-107149500D01*
X118175964Y-107149133D01*
X118171540Y-107148596D01*
X118171629Y-107147860D01*
X118110175Y-107129815D01*
X118064420Y-107077011D01*
X118054118Y-107040446D01*
X118036237Y-106893181D01*
X118002614Y-106804525D01*
X117980220Y-106745477D01*
X117890483Y-106615470D01*
X117772240Y-106510717D01*
X117772238Y-106510716D01*
X117772237Y-106510715D01*
X117632365Y-106437303D01*
X117478986Y-106399500D01*
X117478985Y-106399500D01*
X117321015Y-106399500D01*
X117321014Y-106399500D01*
X117167634Y-106437303D01*
X117027762Y-106510715D01*
X116909516Y-106615471D01*
X116819781Y-106745475D01*
X116819780Y-106745476D01*
X116763762Y-106893181D01*
X116744721Y-107049999D01*
X116744721Y-107050000D01*
X113751821Y-107050000D01*
X113772240Y-107039283D01*
X113890483Y-106934530D01*
X113980220Y-106804523D01*
X114036237Y-106656818D01*
X114055278Y-106500000D01*
X114047666Y-106437304D01*
X114036237Y-106343181D01*
X113999182Y-106245476D01*
X113980220Y-106195477D01*
X113890483Y-106065470D01*
X113890482Y-106065468D01*
X113780253Y-105967816D01*
X113743126Y-105908627D01*
X113743892Y-105838761D01*
X113780253Y-105782184D01*
X113890482Y-105684531D01*
X113890483Y-105684530D01*
X113980220Y-105554523D01*
X114036237Y-105406818D01*
X114054064Y-105260000D01*
X117834721Y-105260000D01*
X117853762Y-105416818D01*
X117905988Y-105554524D01*
X117909780Y-105564523D01*
X117999517Y-105694530D01*
X118117760Y-105799283D01*
X118117762Y-105799284D01*
X118257634Y-105872696D01*
X118411014Y-105910500D01*
X118411015Y-105910500D01*
X118568985Y-105910500D01*
X118722365Y-105872696D01*
X118786027Y-105839283D01*
X118862240Y-105799283D01*
X118980483Y-105694530D01*
X119070220Y-105564523D01*
X119126237Y-105416818D01*
X119145278Y-105260000D01*
X119144064Y-105250000D01*
X120394721Y-105250000D01*
X120413762Y-105406818D01*
X120455814Y-105517697D01*
X120469780Y-105554523D01*
X120559517Y-105684530D01*
X120677760Y-105789283D01*
X120677762Y-105789284D01*
X120817634Y-105862696D01*
X120971014Y-105900500D01*
X120971015Y-105900500D01*
X121128985Y-105900500D01*
X121282365Y-105862696D01*
X121282364Y-105862695D01*
X121422240Y-105789283D01*
X121540483Y-105684530D01*
X121630220Y-105554523D01*
X121686237Y-105406818D01*
X121705278Y-105250000D01*
X121686237Y-105093182D01*
X121686236Y-105093180D01*
X121656665Y-105015206D01*
X121630220Y-104945477D01*
X121540483Y-104815470D01*
X121422240Y-104710717D01*
X121422238Y-104710716D01*
X121422237Y-104710715D01*
X121282365Y-104637303D01*
X121128986Y-104599500D01*
X121128985Y-104599500D01*
X120971015Y-104599500D01*
X120971014Y-104599500D01*
X120817634Y-104637303D01*
X120677762Y-104710715D01*
X120559516Y-104815471D01*
X120469781Y-104945475D01*
X120469780Y-104945476D01*
X120413762Y-105093181D01*
X120394721Y-105249999D01*
X120394721Y-105250000D01*
X119144064Y-105250000D01*
X119126237Y-105103182D01*
X119107783Y-105054524D01*
X119085390Y-104995477D01*
X119070220Y-104955477D01*
X118980483Y-104825470D01*
X118862240Y-104720717D01*
X118862238Y-104720716D01*
X118862237Y-104720715D01*
X118722365Y-104647303D01*
X118568986Y-104609500D01*
X118568985Y-104609500D01*
X118411015Y-104609500D01*
X118411014Y-104609500D01*
X118257634Y-104647303D01*
X118117762Y-104720715D01*
X117999516Y-104825471D01*
X117909781Y-104955475D01*
X117909780Y-104955476D01*
X117853762Y-105103181D01*
X117834721Y-105259999D01*
X117834721Y-105260000D01*
X114054064Y-105260000D01*
X114055278Y-105250000D01*
X114036237Y-105093182D01*
X114033085Y-105084870D01*
X114027717Y-105015206D01*
X114060863Y-104953700D01*
X114122001Y-104919878D01*
X114191719Y-104924478D01*
X114231253Y-104948082D01*
X114277759Y-104989282D01*
X114277761Y-104989284D01*
X114417634Y-105062696D01*
X114571014Y-105100500D01*
X114571015Y-105100500D01*
X114728985Y-105100500D01*
X114882365Y-105062696D01*
X114972848Y-105015206D01*
X115022240Y-104989283D01*
X115140483Y-104884530D01*
X115230220Y-104754523D01*
X115286237Y-104606818D01*
X115305278Y-104450000D01*
X115301086Y-104415471D01*
X115286237Y-104293181D01*
X115250708Y-104199500D01*
X115230220Y-104145477D01*
X115140483Y-104015470D01*
X115022240Y-103910717D01*
X115022238Y-103910716D01*
X115022237Y-103910715D01*
X114882365Y-103837303D01*
X114728986Y-103799500D01*
X114728985Y-103799500D01*
X114571015Y-103799500D01*
X114571014Y-103799500D01*
X114417634Y-103837303D01*
X114277762Y-103910715D01*
X114159516Y-104015471D01*
X114069781Y-104145475D01*
X114069780Y-104145476D01*
X114013762Y-104293181D01*
X113994722Y-104449999D01*
X113994722Y-104450000D01*
X114013763Y-104606819D01*
X114013763Y-104606820D01*
X114016916Y-104615134D01*
X114022282Y-104684797D01*
X113989133Y-104746302D01*
X113927994Y-104780122D01*
X113858276Y-104775519D01*
X113818748Y-104751919D01*
X113772240Y-104710717D01*
X113772237Y-104710714D01*
X113632365Y-104637303D01*
X113478986Y-104599500D01*
X113478985Y-104599500D01*
X113321015Y-104599500D01*
X113321014Y-104599500D01*
X113167634Y-104637303D01*
X113027762Y-104710715D01*
X112909517Y-104815469D01*
X112877050Y-104862507D01*
X112822766Y-104906497D01*
X112753318Y-104914156D01*
X112690753Y-104883052D01*
X112672950Y-104862507D01*
X112664317Y-104850000D01*
X112640483Y-104815470D01*
X112522240Y-104710717D01*
X112522238Y-104710716D01*
X112522237Y-104710715D01*
X112382365Y-104637303D01*
X112228986Y-104599500D01*
X112228985Y-104599500D01*
X112071015Y-104599500D01*
X112071014Y-104599500D01*
X111917634Y-104637303D01*
X111777762Y-104710715D01*
X111659516Y-104815471D01*
X111569781Y-104945475D01*
X111569780Y-104945476D01*
X111513762Y-105093181D01*
X111494722Y-105249999D01*
X111494722Y-105250000D01*
X111513762Y-105406818D01*
X111555814Y-105517697D01*
X111569780Y-105554523D01*
X111659517Y-105684530D01*
X111725847Y-105743293D01*
X111762973Y-105802481D01*
X111762206Y-105872347D01*
X111723789Y-105930707D01*
X111701247Y-105945904D01*
X111577761Y-106010716D01*
X111459516Y-106115471D01*
X111369781Y-106245475D01*
X111369780Y-106245476D01*
X111313762Y-106393181D01*
X111294722Y-106549999D01*
X111294722Y-106550000D01*
X90899207Y-106550000D01*
X90888535Y-106462103D01*
X90886237Y-106443181D01*
X90855088Y-106361049D01*
X90830220Y-106295477D01*
X90740483Y-106165470D01*
X90622240Y-106060717D01*
X90622238Y-106060716D01*
X90622237Y-106060715D01*
X90482365Y-105987303D01*
X90328986Y-105949500D01*
X90328985Y-105949500D01*
X90171015Y-105949500D01*
X90171014Y-105949500D01*
X90017634Y-105987303D01*
X89877762Y-106060715D01*
X89759516Y-106165471D01*
X89669781Y-106295475D01*
X89669780Y-106295476D01*
X89613763Y-106443180D01*
X89601353Y-106545385D01*
X89573731Y-106609563D01*
X89515797Y-106648619D01*
X89455472Y-106652327D01*
X89391516Y-106640371D01*
X89306610Y-106624500D01*
X89093390Y-106624500D01*
X88883802Y-106663679D01*
X88883799Y-106663679D01*
X88883799Y-106663680D01*
X88684982Y-106740701D01*
X88684980Y-106740702D01*
X88503699Y-106852947D01*
X88346127Y-106996593D01*
X88217632Y-107166746D01*
X88122596Y-107357605D01*
X88122596Y-107357607D01*
X88069266Y-107545039D01*
X88031986Y-107604132D01*
X87968676Y-107633689D01*
X87899437Y-107624327D01*
X87846251Y-107579017D01*
X87830734Y-107545039D01*
X87813517Y-107484530D01*
X87777405Y-107357611D01*
X87777403Y-107357606D01*
X87777403Y-107357605D01*
X87682367Y-107166746D01*
X87553872Y-106996593D01*
X87552646Y-106995475D01*
X87396302Y-106852948D01*
X87215019Y-106740702D01*
X87215017Y-106740701D01*
X87081815Y-106689099D01*
X87016198Y-106663679D01*
X86806610Y-106624500D01*
X86593390Y-106624500D01*
X86383802Y-106663679D01*
X86383799Y-106663679D01*
X86383799Y-106663680D01*
X86184982Y-106740701D01*
X86184980Y-106740702D01*
X86003699Y-106852947D01*
X85846127Y-106996593D01*
X85717632Y-107166746D01*
X85622596Y-107357605D01*
X85622596Y-107357607D01*
X85569266Y-107545039D01*
X85531986Y-107604132D01*
X85468676Y-107633689D01*
X85399437Y-107624327D01*
X85346251Y-107579017D01*
X85330734Y-107545039D01*
X85313517Y-107484530D01*
X85277405Y-107357611D01*
X85277403Y-107357606D01*
X85277403Y-107357605D01*
X85182367Y-107166746D01*
X85053872Y-106996593D01*
X85052646Y-106995475D01*
X84896302Y-106852948D01*
X84715019Y-106740702D01*
X84715017Y-106740701D01*
X84581815Y-106689099D01*
X84516198Y-106663679D01*
X84306610Y-106624500D01*
X84093390Y-106624500D01*
X83883802Y-106663679D01*
X83883799Y-106663679D01*
X83883799Y-106663680D01*
X83684982Y-106740701D01*
X83684980Y-106740702D01*
X83503699Y-106852947D01*
X83346127Y-106996593D01*
X83217632Y-107166746D01*
X83122596Y-107357605D01*
X83122596Y-107357607D01*
X83069266Y-107545039D01*
X83031986Y-107604132D01*
X82968676Y-107633689D01*
X82899437Y-107624327D01*
X82846251Y-107579017D01*
X82830734Y-107545039D01*
X82813517Y-107484530D01*
X82777405Y-107357611D01*
X82777403Y-107357606D01*
X82777403Y-107357605D01*
X82682367Y-107166746D01*
X82553872Y-106996593D01*
X82552646Y-106995475D01*
X82396302Y-106852948D01*
X82215019Y-106740702D01*
X82215017Y-106740701D01*
X82081815Y-106689099D01*
X82016198Y-106663679D01*
X81806610Y-106624500D01*
X81593390Y-106624500D01*
X81383802Y-106663679D01*
X81383799Y-106663679D01*
X81383799Y-106663680D01*
X81184982Y-106740701D01*
X81184980Y-106740702D01*
X81003699Y-106852947D01*
X80846127Y-106996593D01*
X80717632Y-107166746D01*
X80622596Y-107357605D01*
X80622596Y-107357607D01*
X80569266Y-107545039D01*
X80531986Y-107604132D01*
X80468676Y-107633689D01*
X80399437Y-107624327D01*
X80346251Y-107579017D01*
X80330734Y-107545039D01*
X80313517Y-107484530D01*
X80277405Y-107357611D01*
X80277403Y-107357606D01*
X80277403Y-107357605D01*
X80182367Y-107166746D01*
X80053872Y-106996593D01*
X80052646Y-106995475D01*
X79896302Y-106852948D01*
X79715019Y-106740702D01*
X79715017Y-106740701D01*
X79581815Y-106689099D01*
X79516198Y-106663679D01*
X79306610Y-106624500D01*
X79093390Y-106624500D01*
X78883802Y-106663679D01*
X78883799Y-106663679D01*
X78883799Y-106663680D01*
X78684982Y-106740701D01*
X78684980Y-106740702D01*
X78503699Y-106852947D01*
X78346127Y-106996593D01*
X78217632Y-107166746D01*
X78122596Y-107357605D01*
X78122596Y-107357607D01*
X78065915Y-107556818D01*
X78064244Y-107562690D01*
X78049500Y-107721806D01*
X78049500Y-108078194D01*
X73110388Y-108078194D01*
X73146477Y-107904523D01*
X73166148Y-107809862D01*
X73185291Y-107530000D01*
X73166872Y-107260717D01*
X73166148Y-107250137D01*
X73166147Y-107250135D01*
X73164702Y-107243182D01*
X73143112Y-107139283D01*
X73109078Y-106975500D01*
X73109073Y-106975483D01*
X73065524Y-106852948D01*
X73015136Y-106711170D01*
X72886081Y-106462104D01*
X72724312Y-106232931D01*
X72724307Y-106232925D01*
X72532845Y-106027919D01*
X72482921Y-105987303D01*
X72315246Y-105850889D01*
X72315244Y-105850888D01*
X72315242Y-105850886D01*
X72075566Y-105705136D01*
X71818276Y-105593380D01*
X71548166Y-105517698D01*
X71548162Y-105517697D01*
X71548161Y-105517697D01*
X71409209Y-105498598D01*
X71270259Y-105479500D01*
X71270258Y-105479500D01*
X70989742Y-105479500D01*
X70989741Y-105479500D01*
X70711839Y-105517697D01*
X70711833Y-105517698D01*
X70441723Y-105593380D01*
X70184433Y-105705136D01*
X69944757Y-105850886D01*
X69727154Y-106027919D01*
X69535692Y-106232925D01*
X69535692Y-106232926D01*
X69535689Y-106232928D01*
X69535688Y-106232931D01*
X69491539Y-106295475D01*
X69373919Y-106462103D01*
X69244863Y-106711171D01*
X69150926Y-106975483D01*
X69150921Y-106975500D01*
X69093852Y-107250135D01*
X69093851Y-107250137D01*
X69074709Y-107530000D01*
X67655500Y-107530000D01*
X67655500Y-105300000D01*
X85394722Y-105300000D01*
X85413762Y-105456818D01*
X85465479Y-105593182D01*
X85469780Y-105604523D01*
X85559517Y-105734530D01*
X85677760Y-105839283D01*
X85677762Y-105839284D01*
X85817634Y-105912696D01*
X85971014Y-105950500D01*
X85971015Y-105950500D01*
X86128985Y-105950500D01*
X86282365Y-105912696D01*
X86305602Y-105900500D01*
X86422240Y-105839283D01*
X86523021Y-105750000D01*
X101007222Y-105750000D01*
X101026262Y-105906818D01*
X101072190Y-106027919D01*
X101082280Y-106054523D01*
X101172017Y-106184530D01*
X101290260Y-106289283D01*
X101290262Y-106289284D01*
X101430134Y-106362696D01*
X101583514Y-106400500D01*
X101583515Y-106400500D01*
X101741485Y-106400500D01*
X101894865Y-106362696D01*
X101992653Y-106311372D01*
X102034740Y-106289283D01*
X102152983Y-106184530D01*
X102242720Y-106054523D01*
X102298737Y-105906818D01*
X102317778Y-105750000D01*
X102309829Y-105684529D01*
X102298737Y-105593181D01*
X102247021Y-105456818D01*
X102242720Y-105445477D01*
X102152983Y-105315470D01*
X102034740Y-105210717D01*
X102034738Y-105210716D01*
X102034737Y-105210715D01*
X101894865Y-105137303D01*
X101741486Y-105099500D01*
X101741485Y-105099500D01*
X101583515Y-105099500D01*
X101583514Y-105099500D01*
X101430134Y-105137303D01*
X101290262Y-105210715D01*
X101172016Y-105315471D01*
X101082281Y-105445475D01*
X101082280Y-105445476D01*
X101026262Y-105593181D01*
X101007222Y-105749999D01*
X101007222Y-105750000D01*
X86523021Y-105750000D01*
X86540483Y-105734530D01*
X86630220Y-105604523D01*
X86686237Y-105456818D01*
X86705278Y-105300000D01*
X86686237Y-105143182D01*
X86684007Y-105137303D01*
X86655713Y-105062696D01*
X86630220Y-104995477D01*
X86540483Y-104865470D01*
X86422240Y-104760717D01*
X86422238Y-104760716D01*
X86422237Y-104760715D01*
X86401822Y-104750000D01*
X106444722Y-104750000D01*
X106463762Y-104906818D01*
X106501688Y-105006818D01*
X106519780Y-105054523D01*
X106609517Y-105184530D01*
X106727760Y-105289283D01*
X106727762Y-105289284D01*
X106867634Y-105362696D01*
X107021014Y-105400500D01*
X107021015Y-105400500D01*
X107178985Y-105400500D01*
X107332365Y-105362696D01*
X107332364Y-105362695D01*
X107472240Y-105289283D01*
X107590483Y-105184530D01*
X107590485Y-105184526D01*
X107590487Y-105184525D01*
X107595457Y-105178916D01*
X107597162Y-105180426D01*
X107642703Y-105143510D01*
X107712150Y-105135840D01*
X107774720Y-105166934D01*
X107792537Y-105187493D01*
X107859517Y-105284530D01*
X107977760Y-105389283D01*
X107977762Y-105389284D01*
X108117634Y-105462696D01*
X108271014Y-105500500D01*
X108271015Y-105500500D01*
X108428985Y-105500500D01*
X108582365Y-105462696D01*
X108593564Y-105456818D01*
X108722240Y-105389283D01*
X108840483Y-105284530D01*
X108930220Y-105154523D01*
X108986237Y-105006818D01*
X109005278Y-104850000D01*
X109001086Y-104815471D01*
X108986237Y-104693181D01*
X108956637Y-104615134D01*
X108930220Y-104545477D01*
X108840483Y-104415470D01*
X108722240Y-104310717D01*
X108722238Y-104310716D01*
X108722237Y-104310715D01*
X108582365Y-104237303D01*
X108428986Y-104199500D01*
X108428985Y-104199500D01*
X108271015Y-104199500D01*
X108271014Y-104199500D01*
X108117634Y-104237303D01*
X107977762Y-104310715D01*
X107859512Y-104415474D01*
X107854543Y-104421084D01*
X107852842Y-104419577D01*
X107807255Y-104456506D01*
X107737805Y-104464151D01*
X107675247Y-104433035D01*
X107657462Y-104412506D01*
X107645595Y-104395315D01*
X107590483Y-104315470D01*
X107472240Y-104210717D01*
X107472238Y-104210716D01*
X107472237Y-104210715D01*
X107332365Y-104137303D01*
X107178986Y-104099500D01*
X107178985Y-104099500D01*
X107021015Y-104099500D01*
X107021014Y-104099500D01*
X106867634Y-104137303D01*
X106727762Y-104210715D01*
X106609516Y-104315471D01*
X106519781Y-104445475D01*
X106519780Y-104445476D01*
X106463762Y-104593181D01*
X106444722Y-104749999D01*
X106444722Y-104750000D01*
X86401822Y-104750000D01*
X86282365Y-104687303D01*
X86128986Y-104649500D01*
X86128985Y-104649500D01*
X85971015Y-104649500D01*
X85971014Y-104649500D01*
X85817634Y-104687303D01*
X85677762Y-104760715D01*
X85559516Y-104865471D01*
X85469781Y-104995475D01*
X85469780Y-104995476D01*
X85413762Y-105143181D01*
X85394722Y-105299999D01*
X85394722Y-105300000D01*
X67655500Y-105300000D01*
X67655500Y-102800000D01*
X72094722Y-102800000D01*
X72113762Y-102956818D01*
X72165479Y-103093182D01*
X72169780Y-103104523D01*
X72259517Y-103234530D01*
X72377760Y-103339283D01*
X72517635Y-103412696D01*
X72601856Y-103433453D01*
X72662236Y-103468608D01*
X72674232Y-103483411D01*
X72709514Y-103534527D01*
X72709516Y-103534529D01*
X72709517Y-103534530D01*
X72827760Y-103639283D01*
X72827762Y-103639284D01*
X72967634Y-103712696D01*
X73121014Y-103750500D01*
X73121015Y-103750500D01*
X73278985Y-103750500D01*
X73432365Y-103712696D01*
X73486034Y-103684528D01*
X73572240Y-103639283D01*
X73690483Y-103534530D01*
X73780220Y-103404523D01*
X73836237Y-103256818D01*
X73855278Y-103100000D01*
X73850881Y-103063783D01*
X73838279Y-102960000D01*
X76734722Y-102960000D01*
X76753762Y-103116818D01*
X76805988Y-103254524D01*
X76809780Y-103264523D01*
X76899517Y-103394530D01*
X77017760Y-103499283D01*
X77017762Y-103499284D01*
X77157634Y-103572696D01*
X77311014Y-103610500D01*
X77311015Y-103610500D01*
X77468985Y-103610500D01*
X77622365Y-103572696D01*
X77695087Y-103534528D01*
X77762240Y-103499283D01*
X77880483Y-103394530D01*
X77970220Y-103264523D01*
X77975728Y-103250000D01*
X84494722Y-103250000D01*
X84513762Y-103406818D01*
X84562197Y-103534528D01*
X84569780Y-103554523D01*
X84659517Y-103684530D01*
X84777760Y-103789283D01*
X84789860Y-103795633D01*
X84917634Y-103862696D01*
X85071014Y-103900500D01*
X85071015Y-103900500D01*
X85228985Y-103900500D01*
X85382365Y-103862696D01*
X85492374Y-103804957D01*
X85560882Y-103791232D01*
X85607624Y-103804957D01*
X85717635Y-103862696D01*
X85794325Y-103881597D01*
X85871014Y-103900500D01*
X85871015Y-103900500D01*
X86028985Y-103900500D01*
X86182365Y-103862696D01*
X86182364Y-103862696D01*
X86322240Y-103789283D01*
X86440483Y-103684530D01*
X86530220Y-103554523D01*
X86586237Y-103406818D01*
X86605278Y-103250000D01*
X86596172Y-103175000D01*
X86586237Y-103093181D01*
X86563993Y-103034528D01*
X86530220Y-102945477D01*
X86530217Y-102945472D01*
X86530193Y-102945437D01*
X86530183Y-102945407D01*
X86526733Y-102938833D01*
X86527825Y-102938259D01*
X86508311Y-102879083D01*
X86525777Y-102811431D01*
X86530192Y-102804562D01*
X86530220Y-102804523D01*
X86586237Y-102656818D01*
X86593136Y-102600000D01*
X101744722Y-102600000D01*
X101763762Y-102756818D01*
X101791147Y-102829024D01*
X101819780Y-102904523D01*
X101909517Y-103034530D01*
X102027760Y-103139283D01*
X102027762Y-103139284D01*
X102167634Y-103212696D01*
X102321014Y-103250500D01*
X102321015Y-103250500D01*
X102478985Y-103250500D01*
X102632365Y-103212696D01*
X102632364Y-103212695D01*
X102772240Y-103139283D01*
X102890483Y-103034530D01*
X102980220Y-102904523D01*
X103036237Y-102756818D01*
X103055278Y-102600000D01*
X103046229Y-102525470D01*
X103046111Y-102524500D01*
X106825222Y-102524500D01*
X106844262Y-102681318D01*
X106890988Y-102804523D01*
X106900280Y-102829023D01*
X106990017Y-102959030D01*
X107108260Y-103063783D01*
X107108262Y-103063784D01*
X107248134Y-103137196D01*
X107401514Y-103175000D01*
X107401515Y-103175000D01*
X107559485Y-103175000D01*
X107712865Y-103137196D01*
X107712864Y-103137195D01*
X107852740Y-103063783D01*
X107970983Y-102959030D01*
X107977216Y-102950000D01*
X108344722Y-102950000D01*
X108363762Y-103106818D01*
X108403917Y-103212696D01*
X108419780Y-103254523D01*
X108509517Y-103384530D01*
X108627760Y-103489283D01*
X108627762Y-103489284D01*
X108767634Y-103562696D01*
X108921014Y-103600500D01*
X108921015Y-103600500D01*
X109078985Y-103600500D01*
X109232365Y-103562696D01*
X109286034Y-103534528D01*
X109372240Y-103489283D01*
X109490483Y-103384530D01*
X109580220Y-103254523D01*
X109636237Y-103106818D01*
X109655278Y-102950000D01*
X109653853Y-102938259D01*
X109636237Y-102793181D01*
X109614992Y-102737164D01*
X109580220Y-102645477D01*
X109507589Y-102540253D01*
X109485707Y-102473899D01*
X109503172Y-102406248D01*
X109554440Y-102358778D01*
X109623234Y-102346561D01*
X109667266Y-102360018D01*
X109767634Y-102412696D01*
X109921014Y-102450500D01*
X109921015Y-102450500D01*
X110078985Y-102450500D01*
X110232365Y-102412696D01*
X110250004Y-102403438D01*
X110372240Y-102339283D01*
X110490483Y-102234530D01*
X110580220Y-102104523D01*
X110636237Y-101956818D01*
X110655278Y-101800000D01*
X110652603Y-101777965D01*
X110636237Y-101643181D01*
X110582926Y-101502613D01*
X110580220Y-101495477D01*
X110490483Y-101365470D01*
X110372240Y-101260717D01*
X110372235Y-101260714D01*
X110366928Y-101257051D01*
X110322937Y-101202769D01*
X110315277Y-101133320D01*
X110346379Y-101070755D01*
X110366928Y-101052949D01*
X110372229Y-101049288D01*
X110372240Y-101049283D01*
X110490483Y-100944530D01*
X110509145Y-100917492D01*
X110563427Y-100873503D01*
X110632876Y-100865843D01*
X110695441Y-100896946D01*
X110713244Y-100917492D01*
X110759517Y-100984530D01*
X110877760Y-101089283D01*
X110877762Y-101089284D01*
X111017634Y-101162696D01*
X111171014Y-101200500D01*
X111171015Y-101200500D01*
X111328985Y-101200500D01*
X111482365Y-101162696D01*
X111505602Y-101150500D01*
X111622240Y-101089283D01*
X111740483Y-100984530D01*
X111830220Y-100854523D01*
X111886237Y-100706818D01*
X111905278Y-100550000D01*
X111900633Y-100511740D01*
X111899207Y-100500000D01*
X113944722Y-100500000D01*
X113963762Y-100656818D01*
X114015479Y-100793182D01*
X114019780Y-100804523D01*
X114109517Y-100934530D01*
X114227760Y-101039283D01*
X114227762Y-101039284D01*
X114367634Y-101112696D01*
X114521014Y-101150500D01*
X114521015Y-101150500D01*
X114678985Y-101150500D01*
X114832365Y-101112696D01*
X114876974Y-101089283D01*
X114972240Y-101039283D01*
X115090483Y-100934530D01*
X115092305Y-100931889D01*
X115094139Y-100930403D01*
X115095457Y-100928916D01*
X115095704Y-100929135D01*
X115146583Y-100887896D01*
X115216031Y-100880232D01*
X115278598Y-100911330D01*
X115296408Y-100931882D01*
X115384517Y-101059530D01*
X115502760Y-101164283D01*
X115502762Y-101164284D01*
X115642634Y-101237696D01*
X115796014Y-101275500D01*
X115796015Y-101275500D01*
X115953985Y-101275500D01*
X116107365Y-101237696D01*
X116107364Y-101237696D01*
X116247240Y-101164283D01*
X116365483Y-101059530D01*
X116455220Y-100929523D01*
X116511237Y-100781818D01*
X116530278Y-100625000D01*
X116529310Y-100617023D01*
X116511237Y-100468181D01*
X116463971Y-100343552D01*
X116455220Y-100320477D01*
X116449714Y-100312500D01*
X121754721Y-100312500D01*
X121773762Y-100469318D01*
X121806077Y-100554523D01*
X121829780Y-100617023D01*
X121919517Y-100747030D01*
X122037760Y-100851783D01*
X122049860Y-100858133D01*
X122177634Y-100925196D01*
X122331014Y-100963000D01*
X122331015Y-100963000D01*
X122488985Y-100963000D01*
X122642365Y-100925196D01*
X122668784Y-100911330D01*
X122782240Y-100851783D01*
X122900483Y-100747030D01*
X122990220Y-100617023D01*
X123046237Y-100469318D01*
X123050689Y-100432646D01*
X123078309Y-100368469D01*
X123136243Y-100329412D01*
X123206095Y-100327876D01*
X123265690Y-100364348D01*
X123296105Y-100427251D01*
X123296881Y-100432644D01*
X123303763Y-100489319D01*
X123328492Y-100554523D01*
X123359780Y-100637023D01*
X123449517Y-100767030D01*
X123567760Y-100871783D01*
X123567762Y-100871784D01*
X123707634Y-100945196D01*
X123861014Y-100983000D01*
X123861015Y-100983000D01*
X124018985Y-100983000D01*
X124172365Y-100945196D01*
X124202966Y-100929135D01*
X124312240Y-100871783D01*
X124430483Y-100767030D01*
X124520220Y-100637023D01*
X124576237Y-100489318D01*
X124595278Y-100332500D01*
X124592850Y-100312499D01*
X124576237Y-100175681D01*
X124544949Y-100093182D01*
X124520220Y-100027977D01*
X124430483Y-99897970D01*
X124312240Y-99793217D01*
X124312238Y-99793216D01*
X124312237Y-99793215D01*
X124172365Y-99719803D01*
X124018986Y-99682000D01*
X124018985Y-99682000D01*
X123861015Y-99682000D01*
X123861014Y-99682000D01*
X123707634Y-99719803D01*
X123567762Y-99793215D01*
X123567759Y-99793217D01*
X123567760Y-99793217D01*
X123472092Y-99877971D01*
X123449516Y-99897971D01*
X123359781Y-100027975D01*
X123359780Y-100027976D01*
X123303763Y-100175680D01*
X123299310Y-100212354D01*
X123271688Y-100276532D01*
X123213753Y-100315588D01*
X123143901Y-100317123D01*
X123084307Y-100280648D01*
X123053893Y-100217745D01*
X123053118Y-100212353D01*
X123051557Y-100199500D01*
X123046237Y-100155682D01*
X122990220Y-100007977D01*
X122900483Y-99877970D01*
X122782240Y-99773217D01*
X122782238Y-99773216D01*
X122782237Y-99773215D01*
X122642365Y-99699803D01*
X122488986Y-99662000D01*
X122488985Y-99662000D01*
X122331015Y-99662000D01*
X122331014Y-99662000D01*
X122177634Y-99699803D01*
X122037762Y-99773215D01*
X121919516Y-99877971D01*
X121829781Y-100007975D01*
X121829780Y-100007976D01*
X121773762Y-100155681D01*
X121754721Y-100312499D01*
X121754721Y-100312500D01*
X116449714Y-100312500D01*
X116365483Y-100190470D01*
X116247240Y-100085717D01*
X116247238Y-100085716D01*
X116247237Y-100085715D01*
X116107365Y-100012303D01*
X115953986Y-99974500D01*
X115953985Y-99974500D01*
X115796015Y-99974500D01*
X115796014Y-99974500D01*
X115642634Y-100012303D01*
X115502762Y-100085715D01*
X115384513Y-100190473D01*
X115382686Y-100193121D01*
X115380849Y-100194608D01*
X115379543Y-100196084D01*
X115379297Y-100195866D01*
X115328401Y-100237109D01*
X115258952Y-100244765D01*
X115196389Y-100213658D01*
X115178590Y-100193116D01*
X115176764Y-100190471D01*
X115090483Y-100065470D01*
X114972240Y-99960717D01*
X114972238Y-99960716D01*
X114972237Y-99960715D01*
X114832365Y-99887303D01*
X114678986Y-99849500D01*
X114678985Y-99849500D01*
X114521015Y-99849500D01*
X114521014Y-99849500D01*
X114367634Y-99887303D01*
X114227762Y-99960715D01*
X114109516Y-100065471D01*
X114019781Y-100195475D01*
X114019780Y-100195476D01*
X113963762Y-100343181D01*
X113944722Y-100499999D01*
X113944722Y-100500000D01*
X111899207Y-100500000D01*
X111886237Y-100393181D01*
X111857392Y-100317123D01*
X111830220Y-100245477D01*
X111740483Y-100115470D01*
X111622240Y-100010717D01*
X111622238Y-100010716D01*
X111622237Y-100010715D01*
X111482365Y-99937303D01*
X111328986Y-99899500D01*
X111328985Y-99899500D01*
X111171015Y-99899500D01*
X111171014Y-99899500D01*
X111017634Y-99937303D01*
X110877762Y-100010715D01*
X110759515Y-100115471D01*
X110740852Y-100142509D01*
X110686568Y-100186498D01*
X110617119Y-100194155D01*
X110554555Y-100163050D01*
X110536754Y-100142506D01*
X110534529Y-100139283D01*
X110490483Y-100075470D01*
X110372240Y-99970717D01*
X110372238Y-99970716D01*
X110372237Y-99970715D01*
X110232365Y-99897303D01*
X110078986Y-99859500D01*
X110078985Y-99859500D01*
X109921015Y-99859500D01*
X109921014Y-99859500D01*
X109767634Y-99897303D01*
X109627762Y-99970715D01*
X109509516Y-100075471D01*
X109419781Y-100205475D01*
X109419780Y-100205476D01*
X109363762Y-100353181D01*
X109344722Y-100509999D01*
X109344722Y-100510000D01*
X109363762Y-100666818D01*
X109415988Y-100804524D01*
X109419780Y-100814523D01*
X109509517Y-100944530D01*
X109627760Y-101049283D01*
X109627761Y-101049283D01*
X109627763Y-101049285D01*
X109633075Y-101052952D01*
X109677064Y-101107236D01*
X109684721Y-101176685D01*
X109653616Y-101239249D01*
X109633075Y-101257048D01*
X109627763Y-101260714D01*
X109509516Y-101365471D01*
X109419781Y-101495475D01*
X109419780Y-101495476D01*
X109363762Y-101643181D01*
X109344722Y-101799999D01*
X109344722Y-101800000D01*
X109363762Y-101956818D01*
X109414261Y-102089970D01*
X109419780Y-102104523D01*
X109450825Y-102149500D01*
X109492409Y-102209745D01*
X109514292Y-102276100D01*
X109496826Y-102343751D01*
X109445559Y-102391221D01*
X109376765Y-102403438D01*
X109332733Y-102389981D01*
X109232365Y-102337303D01*
X109078986Y-102299500D01*
X109078985Y-102299500D01*
X108921015Y-102299500D01*
X108921014Y-102299500D01*
X108767634Y-102337303D01*
X108627762Y-102410715D01*
X108509516Y-102515471D01*
X108419781Y-102645475D01*
X108419780Y-102645476D01*
X108363762Y-102793181D01*
X108344722Y-102949999D01*
X108344722Y-102950000D01*
X107977216Y-102950000D01*
X108060720Y-102829023D01*
X108116737Y-102681318D01*
X108135778Y-102524500D01*
X108116737Y-102367682D01*
X108115898Y-102365471D01*
X108089353Y-102295476D01*
X108060720Y-102219977D01*
X107970983Y-102089970D01*
X107852740Y-101985217D01*
X107852738Y-101985216D01*
X107852737Y-101985215D01*
X107712865Y-101911803D01*
X107559486Y-101874000D01*
X107559485Y-101874000D01*
X107401515Y-101874000D01*
X107401514Y-101874000D01*
X107248134Y-101911803D01*
X107108262Y-101985215D01*
X106990016Y-102089971D01*
X106900281Y-102219975D01*
X106900280Y-102219976D01*
X106844262Y-102367681D01*
X106825222Y-102524499D01*
X106825222Y-102524500D01*
X103046111Y-102524500D01*
X103036237Y-102443181D01*
X102999875Y-102347303D01*
X102980220Y-102295477D01*
X102890483Y-102165470D01*
X102772240Y-102060717D01*
X102772238Y-102060716D01*
X102772237Y-102060715D01*
X102632365Y-101987303D01*
X102478986Y-101949500D01*
X102478985Y-101949500D01*
X102321015Y-101949500D01*
X102321014Y-101949500D01*
X102167634Y-101987303D01*
X102027762Y-102060715D01*
X101909516Y-102165471D01*
X101819781Y-102295475D01*
X101819780Y-102295476D01*
X101763762Y-102443181D01*
X101744722Y-102599999D01*
X101744722Y-102600000D01*
X86593136Y-102600000D01*
X86605278Y-102500000D01*
X86603737Y-102487304D01*
X86586237Y-102343181D01*
X86554961Y-102260715D01*
X86530220Y-102195477D01*
X86530217Y-102195472D01*
X86530193Y-102195437D01*
X86530183Y-102195407D01*
X86526733Y-102188833D01*
X86527825Y-102188259D01*
X86508311Y-102129083D01*
X86525777Y-102061431D01*
X86530191Y-102054565D01*
X86530220Y-102054523D01*
X86586237Y-101906818D01*
X86605278Y-101750000D01*
X86586237Y-101593182D01*
X86580923Y-101579171D01*
X86530220Y-101445478D01*
X86530220Y-101445477D01*
X86512937Y-101420438D01*
X86491055Y-101354086D01*
X86508520Y-101286435D01*
X86512925Y-101279577D01*
X86530220Y-101254523D01*
X86586237Y-101106818D01*
X86605278Y-100950000D01*
X86603400Y-100934529D01*
X86593136Y-100850000D01*
X98844722Y-100850000D01*
X98863762Y-101006818D01*
X98911739Y-101133320D01*
X98919780Y-101154523D01*
X99009517Y-101284530D01*
X99127760Y-101389283D01*
X99127762Y-101389284D01*
X99267634Y-101462696D01*
X99421014Y-101500500D01*
X99421015Y-101500500D01*
X99578985Y-101500500D01*
X99732365Y-101462696D01*
X99732364Y-101462696D01*
X99872240Y-101389283D01*
X99990483Y-101284530D01*
X100080220Y-101154523D01*
X100136237Y-101006818D01*
X100155278Y-100850000D01*
X100150971Y-100814524D01*
X100136237Y-100693181D01*
X100091416Y-100574999D01*
X100080220Y-100545477D01*
X99990483Y-100415470D01*
X99872240Y-100310717D01*
X99872238Y-100310716D01*
X99872237Y-100310715D01*
X99732365Y-100237303D01*
X99578986Y-100199500D01*
X99578985Y-100199500D01*
X99421015Y-100199500D01*
X99421014Y-100199500D01*
X99267634Y-100237303D01*
X99127762Y-100310715D01*
X99009516Y-100415471D01*
X98919781Y-100545475D01*
X98919780Y-100545476D01*
X98863762Y-100693181D01*
X98844722Y-100849999D01*
X98844722Y-100850000D01*
X86593136Y-100850000D01*
X86586237Y-100793181D01*
X86557135Y-100716447D01*
X86530220Y-100645477D01*
X86530217Y-100645472D01*
X86530193Y-100645437D01*
X86530183Y-100645407D01*
X86526733Y-100638833D01*
X86527825Y-100638259D01*
X86508311Y-100579083D01*
X86525777Y-100511431D01*
X86530191Y-100504565D01*
X86530220Y-100504523D01*
X86586237Y-100356818D01*
X86605278Y-100200000D01*
X86600792Y-100163050D01*
X86586237Y-100043181D01*
X86549182Y-99945476D01*
X86530220Y-99895477D01*
X86440483Y-99765470D01*
X86322240Y-99660717D01*
X86322238Y-99660716D01*
X86322237Y-99660715D01*
X86206557Y-99600000D01*
X103994722Y-99600000D01*
X104013762Y-99756818D01*
X104066349Y-99895476D01*
X104069780Y-99904523D01*
X104159517Y-100034530D01*
X104277760Y-100139283D01*
X104277762Y-100139284D01*
X104417634Y-100212696D01*
X104571014Y-100250500D01*
X104571015Y-100250500D01*
X104728985Y-100250500D01*
X104731014Y-100250000D01*
X106894722Y-100250000D01*
X106913762Y-100406818D01*
X106966349Y-100545476D01*
X106969780Y-100554523D01*
X107059517Y-100684530D01*
X107177760Y-100789283D01*
X107177762Y-100789284D01*
X107317634Y-100862696D01*
X107471014Y-100900500D01*
X107471015Y-100900500D01*
X107628985Y-100900500D01*
X107782365Y-100862696D01*
X107859833Y-100822037D01*
X107922240Y-100789283D01*
X108040483Y-100684530D01*
X108130220Y-100554523D01*
X108186237Y-100406818D01*
X108205278Y-100250000D01*
X108203737Y-100237304D01*
X108186237Y-100093181D01*
X108153923Y-100007977D01*
X108130220Y-99945477D01*
X108040483Y-99815470D01*
X107922240Y-99710717D01*
X107922238Y-99710716D01*
X107922237Y-99710715D01*
X107782365Y-99637303D01*
X107628986Y-99599500D01*
X107628985Y-99599500D01*
X107471015Y-99599500D01*
X107471014Y-99599500D01*
X107317634Y-99637303D01*
X107177762Y-99710715D01*
X107059516Y-99815471D01*
X106969781Y-99945475D01*
X106969780Y-99945476D01*
X106913762Y-100093181D01*
X106894722Y-100249999D01*
X106894722Y-100250000D01*
X104731014Y-100250000D01*
X104882365Y-100212696D01*
X104906557Y-100199999D01*
X105022240Y-100139283D01*
X105140483Y-100034530D01*
X105230220Y-99904523D01*
X105286237Y-99756818D01*
X105305278Y-99600000D01*
X105303737Y-99587304D01*
X105286237Y-99443181D01*
X105234521Y-99306818D01*
X105230220Y-99295477D01*
X105140483Y-99165470D01*
X105022240Y-99060717D01*
X105022238Y-99060716D01*
X105022237Y-99060715D01*
X104882365Y-98987303D01*
X104728986Y-98949500D01*
X104728985Y-98949500D01*
X104571015Y-98949500D01*
X104571014Y-98949500D01*
X104417634Y-98987303D01*
X104277762Y-99060715D01*
X104159516Y-99165471D01*
X104069781Y-99295475D01*
X104069780Y-99295476D01*
X104013762Y-99443181D01*
X103994722Y-99599999D01*
X103994722Y-99600000D01*
X86206557Y-99600000D01*
X86182365Y-99587303D01*
X86028986Y-99549500D01*
X86028985Y-99549500D01*
X85871015Y-99549500D01*
X85871014Y-99549500D01*
X85717637Y-99587303D01*
X85607625Y-99645042D01*
X85539116Y-99658767D01*
X85492373Y-99645041D01*
X85382365Y-99587303D01*
X85228986Y-99549500D01*
X85228985Y-99549500D01*
X85071015Y-99549500D01*
X85071014Y-99549500D01*
X84917634Y-99587303D01*
X84777762Y-99660715D01*
X84659516Y-99765471D01*
X84569781Y-99895475D01*
X84569780Y-99895476D01*
X84513762Y-100043181D01*
X84494722Y-100199999D01*
X84494722Y-100200000D01*
X84513762Y-100356818D01*
X84569780Y-100504523D01*
X84569783Y-100504530D01*
X84569808Y-100504565D01*
X84569817Y-100504594D01*
X84573267Y-100511167D01*
X84572174Y-100511740D01*
X84591688Y-100570921D01*
X84574219Y-100638571D01*
X84569814Y-100645427D01*
X84569781Y-100645473D01*
X84569781Y-100645475D01*
X84513762Y-100793181D01*
X84494722Y-100949999D01*
X84494722Y-100950000D01*
X84513762Y-101106818D01*
X84550152Y-101202769D01*
X84569780Y-101254523D01*
X84584259Y-101275500D01*
X84587061Y-101279559D01*
X84608944Y-101345914D01*
X84591479Y-101413565D01*
X84587064Y-101420434D01*
X84569780Y-101445475D01*
X84513762Y-101593181D01*
X84494722Y-101749999D01*
X84494722Y-101750000D01*
X84513762Y-101906818D01*
X84569780Y-102054523D01*
X84569783Y-102054530D01*
X84569808Y-102054565D01*
X84569817Y-102054594D01*
X84573267Y-102061167D01*
X84572174Y-102061740D01*
X84591688Y-102120921D01*
X84574219Y-102188571D01*
X84569808Y-102195435D01*
X84569783Y-102195469D01*
X84569780Y-102195476D01*
X84513762Y-102343181D01*
X84494722Y-102499999D01*
X84494722Y-102500000D01*
X84513762Y-102656818D01*
X84569780Y-102804523D01*
X84569783Y-102804530D01*
X84569808Y-102804565D01*
X84569817Y-102804594D01*
X84573267Y-102811167D01*
X84572174Y-102811740D01*
X84591688Y-102870921D01*
X84574219Y-102938571D01*
X84569808Y-102945435D01*
X84569783Y-102945469D01*
X84569780Y-102945476D01*
X84513762Y-103093181D01*
X84494722Y-103249999D01*
X84494722Y-103250000D01*
X77975728Y-103250000D01*
X78026237Y-103116818D01*
X78045278Y-102960000D01*
X78043515Y-102945476D01*
X78026237Y-102803181D01*
X77974010Y-102665471D01*
X77970220Y-102655477D01*
X77880483Y-102525470D01*
X77762240Y-102420717D01*
X77762238Y-102420716D01*
X77762237Y-102420715D01*
X77622365Y-102347303D01*
X77468986Y-102309500D01*
X77468985Y-102309500D01*
X77311015Y-102309500D01*
X77311014Y-102309500D01*
X77157634Y-102347303D01*
X77017762Y-102420715D01*
X76899516Y-102525471D01*
X76809781Y-102655475D01*
X76809780Y-102655476D01*
X76753762Y-102803181D01*
X76734722Y-102959999D01*
X76734722Y-102960000D01*
X73838279Y-102960000D01*
X73836237Y-102943181D01*
X73814992Y-102887163D01*
X73780220Y-102795477D01*
X73690483Y-102665470D01*
X73572240Y-102560717D01*
X73572238Y-102560716D01*
X73572237Y-102560715D01*
X73432366Y-102487304D01*
X73348141Y-102466545D01*
X73287761Y-102431389D01*
X73275771Y-102416595D01*
X73240483Y-102365470D01*
X73122240Y-102260717D01*
X73122238Y-102260716D01*
X73122237Y-102260715D01*
X72982365Y-102187303D01*
X72828986Y-102149500D01*
X72828985Y-102149500D01*
X72671015Y-102149500D01*
X72671014Y-102149500D01*
X72517634Y-102187303D01*
X72377762Y-102260715D01*
X72259516Y-102365471D01*
X72169781Y-102495475D01*
X72169780Y-102495476D01*
X72113762Y-102643181D01*
X72094722Y-102799999D01*
X72094722Y-102800000D01*
X67655500Y-102800000D01*
X67655500Y-101258833D01*
X70415624Y-101258833D01*
X70425944Y-101422860D01*
X70476732Y-101579171D01*
X70476734Y-101579175D01*
X70564798Y-101717940D01*
X70684603Y-101830445D01*
X70684611Y-101830451D01*
X70764860Y-101874568D01*
X70828632Y-101909627D01*
X70987823Y-101950500D01*
X70987827Y-101950500D01*
X71110923Y-101950500D01*
X71110925Y-101950500D01*
X71110930Y-101950499D01*
X71110934Y-101950499D01*
X71124174Y-101948826D01*
X71233058Y-101935071D01*
X71385871Y-101874568D01*
X71386653Y-101874000D01*
X71518835Y-101777965D01*
X71518835Y-101777963D01*
X71518837Y-101777963D01*
X71623600Y-101651326D01*
X71693579Y-101502613D01*
X71724376Y-101341170D01*
X71714056Y-101177140D01*
X71663268Y-101020829D01*
X71575202Y-100882060D01*
X71557933Y-100865843D01*
X71455396Y-100769554D01*
X71455388Y-100769548D01*
X71311371Y-100690374D01*
X71311361Y-100690371D01*
X71152180Y-100649500D01*
X71152177Y-100649500D01*
X71029075Y-100649500D01*
X71029065Y-100649500D01*
X70906942Y-100664929D01*
X70906939Y-100664929D01*
X70754130Y-100725431D01*
X70754121Y-100725436D01*
X70621164Y-100822034D01*
X70621162Y-100822037D01*
X70516400Y-100948673D01*
X70446420Y-101097387D01*
X70431294Y-101176685D01*
X70415624Y-101258830D01*
X70415624Y-101258832D01*
X70415624Y-101258833D01*
X67655500Y-101258833D01*
X67655500Y-99150000D01*
X70582222Y-99150000D01*
X70601262Y-99306818D01*
X70652979Y-99443182D01*
X70657280Y-99454523D01*
X70747017Y-99584530D01*
X70865260Y-99689283D01*
X70865262Y-99689284D01*
X71005134Y-99762696D01*
X71158514Y-99800500D01*
X71158515Y-99800500D01*
X71316485Y-99800500D01*
X71469865Y-99762696D01*
X71481064Y-99756818D01*
X71609740Y-99689283D01*
X71727983Y-99584530D01*
X71817720Y-99454523D01*
X71873737Y-99306818D01*
X71892778Y-99150000D01*
X71882178Y-99062696D01*
X71873737Y-98993181D01*
X71852492Y-98937164D01*
X71817720Y-98845477D01*
X71727983Y-98715470D01*
X71609740Y-98610717D01*
X71609738Y-98610716D01*
X71609737Y-98610715D01*
X71469865Y-98537303D01*
X71316486Y-98499500D01*
X71316485Y-98499500D01*
X71158515Y-98499500D01*
X71158514Y-98499500D01*
X71005134Y-98537303D01*
X70865262Y-98610715D01*
X70747016Y-98715471D01*
X70657281Y-98845475D01*
X70657280Y-98845476D01*
X70601262Y-98993181D01*
X70582222Y-99149999D01*
X70582222Y-99150000D01*
X67655500Y-99150000D01*
X67655500Y-98450000D01*
X100944722Y-98450000D01*
X100963762Y-98606818D01*
X101019780Y-98754522D01*
X101019780Y-98754523D01*
X101109517Y-98884530D01*
X101227760Y-98989283D01*
X101227762Y-98989284D01*
X101367634Y-99062696D01*
X101521014Y-99100500D01*
X101521015Y-99100500D01*
X101678985Y-99100500D01*
X101832365Y-99062696D01*
X101836139Y-99060715D01*
X101972240Y-98989283D01*
X102090483Y-98884530D01*
X102180220Y-98754523D01*
X102236237Y-98606818D01*
X102255278Y-98450000D01*
X102236237Y-98293182D01*
X102180220Y-98145477D01*
X102090483Y-98015470D01*
X101972240Y-97910717D01*
X101972238Y-97910716D01*
X101972237Y-97910715D01*
X101832365Y-97837303D01*
X101678986Y-97799500D01*
X101678985Y-97799500D01*
X101521015Y-97799500D01*
X101521014Y-97799500D01*
X101367634Y-97837303D01*
X101227762Y-97910715D01*
X101109516Y-98015471D01*
X101019781Y-98145475D01*
X101019780Y-98145476D01*
X100963762Y-98293181D01*
X100944722Y-98449999D01*
X100944722Y-98450000D01*
X67655500Y-98450000D01*
X67655500Y-97550000D01*
X78444722Y-97550000D01*
X78463762Y-97706818D01*
X78512197Y-97834528D01*
X78519780Y-97854523D01*
X78609517Y-97984530D01*
X78727760Y-98089283D01*
X78727762Y-98089284D01*
X78867634Y-98162696D01*
X79021014Y-98200500D01*
X79021015Y-98200500D01*
X79178985Y-98200500D01*
X79332365Y-98162696D01*
X79332364Y-98162695D01*
X79472240Y-98089283D01*
X79590483Y-97984530D01*
X79680220Y-97854523D01*
X79736237Y-97706818D01*
X79755278Y-97550000D01*
X79737065Y-97400000D01*
X115894721Y-97400000D01*
X115913762Y-97556818D01*
X115969780Y-97704523D01*
X116059517Y-97834530D01*
X116177760Y-97939283D01*
X116177762Y-97939284D01*
X116317634Y-98012696D01*
X116471014Y-98050500D01*
X116471015Y-98050500D01*
X116628985Y-98050500D01*
X116782365Y-98012696D01*
X116836034Y-97984528D01*
X116922240Y-97939283D01*
X117040483Y-97834530D01*
X117130220Y-97704523D01*
X117186237Y-97556818D01*
X117205278Y-97400000D01*
X117186237Y-97243182D01*
X117151079Y-97150479D01*
X117145713Y-97080821D01*
X117178860Y-97019315D01*
X117237348Y-96986115D01*
X117332365Y-96962696D01*
X117358988Y-96948723D01*
X117472240Y-96889283D01*
X117590483Y-96784530D01*
X117680220Y-96654523D01*
X117736237Y-96506818D01*
X117755278Y-96350000D01*
X117754025Y-96339676D01*
X117736237Y-96193181D01*
X117719860Y-96150000D01*
X125394721Y-96150000D01*
X125413762Y-96306818D01*
X125466349Y-96445476D01*
X125469780Y-96454523D01*
X125559517Y-96584530D01*
X125677760Y-96689283D01*
X125677762Y-96689284D01*
X125817634Y-96762696D01*
X125971014Y-96800500D01*
X125971015Y-96800500D01*
X126128985Y-96800500D01*
X126282365Y-96762696D01*
X126306557Y-96749999D01*
X126422240Y-96689283D01*
X126540483Y-96584530D01*
X126630220Y-96454523D01*
X126686237Y-96306818D01*
X126705278Y-96150000D01*
X126703737Y-96137304D01*
X126686237Y-95993181D01*
X126656765Y-95915470D01*
X126630220Y-95845477D01*
X126630218Y-95845474D01*
X126630034Y-95845123D01*
X126629976Y-95844835D01*
X126627560Y-95838464D01*
X126628619Y-95838062D01*
X126616311Y-95776614D01*
X126628026Y-95736713D01*
X126627560Y-95736536D01*
X126629857Y-95730477D01*
X126630034Y-95729877D01*
X126630215Y-95729528D01*
X126630220Y-95729523D01*
X126686237Y-95581818D01*
X126705278Y-95425000D01*
X126686237Y-95268182D01*
X126633780Y-95129865D01*
X126628414Y-95060205D01*
X126647675Y-95015455D01*
X126655216Y-95004529D01*
X126655218Y-95004526D01*
X126655218Y-95004525D01*
X126655220Y-95004523D01*
X126711237Y-94856818D01*
X126730278Y-94700000D01*
X126711237Y-94543182D01*
X126655220Y-94395477D01*
X126655218Y-94395474D01*
X126655034Y-94395123D01*
X126654976Y-94394835D01*
X126652560Y-94388464D01*
X126653619Y-94388062D01*
X126641311Y-94326614D01*
X126653026Y-94286713D01*
X126652560Y-94286536D01*
X126654857Y-94280477D01*
X126655034Y-94279877D01*
X126655217Y-94279527D01*
X126655220Y-94279523D01*
X126711237Y-94131818D01*
X126730278Y-93975000D01*
X126722341Y-93909628D01*
X126711237Y-93818181D01*
X126690194Y-93762696D01*
X126655220Y-93670477D01*
X126655217Y-93670472D01*
X126655031Y-93670116D01*
X126654973Y-93669826D01*
X126652560Y-93663464D01*
X126653618Y-93663062D01*
X126641311Y-93601606D01*
X126653028Y-93561714D01*
X126652560Y-93561537D01*
X126654868Y-93555449D01*
X126655041Y-93554863D01*
X126655217Y-93554527D01*
X126655220Y-93554523D01*
X126711237Y-93406818D01*
X126730278Y-93250000D01*
X126723880Y-93197303D01*
X126711237Y-93093181D01*
X126683795Y-93020824D01*
X126655220Y-92945477D01*
X126565483Y-92815470D01*
X126447240Y-92710717D01*
X126447238Y-92710716D01*
X126447237Y-92710715D01*
X126307365Y-92637303D01*
X126153986Y-92599500D01*
X126153985Y-92599500D01*
X125996015Y-92599500D01*
X125996014Y-92599500D01*
X125842634Y-92637303D01*
X125702762Y-92710715D01*
X125584516Y-92815471D01*
X125494781Y-92945475D01*
X125494780Y-92945476D01*
X125438762Y-93093181D01*
X125419721Y-93249999D01*
X125419721Y-93250000D01*
X125438762Y-93406818D01*
X125473913Y-93499500D01*
X125494778Y-93554519D01*
X125494782Y-93554527D01*
X125494968Y-93554882D01*
X125495025Y-93555170D01*
X125497440Y-93561536D01*
X125496380Y-93561937D01*
X125508688Y-93623391D01*
X125496975Y-93663287D01*
X125497440Y-93663464D01*
X125495156Y-93669486D01*
X125494975Y-93670103D01*
X125494784Y-93670466D01*
X125438762Y-93818181D01*
X125419721Y-93974999D01*
X125419721Y-93975000D01*
X125438762Y-94131818D01*
X125494782Y-94279527D01*
X125494968Y-94279882D01*
X125495025Y-94280170D01*
X125497440Y-94286536D01*
X125496380Y-94286937D01*
X125508688Y-94348391D01*
X125496975Y-94388287D01*
X125497440Y-94388464D01*
X125495156Y-94394486D01*
X125494975Y-94395103D01*
X125494784Y-94395466D01*
X125438762Y-94543181D01*
X125419721Y-94699999D01*
X125419721Y-94700000D01*
X125438763Y-94856818D01*
X125491218Y-94995132D01*
X125496585Y-95064795D01*
X125477331Y-95109536D01*
X125469780Y-95120476D01*
X125413762Y-95268181D01*
X125394721Y-95424999D01*
X125394721Y-95425000D01*
X125413762Y-95581818D01*
X125469783Y-95729532D01*
X125469971Y-95729889D01*
X125470029Y-95730178D01*
X125472440Y-95736536D01*
X125471382Y-95736937D01*
X125483687Y-95798399D01*
X125471974Y-95838287D01*
X125472440Y-95838464D01*
X125470148Y-95844504D01*
X125469971Y-95845111D01*
X125469783Y-95845467D01*
X125413762Y-95993181D01*
X125394721Y-96149999D01*
X125394721Y-96150000D01*
X117719860Y-96150000D01*
X117714992Y-96137164D01*
X117680220Y-96045477D01*
X117590483Y-95915470D01*
X117472240Y-95810717D01*
X117472238Y-95810716D01*
X117472237Y-95810715D01*
X117332365Y-95737303D01*
X117178986Y-95699500D01*
X117178985Y-95699500D01*
X117021015Y-95699500D01*
X117021014Y-95699500D01*
X116867634Y-95737303D01*
X116727762Y-95810715D01*
X116609516Y-95915471D01*
X116519781Y-96045475D01*
X116519780Y-96045476D01*
X116463762Y-96193181D01*
X116444721Y-96349999D01*
X116444721Y-96350000D01*
X116463762Y-96506817D01*
X116474272Y-96534528D01*
X116498919Y-96599517D01*
X116504286Y-96669179D01*
X116471139Y-96730685D01*
X116412652Y-96763884D01*
X116317633Y-96787304D01*
X116177762Y-96860715D01*
X116059516Y-96965471D01*
X115969781Y-97095475D01*
X115969780Y-97095476D01*
X115913762Y-97243181D01*
X115894721Y-97399999D01*
X115894721Y-97400000D01*
X79737065Y-97400000D01*
X79736237Y-97393182D01*
X79680220Y-97245477D01*
X79590483Y-97115470D01*
X79472240Y-97010717D01*
X79472238Y-97010716D01*
X79472237Y-97010715D01*
X79332365Y-96937303D01*
X79178986Y-96899500D01*
X79178985Y-96899500D01*
X79021015Y-96899500D01*
X79021014Y-96899500D01*
X78867634Y-96937303D01*
X78727762Y-97010715D01*
X78609516Y-97115471D01*
X78519781Y-97245475D01*
X78519780Y-97245476D01*
X78463762Y-97393181D01*
X78444722Y-97549999D01*
X78444722Y-97550000D01*
X67655500Y-97550000D01*
X67655500Y-96644200D01*
X70571222Y-96644200D01*
X70590262Y-96801018D01*
X70636275Y-96922342D01*
X70646280Y-96948723D01*
X70736017Y-97078730D01*
X70854260Y-97183483D01*
X70854262Y-97183484D01*
X70994134Y-97256896D01*
X71147514Y-97294700D01*
X71147515Y-97294700D01*
X71305485Y-97294700D01*
X71458865Y-97256896D01*
X71480624Y-97245476D01*
X71598740Y-97183483D01*
X71716983Y-97078730D01*
X71806720Y-96948723D01*
X71862737Y-96801018D01*
X71868932Y-96750000D01*
X74394722Y-96750000D01*
X74413762Y-96906818D01*
X74456427Y-97019315D01*
X74469780Y-97054523D01*
X74559517Y-97184530D01*
X74677760Y-97289283D01*
X74677762Y-97289284D01*
X74817634Y-97362696D01*
X74971014Y-97400500D01*
X74971015Y-97400500D01*
X75128985Y-97400500D01*
X75282365Y-97362696D01*
X75311318Y-97347500D01*
X75422240Y-97289283D01*
X75540483Y-97184530D01*
X75630220Y-97054523D01*
X75686237Y-96906818D01*
X75705278Y-96750000D01*
X75698370Y-96693102D01*
X75686237Y-96593181D01*
X75663993Y-96534528D01*
X75630220Y-96445477D01*
X75540483Y-96315470D01*
X75422240Y-96210717D01*
X75422238Y-96210716D01*
X75422237Y-96210715D01*
X75282365Y-96137303D01*
X75131015Y-96100000D01*
X82544722Y-96100000D01*
X82563762Y-96256818D01*
X82619780Y-96404523D01*
X82709517Y-96534530D01*
X82827760Y-96639283D01*
X82827762Y-96639284D01*
X82967634Y-96712696D01*
X83121014Y-96750500D01*
X83121015Y-96750500D01*
X83278985Y-96750500D01*
X83432365Y-96712696D01*
X83462273Y-96696999D01*
X83469698Y-96693102D01*
X88699500Y-96693102D01*
X88701853Y-96712696D01*
X88710122Y-96781561D01*
X88710122Y-96781563D01*
X88710123Y-96781564D01*
X88717795Y-96801018D01*
X88765639Y-96922343D01*
X88857077Y-97042922D01*
X88977656Y-97134360D01*
X88977657Y-97134360D01*
X88977658Y-97134361D01*
X89118436Y-97189877D01*
X89206898Y-97200500D01*
X89206903Y-97200500D01*
X90493097Y-97200500D01*
X90493102Y-97200500D01*
X90581564Y-97189877D01*
X90722342Y-97134361D01*
X90842922Y-97042922D01*
X90934361Y-96922342D01*
X90989877Y-96781564D01*
X91000500Y-96693102D01*
X91000500Y-96100000D01*
X100394722Y-96100000D01*
X100413762Y-96256818D01*
X100469780Y-96404523D01*
X100559517Y-96534530D01*
X100677760Y-96639283D01*
X100677762Y-96639284D01*
X100817634Y-96712696D01*
X100971014Y-96750500D01*
X100971015Y-96750500D01*
X101128985Y-96750500D01*
X101282365Y-96712696D01*
X101312271Y-96697000D01*
X105118222Y-96697000D01*
X105137262Y-96853818D01*
X105192892Y-97000500D01*
X105193280Y-97001523D01*
X105283017Y-97131530D01*
X105401260Y-97236283D01*
X105401262Y-97236284D01*
X105541134Y-97309696D01*
X105694514Y-97347500D01*
X105694515Y-97347500D01*
X105852485Y-97347500D01*
X106005865Y-97309696D01*
X106044758Y-97289283D01*
X106145740Y-97236283D01*
X106263983Y-97131530D01*
X106353720Y-97001523D01*
X106409737Y-96853818D01*
X106428778Y-96697000D01*
X106423621Y-96654523D01*
X106409737Y-96540181D01*
X106373819Y-96445475D01*
X106353720Y-96392477D01*
X106263983Y-96262470D01*
X106145740Y-96157717D01*
X106145738Y-96157716D01*
X106145737Y-96157715D01*
X106005865Y-96084303D01*
X105852486Y-96046500D01*
X105852485Y-96046500D01*
X105694515Y-96046500D01*
X105694514Y-96046500D01*
X105541134Y-96084303D01*
X105401262Y-96157715D01*
X105283016Y-96262471D01*
X105193281Y-96392475D01*
X105193280Y-96392476D01*
X105137262Y-96540181D01*
X105118222Y-96696999D01*
X105118222Y-96697000D01*
X101312271Y-96697000D01*
X101312273Y-96696999D01*
X101422240Y-96639283D01*
X101540483Y-96534530D01*
X101630220Y-96404523D01*
X101686237Y-96256818D01*
X101705278Y-96100000D01*
X101686237Y-95943182D01*
X101630220Y-95795477D01*
X101540483Y-95665470D01*
X101422240Y-95560717D01*
X101422238Y-95560716D01*
X101422237Y-95560715D01*
X101282365Y-95487303D01*
X101128986Y-95449500D01*
X101128985Y-95449500D01*
X100971015Y-95449500D01*
X100971014Y-95449500D01*
X100817634Y-95487303D01*
X100677762Y-95560715D01*
X100559516Y-95665471D01*
X100469781Y-95795475D01*
X100469780Y-95795476D01*
X100413762Y-95943181D01*
X100394722Y-96099999D01*
X100394722Y-96100000D01*
X91000500Y-96100000D01*
X91000500Y-95106898D01*
X90989877Y-95018436D01*
X90940017Y-94892000D01*
X103072722Y-94892000D01*
X103091762Y-95048818D01*
X103147780Y-95196522D01*
X103147780Y-95196523D01*
X103237517Y-95326530D01*
X103355760Y-95431283D01*
X103355762Y-95431284D01*
X103495634Y-95504696D01*
X103649014Y-95542500D01*
X103649015Y-95542500D01*
X103806985Y-95542500D01*
X103960365Y-95504696D01*
X103993504Y-95487303D01*
X104100240Y-95431283D01*
X104218483Y-95326530D01*
X104308220Y-95196523D01*
X104364237Y-95048818D01*
X104383278Y-94892000D01*
X104364237Y-94735182D01*
X104308220Y-94587477D01*
X104218483Y-94457470D01*
X104100240Y-94352717D01*
X104100238Y-94352716D01*
X104100237Y-94352715D01*
X103960365Y-94279303D01*
X103806986Y-94241500D01*
X103806985Y-94241500D01*
X103649015Y-94241500D01*
X103649014Y-94241500D01*
X103495634Y-94279303D01*
X103355762Y-94352715D01*
X103307493Y-94395477D01*
X103240843Y-94454524D01*
X103237516Y-94457471D01*
X103147781Y-94587475D01*
X103147780Y-94587476D01*
X103091762Y-94735181D01*
X103072722Y-94891999D01*
X103072722Y-94892000D01*
X90940017Y-94892000D01*
X90934361Y-94877658D01*
X90934360Y-94877657D01*
X90934360Y-94877656D01*
X90842922Y-94757077D01*
X90722343Y-94665639D01*
X90581561Y-94610122D01*
X90535926Y-94604642D01*
X90493102Y-94599500D01*
X89206898Y-94599500D01*
X89167853Y-94604188D01*
X89118438Y-94610122D01*
X88977656Y-94665639D01*
X88857077Y-94757077D01*
X88765639Y-94877656D01*
X88710122Y-95018438D01*
X88705107Y-95060205D01*
X88699500Y-95106898D01*
X88699500Y-96693102D01*
X83469698Y-96693102D01*
X83572240Y-96639283D01*
X83690483Y-96534530D01*
X83780220Y-96404523D01*
X83836237Y-96256818D01*
X83855278Y-96100000D01*
X83836237Y-95943182D01*
X83780220Y-95795477D01*
X83690483Y-95665470D01*
X83572240Y-95560717D01*
X83572238Y-95560716D01*
X83572237Y-95560715D01*
X83432365Y-95487303D01*
X83278986Y-95449500D01*
X83278985Y-95449500D01*
X83121015Y-95449500D01*
X83121014Y-95449500D01*
X82967634Y-95487303D01*
X82827762Y-95560715D01*
X82709516Y-95665471D01*
X82619781Y-95795475D01*
X82619780Y-95795476D01*
X82563762Y-95943181D01*
X82544722Y-96099999D01*
X82544722Y-96100000D01*
X75131015Y-96100000D01*
X75128986Y-96099500D01*
X75128985Y-96099500D01*
X74971015Y-96099500D01*
X74971014Y-96099500D01*
X74817634Y-96137303D01*
X74677762Y-96210715D01*
X74559516Y-96315471D01*
X74469781Y-96445475D01*
X74469780Y-96445476D01*
X74413762Y-96593181D01*
X74394722Y-96749999D01*
X74394722Y-96750000D01*
X71868932Y-96750000D01*
X71881778Y-96644200D01*
X71862737Y-96487382D01*
X71806720Y-96339677D01*
X71716983Y-96209670D01*
X71598740Y-96104917D01*
X71598738Y-96104916D01*
X71598737Y-96104915D01*
X71458865Y-96031503D01*
X71305486Y-95993700D01*
X71305485Y-95993700D01*
X71147515Y-95993700D01*
X71147514Y-95993700D01*
X70994134Y-96031503D01*
X70854262Y-96104915D01*
X70854259Y-96104917D01*
X70854260Y-96104917D01*
X70754630Y-96193181D01*
X70736016Y-96209671D01*
X70646281Y-96339675D01*
X70646280Y-96339676D01*
X70590262Y-96487381D01*
X70571222Y-96644199D01*
X70571222Y-96644200D01*
X67655500Y-96644200D01*
X67655500Y-93258833D01*
X70415624Y-93258833D01*
X70425944Y-93422860D01*
X70476732Y-93579171D01*
X70476734Y-93579175D01*
X70564798Y-93717940D01*
X70684603Y-93830445D01*
X70684611Y-93830451D01*
X70802893Y-93895477D01*
X70828632Y-93909627D01*
X70987823Y-93950500D01*
X70987827Y-93950500D01*
X71110923Y-93950500D01*
X71110925Y-93950500D01*
X71110930Y-93950499D01*
X71110934Y-93950499D01*
X71124174Y-93948826D01*
X71233058Y-93935071D01*
X71385871Y-93874568D01*
X71425913Y-93845476D01*
X71513694Y-93781700D01*
X75193722Y-93781700D01*
X75212762Y-93938518D01*
X75268780Y-94086223D01*
X75358517Y-94216230D01*
X75476760Y-94320983D01*
X75476762Y-94320984D01*
X75616634Y-94394396D01*
X75770014Y-94432200D01*
X75770015Y-94432200D01*
X75927985Y-94432200D01*
X76081365Y-94394396D01*
X76092667Y-94388464D01*
X76221240Y-94320983D01*
X76339483Y-94216230D01*
X76429220Y-94086223D01*
X76485237Y-93938518D01*
X76500842Y-93810000D01*
X76754722Y-93810000D01*
X76773762Y-93966818D01*
X76829780Y-94114522D01*
X76829780Y-94114523D01*
X76919517Y-94244530D01*
X77037760Y-94349283D01*
X77037762Y-94349284D01*
X77177634Y-94422696D01*
X77331014Y-94460500D01*
X77331015Y-94460500D01*
X77488985Y-94460500D01*
X77642365Y-94422696D01*
X77642364Y-94422695D01*
X77782240Y-94349283D01*
X77900483Y-94244530D01*
X77931220Y-94200000D01*
X97544722Y-94200000D01*
X97563762Y-94356818D01*
X97603084Y-94460500D01*
X97619780Y-94504523D01*
X97709517Y-94634530D01*
X97827760Y-94739283D01*
X97827762Y-94739284D01*
X97967634Y-94812696D01*
X98121014Y-94850500D01*
X98121015Y-94850500D01*
X98278985Y-94850500D01*
X98432365Y-94812696D01*
X98455602Y-94800500D01*
X98572240Y-94739283D01*
X98690483Y-94634530D01*
X98780220Y-94504523D01*
X98836237Y-94356818D01*
X98855278Y-94200000D01*
X98849207Y-94150000D01*
X112144722Y-94150000D01*
X112163762Y-94306818D01*
X112211314Y-94432200D01*
X112219780Y-94454523D01*
X112309517Y-94584530D01*
X112427760Y-94689283D01*
X112427762Y-94689284D01*
X112567634Y-94762696D01*
X112721014Y-94800500D01*
X112721015Y-94800500D01*
X112878985Y-94800500D01*
X113032365Y-94762696D01*
X113076974Y-94739283D01*
X113172240Y-94689283D01*
X113290483Y-94584530D01*
X113380220Y-94454523D01*
X113436237Y-94306818D01*
X113455278Y-94150000D01*
X113450971Y-94114524D01*
X113436237Y-93993181D01*
X113399182Y-93895476D01*
X113380220Y-93845477D01*
X113290483Y-93715470D01*
X113172240Y-93610717D01*
X113172238Y-93610716D01*
X113172237Y-93610715D01*
X113032365Y-93537303D01*
X112878986Y-93499500D01*
X112878985Y-93499500D01*
X112721015Y-93499500D01*
X112721014Y-93499500D01*
X112567634Y-93537303D01*
X112427762Y-93610715D01*
X112309516Y-93715471D01*
X112219781Y-93845475D01*
X112219780Y-93845476D01*
X112163762Y-93993181D01*
X112144722Y-94149999D01*
X112144722Y-94150000D01*
X98849207Y-94150000D01*
X98844900Y-94114524D01*
X98836237Y-94043181D01*
X98795236Y-93935071D01*
X98780220Y-93895477D01*
X98728423Y-93820436D01*
X98706542Y-93754086D01*
X98724007Y-93686435D01*
X98728403Y-93679592D01*
X98780220Y-93604523D01*
X98836237Y-93456818D01*
X98855278Y-93300000D01*
X98851723Y-93270717D01*
X98836237Y-93143181D01*
X98814992Y-93087164D01*
X98780220Y-92995477D01*
X98693912Y-92870438D01*
X98672030Y-92804086D01*
X98689495Y-92736434D01*
X98693905Y-92729571D01*
X98780220Y-92604523D01*
X98836237Y-92456818D01*
X98855278Y-92300000D01*
X98844678Y-92212696D01*
X98836237Y-92143181D01*
X98806408Y-92064529D01*
X98780220Y-91995477D01*
X98690483Y-91865470D01*
X98572240Y-91760717D01*
X98572238Y-91760716D01*
X98572237Y-91760715D01*
X98432365Y-91687303D01*
X98278986Y-91649500D01*
X98278985Y-91649500D01*
X98121015Y-91649500D01*
X98121014Y-91649500D01*
X97967634Y-91687303D01*
X97827762Y-91760715D01*
X97709516Y-91865471D01*
X97619781Y-91995475D01*
X97619780Y-91995476D01*
X97563762Y-92143181D01*
X97544722Y-92299999D01*
X97544722Y-92300000D01*
X97563762Y-92456818D01*
X97617875Y-92599500D01*
X97619780Y-92604523D01*
X97630958Y-92620717D01*
X97706086Y-92729560D01*
X97727969Y-92795915D01*
X97710503Y-92863566D01*
X97706086Y-92870440D01*
X97619781Y-92995475D01*
X97619780Y-92995476D01*
X97563762Y-93143181D01*
X97544722Y-93299999D01*
X97544722Y-93300000D01*
X97563762Y-93456818D01*
X97603629Y-93561937D01*
X97619780Y-93604523D01*
X97632804Y-93623391D01*
X97671574Y-93679560D01*
X97693457Y-93745915D01*
X97675991Y-93813566D01*
X97671574Y-93820440D01*
X97619781Y-93895475D01*
X97619780Y-93895476D01*
X97563762Y-94043181D01*
X97544722Y-94199999D01*
X97544722Y-94200000D01*
X77931220Y-94200000D01*
X77990220Y-94114523D01*
X78046237Y-93966818D01*
X78065278Y-93810000D01*
X78050621Y-93689283D01*
X78046237Y-93653181D01*
X78011548Y-93561714D01*
X77990220Y-93505477D01*
X77900483Y-93375470D01*
X77782240Y-93270717D01*
X77782238Y-93270716D01*
X77782237Y-93270715D01*
X77642365Y-93197303D01*
X77491015Y-93160000D01*
X92584722Y-93160000D01*
X92603762Y-93316818D01*
X92655988Y-93454524D01*
X92659780Y-93464523D01*
X92749517Y-93594530D01*
X92867760Y-93699283D01*
X92867762Y-93699284D01*
X93007634Y-93772696D01*
X93161014Y-93810500D01*
X93161015Y-93810500D01*
X93318985Y-93810500D01*
X93472365Y-93772696D01*
X93545083Y-93734530D01*
X93612240Y-93699283D01*
X93730483Y-93594530D01*
X93820220Y-93464523D01*
X93876237Y-93316818D01*
X93895278Y-93160000D01*
X93894064Y-93150000D01*
X95494722Y-93150000D01*
X95513762Y-93306818D01*
X95551688Y-93406818D01*
X95569780Y-93454523D01*
X95659517Y-93584530D01*
X95777760Y-93689283D01*
X95777762Y-93689284D01*
X95917634Y-93762696D01*
X96071014Y-93800500D01*
X96071015Y-93800500D01*
X96228985Y-93800500D01*
X96382365Y-93762696D01*
X96467639Y-93717940D01*
X96522240Y-93689283D01*
X96640483Y-93584530D01*
X96730220Y-93454523D01*
X96786237Y-93306818D01*
X96805278Y-93150000D01*
X96786516Y-92995475D01*
X96786237Y-92993181D01*
X96744094Y-92882060D01*
X96730220Y-92845477D01*
X96640483Y-92715470D01*
X96522240Y-92610717D01*
X96522238Y-92610716D01*
X96522237Y-92610715D01*
X96382365Y-92537303D01*
X96228986Y-92499500D01*
X96228985Y-92499500D01*
X96071015Y-92499500D01*
X96071014Y-92499500D01*
X95917634Y-92537303D01*
X95777762Y-92610715D01*
X95659516Y-92715471D01*
X95569781Y-92845475D01*
X95569780Y-92845476D01*
X95513762Y-92993181D01*
X95494722Y-93149999D01*
X95494722Y-93150000D01*
X93894064Y-93150000D01*
X93887676Y-93097387D01*
X93876237Y-93003181D01*
X93854352Y-92945475D01*
X93820220Y-92855477D01*
X93730483Y-92725470D01*
X93612240Y-92620717D01*
X93612238Y-92620716D01*
X93612237Y-92620715D01*
X93472365Y-92547303D01*
X93318986Y-92509500D01*
X93318985Y-92509500D01*
X93161015Y-92509500D01*
X93161014Y-92509500D01*
X93007634Y-92547303D01*
X92867762Y-92620715D01*
X92867759Y-92620717D01*
X92867760Y-92620717D01*
X92749556Y-92725436D01*
X92749516Y-92725471D01*
X92659781Y-92855475D01*
X92659780Y-92855476D01*
X92603762Y-93003181D01*
X92584722Y-93159999D01*
X92584722Y-93160000D01*
X77491015Y-93160000D01*
X77488986Y-93159500D01*
X77488985Y-93159500D01*
X77331015Y-93159500D01*
X77331014Y-93159500D01*
X77177634Y-93197303D01*
X77037762Y-93270715D01*
X76919516Y-93375471D01*
X76829781Y-93505475D01*
X76829780Y-93505476D01*
X76773762Y-93653181D01*
X76754722Y-93809999D01*
X76754722Y-93810000D01*
X76500842Y-93810000D01*
X76504278Y-93781700D01*
X76503825Y-93777965D01*
X76485237Y-93624881D01*
X76458799Y-93555170D01*
X76429220Y-93477177D01*
X76339483Y-93347170D01*
X76221240Y-93242417D01*
X76221238Y-93242416D01*
X76221237Y-93242415D01*
X76081365Y-93169003D01*
X75927986Y-93131200D01*
X75927985Y-93131200D01*
X75770015Y-93131200D01*
X75770014Y-93131200D01*
X75616634Y-93169003D01*
X75476762Y-93242415D01*
X75358516Y-93347171D01*
X75268781Y-93477175D01*
X75268780Y-93477176D01*
X75212762Y-93624881D01*
X75193722Y-93781699D01*
X75193722Y-93781700D01*
X71513694Y-93781700D01*
X71518835Y-93777965D01*
X71518835Y-93777963D01*
X71518837Y-93777963D01*
X71623600Y-93651326D01*
X71693579Y-93502613D01*
X71724376Y-93341170D01*
X71714056Y-93177140D01*
X71663268Y-93020829D01*
X71575202Y-92882060D01*
X71562828Y-92870440D01*
X71455396Y-92769554D01*
X71455388Y-92769548D01*
X71311371Y-92690374D01*
X71311361Y-92690371D01*
X71152180Y-92649500D01*
X71152177Y-92649500D01*
X71029075Y-92649500D01*
X71029065Y-92649500D01*
X70906942Y-92664929D01*
X70906939Y-92664929D01*
X70754130Y-92725431D01*
X70754121Y-92725436D01*
X70621164Y-92822034D01*
X70621162Y-92822037D01*
X70516400Y-92948673D01*
X70446420Y-93097387D01*
X70434572Y-93159500D01*
X70415624Y-93258830D01*
X70415624Y-93258832D01*
X70415624Y-93258833D01*
X67655500Y-93258833D01*
X67655500Y-91630000D01*
X109344722Y-91630000D01*
X109363762Y-91786818D01*
X109408403Y-91904524D01*
X109419780Y-91934523D01*
X109509517Y-92064530D01*
X109627760Y-92169283D01*
X109627762Y-92169284D01*
X109767634Y-92242696D01*
X109921014Y-92280500D01*
X109921015Y-92280500D01*
X110078985Y-92280500D01*
X110232365Y-92242696D01*
X110289524Y-92212696D01*
X110372240Y-92169283D01*
X110490483Y-92064530D01*
X110516048Y-92027492D01*
X110570329Y-91983503D01*
X110639777Y-91975843D01*
X110702342Y-92006945D01*
X110720147Y-92027493D01*
X110739184Y-92055073D01*
X110759517Y-92084530D01*
X110877760Y-92189283D01*
X110877762Y-92189284D01*
X111017634Y-92262696D01*
X111171014Y-92300500D01*
X111171015Y-92300500D01*
X111328985Y-92300500D01*
X111482365Y-92262696D01*
X111520471Y-92242696D01*
X111622240Y-92189283D01*
X111740483Y-92084530D01*
X111830220Y-91954523D01*
X111886237Y-91806818D01*
X111905278Y-91650000D01*
X111902850Y-91629999D01*
X111886237Y-91493181D01*
X111863993Y-91434528D01*
X111830220Y-91345477D01*
X111740483Y-91215470D01*
X111622240Y-91110717D01*
X111622238Y-91110716D01*
X111622237Y-91110715D01*
X111506557Y-91050000D01*
X112244722Y-91050000D01*
X112263762Y-91206818D01*
X112316349Y-91345476D01*
X112319780Y-91354523D01*
X112409517Y-91484530D01*
X112527760Y-91589283D01*
X112527762Y-91589284D01*
X112667634Y-91662696D01*
X112821014Y-91700500D01*
X112821015Y-91700500D01*
X112978985Y-91700500D01*
X113132365Y-91662696D01*
X113156557Y-91649999D01*
X113251821Y-91600000D01*
X116194721Y-91600000D01*
X116213762Y-91756818D01*
X116269780Y-91904522D01*
X116269780Y-91904523D01*
X116359517Y-92034530D01*
X116477760Y-92139283D01*
X116477762Y-92139284D01*
X116617634Y-92212696D01*
X116771014Y-92250500D01*
X116771015Y-92250500D01*
X116928985Y-92250500D01*
X117082365Y-92212696D01*
X117126974Y-92189283D01*
X117222240Y-92139283D01*
X117340483Y-92034530D01*
X117430220Y-91904523D01*
X117486237Y-91756818D01*
X117505278Y-91600000D01*
X117486237Y-91443182D01*
X117430220Y-91295477D01*
X117340483Y-91165470D01*
X117222240Y-91060717D01*
X117222238Y-91060716D01*
X117222237Y-91060715D01*
X117106557Y-91000000D01*
X120144721Y-91000000D01*
X120163762Y-91156818D01*
X120216349Y-91295476D01*
X120219780Y-91304523D01*
X120309517Y-91434530D01*
X120427760Y-91539283D01*
X120427762Y-91539284D01*
X120567634Y-91612696D01*
X120721014Y-91650500D01*
X120721015Y-91650500D01*
X120878985Y-91650500D01*
X121032365Y-91612696D01*
X121076974Y-91589283D01*
X121132767Y-91560000D01*
X123884721Y-91560000D01*
X123903762Y-91716818D01*
X123959780Y-91864523D01*
X124049517Y-91994530D01*
X124167760Y-92099283D01*
X124167762Y-92099284D01*
X124307634Y-92172696D01*
X124461014Y-92210500D01*
X124461015Y-92210500D01*
X124618985Y-92210500D01*
X124772365Y-92172696D01*
X124778868Y-92169283D01*
X124912240Y-92099283D01*
X125030483Y-91994530D01*
X125120220Y-91864523D01*
X125176237Y-91716818D01*
X125195278Y-91560000D01*
X125184737Y-91473182D01*
X125176237Y-91403181D01*
X125138821Y-91304524D01*
X125120220Y-91255477D01*
X125030483Y-91125470D01*
X124912240Y-91020717D01*
X124912238Y-91020716D01*
X124912237Y-91020715D01*
X124772365Y-90947303D01*
X124618986Y-90909500D01*
X124618985Y-90909500D01*
X124461015Y-90909500D01*
X124461014Y-90909500D01*
X124307634Y-90947303D01*
X124167762Y-91020715D01*
X124049516Y-91125471D01*
X123959781Y-91255475D01*
X123959780Y-91255476D01*
X123903762Y-91403181D01*
X123884721Y-91559999D01*
X123884721Y-91560000D01*
X121132767Y-91560000D01*
X121172240Y-91539283D01*
X121290483Y-91434530D01*
X121380220Y-91304523D01*
X121436237Y-91156818D01*
X121455278Y-91000000D01*
X121453737Y-90987304D01*
X121436237Y-90843181D01*
X121399182Y-90745476D01*
X121380220Y-90695477D01*
X121290483Y-90565470D01*
X121172240Y-90460717D01*
X121172238Y-90460716D01*
X121172237Y-90460715D01*
X121032365Y-90387303D01*
X120878986Y-90349500D01*
X120878985Y-90349500D01*
X120721015Y-90349500D01*
X120721014Y-90349500D01*
X120567634Y-90387303D01*
X120427762Y-90460715D01*
X120309516Y-90565471D01*
X120219781Y-90695475D01*
X120219780Y-90695476D01*
X120163762Y-90843181D01*
X120144721Y-90999999D01*
X120144721Y-91000000D01*
X117106557Y-91000000D01*
X117082365Y-90987303D01*
X116928986Y-90949500D01*
X116928985Y-90949500D01*
X116771015Y-90949500D01*
X116771014Y-90949500D01*
X116617634Y-90987303D01*
X116477762Y-91060715D01*
X116359516Y-91165471D01*
X116269781Y-91295475D01*
X116269780Y-91295476D01*
X116213762Y-91443181D01*
X116194721Y-91599999D01*
X116194721Y-91600000D01*
X113251821Y-91600000D01*
X113272240Y-91589283D01*
X113390483Y-91484530D01*
X113480220Y-91354523D01*
X113536237Y-91206818D01*
X113555278Y-91050000D01*
X113555278Y-91049999D01*
X113547926Y-90989446D01*
X113559387Y-90920522D01*
X113606291Y-90868737D01*
X113671022Y-90850500D01*
X113778985Y-90850500D01*
X113932365Y-90812696D01*
X113986034Y-90784528D01*
X114072240Y-90739283D01*
X114190483Y-90634530D01*
X114280220Y-90504523D01*
X114336237Y-90356818D01*
X114355278Y-90200000D01*
X114342587Y-90095475D01*
X114336237Y-90043181D01*
X114293163Y-89929605D01*
X114280220Y-89895477D01*
X114190483Y-89765470D01*
X114072240Y-89660717D01*
X114072238Y-89660716D01*
X114072237Y-89660715D01*
X113932365Y-89587303D01*
X113778986Y-89549500D01*
X113778985Y-89549500D01*
X113621015Y-89549500D01*
X113621014Y-89549500D01*
X113467634Y-89587303D01*
X113327762Y-89660715D01*
X113209516Y-89765471D01*
X113119781Y-89895475D01*
X113119780Y-89895476D01*
X113063762Y-90043181D01*
X113044722Y-90199999D01*
X113044722Y-90200000D01*
X113052074Y-90260554D01*
X113040613Y-90329478D01*
X112993709Y-90381263D01*
X112928978Y-90399500D01*
X112821014Y-90399500D01*
X112667634Y-90437303D01*
X112527762Y-90510715D01*
X112409516Y-90615471D01*
X112319781Y-90745475D01*
X112319780Y-90745476D01*
X112263762Y-90893181D01*
X112244722Y-91049999D01*
X112244722Y-91050000D01*
X111506557Y-91050000D01*
X111482365Y-91037303D01*
X111328986Y-90999500D01*
X111328985Y-90999500D01*
X111171015Y-90999500D01*
X111171014Y-90999500D01*
X111017634Y-91037303D01*
X110877762Y-91110715D01*
X110759516Y-91215470D01*
X110733951Y-91252508D01*
X110679667Y-91296497D01*
X110610219Y-91304155D01*
X110547654Y-91273051D01*
X110529852Y-91252506D01*
X110527365Y-91248903D01*
X110490483Y-91195470D01*
X110372240Y-91090717D01*
X110372238Y-91090716D01*
X110372237Y-91090715D01*
X110232365Y-91017303D01*
X110078986Y-90979500D01*
X110078985Y-90979500D01*
X109921015Y-90979500D01*
X109921014Y-90979500D01*
X109767634Y-91017303D01*
X109627762Y-91090715D01*
X109509516Y-91195471D01*
X109419781Y-91325475D01*
X109419780Y-91325476D01*
X109363762Y-91473181D01*
X109344722Y-91629999D01*
X109344722Y-91630000D01*
X67655500Y-91630000D01*
X67655500Y-90350000D01*
X76794722Y-90350000D01*
X76813762Y-90506818D01*
X76862197Y-90634528D01*
X76869780Y-90654523D01*
X76959517Y-90784530D01*
X77077760Y-90889283D01*
X77077762Y-90889284D01*
X77217634Y-90962696D01*
X77371014Y-91000500D01*
X77371015Y-91000500D01*
X77528985Y-91000500D01*
X77682365Y-90962696D01*
X77822237Y-90889285D01*
X77822238Y-90889283D01*
X77822240Y-90889283D01*
X77842774Y-90871091D01*
X77906006Y-90841371D01*
X77975270Y-90850555D01*
X78007225Y-90871090D01*
X78020669Y-90883001D01*
X78027762Y-90889285D01*
X78167634Y-90962696D01*
X78321014Y-91000500D01*
X78321015Y-91000500D01*
X78478985Y-91000500D01*
X78632365Y-90962696D01*
X78772233Y-90889287D01*
X78772234Y-90889285D01*
X78772240Y-90889283D01*
X78772244Y-90889279D01*
X78778408Y-90885025D01*
X78780094Y-90887467D01*
X78830901Y-90863535D01*
X78900172Y-90872659D01*
X78920923Y-90885983D01*
X78921587Y-90885022D01*
X78927756Y-90889279D01*
X78927760Y-90889283D01*
X78935187Y-90893181D01*
X79067634Y-90962696D01*
X79221014Y-91000500D01*
X79221015Y-91000500D01*
X79378985Y-91000500D01*
X79532365Y-90962696D01*
X79532365Y-90962695D01*
X79672240Y-90889283D01*
X79790483Y-90784530D01*
X79880220Y-90654523D01*
X79936237Y-90506818D01*
X79949207Y-90400000D01*
X89094722Y-90400000D01*
X89113762Y-90556818D01*
X89166349Y-90695476D01*
X89169780Y-90704523D01*
X89259517Y-90834530D01*
X89377760Y-90939283D01*
X89377762Y-90939284D01*
X89517634Y-91012696D01*
X89671014Y-91050500D01*
X89671015Y-91050500D01*
X89828985Y-91050500D01*
X89982365Y-91012696D01*
X90122238Y-90939284D01*
X90122237Y-90939284D01*
X90122240Y-90939283D01*
X90122241Y-90939281D01*
X90128412Y-90935023D01*
X90130093Y-90937458D01*
X90180955Y-90913526D01*
X90250223Y-90922681D01*
X90270924Y-90935984D01*
X90271588Y-90935023D01*
X90277761Y-90939284D01*
X90417634Y-91012696D01*
X90571014Y-91050500D01*
X90571015Y-91050500D01*
X90728985Y-91050500D01*
X90882365Y-91012696D01*
X91017374Y-90941836D01*
X91085880Y-90928111D01*
X91132625Y-90941837D01*
X91267634Y-91012696D01*
X91421014Y-91050500D01*
X91421015Y-91050500D01*
X91578985Y-91050500D01*
X91732365Y-91012696D01*
X91756557Y-90999999D01*
X91872240Y-90939283D01*
X91990483Y-90834530D01*
X92080220Y-90704523D01*
X92136237Y-90556818D01*
X92155278Y-90400000D01*
X92153737Y-90387304D01*
X92136237Y-90243181D01*
X92114992Y-90187163D01*
X92080220Y-90095477D01*
X91990483Y-89965470D01*
X91872240Y-89860717D01*
X91872238Y-89860716D01*
X91872237Y-89860715D01*
X91732365Y-89787303D01*
X91578986Y-89749500D01*
X91578985Y-89749500D01*
X91421015Y-89749500D01*
X91421014Y-89749500D01*
X91267634Y-89787303D01*
X91132626Y-89858162D01*
X91064118Y-89871888D01*
X91017374Y-89858162D01*
X90882365Y-89787303D01*
X90728986Y-89749500D01*
X90728985Y-89749500D01*
X90571015Y-89749500D01*
X90571014Y-89749500D01*
X90417634Y-89787303D01*
X90277764Y-89860714D01*
X90271587Y-89864978D01*
X90269910Y-89862548D01*
X90218992Y-89886481D01*
X90149728Y-89877296D01*
X90129072Y-89864021D01*
X90128413Y-89864978D01*
X90122242Y-89860719D01*
X90122240Y-89860717D01*
X90122237Y-89860715D01*
X90122235Y-89860714D01*
X89982365Y-89787303D01*
X89828986Y-89749500D01*
X89828985Y-89749500D01*
X89671015Y-89749500D01*
X89671014Y-89749500D01*
X89517634Y-89787303D01*
X89377762Y-89860715D01*
X89259516Y-89965471D01*
X89169781Y-90095475D01*
X89169780Y-90095476D01*
X89113762Y-90243181D01*
X89094722Y-90399999D01*
X89094722Y-90400000D01*
X79949207Y-90400000D01*
X79955278Y-90350000D01*
X79936237Y-90193182D01*
X79880220Y-90045477D01*
X79790483Y-89915470D01*
X79672240Y-89810717D01*
X79672238Y-89810716D01*
X79672237Y-89810715D01*
X79532365Y-89737303D01*
X79378986Y-89699500D01*
X79378985Y-89699500D01*
X79221015Y-89699500D01*
X79221014Y-89699500D01*
X79067634Y-89737303D01*
X78927764Y-89810714D01*
X78921587Y-89814978D01*
X78919910Y-89812548D01*
X78868992Y-89836481D01*
X78799728Y-89827296D01*
X78779072Y-89814021D01*
X78778413Y-89814978D01*
X78772242Y-89810719D01*
X78772240Y-89810717D01*
X78772237Y-89810715D01*
X78772235Y-89810714D01*
X78632365Y-89737303D01*
X78478986Y-89699500D01*
X78478985Y-89699500D01*
X78321015Y-89699500D01*
X78321014Y-89699500D01*
X78167634Y-89737303D01*
X78027767Y-89810712D01*
X78027761Y-89810716D01*
X78027760Y-89810717D01*
X78022950Y-89814978D01*
X78007225Y-89828909D01*
X77943991Y-89858629D01*
X77874728Y-89849444D01*
X77842775Y-89828909D01*
X77840489Y-89826884D01*
X77822240Y-89810717D01*
X77822235Y-89810714D01*
X77822232Y-89810712D01*
X77682365Y-89737303D01*
X77528986Y-89699500D01*
X77528985Y-89699500D01*
X77371015Y-89699500D01*
X77371014Y-89699500D01*
X77217634Y-89737303D01*
X77077762Y-89810715D01*
X77016511Y-89864978D01*
X76975001Y-89901753D01*
X76959516Y-89915471D01*
X76869781Y-90045475D01*
X76869780Y-90045476D01*
X76813762Y-90193181D01*
X76794722Y-90349999D01*
X76794722Y-90350000D01*
X67655500Y-90350000D01*
X67655500Y-88637500D01*
X76794722Y-88637500D01*
X76813762Y-88794318D01*
X76829013Y-88834530D01*
X76869780Y-88942023D01*
X76959517Y-89072030D01*
X77077760Y-89176783D01*
X77077762Y-89176784D01*
X77217634Y-89250196D01*
X77371014Y-89288000D01*
X77371015Y-89288000D01*
X77528985Y-89288000D01*
X77682365Y-89250196D01*
X77682365Y-89250195D01*
X77822240Y-89176783D01*
X77940483Y-89072030D01*
X78030220Y-88942023D01*
X78086237Y-88794318D01*
X78105278Y-88637500D01*
X78100176Y-88595476D01*
X78086237Y-88480681D01*
X78061146Y-88414523D01*
X78044261Y-88370000D01*
X83174722Y-88370000D01*
X83193762Y-88526818D01*
X83235739Y-88637500D01*
X83249780Y-88674523D01*
X83339517Y-88804530D01*
X83457760Y-88909283D01*
X83457762Y-88909284D01*
X83597634Y-88982696D01*
X83751014Y-89020500D01*
X83751015Y-89020500D01*
X83908985Y-89020500D01*
X84062365Y-88982696D01*
X84202240Y-88909283D01*
X84212718Y-88900000D01*
X109044722Y-88900000D01*
X109063762Y-89056818D01*
X109109260Y-89176784D01*
X109119780Y-89204523D01*
X109209517Y-89334530D01*
X109327760Y-89439283D01*
X109327762Y-89439284D01*
X109467634Y-89512696D01*
X109621014Y-89550500D01*
X109621015Y-89550500D01*
X109778985Y-89550500D01*
X109932365Y-89512696D01*
X109932365Y-89512695D01*
X110072240Y-89439283D01*
X110190483Y-89334530D01*
X110280220Y-89204523D01*
X110336237Y-89056818D01*
X110355278Y-88900000D01*
X110336237Y-88743182D01*
X110280220Y-88595477D01*
X110190483Y-88465470D01*
X110072240Y-88360717D01*
X110072238Y-88360716D01*
X110072237Y-88360715D01*
X109932365Y-88287303D01*
X109778986Y-88249500D01*
X109778985Y-88249500D01*
X109621015Y-88249500D01*
X109621014Y-88249500D01*
X109467634Y-88287303D01*
X109327762Y-88360715D01*
X109209516Y-88465471D01*
X109119781Y-88595475D01*
X109119780Y-88595476D01*
X109063762Y-88743181D01*
X109044722Y-88899999D01*
X109044722Y-88900000D01*
X84212718Y-88900000D01*
X84320483Y-88804530D01*
X84410220Y-88674523D01*
X84466237Y-88526818D01*
X84485278Y-88370000D01*
X84480783Y-88332975D01*
X84466237Y-88213181D01*
X84428730Y-88114284D01*
X84410220Y-88065477D01*
X84320483Y-87935470D01*
X84202240Y-87830717D01*
X84202238Y-87830716D01*
X84202237Y-87830715D01*
X84067504Y-87760000D01*
X89169722Y-87760000D01*
X89188762Y-87916818D01*
X89240988Y-88054524D01*
X89244780Y-88064523D01*
X89334517Y-88194530D01*
X89452760Y-88299283D01*
X89452762Y-88299284D01*
X89592634Y-88372696D01*
X89746014Y-88410500D01*
X89746015Y-88410500D01*
X89903985Y-88410500D01*
X90057365Y-88372696D01*
X90080189Y-88360717D01*
X90197240Y-88299283D01*
X90315483Y-88194530D01*
X90373830Y-88110000D01*
X95754722Y-88110000D01*
X95773762Y-88266818D01*
X95813917Y-88372696D01*
X95829780Y-88414523D01*
X95919517Y-88544530D01*
X96037760Y-88649283D01*
X96037762Y-88649284D01*
X96177634Y-88722696D01*
X96331014Y-88760500D01*
X96331015Y-88760500D01*
X96488985Y-88760500D01*
X96642365Y-88722696D01*
X96676990Y-88704523D01*
X96782240Y-88649283D01*
X96900483Y-88544530D01*
X96990220Y-88414523D01*
X97046237Y-88266818D01*
X97065278Y-88110000D01*
X97054934Y-88024804D01*
X97046237Y-87953181D01*
X97009691Y-87856818D01*
X96990220Y-87805477D01*
X96900483Y-87675470D01*
X96782240Y-87570717D01*
X96782238Y-87570716D01*
X96782237Y-87570715D01*
X96642365Y-87497303D01*
X96488986Y-87459500D01*
X96488985Y-87459500D01*
X96331015Y-87459500D01*
X96331014Y-87459500D01*
X96177634Y-87497303D01*
X96037762Y-87570715D01*
X95919516Y-87675471D01*
X95829781Y-87805475D01*
X95829780Y-87805476D01*
X95773762Y-87953181D01*
X95754722Y-88109999D01*
X95754722Y-88110000D01*
X90373830Y-88110000D01*
X90405220Y-88064523D01*
X90461237Y-87916818D01*
X90480278Y-87760000D01*
X90475361Y-87719500D01*
X90461237Y-87603181D01*
X90418041Y-87489283D01*
X90405220Y-87455477D01*
X90315483Y-87325470D01*
X90197240Y-87220717D01*
X90197238Y-87220716D01*
X90197237Y-87220715D01*
X90057365Y-87147303D01*
X89903986Y-87109500D01*
X89903985Y-87109500D01*
X89746015Y-87109500D01*
X89746014Y-87109500D01*
X89592634Y-87147303D01*
X89452762Y-87220715D01*
X89420130Y-87249624D01*
X89340526Y-87320147D01*
X89334516Y-87325471D01*
X89244781Y-87455475D01*
X89244780Y-87455476D01*
X89188762Y-87603181D01*
X89169722Y-87759999D01*
X89169722Y-87760000D01*
X84067504Y-87760000D01*
X84062365Y-87757303D01*
X83908986Y-87719500D01*
X83908985Y-87719500D01*
X83751015Y-87719500D01*
X83751014Y-87719500D01*
X83597634Y-87757303D01*
X83457762Y-87830715D01*
X83339516Y-87935471D01*
X83249781Y-88065475D01*
X83249780Y-88065476D01*
X83193762Y-88213181D01*
X83174722Y-88369999D01*
X83174722Y-88370000D01*
X78044261Y-88370000D01*
X78030220Y-88332977D01*
X77940483Y-88202970D01*
X77822240Y-88098217D01*
X77822238Y-88098216D01*
X77822237Y-88098215D01*
X77682365Y-88024803D01*
X77528986Y-87987000D01*
X77528985Y-87987000D01*
X77371015Y-87987000D01*
X77371014Y-87987000D01*
X77217634Y-88024803D01*
X77077762Y-88098215D01*
X76959516Y-88202971D01*
X76869781Y-88332975D01*
X76869780Y-88332976D01*
X76813762Y-88480681D01*
X76794722Y-88637499D01*
X76794722Y-88637500D01*
X67655500Y-88637500D01*
X67655500Y-84529999D01*
X69074709Y-84529999D01*
X69093851Y-84809862D01*
X69093852Y-84809864D01*
X69150921Y-85084499D01*
X69150926Y-85084516D01*
X69243672Y-85345476D01*
X69244864Y-85348830D01*
X69373919Y-85597896D01*
X69535688Y-85827069D01*
X69535692Y-85827073D01*
X69535692Y-85827074D01*
X69714488Y-86018518D01*
X69727155Y-86032081D01*
X69944754Y-86209111D01*
X69944756Y-86209112D01*
X69944757Y-86209113D01*
X70184433Y-86354863D01*
X70313023Y-86410717D01*
X70441725Y-86466620D01*
X70711839Y-86542303D01*
X70956159Y-86575884D01*
X70989741Y-86580500D01*
X70989742Y-86580500D01*
X71270259Y-86580500D01*
X71300219Y-86576381D01*
X71548161Y-86542303D01*
X71818275Y-86466620D01*
X72060949Y-86361212D01*
X72075566Y-86354863D01*
X72104441Y-86337304D01*
X72315246Y-86209111D01*
X72532845Y-86032081D01*
X72655841Y-85900382D01*
X72715984Y-85864825D01*
X72785805Y-85867426D01*
X72843136Y-85907363D01*
X72869774Y-85971955D01*
X72869993Y-85995816D01*
X72869628Y-85999992D01*
X72869628Y-86000000D01*
X72889079Y-86222329D01*
X72889081Y-86222339D01*
X72946841Y-86437905D01*
X72946843Y-86437909D01*
X72946844Y-86437913D01*
X73041165Y-86640186D01*
X73169178Y-86823007D01*
X73326993Y-86980822D01*
X73509814Y-87108835D01*
X73712087Y-87203156D01*
X73712093Y-87203157D01*
X73712094Y-87203158D01*
X73740305Y-87210717D01*
X73927666Y-87260920D01*
X74105533Y-87276481D01*
X74149999Y-87280372D01*
X74150000Y-87280372D01*
X74150001Y-87280372D01*
X74187055Y-87277129D01*
X74372334Y-87260920D01*
X74587913Y-87203156D01*
X74790186Y-87108835D01*
X74973007Y-86980822D01*
X75130822Y-86823007D01*
X75248426Y-86655050D01*
X75303002Y-86611427D01*
X75372501Y-86604235D01*
X75434855Y-86635757D01*
X75451571Y-86655047D01*
X75569178Y-86823007D01*
X75726993Y-86980822D01*
X75909814Y-87108835D01*
X76112087Y-87203156D01*
X76112093Y-87203157D01*
X76112094Y-87203158D01*
X76140305Y-87210717D01*
X76327666Y-87260920D01*
X76505533Y-87276481D01*
X76549999Y-87280372D01*
X76550000Y-87280372D01*
X76550001Y-87280372D01*
X76587055Y-87277129D01*
X76772334Y-87260920D01*
X76987913Y-87203156D01*
X77190186Y-87108835D01*
X77373007Y-86980822D01*
X77530822Y-86823007D01*
X77658835Y-86640186D01*
X77753156Y-86437913D01*
X77810920Y-86222334D01*
X77830372Y-86000000D01*
X79869628Y-86000000D01*
X79889079Y-86222329D01*
X79889081Y-86222339D01*
X79946841Y-86437905D01*
X79946843Y-86437909D01*
X79946844Y-86437913D01*
X80041165Y-86640186D01*
X80169178Y-86823007D01*
X80326993Y-86980822D01*
X80509814Y-87108835D01*
X80712087Y-87203156D01*
X80712093Y-87203157D01*
X80712094Y-87203158D01*
X80740305Y-87210717D01*
X80927666Y-87260920D01*
X81105533Y-87276481D01*
X81149999Y-87280372D01*
X81150000Y-87280372D01*
X81150001Y-87280372D01*
X81187055Y-87277129D01*
X81372334Y-87260920D01*
X81587913Y-87203156D01*
X81790186Y-87108835D01*
X81973007Y-86980822D01*
X82130822Y-86823007D01*
X82248426Y-86655050D01*
X82303002Y-86611427D01*
X82372501Y-86604235D01*
X82434855Y-86635757D01*
X82451571Y-86655047D01*
X82569178Y-86823007D01*
X82726993Y-86980822D01*
X82909814Y-87108835D01*
X83112087Y-87203156D01*
X83112093Y-87203157D01*
X83112094Y-87203158D01*
X83140305Y-87210717D01*
X83327666Y-87260920D01*
X83505533Y-87276481D01*
X83549999Y-87280372D01*
X83550000Y-87280372D01*
X83550001Y-87280372D01*
X83587055Y-87277129D01*
X83772334Y-87260920D01*
X83987913Y-87203156D01*
X84190186Y-87108835D01*
X84373007Y-86980822D01*
X84530822Y-86823007D01*
X84658835Y-86640186D01*
X84662617Y-86632074D01*
X84708788Y-86579634D01*
X84775981Y-86560481D01*
X84842863Y-86580695D01*
X84887383Y-86632075D01*
X84891163Y-86640183D01*
X84891164Y-86640184D01*
X84891165Y-86640186D01*
X85019178Y-86823007D01*
X85176993Y-86980822D01*
X85359814Y-87108835D01*
X85562087Y-87203156D01*
X85562093Y-87203157D01*
X85562094Y-87203158D01*
X85590305Y-87210717D01*
X85777666Y-87260920D01*
X85955533Y-87276481D01*
X85999999Y-87280372D01*
X86000000Y-87280372D01*
X86000001Y-87280372D01*
X86037055Y-87277129D01*
X86222334Y-87260920D01*
X86437913Y-87203156D01*
X86640186Y-87108835D01*
X86823007Y-86980822D01*
X86980822Y-86823007D01*
X87098426Y-86655050D01*
X87153002Y-86611427D01*
X87222501Y-86604235D01*
X87284855Y-86635757D01*
X87301571Y-86655047D01*
X87419178Y-86823007D01*
X87576993Y-86980822D01*
X87759814Y-87108835D01*
X87962087Y-87203156D01*
X87962093Y-87203157D01*
X87962094Y-87203158D01*
X87990305Y-87210717D01*
X88177666Y-87260920D01*
X88355533Y-87276481D01*
X88399999Y-87280372D01*
X88400000Y-87280372D01*
X88400001Y-87280372D01*
X88437055Y-87277129D01*
X88622334Y-87260920D01*
X88837913Y-87203156D01*
X89040186Y-87108835D01*
X89223007Y-86980822D01*
X89380822Y-86823007D01*
X89508835Y-86640186D01*
X89603156Y-86437913D01*
X89660920Y-86222334D01*
X89680372Y-86000000D01*
X91719628Y-86000000D01*
X91739079Y-86222329D01*
X91739081Y-86222339D01*
X91796841Y-86437905D01*
X91796843Y-86437909D01*
X91796844Y-86437913D01*
X91891165Y-86640186D01*
X92019178Y-86823007D01*
X92176993Y-86980822D01*
X92359814Y-87108835D01*
X92562087Y-87203156D01*
X92562093Y-87203157D01*
X92562094Y-87203158D01*
X92590305Y-87210717D01*
X92777666Y-87260920D01*
X92955533Y-87276481D01*
X92999999Y-87280372D01*
X93000000Y-87280372D01*
X93000001Y-87280372D01*
X93037055Y-87277129D01*
X93222334Y-87260920D01*
X93437913Y-87203156D01*
X93640186Y-87108835D01*
X93823007Y-86980822D01*
X93980822Y-86823007D01*
X94098426Y-86655050D01*
X94153002Y-86611427D01*
X94222501Y-86604235D01*
X94284855Y-86635757D01*
X94301571Y-86655047D01*
X94419178Y-86823007D01*
X94576993Y-86980822D01*
X94759814Y-87108835D01*
X94962087Y-87203156D01*
X94962093Y-87203157D01*
X94962094Y-87203158D01*
X94990305Y-87210717D01*
X95177666Y-87260920D01*
X95355533Y-87276481D01*
X95399999Y-87280372D01*
X95400000Y-87280372D01*
X95400001Y-87280372D01*
X95437055Y-87277129D01*
X95622334Y-87260920D01*
X95837913Y-87203156D01*
X96040186Y-87108835D01*
X96223007Y-86980822D01*
X96253829Y-86950000D01*
X110194722Y-86950000D01*
X110213762Y-87106818D01*
X110256958Y-87220715D01*
X110269780Y-87254523D01*
X110359517Y-87384530D01*
X110477760Y-87489283D01*
X110477762Y-87489284D01*
X110617634Y-87562696D01*
X110771014Y-87600500D01*
X110771015Y-87600500D01*
X110928985Y-87600500D01*
X111082365Y-87562696D01*
X111082364Y-87562695D01*
X111222240Y-87489283D01*
X111340483Y-87384530D01*
X111372950Y-87337492D01*
X111427233Y-87293503D01*
X111496681Y-87285843D01*
X111559246Y-87316946D01*
X111577049Y-87337492D01*
X111609517Y-87384530D01*
X111727760Y-87489283D01*
X111727762Y-87489284D01*
X111867634Y-87562696D01*
X112021014Y-87600500D01*
X112021015Y-87600500D01*
X112178985Y-87600500D01*
X112332365Y-87562696D01*
X112472238Y-87489284D01*
X112472237Y-87489284D01*
X112472240Y-87489283D01*
X112590483Y-87384530D01*
X112590483Y-87384528D01*
X112594046Y-87381373D01*
X112657279Y-87351651D01*
X112726543Y-87360835D01*
X112779846Y-87406007D01*
X112800266Y-87472826D01*
X112792215Y-87518159D01*
X112763763Y-87593181D01*
X112744722Y-87749999D01*
X112744722Y-87750000D01*
X112763762Y-87906818D01*
X112802716Y-88009530D01*
X112819780Y-88054523D01*
X112909517Y-88184530D01*
X113027760Y-88289283D01*
X113027762Y-88289284D01*
X113167634Y-88362696D01*
X113321014Y-88400500D01*
X113321015Y-88400500D01*
X113478985Y-88400500D01*
X113632365Y-88362696D01*
X113688991Y-88332976D01*
X113772240Y-88289283D01*
X113890483Y-88184530D01*
X113980220Y-88054523D01*
X114036237Y-87906818D01*
X114055278Y-87750000D01*
X117814721Y-87750000D01*
X117833762Y-87906818D01*
X117872716Y-88009530D01*
X117889780Y-88054523D01*
X117979517Y-88184530D01*
X118097760Y-88289283D01*
X118097762Y-88289284D01*
X118237634Y-88362696D01*
X118391014Y-88400500D01*
X118391015Y-88400500D01*
X118548985Y-88400500D01*
X118702365Y-88362696D01*
X118758991Y-88332976D01*
X118842240Y-88289283D01*
X118960483Y-88184530D01*
X119050220Y-88054523D01*
X119106237Y-87906818D01*
X119125278Y-87750000D01*
X119106237Y-87593182D01*
X119106236Y-87593179D01*
X119106236Y-87593177D01*
X119087905Y-87544844D01*
X119082537Y-87475181D01*
X119115683Y-87413675D01*
X119176821Y-87379853D01*
X119246539Y-87384453D01*
X119286071Y-87408055D01*
X119377760Y-87489283D01*
X119377762Y-87489284D01*
X119517634Y-87562696D01*
X119671014Y-87600500D01*
X119671015Y-87600500D01*
X119828985Y-87600500D01*
X119982365Y-87562696D01*
X119982365Y-87562695D01*
X120122240Y-87489283D01*
X120240483Y-87384530D01*
X120297950Y-87301273D01*
X120352233Y-87257284D01*
X120421681Y-87249624D01*
X120484246Y-87280727D01*
X120502048Y-87301272D01*
X120505331Y-87306028D01*
X120559515Y-87384528D01*
X120559517Y-87384530D01*
X120677760Y-87489283D01*
X120677762Y-87489284D01*
X120817634Y-87562696D01*
X120971014Y-87600500D01*
X120971015Y-87600500D01*
X121128985Y-87600500D01*
X121232445Y-87575000D01*
X124189721Y-87575000D01*
X124208762Y-87731818D01*
X124246270Y-87830717D01*
X124264780Y-87879523D01*
X124354517Y-88009530D01*
X124472760Y-88114283D01*
X124472762Y-88114284D01*
X124612634Y-88187696D01*
X124766014Y-88225500D01*
X124766015Y-88225500D01*
X124923985Y-88225500D01*
X125077365Y-88187696D01*
X125083401Y-88184528D01*
X125217240Y-88114283D01*
X125335483Y-88009530D01*
X125347712Y-87991811D01*
X125401990Y-87947823D01*
X125471438Y-87940160D01*
X125534005Y-87971261D01*
X125569824Y-88031250D01*
X125567525Y-88101082D01*
X125565704Y-88106221D01*
X125513763Y-88243178D01*
X125513763Y-88243180D01*
X125494721Y-88399999D01*
X125494721Y-88400000D01*
X125513762Y-88556818D01*
X125558403Y-88674524D01*
X125569780Y-88704523D01*
X125659517Y-88834530D01*
X125777760Y-88939283D01*
X125789860Y-88945633D01*
X125917634Y-89012696D01*
X126071014Y-89050500D01*
X126071015Y-89050500D01*
X126228985Y-89050500D01*
X126382365Y-89012696D01*
X126439524Y-88982696D01*
X126522240Y-88939283D01*
X126640483Y-88834530D01*
X126730220Y-88704523D01*
X126786237Y-88556818D01*
X126805278Y-88400000D01*
X126786237Y-88243182D01*
X126730220Y-88095477D01*
X126730217Y-88095473D01*
X126729648Y-88093972D01*
X126724281Y-88024308D01*
X126729648Y-88006028D01*
X126730217Y-88004526D01*
X126730220Y-88004523D01*
X126786237Y-87856818D01*
X126805278Y-87700000D01*
X126786237Y-87543182D01*
X126730220Y-87395477D01*
X126730217Y-87395473D01*
X126729648Y-87393972D01*
X126724281Y-87324308D01*
X126729648Y-87306028D01*
X126730217Y-87304526D01*
X126730220Y-87304523D01*
X126786237Y-87156818D01*
X126805278Y-87000000D01*
X126802950Y-86980822D01*
X126786237Y-86843181D01*
X126756037Y-86763552D01*
X126730220Y-86695477D01*
X126640483Y-86565470D01*
X126522240Y-86460717D01*
X126522238Y-86460716D01*
X126522237Y-86460715D01*
X126382365Y-86387303D01*
X126228986Y-86349500D01*
X126228985Y-86349500D01*
X126071015Y-86349500D01*
X126071014Y-86349500D01*
X125917634Y-86387303D01*
X125777762Y-86460715D01*
X125777759Y-86460717D01*
X125777760Y-86460717D01*
X125665149Y-86560481D01*
X125659516Y-86565471D01*
X125569781Y-86695475D01*
X125569780Y-86695476D01*
X125513762Y-86843181D01*
X125494722Y-86999999D01*
X125494722Y-87006027D01*
X125475037Y-87073066D01*
X125422233Y-87118821D01*
X125353075Y-87128765D01*
X125289519Y-87099740D01*
X125288495Y-87098843D01*
X125217240Y-87035717D01*
X125217238Y-87035716D01*
X125217237Y-87035715D01*
X125077365Y-86962303D01*
X124923986Y-86924500D01*
X124923985Y-86924500D01*
X124766015Y-86924500D01*
X124766014Y-86924500D01*
X124612634Y-86962303D01*
X124472762Y-87035715D01*
X124354516Y-87140471D01*
X124264781Y-87270475D01*
X124264780Y-87270476D01*
X124208762Y-87418181D01*
X124189721Y-87574999D01*
X124189721Y-87575000D01*
X121232445Y-87575000D01*
X121282365Y-87562696D01*
X121282364Y-87562695D01*
X121422240Y-87489283D01*
X121540483Y-87384530D01*
X121630220Y-87254523D01*
X121686237Y-87106818D01*
X121705278Y-86950000D01*
X121689859Y-86823007D01*
X121686237Y-86793181D01*
X121649182Y-86695476D01*
X121630220Y-86645477D01*
X121540483Y-86515470D01*
X121422240Y-86410717D01*
X121420486Y-86409796D01*
X121419440Y-86408783D01*
X121416066Y-86406455D01*
X121416453Y-86405894D01*
X121370274Y-86361212D01*
X121354299Y-86293193D01*
X121377634Y-86227336D01*
X121416277Y-86193850D01*
X121416066Y-86193545D01*
X121418839Y-86191630D01*
X121420487Y-86190203D01*
X121422240Y-86189283D01*
X121540483Y-86084530D01*
X121630220Y-85954523D01*
X121686237Y-85806818D01*
X121705278Y-85650000D01*
X121698952Y-85597896D01*
X121686237Y-85493181D01*
X121654880Y-85410500D01*
X121630220Y-85345477D01*
X121629854Y-85344947D01*
X121569023Y-85256818D01*
X121540483Y-85215470D01*
X121422240Y-85110717D01*
X121422238Y-85110716D01*
X121422237Y-85110715D01*
X121282365Y-85037303D01*
X121128986Y-84999500D01*
X121128985Y-84999500D01*
X120971015Y-84999500D01*
X120971014Y-84999500D01*
X120817634Y-85037303D01*
X120677762Y-85110715D01*
X120559515Y-85215471D01*
X120500146Y-85301482D01*
X120445863Y-85345472D01*
X120376415Y-85353131D01*
X120313850Y-85322027D01*
X120296047Y-85301481D01*
X120265218Y-85256818D01*
X120250483Y-85235470D01*
X120132240Y-85130717D01*
X120132238Y-85130716D01*
X120132237Y-85130715D01*
X119992365Y-85057303D01*
X119838986Y-85019500D01*
X119838985Y-85019500D01*
X119681015Y-85019500D01*
X119681014Y-85019500D01*
X119527634Y-85057303D01*
X119387762Y-85130715D01*
X119387759Y-85130717D01*
X119387760Y-85130717D01*
X119292092Y-85215471D01*
X119269516Y-85235471D01*
X119179781Y-85365475D01*
X119179780Y-85365476D01*
X119123762Y-85513181D01*
X119104721Y-85669999D01*
X119104721Y-85670000D01*
X119123762Y-85826818D01*
X119172195Y-85954523D01*
X119179780Y-85974523D01*
X119269517Y-86104530D01*
X119387759Y-86209282D01*
X119392709Y-86213667D01*
X119429836Y-86272857D01*
X119429068Y-86342722D01*
X119390651Y-86401082D01*
X119380933Y-86408525D01*
X119377769Y-86410709D01*
X119259516Y-86515471D01*
X119169781Y-86645475D01*
X119169780Y-86645476D01*
X119113762Y-86793181D01*
X119094721Y-86949999D01*
X119094721Y-86950000D01*
X119113762Y-87106818D01*
X119132095Y-87155156D01*
X119137462Y-87224819D01*
X119104315Y-87286325D01*
X119043176Y-87320147D01*
X118973458Y-87315545D01*
X118933926Y-87291943D01*
X118842240Y-87210717D01*
X118842238Y-87210716D01*
X118842237Y-87210715D01*
X118702365Y-87137303D01*
X118548986Y-87099500D01*
X118548985Y-87099500D01*
X118391015Y-87099500D01*
X118391014Y-87099500D01*
X118237634Y-87137303D01*
X118097762Y-87210715D01*
X117979516Y-87315471D01*
X117889781Y-87445475D01*
X117889780Y-87445476D01*
X117833762Y-87593181D01*
X117814721Y-87749999D01*
X117814721Y-87750000D01*
X114055278Y-87750000D01*
X114046229Y-87675470D01*
X114036237Y-87593181D01*
X114014992Y-87537163D01*
X113980220Y-87445477D01*
X113890483Y-87315470D01*
X113772240Y-87210717D01*
X113772238Y-87210716D01*
X113772237Y-87210715D01*
X113632365Y-87137303D01*
X113478986Y-87099500D01*
X113478985Y-87099500D01*
X113321015Y-87099500D01*
X113321014Y-87099500D01*
X113167634Y-87137303D01*
X113027761Y-87210715D01*
X113027759Y-87210717D01*
X112905952Y-87318627D01*
X112842719Y-87348348D01*
X112773456Y-87339164D01*
X112720153Y-87293991D01*
X112699733Y-87227172D01*
X112707784Y-87181841D01*
X112736237Y-87106818D01*
X112755278Y-86950000D01*
X112739859Y-86823007D01*
X112736237Y-86793181D01*
X112699182Y-86695476D01*
X112680220Y-86645477D01*
X112590483Y-86515470D01*
X112472240Y-86410717D01*
X112472238Y-86410716D01*
X112472237Y-86410715D01*
X112332365Y-86337303D01*
X112178986Y-86299500D01*
X112178985Y-86299500D01*
X112021015Y-86299500D01*
X112021014Y-86299500D01*
X111867634Y-86337303D01*
X111727762Y-86410715D01*
X111609517Y-86515469D01*
X111577050Y-86562507D01*
X111522766Y-86606497D01*
X111453318Y-86614156D01*
X111390753Y-86583052D01*
X111372950Y-86562507D01*
X111359004Y-86542303D01*
X111340483Y-86515470D01*
X111222240Y-86410717D01*
X111222238Y-86410716D01*
X111222237Y-86410715D01*
X111082365Y-86337303D01*
X110928986Y-86299500D01*
X110928985Y-86299500D01*
X110771015Y-86299500D01*
X110771014Y-86299500D01*
X110617634Y-86337303D01*
X110477762Y-86410715D01*
X110359516Y-86515471D01*
X110269781Y-86645475D01*
X110269780Y-86645476D01*
X110213762Y-86793181D01*
X110194722Y-86949999D01*
X110194722Y-86950000D01*
X96253829Y-86950000D01*
X96380822Y-86823007D01*
X96508835Y-86640186D01*
X96603156Y-86437913D01*
X96660920Y-86222334D01*
X96680372Y-86000000D01*
X96680194Y-85997971D01*
X96672267Y-85907363D01*
X96671623Y-85900000D01*
X99594722Y-85900000D01*
X99613762Y-86056818D01*
X99664000Y-86189283D01*
X99669780Y-86204523D01*
X99759517Y-86334530D01*
X99877760Y-86439283D01*
X99877762Y-86439284D01*
X100017634Y-86512696D01*
X100171014Y-86550500D01*
X100171015Y-86550500D01*
X100328985Y-86550500D01*
X100482365Y-86512696D01*
X100581401Y-86460717D01*
X100622240Y-86439283D01*
X100740483Y-86334530D01*
X100830220Y-86204523D01*
X100886237Y-86056818D01*
X100905278Y-85900000D01*
X100886237Y-85743182D01*
X100830220Y-85595477D01*
X100812937Y-85570438D01*
X100791055Y-85504086D01*
X100808520Y-85436435D01*
X100812925Y-85429577D01*
X100830220Y-85404523D01*
X100886237Y-85256818D01*
X100905278Y-85100000D01*
X100900971Y-85064524D01*
X100886237Y-84943181D01*
X100835675Y-84809861D01*
X100830220Y-84795477D01*
X100778423Y-84720436D01*
X100756542Y-84654086D01*
X100774007Y-84586435D01*
X100778403Y-84579592D01*
X100830220Y-84504523D01*
X100886237Y-84356818D01*
X100905278Y-84200000D01*
X100902853Y-84180024D01*
X100886237Y-84043181D01*
X100845466Y-83935678D01*
X100830220Y-83895477D01*
X100740483Y-83765470D01*
X100622240Y-83660717D01*
X100622238Y-83660716D01*
X100622237Y-83660715D01*
X100482365Y-83587303D01*
X100328986Y-83549500D01*
X100328985Y-83549500D01*
X100171015Y-83549500D01*
X100171014Y-83549500D01*
X100017634Y-83587303D01*
X99877762Y-83660715D01*
X99759516Y-83765471D01*
X99669781Y-83895475D01*
X99669780Y-83895476D01*
X99613762Y-84043181D01*
X99594722Y-84199999D01*
X99594722Y-84200000D01*
X99613762Y-84356818D01*
X99662678Y-84485797D01*
X99669780Y-84504523D01*
X99691657Y-84536217D01*
X99721574Y-84579560D01*
X99743457Y-84645915D01*
X99725991Y-84713566D01*
X99721574Y-84720440D01*
X99669781Y-84795475D01*
X99669780Y-84795476D01*
X99613762Y-84943181D01*
X99594722Y-85099999D01*
X99594722Y-85100000D01*
X99613762Y-85256818D01*
X99669780Y-85404523D01*
X99669782Y-85404527D01*
X99687062Y-85429562D01*
X99708944Y-85495916D01*
X99691478Y-85563568D01*
X99687062Y-85570438D01*
X99669782Y-85595472D01*
X99669780Y-85595476D01*
X99613762Y-85743181D01*
X99594722Y-85899999D01*
X99594722Y-85900000D01*
X96671623Y-85900000D01*
X96660920Y-85777666D01*
X96606710Y-85575352D01*
X96603158Y-85562094D01*
X96603157Y-85562093D01*
X96603156Y-85562087D01*
X96508835Y-85359814D01*
X96380822Y-85176993D01*
X96223007Y-85019178D01*
X96040186Y-84891165D01*
X95837913Y-84796844D01*
X95837909Y-84796843D01*
X95837905Y-84796841D01*
X95700411Y-84760000D01*
X97414722Y-84760000D01*
X97433762Y-84916818D01*
X97450759Y-84961634D01*
X97489780Y-85064523D01*
X97579517Y-85194530D01*
X97697760Y-85299283D01*
X97697762Y-85299284D01*
X97837634Y-85372696D01*
X97991014Y-85410500D01*
X97991015Y-85410500D01*
X98148985Y-85410500D01*
X98302365Y-85372696D01*
X98302365Y-85372695D01*
X98442240Y-85299283D01*
X98560483Y-85194530D01*
X98650220Y-85064523D01*
X98706237Y-84916818D01*
X98725278Y-84760000D01*
X98706237Y-84603182D01*
X98697278Y-84579560D01*
X98668821Y-84504524D01*
X98650220Y-84455477D01*
X98560483Y-84325470D01*
X98442240Y-84220717D01*
X98442238Y-84220716D01*
X98442237Y-84220715D01*
X98302365Y-84147303D01*
X98148986Y-84109500D01*
X98148985Y-84109500D01*
X97991015Y-84109500D01*
X97991014Y-84109500D01*
X97837634Y-84147303D01*
X97697762Y-84220715D01*
X97579516Y-84325471D01*
X97489781Y-84455475D01*
X97489780Y-84455476D01*
X97433762Y-84603181D01*
X97414722Y-84759999D01*
X97414722Y-84760000D01*
X95700411Y-84760000D01*
X95622339Y-84739081D01*
X95622329Y-84739079D01*
X95400001Y-84719628D01*
X95399999Y-84719628D01*
X95177670Y-84739079D01*
X95177660Y-84739081D01*
X94962094Y-84796841D01*
X94962087Y-84796843D01*
X94962087Y-84796844D01*
X94759814Y-84891165D01*
X94576993Y-85019178D01*
X94576991Y-85019179D01*
X94576988Y-85019182D01*
X94419178Y-85176992D01*
X94301574Y-85344947D01*
X94246997Y-85388572D01*
X94177499Y-85395764D01*
X94115144Y-85364242D01*
X94098426Y-85344947D01*
X94007645Y-85215301D01*
X93980822Y-85176993D01*
X93823007Y-85019178D01*
X93640186Y-84891165D01*
X93437913Y-84796844D01*
X93437909Y-84796843D01*
X93437905Y-84796841D01*
X93222339Y-84739081D01*
X93222329Y-84739079D01*
X93000001Y-84719628D01*
X92999999Y-84719628D01*
X92777670Y-84739079D01*
X92777660Y-84739081D01*
X92562094Y-84796841D01*
X92562087Y-84796843D01*
X92562087Y-84796844D01*
X92359814Y-84891165D01*
X92176993Y-85019178D01*
X92176991Y-85019179D01*
X92176988Y-85019182D01*
X92019182Y-85176988D01*
X92019179Y-85176991D01*
X92019178Y-85176993D01*
X91891165Y-85359814D01*
X91821119Y-85510030D01*
X91796845Y-85562085D01*
X91796841Y-85562094D01*
X91739081Y-85777660D01*
X91739079Y-85777670D01*
X91719628Y-85999999D01*
X91719628Y-86000000D01*
X89680372Y-86000000D01*
X89680194Y-85997971D01*
X89672267Y-85907363D01*
X89660920Y-85777666D01*
X89606710Y-85575352D01*
X89603158Y-85562094D01*
X89603157Y-85562093D01*
X89603156Y-85562087D01*
X89508835Y-85359814D01*
X89380822Y-85176993D01*
X89223007Y-85019178D01*
X89040186Y-84891165D01*
X88837913Y-84796844D01*
X88837909Y-84796843D01*
X88837905Y-84796841D01*
X88622339Y-84739081D01*
X88622329Y-84739079D01*
X88400001Y-84719628D01*
X88399999Y-84719628D01*
X88177670Y-84739079D01*
X88177660Y-84739081D01*
X87962094Y-84796841D01*
X87962087Y-84796843D01*
X87962087Y-84796844D01*
X87759814Y-84891165D01*
X87576993Y-85019178D01*
X87576991Y-85019179D01*
X87576988Y-85019182D01*
X87419178Y-85176992D01*
X87301574Y-85344947D01*
X87246997Y-85388572D01*
X87177499Y-85395764D01*
X87115144Y-85364242D01*
X87098426Y-85344947D01*
X87007645Y-85215301D01*
X86980822Y-85176993D01*
X86823007Y-85019178D01*
X86640186Y-84891165D01*
X86437913Y-84796844D01*
X86437909Y-84796843D01*
X86437905Y-84796841D01*
X86222339Y-84739081D01*
X86222329Y-84739079D01*
X86000001Y-84719628D01*
X85999999Y-84719628D01*
X85777670Y-84739079D01*
X85777660Y-84739081D01*
X85562094Y-84796841D01*
X85562087Y-84796843D01*
X85562087Y-84796844D01*
X85359814Y-84891165D01*
X85176993Y-85019178D01*
X85176991Y-85019179D01*
X85176988Y-85019182D01*
X85019182Y-85176988D01*
X85019179Y-85176991D01*
X85019178Y-85176993D01*
X84980439Y-85232318D01*
X84895845Y-85353131D01*
X84891165Y-85359814D01*
X84887380Y-85367929D01*
X84841209Y-85420367D01*
X84774015Y-85439518D01*
X84707134Y-85419302D01*
X84662619Y-85367929D01*
X84658835Y-85359814D01*
X84530822Y-85176993D01*
X84373007Y-85019178D01*
X84190186Y-84891165D01*
X83987913Y-84796844D01*
X83987909Y-84796843D01*
X83987905Y-84796841D01*
X83772339Y-84739081D01*
X83772329Y-84739079D01*
X83550001Y-84719628D01*
X83549999Y-84719628D01*
X83327670Y-84739079D01*
X83327660Y-84739081D01*
X83112094Y-84796841D01*
X83112087Y-84796843D01*
X83112087Y-84796844D01*
X82909814Y-84891165D01*
X82726993Y-85019178D01*
X82726991Y-85019179D01*
X82726988Y-85019182D01*
X82569178Y-85176992D01*
X82451574Y-85344947D01*
X82396997Y-85388572D01*
X82327499Y-85395764D01*
X82265144Y-85364242D01*
X82248426Y-85344947D01*
X82157645Y-85215301D01*
X82130822Y-85176993D01*
X81973007Y-85019178D01*
X81790186Y-84891165D01*
X81587913Y-84796844D01*
X81587909Y-84796843D01*
X81587905Y-84796841D01*
X81372339Y-84739081D01*
X81372329Y-84739079D01*
X81150001Y-84719628D01*
X81149999Y-84719628D01*
X80927670Y-84739079D01*
X80927660Y-84739081D01*
X80712094Y-84796841D01*
X80712087Y-84796843D01*
X80712087Y-84796844D01*
X80509814Y-84891165D01*
X80326993Y-85019178D01*
X80326991Y-85019179D01*
X80326988Y-85019182D01*
X80169182Y-85176988D01*
X80169179Y-85176991D01*
X80169178Y-85176993D01*
X80041165Y-85359814D01*
X79971119Y-85510030D01*
X79946845Y-85562085D01*
X79946841Y-85562094D01*
X79889081Y-85777660D01*
X79889079Y-85777670D01*
X79869628Y-85999999D01*
X79869628Y-86000000D01*
X77830372Y-86000000D01*
X77830194Y-85997971D01*
X77822267Y-85907363D01*
X77810920Y-85777666D01*
X77756710Y-85575352D01*
X77753158Y-85562094D01*
X77753157Y-85562093D01*
X77753156Y-85562087D01*
X77658835Y-85359814D01*
X77530822Y-85176993D01*
X77373007Y-85019178D01*
X77190186Y-84891165D01*
X76987913Y-84796844D01*
X76987909Y-84796843D01*
X76987905Y-84796841D01*
X76772339Y-84739081D01*
X76772329Y-84739079D01*
X76550001Y-84719628D01*
X76549999Y-84719628D01*
X76327670Y-84739079D01*
X76327660Y-84739081D01*
X76112094Y-84796841D01*
X76112087Y-84796843D01*
X76112087Y-84796844D01*
X75909814Y-84891165D01*
X75726993Y-85019178D01*
X75726991Y-85019179D01*
X75726988Y-85019182D01*
X75569178Y-85176992D01*
X75451574Y-85344947D01*
X75396997Y-85388572D01*
X75327499Y-85395764D01*
X75265144Y-85364242D01*
X75248426Y-85344947D01*
X75157645Y-85215301D01*
X75130822Y-85176993D01*
X74973007Y-85019178D01*
X74790186Y-84891165D01*
X74587913Y-84796844D01*
X74587909Y-84796843D01*
X74587905Y-84796841D01*
X74372339Y-84739081D01*
X74372329Y-84739079D01*
X74150001Y-84719628D01*
X74149999Y-84719628D01*
X73927670Y-84739079D01*
X73927660Y-84739081D01*
X73712094Y-84796841D01*
X73712087Y-84796843D01*
X73712087Y-84796844D01*
X73509814Y-84891165D01*
X73344005Y-85007265D01*
X73277800Y-85029592D01*
X73210033Y-85012582D01*
X73162220Y-84961634D01*
X73149542Y-84892924D01*
X73151477Y-84880461D01*
X73166148Y-84809864D01*
X73166148Y-84809862D01*
X73185291Y-84530000D01*
X73166148Y-84250138D01*
X73136366Y-84106818D01*
X73109078Y-83975500D01*
X73109073Y-83975483D01*
X73073539Y-83875500D01*
X73015136Y-83711170D01*
X72905717Y-83499999D01*
X76740398Y-83499999D01*
X76760757Y-83706716D01*
X76821056Y-83905496D01*
X76918969Y-84088677D01*
X76918974Y-84088684D01*
X77050747Y-84249252D01*
X77159117Y-84338188D01*
X77211317Y-84381027D01*
X77211320Y-84381028D01*
X77211322Y-84381030D01*
X77394503Y-84478943D01*
X77394505Y-84478943D01*
X77394508Y-84478945D01*
X77593282Y-84539242D01*
X77800000Y-84559602D01*
X78006718Y-84539242D01*
X78205492Y-84478945D01*
X78388683Y-84381027D01*
X78549252Y-84249252D01*
X78681027Y-84088683D01*
X78740641Y-83977152D01*
X78789604Y-83927308D01*
X78857741Y-83911847D01*
X78923421Y-83935678D01*
X78959358Y-83977152D01*
X79018969Y-84088677D01*
X79018974Y-84088684D01*
X79150747Y-84249252D01*
X79259117Y-84338188D01*
X79311317Y-84381027D01*
X79311320Y-84381028D01*
X79311322Y-84381030D01*
X79494503Y-84478943D01*
X79494505Y-84478943D01*
X79494508Y-84478945D01*
X79693282Y-84539242D01*
X79900000Y-84559602D01*
X80106718Y-84539242D01*
X80305492Y-84478945D01*
X80488683Y-84381027D01*
X80649252Y-84249252D01*
X80781027Y-84088683D01*
X80878945Y-83905492D01*
X80939242Y-83706718D01*
X80959602Y-83500000D01*
X80959602Y-83499999D01*
X88590398Y-83499999D01*
X88610757Y-83706716D01*
X88671056Y-83905496D01*
X88768969Y-84088677D01*
X88768974Y-84088684D01*
X88900747Y-84249252D01*
X89009117Y-84338188D01*
X89061317Y-84381027D01*
X89061320Y-84381028D01*
X89061322Y-84381030D01*
X89244503Y-84478943D01*
X89244505Y-84478943D01*
X89244508Y-84478945D01*
X89443282Y-84539242D01*
X89650000Y-84559602D01*
X89856718Y-84539242D01*
X90055492Y-84478945D01*
X90238683Y-84381027D01*
X90399252Y-84249252D01*
X90531027Y-84088683D01*
X90590641Y-83977152D01*
X90639604Y-83927308D01*
X90707741Y-83911847D01*
X90773421Y-83935678D01*
X90809358Y-83977152D01*
X90868969Y-84088677D01*
X90868974Y-84088684D01*
X91000747Y-84249252D01*
X91109117Y-84338188D01*
X91161317Y-84381027D01*
X91161320Y-84381028D01*
X91161322Y-84381030D01*
X91344503Y-84478943D01*
X91344505Y-84478943D01*
X91344508Y-84478945D01*
X91543282Y-84539242D01*
X91750000Y-84559602D01*
X91956718Y-84539242D01*
X92155492Y-84478945D01*
X92338683Y-84381027D01*
X92499252Y-84249252D01*
X92631027Y-84088683D01*
X92728945Y-83905492D01*
X92789242Y-83706718D01*
X92809602Y-83500000D01*
X92789242Y-83293282D01*
X92728945Y-83094508D01*
X92728943Y-83094505D01*
X92728943Y-83094503D01*
X92631030Y-82911322D01*
X92631028Y-82911320D01*
X92631027Y-82911317D01*
X92558710Y-82823198D01*
X92499252Y-82750747D01*
X92338684Y-82618974D01*
X92338677Y-82618969D01*
X92155496Y-82521056D01*
X91956716Y-82460757D01*
X91750000Y-82440398D01*
X91543283Y-82460757D01*
X91344503Y-82521056D01*
X91161322Y-82618969D01*
X91161315Y-82618974D01*
X91000747Y-82750747D01*
X90868974Y-82911315D01*
X90868969Y-82911322D01*
X90809358Y-83022847D01*
X90760396Y-83072692D01*
X90692258Y-83088152D01*
X90626578Y-83064320D01*
X90590642Y-83022847D01*
X90531030Y-82911322D01*
X90531028Y-82911320D01*
X90531027Y-82911317D01*
X90458710Y-82823198D01*
X90399252Y-82750747D01*
X90238684Y-82618974D01*
X90238677Y-82618969D01*
X90055496Y-82521056D01*
X89856716Y-82460757D01*
X89650000Y-82440398D01*
X89443283Y-82460757D01*
X89244503Y-82521056D01*
X89061322Y-82618969D01*
X89061315Y-82618974D01*
X88900747Y-82750747D01*
X88768974Y-82911315D01*
X88768969Y-82911322D01*
X88671056Y-83094503D01*
X88610757Y-83293283D01*
X88590398Y-83499999D01*
X80959602Y-83499999D01*
X80939242Y-83293282D01*
X80878945Y-83094508D01*
X80878943Y-83094505D01*
X80878943Y-83094503D01*
X80781030Y-82911322D01*
X80781028Y-82911320D01*
X80781027Y-82911317D01*
X80708710Y-82823198D01*
X80649252Y-82750747D01*
X80488684Y-82618974D01*
X80488677Y-82618969D01*
X80305496Y-82521056D01*
X80106716Y-82460757D01*
X79922583Y-82442622D01*
X79900000Y-82440398D01*
X79899999Y-82440398D01*
X79693283Y-82460757D01*
X79494503Y-82521056D01*
X79311322Y-82618969D01*
X79311315Y-82618974D01*
X79150747Y-82750747D01*
X79018974Y-82911315D01*
X79018969Y-82911322D01*
X78959358Y-83022847D01*
X78910396Y-83072692D01*
X78842258Y-83088152D01*
X78776578Y-83064320D01*
X78740642Y-83022847D01*
X78681030Y-82911322D01*
X78681028Y-82911320D01*
X78681027Y-82911317D01*
X78608710Y-82823198D01*
X78549252Y-82750747D01*
X78388684Y-82618974D01*
X78388677Y-82618969D01*
X78205496Y-82521056D01*
X78006716Y-82460757D01*
X77800000Y-82440398D01*
X77593283Y-82460757D01*
X77394503Y-82521056D01*
X77211322Y-82618969D01*
X77211315Y-82618974D01*
X77050747Y-82750747D01*
X76918974Y-82911315D01*
X76918969Y-82911322D01*
X76821056Y-83094503D01*
X76760757Y-83293283D01*
X76740398Y-83499999D01*
X72905717Y-83499999D01*
X72886081Y-83462104D01*
X72724312Y-83232931D01*
X72724307Y-83232925D01*
X72532845Y-83027919D01*
X72434252Y-82947708D01*
X72315246Y-82850889D01*
X72315244Y-82850888D01*
X72315242Y-82850886D01*
X72075566Y-82705136D01*
X71818276Y-82593380D01*
X71548166Y-82517698D01*
X71548162Y-82517697D01*
X71548161Y-82517697D01*
X71409209Y-82498598D01*
X71270259Y-82479500D01*
X71270258Y-82479500D01*
X70989742Y-82479500D01*
X70989741Y-82479500D01*
X70711839Y-82517697D01*
X70711833Y-82517698D01*
X70441723Y-82593380D01*
X70184433Y-82705136D01*
X69944757Y-82850886D01*
X69727154Y-83027919D01*
X69535692Y-83232925D01*
X69535692Y-83232926D01*
X69535689Y-83232928D01*
X69535688Y-83232931D01*
X69470982Y-83324597D01*
X69373919Y-83462103D01*
X69244863Y-83711171D01*
X69150926Y-83975483D01*
X69150921Y-83975500D01*
X69093852Y-84250135D01*
X69093851Y-84250137D01*
X69074709Y-84529999D01*
X67655500Y-84529999D01*
X67655500Y-84031623D01*
X67655585Y-84028377D01*
X67671625Y-83722324D01*
X67672304Y-83715866D01*
X67681039Y-83660715D01*
X67719993Y-83414763D01*
X67721336Y-83408443D01*
X67800242Y-83113963D01*
X67802240Y-83107811D01*
X67911497Y-82823188D01*
X67914126Y-82817281D01*
X68052544Y-82545620D01*
X68055770Y-82540034D01*
X68221813Y-82284352D01*
X68225623Y-82279109D01*
X68351731Y-82123378D01*
X68417481Y-82042183D01*
X68421808Y-82037378D01*
X68637378Y-81821808D01*
X68642183Y-81817481D01*
X68879107Y-81625623D01*
X68884352Y-81621813D01*
X69140034Y-81455770D01*
X69145620Y-81452544D01*
X69417281Y-81314126D01*
X69423188Y-81311497D01*
X69707811Y-81202240D01*
X69713963Y-81200242D01*
X70008443Y-81121336D01*
X70014763Y-81119993D01*
X70315866Y-81072303D01*
X70322324Y-81071625D01*
X70382834Y-81068453D01*
X70628379Y-81055584D01*
X70631623Y-81055500D01*
X70638285Y-81055500D01*
X95892601Y-81055500D01*
X95959640Y-81075185D01*
G37*
%TD.AperFunction*%
%TD*%
M02*
