%TF.GenerationSoftware,KiCad,Pcbnew,7.0.6*%
%TF.CreationDate,2023-10-11T20:15:21+08:00*%
%TF.ProjectId,PCB_ESP32WROOM32E_RPI_Zero_Form_Hackster,5043425f-4553-4503-9332-57524f4f4d33,rev?*%
%TF.SameCoordinates,Original*%
%TF.FileFunction,Soldermask,Top*%
%TF.FilePolarity,Negative*%
%FSLAX46Y46*%
G04 Gerber Fmt 4.6, Leading zero omitted, Abs format (unit mm)*
G04 Created by KiCad (PCBNEW 7.0.6) date 2023-10-11 20:15:21*
%MOMM*%
%LPD*%
G01*
G04 APERTURE LIST*
G04 Aperture macros list*
%AMRoundRect*
0 Rectangle with rounded corners*
0 $1 Rounding radius*
0 $2 $3 $4 $5 $6 $7 $8 $9 X,Y pos of 4 corners*
0 Add a 4 corners polygon primitive as box body*
4,1,4,$2,$3,$4,$5,$6,$7,$8,$9,$2,$3,0*
0 Add four circle primitives for the rounded corners*
1,1,$1+$1,$2,$3*
1,1,$1+$1,$4,$5*
1,1,$1+$1,$6,$7*
1,1,$1+$1,$8,$9*
0 Add four rect primitives between the rounded corners*
20,1,$1+$1,$2,$3,$4,$5,0*
20,1,$1+$1,$4,$5,$6,$7,0*
20,1,$1+$1,$6,$7,$8,$9,0*
20,1,$1+$1,$8,$9,$2,$3,0*%
G04 Aperture macros list end*
%ADD10RoundRect,0.237500X-0.237500X0.300000X-0.237500X-0.300000X0.237500X-0.300000X0.237500X0.300000X0*%
%ADD11R,2.000000X1.500000*%
%ADD12R,2.000000X3.800000*%
%ADD13RoundRect,0.237500X0.287500X0.237500X-0.287500X0.237500X-0.287500X-0.237500X0.287500X-0.237500X0*%
%ADD14RoundRect,0.237500X0.237500X-0.250000X0.237500X0.250000X-0.237500X0.250000X-0.237500X-0.250000X0*%
%ADD15RoundRect,0.237500X0.300000X0.237500X-0.300000X0.237500X-0.300000X-0.237500X0.300000X-0.237500X0*%
%ADD16RoundRect,0.237500X0.250000X0.237500X-0.250000X0.237500X-0.250000X-0.237500X0.250000X-0.237500X0*%
%ADD17RoundRect,0.237500X-0.250000X-0.237500X0.250000X-0.237500X0.250000X0.237500X-0.250000X0.237500X0*%
%ADD18RoundRect,0.150000X-0.150000X0.587500X-0.150000X-0.587500X0.150000X-0.587500X0.150000X0.587500X0*%
%ADD19RoundRect,0.237500X0.237500X-0.300000X0.237500X0.300000X-0.237500X0.300000X-0.237500X-0.300000X0*%
%ADD20R,1.000000X1.700000*%
%ADD21RoundRect,0.102000X-0.450000X0.750000X-0.450000X-0.750000X0.450000X-0.750000X0.450000X0.750000X0*%
%ADD22RoundRect,0.102000X-0.750000X-0.450000X0.750000X-0.450000X0.750000X0.450000X-0.750000X0.450000X0*%
%ADD23R,1.473200X0.355600*%
%ADD24RoundRect,0.250000X0.600000X0.725000X-0.600000X0.725000X-0.600000X-0.725000X0.600000X-0.725000X0*%
%ADD25O,1.700000X1.950000*%
%ADD26RoundRect,0.237500X-0.237500X0.250000X-0.237500X-0.250000X0.237500X-0.250000X0.237500X0.250000X0*%
%ADD27RoundRect,0.250000X-0.425000X0.450000X-0.425000X-0.450000X0.425000X-0.450000X0.425000X0.450000X0*%
%ADD28RoundRect,0.102000X0.754000X0.754000X-0.754000X0.754000X-0.754000X-0.754000X0.754000X-0.754000X0*%
%ADD29C,1.712000*%
%ADD30C,2.154000*%
%ADD31RoundRect,0.237500X-0.287500X-0.237500X0.287500X-0.237500X0.287500X0.237500X-0.287500X0.237500X0*%
%ADD32RoundRect,0.250000X0.600000X0.750000X-0.600000X0.750000X-0.600000X-0.750000X0.600000X-0.750000X0*%
%ADD33O,1.700000X2.000000*%
%ADD34RoundRect,0.150000X0.150000X-0.587500X0.150000X0.587500X-0.150000X0.587500X-0.150000X-0.587500X0*%
%ADD35C,3.600000*%
%ADD36RoundRect,0.050000X0.762000X0.762000X-0.762000X0.762000X-0.762000X-0.762000X0.762000X-0.762000X0*%
%ADD37C,1.624000*%
%ADD38RoundRect,0.102000X-0.754000X-0.754000X0.754000X-0.754000X0.754000X0.754000X-0.754000X0.754000X0*%
%ADD39C,0.900000*%
G04 APERTURE END LIST*
D10*
%TO.C,C21*%
X98200000Y-87237500D03*
X98200000Y-88962500D03*
%TD*%
%TO.C,C3*%
X92975000Y-88612500D03*
X92975000Y-90337500D03*
%TD*%
D11*
%TO.C,U4*%
X91850000Y-104000000D03*
X91850000Y-101700000D03*
D12*
X85550000Y-101700000D03*
D11*
X91850000Y-99400000D03*
%TD*%
D13*
%TO.C,D2*%
X105523000Y-84280000D03*
X103773000Y-84280000D03*
%TD*%
D10*
%TO.C,C10*%
X98168000Y-90662000D03*
X98168000Y-92387000D03*
%TD*%
D14*
%TO.C,R1*%
X75849000Y-95606700D03*
X75849000Y-93781700D03*
%TD*%
D15*
%TO.C,C2*%
X72962500Y-102950000D03*
X71237500Y-102950000D03*
%TD*%
D16*
%TO.C,R15*%
X105473000Y-85852000D03*
X103648000Y-85852000D03*
%TD*%
D17*
%TO.C,R8*%
X99887500Y-107350000D03*
X101712500Y-107350000D03*
%TD*%
D18*
%TO.C,Q2*%
X107593500Y-91294500D03*
X105693500Y-91294500D03*
X106643500Y-93169500D03*
%TD*%
D10*
%TO.C,C6*%
X88275000Y-88637500D03*
X88275000Y-90362500D03*
%TD*%
D16*
%TO.C,R3*%
X73051500Y-96644200D03*
X71226500Y-96644200D03*
%TD*%
%TO.C,R12*%
X107570500Y-89312000D03*
X105745500Y-89312000D03*
%TD*%
%TO.C,R4*%
X73062500Y-99150000D03*
X71237500Y-99150000D03*
%TD*%
D19*
%TO.C,C20*%
X98200000Y-99312500D03*
X98200000Y-97587500D03*
%TD*%
D14*
%TO.C,R2*%
X77399000Y-95606700D03*
X77399000Y-93781700D03*
%TD*%
D17*
%TO.C,R11*%
X105655500Y-102412000D03*
X107480500Y-102412000D03*
%TD*%
D19*
%TO.C,C11*%
X98188000Y-95817000D03*
X98188000Y-94092000D03*
%TD*%
D17*
%TO.C,R19*%
X100179500Y-84280000D03*
X102004500Y-84280000D03*
%TD*%
D20*
%TO.C,S2*%
X99928000Y-94892000D03*
X99928000Y-88592000D03*
X103728000Y-94892000D03*
X103728000Y-88592000D03*
%TD*%
D16*
%TO.C,R14*%
X107530500Y-95087000D03*
X105705500Y-95087000D03*
%TD*%
D21*
%TO.C,IC1*%
X127360000Y-87350000D03*
X126090000Y-87350000D03*
X124820000Y-87350000D03*
X123550000Y-87350000D03*
X122280000Y-87350000D03*
X121010000Y-87350000D03*
X119740000Y-87350000D03*
X118470000Y-87350000D03*
X117200000Y-87350000D03*
X115930000Y-87350000D03*
X114660000Y-87350000D03*
X113390000Y-87350000D03*
X112120000Y-87350000D03*
X110850000Y-87350000D03*
D22*
X109600000Y-90385000D03*
X109600000Y-91655000D03*
X109600000Y-92925000D03*
X109600000Y-94195000D03*
X109600000Y-95465000D03*
X109600000Y-96735000D03*
X109600000Y-98005000D03*
X109600000Y-99275000D03*
X109600000Y-100545000D03*
X109600000Y-101815000D03*
D21*
X110850000Y-104850000D03*
X112120000Y-104850000D03*
X113390000Y-104850000D03*
X114660000Y-104850000D03*
X115930000Y-104850000D03*
X117200000Y-104850000D03*
X118470000Y-104850000D03*
X119740000Y-104850000D03*
X121010000Y-104850000D03*
X122280000Y-104850000D03*
X123550000Y-104850000D03*
X124820000Y-104850000D03*
X126090000Y-104850000D03*
X127360000Y-104850000D03*
%TD*%
D23*
%TO.C,U3*%
X80800000Y-101100000D03*
X80800000Y-100439600D03*
X80800000Y-99804600D03*
X80800000Y-99144200D03*
X80800000Y-98483800D03*
X80800000Y-97848800D03*
X80800000Y-97188400D03*
X74958000Y-97188400D03*
X74958000Y-97848800D03*
X74958000Y-98483800D03*
X74958000Y-99144200D03*
X74958000Y-99804600D03*
X74958000Y-100439600D03*
X74958000Y-101100000D03*
%TD*%
D14*
%TO.C,R18*%
X116250000Y-108412500D03*
X116250000Y-106587500D03*
%TD*%
%TO.C,R20*%
X114750000Y-108412500D03*
X114750000Y-106587500D03*
%TD*%
D24*
%TO.C,J4*%
X91700000Y-107900000D03*
D25*
X89200000Y-107900000D03*
X86700000Y-107900000D03*
X84200000Y-107900000D03*
X81700000Y-107900000D03*
X79200000Y-107900000D03*
%TD*%
D26*
%TO.C,R6*%
X79200000Y-88587500D03*
X79200000Y-90412500D03*
%TD*%
D27*
%TO.C,C8*%
X94300000Y-99550000D03*
X94300000Y-102250000D03*
%TD*%
D26*
%TO.C,R17*%
X89825000Y-88587500D03*
X89825000Y-90412500D03*
%TD*%
D20*
%TO.C,S1*%
X99946000Y-103547000D03*
X99946000Y-97247000D03*
X103746000Y-103547000D03*
X103746000Y-97247000D03*
%TD*%
D10*
%TO.C,C4*%
X80750000Y-88637500D03*
X80750000Y-90362500D03*
%TD*%
D17*
%TO.C,R7*%
X99887500Y-105750000D03*
X101712500Y-105750000D03*
%TD*%
D28*
%TO.C,S5*%
X82300000Y-83500000D03*
D29*
X77800000Y-83500000D03*
D30*
X83550000Y-86000000D03*
X76550000Y-86000000D03*
%TD*%
D31*
%TO.C,D11*%
X100265500Y-85822000D03*
X102015500Y-85822000D03*
%TD*%
D32*
%TO.C,J1*%
X89850000Y-95900000D03*
D33*
X87350000Y-95900000D03*
%TD*%
D16*
%TO.C,R13*%
X107548500Y-96697000D03*
X105723500Y-96697000D03*
%TD*%
%TO.C,R23*%
X77405000Y-102910000D03*
X75580000Y-102910000D03*
%TD*%
D26*
%TO.C,R16*%
X77450000Y-88587500D03*
X77450000Y-90412500D03*
%TD*%
D19*
%TO.C,C18*%
X96150000Y-101162500D03*
X96150000Y-99437500D03*
%TD*%
D10*
%TO.C,C5*%
X75900000Y-88637500D03*
X75900000Y-90362500D03*
%TD*%
D26*
%TO.C,R5*%
X91400000Y-88587500D03*
X91400000Y-90412500D03*
%TD*%
D34*
%TO.C,Q1*%
X105660500Y-100479500D03*
X107560500Y-100479500D03*
X106610500Y-98604500D03*
%TD*%
D35*
%TO.C,Coral_Dev_Board1*%
X129130000Y-107530000D03*
X129130000Y-84530000D03*
X71130000Y-107530000D03*
X71130000Y-84530000D03*
D36*
X124630000Y-82060000D03*
D37*
X122090000Y-82060000D03*
X119550000Y-82060000D03*
X117010000Y-82060000D03*
X114470000Y-82060000D03*
X111930000Y-82060000D03*
X109390000Y-82060000D03*
X106850000Y-82060000D03*
X104310000Y-82060000D03*
X101770000Y-82060000D03*
X99230000Y-82060000D03*
X96690000Y-82060000D03*
D36*
X124630000Y-110000000D03*
D37*
X122090000Y-110000000D03*
X119550000Y-110000000D03*
X117010000Y-110000000D03*
X114470000Y-110000000D03*
X111930000Y-110000000D03*
X109390000Y-110000000D03*
X106850000Y-110000000D03*
X104310000Y-110000000D03*
X101770000Y-110000000D03*
X99230000Y-110000000D03*
X96690000Y-110000000D03*
%TD*%
D28*
%TO.C,S6*%
X94150000Y-83500000D03*
D29*
X89650000Y-83500000D03*
D30*
X95400000Y-86000000D03*
X88400000Y-86000000D03*
%TD*%
D38*
%TO.C,S4*%
X75400000Y-83500000D03*
D29*
X79900000Y-83500000D03*
D30*
X74150000Y-86000000D03*
X81150000Y-86000000D03*
%TD*%
D39*
%TO.C,P2*%
X71070000Y-101300000D03*
X71070000Y-93300000D03*
%TD*%
D38*
%TO.C,S3*%
X87250000Y-83500000D03*
D29*
X91750000Y-83500000D03*
D30*
X86000000Y-86000000D03*
X93000000Y-86000000D03*
%TD*%
M02*
