%TF.GenerationSoftware,KiCad,Pcbnew,7.0.6*%
%TF.CreationDate,2023-10-11T20:15:21+08:00*%
%TF.ProjectId,PCB_ESP32WROOM32E_RPI_Zero_Form_Hackster,5043425f-4553-4503-9332-57524f4f4d33,rev?*%
%TF.SameCoordinates,Original*%
%TF.FileFunction,Copper,L1,Top*%
%TF.FilePolarity,Positive*%
%FSLAX46Y46*%
G04 Gerber Fmt 4.6, Leading zero omitted, Abs format (unit mm)*
G04 Created by KiCad (PCBNEW 7.0.6) date 2023-10-11 20:15:21*
%MOMM*%
%LPD*%
G01*
G04 APERTURE LIST*
G04 Aperture macros list*
%AMRoundRect*
0 Rectangle with rounded corners*
0 $1 Rounding radius*
0 $2 $3 $4 $5 $6 $7 $8 $9 X,Y pos of 4 corners*
0 Add a 4 corners polygon primitive as box body*
4,1,4,$2,$3,$4,$5,$6,$7,$8,$9,$2,$3,0*
0 Add four circle primitives for the rounded corners*
1,1,$1+$1,$2,$3*
1,1,$1+$1,$4,$5*
1,1,$1+$1,$6,$7*
1,1,$1+$1,$8,$9*
0 Add four rect primitives between the rounded corners*
20,1,$1+$1,$2,$3,$4,$5,0*
20,1,$1+$1,$4,$5,$6,$7,0*
20,1,$1+$1,$6,$7,$8,$9,0*
20,1,$1+$1,$8,$9,$2,$3,0*%
G04 Aperture macros list end*
%TA.AperFunction,SMDPad,CuDef*%
%ADD10RoundRect,0.237500X-0.237500X0.300000X-0.237500X-0.300000X0.237500X-0.300000X0.237500X0.300000X0*%
%TD*%
%TA.AperFunction,SMDPad,CuDef*%
%ADD11R,2.000000X1.500000*%
%TD*%
%TA.AperFunction,SMDPad,CuDef*%
%ADD12R,2.000000X3.800000*%
%TD*%
%TA.AperFunction,SMDPad,CuDef*%
%ADD13RoundRect,0.237500X0.287500X0.237500X-0.287500X0.237500X-0.287500X-0.237500X0.287500X-0.237500X0*%
%TD*%
%TA.AperFunction,SMDPad,CuDef*%
%ADD14RoundRect,0.237500X0.237500X-0.250000X0.237500X0.250000X-0.237500X0.250000X-0.237500X-0.250000X0*%
%TD*%
%TA.AperFunction,SMDPad,CuDef*%
%ADD15RoundRect,0.237500X0.300000X0.237500X-0.300000X0.237500X-0.300000X-0.237500X0.300000X-0.237500X0*%
%TD*%
%TA.AperFunction,SMDPad,CuDef*%
%ADD16RoundRect,0.237500X0.250000X0.237500X-0.250000X0.237500X-0.250000X-0.237500X0.250000X-0.237500X0*%
%TD*%
%TA.AperFunction,SMDPad,CuDef*%
%ADD17RoundRect,0.237500X-0.250000X-0.237500X0.250000X-0.237500X0.250000X0.237500X-0.250000X0.237500X0*%
%TD*%
%TA.AperFunction,SMDPad,CuDef*%
%ADD18RoundRect,0.150000X-0.150000X0.587500X-0.150000X-0.587500X0.150000X-0.587500X0.150000X0.587500X0*%
%TD*%
%TA.AperFunction,SMDPad,CuDef*%
%ADD19RoundRect,0.237500X0.237500X-0.300000X0.237500X0.300000X-0.237500X0.300000X-0.237500X-0.300000X0*%
%TD*%
%TA.AperFunction,SMDPad,CuDef*%
%ADD20R,1.000000X1.700000*%
%TD*%
%TA.AperFunction,SMDPad,CuDef*%
%ADD21R,0.900000X1.500000*%
%TD*%
%TA.AperFunction,SMDPad,CuDef*%
%ADD22R,1.500000X0.900000*%
%TD*%
%TA.AperFunction,SMDPad,CuDef*%
%ADD23R,1.473200X0.355600*%
%TD*%
%TA.AperFunction,ComponentPad*%
%ADD24RoundRect,0.250000X0.600000X0.725000X-0.600000X0.725000X-0.600000X-0.725000X0.600000X-0.725000X0*%
%TD*%
%TA.AperFunction,ComponentPad*%
%ADD25O,1.700000X1.950000*%
%TD*%
%TA.AperFunction,SMDPad,CuDef*%
%ADD26RoundRect,0.237500X-0.237500X0.250000X-0.237500X-0.250000X0.237500X-0.250000X0.237500X0.250000X0*%
%TD*%
%TA.AperFunction,SMDPad,CuDef*%
%ADD27RoundRect,0.250000X-0.425000X0.450000X-0.425000X-0.450000X0.425000X-0.450000X0.425000X0.450000X0*%
%TD*%
%TA.AperFunction,ComponentPad*%
%ADD28R,1.508000X1.508000*%
%TD*%
%TA.AperFunction,ComponentPad*%
%ADD29C,1.508000*%
%TD*%
%TA.AperFunction,ComponentPad*%
%ADD30C,1.950000*%
%TD*%
%TA.AperFunction,SMDPad,CuDef*%
%ADD31RoundRect,0.237500X-0.287500X-0.237500X0.287500X-0.237500X0.287500X0.237500X-0.287500X0.237500X0*%
%TD*%
%TA.AperFunction,ComponentPad*%
%ADD32RoundRect,0.250000X0.600000X0.750000X-0.600000X0.750000X-0.600000X-0.750000X0.600000X-0.750000X0*%
%TD*%
%TA.AperFunction,ComponentPad*%
%ADD33O,1.700000X2.000000*%
%TD*%
%TA.AperFunction,SMDPad,CuDef*%
%ADD34RoundRect,0.150000X0.150000X-0.587500X0.150000X0.587500X-0.150000X0.587500X-0.150000X-0.587500X0*%
%TD*%
%TA.AperFunction,ComponentPad*%
%ADD35C,3.500000*%
%TD*%
%TA.AperFunction,ComponentPad*%
%ADD36R,1.524000X1.524000*%
%TD*%
%TA.AperFunction,ComponentPad*%
%ADD37C,1.524000*%
%TD*%
%TA.AperFunction,ViaPad*%
%ADD38C,0.700000*%
%TD*%
%TA.AperFunction,Conductor*%
%ADD39C,1.000000*%
%TD*%
%TA.AperFunction,Conductor*%
%ADD40C,0.800000*%
%TD*%
%TA.AperFunction,Conductor*%
%ADD41C,0.400000*%
%TD*%
%TA.AperFunction,Conductor*%
%ADD42C,0.250000*%
%TD*%
%TA.AperFunction,Conductor*%
%ADD43C,0.200000*%
%TD*%
G04 APERTURE END LIST*
D10*
%TO.P,C21,1*%
%TO.N,/ESP32S3_Minsys/IO0*%
X98200000Y-87237500D03*
%TO.P,C21,2*%
%TO.N,GND*%
X98200000Y-88962500D03*
%TD*%
%TO.P,C3,1*%
%TO.N,/ESP32S3_Minsys/IO27*%
X92975000Y-88612500D03*
%TO.P,C3,2*%
%TO.N,GND*%
X92975000Y-90337500D03*
%TD*%
D11*
%TO.P,U4,1,ADJ*%
%TO.N,GND*%
X91850000Y-104000000D03*
%TO.P,U4,2,VO*%
%TO.N,/ESP32S3_Minsys/3V3*%
X91850000Y-101700000D03*
D12*
X85550000Y-101700000D03*
D11*
%TO.P,U4,3,VI*%
%TO.N,/ESP32S3_Minsys/5V*%
X91850000Y-99400000D03*
%TD*%
D13*
%TO.P,D2,1,K*%
%TO.N,GND*%
X105523000Y-84280000D03*
%TO.P,D2,2,A*%
%TO.N,Net-(D2-A)*%
X103773000Y-84280000D03*
%TD*%
D10*
%TO.P,C10,1*%
%TO.N,GND*%
X98168000Y-90662000D03*
%TO.P,C10,2*%
%TO.N,/ESP32S3_Minsys/3V3*%
X98168000Y-92387000D03*
%TD*%
D14*
%TO.P,R1,1*%
%TO.N,Net-(U3-1A)*%
X75849000Y-95606700D03*
%TO.P,R1,2*%
%TO.N,/ESP32S3_Minsys/MOSI*%
X75849000Y-93781700D03*
%TD*%
D15*
%TO.P,C2,1*%
%TO.N,/ESP32S3_Minsys/3V3*%
X72962500Y-102950000D03*
%TO.P,C2,2*%
%TO.N,GND*%
X71237500Y-102950000D03*
%TD*%
D16*
%TO.P,R15,1*%
%TO.N,/ESP32S3_Minsys/IO32*%
X105473000Y-85852000D03*
%TO.P,R15,2*%
%TO.N,Net-(D11-A)*%
X103648000Y-85852000D03*
%TD*%
D17*
%TO.P,R8,1*%
%TO.N,/ESP32S3_Minsys/ESP_TXD*%
X99887500Y-107350000D03*
%TO.P,R8,2*%
%TO.N,Net-(IC1-TXD0)*%
X101712500Y-107350000D03*
%TD*%
D18*
%TO.P,Q2,1,B*%
%TO.N,Net-(Q2-B)*%
X107593500Y-91294500D03*
%TO.P,Q2,2,E*%
%TO.N,/ESP32S3_Minsys/DTR*%
X105693500Y-91294500D03*
%TO.P,Q2,3,C*%
%TO.N,Net-(Q2-C)*%
X106643500Y-93169500D03*
%TD*%
D10*
%TO.P,C6,1*%
%TO.N,/ESP32S3_Minsys/IO26*%
X88275000Y-88637500D03*
%TO.P,C6,2*%
%TO.N,GND*%
X88275000Y-90362500D03*
%TD*%
D16*
%TO.P,R3,1*%
%TO.N,Net-(U3-3A)*%
X73051500Y-96644200D03*
%TO.P,R3,2*%
%TO.N,/ESP32S3_Minsys/CS*%
X71226500Y-96644200D03*
%TD*%
%TO.P,R12,1*%
%TO.N,Net-(Q2-B)*%
X107570500Y-89312000D03*
%TO.P,R12,2*%
%TO.N,/ESP32S3_Minsys/RTS*%
X105745500Y-89312000D03*
%TD*%
%TO.P,R4,1*%
%TO.N,Net-(U3-4Y)*%
X73062500Y-99150000D03*
%TO.P,R4,2*%
%TO.N,/ESP32S3_Minsys/MISO*%
X71237500Y-99150000D03*
%TD*%
D19*
%TO.P,C20,1*%
%TO.N,/ESP32S3_Minsys/CHIP_PU*%
X98200000Y-99312500D03*
%TO.P,C20,2*%
%TO.N,GND*%
X98200000Y-97587500D03*
%TD*%
D14*
%TO.P,R2,1*%
%TO.N,Net-(U3-2A)*%
X77399000Y-95606700D03*
%TO.P,R2,2*%
%TO.N,/ESP32S3_Minsys/SCK*%
X77399000Y-93781700D03*
%TD*%
D17*
%TO.P,R11,1*%
%TO.N,Net-(Q1-B)*%
X105655500Y-102412000D03*
%TO.P,R11,2*%
%TO.N,/ESP32S3_Minsys/DTR*%
X107480500Y-102412000D03*
%TD*%
D19*
%TO.P,C11,1*%
%TO.N,GND*%
X98188000Y-95817000D03*
%TO.P,C11,2*%
%TO.N,/ESP32S3_Minsys/3V3*%
X98188000Y-94092000D03*
%TD*%
D17*
%TO.P,R19,1*%
%TO.N,/ESP32S3_Minsys/3V3*%
X100179500Y-84280000D03*
%TO.P,R19,2*%
%TO.N,Net-(D2-A)*%
X102004500Y-84280000D03*
%TD*%
D20*
%TO.P,S2,1*%
%TO.N,GND*%
X99928000Y-94892000D03*
%TO.P,S2,2*%
X99928000Y-88592000D03*
%TO.P,S2,3*%
%TO.N,/ESP32S3_Minsys/IO0*%
X103728000Y-94892000D03*
%TO.P,S2,4*%
X103728000Y-88592000D03*
%TD*%
D16*
%TO.P,R14,1*%
%TO.N,Net-(Q2-C)*%
X107530500Y-95087000D03*
%TO.P,R14,2*%
%TO.N,/ESP32S3_Minsys/IO0*%
X105705500Y-95087000D03*
%TD*%
D21*
%TO.P,IC1,1,GND_1*%
%TO.N,GND*%
X127360000Y-87350000D03*
%TO.P,IC1,2,3V3*%
%TO.N,/ESP32S3_Minsys/ESP_3V3*%
X126090000Y-87350000D03*
%TO.P,IC1,3,EN*%
%TO.N,/ESP32S3_Minsys/CHIP_PU*%
X124820000Y-87350000D03*
%TO.P,IC1,4,SENSOR_VP*%
%TO.N,/ESP32S3_Minsys/SVP*%
X123550000Y-87350000D03*
%TO.P,IC1,5,SENSOR_VN*%
%TO.N,/ESP32S3_Minsys/SVN*%
X122280000Y-87350000D03*
%TO.P,IC1,6,IO34*%
%TO.N,/ESP32S3_Minsys/IO34*%
X121010000Y-87350000D03*
%TO.P,IC1,7,IO35*%
%TO.N,/ESP32S3_Minsys/IO35*%
X119740000Y-87350000D03*
%TO.P,IC1,8,IO32*%
%TO.N,/ESP32S3_Minsys/IO32*%
X118470000Y-87350000D03*
%TO.P,IC1,9,IO33*%
%TO.N,/ESP32S3_Minsys/IO33*%
X117200000Y-87350000D03*
%TO.P,IC1,10,IO25*%
%TO.N,/ESP32S3_Minsys/IO25*%
X115930000Y-87350000D03*
%TO.P,IC1,11,IO26*%
%TO.N,/ESP32S3_Minsys/IO26*%
X114660000Y-87350000D03*
%TO.P,IC1,12,IO27*%
%TO.N,/ESP32S3_Minsys/IO27*%
X113390000Y-87350000D03*
%TO.P,IC1,13,IO14*%
%TO.N,/ESP32S3_Minsys/SCK*%
X112120000Y-87350000D03*
%TO.P,IC1,14,IO12*%
%TO.N,/ESP32S3_Minsys/IO12*%
X110850000Y-87350000D03*
D22*
%TO.P,IC1,15,GND_2*%
%TO.N,GND*%
X109600000Y-90385000D03*
%TO.P,IC1,16,IO13*%
%TO.N,/ESP32S3_Minsys/CS*%
X109600000Y-91655000D03*
%TO.P,IC1,17,NC_1*%
%TO.N,unconnected-(IC1-NC_1-Pad17)*%
X109600000Y-92925000D03*
%TO.P,IC1,18,NC_2*%
%TO.N,unconnected-(IC1-NC_2-Pad18)*%
X109600000Y-94195000D03*
%TO.P,IC1,19,NC_3*%
%TO.N,unconnected-(IC1-NC_3-Pad19)*%
X109600000Y-95465000D03*
%TO.P,IC1,20,NC_4*%
%TO.N,unconnected-(IC1-NC_4-Pad20)*%
X109600000Y-96735000D03*
%TO.P,IC1,21,NC_5*%
%TO.N,unconnected-(IC1-NC_5-Pad21)*%
X109600000Y-98005000D03*
%TO.P,IC1,22,NC_6*%
%TO.N,unconnected-(IC1-NC_6-Pad22)*%
X109600000Y-99275000D03*
%TO.P,IC1,23,IO15*%
%TO.N,/ESP32S3_Minsys/MOSI*%
X109600000Y-100545000D03*
%TO.P,IC1,24,IO2*%
%TO.N,/ESP32S3_Minsys/MISO*%
X109600000Y-101815000D03*
D21*
%TO.P,IC1,25,IO0*%
%TO.N,/ESP32S3_Minsys/IO0*%
X110850000Y-104850000D03*
%TO.P,IC1,26,IO4*%
%TO.N,/ESP32S3_Minsys/IO4*%
X112120000Y-104850000D03*
%TO.P,IC1,27,IO16*%
%TO.N,/ESP32S3_Minsys/IO16*%
X113390000Y-104850000D03*
%TO.P,IC1,28,IO17*%
%TO.N,/ESP32S3_Minsys/IO17*%
X114660000Y-104850000D03*
%TO.P,IC1,29,IO5*%
%TO.N,/ESP32S3_Minsys/U1_TXD*%
X115930000Y-104850000D03*
%TO.P,IC1,30,IO18*%
%TO.N,/ESP32S3_Minsys/U1_RXD*%
X117200000Y-104850000D03*
%TO.P,IC1,31,IO19*%
%TO.N,/ESP32S3_Minsys/IO19*%
X118470000Y-104850000D03*
%TO.P,IC1,32,NC_7*%
%TO.N,unconnected-(IC1-NC_7-Pad32)*%
X119740000Y-104850000D03*
%TO.P,IC1,33,IO21*%
%TO.N,/ESP32S3_Minsys/IO21*%
X121010000Y-104850000D03*
%TO.P,IC1,34,RXD0*%
%TO.N,Net-(IC1-RXD0)*%
X122280000Y-104850000D03*
%TO.P,IC1,35,TXD0*%
%TO.N,Net-(IC1-TXD0)*%
X123550000Y-104850000D03*
%TO.P,IC1,36,IO22*%
%TO.N,/ESP32S3_Minsys/SDA*%
X124820000Y-104850000D03*
%TO.P,IC1,37,IO23*%
%TO.N,/ESP32S3_Minsys/SCL*%
X126090000Y-104850000D03*
%TO.P,IC1,38,GND_3*%
%TO.N,GND*%
X127360000Y-104850000D03*
%TD*%
D23*
%TO.P,U3,1,1~{OE}*%
%TO.N,GND*%
X80800000Y-101100000D03*
%TO.P,U3,2,1A*%
%TO.N,Net-(U3-1A)*%
X80800000Y-100439600D03*
%TO.P,U3,3,1Y*%
%TO.N,/ESP32S3_Minsys/SPI_MOSI*%
X80800000Y-99804600D03*
%TO.P,U3,4,2~{OE}*%
%TO.N,GND*%
X80800000Y-99144200D03*
%TO.P,U3,5,2A*%
%TO.N,Net-(U3-2A)*%
X80800000Y-98483800D03*
%TO.P,U3,6,2Y*%
%TO.N,/ESP32S3_Minsys/SPI_CLK*%
X80800000Y-97848800D03*
%TO.P,U3,7,GND*%
%TO.N,GND*%
X80800000Y-97188400D03*
%TO.P,U3,8,3Y*%
%TO.N,/ESP32S3_Minsys/SPI_CS*%
X74958000Y-97188400D03*
%TO.P,U3,9,3A*%
%TO.N,Net-(U3-3A)*%
X74958000Y-97848800D03*
%TO.P,U3,10,3~{OE}*%
%TO.N,GND*%
X74958000Y-98483800D03*
%TO.P,U3,11,4Y*%
%TO.N,Net-(U3-4Y)*%
X74958000Y-99144200D03*
%TO.P,U3,12,4A*%
%TO.N,Net-(U3-4A)*%
X74958000Y-99804600D03*
%TO.P,U3,13,4~{OE}*%
%TO.N,GND*%
X74958000Y-100439600D03*
%TO.P,U3,14,VCC*%
%TO.N,/ESP32S3_Minsys/3V3*%
X74958000Y-101100000D03*
%TD*%
D14*
%TO.P,R18,1*%
%TO.N,Net-(Coral_Dev_Board1-Pin_17)*%
X116250000Y-108412500D03*
%TO.P,R18,2*%
%TO.N,/ESP32S3_Minsys/U1_RXD*%
X116250000Y-106587500D03*
%TD*%
%TO.P,R20,1*%
%TO.N,Net-(Coral_Dev_Board1-Pin_18)*%
X114750000Y-108412500D03*
%TO.P,R20,2*%
%TO.N,/ESP32S3_Minsys/U1_TXD*%
X114750000Y-106587500D03*
%TD*%
D24*
%TO.P,J4,1,Pin_1*%
%TO.N,GND*%
X91700000Y-107900000D03*
D25*
%TO.P,J4,2,Pin_2*%
%TO.N,/ESP32S3_Minsys/RTS*%
X89200000Y-107900000D03*
%TO.P,J4,3,Pin_3*%
%TO.N,/ESP32S3_Minsys/ESP_TXD*%
X86700000Y-107900000D03*
%TO.P,J4,4,Pin_4*%
%TO.N,/ESP32S3_Minsys/ESP_RXD*%
X84200000Y-107900000D03*
%TO.P,J4,5,Pin_5*%
%TO.N,/ESP32S3_Minsys/DTR*%
X81700000Y-107900000D03*
%TO.P,J4,6,Pin_6*%
%TO.N,/ESP32S3_Minsys/3V3*%
X79200000Y-107900000D03*
%TD*%
D26*
%TO.P,R6,1*%
%TO.N,/ESP32S3_Minsys/IO25*%
X79200000Y-88587500D03*
%TO.P,R6,2*%
%TO.N,/ESP32S3_Minsys/3V3*%
X79200000Y-90412500D03*
%TD*%
D27*
%TO.P,C8,1*%
%TO.N,/ESP32S3_Minsys/5V*%
X94300000Y-99550000D03*
%TO.P,C8,2*%
%TO.N,GND*%
X94300000Y-102250000D03*
%TD*%
D26*
%TO.P,R17,1*%
%TO.N,/ESP32S3_Minsys/IO26*%
X89825000Y-88587500D03*
%TO.P,R17,2*%
%TO.N,/ESP32S3_Minsys/3V3*%
X89825000Y-90412500D03*
%TD*%
D20*
%TO.P,S1,1*%
%TO.N,GND*%
X99946000Y-103547000D03*
%TO.P,S1,2*%
X99946000Y-97247000D03*
%TO.P,S1,3*%
%TO.N,/ESP32S3_Minsys/CHIP_PU*%
X103746000Y-103547000D03*
%TO.P,S1,4*%
X103746000Y-97247000D03*
%TD*%
D10*
%TO.P,C4,1*%
%TO.N,/ESP32S3_Minsys/IO25*%
X80750000Y-88637500D03*
%TO.P,C4,2*%
%TO.N,GND*%
X80750000Y-90362500D03*
%TD*%
D17*
%TO.P,R7,1*%
%TO.N,/ESP32S3_Minsys/ESP_RXD*%
X99887500Y-105750000D03*
%TO.P,R7,2*%
%TO.N,Net-(IC1-RXD0)*%
X101712500Y-105750000D03*
%TD*%
D28*
%TO.P,S5,1*%
%TO.N,GND*%
X82300000Y-83500000D03*
D29*
%TO.P,S5,2*%
%TO.N,/ESP32S3_Minsys/IO33*%
X77800000Y-83500000D03*
D30*
%TO.P,S5,SH1*%
%TO.N,N/C*%
X83550000Y-86000000D03*
%TO.P,S5,SH2*%
X76550000Y-86000000D03*
%TD*%
D31*
%TO.P,D11,1,K*%
%TO.N,/ESP32S3_Minsys/3V3*%
X100265500Y-85822000D03*
%TO.P,D11,2,A*%
%TO.N,Net-(D11-A)*%
X102015500Y-85822000D03*
%TD*%
D32*
%TO.P,J1,1,Pin_1*%
%TO.N,/ESP32S3_Minsys/5V*%
X89850000Y-95900000D03*
D33*
%TO.P,J1,2,Pin_2*%
%TO.N,GND*%
X87350000Y-95900000D03*
%TD*%
D16*
%TO.P,R13,1*%
%TO.N,Net-(Q1-C)*%
X107548500Y-96697000D03*
%TO.P,R13,2*%
%TO.N,/ESP32S3_Minsys/CHIP_PU*%
X105723500Y-96697000D03*
%TD*%
%TO.P,R23,1*%
%TO.N,/ESP32S3_Minsys/SPI_MISO*%
X77405000Y-102910000D03*
%TO.P,R23,2*%
%TO.N,Net-(U3-4A)*%
X75580000Y-102910000D03*
%TD*%
D26*
%TO.P,R16,1*%
%TO.N,/ESP32S3_Minsys/IO33*%
X77450000Y-88587500D03*
%TO.P,R16,2*%
%TO.N,/ESP32S3_Minsys/3V3*%
X77450000Y-90412500D03*
%TD*%
D19*
%TO.P,C18,1*%
%TO.N,GND*%
X96150000Y-101162500D03*
%TO.P,C18,2*%
%TO.N,/ESP32S3_Minsys/5V*%
X96150000Y-99437500D03*
%TD*%
D10*
%TO.P,C5,1*%
%TO.N,/ESP32S3_Minsys/IO33*%
X75900000Y-88637500D03*
%TO.P,C5,2*%
%TO.N,GND*%
X75900000Y-90362500D03*
%TD*%
D26*
%TO.P,R5,1*%
%TO.N,/ESP32S3_Minsys/IO27*%
X91400000Y-88587500D03*
%TO.P,R5,2*%
%TO.N,/ESP32S3_Minsys/3V3*%
X91400000Y-90412500D03*
%TD*%
D34*
%TO.P,Q1,1,B*%
%TO.N,Net-(Q1-B)*%
X105660500Y-100479500D03*
%TO.P,Q1,2,E*%
%TO.N,/ESP32S3_Minsys/RTS*%
X107560500Y-100479500D03*
%TO.P,Q1,3,C*%
%TO.N,Net-(Q1-C)*%
X106610500Y-98604500D03*
%TD*%
D35*
%TO.P,Coral_Dev_Board1,*%
%TO.N,*%
X129130000Y-107530000D03*
X129130000Y-84530000D03*
X71130000Y-107530000D03*
X71130000Y-84530000D03*
D36*
%TO.P,Coral_Dev_Board1,1,Pin_1*%
%TO.N,GND*%
X124630000Y-82060000D03*
D37*
%TO.P,Coral_Dev_Board1,2,Pin_2*%
%TO.N,unconnected-(Coral_Dev_Board1-Pin_2-Pad2)*%
X122090000Y-82060000D03*
%TO.P,Coral_Dev_Board1,3,Pin_3*%
%TO.N,Net-(Coral_Dev_Board1-Pin_3)*%
X119550000Y-82060000D03*
%TO.P,Coral_Dev_Board1,4,Pin_4*%
%TO.N,unconnected-(Coral_Dev_Board1-Pin_4-Pad4)*%
X117010000Y-82060000D03*
%TO.P,Coral_Dev_Board1,5,Pin_5*%
%TO.N,Net-(Coral_Dev_Board1-Pin_5)*%
X114470000Y-82060000D03*
%TO.P,Coral_Dev_Board1,6,Pin_6*%
%TO.N,Net-(Coral_Dev_Board1-Pin_6)*%
X111930000Y-82060000D03*
%TO.P,Coral_Dev_Board1,7,Pin_7*%
%TO.N,Net-(Coral_Dev_Board1-Pin_7)*%
X109390000Y-82060000D03*
%TO.P,Coral_Dev_Board1,8,Pin_8*%
%TO.N,Net-(Coral_Dev_Board1-Pin_8)*%
X106850000Y-82060000D03*
%TO.P,Coral_Dev_Board1,9,Pin_9*%
%TO.N,unconnected-(Coral_Dev_Board1-Pin_9-Pad9)*%
X104310000Y-82060000D03*
%TO.P,Coral_Dev_Board1,10,Pin_10*%
%TO.N,Net-(Coral_Dev_Board1-Pin_10)*%
X101770000Y-82060000D03*
%TO.P,Coral_Dev_Board1,11,Pin_11*%
%TO.N,Net-(Coral_Dev_Board1-Pin_11)*%
X99230000Y-82060000D03*
%TO.P,Coral_Dev_Board1,12,Pin_12*%
%TO.N,Net-(Coral_Dev_Board1-Pin_12)*%
X96690000Y-82060000D03*
D36*
%TO.P,Coral_Dev_Board1,13,Pin_13*%
%TO.N,GND*%
X124630000Y-110000000D03*
D37*
%TO.P,Coral_Dev_Board1,14,Pin_14*%
%TO.N,unconnected-(Coral_Dev_Board1-Pin_14-Pad14)*%
X122090000Y-110000000D03*
%TO.P,Coral_Dev_Board1,15,Pin_15*%
%TO.N,Net-(Coral_Dev_Board1-Pin_15)*%
X119550000Y-110000000D03*
%TO.P,Coral_Dev_Board1,16,Pin_16*%
%TO.N,Net-(Coral_Dev_Board1-Pin_16)*%
X117010000Y-110000000D03*
%TO.P,Coral_Dev_Board1,17,Pin_17*%
%TO.N,Net-(Coral_Dev_Board1-Pin_17)*%
X114470000Y-110000000D03*
%TO.P,Coral_Dev_Board1,18,Pin_18*%
%TO.N,Net-(Coral_Dev_Board1-Pin_18)*%
X111930000Y-110000000D03*
%TO.P,Coral_Dev_Board1,19,Pin_19*%
%TO.N,Net-(Coral_Dev_Board1-Pin_19)*%
X109390000Y-110000000D03*
%TO.P,Coral_Dev_Board1,20,Pin_20*%
%TO.N,Net-(Coral_Dev_Board1-Pin_20)*%
X106850000Y-110000000D03*
%TO.P,Coral_Dev_Board1,21,Pin_21*%
%TO.N,Net-(Coral_Dev_Board1-Pin_21)*%
X104310000Y-110000000D03*
%TO.P,Coral_Dev_Board1,22,Pin_22*%
%TO.N,Net-(Coral_Dev_Board1-Pin_22)*%
X101770000Y-110000000D03*
%TO.P,Coral_Dev_Board1,23,Pin_23*%
%TO.N,Net-(Coral_Dev_Board1-Pin_23)*%
X99230000Y-110000000D03*
%TO.P,Coral_Dev_Board1,24,Pin_24*%
%TO.N,Net-(Coral_Dev_Board1-Pin_24)*%
X96690000Y-110000000D03*
%TD*%
D28*
%TO.P,S6,1*%
%TO.N,GND*%
X94150000Y-83500000D03*
D29*
%TO.P,S6,2*%
%TO.N,/ESP32S3_Minsys/IO26*%
X89650000Y-83500000D03*
D30*
%TO.P,S6,SH1*%
%TO.N,N/C*%
X95400000Y-86000000D03*
%TO.P,S6,SH2*%
X88400000Y-86000000D03*
%TD*%
D28*
%TO.P,S4,1*%
%TO.N,GND*%
X75400000Y-83500000D03*
D29*
%TO.P,S4,2*%
%TO.N,/ESP32S3_Minsys/IO25*%
X79900000Y-83500000D03*
D30*
%TO.P,S4,SH1*%
%TO.N,N/C*%
X74150000Y-86000000D03*
%TO.P,S4,SH2*%
X81150000Y-86000000D03*
%TD*%
D28*
%TO.P,S3,1*%
%TO.N,GND*%
X87250000Y-83500000D03*
D29*
%TO.P,S3,2*%
%TO.N,/ESP32S3_Minsys/IO27*%
X91750000Y-83500000D03*
D30*
%TO.P,S3,SH1*%
%TO.N,N/C*%
X86000000Y-86000000D03*
%TO.P,S3,SH2*%
X93000000Y-86000000D03*
%TD*%
D38*
%TO.N,GND*%
X76650000Y-81650000D03*
X99700000Y-104300000D03*
X74600000Y-108850000D03*
X105050000Y-83350000D03*
X73900000Y-108850000D03*
X126200000Y-99350000D03*
X69200000Y-90400000D03*
X68350000Y-97200000D03*
X72150000Y-104150000D03*
X75300000Y-109600000D03*
X93800000Y-81700000D03*
X75300000Y-110350000D03*
X126200000Y-100750000D03*
X75300000Y-108850000D03*
X116550000Y-93300000D03*
X125750000Y-107950000D03*
X125350000Y-84200000D03*
X105750000Y-83350000D03*
X69100000Y-97200000D03*
X112150000Y-96000000D03*
X116050000Y-83700000D03*
X115850000Y-93300000D03*
X75950000Y-81650000D03*
X69200000Y-91100000D03*
X71450000Y-104150000D03*
X126050000Y-84950000D03*
X69100000Y-103450000D03*
X74600000Y-109600000D03*
X73900000Y-110350000D03*
X72150000Y-104900000D03*
X112900000Y-96000000D03*
X70750000Y-88850000D03*
X68450000Y-90400000D03*
X112150000Y-97400000D03*
X73900000Y-109600000D03*
X124350000Y-107200000D03*
X124525000Y-93100000D03*
X72150000Y-88100000D03*
X124150000Y-95025000D03*
X75300000Y-108100000D03*
X68350000Y-102750000D03*
X70750000Y-88100000D03*
X80950000Y-81550000D03*
X70750000Y-104900000D03*
X89050000Y-81700000D03*
X72150000Y-88850000D03*
X106000000Y-87250000D03*
X100400000Y-104300000D03*
X120600000Y-99050000D03*
X105300000Y-87250000D03*
X124650000Y-84200000D03*
X93100000Y-81700000D03*
X70750000Y-104150000D03*
X68350000Y-103450000D03*
X124525000Y-94475000D03*
X116750000Y-83700000D03*
X124525000Y-93775000D03*
X120600000Y-97650000D03*
X100400000Y-103550000D03*
X112900000Y-97400000D03*
X69100000Y-102050000D03*
X68350000Y-96500000D03*
X69100000Y-96500000D03*
X125050000Y-107200000D03*
X68450000Y-91100000D03*
X75250000Y-81650000D03*
X71450000Y-88850000D03*
X117450000Y-83700000D03*
X69100000Y-95800000D03*
X74600000Y-110350000D03*
X99700000Y-103550000D03*
X90450000Y-81700000D03*
X69100000Y-102750000D03*
X68450000Y-91800000D03*
X106700000Y-87250000D03*
X74600000Y-108100000D03*
X126050000Y-84200000D03*
X68350000Y-95800000D03*
X125750000Y-107200000D03*
X125050000Y-107950000D03*
X112150000Y-96700000D03*
X120600000Y-98350000D03*
X69200000Y-91800000D03*
X125350000Y-84950000D03*
X73900000Y-108100000D03*
X81650000Y-81550000D03*
X112900000Y-96700000D03*
X124350000Y-107950000D03*
X124650000Y-84950000D03*
X71450000Y-104900000D03*
X89750000Y-81700000D03*
X92400000Y-81700000D03*
X126200000Y-100050000D03*
X82350000Y-81550000D03*
X68350000Y-102050000D03*
X71450000Y-88100000D03*
%TO.N,/ESP32S3_Minsys/5V*%
X94950000Y-107300000D03*
X95500000Y-107300000D03*
X96600000Y-107300000D03*
X94400000Y-107300000D03*
X96050000Y-107300000D03*
%TO.N,/ESP32S3_Minsys/3V3*%
X85150000Y-100200000D03*
X85150000Y-103250000D03*
X100250000Y-85100000D03*
X85950000Y-102500000D03*
X85950000Y-100200000D03*
X85150000Y-102500000D03*
X91500000Y-90400000D03*
X126075000Y-93250000D03*
X126075000Y-94700000D03*
X126075000Y-93975000D03*
X126050000Y-96150000D03*
X100250000Y-84200000D03*
X89750000Y-90400000D03*
X79300000Y-90350000D03*
X85950000Y-103250000D03*
X77450000Y-90350000D03*
X78400000Y-90350000D03*
X85150000Y-101750000D03*
X85150000Y-100950000D03*
X85950000Y-100950000D03*
X126050000Y-95425000D03*
X98200000Y-93300000D03*
X73200000Y-103100000D03*
X85950000Y-101750000D03*
X90650000Y-90400000D03*
X98200000Y-94200000D03*
X72750000Y-102800000D03*
X98200000Y-92300000D03*
X100250000Y-85900000D03*
%TO.N,/ESP32S3_Minsys/SPI_CS*%
X75050000Y-96750000D03*
%TO.N,/ESP32S3_Minsys/SPI_MOSI*%
X83200000Y-96100000D03*
%TO.N,/ESP32S3_Minsys/SPI_CLK*%
X79100000Y-97550000D03*
%TO.N,/ESP32S3_Minsys/SPI_MISO*%
X77390000Y-102960000D03*
%TO.N,/ESP32S3_Minsys/CHIP_PU*%
X105773500Y-96697000D03*
X124540000Y-91560000D03*
X124845000Y-87575000D03*
X112800000Y-94150000D03*
%TO.N,Net-(Coral_Dev_Board1-Pin_12)*%
X98070000Y-84760000D03*
%TO.N,/ESP32S3_Minsys/RTS*%
X107550000Y-100250000D03*
X101600000Y-98450000D03*
X99500000Y-100850000D03*
%TO.N,/ESP32S3_Minsys/DTR*%
X90250000Y-106600000D03*
X107480500Y-102524500D03*
X102400000Y-102600000D03*
%TO.N,/ESP32S3_Minsys/ESP_RXD*%
X86050000Y-105300000D03*
%TO.N,/ESP32S3_Minsys/ESP_3V3*%
X126150000Y-87700000D03*
X126150000Y-88400000D03*
X126150000Y-87000000D03*
%TO.N,Net-(Coral_Dev_Board1-Pin_16)*%
X116550000Y-97400000D03*
X115875000Y-100625000D03*
%TO.N,/ESP32S3_Minsys/SDA*%
X122410000Y-100312500D03*
%TO.N,/ESP32S3_Minsys/SCL*%
X123940000Y-100332500D03*
%TO.N,/ESP32S3_Minsys/CS*%
X71226500Y-96644200D03*
X110000000Y-91630000D03*
%TO.N,/ESP32S3_Minsys/IO0*%
X101050000Y-96100000D03*
X103728000Y-94892000D03*
X104650000Y-99600000D03*
%TO.N,/ESP32S3_Minsys/SCK*%
X112100000Y-86950000D03*
X77410000Y-93810000D03*
X96150000Y-93150000D03*
X93240000Y-93160000D03*
%TO.N,/ESP32S3_Minsys/MOSI*%
X75849000Y-93781700D03*
X110000000Y-100510000D03*
%TO.N,Net-(Coral_Dev_Board1-Pin_5)*%
X116850000Y-91600000D03*
X111250000Y-91650000D03*
%TO.N,Net-(Coral_Dev_Board1-Pin_6)*%
X108200000Y-83875500D03*
%TO.N,Net-(Coral_Dev_Board1-Pin_7)*%
X114600000Y-100500000D03*
X111250000Y-100550000D03*
%TO.N,Net-(Coral_Dev_Board1-Pin_10)*%
X107050000Y-83950000D03*
X121050000Y-85650000D03*
%TO.N,Net-(Coral_Dev_Board1-Pin_11)*%
X106950000Y-85075500D03*
X119760000Y-85670000D03*
%TO.N,Net-(Coral_Dev_Board1-Pin_20)*%
X113400000Y-106500000D03*
%TO.N,Net-(Coral_Dev_Board1-Pin_21)*%
X106600000Y-107400000D03*
X108350000Y-104850000D03*
%TO.N,Net-(Coral_Dev_Board1-Pin_22)*%
X117100000Y-96350000D03*
X109000000Y-102950000D03*
X104150000Y-107600000D03*
X107100000Y-104750000D03*
%TO.N,Net-(Coral_Dev_Board1-Pin_23)*%
X111950000Y-106550000D03*
%TO.N,/ESP32S3_Minsys/MISO*%
X110000000Y-101800000D03*
X71237500Y-99150000D03*
%TO.N,/ESP32S3_Minsys/SVN*%
X120800000Y-91000000D03*
%TO.N,/ESP32S3_Minsys/IO21*%
X121050000Y-105250000D03*
%TO.N,/ESP32S3_Minsys/IO19*%
X118490000Y-105260000D03*
%TO.N,/ESP32S3_Minsys/IO16*%
X113400000Y-105250000D03*
%TO.N,/ESP32S3_Minsys/IO27*%
X113400000Y-87750000D03*
X96410000Y-88110000D03*
%TO.N,/ESP32S3_Minsys/IO4*%
X112150000Y-105250000D03*
%TO.N,/ESP32S3_Minsys/IO12*%
X110850000Y-86950000D03*
%TO.N,/ESP32S3_Minsys/IO32*%
X118470000Y-87750000D03*
%TO.N,/ESP32S3_Minsys/IO33*%
X112900000Y-91050000D03*
X77450000Y-88637500D03*
%TO.N,/ESP32S3_Minsys/IO25*%
X83830000Y-88370000D03*
X113700000Y-90200000D03*
%TO.N,/ESP32S3_Minsys/IO26*%
X89825000Y-87760000D03*
X109700000Y-88900000D03*
%TO.N,/ESP32S3_Minsys/IO17*%
X114650000Y-104450000D03*
%TO.N,Net-(IC1-RXD0)*%
X117400000Y-107050000D03*
X101662500Y-105750000D03*
%TO.N,/ESP32S3_Minsys/IO34*%
X121050000Y-86950000D03*
%TO.N,/ESP32S3_Minsys/IO35*%
X119750000Y-86950000D03*
%TO.N,Net-(IC1-TXD0)*%
X118100000Y-107800000D03*
X101662500Y-107350000D03*
%TD*%
D39*
%TO.N,/ESP32S3_Minsys/ESP_3V3*%
X126150000Y-87000000D02*
X126150000Y-88400000D01*
D40*
%TO.N,/ESP32S3_Minsys/5V*%
X94950000Y-107300000D02*
X95500000Y-107300000D01*
D39*
X96037500Y-99550000D02*
X96150000Y-99437500D01*
X91850000Y-99400000D02*
X94150000Y-99400000D01*
X94300000Y-99550000D02*
X96037500Y-99550000D01*
X90950000Y-95900000D02*
X91850000Y-96800000D01*
X89850000Y-95900000D02*
X90950000Y-95900000D01*
D40*
X95500000Y-107300000D02*
X96050000Y-107300000D01*
X94400000Y-107300000D02*
X94950000Y-107300000D01*
D39*
X94150000Y-99400000D02*
X94300000Y-99550000D01*
X91850000Y-96800000D02*
X91850000Y-99400000D01*
D40*
X96050000Y-107300000D02*
X96600000Y-107300000D01*
D41*
%TO.N,/ESP32S3_Minsys/3V3*%
X72962500Y-102137500D02*
X72962500Y-102950000D01*
D40*
X100229500Y-84280000D02*
X100229500Y-85786000D01*
D41*
X74958000Y-101100000D02*
X74000000Y-101100000D01*
D40*
X77450000Y-90362500D02*
X79200000Y-90362500D01*
X98188000Y-94092000D02*
X98188000Y-92407000D01*
D41*
X74000000Y-101100000D02*
X72962500Y-102137500D01*
D39*
X91850000Y-101700000D02*
X85550000Y-101700000D01*
D40*
X100229500Y-85786000D02*
X100265500Y-85822000D01*
X91400000Y-90362500D02*
X89825000Y-90362500D01*
X98188000Y-92407000D02*
X98168000Y-92387000D01*
D42*
%TO.N,/ESP32S3_Minsys/SPI_CS*%
X74958000Y-97188400D02*
X74958000Y-96842000D01*
X74958000Y-96842000D02*
X75050000Y-96750000D01*
%TO.N,/ESP32S3_Minsys/SPI_MOSI*%
X83200000Y-98900000D02*
X82295400Y-99804600D01*
X83200000Y-96100000D02*
X83200000Y-98900000D01*
X82295400Y-99804600D02*
X80800000Y-99804600D01*
%TO.N,/ESP32S3_Minsys/SPI_CLK*%
X80800000Y-97848800D02*
X79398800Y-97848800D01*
X79398800Y-97848800D02*
X79100000Y-97550000D01*
%TO.N,Net-(U3-1A)*%
X76650000Y-98650000D02*
X76650000Y-96600000D01*
X76650000Y-96600000D02*
X75849000Y-95799000D01*
X75849000Y-95799000D02*
X75849000Y-95606700D01*
X78439600Y-100439600D02*
X76650000Y-98650000D01*
X80800000Y-100439600D02*
X78439600Y-100439600D01*
%TO.N,Net-(U3-2A)*%
X77399000Y-97199000D02*
X78683800Y-98483800D01*
X77399000Y-95606700D02*
X77399000Y-97199000D01*
X78683800Y-98483800D02*
X80800000Y-98483800D01*
%TO.N,Net-(U3-3A)*%
X74048800Y-97848800D02*
X73051500Y-96851500D01*
X74958000Y-97848800D02*
X74048800Y-97848800D01*
X73051500Y-96851500D02*
X73051500Y-96644200D01*
%TO.N,Net-(U3-4Y)*%
X74958000Y-99144200D02*
X73306700Y-99144200D01*
%TO.N,Net-(Coral_Dev_Board1-Pin_17)*%
X114470000Y-110000000D02*
X115000000Y-110000000D01*
X115000000Y-110000000D02*
X116250000Y-108750000D01*
X116250000Y-108750000D02*
X116250000Y-108362500D01*
%TO.N,/ESP32S3_Minsys/CHIP_PU*%
X103746000Y-103547000D02*
X103746000Y-97247000D01*
X112800000Y-94150000D02*
X112900000Y-94250000D01*
X98200000Y-99312500D02*
X98200000Y-100950000D01*
X101150000Y-102651000D02*
X101150000Y-103200000D01*
X117200000Y-94250000D02*
X119250000Y-92200000D01*
X105223500Y-97247000D02*
X105773500Y-96697000D01*
X119250000Y-92200000D02*
X123900000Y-92200000D01*
X98200000Y-100950000D02*
X99050000Y-101800000D01*
X100299000Y-101800000D02*
X101150000Y-102651000D01*
X103746000Y-97247000D02*
X105223500Y-97247000D01*
X101497000Y-103547000D02*
X103746000Y-103547000D01*
X101150000Y-103200000D02*
X101497000Y-103547000D01*
X99050000Y-101800000D02*
X100299000Y-101800000D01*
X123900000Y-92200000D02*
X124540000Y-91560000D01*
X112900000Y-94250000D02*
X117200000Y-94250000D01*
%TO.N,Net-(D2-A)*%
X101954500Y-84280000D02*
X103773000Y-84280000D01*
%TO.N,Net-(Coral_Dev_Board1-Pin_12)*%
X96690000Y-82060000D02*
X96690000Y-83380000D01*
X96690000Y-83380000D02*
X98070000Y-84760000D01*
%TO.N,Net-(D11-A)*%
X102015500Y-85822000D02*
X103668000Y-85822000D01*
%TO.N,Net-(Q1-B)*%
X105660500Y-100479500D02*
X105660500Y-102367000D01*
%TO.N,/ESP32S3_Minsys/RTS*%
X101600000Y-98450000D02*
X101600000Y-99950000D01*
X105795500Y-89354500D02*
X101800000Y-93350000D01*
X101800000Y-93350000D02*
X101800000Y-98250000D01*
X101800000Y-98250000D02*
X101600000Y-98450000D01*
X105795500Y-89312000D02*
X105795500Y-89354500D01*
X100700000Y-100850000D02*
X99500000Y-100850000D01*
X101600000Y-99950000D02*
X100700000Y-100850000D01*
%TO.N,Net-(Coral_Dev_Board1-Pin_18)*%
X111930000Y-110000000D02*
X113567500Y-108362500D01*
X113567500Y-108362500D02*
X114750000Y-108362500D01*
%TO.N,Net-(Q1-C)*%
X106610500Y-98604500D02*
X106610500Y-98439500D01*
X107498500Y-97551500D02*
X107498500Y-96697000D01*
X106610500Y-98439500D02*
X107498500Y-97551500D01*
%TO.N,Net-(Q2-B)*%
X107520500Y-89312000D02*
X107520500Y-91221500D01*
X107520500Y-91221500D02*
X107593500Y-91294500D01*
%TO.N,/ESP32S3_Minsys/DTR*%
X90250000Y-106600000D02*
X89900000Y-106250000D01*
X105693500Y-91294500D02*
X105005500Y-91294500D01*
X105005500Y-91294500D02*
X102400000Y-93900000D01*
X102400000Y-93900000D02*
X102400000Y-102600000D01*
X83350000Y-106250000D02*
X81700000Y-107900000D01*
X89900000Y-106250000D02*
X83350000Y-106250000D01*
%TO.N,Net-(Q2-C)*%
X107480500Y-95087000D02*
X107480500Y-94006500D01*
X107480500Y-94006500D02*
X106643500Y-93169500D01*
%TO.N,/ESP32S3_Minsys/ESP_RXD*%
X86200000Y-105450000D02*
X86050000Y-105300000D01*
X91850000Y-105750000D02*
X91550000Y-105450000D01*
X91550000Y-105450000D02*
X86200000Y-105450000D01*
X99937500Y-105750000D02*
X91850000Y-105750000D01*
%TO.N,/ESP32S3_Minsys/ESP_TXD*%
X86700000Y-107900000D02*
X88450000Y-109650000D01*
X93300000Y-106900000D02*
X93850000Y-106350000D01*
X92750000Y-109650000D02*
X93300000Y-109100000D01*
X97850000Y-106350000D02*
X98850000Y-107350000D01*
X98850000Y-107350000D02*
X99937500Y-107350000D01*
X93850000Y-106350000D02*
X97850000Y-106350000D01*
X88450000Y-109650000D02*
X92750000Y-109650000D01*
X93300000Y-109100000D02*
X93300000Y-106900000D01*
%TO.N,Net-(Coral_Dev_Board1-Pin_16)*%
X116650000Y-99850000D02*
X115875000Y-100625000D01*
X116650000Y-97500000D02*
X116650000Y-99850000D01*
X116550000Y-97400000D02*
X116650000Y-97500000D01*
%TO.N,/ESP32S3_Minsys/SDA*%
X122410000Y-100660000D02*
X122410000Y-100312500D01*
X124845000Y-103095000D02*
X122410000Y-100660000D01*
X124845000Y-104575000D02*
X124845000Y-103095000D01*
%TO.N,/ESP32S3_Minsys/SCL*%
X126115000Y-104575000D02*
X126115000Y-103015000D01*
X126115000Y-103015000D02*
X123940000Y-100840000D01*
X123940000Y-100840000D02*
X123940000Y-100332500D01*
%TO.N,/ESP32S3_Minsys/IO0*%
X102373500Y-87237500D02*
X103728000Y-88592000D01*
X105400000Y-103850000D02*
X110100000Y-103850000D01*
X104700000Y-103150000D02*
X105400000Y-103850000D01*
X104650000Y-99600000D02*
X104700000Y-99650000D01*
X105560500Y-94892000D02*
X105755500Y-95087000D01*
X110825000Y-104575000D02*
X110875000Y-104575000D01*
X98200000Y-87237500D02*
X102373500Y-87237500D01*
X103728000Y-94892000D02*
X105560500Y-94892000D01*
X101050000Y-93100000D02*
X101050000Y-96100000D01*
X103728000Y-88592000D02*
X103728000Y-90422000D01*
X104700000Y-99650000D02*
X104700000Y-103150000D01*
X101050000Y-93100000D02*
X103728000Y-90422000D01*
X110100000Y-103850000D02*
X110825000Y-104575000D01*
%TO.N,/ESP32S3_Minsys/SCK*%
X93250000Y-93150000D02*
X93240000Y-93160000D01*
X77399000Y-93781700D02*
X77399000Y-93799000D01*
X112145000Y-87575000D02*
X112145000Y-86845000D01*
X77399000Y-93799000D02*
X77410000Y-93810000D01*
X96150000Y-93150000D02*
X93250000Y-93150000D01*
%TO.N,Net-(Coral_Dev_Board1-Pin_5)*%
X116350000Y-92100000D02*
X112230000Y-92100000D01*
X116850000Y-91600000D02*
X116350000Y-92100000D01*
X111760000Y-91630000D02*
X111270000Y-91630000D01*
X111270000Y-91630000D02*
X111250000Y-91650000D01*
X112230000Y-92100000D02*
X111760000Y-91630000D01*
%TO.N,Net-(Coral_Dev_Board1-Pin_6)*%
X108200000Y-83875500D02*
X111224500Y-83875500D01*
X111224500Y-83875500D02*
X111930000Y-83170000D01*
X111930000Y-83170000D02*
X111930000Y-82060000D01*
%TO.N,Net-(Coral_Dev_Board1-Pin_7)*%
X114550000Y-100550000D02*
X111250000Y-100550000D01*
X114600000Y-100500000D02*
X114550000Y-100550000D01*
%TO.N,Net-(Coral_Dev_Board1-Pin_10)*%
X107000000Y-84000000D02*
X107050000Y-83950000D01*
X121050000Y-85650000D02*
X120000000Y-84600000D01*
X107550000Y-84600000D02*
X106950000Y-84000000D01*
X106950000Y-84000000D02*
X107000000Y-84000000D01*
X120000000Y-84600000D02*
X107550000Y-84600000D01*
%TO.N,Net-(Coral_Dev_Board1-Pin_11)*%
X107050000Y-85200000D02*
X106950000Y-85100000D01*
X106950000Y-85100000D02*
X106950000Y-85075500D01*
X119760000Y-85670000D02*
X119290000Y-85200000D01*
X119290000Y-85200000D02*
X107050000Y-85200000D01*
%TO.N,Net-(Coral_Dev_Board1-Pin_20)*%
X108400000Y-108450000D02*
X106850000Y-110000000D01*
X113400000Y-106500000D02*
X111450000Y-108450000D01*
X111450000Y-108450000D02*
X108400000Y-108450000D01*
%TO.N,Net-(Coral_Dev_Board1-Pin_21)*%
X108350000Y-105650000D02*
X108350000Y-104850000D01*
X106600000Y-107400000D02*
X108350000Y-105650000D01*
%TO.N,Net-(Coral_Dev_Board1-Pin_22)*%
X107100000Y-104750000D02*
X104250000Y-107600000D01*
X117350000Y-96600000D02*
X117350000Y-100550000D01*
X115050000Y-102850000D02*
X109100000Y-102850000D01*
X109100000Y-102850000D02*
X109000000Y-102950000D01*
X104250000Y-107600000D02*
X104150000Y-107600000D01*
X117350000Y-100550000D02*
X115050000Y-102850000D01*
X117100000Y-96350000D02*
X117350000Y-96600000D01*
%TO.N,Net-(Coral_Dev_Board1-Pin_23)*%
X107250000Y-108500000D02*
X100730000Y-108500000D01*
X111950000Y-106550000D02*
X110700000Y-107800000D01*
X107950000Y-107800000D02*
X107250000Y-108500000D01*
X100730000Y-108500000D02*
X99230000Y-110000000D01*
X110700000Y-107800000D02*
X107950000Y-107800000D01*
%TO.N,/ESP32S3_Minsys/U1_RXD*%
X116250000Y-106637500D02*
X116662500Y-106637500D01*
X116662500Y-106637500D02*
X117225000Y-106075000D01*
X117225000Y-106075000D02*
X117225000Y-104575000D01*
%TO.N,/ESP32S3_Minsys/U1_TXD*%
X115955000Y-105432500D02*
X115955000Y-104575000D01*
X114750000Y-106637500D02*
X115955000Y-105432500D01*
D43*
%TO.N,/ESP32S3_Minsys/SVN*%
X121150000Y-91000000D02*
X120800000Y-91000000D01*
X122305000Y-89845000D02*
X121150000Y-91000000D01*
X122305000Y-87575000D02*
X122305000Y-89845000D01*
D42*
%TO.N,/ESP32S3_Minsys/IO21*%
X121035000Y-104575000D02*
X121035000Y-105235000D01*
X121035000Y-105235000D02*
X121050000Y-105250000D01*
%TO.N,/ESP32S3_Minsys/IO19*%
X118495000Y-104575000D02*
X118495000Y-105255000D01*
X118495000Y-105255000D02*
X118490000Y-105260000D01*
%TO.N,/ESP32S3_Minsys/IO16*%
X113415000Y-105235000D02*
X113400000Y-105250000D01*
X113415000Y-104575000D02*
X113415000Y-105235000D01*
%TO.N,/ESP32S3_Minsys/IO27*%
X91400000Y-88637500D02*
X91400000Y-87700000D01*
X91750000Y-84520000D02*
X91750000Y-83500000D01*
X92975000Y-88612500D02*
X94847500Y-88612500D01*
X94847500Y-88612500D02*
X95460000Y-88000000D01*
X91190000Y-87490000D02*
X91190000Y-85080000D01*
X91400000Y-88637500D02*
X92950000Y-88637500D01*
X91400000Y-87700000D02*
X91190000Y-87490000D01*
X95460000Y-88000000D02*
X96180000Y-88000000D01*
X91190000Y-85080000D02*
X91750000Y-84520000D01*
X96300000Y-88000000D02*
X96410000Y-88110000D01*
X92950000Y-88637500D02*
X92975000Y-88612500D01*
X96180000Y-88000000D02*
X96300000Y-88000000D01*
%TO.N,/ESP32S3_Minsys/IO4*%
X112145000Y-104575000D02*
X112145000Y-105245000D01*
X112145000Y-105245000D02*
X112150000Y-105250000D01*
%TO.N,/ESP32S3_Minsys/IO12*%
X110875000Y-87575000D02*
X110875000Y-86865000D01*
%TO.N,/ESP32S3_Minsys/IO32*%
X118495000Y-87325000D02*
X118495000Y-86300000D01*
X118470000Y-87350000D02*
X118495000Y-87325000D01*
X117995000Y-85800000D02*
X105475000Y-85800000D01*
X118495000Y-86300000D02*
X117995000Y-85800000D01*
X105475000Y-85800000D02*
X105423000Y-85852000D01*
%TO.N,/ESP32S3_Minsys/IO33*%
X78330000Y-85280000D02*
X77800000Y-84750000D01*
X75900000Y-88637500D02*
X77450000Y-88637500D01*
X77800000Y-84750000D02*
X77800000Y-83500000D01*
X78330000Y-87280000D02*
X78330000Y-85280000D01*
X77450000Y-88637500D02*
X77450000Y-88160000D01*
X113000000Y-91150000D02*
X116000000Y-91150000D01*
X77450000Y-88160000D02*
X78330000Y-87280000D01*
X117225000Y-89925000D02*
X117225000Y-87575000D01*
X116000000Y-91150000D02*
X117225000Y-89925000D01*
X112900000Y-91050000D02*
X113000000Y-91150000D01*
%TO.N,/ESP32S3_Minsys/IO25*%
X79900000Y-84580000D02*
X79900000Y-83500000D01*
X80750000Y-88637500D02*
X83562500Y-88637500D01*
X115955000Y-89295000D02*
X115955000Y-87575000D01*
X83562500Y-88637500D02*
X83830000Y-88370000D01*
X79200000Y-88637500D02*
X80750000Y-88637500D01*
X79200000Y-88637500D02*
X79200000Y-85280000D01*
X115050000Y-90200000D02*
X115955000Y-89295000D01*
X113700000Y-90200000D02*
X115050000Y-90200000D01*
X79200000Y-85280000D02*
X79900000Y-84580000D01*
%TO.N,/ESP32S3_Minsys/IO26*%
X88275000Y-88637500D02*
X89825000Y-88637500D01*
X90130000Y-84980000D02*
X89650000Y-84500000D01*
X90130000Y-87010000D02*
X90130000Y-84980000D01*
X110050000Y-89250000D02*
X114100000Y-89250000D01*
X89825000Y-87760000D02*
X89825000Y-87315000D01*
X114100000Y-89250000D02*
X114685000Y-88665000D01*
X109700000Y-88900000D02*
X110050000Y-89250000D01*
X114685000Y-88665000D02*
X114685000Y-87575000D01*
X89650000Y-84500000D02*
X89650000Y-83500000D01*
X89825000Y-87315000D02*
X90130000Y-87010000D01*
X89825000Y-88637500D02*
X89825000Y-87760000D01*
%TO.N,Net-(IC1-RXD0)*%
X121955000Y-106500000D02*
X122305000Y-106150000D01*
X122305000Y-106150000D02*
X122305000Y-104575000D01*
X117950000Y-106500000D02*
X121955000Y-106500000D01*
X117400000Y-107050000D02*
X117950000Y-106500000D01*
%TO.N,/ESP32S3_Minsys/IO34*%
X121035000Y-87575000D02*
X121035000Y-86875000D01*
%TO.N,/ESP32S3_Minsys/IO35*%
X119765000Y-87575000D02*
X119765000Y-86875000D01*
%TO.N,Net-(U3-4A)*%
X76610000Y-101430000D02*
X75580000Y-102460000D01*
X76610000Y-100130000D02*
X76610000Y-101430000D01*
X75580000Y-102460000D02*
X75580000Y-102910000D01*
X74958000Y-99804600D02*
X76284600Y-99804600D01*
X76284600Y-99804600D02*
X76610000Y-100130000D01*
%TO.N,Net-(IC1-TXD0)*%
X122450000Y-107300000D02*
X123575000Y-106175000D01*
X118600000Y-107300000D02*
X122450000Y-107300000D01*
X118100000Y-107800000D02*
X118600000Y-107300000D01*
X123575000Y-106175000D02*
X123575000Y-104575000D01*
%TD*%
%TA.AperFunction,Conductor*%
%TO.N,GND*%
G36*
X95959640Y-81075185D02*
G01*
X96005395Y-81127989D01*
X96015339Y-81197147D01*
X95986314Y-81260703D01*
X95971266Y-81275353D01*
X95935063Y-81305063D01*
X95802291Y-81466846D01*
X95703629Y-81651428D01*
X95642872Y-81851715D01*
X95622359Y-82060000D01*
X95642872Y-82268284D01*
X95673250Y-82368427D01*
X95703628Y-82468569D01*
X95784021Y-82618974D01*
X95802291Y-82653153D01*
X95935063Y-82814936D01*
X96052510Y-82911322D01*
X96096850Y-82947711D01*
X96198954Y-83002287D01*
X96248797Y-83051249D01*
X96264499Y-83111643D01*
X96264500Y-83312607D01*
X96264499Y-83447391D01*
X96264500Y-83447394D01*
X96271962Y-83470358D01*
X96276503Y-83489273D01*
X96278202Y-83499999D01*
X96280281Y-83513127D01*
X96291243Y-83534641D01*
X96298688Y-83552615D01*
X96306150Y-83575579D01*
X96320341Y-83595111D01*
X96330508Y-83611703D01*
X96341469Y-83633216D01*
X96341471Y-83633219D01*
X96341472Y-83633220D01*
X96365446Y-83657193D01*
X96365446Y-83657194D01*
X96882752Y-84174500D01*
X97378403Y-84670151D01*
X97411888Y-84731474D01*
X97414722Y-84757832D01*
X97414721Y-84760000D01*
X97433762Y-84916818D01*
X97486923Y-85056990D01*
X97489780Y-85064523D01*
X97579517Y-85194530D01*
X97697760Y-85299283D01*
X97697762Y-85299284D01*
X97837634Y-85372696D01*
X97991014Y-85410500D01*
X97991015Y-85410500D01*
X98148985Y-85410500D01*
X98302365Y-85372696D01*
X98309954Y-85368713D01*
X98442240Y-85299283D01*
X98560483Y-85194530D01*
X98650220Y-85064523D01*
X98706237Y-84916818D01*
X98725278Y-84760000D01*
X98724913Y-84756989D01*
X98706237Y-84603181D01*
X98674030Y-84518259D01*
X98650220Y-84455477D01*
X98560483Y-84325470D01*
X98442240Y-84220717D01*
X98442238Y-84220716D01*
X98442237Y-84220715D01*
X98302365Y-84147303D01*
X98148986Y-84109500D01*
X98148985Y-84109500D01*
X98072610Y-84109500D01*
X98005571Y-84089815D01*
X97984929Y-84073181D01*
X97151819Y-83240071D01*
X97118334Y-83178748D01*
X97115500Y-83152390D01*
X97115500Y-83111644D01*
X97135185Y-83044605D01*
X97181045Y-83002286D01*
X97283150Y-82947711D01*
X97444936Y-82814936D01*
X97577711Y-82653150D01*
X97676372Y-82468569D01*
X97737127Y-82268286D01*
X97757641Y-82060000D01*
X97737127Y-81851714D01*
X97676372Y-81651431D01*
X97577711Y-81466850D01*
X97567171Y-81454007D01*
X97444936Y-81305063D01*
X97408734Y-81275353D01*
X97369400Y-81217607D01*
X97367529Y-81147763D01*
X97403717Y-81087994D01*
X97466473Y-81057279D01*
X97487399Y-81055500D01*
X98432601Y-81055500D01*
X98499640Y-81075185D01*
X98545395Y-81127989D01*
X98555339Y-81197147D01*
X98526314Y-81260703D01*
X98511266Y-81275353D01*
X98475063Y-81305063D01*
X98342291Y-81466846D01*
X98243629Y-81651428D01*
X98182872Y-81851715D01*
X98162359Y-82060000D01*
X98182872Y-82268284D01*
X98213250Y-82368427D01*
X98243628Y-82468569D01*
X98324021Y-82618974D01*
X98342291Y-82653153D01*
X98475063Y-82814936D01*
X98592510Y-82911322D01*
X98636850Y-82947711D01*
X98821431Y-83046372D01*
X99021714Y-83107127D01*
X99230000Y-83127641D01*
X99438286Y-83107127D01*
X99638569Y-83046372D01*
X99823150Y-82947711D01*
X99984936Y-82814936D01*
X100117711Y-82653150D01*
X100216372Y-82468569D01*
X100277127Y-82268286D01*
X100297641Y-82060000D01*
X100277127Y-81851714D01*
X100216372Y-81651431D01*
X100117711Y-81466850D01*
X100107171Y-81454007D01*
X99984936Y-81305063D01*
X99948734Y-81275353D01*
X99909400Y-81217607D01*
X99907529Y-81147763D01*
X99943717Y-81087994D01*
X100006473Y-81057279D01*
X100027399Y-81055500D01*
X100972601Y-81055500D01*
X101039640Y-81075185D01*
X101085395Y-81127989D01*
X101095339Y-81197147D01*
X101066314Y-81260703D01*
X101051266Y-81275353D01*
X101015063Y-81305063D01*
X100882291Y-81466846D01*
X100783629Y-81651428D01*
X100722872Y-81851715D01*
X100702359Y-82060000D01*
X100722872Y-82268284D01*
X100753250Y-82368427D01*
X100783628Y-82468569D01*
X100864021Y-82618974D01*
X100882291Y-82653153D01*
X101015063Y-82814936D01*
X101132510Y-82911322D01*
X101176850Y-82947711D01*
X101361431Y-83046372D01*
X101561714Y-83107127D01*
X101770000Y-83127641D01*
X101978286Y-83107127D01*
X102178569Y-83046372D01*
X102363150Y-82947711D01*
X102524936Y-82814936D01*
X102657711Y-82653150D01*
X102756372Y-82468569D01*
X102817127Y-82268286D01*
X102837641Y-82060000D01*
X102817127Y-81851714D01*
X102756372Y-81651431D01*
X102657711Y-81466850D01*
X102647171Y-81454007D01*
X102524936Y-81305063D01*
X102488734Y-81275353D01*
X102449400Y-81217607D01*
X102447529Y-81147763D01*
X102483717Y-81087994D01*
X102546473Y-81057279D01*
X102567399Y-81055500D01*
X103512601Y-81055500D01*
X103579640Y-81075185D01*
X103625395Y-81127989D01*
X103635339Y-81197147D01*
X103606314Y-81260703D01*
X103591266Y-81275353D01*
X103555063Y-81305063D01*
X103422291Y-81466846D01*
X103323629Y-81651428D01*
X103262872Y-81851715D01*
X103242359Y-82059999D01*
X103262872Y-82268284D01*
X103293250Y-82368427D01*
X103323628Y-82468569D01*
X103404021Y-82618974D01*
X103422291Y-82653153D01*
X103555063Y-82814936D01*
X103672510Y-82911322D01*
X103716850Y-82947711D01*
X103901431Y-83046372D01*
X104101714Y-83107127D01*
X104310000Y-83127641D01*
X104518286Y-83107127D01*
X104718569Y-83046372D01*
X104903150Y-82947711D01*
X105064936Y-82814936D01*
X105197711Y-82653150D01*
X105296372Y-82468569D01*
X105357127Y-82268286D01*
X105377641Y-82060000D01*
X105357127Y-81851714D01*
X105296372Y-81651431D01*
X105197711Y-81466850D01*
X105187171Y-81454007D01*
X105064936Y-81305063D01*
X105028734Y-81275353D01*
X104989400Y-81217607D01*
X104987529Y-81147763D01*
X105023717Y-81087994D01*
X105086473Y-81057279D01*
X105107399Y-81055500D01*
X106052601Y-81055500D01*
X106119640Y-81075185D01*
X106165395Y-81127989D01*
X106175339Y-81197147D01*
X106146314Y-81260703D01*
X106131266Y-81275353D01*
X106095063Y-81305063D01*
X105962291Y-81466846D01*
X105863629Y-81651428D01*
X105802872Y-81851715D01*
X105782359Y-82059999D01*
X105802872Y-82268284D01*
X105833250Y-82368427D01*
X105863628Y-82468569D01*
X105944021Y-82618974D01*
X105962291Y-82653153D01*
X106095063Y-82814936D01*
X106212510Y-82911322D01*
X106256850Y-82947711D01*
X106441431Y-83046372D01*
X106641714Y-83107127D01*
X106746702Y-83117467D01*
X106811489Y-83143628D01*
X106851848Y-83200662D01*
X106854965Y-83270462D01*
X106819851Y-83330867D01*
X106792175Y-83350666D01*
X106677761Y-83410716D01*
X106636363Y-83447391D01*
X106610439Y-83470358D01*
X106559516Y-83515471D01*
X106469781Y-83645475D01*
X106469780Y-83645476D01*
X106413762Y-83793181D01*
X106394722Y-83949999D01*
X106394722Y-83950000D01*
X106413762Y-84106818D01*
X106467781Y-84249251D01*
X106469780Y-84254523D01*
X106484222Y-84275446D01*
X106559518Y-84384532D01*
X106560607Y-84385761D01*
X106561119Y-84386851D01*
X106563778Y-84390703D01*
X106563137Y-84391145D01*
X106590324Y-84448996D01*
X106581136Y-84518259D01*
X106550013Y-84560797D01*
X106459518Y-84640968D01*
X106369781Y-84770975D01*
X106369780Y-84770976D01*
X106313762Y-84918681D01*
X106294722Y-85075499D01*
X106294722Y-85075503D01*
X106299193Y-85112332D01*
X106287731Y-85181255D01*
X106240826Y-85233040D01*
X106173370Y-85251246D01*
X106106780Y-85230092D01*
X106101172Y-85226080D01*
X105989160Y-85141139D01*
X105989158Y-85141138D01*
X105851577Y-85086883D01*
X105851576Y-85086882D01*
X105851574Y-85086882D01*
X105765119Y-85076500D01*
X105765118Y-85076500D01*
X105180882Y-85076500D01*
X105180881Y-85076500D01*
X105094425Y-85086882D01*
X105094424Y-85086882D01*
X104956839Y-85141139D01*
X104838999Y-85230499D01*
X104749639Y-85348339D01*
X104695382Y-85485924D01*
X104695382Y-85485925D01*
X104685000Y-85572381D01*
X104685000Y-86131618D01*
X104695382Y-86218074D01*
X104695382Y-86218075D01*
X104695383Y-86218077D01*
X104749324Y-86354863D01*
X104749639Y-86355660D01*
X104838999Y-86473500D01*
X104951208Y-86558590D01*
X104956842Y-86562862D01*
X105094423Y-86617117D01*
X105135642Y-86622067D01*
X105180881Y-86627500D01*
X105180882Y-86627500D01*
X105765119Y-86627500D01*
X105789591Y-86624561D01*
X105851577Y-86617117D01*
X105989158Y-86562862D01*
X106107000Y-86473500D01*
X106196362Y-86355658D01*
X106216729Y-86304008D01*
X106259635Y-86248866D01*
X106325543Y-86225673D01*
X106332084Y-86225500D01*
X110050741Y-86225500D01*
X110117780Y-86245185D01*
X110163535Y-86297989D01*
X110173479Y-86367147D01*
X110153040Y-86419578D01*
X110147793Y-86427236D01*
X110102415Y-86530006D01*
X110102415Y-86530008D01*
X110099500Y-86555131D01*
X110099500Y-88144856D01*
X110099501Y-88144872D01*
X110100982Y-88157638D01*
X110089149Y-88226498D01*
X110041966Y-88278030D01*
X109974413Y-88295873D01*
X109939669Y-88289014D01*
X109939649Y-88289099D01*
X109937838Y-88288652D01*
X109933843Y-88287864D01*
X109932365Y-88287303D01*
X109778986Y-88249500D01*
X109778985Y-88249500D01*
X109621015Y-88249500D01*
X109621014Y-88249500D01*
X109467634Y-88287303D01*
X109327762Y-88360715D01*
X109209516Y-88465471D01*
X109119781Y-88595475D01*
X109119780Y-88595476D01*
X109063762Y-88743181D01*
X109044722Y-88899999D01*
X109044722Y-88900000D01*
X109063762Y-89056818D01*
X109109971Y-89178658D01*
X109119780Y-89204523D01*
X109209517Y-89334530D01*
X109327760Y-89439283D01*
X109327762Y-89439284D01*
X109467634Y-89512696D01*
X109621014Y-89550500D01*
X109621015Y-89550500D01*
X109697389Y-89550500D01*
X109764428Y-89570185D01*
X109785070Y-89586819D01*
X109796777Y-89598526D01*
X109796779Y-89598527D01*
X109796780Y-89598528D01*
X109818296Y-89609491D01*
X109834878Y-89619653D01*
X109854419Y-89633850D01*
X109877383Y-89641311D01*
X109895362Y-89648757D01*
X109916874Y-89659719D01*
X109940721Y-89663495D01*
X109959643Y-89668039D01*
X109982601Y-89675499D01*
X109982607Y-89675500D01*
X110016512Y-89675500D01*
X113035357Y-89675500D01*
X113102396Y-89695185D01*
X113148151Y-89747989D01*
X113158095Y-89817147D01*
X113137407Y-89869940D01*
X113119780Y-89895475D01*
X113119780Y-89895476D01*
X113063762Y-90043181D01*
X113044722Y-90199999D01*
X113044722Y-90200000D01*
X113052074Y-90260554D01*
X113040613Y-90329478D01*
X112993709Y-90381263D01*
X112928978Y-90399500D01*
X112821014Y-90399500D01*
X112667634Y-90437303D01*
X112527762Y-90510715D01*
X112409516Y-90615471D01*
X112319781Y-90745475D01*
X112319780Y-90745476D01*
X112263762Y-90893181D01*
X112244722Y-91049999D01*
X112244722Y-91050000D01*
X112264667Y-91214264D01*
X112263338Y-91214425D01*
X112260613Y-91276312D01*
X112220290Y-91333372D01*
X112155519Y-91359573D01*
X112086865Y-91346597D01*
X112055607Y-91323859D01*
X112013218Y-91281470D01*
X111991703Y-91270508D01*
X111975110Y-91260340D01*
X111955580Y-91246150D01*
X111932615Y-91238688D01*
X111914641Y-91231243D01*
X111893127Y-91220281D01*
X111888010Y-91219470D01*
X111869273Y-91216503D01*
X111850358Y-91211962D01*
X111827394Y-91204500D01*
X111827393Y-91204500D01*
X111793488Y-91204500D01*
X111775127Y-91204500D01*
X111708088Y-91184815D01*
X111692900Y-91173316D01*
X111622240Y-91110717D01*
X111622238Y-91110716D01*
X111622237Y-91110715D01*
X111482365Y-91037303D01*
X111328986Y-90999500D01*
X111328985Y-90999500D01*
X111171015Y-90999500D01*
X111171014Y-90999500D01*
X111017634Y-91037303D01*
X110877762Y-91110715D01*
X110831677Y-91151542D01*
X110768443Y-91181262D01*
X110699180Y-91172077D01*
X110645877Y-91126904D01*
X110636021Y-91108820D01*
X110602206Y-91032235D01*
X110522765Y-90952794D01*
X110510329Y-90947303D01*
X110419992Y-90907415D01*
X110394865Y-90904500D01*
X108805143Y-90904500D01*
X108805117Y-90904502D01*
X108780012Y-90907413D01*
X108780008Y-90907415D01*
X108677235Y-90952793D01*
X108597794Y-91032234D01*
X108552415Y-91135006D01*
X108552415Y-91135008D01*
X108549500Y-91160131D01*
X108549500Y-92149856D01*
X108549502Y-92149882D01*
X108552413Y-92174987D01*
X108552414Y-92174988D01*
X108552414Y-92174990D01*
X108552415Y-92174991D01*
X108565290Y-92204150D01*
X108581081Y-92239914D01*
X108590152Y-92309192D01*
X108581081Y-92340084D01*
X108552415Y-92405006D01*
X108552415Y-92405008D01*
X108549500Y-92430131D01*
X108549500Y-93419856D01*
X108549502Y-93419882D01*
X108552413Y-93444987D01*
X108552414Y-93444988D01*
X108581081Y-93509914D01*
X108590152Y-93579192D01*
X108581081Y-93610084D01*
X108552415Y-93675006D01*
X108552415Y-93675008D01*
X108549500Y-93700131D01*
X108549500Y-94680579D01*
X108529815Y-94747618D01*
X108477011Y-94793373D01*
X108407853Y-94803317D01*
X108344297Y-94774292D01*
X108310145Y-94726069D01*
X108308117Y-94720927D01*
X108308117Y-94720923D01*
X108253862Y-94583342D01*
X108243517Y-94569700D01*
X108164500Y-94465499D01*
X108046660Y-94376139D01*
X108046656Y-94376137D01*
X107984509Y-94351629D01*
X107929366Y-94308723D01*
X107906173Y-94242815D01*
X107906000Y-94236275D01*
X107906000Y-93939106D01*
X107905999Y-93939101D01*
X107898539Y-93916143D01*
X107893995Y-93897219D01*
X107890219Y-93873374D01*
X107879257Y-93851862D01*
X107871809Y-93833879D01*
X107870695Y-93830451D01*
X107864350Y-93810919D01*
X107850153Y-93791378D01*
X107839991Y-93774796D01*
X107829028Y-93753280D01*
X107733720Y-93657972D01*
X107280319Y-93204571D01*
X107246834Y-93143248D01*
X107244000Y-93116890D01*
X107244000Y-92527730D01*
X107241146Y-92497301D01*
X107240345Y-92495011D01*
X107240253Y-92493210D01*
X107239536Y-92489927D01*
X107240079Y-92489808D01*
X107236784Y-92425232D01*
X107271513Y-92364605D01*
X107333507Y-92332378D01*
X107368964Y-92330599D01*
X107389234Y-92332500D01*
X107797770Y-92332500D01*
X107828199Y-92329646D01*
X107828201Y-92329646D01*
X107906535Y-92302235D01*
X107956382Y-92284793D01*
X108065650Y-92204150D01*
X108146293Y-92094882D01*
X108181408Y-91994530D01*
X108191146Y-91966701D01*
X108191146Y-91966699D01*
X108194000Y-91936269D01*
X108194000Y-90652730D01*
X108191146Y-90622300D01*
X108191146Y-90622298D01*
X108152101Y-90510717D01*
X108146293Y-90494118D01*
X108065650Y-90384850D01*
X107996364Y-90333715D01*
X107954115Y-90278069D01*
X107946000Y-90233949D01*
X107946000Y-90162721D01*
X107965686Y-90095683D01*
X108018490Y-90049929D01*
X108024490Y-90047377D01*
X108086658Y-90022862D01*
X108204500Y-89933500D01*
X108293862Y-89815658D01*
X108348117Y-89678077D01*
X108358500Y-89591618D01*
X108358500Y-89032382D01*
X108348117Y-88945923D01*
X108293862Y-88808342D01*
X108293860Y-88808339D01*
X108204500Y-88690499D01*
X108086660Y-88601139D01*
X108086658Y-88601138D01*
X107949077Y-88546883D01*
X107949076Y-88546882D01*
X107949074Y-88546882D01*
X107862619Y-88536500D01*
X107862618Y-88536500D01*
X107278382Y-88536500D01*
X107278381Y-88536500D01*
X107191925Y-88546882D01*
X107191924Y-88546882D01*
X107054339Y-88601139D01*
X106936499Y-88690499D01*
X106847139Y-88808339D01*
X106792882Y-88945924D01*
X106792882Y-88945925D01*
X106782500Y-89032381D01*
X106782500Y-89591618D01*
X106792882Y-89678074D01*
X106792882Y-89678075D01*
X106800499Y-89697389D01*
X106826935Y-89764428D01*
X106847139Y-89815660D01*
X106936499Y-89933500D01*
X107045924Y-90016479D01*
X107087447Y-90072671D01*
X107094999Y-90115283D01*
X107095000Y-90379750D01*
X107075316Y-90446789D01*
X107070770Y-90453383D01*
X107040709Y-90494113D01*
X107040706Y-90494119D01*
X106995853Y-90622298D01*
X106995853Y-90622300D01*
X106993000Y-90652730D01*
X106993000Y-91936269D01*
X106995853Y-91966699D01*
X106995854Y-91966704D01*
X106996656Y-91968995D01*
X106996747Y-91970793D01*
X106997464Y-91974073D01*
X106996920Y-91974191D01*
X107000213Y-92038774D01*
X106965480Y-92099399D01*
X106903485Y-92131622D01*
X106868037Y-92133401D01*
X106847766Y-92131500D01*
X106439234Y-92131500D01*
X106423352Y-92132989D01*
X106418962Y-92133401D01*
X106350378Y-92120060D01*
X106299894Y-92071757D01*
X106283538Y-92003829D01*
X106290347Y-91968984D01*
X106291146Y-91966699D01*
X106294000Y-91936269D01*
X106294000Y-90652730D01*
X106291146Y-90622300D01*
X106291146Y-90622298D01*
X106252101Y-90510717D01*
X106246293Y-90494118D01*
X106165650Y-90384850D01*
X106165648Y-90384849D01*
X106165648Y-90384848D01*
X106052720Y-90301504D01*
X106010469Y-90245857D01*
X106005010Y-90176201D01*
X106038077Y-90114651D01*
X106099171Y-90080750D01*
X106111547Y-90078621D01*
X106124077Y-90077117D01*
X106261658Y-90022862D01*
X106379500Y-89933500D01*
X106468862Y-89815658D01*
X106523117Y-89678077D01*
X106533500Y-89591618D01*
X106533500Y-89032382D01*
X106523117Y-88945923D01*
X106468862Y-88808342D01*
X106468860Y-88808339D01*
X106379500Y-88690499D01*
X106261660Y-88601139D01*
X106261658Y-88601138D01*
X106124077Y-88546883D01*
X106124076Y-88546882D01*
X106124074Y-88546882D01*
X106037619Y-88536500D01*
X106037618Y-88536500D01*
X105453382Y-88536500D01*
X105453381Y-88536500D01*
X105366925Y-88546882D01*
X105366924Y-88546882D01*
X105229339Y-88601139D01*
X105111499Y-88690499D01*
X105022139Y-88808339D01*
X104967882Y-88945924D01*
X104967882Y-88945925D01*
X104957499Y-89032381D01*
X104957500Y-89539390D01*
X104937815Y-89606429D01*
X104921181Y-89627071D01*
X104365181Y-90183071D01*
X104303858Y-90216556D01*
X104234166Y-90211572D01*
X104178233Y-90169700D01*
X104153816Y-90104236D01*
X104153500Y-90095390D01*
X104153500Y-89866437D01*
X104173185Y-89799398D01*
X104225989Y-89753643D01*
X104270367Y-89742642D01*
X104272837Y-89742499D01*
X104272864Y-89742499D01*
X104276858Y-89742035D01*
X104297987Y-89739586D01*
X104297988Y-89739585D01*
X104297991Y-89739585D01*
X104400765Y-89694206D01*
X104480206Y-89614765D01*
X104525585Y-89511991D01*
X104528500Y-89486865D01*
X104528499Y-87697136D01*
X104528497Y-87697117D01*
X104525586Y-87672012D01*
X104525585Y-87672010D01*
X104525585Y-87672009D01*
X104480206Y-87569235D01*
X104400765Y-87489794D01*
X104368576Y-87475581D01*
X104297992Y-87444415D01*
X104272868Y-87441500D01*
X103230610Y-87441500D01*
X103163571Y-87421815D01*
X103142929Y-87405181D01*
X102668135Y-86930387D01*
X102668131Y-86930381D01*
X102626721Y-86888973D01*
X102626720Y-86888972D01*
X102605196Y-86878005D01*
X102588612Y-86867841D01*
X102569081Y-86853651D01*
X102569080Y-86853650D01*
X102546115Y-86846188D01*
X102528141Y-86838743D01*
X102506627Y-86827781D01*
X102501510Y-86826970D01*
X102482773Y-86824003D01*
X102463855Y-86819461D01*
X102451395Y-86815412D01*
X102393721Y-86775972D01*
X102366525Y-86711612D01*
X102378442Y-86642767D01*
X102425688Y-86591292D01*
X102444217Y-86582132D01*
X102569158Y-86532862D01*
X102687000Y-86443500D01*
X102691243Y-86437905D01*
X102740321Y-86373186D01*
X102796513Y-86331662D01*
X102866234Y-86327110D01*
X102927348Y-86360974D01*
X102937929Y-86373185D01*
X103013999Y-86473500D01*
X103126208Y-86558590D01*
X103131842Y-86562862D01*
X103269423Y-86617117D01*
X103310642Y-86622067D01*
X103355881Y-86627500D01*
X103355882Y-86627500D01*
X103940119Y-86627500D01*
X103964591Y-86624561D01*
X104026577Y-86617117D01*
X104164158Y-86562862D01*
X104282000Y-86473500D01*
X104371362Y-86355658D01*
X104425617Y-86218077D01*
X104436000Y-86131618D01*
X104436000Y-85572382D01*
X104434764Y-85562094D01*
X104426489Y-85493182D01*
X104425617Y-85485923D01*
X104371362Y-85348342D01*
X104369189Y-85345477D01*
X104282001Y-85230501D01*
X104281998Y-85230499D01*
X104265101Y-85217685D01*
X104223579Y-85161493D01*
X104219028Y-85091772D01*
X104252893Y-85030658D01*
X104294537Y-85003528D01*
X104326658Y-84990862D01*
X104444500Y-84901500D01*
X104533862Y-84783658D01*
X104588117Y-84646077D01*
X104598500Y-84559618D01*
X104598500Y-84000382D01*
X104588117Y-83913923D01*
X104533862Y-83776342D01*
X104533860Y-83776339D01*
X104444500Y-83658499D01*
X104326660Y-83569139D01*
X104326658Y-83569138D01*
X104189077Y-83514883D01*
X104189076Y-83514882D01*
X104189074Y-83514882D01*
X104102619Y-83504500D01*
X104102618Y-83504500D01*
X103443382Y-83504500D01*
X103443381Y-83504500D01*
X103356925Y-83514882D01*
X103356924Y-83514882D01*
X103219339Y-83569139D01*
X103101499Y-83658499D01*
X103012137Y-83776342D01*
X103007980Y-83783736D01*
X103006776Y-83783059D01*
X102969371Y-83831134D01*
X102903463Y-83854327D01*
X102896922Y-83854500D01*
X102843078Y-83854500D01*
X102776039Y-83834815D01*
X102730284Y-83782011D01*
X102727904Y-83776417D01*
X102727862Y-83776342D01*
X102638500Y-83658499D01*
X102520660Y-83569139D01*
X102520658Y-83569138D01*
X102383077Y-83514883D01*
X102383076Y-83514882D01*
X102383074Y-83514882D01*
X102296619Y-83504500D01*
X102296618Y-83504500D01*
X101712382Y-83504500D01*
X101712381Y-83504500D01*
X101625925Y-83514882D01*
X101625924Y-83514882D01*
X101488339Y-83569139D01*
X101370499Y-83658499D01*
X101281139Y-83776339D01*
X101226882Y-83913924D01*
X101226882Y-83913925D01*
X101216500Y-84000381D01*
X101216500Y-84559618D01*
X101226882Y-84646074D01*
X101226882Y-84646075D01*
X101241575Y-84683334D01*
X101278902Y-84777989D01*
X101281139Y-84783660D01*
X101370499Y-84901500D01*
X101424102Y-84942148D01*
X101465625Y-84998340D01*
X101470177Y-85068062D01*
X101436312Y-85129176D01*
X101424102Y-85139756D01*
X101343999Y-85200499D01*
X101254639Y-85318339D01*
X101250482Y-85325734D01*
X101248548Y-85324647D01*
X101212946Y-85370403D01*
X101147037Y-85393595D01*
X101079053Y-85377472D01*
X101030578Y-85327154D01*
X101027386Y-85320163D01*
X101026360Y-85318339D01*
X100955195Y-85224493D01*
X100930372Y-85159181D01*
X100929999Y-85149568D01*
X100929999Y-84961634D01*
X100929999Y-84738400D01*
X100938645Y-84692917D01*
X100957117Y-84646077D01*
X100967500Y-84559618D01*
X100967500Y-84000382D01*
X100957117Y-83913923D01*
X100902862Y-83776342D01*
X100902860Y-83776339D01*
X100813500Y-83658499D01*
X100695660Y-83569139D01*
X100695658Y-83569138D01*
X100558077Y-83514883D01*
X100558076Y-83514882D01*
X100558074Y-83514882D01*
X100471619Y-83504500D01*
X100471618Y-83504500D01*
X99887382Y-83504500D01*
X99887381Y-83504500D01*
X99800925Y-83514882D01*
X99800924Y-83514882D01*
X99663339Y-83569139D01*
X99545499Y-83658499D01*
X99456139Y-83776339D01*
X99401882Y-83913924D01*
X99401882Y-83913925D01*
X99391500Y-84000381D01*
X99391500Y-84559618D01*
X99401882Y-84646074D01*
X99401882Y-84646075D01*
X99446409Y-84758987D01*
X99456138Y-84783658D01*
X99503804Y-84846516D01*
X99528627Y-84911826D01*
X99529000Y-84921440D01*
X99529000Y-85244516D01*
X99509315Y-85311555D01*
X99504904Y-85317866D01*
X99504641Y-85318334D01*
X99450382Y-85455924D01*
X99450382Y-85455925D01*
X99440000Y-85542381D01*
X99440000Y-86101618D01*
X99450382Y-86188074D01*
X99450382Y-86188075D01*
X99473816Y-86247500D01*
X99494323Y-86299502D01*
X99504639Y-86325660D01*
X99593999Y-86443500D01*
X99711839Y-86532860D01*
X99711842Y-86532862D01*
X99711846Y-86532863D01*
X99711845Y-86532863D01*
X99812726Y-86572646D01*
X99867870Y-86615551D01*
X99891063Y-86681459D01*
X99874942Y-86749444D01*
X99824625Y-86797920D01*
X99767236Y-86812000D01*
X99050724Y-86812000D01*
X98983685Y-86792315D01*
X98937930Y-86739511D01*
X98935377Y-86733509D01*
X98910862Y-86671342D01*
X98898509Y-86655052D01*
X98821500Y-86553499D01*
X98703660Y-86464139D01*
X98703658Y-86464138D01*
X98566077Y-86409883D01*
X98566076Y-86409882D01*
X98566074Y-86409882D01*
X98479619Y-86399500D01*
X98479618Y-86399500D01*
X97920382Y-86399500D01*
X97920381Y-86399500D01*
X97833925Y-86409882D01*
X97833924Y-86409882D01*
X97696339Y-86464139D01*
X97578499Y-86553499D01*
X97489139Y-86671339D01*
X97434882Y-86808924D01*
X97434882Y-86808925D01*
X97424500Y-86895381D01*
X97424500Y-87579618D01*
X97434882Y-87666074D01*
X97434882Y-87666075D01*
X97447131Y-87697136D01*
X97487449Y-87799376D01*
X97489139Y-87803660D01*
X97578499Y-87921500D01*
X97696339Y-88010860D01*
X97696342Y-88010862D01*
X97833923Y-88065117D01*
X97891562Y-88072039D01*
X97920381Y-88075500D01*
X97920382Y-88075500D01*
X98479619Y-88075500D01*
X98501232Y-88072904D01*
X98566077Y-88065117D01*
X98703658Y-88010862D01*
X98821500Y-87921500D01*
X98910862Y-87803658D01*
X98935370Y-87741509D01*
X98978275Y-87686366D01*
X99044182Y-87663173D01*
X99050724Y-87663000D01*
X102145890Y-87663000D01*
X102212929Y-87682685D01*
X102233571Y-87699319D01*
X102891181Y-88356929D01*
X102924666Y-88418252D01*
X102927500Y-88444610D01*
X102927500Y-89486856D01*
X102927502Y-89486882D01*
X102930413Y-89511987D01*
X102930415Y-89511991D01*
X102975793Y-89614764D01*
X102975794Y-89614764D01*
X102975794Y-89614765D01*
X103055235Y-89694206D01*
X103158009Y-89739585D01*
X103183135Y-89742500D01*
X103183150Y-89742499D01*
X103185647Y-89742645D01*
X103186253Y-89742861D01*
X103186694Y-89742913D01*
X103186682Y-89743014D01*
X103251440Y-89766161D01*
X103294076Y-89821514D01*
X103302500Y-89866439D01*
X103302500Y-90194390D01*
X103282815Y-90261429D01*
X103266181Y-90282071D01*
X100796780Y-92751472D01*
X100701471Y-92846780D01*
X100690510Y-92868293D01*
X100680346Y-92884878D01*
X100666152Y-92904414D01*
X100666151Y-92904417D01*
X100658688Y-92927385D01*
X100651243Y-92945358D01*
X100640280Y-92966873D01*
X100636503Y-92990722D01*
X100631962Y-93009639D01*
X100624500Y-93032604D01*
X100624500Y-95552092D01*
X100604815Y-95619131D01*
X100582728Y-95644907D01*
X100559517Y-95665469D01*
X100559515Y-95665472D01*
X100469781Y-95795475D01*
X100469780Y-95795476D01*
X100413762Y-95943181D01*
X100394722Y-96099999D01*
X100394722Y-96100000D01*
X100413762Y-96256818D01*
X100457223Y-96371413D01*
X100469780Y-96404523D01*
X100559517Y-96534530D01*
X100677760Y-96639283D01*
X100677762Y-96639284D01*
X100817634Y-96712696D01*
X100971014Y-96750500D01*
X100971015Y-96750500D01*
X101128983Y-96750500D01*
X101128985Y-96750500D01*
X101220828Y-96727863D01*
X101290627Y-96730932D01*
X101347689Y-96771252D01*
X101373894Y-96836021D01*
X101374500Y-96848260D01*
X101374500Y-97758740D01*
X101354815Y-97825779D01*
X101308127Y-97868536D01*
X101227761Y-97910716D01*
X101109516Y-98015471D01*
X101019781Y-98145475D01*
X101019780Y-98145476D01*
X100963762Y-98293181D01*
X100944722Y-98449999D01*
X100944722Y-98450000D01*
X100963762Y-98606818D01*
X101011083Y-98731591D01*
X101019780Y-98754523D01*
X101037446Y-98780117D01*
X101109515Y-98884528D01*
X101109516Y-98884529D01*
X101109517Y-98884530D01*
X101132727Y-98905092D01*
X101169853Y-98964279D01*
X101174500Y-98997907D01*
X101174500Y-99722389D01*
X101154815Y-99789428D01*
X101138181Y-99810070D01*
X100560071Y-100388181D01*
X100498748Y-100421666D01*
X100472390Y-100424500D01*
X100047702Y-100424500D01*
X99980663Y-100404815D01*
X99965482Y-100393321D01*
X99885840Y-100322765D01*
X99872237Y-100310714D01*
X99732365Y-100237303D01*
X99578986Y-100199500D01*
X99578985Y-100199500D01*
X99421015Y-100199500D01*
X99421014Y-100199500D01*
X99267634Y-100237303D01*
X99127762Y-100310715D01*
X99009516Y-100415471D01*
X98919781Y-100545475D01*
X98919780Y-100545476D01*
X98865442Y-100688754D01*
X98823264Y-100744457D01*
X98757666Y-100768514D01*
X98689476Y-100753287D01*
X98640343Y-100703611D01*
X98625500Y-100644783D01*
X98625500Y-100201077D01*
X98645185Y-100134038D01*
X98697989Y-100088283D01*
X98703583Y-100085903D01*
X98703652Y-100085864D01*
X98703658Y-100085862D01*
X98821500Y-99996500D01*
X98910862Y-99878658D01*
X98965117Y-99741077D01*
X98975500Y-99654618D01*
X98975500Y-98970382D01*
X98974155Y-98959186D01*
X98968706Y-98913806D01*
X98965117Y-98883923D01*
X98910862Y-98746342D01*
X98910860Y-98746339D01*
X98821500Y-98628499D01*
X98703660Y-98539139D01*
X98703658Y-98539138D01*
X98566077Y-98484883D01*
X98566076Y-98484882D01*
X98566074Y-98484882D01*
X98479619Y-98474500D01*
X98479618Y-98474500D01*
X97920382Y-98474500D01*
X97920381Y-98474500D01*
X97833925Y-98484882D01*
X97833924Y-98484882D01*
X97696339Y-98539139D01*
X97578499Y-98628499D01*
X97489139Y-98746339D01*
X97434882Y-98883924D01*
X97434882Y-98883925D01*
X97424500Y-98970381D01*
X97424500Y-99654618D01*
X97434882Y-99741074D01*
X97434882Y-99741075D01*
X97447557Y-99773217D01*
X97488397Y-99876780D01*
X97489139Y-99878660D01*
X97578499Y-99996500D01*
X97696339Y-100085860D01*
X97696342Y-100085862D01*
X97696343Y-100085862D01*
X97703734Y-100090018D01*
X97703056Y-100091222D01*
X97751129Y-100128621D01*
X97774327Y-100194528D01*
X97774500Y-100201077D01*
X97774500Y-101017394D01*
X97781962Y-101040358D01*
X97786503Y-101059273D01*
X97787409Y-101064991D01*
X97790281Y-101083127D01*
X97801243Y-101104641D01*
X97808688Y-101122615D01*
X97816150Y-101145579D01*
X97816151Y-101145581D01*
X97828586Y-101162696D01*
X97830341Y-101165111D01*
X97840508Y-101181703D01*
X97851469Y-101203216D01*
X97851471Y-101203219D01*
X97851472Y-101203220D01*
X97875446Y-101227193D01*
X97875446Y-101227194D01*
X98701471Y-102053219D01*
X98701472Y-102053220D01*
X98796780Y-102148528D01*
X98818294Y-102159490D01*
X98834884Y-102169656D01*
X98854420Y-102183850D01*
X98877383Y-102191311D01*
X98895359Y-102198756D01*
X98916874Y-102209719D01*
X98940728Y-102213496D01*
X98959639Y-102218036D01*
X98982607Y-102225500D01*
X99016512Y-102225500D01*
X100071390Y-102225500D01*
X100138429Y-102245185D01*
X100159071Y-102261819D01*
X100688181Y-102790928D01*
X100721666Y-102852251D01*
X100724500Y-102878609D01*
X100724500Y-103267394D01*
X100731962Y-103290358D01*
X100736503Y-103309273D01*
X100737581Y-103316077D01*
X100740281Y-103333127D01*
X100751243Y-103354641D01*
X100758688Y-103372615D01*
X100765084Y-103392297D01*
X100766151Y-103395581D01*
X100780341Y-103415111D01*
X100790508Y-103431703D01*
X100801469Y-103453216D01*
X100801471Y-103453219D01*
X100801472Y-103453220D01*
X100825446Y-103477193D01*
X100825446Y-103477194D01*
X100987536Y-103639283D01*
X101141401Y-103793148D01*
X101141404Y-103793152D01*
X101148472Y-103800220D01*
X101243780Y-103895528D01*
X101265301Y-103906493D01*
X101281880Y-103916653D01*
X101301419Y-103930849D01*
X101324381Y-103938309D01*
X101342354Y-103945753D01*
X101363874Y-103956719D01*
X101387724Y-103960495D01*
X101406645Y-103965039D01*
X101428489Y-103972136D01*
X101429607Y-103972500D01*
X101463512Y-103972500D01*
X102821501Y-103972500D01*
X102888540Y-103992185D01*
X102934295Y-104044989D01*
X102945501Y-104096500D01*
X102945501Y-104441856D01*
X102945502Y-104441882D01*
X102948413Y-104466987D01*
X102948415Y-104466991D01*
X102993793Y-104569764D01*
X102993794Y-104569765D01*
X103073235Y-104649206D01*
X103176009Y-104694585D01*
X103201135Y-104697500D01*
X104290864Y-104697499D01*
X104290879Y-104697497D01*
X104290882Y-104697497D01*
X104315987Y-104694586D01*
X104315988Y-104694585D01*
X104315991Y-104694585D01*
X104418765Y-104649206D01*
X104498206Y-104569765D01*
X104543585Y-104466991D01*
X104546500Y-104441865D01*
X104546499Y-103897607D01*
X104566183Y-103830570D01*
X104618987Y-103784815D01*
X104688146Y-103774871D01*
X104751702Y-103803896D01*
X104758180Y-103809928D01*
X105051472Y-104103220D01*
X105146780Y-104198528D01*
X105168300Y-104209493D01*
X105184875Y-104219649D01*
X105204419Y-104233849D01*
X105227381Y-104241309D01*
X105245354Y-104248753D01*
X105266874Y-104259719D01*
X105290724Y-104263495D01*
X105309645Y-104268039D01*
X105331489Y-104275136D01*
X105332607Y-104275500D01*
X105366512Y-104275500D01*
X106404599Y-104275500D01*
X106471638Y-104295185D01*
X106517393Y-104347989D01*
X106527337Y-104417147D01*
X106520541Y-104443471D01*
X106463762Y-104593181D01*
X106444722Y-104749999D01*
X106444722Y-104752166D01*
X106444273Y-104753693D01*
X106443818Y-104757445D01*
X106443194Y-104757369D01*
X106425037Y-104819205D01*
X106408403Y-104839847D01*
X104333889Y-106914361D01*
X104272566Y-106947846D01*
X104231269Y-106949777D01*
X104228987Y-106949500D01*
X104228985Y-106949500D01*
X104071015Y-106949500D01*
X104071014Y-106949500D01*
X103917634Y-106987303D01*
X103777762Y-107060715D01*
X103659516Y-107165471D01*
X103569781Y-107295475D01*
X103569780Y-107295476D01*
X103513762Y-107443181D01*
X103494722Y-107599999D01*
X103494722Y-107600000D01*
X103513762Y-107756818D01*
X103550488Y-107853654D01*
X103566677Y-107896342D01*
X103570541Y-107906529D01*
X103575908Y-107976192D01*
X103542761Y-108037698D01*
X103481622Y-108071520D01*
X103454599Y-108074500D01*
X102518046Y-108074500D01*
X102451007Y-108054815D01*
X102405252Y-108002011D01*
X102395308Y-107932853D01*
X102419242Y-107875575D01*
X102435860Y-107853660D01*
X102435862Y-107853658D01*
X102490117Y-107716077D01*
X102500500Y-107629618D01*
X102500500Y-107070382D01*
X102490117Y-106983923D01*
X102435862Y-106846342D01*
X102435860Y-106846339D01*
X102346500Y-106728499D01*
X102267105Y-106668293D01*
X102241403Y-106648802D01*
X102199881Y-106592612D01*
X102195329Y-106522891D01*
X102229193Y-106461777D01*
X102241399Y-106451199D01*
X102346500Y-106371500D01*
X102435862Y-106253658D01*
X102490117Y-106116077D01*
X102500500Y-106029618D01*
X102500500Y-105470382D01*
X102490117Y-105383923D01*
X102435862Y-105246342D01*
X102385877Y-105180426D01*
X102346500Y-105128499D01*
X102228660Y-105039139D01*
X102228658Y-105039138D01*
X102091077Y-104984883D01*
X102091076Y-104984882D01*
X102091074Y-104984882D01*
X102004619Y-104974500D01*
X102004618Y-104974500D01*
X101420382Y-104974500D01*
X101420381Y-104974500D01*
X101333925Y-104984882D01*
X101333924Y-104984882D01*
X101196339Y-105039139D01*
X101078499Y-105128499D01*
X100989139Y-105246339D01*
X100934882Y-105383924D01*
X100934882Y-105383925D01*
X100924500Y-105470381D01*
X100924500Y-106029618D01*
X100934882Y-106116074D01*
X100934882Y-106116075D01*
X100947770Y-106148756D01*
X100986902Y-106247989D01*
X100989139Y-106253660D01*
X101078499Y-106371500D01*
X101183595Y-106451196D01*
X101225118Y-106507388D01*
X101229670Y-106577109D01*
X101195805Y-106638224D01*
X101183595Y-106648804D01*
X101078499Y-106728499D01*
X100989139Y-106846339D01*
X100934882Y-106983924D01*
X100934882Y-106983925D01*
X100924500Y-107070381D01*
X100924500Y-107629618D01*
X100934882Y-107716074D01*
X100934882Y-107716075D01*
X100934883Y-107716077D01*
X100989136Y-107853654D01*
X100989139Y-107853660D01*
X101005758Y-107875575D01*
X101030581Y-107940886D01*
X101016153Y-108009250D01*
X100967056Y-108058961D01*
X100906954Y-108074500D01*
X100693046Y-108074500D01*
X100626007Y-108054815D01*
X100580252Y-108002011D01*
X100570308Y-107932853D01*
X100594242Y-107875575D01*
X100610860Y-107853660D01*
X100610862Y-107853658D01*
X100665117Y-107716077D01*
X100675500Y-107629618D01*
X100675500Y-107070382D01*
X100665117Y-106983923D01*
X100610862Y-106846342D01*
X100610860Y-106846339D01*
X100521500Y-106728499D01*
X100442105Y-106668293D01*
X100416403Y-106648802D01*
X100374881Y-106592612D01*
X100370329Y-106522891D01*
X100404193Y-106461777D01*
X100416399Y-106451199D01*
X100521500Y-106371500D01*
X100610862Y-106253658D01*
X100665117Y-106116077D01*
X100675500Y-106029618D01*
X100675500Y-105470382D01*
X100665117Y-105383923D01*
X100610862Y-105246342D01*
X100560877Y-105180426D01*
X100521500Y-105128499D01*
X100403660Y-105039139D01*
X100403658Y-105039138D01*
X100266077Y-104984883D01*
X100266076Y-104984882D01*
X100266074Y-104984882D01*
X100179619Y-104974500D01*
X100179618Y-104974500D01*
X99595382Y-104974500D01*
X99595381Y-104974500D01*
X99508925Y-104984882D01*
X99508924Y-104984882D01*
X99371339Y-105039139D01*
X99253499Y-105128499D01*
X99164137Y-105246342D01*
X99159980Y-105253736D01*
X99158776Y-105253059D01*
X99121371Y-105301134D01*
X99055463Y-105324327D01*
X99048922Y-105324500D01*
X92077609Y-105324500D01*
X92010570Y-105304815D01*
X91989933Y-105288185D01*
X91827194Y-105125446D01*
X91803220Y-105101472D01*
X91803218Y-105101470D01*
X91781703Y-105090508D01*
X91765110Y-105080340D01*
X91745580Y-105066150D01*
X91722615Y-105058688D01*
X91704641Y-105051243D01*
X91683127Y-105040281D01*
X91678010Y-105039470D01*
X91659273Y-105036503D01*
X91640358Y-105031962D01*
X91617394Y-105024500D01*
X91617393Y-105024500D01*
X91583488Y-105024500D01*
X86715333Y-105024500D01*
X86648294Y-105004815D01*
X86613283Y-104970940D01*
X86540483Y-104865470D01*
X86464024Y-104797734D01*
X86422240Y-104760717D01*
X86422238Y-104760716D01*
X86422237Y-104760715D01*
X86282365Y-104687303D01*
X86128986Y-104649500D01*
X86128985Y-104649500D01*
X85971015Y-104649500D01*
X85971014Y-104649500D01*
X85817634Y-104687303D01*
X85677762Y-104760715D01*
X85559516Y-104865471D01*
X85469781Y-104995475D01*
X85469780Y-104995476D01*
X85413762Y-105143181D01*
X85394722Y-105299999D01*
X85394722Y-105300000D01*
X85413762Y-105456818D01*
X85469780Y-105604523D01*
X85469780Y-105604524D01*
X85487407Y-105630060D01*
X85509290Y-105696414D01*
X85491825Y-105764066D01*
X85440557Y-105811536D01*
X85385357Y-105824500D01*
X83282604Y-105824500D01*
X83259639Y-105831962D01*
X83240722Y-105836503D01*
X83216873Y-105840280D01*
X83195358Y-105851243D01*
X83177386Y-105858688D01*
X83154418Y-105866151D01*
X83154416Y-105866152D01*
X83134884Y-105880343D01*
X83118299Y-105890506D01*
X83096782Y-105901469D01*
X83096780Y-105901471D01*
X83072805Y-105925447D01*
X82302806Y-106695444D01*
X82241483Y-106728929D01*
X82171791Y-106723945D01*
X82170331Y-106723390D01*
X82138787Y-106711170D01*
X82016198Y-106663679D01*
X81806610Y-106624500D01*
X81593390Y-106624500D01*
X81383802Y-106663679D01*
X81383799Y-106663679D01*
X81383799Y-106663680D01*
X81184982Y-106740701D01*
X81184980Y-106740702D01*
X81003699Y-106852947D01*
X80846127Y-106996593D01*
X80717632Y-107166746D01*
X80622596Y-107357605D01*
X80622596Y-107357607D01*
X80569266Y-107545039D01*
X80531986Y-107604132D01*
X80468676Y-107633689D01*
X80399437Y-107624327D01*
X80346251Y-107579017D01*
X80330734Y-107545039D01*
X80310933Y-107475447D01*
X80277405Y-107357611D01*
X80277403Y-107357606D01*
X80277403Y-107357605D01*
X80182367Y-107166746D01*
X80053872Y-106996593D01*
X80053872Y-106996592D01*
X79896302Y-106852948D01*
X79715019Y-106740702D01*
X79715017Y-106740701D01*
X79548921Y-106676356D01*
X79516198Y-106663679D01*
X79306610Y-106624500D01*
X79093390Y-106624500D01*
X78883802Y-106663679D01*
X78883799Y-106663679D01*
X78883799Y-106663680D01*
X78684982Y-106740701D01*
X78684980Y-106740702D01*
X78503699Y-106852947D01*
X78346127Y-106996593D01*
X78217632Y-107166746D01*
X78122596Y-107357605D01*
X78122596Y-107357607D01*
X78065915Y-107556818D01*
X78064244Y-107562690D01*
X78049500Y-107721806D01*
X78049500Y-108078194D01*
X78064244Y-108237310D01*
X78114146Y-108412696D01*
X78122596Y-108442392D01*
X78122596Y-108442394D01*
X78217632Y-108633253D01*
X78342778Y-108798971D01*
X78346128Y-108803407D01*
X78503698Y-108947052D01*
X78684981Y-109059298D01*
X78883802Y-109136321D01*
X79093390Y-109175500D01*
X79093392Y-109175500D01*
X79306608Y-109175500D01*
X79306610Y-109175500D01*
X79516198Y-109136321D01*
X79715019Y-109059298D01*
X79896302Y-108947052D01*
X80053872Y-108803407D01*
X80182366Y-108633255D01*
X80246756Y-108503942D01*
X80277403Y-108442394D01*
X80277403Y-108442393D01*
X80277405Y-108442389D01*
X80330734Y-108254959D01*
X80368014Y-108195867D01*
X80431323Y-108166310D01*
X80500563Y-108175672D01*
X80553749Y-108220982D01*
X80569265Y-108254959D01*
X80614146Y-108412696D01*
X80622596Y-108442392D01*
X80622596Y-108442394D01*
X80717632Y-108633253D01*
X80842778Y-108798971D01*
X80846128Y-108803407D01*
X81003698Y-108947052D01*
X81184981Y-109059298D01*
X81383802Y-109136321D01*
X81593390Y-109175500D01*
X81593392Y-109175500D01*
X81806608Y-109175500D01*
X81806610Y-109175500D01*
X82016198Y-109136321D01*
X82215019Y-109059298D01*
X82396302Y-108947052D01*
X82553872Y-108803407D01*
X82682366Y-108633255D01*
X82746756Y-108503942D01*
X82777403Y-108442394D01*
X82777403Y-108442393D01*
X82777405Y-108442389D01*
X82830734Y-108254959D01*
X82868014Y-108195867D01*
X82931323Y-108166310D01*
X83000563Y-108175672D01*
X83053749Y-108220982D01*
X83069265Y-108254959D01*
X83114146Y-108412696D01*
X83122596Y-108442392D01*
X83122596Y-108442394D01*
X83217632Y-108633253D01*
X83342778Y-108798971D01*
X83346128Y-108803407D01*
X83503698Y-108947052D01*
X83684981Y-109059298D01*
X83883802Y-109136321D01*
X84093390Y-109175500D01*
X84093392Y-109175500D01*
X84306608Y-109175500D01*
X84306610Y-109175500D01*
X84516198Y-109136321D01*
X84715019Y-109059298D01*
X84896302Y-108947052D01*
X85053872Y-108803407D01*
X85182366Y-108633255D01*
X85246756Y-108503942D01*
X85277403Y-108442394D01*
X85277403Y-108442393D01*
X85277405Y-108442389D01*
X85330734Y-108254959D01*
X85368014Y-108195867D01*
X85431323Y-108166310D01*
X85500563Y-108175672D01*
X85553749Y-108220982D01*
X85569265Y-108254959D01*
X85614146Y-108412696D01*
X85622596Y-108442392D01*
X85622596Y-108442394D01*
X85717632Y-108633253D01*
X85842778Y-108798971D01*
X85846128Y-108803407D01*
X86003698Y-108947052D01*
X86184981Y-109059298D01*
X86383802Y-109136321D01*
X86593390Y-109175500D01*
X86593392Y-109175500D01*
X86806608Y-109175500D01*
X86806610Y-109175500D01*
X87016198Y-109136321D01*
X87170334Y-109076608D01*
X87239955Y-109070747D01*
X87301695Y-109103457D01*
X87302807Y-109104555D01*
X88101472Y-109903220D01*
X88196780Y-109998528D01*
X88218296Y-110009491D01*
X88234878Y-110019653D01*
X88238977Y-110022631D01*
X88254419Y-110033850D01*
X88277383Y-110041311D01*
X88295362Y-110048757D01*
X88316874Y-110059719D01*
X88340721Y-110063495D01*
X88359643Y-110068039D01*
X88382601Y-110075499D01*
X88382607Y-110075500D01*
X92817392Y-110075500D01*
X92817393Y-110075500D01*
X92840360Y-110068036D01*
X92859276Y-110063495D01*
X92883126Y-110059719D01*
X92904636Y-110048757D01*
X92922614Y-110041310D01*
X92945581Y-110033849D01*
X92965118Y-110019653D01*
X92981706Y-110009488D01*
X93003220Y-109998528D01*
X93098528Y-109903220D01*
X93157087Y-109844661D01*
X93157098Y-109844648D01*
X93624553Y-109377195D01*
X93624553Y-109377194D01*
X93648528Y-109353220D01*
X93659498Y-109331689D01*
X93669647Y-109315126D01*
X93683849Y-109295581D01*
X93691309Y-109272616D01*
X93698759Y-109254634D01*
X93709718Y-109233128D01*
X93709718Y-109233127D01*
X93709719Y-109233126D01*
X93713495Y-109209276D01*
X93718036Y-109190360D01*
X93725500Y-109167393D01*
X93725500Y-109032607D01*
X93725500Y-107920693D01*
X93745185Y-107853654D01*
X93797989Y-107807899D01*
X93867147Y-107797955D01*
X93925444Y-107824578D01*
X93925898Y-107823922D01*
X93929595Y-107826474D01*
X93930703Y-107826980D01*
X93931733Y-107827883D01*
X93932067Y-107828179D01*
X93932071Y-107828183D01*
X93941268Y-107834531D01*
X94072068Y-107924817D01*
X94072069Y-107924817D01*
X94072070Y-107924818D01*
X94145801Y-107952780D01*
X94186386Y-107968172D01*
X94231128Y-107985140D01*
X94294576Y-107992844D01*
X94357626Y-108000500D01*
X94357628Y-108000500D01*
X96642374Y-108000500D01*
X96684538Y-107995380D01*
X96768872Y-107985140D01*
X96927930Y-107924818D01*
X97067929Y-107828183D01*
X97180734Y-107700852D01*
X97259790Y-107550225D01*
X97300500Y-107385056D01*
X97300500Y-107214944D01*
X97259790Y-107049775D01*
X97231878Y-106996593D01*
X97211164Y-106957126D01*
X97197438Y-106888618D01*
X97222930Y-106823565D01*
X97279546Y-106782620D01*
X97320960Y-106775500D01*
X97622390Y-106775500D01*
X97689429Y-106795185D01*
X97710071Y-106811819D01*
X98501472Y-107603220D01*
X98596780Y-107698528D01*
X98618294Y-107709490D01*
X98634884Y-107719656D01*
X98654420Y-107733850D01*
X98677383Y-107741311D01*
X98695359Y-107748756D01*
X98716874Y-107759719D01*
X98740728Y-107763496D01*
X98759639Y-107768036D01*
X98782607Y-107775500D01*
X98816512Y-107775500D01*
X99048922Y-107775500D01*
X99115961Y-107795185D01*
X99161716Y-107847989D01*
X99164095Y-107853582D01*
X99164135Y-107853654D01*
X99253499Y-107971500D01*
X99368835Y-108058961D01*
X99371342Y-108060862D01*
X99508923Y-108115117D01*
X99552765Y-108120382D01*
X99595381Y-108125500D01*
X99595382Y-108125500D01*
X100179611Y-108125500D01*
X100179618Y-108125500D01*
X100190835Y-108124152D01*
X100259740Y-108135700D01*
X100311467Y-108182669D01*
X100329589Y-108250147D01*
X100308352Y-108316711D01*
X100293303Y-108334948D01*
X99672751Y-108955500D01*
X99611428Y-108988985D01*
X99549076Y-108986480D01*
X99438284Y-108952872D01*
X99438285Y-108952872D01*
X99230000Y-108932359D01*
X99021715Y-108952872D01*
X98821428Y-109013629D01*
X98636846Y-109112291D01*
X98475063Y-109245063D01*
X98342291Y-109406846D01*
X98243629Y-109591428D01*
X98182872Y-109791715D01*
X98162359Y-109999999D01*
X98182872Y-110208284D01*
X98192640Y-110240484D01*
X98243628Y-110408569D01*
X98330385Y-110570880D01*
X98342291Y-110593153D01*
X98475063Y-110754936D01*
X98511266Y-110784647D01*
X98550600Y-110842393D01*
X98552471Y-110912237D01*
X98516283Y-110972006D01*
X98453527Y-111002721D01*
X98432601Y-111004500D01*
X97487399Y-111004500D01*
X97420360Y-110984815D01*
X97374605Y-110932011D01*
X97364661Y-110862853D01*
X97393686Y-110799297D01*
X97408734Y-110784647D01*
X97444936Y-110754936D01*
X97565961Y-110607467D01*
X97577711Y-110593150D01*
X97676372Y-110408569D01*
X97737127Y-110208286D01*
X97757641Y-110000000D01*
X97737127Y-109791714D01*
X97676372Y-109591431D01*
X97577711Y-109406850D01*
X97553373Y-109377194D01*
X97444936Y-109245063D01*
X97283153Y-109112291D01*
X97283151Y-109112290D01*
X97283150Y-109112289D01*
X97098569Y-109013628D01*
X96998427Y-108983250D01*
X96898284Y-108952872D01*
X96690000Y-108932359D01*
X96481715Y-108952872D01*
X96281428Y-109013629D01*
X96096846Y-109112291D01*
X95935063Y-109245063D01*
X95802291Y-109406846D01*
X95703629Y-109591428D01*
X95642872Y-109791715D01*
X95622359Y-110000000D01*
X95642872Y-110208284D01*
X95652640Y-110240484D01*
X95703628Y-110408569D01*
X95790385Y-110570880D01*
X95802291Y-110593153D01*
X95935063Y-110754936D01*
X95971266Y-110784647D01*
X96010600Y-110842393D01*
X96012471Y-110912237D01*
X95976283Y-110972006D01*
X95913527Y-111002721D01*
X95892601Y-111004500D01*
X70631623Y-111004500D01*
X70628379Y-111004415D01*
X70610478Y-111003476D01*
X70322323Y-110988374D01*
X70315865Y-110987695D01*
X70014781Y-110940009D01*
X70008429Y-110938659D01*
X69713970Y-110859759D01*
X69707794Y-110857753D01*
X69423198Y-110748506D01*
X69417265Y-110745865D01*
X69385029Y-110729440D01*
X69145635Y-110607463D01*
X69140018Y-110604219D01*
X69122973Y-110593150D01*
X68884362Y-110438193D01*
X68879109Y-110434376D01*
X68642194Y-110242527D01*
X68637368Y-110238181D01*
X68421818Y-110022631D01*
X68417472Y-110017805D01*
X68410735Y-110009486D01*
X68359377Y-109946063D01*
X68225623Y-109780890D01*
X68221806Y-109775637D01*
X68159742Y-109680067D01*
X68055775Y-109519973D01*
X68052540Y-109514370D01*
X67914129Y-109242724D01*
X67911493Y-109236801D01*
X67900930Y-109209283D01*
X67802242Y-108952194D01*
X67800240Y-108946029D01*
X67796577Y-108932359D01*
X67721337Y-108651560D01*
X67719993Y-108645232D01*
X67673048Y-108348830D01*
X67672304Y-108344133D01*
X67671625Y-108337675D01*
X67655585Y-108031622D01*
X67655500Y-108028376D01*
X67655500Y-107530000D01*
X69074709Y-107530000D01*
X69093851Y-107809862D01*
X69093852Y-107809864D01*
X69150921Y-108084499D01*
X69150926Y-108084516D01*
X69244863Y-108348828D01*
X69244864Y-108348830D01*
X69373919Y-108597896D01*
X69535688Y-108827069D01*
X69535692Y-108827073D01*
X69535692Y-108827074D01*
X69684567Y-108986480D01*
X69727155Y-109032081D01*
X69944754Y-109209111D01*
X69944756Y-109209112D01*
X69944757Y-109209113D01*
X70184433Y-109354863D01*
X70393257Y-109445567D01*
X70441725Y-109466620D01*
X70711839Y-109542303D01*
X70956159Y-109575884D01*
X70989741Y-109580500D01*
X70989742Y-109580500D01*
X71270259Y-109580500D01*
X71300219Y-109576381D01*
X71548161Y-109542303D01*
X71818275Y-109466620D01*
X72075568Y-109354862D01*
X72315246Y-109209111D01*
X72532845Y-109032081D01*
X72724312Y-108827069D01*
X72886081Y-108597896D01*
X73015136Y-108348830D01*
X73109075Y-108084511D01*
X73109076Y-108084504D01*
X73109078Y-108084499D01*
X73143117Y-107920693D01*
X73166148Y-107809862D01*
X73185291Y-107530000D01*
X73166148Y-107250138D01*
X73136914Y-107109456D01*
X73109078Y-106975500D01*
X73109073Y-106975483D01*
X73071231Y-106869007D01*
X73015136Y-106711170D01*
X72886081Y-106462104D01*
X72724312Y-106232931D01*
X72724307Y-106232925D01*
X72532845Y-106027919D01*
X72427271Y-105942028D01*
X72315246Y-105850889D01*
X72315244Y-105850888D01*
X72315242Y-105850886D01*
X72075566Y-105705136D01*
X71818276Y-105593380D01*
X71548166Y-105517698D01*
X71548162Y-105517697D01*
X71548161Y-105517697D01*
X71409209Y-105498598D01*
X71270259Y-105479500D01*
X71270258Y-105479500D01*
X70989742Y-105479500D01*
X70989741Y-105479500D01*
X70711839Y-105517697D01*
X70711833Y-105517698D01*
X70441723Y-105593380D01*
X70184433Y-105705136D01*
X69944757Y-105850886D01*
X69727154Y-106027919D01*
X69535692Y-106232925D01*
X69535692Y-106232926D01*
X69535689Y-106232928D01*
X69535688Y-106232931D01*
X69470982Y-106324597D01*
X69373919Y-106462103D01*
X69244863Y-106711171D01*
X69150926Y-106975483D01*
X69150921Y-106975500D01*
X69093852Y-107250135D01*
X69093851Y-107250137D01*
X69074709Y-107530000D01*
X67655500Y-107530000D01*
X67655500Y-102800000D01*
X72094722Y-102800000D01*
X72113763Y-102956819D01*
X72116441Y-102963880D01*
X72124500Y-103007853D01*
X72124500Y-103229618D01*
X72134882Y-103316074D01*
X72134882Y-103316075D01*
X72157179Y-103372615D01*
X72176464Y-103421520D01*
X72189139Y-103453660D01*
X72278499Y-103571500D01*
X72375269Y-103644882D01*
X72396342Y-103660862D01*
X72533923Y-103715117D01*
X72591562Y-103722039D01*
X72620381Y-103725500D01*
X72620382Y-103725500D01*
X73004527Y-103725500D01*
X73034201Y-103729103D01*
X73121014Y-103750500D01*
X73121015Y-103750500D01*
X73278985Y-103750500D01*
X73432365Y-103712696D01*
X73484182Y-103685500D01*
X73572240Y-103639283D01*
X73690483Y-103534530D01*
X73780220Y-103404523D01*
X73836237Y-103256818D01*
X73855278Y-103100000D01*
X73836237Y-102943182D01*
X73808558Y-102870198D01*
X73800500Y-102826227D01*
X73800500Y-102670381D01*
X73791802Y-102597957D01*
X73790117Y-102583923D01*
X73735862Y-102446342D01*
X73725945Y-102433265D01*
X73673177Y-102363679D01*
X73646500Y-102328500D01*
X73646499Y-102328499D01*
X73641375Y-102321742D01*
X73643701Y-102319977D01*
X73617102Y-102271264D01*
X73622086Y-102201572D01*
X73650584Y-102157228D01*
X74170994Y-101636819D01*
X74232318Y-101603334D01*
X74258676Y-101600500D01*
X74993796Y-101600500D01*
X74993799Y-101600500D01*
X75100457Y-101585165D01*
X75100462Y-101585162D01*
X75106725Y-101583324D01*
X75141667Y-101578299D01*
X75560590Y-101578299D01*
X75627629Y-101597984D01*
X75673384Y-101650788D01*
X75683328Y-101719946D01*
X75654303Y-101783502D01*
X75648271Y-101789980D01*
X75336237Y-102102013D01*
X75274914Y-102135498D01*
X75263341Y-102137447D01*
X75201425Y-102144882D01*
X75201424Y-102144882D01*
X75063839Y-102199139D01*
X74945999Y-102288499D01*
X74856639Y-102406339D01*
X74802382Y-102543924D01*
X74802382Y-102543925D01*
X74792000Y-102630381D01*
X74792000Y-103189618D01*
X74802382Y-103276074D01*
X74802382Y-103276075D01*
X74824880Y-103333126D01*
X74845151Y-103384530D01*
X74856639Y-103413660D01*
X74945999Y-103531500D01*
X75063839Y-103620860D01*
X75063842Y-103620862D01*
X75201423Y-103675117D01*
X75259062Y-103682039D01*
X75287881Y-103685500D01*
X75287882Y-103685500D01*
X75872119Y-103685500D01*
X75893732Y-103682904D01*
X75958577Y-103675117D01*
X76096158Y-103620862D01*
X76214000Y-103531500D01*
X76303362Y-103413658D01*
X76357617Y-103276077D01*
X76368000Y-103189618D01*
X76617000Y-103189618D01*
X76627382Y-103276074D01*
X76627382Y-103276075D01*
X76649880Y-103333126D01*
X76670151Y-103384530D01*
X76681639Y-103413660D01*
X76770999Y-103531500D01*
X76888839Y-103620860D01*
X76888842Y-103620862D01*
X77026423Y-103675117D01*
X77084062Y-103682039D01*
X77112881Y-103685500D01*
X77112882Y-103685500D01*
X77697119Y-103685500D01*
X77718732Y-103682904D01*
X77783577Y-103675117D01*
X77860313Y-103644856D01*
X84249500Y-103644856D01*
X84249502Y-103644882D01*
X84252413Y-103669987D01*
X84252415Y-103669991D01*
X84297793Y-103772764D01*
X84297794Y-103772765D01*
X84377235Y-103852206D01*
X84480009Y-103897585D01*
X84505135Y-103900500D01*
X85056572Y-103900499D01*
X85056582Y-103900500D01*
X85071015Y-103900500D01*
X85253648Y-103900500D01*
X85253652Y-103900499D01*
X85861013Y-103900499D01*
X85861025Y-103900500D01*
X85871015Y-103900500D01*
X86043419Y-103900500D01*
X86043427Y-103900499D01*
X86594856Y-103900499D01*
X86594864Y-103900499D01*
X86594879Y-103900497D01*
X86594882Y-103900497D01*
X86619987Y-103897586D01*
X86619988Y-103897585D01*
X86619991Y-103897585D01*
X86722765Y-103852206D01*
X86802206Y-103772765D01*
X86847585Y-103669991D01*
X86850500Y-103644865D01*
X86850500Y-102624499D01*
X86870185Y-102557461D01*
X86922989Y-102511706D01*
X86974500Y-102500500D01*
X90463011Y-102500500D01*
X90530050Y-102520185D01*
X90575805Y-102572989D01*
X90576392Y-102574295D01*
X90597794Y-102622765D01*
X90677235Y-102702206D01*
X90780009Y-102747585D01*
X90805135Y-102750500D01*
X92894864Y-102750499D01*
X92894879Y-102750497D01*
X92894882Y-102750497D01*
X92919987Y-102747586D01*
X92919988Y-102747585D01*
X92919991Y-102747585D01*
X93022765Y-102702206D01*
X93102206Y-102622765D01*
X93147585Y-102519991D01*
X93150500Y-102494865D01*
X93150499Y-100905136D01*
X93150497Y-100905117D01*
X93147586Y-100880012D01*
X93147585Y-100880010D01*
X93147585Y-100880009D01*
X93102206Y-100777235D01*
X93022765Y-100697794D01*
X93011500Y-100692820D01*
X92944946Y-100663433D01*
X92891570Y-100618347D01*
X92871043Y-100551560D01*
X92889882Y-100484278D01*
X92942105Y-100437862D01*
X92944851Y-100436607D01*
X93022765Y-100402206D01*
X93102206Y-100322765D01*
X93123556Y-100274411D01*
X93168640Y-100221038D01*
X93235426Y-100200510D01*
X93236989Y-100200500D01*
X93277914Y-100200500D01*
X93344953Y-100220185D01*
X93384638Y-100265984D01*
X93386481Y-100264948D01*
X93390638Y-100272341D01*
X93482077Y-100392922D01*
X93602656Y-100484360D01*
X93602657Y-100484360D01*
X93602658Y-100484361D01*
X93743436Y-100539877D01*
X93831898Y-100550500D01*
X93831903Y-100550500D01*
X94768097Y-100550500D01*
X94768102Y-100550500D01*
X94856564Y-100539877D01*
X94997342Y-100484361D01*
X95117922Y-100392922D01*
X95117928Y-100392913D01*
X95123915Y-100386928D01*
X95126526Y-100389539D01*
X95168802Y-100358149D01*
X95211680Y-100350500D01*
X96127694Y-100350500D01*
X96168403Y-100341208D01*
X96175260Y-100340043D01*
X96216755Y-100335368D01*
X96256180Y-100321571D01*
X96262821Y-100319658D01*
X96303561Y-100310360D01*
X96341187Y-100292239D01*
X96347614Y-100289578D01*
X96367963Y-100282458D01*
X96408916Y-100275500D01*
X96429619Y-100275500D01*
X96451232Y-100272904D01*
X96516077Y-100265117D01*
X96653658Y-100210862D01*
X96771500Y-100121500D01*
X96860862Y-100003658D01*
X96915117Y-99866077D01*
X96925500Y-99779618D01*
X96925499Y-99651197D01*
X96928609Y-99623604D01*
X96938120Y-99581936D01*
X96950500Y-99527694D01*
X96950500Y-99347306D01*
X96928608Y-99251393D01*
X96925500Y-99223801D01*
X96925500Y-99095381D01*
X96918235Y-99034887D01*
X96915117Y-99008923D01*
X96860862Y-98871342D01*
X96860134Y-98870382D01*
X96771500Y-98753499D01*
X96653660Y-98664139D01*
X96653658Y-98664138D01*
X96516077Y-98609883D01*
X96516076Y-98609882D01*
X96516074Y-98609882D01*
X96429619Y-98599500D01*
X96429618Y-98599500D01*
X95870382Y-98599500D01*
X95870381Y-98599500D01*
X95783925Y-98609882D01*
X95783924Y-98609882D01*
X95646339Y-98664139D01*
X95567001Y-98724304D01*
X95501690Y-98749127D01*
X95492076Y-98749500D01*
X95211680Y-98749500D01*
X95144641Y-98729815D01*
X95125200Y-98711786D01*
X95123915Y-98713072D01*
X95117925Y-98707082D01*
X95117922Y-98707078D01*
X95117114Y-98706465D01*
X94997343Y-98615639D01*
X94856561Y-98560122D01*
X94810926Y-98554642D01*
X94768102Y-98549500D01*
X93831898Y-98549500D01*
X93798713Y-98553485D01*
X93743436Y-98560122D01*
X93693501Y-98579815D01*
X93665506Y-98590854D01*
X93620018Y-98599500D01*
X93236989Y-98599500D01*
X93169950Y-98579815D01*
X93124195Y-98527011D01*
X93123607Y-98525704D01*
X93102206Y-98477235D01*
X93022765Y-98397794D01*
X93015495Y-98394584D01*
X92919992Y-98352415D01*
X92894868Y-98349500D01*
X92894865Y-98349500D01*
X92774500Y-98349500D01*
X92707461Y-98329815D01*
X92661706Y-98277011D01*
X92650500Y-98225500D01*
X92650500Y-96709807D01*
X92650500Y-96709806D01*
X92641207Y-96669093D01*
X92640042Y-96662233D01*
X92635368Y-96620745D01*
X92634728Y-96618916D01*
X92621576Y-96581328D01*
X92619650Y-96574641D01*
X92610361Y-96533941D01*
X92592244Y-96496320D01*
X92589581Y-96489891D01*
X92575789Y-96450477D01*
X92564577Y-96432635D01*
X92553567Y-96415112D01*
X92550206Y-96409030D01*
X92545759Y-96399796D01*
X92532091Y-96371413D01*
X92532091Y-96371412D01*
X92532090Y-96371411D01*
X92506055Y-96338765D01*
X92502028Y-96333089D01*
X92501647Y-96332483D01*
X92479816Y-96297738D01*
X92352262Y-96170184D01*
X91484252Y-95302174D01*
X91452262Y-95270184D01*
X91449076Y-95268182D01*
X91416904Y-95247966D01*
X91411229Y-95243940D01*
X91378589Y-95217910D01*
X91340959Y-95199787D01*
X91334872Y-95196422D01*
X91299525Y-95174212D01*
X91260114Y-95160421D01*
X91253688Y-95157759D01*
X91216061Y-95139639D01*
X91175345Y-95130345D01*
X91168662Y-95128420D01*
X91129259Y-95114632D01*
X91096114Y-95110897D01*
X91031701Y-95083827D01*
X90992148Y-95026231D01*
X90989930Y-95018572D01*
X90989877Y-95018438D01*
X90989877Y-95018436D01*
X90934361Y-94877658D01*
X90934360Y-94877657D01*
X90934360Y-94877656D01*
X90842922Y-94757077D01*
X90722343Y-94665639D01*
X90581561Y-94610122D01*
X90535926Y-94604642D01*
X90493102Y-94599500D01*
X89206898Y-94599500D01*
X89167853Y-94604188D01*
X89118438Y-94610122D01*
X88977656Y-94665639D01*
X88857077Y-94757077D01*
X88765639Y-94877656D01*
X88710122Y-95018438D01*
X88705107Y-95060205D01*
X88699500Y-95106898D01*
X88699500Y-96693102D01*
X88703674Y-96727863D01*
X88710122Y-96781561D01*
X88710122Y-96781563D01*
X88710123Y-96781564D01*
X88718109Y-96801815D01*
X88765639Y-96922343D01*
X88857077Y-97042922D01*
X88977656Y-97134360D01*
X88977657Y-97134360D01*
X88977658Y-97134361D01*
X89118436Y-97189877D01*
X89206898Y-97200500D01*
X89206903Y-97200500D01*
X90493097Y-97200500D01*
X90493102Y-97200500D01*
X90581564Y-97189877D01*
X90722342Y-97134361D01*
X90823836Y-97057395D01*
X90889146Y-97032573D01*
X90957510Y-97047001D01*
X90986441Y-97068519D01*
X91013181Y-97095259D01*
X91046666Y-97156582D01*
X91049500Y-97182940D01*
X91049500Y-98225500D01*
X91029815Y-98292539D01*
X90977011Y-98338294D01*
X90925501Y-98349500D01*
X90805142Y-98349500D01*
X90805119Y-98349502D01*
X90780011Y-98352414D01*
X90780008Y-98352415D01*
X90677235Y-98397793D01*
X90597794Y-98477234D01*
X90552415Y-98580006D01*
X90552415Y-98580008D01*
X90549500Y-98605131D01*
X90549500Y-100194856D01*
X90549502Y-100194882D01*
X90552413Y-100219987D01*
X90552415Y-100219991D01*
X90597793Y-100322764D01*
X90597793Y-100322765D01*
X90597794Y-100322765D01*
X90677235Y-100402206D01*
X90733957Y-100427251D01*
X90755053Y-100436566D01*
X90808429Y-100481652D01*
X90828956Y-100548438D01*
X90810118Y-100615720D01*
X90757894Y-100662137D01*
X90755053Y-100663434D01*
X90677234Y-100697794D01*
X90597795Y-100777233D01*
X90597794Y-100777234D01*
X90597794Y-100777235D01*
X90576443Y-100825588D01*
X90531360Y-100878962D01*
X90464574Y-100899490D01*
X90463011Y-100899500D01*
X86974499Y-100899500D01*
X86907460Y-100879815D01*
X86861705Y-100827011D01*
X86850499Y-100775500D01*
X86850499Y-99755143D01*
X86850499Y-99755136D01*
X86848869Y-99741077D01*
X86847586Y-99730012D01*
X86847585Y-99730010D01*
X86847585Y-99730009D01*
X86802206Y-99627235D01*
X86722765Y-99547794D01*
X86722764Y-99547793D01*
X86619992Y-99502415D01*
X86594865Y-99499500D01*
X84505143Y-99499500D01*
X84505117Y-99499502D01*
X84480012Y-99502413D01*
X84480008Y-99502415D01*
X84377235Y-99547793D01*
X84297794Y-99627234D01*
X84252415Y-99730006D01*
X84252415Y-99730008D01*
X84249500Y-99755131D01*
X84249500Y-103644856D01*
X77860313Y-103644856D01*
X77921158Y-103620862D01*
X78039000Y-103531500D01*
X78128362Y-103413658D01*
X78182617Y-103276077D01*
X78193000Y-103189618D01*
X78193000Y-102630382D01*
X78182617Y-102543923D01*
X78128362Y-102406342D01*
X78123109Y-102399415D01*
X78039000Y-102288499D01*
X77921160Y-102199139D01*
X77921158Y-102199138D01*
X77783577Y-102144883D01*
X77783576Y-102144882D01*
X77783574Y-102144882D01*
X77697119Y-102134500D01*
X77697118Y-102134500D01*
X77112882Y-102134500D01*
X77112881Y-102134500D01*
X77026425Y-102144882D01*
X77026424Y-102144882D01*
X76888839Y-102199139D01*
X76770999Y-102288499D01*
X76681639Y-102406339D01*
X76627382Y-102543924D01*
X76627382Y-102543925D01*
X76617000Y-102630381D01*
X76617000Y-103189618D01*
X76368000Y-103189618D01*
X76368000Y-102630382D01*
X76357617Y-102543923D01*
X76348179Y-102519991D01*
X76315612Y-102437405D01*
X76313978Y-102433264D01*
X76307697Y-102363679D01*
X76340034Y-102301742D01*
X76341592Y-102300154D01*
X76934554Y-101707194D01*
X76934553Y-101707193D01*
X76958524Y-101683224D01*
X76958524Y-101683223D01*
X76958528Y-101683220D01*
X76969489Y-101661704D01*
X76979658Y-101645112D01*
X76982659Y-101640981D01*
X76993849Y-101625581D01*
X77001310Y-101602614D01*
X77008759Y-101584634D01*
X77019718Y-101563128D01*
X77019718Y-101563127D01*
X77019719Y-101563126D01*
X77023495Y-101539276D01*
X77028036Y-101520360D01*
X77035500Y-101497393D01*
X77035500Y-101362607D01*
X77035500Y-100096512D01*
X77035500Y-100062607D01*
X77035136Y-100061489D01*
X77028039Y-100039645D01*
X77023495Y-100020721D01*
X77019719Y-99996874D01*
X77008753Y-99975354D01*
X77001308Y-99957378D01*
X77001230Y-99957139D01*
X76993849Y-99934419D01*
X76993848Y-99934418D01*
X76990833Y-99925136D01*
X76994085Y-99924079D01*
X76984400Y-99872524D01*
X77010673Y-99807782D01*
X77067778Y-99767522D01*
X77137583Y-99764526D01*
X77195463Y-99797211D01*
X78091072Y-100692820D01*
X78186380Y-100788128D01*
X78207894Y-100799090D01*
X78224484Y-100809256D01*
X78244020Y-100823450D01*
X78266983Y-100830911D01*
X78284959Y-100838356D01*
X78306474Y-100849319D01*
X78330328Y-100853096D01*
X78349239Y-100857636D01*
X78372207Y-100865100D01*
X78406112Y-100865100D01*
X79854273Y-100865100D01*
X79904359Y-100875665D01*
X79993409Y-100914985D01*
X80018535Y-100917900D01*
X81581464Y-100917899D01*
X81581479Y-100917897D01*
X81581482Y-100917897D01*
X81606587Y-100914986D01*
X81606588Y-100914985D01*
X81606591Y-100914985D01*
X81709365Y-100869606D01*
X81788806Y-100790165D01*
X81834185Y-100687391D01*
X81837100Y-100662265D01*
X81837099Y-100354099D01*
X81856783Y-100287061D01*
X81909587Y-100241306D01*
X81961099Y-100230100D01*
X82362792Y-100230100D01*
X82362793Y-100230100D01*
X82385760Y-100222636D01*
X82404676Y-100218095D01*
X82428526Y-100214319D01*
X82450036Y-100203357D01*
X82468014Y-100195910D01*
X82490981Y-100188449D01*
X82510518Y-100174253D01*
X82527106Y-100164088D01*
X82548620Y-100153128D01*
X82643928Y-100057820D01*
X82643927Y-100057819D01*
X83524554Y-99177194D01*
X83524554Y-99177193D01*
X83548528Y-99153220D01*
X83559493Y-99131698D01*
X83569652Y-99115120D01*
X83583850Y-99095580D01*
X83591314Y-99072605D01*
X83598751Y-99054650D01*
X83609719Y-99033126D01*
X83613496Y-99009271D01*
X83618034Y-98990366D01*
X83625500Y-98967393D01*
X83625500Y-98832607D01*
X83625500Y-98832606D01*
X83625500Y-96647906D01*
X83645185Y-96580868D01*
X83667270Y-96555094D01*
X83690483Y-96534530D01*
X83780220Y-96404523D01*
X83836237Y-96256818D01*
X83855278Y-96100000D01*
X83853793Y-96087765D01*
X83836237Y-95943181D01*
X83814992Y-95887163D01*
X83780220Y-95795477D01*
X83690483Y-95665470D01*
X83572240Y-95560717D01*
X83572238Y-95560716D01*
X83572237Y-95560715D01*
X83432365Y-95487303D01*
X83278986Y-95449500D01*
X83278985Y-95449500D01*
X83121015Y-95449500D01*
X83121014Y-95449500D01*
X82967634Y-95487303D01*
X82827762Y-95560715D01*
X82709516Y-95665471D01*
X82619781Y-95795475D01*
X82619780Y-95795476D01*
X82563762Y-95943181D01*
X82544722Y-96099999D01*
X82544722Y-96100000D01*
X82563762Y-96256818D01*
X82619780Y-96404523D01*
X82619781Y-96404524D01*
X82709515Y-96534528D01*
X82709516Y-96534529D01*
X82709517Y-96534530D01*
X82732727Y-96555092D01*
X82769853Y-96614279D01*
X82774500Y-96647907D01*
X82774500Y-98672390D01*
X82754815Y-98739429D01*
X82738181Y-98760071D01*
X82155471Y-99342781D01*
X82094148Y-99376266D01*
X82067790Y-99379100D01*
X81745727Y-99379100D01*
X81695640Y-99368534D01*
X81606592Y-99329215D01*
X81581465Y-99326300D01*
X80018543Y-99326300D01*
X80018517Y-99326302D01*
X79993412Y-99329213D01*
X79993408Y-99329215D01*
X79890635Y-99374593D01*
X79811194Y-99454034D01*
X79765815Y-99556806D01*
X79765815Y-99556808D01*
X79765815Y-99556809D01*
X79762900Y-99581935D01*
X79762900Y-99797211D01*
X79762901Y-99890100D01*
X79743217Y-99957139D01*
X79690413Y-100002894D01*
X79638901Y-100014100D01*
X78667210Y-100014100D01*
X78600171Y-99994415D01*
X78579529Y-99977781D01*
X77111819Y-98510071D01*
X77078334Y-98448748D01*
X77075500Y-98422390D01*
X77075500Y-97776610D01*
X77095185Y-97709571D01*
X77147989Y-97663816D01*
X77217147Y-97653872D01*
X77280703Y-97682897D01*
X77287180Y-97688928D01*
X78335272Y-98737020D01*
X78430580Y-98832328D01*
X78452094Y-98843290D01*
X78468682Y-98853455D01*
X78488220Y-98867650D01*
X78504713Y-98873009D01*
X78511183Y-98875111D01*
X78529159Y-98882556D01*
X78550674Y-98893519D01*
X78574528Y-98897296D01*
X78593439Y-98901836D01*
X78616407Y-98909300D01*
X78650312Y-98909300D01*
X79854273Y-98909300D01*
X79904359Y-98919865D01*
X79993409Y-98959185D01*
X80018535Y-98962100D01*
X81581464Y-98962099D01*
X81581479Y-98962097D01*
X81581482Y-98962097D01*
X81606587Y-98959186D01*
X81606588Y-98959185D01*
X81606591Y-98959185D01*
X81709365Y-98913806D01*
X81788806Y-98834365D01*
X81834185Y-98731591D01*
X81837100Y-98706465D01*
X81837099Y-98261136D01*
X81836796Y-98258519D01*
X81834186Y-98236013D01*
X81834185Y-98236011D01*
X81834185Y-98236009D01*
X81825519Y-98216383D01*
X81816448Y-98147109D01*
X81825517Y-98116219D01*
X81834185Y-98096591D01*
X81837100Y-98071465D01*
X81837099Y-97626136D01*
X81835716Y-97614207D01*
X81834186Y-97601012D01*
X81834185Y-97601010D01*
X81834185Y-97601009D01*
X81788806Y-97498235D01*
X81709365Y-97418794D01*
X81695640Y-97412734D01*
X81606592Y-97373415D01*
X81581465Y-97370500D01*
X80018543Y-97370500D01*
X80018517Y-97370502D01*
X79993412Y-97373413D01*
X79993408Y-97373415D01*
X79904359Y-97412734D01*
X79854273Y-97423300D01*
X79833250Y-97423300D01*
X79766211Y-97403615D01*
X79720456Y-97350811D01*
X79717308Y-97343271D01*
X79708450Y-97319914D01*
X79680220Y-97245477D01*
X79590483Y-97115470D01*
X79472240Y-97010717D01*
X79472238Y-97010716D01*
X79472237Y-97010715D01*
X79332365Y-96937303D01*
X79178986Y-96899500D01*
X79178985Y-96899500D01*
X79021015Y-96899500D01*
X79021014Y-96899500D01*
X78867634Y-96937303D01*
X78727762Y-97010715D01*
X78609516Y-97115471D01*
X78519781Y-97245475D01*
X78519780Y-97245476D01*
X78463763Y-97393181D01*
X78463218Y-97395392D01*
X78462376Y-97396837D01*
X78461103Y-97400195D01*
X78460544Y-97399983D01*
X78428059Y-97455771D01*
X78365838Y-97487557D01*
X78296310Y-97480658D01*
X78255141Y-97453393D01*
X77860819Y-97059071D01*
X77827334Y-96997748D01*
X77824500Y-96971390D01*
X77824500Y-96445277D01*
X77844185Y-96378238D01*
X77896989Y-96332483D01*
X77902583Y-96330103D01*
X77902652Y-96330064D01*
X77902658Y-96330062D01*
X78020500Y-96240700D01*
X78109862Y-96122858D01*
X78164117Y-95985277D01*
X78174500Y-95898818D01*
X78174500Y-95314582D01*
X78164117Y-95228123D01*
X78109862Y-95090542D01*
X78086857Y-95060205D01*
X78020500Y-94972699D01*
X77902660Y-94883339D01*
X77902658Y-94883338D01*
X77765077Y-94829083D01*
X77765076Y-94829082D01*
X77765074Y-94829082D01*
X77678619Y-94818700D01*
X77678618Y-94818700D01*
X77119382Y-94818700D01*
X77119381Y-94818700D01*
X77032925Y-94829082D01*
X77032924Y-94829082D01*
X76895339Y-94883339D01*
X76777499Y-94972699D01*
X76722804Y-95044827D01*
X76666612Y-95086351D01*
X76596890Y-95090902D01*
X76535776Y-95057037D01*
X76525196Y-95044827D01*
X76470500Y-94972699D01*
X76352660Y-94883339D01*
X76352658Y-94883338D01*
X76215077Y-94829083D01*
X76215076Y-94829082D01*
X76215074Y-94829082D01*
X76128619Y-94818700D01*
X76128618Y-94818700D01*
X75569382Y-94818700D01*
X75569381Y-94818700D01*
X75482925Y-94829082D01*
X75482924Y-94829082D01*
X75345339Y-94883339D01*
X75227499Y-94972699D01*
X75138139Y-95090539D01*
X75083882Y-95228124D01*
X75083882Y-95228125D01*
X75073500Y-95314581D01*
X75073500Y-95898818D01*
X75081015Y-95961396D01*
X75069465Y-96030304D01*
X75022493Y-96082029D01*
X74978224Y-96097410D01*
X74978297Y-96097705D01*
X74975126Y-96098486D01*
X74972854Y-96099276D01*
X74971018Y-96099499D01*
X74817634Y-96137303D01*
X74677762Y-96210715D01*
X74559516Y-96315471D01*
X74469781Y-96445475D01*
X74469780Y-96445476D01*
X74413763Y-96593178D01*
X74413761Y-96593188D01*
X74412806Y-96601054D01*
X74385181Y-96665230D01*
X74327244Y-96704283D01*
X74289712Y-96710100D01*
X74176543Y-96710100D01*
X74176518Y-96710102D01*
X74151411Y-96713014D01*
X74151408Y-96713015D01*
X74048635Y-96758393D01*
X74039155Y-96764888D01*
X74037921Y-96763087D01*
X73989858Y-96789333D01*
X73920166Y-96784349D01*
X73864233Y-96742477D01*
X73839816Y-96677013D01*
X73839500Y-96668167D01*
X73839500Y-96364581D01*
X73832563Y-96306818D01*
X73829117Y-96278123D01*
X73774862Y-96140542D01*
X73772406Y-96137303D01*
X73685500Y-96022699D01*
X73567660Y-95933339D01*
X73567658Y-95933338D01*
X73430077Y-95879083D01*
X73430076Y-95879082D01*
X73430074Y-95879082D01*
X73343619Y-95868700D01*
X73343618Y-95868700D01*
X72759382Y-95868700D01*
X72759381Y-95868700D01*
X72672925Y-95879082D01*
X72672924Y-95879082D01*
X72535339Y-95933339D01*
X72417499Y-96022699D01*
X72328139Y-96140539D01*
X72273882Y-96278124D01*
X72273882Y-96278125D01*
X72263500Y-96364581D01*
X72263500Y-96923818D01*
X72273882Y-97010274D01*
X72273882Y-97010275D01*
X72288365Y-97047001D01*
X72322815Y-97134361D01*
X72328139Y-97147860D01*
X72417499Y-97265700D01*
X72519793Y-97343271D01*
X72535342Y-97355062D01*
X72672923Y-97409317D01*
X72730562Y-97416238D01*
X72759381Y-97419700D01*
X72759382Y-97419700D01*
X72966590Y-97419700D01*
X73033629Y-97439385D01*
X73054271Y-97456019D01*
X73693201Y-98094948D01*
X73693204Y-98094952D01*
X73700272Y-98102020D01*
X73795580Y-98197328D01*
X73817101Y-98208293D01*
X73833680Y-98218453D01*
X73853219Y-98232649D01*
X73876181Y-98240109D01*
X73894154Y-98247553D01*
X73915674Y-98258519D01*
X73939524Y-98262295D01*
X73958445Y-98266839D01*
X73980289Y-98273936D01*
X73981407Y-98274300D01*
X74012273Y-98274300D01*
X74062359Y-98284865D01*
X74151409Y-98324185D01*
X74176535Y-98327100D01*
X75739464Y-98327099D01*
X75739479Y-98327097D01*
X75739482Y-98327097D01*
X75764587Y-98324186D01*
X75764588Y-98324185D01*
X75764591Y-98324185D01*
X75867365Y-98278806D01*
X75946806Y-98199365D01*
X75987065Y-98108185D01*
X76032152Y-98054808D01*
X76098938Y-98034281D01*
X76166220Y-98053119D01*
X76212636Y-98105342D01*
X76224500Y-98158271D01*
X76224500Y-98717394D01*
X76231962Y-98740358D01*
X76236503Y-98759273D01*
X76236630Y-98760071D01*
X76240281Y-98783127D01*
X76251243Y-98804641D01*
X76258688Y-98822615D01*
X76266150Y-98845580D01*
X76280340Y-98865110D01*
X76290508Y-98881703D01*
X76301470Y-98903218D01*
X76617388Y-99219136D01*
X76650873Y-99280459D01*
X76645889Y-99350151D01*
X76604017Y-99406084D01*
X76538553Y-99430501D01*
X76490439Y-99420755D01*
X76489461Y-99423766D01*
X76457215Y-99413288D01*
X76439241Y-99405843D01*
X76417727Y-99394881D01*
X76412610Y-99394070D01*
X76393873Y-99391103D01*
X76374958Y-99386562D01*
X76351994Y-99379100D01*
X76351993Y-99379100D01*
X76318088Y-99379100D01*
X76119100Y-99379100D01*
X76052061Y-99359415D01*
X76006306Y-99306611D01*
X75995100Y-99255100D01*
X75995099Y-98921543D01*
X75995099Y-98921536D01*
X75995097Y-98921517D01*
X75992186Y-98896412D01*
X75992185Y-98896410D01*
X75992185Y-98896409D01*
X75946806Y-98793635D01*
X75867365Y-98714194D01*
X75849867Y-98706468D01*
X75764592Y-98668815D01*
X75739465Y-98665900D01*
X74176543Y-98665900D01*
X74176517Y-98665902D01*
X74151412Y-98668813D01*
X74151408Y-98668815D01*
X74062359Y-98708134D01*
X74012273Y-98718700D01*
X73898790Y-98718700D01*
X73831751Y-98699015D01*
X73791696Y-98652790D01*
X73790018Y-98653734D01*
X73785860Y-98646339D01*
X73696500Y-98528499D01*
X73578660Y-98439139D01*
X73578658Y-98439138D01*
X73441077Y-98384883D01*
X73441076Y-98384882D01*
X73441074Y-98384882D01*
X73354619Y-98374500D01*
X73354618Y-98374500D01*
X72770382Y-98374500D01*
X72770381Y-98374500D01*
X72683925Y-98384882D01*
X72683924Y-98384882D01*
X72546339Y-98439139D01*
X72428499Y-98528499D01*
X72339139Y-98646339D01*
X72284882Y-98783924D01*
X72284882Y-98783925D01*
X72274500Y-98870381D01*
X72274500Y-99429618D01*
X72284882Y-99516074D01*
X72284882Y-99516075D01*
X72300944Y-99556806D01*
X72333612Y-99639646D01*
X72339139Y-99653660D01*
X72428499Y-99771500D01*
X72545093Y-99859915D01*
X72546342Y-99860862D01*
X72683923Y-99915117D01*
X72741562Y-99922039D01*
X72770381Y-99925500D01*
X72770382Y-99925500D01*
X73354619Y-99925500D01*
X73376232Y-99922904D01*
X73441077Y-99915117D01*
X73578658Y-99860862D01*
X73696500Y-99771500D01*
X73698093Y-99769399D01*
X73700042Y-99767958D01*
X73702498Y-99765503D01*
X73702866Y-99765871D01*
X73754282Y-99727874D01*
X73824003Y-99723318D01*
X73885119Y-99757180D01*
X73918226Y-99818708D01*
X73920900Y-99844319D01*
X73920900Y-100027256D01*
X73920902Y-100027282D01*
X73923813Y-100052387D01*
X73923815Y-100052391D01*
X73969193Y-100155164D01*
X73969194Y-100155165D01*
X74048635Y-100234606D01*
X74151409Y-100279985D01*
X74176535Y-100282900D01*
X75739464Y-100282899D01*
X75739479Y-100282897D01*
X75739482Y-100282897D01*
X75764587Y-100279986D01*
X75764588Y-100279985D01*
X75764591Y-100279985D01*
X75834020Y-100249329D01*
X75853641Y-100240666D01*
X75903727Y-100230100D01*
X76056989Y-100230100D01*
X76124028Y-100249785D01*
X76144658Y-100266406D01*
X76148169Y-100269916D01*
X76181662Y-100331235D01*
X76184500Y-100357610D01*
X76184500Y-100699937D01*
X76164815Y-100766976D01*
X76112011Y-100812731D01*
X76042853Y-100822675D01*
X75979297Y-100793650D01*
X75953521Y-100758761D01*
X75953299Y-100758914D01*
X75949039Y-100752696D01*
X75947067Y-100750026D01*
X75946806Y-100749435D01*
X75867365Y-100669994D01*
X75764592Y-100624615D01*
X75739468Y-100621700D01*
X75739465Y-100621700D01*
X75141665Y-100621700D01*
X75106726Y-100616676D01*
X75100454Y-100614834D01*
X74993799Y-100599500D01*
X74067143Y-100599500D01*
X74040785Y-100596666D01*
X74036074Y-100595641D01*
X74036070Y-100595641D01*
X73997552Y-100598396D01*
X73984328Y-100599342D01*
X73979906Y-100599500D01*
X73964199Y-100599500D01*
X73948656Y-100601734D01*
X73944260Y-100602207D01*
X73892517Y-100605909D01*
X73892513Y-100605910D01*
X73887986Y-100607598D01*
X73862327Y-100614146D01*
X73857550Y-100614833D01*
X73857543Y-100614835D01*
X73810353Y-100636385D01*
X73806264Y-100638078D01*
X73757675Y-100656200D01*
X73757664Y-100656206D01*
X73753799Y-100659100D01*
X73731020Y-100672615D01*
X73726636Y-100674617D01*
X73726626Y-100674623D01*
X73711889Y-100687393D01*
X73687428Y-100708587D01*
X73683996Y-100711354D01*
X73671402Y-100720781D01*
X73660291Y-100731892D01*
X73657055Y-100734905D01*
X73617861Y-100768867D01*
X73617854Y-100768876D01*
X73615243Y-100772938D01*
X73598616Y-100793568D01*
X72656068Y-101736116D01*
X72635438Y-101752743D01*
X72631376Y-101755354D01*
X72631367Y-101755361D01*
X72597405Y-101794555D01*
X72594392Y-101797791D01*
X72583281Y-101808902D01*
X72573854Y-101821496D01*
X72571087Y-101824928D01*
X72566303Y-101830451D01*
X72537123Y-101864126D01*
X72537117Y-101864136D01*
X72535115Y-101868520D01*
X72521600Y-101891299D01*
X72518706Y-101895164D01*
X72518700Y-101895175D01*
X72500578Y-101943764D01*
X72498885Y-101947853D01*
X72477335Y-101995043D01*
X72477333Y-101995050D01*
X72476646Y-101999827D01*
X72470098Y-102025486D01*
X72468410Y-102030013D01*
X72468409Y-102030017D01*
X72464707Y-102081760D01*
X72464234Y-102086156D01*
X72462000Y-102101699D01*
X72462000Y-102117405D01*
X72461842Y-102121833D01*
X72460603Y-102139145D01*
X72436182Y-102204608D01*
X72402927Y-102233785D01*
X72403100Y-102234013D01*
X72399920Y-102236424D01*
X72397697Y-102238375D01*
X72396345Y-102239134D01*
X72278499Y-102328499D01*
X72189139Y-102446339D01*
X72189136Y-102446345D01*
X72134883Y-102583919D01*
X72133052Y-102591165D01*
X72130913Y-102597957D01*
X72113764Y-102643177D01*
X72113762Y-102643185D01*
X72094722Y-102799999D01*
X72094722Y-102800000D01*
X67655500Y-102800000D01*
X67655500Y-101258833D01*
X70415624Y-101258833D01*
X70425944Y-101422860D01*
X70476732Y-101579171D01*
X70476734Y-101579175D01*
X70564798Y-101717940D01*
X70684603Y-101830445D01*
X70684611Y-101830451D01*
X70828628Y-101909625D01*
X70828632Y-101909627D01*
X70987823Y-101950500D01*
X70987827Y-101950500D01*
X71110923Y-101950500D01*
X71110925Y-101950500D01*
X71110930Y-101950499D01*
X71110934Y-101950499D01*
X71131878Y-101947853D01*
X71233058Y-101935071D01*
X71385871Y-101874568D01*
X71385878Y-101874563D01*
X71518835Y-101777965D01*
X71518835Y-101777963D01*
X71518837Y-101777963D01*
X71623600Y-101651326D01*
X71693579Y-101502613D01*
X71724376Y-101341170D01*
X71714056Y-101177140D01*
X71663268Y-101020829D01*
X71661087Y-101017393D01*
X71606821Y-100931883D01*
X71575202Y-100882060D01*
X71571474Y-100878559D01*
X71455396Y-100769554D01*
X71455388Y-100769548D01*
X71311371Y-100690374D01*
X71311361Y-100690371D01*
X71152180Y-100649500D01*
X71152177Y-100649500D01*
X71029075Y-100649500D01*
X71029065Y-100649500D01*
X70906942Y-100664929D01*
X70906939Y-100664929D01*
X70754130Y-100725431D01*
X70754121Y-100725436D01*
X70621164Y-100822034D01*
X70621162Y-100822037D01*
X70516400Y-100948673D01*
X70446420Y-101097387D01*
X70431995Y-101173009D01*
X70415624Y-101258830D01*
X70415624Y-101258832D01*
X70415624Y-101258833D01*
X67655500Y-101258833D01*
X67655500Y-99429618D01*
X70449500Y-99429618D01*
X70459882Y-99516074D01*
X70459882Y-99516075D01*
X70475944Y-99556806D01*
X70508612Y-99639646D01*
X70514139Y-99653660D01*
X70603499Y-99771500D01*
X70720093Y-99859915D01*
X70721342Y-99860862D01*
X70858923Y-99915117D01*
X70916562Y-99922038D01*
X70945381Y-99925500D01*
X70945382Y-99925500D01*
X71529619Y-99925500D01*
X71551232Y-99922904D01*
X71616077Y-99915117D01*
X71753658Y-99860862D01*
X71871500Y-99771500D01*
X71960862Y-99653658D01*
X72015117Y-99516077D01*
X72025500Y-99429618D01*
X72025500Y-98870382D01*
X72022778Y-98847720D01*
X72015117Y-98783925D01*
X72015117Y-98783924D01*
X72014803Y-98783127D01*
X71960862Y-98646342D01*
X71947332Y-98628500D01*
X71871500Y-98528499D01*
X71753660Y-98439139D01*
X71753658Y-98439138D01*
X71616077Y-98384883D01*
X71616076Y-98384882D01*
X71616074Y-98384882D01*
X71529619Y-98374500D01*
X71529618Y-98374500D01*
X70945382Y-98374500D01*
X70945381Y-98374500D01*
X70858925Y-98384882D01*
X70858924Y-98384882D01*
X70721339Y-98439139D01*
X70603499Y-98528499D01*
X70514139Y-98646339D01*
X70459882Y-98783924D01*
X70459882Y-98783925D01*
X70449500Y-98870381D01*
X70449500Y-99429618D01*
X67655500Y-99429618D01*
X67655500Y-96923818D01*
X70438500Y-96923818D01*
X70448882Y-97010274D01*
X70448882Y-97010275D01*
X70463365Y-97047001D01*
X70497815Y-97134361D01*
X70503139Y-97147860D01*
X70592499Y-97265700D01*
X70694793Y-97343271D01*
X70710342Y-97355062D01*
X70847923Y-97409317D01*
X70905562Y-97416238D01*
X70934381Y-97419700D01*
X70934382Y-97419700D01*
X71518619Y-97419700D01*
X71540232Y-97417104D01*
X71605077Y-97409317D01*
X71742658Y-97355062D01*
X71860500Y-97265700D01*
X71949862Y-97147858D01*
X72004117Y-97010277D01*
X72014500Y-96923818D01*
X72014500Y-96364582D01*
X72004117Y-96278123D01*
X71949862Y-96140542D01*
X71947406Y-96137303D01*
X71860500Y-96022699D01*
X71742660Y-95933339D01*
X71742658Y-95933338D01*
X71605077Y-95879083D01*
X71605076Y-95879082D01*
X71605074Y-95879082D01*
X71518619Y-95868700D01*
X71518618Y-95868700D01*
X70934382Y-95868700D01*
X70934381Y-95868700D01*
X70847925Y-95879082D01*
X70847924Y-95879082D01*
X70710339Y-95933339D01*
X70592499Y-96022699D01*
X70503139Y-96140539D01*
X70448882Y-96278124D01*
X70448882Y-96278125D01*
X70438500Y-96364581D01*
X70438500Y-96923818D01*
X67655500Y-96923818D01*
X67655500Y-94073818D01*
X75073500Y-94073818D01*
X75083882Y-94160274D01*
X75083882Y-94160275D01*
X75138139Y-94297860D01*
X75227499Y-94415700D01*
X75342913Y-94503220D01*
X75345342Y-94505062D01*
X75482923Y-94559317D01*
X75540562Y-94566238D01*
X75569381Y-94569700D01*
X75569382Y-94569700D01*
X76128619Y-94569700D01*
X76150232Y-94567104D01*
X76215077Y-94559317D01*
X76352658Y-94505062D01*
X76470500Y-94415700D01*
X76525196Y-94343571D01*
X76581388Y-94302049D01*
X76651109Y-94297497D01*
X76712223Y-94331361D01*
X76722804Y-94343572D01*
X76777499Y-94415700D01*
X76892913Y-94503220D01*
X76895342Y-94505062D01*
X77032923Y-94559317D01*
X77090562Y-94566238D01*
X77119381Y-94569700D01*
X77119382Y-94569700D01*
X77678619Y-94569700D01*
X77700232Y-94567104D01*
X77765077Y-94559317D01*
X77902658Y-94505062D01*
X78020500Y-94415700D01*
X78109862Y-94297858D01*
X78164117Y-94160277D01*
X78174500Y-94073818D01*
X78174500Y-93489582D01*
X78164117Y-93403123D01*
X78109862Y-93265542D01*
X78106684Y-93261351D01*
X78029828Y-93160000D01*
X92584722Y-93160000D01*
X92603762Y-93316818D01*
X92655988Y-93454524D01*
X92659780Y-93464523D01*
X92749517Y-93594530D01*
X92867760Y-93699283D01*
X92867762Y-93699284D01*
X93007634Y-93772696D01*
X93161014Y-93810500D01*
X93161015Y-93810500D01*
X93318985Y-93810500D01*
X93472365Y-93772696D01*
X93569309Y-93721815D01*
X93612240Y-93699283D01*
X93666373Y-93651326D01*
X93716765Y-93606684D01*
X93779998Y-93576963D01*
X93798991Y-93575500D01*
X95602298Y-93575500D01*
X95669337Y-93595185D01*
X95684517Y-93606678D01*
X95734915Y-93651326D01*
X95777762Y-93689285D01*
X95917634Y-93762696D01*
X96071014Y-93800500D01*
X96071015Y-93800500D01*
X96228985Y-93800500D01*
X96382365Y-93762696D01*
X96406780Y-93749882D01*
X96522240Y-93689283D01*
X96640483Y-93584530D01*
X96730220Y-93454523D01*
X96786237Y-93306818D01*
X96805278Y-93150000D01*
X96794149Y-93058339D01*
X96786237Y-92993181D01*
X96761789Y-92928717D01*
X96730220Y-92845477D01*
X96649903Y-92729118D01*
X97392500Y-92729118D01*
X97402882Y-92815574D01*
X97402882Y-92815575D01*
X97402883Y-92815577D01*
X97457138Y-92953158D01*
X97462302Y-92959968D01*
X97487127Y-93025278D01*
X97487500Y-93034895D01*
X97487500Y-93475999D01*
X97478855Y-93521489D01*
X97477138Y-93525840D01*
X97477138Y-93525842D01*
X97463668Y-93560000D01*
X97422882Y-93663424D01*
X97422882Y-93663425D01*
X97412500Y-93749881D01*
X97412500Y-94434118D01*
X97422882Y-94520574D01*
X97422882Y-94520575D01*
X97477139Y-94658160D01*
X97566499Y-94776000D01*
X97653844Y-94842235D01*
X97684342Y-94865362D01*
X97821923Y-94919617D01*
X97879562Y-94926539D01*
X97908381Y-94930000D01*
X97908382Y-94930000D01*
X98467619Y-94930000D01*
X98489232Y-94927404D01*
X98554077Y-94919617D01*
X98691658Y-94865362D01*
X98809500Y-94776000D01*
X98898862Y-94658158D01*
X98953117Y-94520577D01*
X98963500Y-94434118D01*
X98963500Y-93749882D01*
X98962843Y-93744415D01*
X98956223Y-93689284D01*
X98953117Y-93663423D01*
X98898862Y-93525842D01*
X98898861Y-93525840D01*
X98897145Y-93521489D01*
X98888500Y-93475999D01*
X98888500Y-92952282D01*
X98897145Y-92906793D01*
X98933117Y-92815577D01*
X98943500Y-92729118D01*
X98943500Y-92044882D01*
X98942766Y-92038774D01*
X98936563Y-91987119D01*
X98933117Y-91958423D01*
X98878862Y-91820842D01*
X98875303Y-91816149D01*
X98789500Y-91702999D01*
X98671660Y-91613639D01*
X98671658Y-91613638D01*
X98534077Y-91559383D01*
X98534076Y-91559382D01*
X98534074Y-91559382D01*
X98447619Y-91549000D01*
X98447618Y-91549000D01*
X97888382Y-91549000D01*
X97888381Y-91549000D01*
X97801925Y-91559382D01*
X97801924Y-91559382D01*
X97664339Y-91613639D01*
X97546499Y-91702999D01*
X97457139Y-91820839D01*
X97402882Y-91958424D01*
X97402882Y-91958425D01*
X97392500Y-92044881D01*
X97392500Y-92729118D01*
X96649903Y-92729118D01*
X96640483Y-92715470D01*
X96522240Y-92610717D01*
X96522238Y-92610716D01*
X96522237Y-92610715D01*
X96382365Y-92537303D01*
X96228986Y-92499500D01*
X96228985Y-92499500D01*
X96071015Y-92499500D01*
X96071014Y-92499500D01*
X95917634Y-92537303D01*
X95777762Y-92610714D01*
X95724206Y-92658160D01*
X95684522Y-92693317D01*
X95621292Y-92723037D01*
X95602298Y-92724500D01*
X93776415Y-92724500D01*
X93709376Y-92704815D01*
X93694188Y-92693316D01*
X93690864Y-92690371D01*
X93612240Y-92620717D01*
X93612238Y-92620716D01*
X93612237Y-92620715D01*
X93472365Y-92547303D01*
X93318986Y-92509500D01*
X93318985Y-92509500D01*
X93161015Y-92509500D01*
X93161014Y-92509500D01*
X93007634Y-92547303D01*
X92867762Y-92620715D01*
X92867759Y-92620717D01*
X92867760Y-92620717D01*
X92749556Y-92725436D01*
X92749516Y-92725471D01*
X92659781Y-92855475D01*
X92659780Y-92855476D01*
X92603762Y-93003181D01*
X92584722Y-93159999D01*
X92584722Y-93160000D01*
X78029828Y-93160000D01*
X78020500Y-93147699D01*
X77902660Y-93058339D01*
X77902658Y-93058338D01*
X77765077Y-93004083D01*
X77765076Y-93004082D01*
X77765074Y-93004082D01*
X77678619Y-92993700D01*
X77678618Y-92993700D01*
X77119382Y-92993700D01*
X77119381Y-92993700D01*
X77032925Y-93004082D01*
X77032924Y-93004082D01*
X76895339Y-93058339D01*
X76777499Y-93147699D01*
X76722804Y-93219827D01*
X76666612Y-93261351D01*
X76596890Y-93265902D01*
X76535776Y-93232037D01*
X76525196Y-93219827D01*
X76470500Y-93147699D01*
X76352660Y-93058339D01*
X76352658Y-93058338D01*
X76215077Y-93004083D01*
X76215076Y-93004082D01*
X76215074Y-93004082D01*
X76128619Y-92993700D01*
X76128618Y-92993700D01*
X75569382Y-92993700D01*
X75569381Y-92993700D01*
X75482925Y-93004082D01*
X75482924Y-93004082D01*
X75345339Y-93058339D01*
X75227499Y-93147699D01*
X75138139Y-93265539D01*
X75083882Y-93403124D01*
X75083882Y-93403125D01*
X75073500Y-93489581D01*
X75073500Y-94073818D01*
X67655500Y-94073818D01*
X67655500Y-93258833D01*
X70415624Y-93258833D01*
X70425944Y-93422860D01*
X70476732Y-93579171D01*
X70476734Y-93579175D01*
X70564798Y-93717940D01*
X70684603Y-93830445D01*
X70684611Y-93830451D01*
X70828628Y-93909625D01*
X70828632Y-93909627D01*
X70987823Y-93950500D01*
X70987827Y-93950500D01*
X71110923Y-93950500D01*
X71110925Y-93950500D01*
X71110930Y-93950499D01*
X71110934Y-93950499D01*
X71124174Y-93948826D01*
X71233058Y-93935071D01*
X71385871Y-93874568D01*
X71385878Y-93874563D01*
X71518835Y-93777965D01*
X71518835Y-93777963D01*
X71518837Y-93777963D01*
X71623600Y-93651326D01*
X71693579Y-93502613D01*
X71724376Y-93341170D01*
X71714056Y-93177140D01*
X71663268Y-93020829D01*
X71645731Y-92993196D01*
X71615447Y-92945476D01*
X71575202Y-92882060D01*
X71504291Y-92815470D01*
X71455396Y-92769554D01*
X71455388Y-92769548D01*
X71311371Y-92690374D01*
X71311361Y-92690371D01*
X71152180Y-92649500D01*
X71152177Y-92649500D01*
X71029075Y-92649500D01*
X71029065Y-92649500D01*
X70906942Y-92664929D01*
X70906939Y-92664929D01*
X70754130Y-92725431D01*
X70754121Y-92725436D01*
X70621164Y-92822034D01*
X70621162Y-92822037D01*
X70516400Y-92948673D01*
X70446420Y-93097387D01*
X70431207Y-93177139D01*
X70415624Y-93258830D01*
X70415624Y-93258832D01*
X70415624Y-93258833D01*
X67655500Y-93258833D01*
X67655500Y-90704618D01*
X76674500Y-90704618D01*
X76684882Y-90791074D01*
X76684882Y-90791075D01*
X76684883Y-90791077D01*
X76719743Y-90879477D01*
X76739139Y-90928660D01*
X76828499Y-91046500D01*
X76945217Y-91135009D01*
X76946342Y-91135862D01*
X77083923Y-91190117D01*
X77141562Y-91197038D01*
X77170381Y-91200500D01*
X77170382Y-91200500D01*
X77729619Y-91200500D01*
X77751232Y-91197904D01*
X77816077Y-91190117D01*
X77953658Y-91135862D01*
X78016516Y-91088195D01*
X78081826Y-91063373D01*
X78091440Y-91063000D01*
X78558560Y-91063000D01*
X78625599Y-91082685D01*
X78633472Y-91088186D01*
X78696342Y-91135862D01*
X78833923Y-91190117D01*
X78891562Y-91197038D01*
X78920381Y-91200500D01*
X78920382Y-91200500D01*
X79479619Y-91200500D01*
X79501232Y-91197904D01*
X79566077Y-91190117D01*
X79703658Y-91135862D01*
X79821500Y-91046500D01*
X79910862Y-90928658D01*
X79965117Y-90791077D01*
X79975500Y-90704618D01*
X89049500Y-90704618D01*
X89059882Y-90791074D01*
X89059882Y-90791075D01*
X89059883Y-90791077D01*
X89094743Y-90879477D01*
X89114139Y-90928660D01*
X89203499Y-91046500D01*
X89320217Y-91135009D01*
X89321342Y-91135862D01*
X89458923Y-91190117D01*
X89516562Y-91197038D01*
X89545381Y-91200500D01*
X89545382Y-91200500D01*
X90104619Y-91200500D01*
X90126232Y-91197904D01*
X90191077Y-91190117D01*
X90328658Y-91135862D01*
X90391516Y-91088195D01*
X90456826Y-91063373D01*
X90466440Y-91063000D01*
X90758560Y-91063000D01*
X90825599Y-91082685D01*
X90833472Y-91088186D01*
X90896342Y-91135862D01*
X91033923Y-91190117D01*
X91091562Y-91197039D01*
X91120381Y-91200500D01*
X91120382Y-91200500D01*
X91679619Y-91200500D01*
X91701232Y-91197904D01*
X91766077Y-91190117D01*
X91903658Y-91135862D01*
X92021500Y-91046500D01*
X92110862Y-90928658D01*
X92165117Y-90791077D01*
X92175500Y-90704618D01*
X92175500Y-90120382D01*
X92165117Y-90033923D01*
X92110862Y-89896342D01*
X92110206Y-89895477D01*
X92021500Y-89778499D01*
X91903660Y-89689139D01*
X91903658Y-89689138D01*
X91766077Y-89634883D01*
X91766076Y-89634882D01*
X91766074Y-89634882D01*
X91679619Y-89624500D01*
X91679618Y-89624500D01*
X91120382Y-89624500D01*
X91120381Y-89624500D01*
X91033925Y-89634882D01*
X91033921Y-89634883D01*
X90987081Y-89653355D01*
X90941592Y-89662000D01*
X90283408Y-89662000D01*
X90237919Y-89653355D01*
X90191078Y-89634883D01*
X90191074Y-89634882D01*
X90104619Y-89624500D01*
X90104618Y-89624500D01*
X89545382Y-89624500D01*
X89545381Y-89624500D01*
X89458925Y-89634882D01*
X89458924Y-89634882D01*
X89321339Y-89689139D01*
X89203499Y-89778499D01*
X89114139Y-89896339D01*
X89059882Y-90033924D01*
X89059882Y-90033925D01*
X89049500Y-90120381D01*
X89049500Y-90704618D01*
X79975500Y-90704618D01*
X79975500Y-90120382D01*
X79965117Y-90033923D01*
X79910862Y-89896342D01*
X79910206Y-89895477D01*
X79821500Y-89778499D01*
X79703660Y-89689139D01*
X79703658Y-89689138D01*
X79566077Y-89634883D01*
X79566076Y-89634882D01*
X79566074Y-89634882D01*
X79479619Y-89624500D01*
X79479618Y-89624500D01*
X78920382Y-89624500D01*
X78920381Y-89624500D01*
X78833925Y-89634882D01*
X78833921Y-89634883D01*
X78787081Y-89653355D01*
X78741592Y-89662000D01*
X77908408Y-89662000D01*
X77862919Y-89653355D01*
X77816078Y-89634883D01*
X77816074Y-89634882D01*
X77729619Y-89624500D01*
X77729618Y-89624500D01*
X77170382Y-89624500D01*
X77170381Y-89624500D01*
X77083925Y-89634882D01*
X77083924Y-89634882D01*
X76946339Y-89689139D01*
X76828499Y-89778499D01*
X76739139Y-89896339D01*
X76684882Y-90033924D01*
X76684882Y-90033925D01*
X76674500Y-90120381D01*
X76674500Y-90704618D01*
X67655500Y-90704618D01*
X67655500Y-84529999D01*
X69074709Y-84529999D01*
X69093851Y-84809862D01*
X69093852Y-84809864D01*
X69150921Y-85084499D01*
X69150926Y-85084516D01*
X69244863Y-85348828D01*
X69244864Y-85348830D01*
X69373919Y-85597896D01*
X69535688Y-85827069D01*
X69535692Y-85827073D01*
X69535692Y-85827074D01*
X69710954Y-86014734D01*
X69727155Y-86032081D01*
X69944754Y-86209111D01*
X69944756Y-86209112D01*
X69944757Y-86209113D01*
X70184433Y-86354863D01*
X70351054Y-86427236D01*
X70441725Y-86466620D01*
X70711839Y-86542303D01*
X70956159Y-86575884D01*
X70989741Y-86580500D01*
X70989742Y-86580500D01*
X71270259Y-86580500D01*
X71300219Y-86576381D01*
X71548161Y-86542303D01*
X71818275Y-86466620D01*
X72061497Y-86360974D01*
X72075566Y-86354863D01*
X72075568Y-86354862D01*
X72315246Y-86209111D01*
X72532845Y-86032081D01*
X72655841Y-85900382D01*
X72715984Y-85864825D01*
X72785805Y-85867426D01*
X72843136Y-85907363D01*
X72869774Y-85971955D01*
X72869993Y-85995816D01*
X72869628Y-85999992D01*
X72869628Y-86000000D01*
X72889079Y-86222329D01*
X72889081Y-86222339D01*
X72946841Y-86437905D01*
X72946843Y-86437909D01*
X72946844Y-86437913D01*
X73041165Y-86640186D01*
X73169178Y-86823007D01*
X73326993Y-86980822D01*
X73509814Y-87108835D01*
X73712087Y-87203156D01*
X73712093Y-87203157D01*
X73712094Y-87203158D01*
X73721663Y-87205722D01*
X73927666Y-87260920D01*
X74105533Y-87276481D01*
X74149999Y-87280372D01*
X74150000Y-87280372D01*
X74150001Y-87280372D01*
X74187055Y-87277129D01*
X74372334Y-87260920D01*
X74587913Y-87203156D01*
X74790186Y-87108835D01*
X74973007Y-86980822D01*
X75130822Y-86823007D01*
X75248426Y-86655050D01*
X75303002Y-86611427D01*
X75372501Y-86604235D01*
X75434855Y-86635757D01*
X75451571Y-86655047D01*
X75569178Y-86823007D01*
X75726993Y-86980822D01*
X75909814Y-87108835D01*
X76112087Y-87203156D01*
X76112093Y-87203157D01*
X76112094Y-87203158D01*
X76121663Y-87205722D01*
X76327666Y-87260920D01*
X76505533Y-87276481D01*
X76549999Y-87280372D01*
X76550000Y-87280372D01*
X76550001Y-87280372D01*
X76587055Y-87277129D01*
X76772334Y-87260920D01*
X76987913Y-87203156D01*
X77190186Y-87108835D01*
X77373007Y-86980822D01*
X77530822Y-86823007D01*
X77658835Y-86640186D01*
X77668117Y-86620279D01*
X77714287Y-86567841D01*
X77781481Y-86548688D01*
X77848362Y-86568903D01*
X77893698Y-86622067D01*
X77904499Y-86672684D01*
X77904499Y-87052390D01*
X77884814Y-87119429D01*
X77868180Y-87140071D01*
X77244309Y-87763942D01*
X77182986Y-87797427D01*
X77171413Y-87799376D01*
X77083925Y-87809882D01*
X77083924Y-87809882D01*
X76946339Y-87864139D01*
X76828499Y-87953499D01*
X76773804Y-88025627D01*
X76717612Y-88067151D01*
X76647890Y-88071702D01*
X76586776Y-88037837D01*
X76576196Y-88025627D01*
X76521500Y-87953499D01*
X76403660Y-87864139D01*
X76403658Y-87864138D01*
X76266077Y-87809883D01*
X76266076Y-87809882D01*
X76266074Y-87809882D01*
X76179619Y-87799500D01*
X76179618Y-87799500D01*
X75620382Y-87799500D01*
X75620381Y-87799500D01*
X75533925Y-87809882D01*
X75533924Y-87809882D01*
X75396339Y-87864139D01*
X75278499Y-87953499D01*
X75189139Y-88071339D01*
X75134882Y-88208924D01*
X75134882Y-88208925D01*
X75124500Y-88295381D01*
X75124500Y-88979618D01*
X75134882Y-89066074D01*
X75134882Y-89066075D01*
X75134883Y-89066077D01*
X75187447Y-89199371D01*
X75189139Y-89203660D01*
X75278499Y-89321500D01*
X75363374Y-89385862D01*
X75396342Y-89410862D01*
X75533923Y-89465117D01*
X75591562Y-89472039D01*
X75620381Y-89475500D01*
X75620382Y-89475500D01*
X76179619Y-89475500D01*
X76201232Y-89472904D01*
X76266077Y-89465117D01*
X76403658Y-89410862D01*
X76521500Y-89321500D01*
X76610862Y-89203658D01*
X76610863Y-89203654D01*
X76614110Y-89199373D01*
X76670302Y-89157849D01*
X76740024Y-89153296D01*
X76801138Y-89187161D01*
X76811718Y-89199371D01*
X76828498Y-89221499D01*
X76946339Y-89310860D01*
X76946342Y-89310862D01*
X77083923Y-89365117D01*
X77141562Y-89372039D01*
X77170381Y-89375500D01*
X77170382Y-89375500D01*
X77729619Y-89375500D01*
X77751232Y-89372904D01*
X77816077Y-89365117D01*
X77953658Y-89310862D01*
X78071500Y-89221500D01*
X78160862Y-89103658D01*
X78209646Y-88979948D01*
X78252551Y-88924807D01*
X78318459Y-88901614D01*
X78386443Y-88917734D01*
X78434920Y-88968051D01*
X78440349Y-88979938D01*
X78489138Y-89103658D01*
X78489139Y-89103660D01*
X78578499Y-89221500D01*
X78696339Y-89310860D01*
X78696342Y-89310862D01*
X78833923Y-89365117D01*
X78891562Y-89372039D01*
X78920381Y-89375500D01*
X78920382Y-89375500D01*
X79479619Y-89375500D01*
X79501232Y-89372904D01*
X79566077Y-89365117D01*
X79703658Y-89310862D01*
X79821500Y-89221500D01*
X79838279Y-89199372D01*
X79894471Y-89157849D01*
X79964192Y-89153296D01*
X80025307Y-89187160D01*
X80035888Y-89199372D01*
X80128499Y-89321500D01*
X80213374Y-89385862D01*
X80246342Y-89410862D01*
X80383923Y-89465117D01*
X80441562Y-89472039D01*
X80470381Y-89475500D01*
X80470382Y-89475500D01*
X81029619Y-89475500D01*
X81051232Y-89472904D01*
X81116077Y-89465117D01*
X81253658Y-89410862D01*
X81371500Y-89321500D01*
X81460862Y-89203658D01*
X81485370Y-89141509D01*
X81528275Y-89086366D01*
X81594182Y-89063173D01*
X81600724Y-89063000D01*
X83629892Y-89063000D01*
X83629893Y-89063000D01*
X83652860Y-89055536D01*
X83671776Y-89050995D01*
X83695626Y-89047219D01*
X83717136Y-89036257D01*
X83735122Y-89028807D01*
X83742029Y-89026563D01*
X83780332Y-89020500D01*
X83908985Y-89020500D01*
X84062365Y-88982696D01*
X84139534Y-88942194D01*
X84202240Y-88909283D01*
X84320483Y-88804530D01*
X84410220Y-88674523D01*
X84466237Y-88526818D01*
X84485278Y-88370000D01*
X84483118Y-88352206D01*
X84466237Y-88213181D01*
X84417106Y-88083635D01*
X84410220Y-88065477D01*
X84320483Y-87935470D01*
X84202240Y-87830717D01*
X84202238Y-87830716D01*
X84202237Y-87830715D01*
X84062365Y-87757303D01*
X83908986Y-87719500D01*
X83908985Y-87719500D01*
X83751015Y-87719500D01*
X83751014Y-87719500D01*
X83597634Y-87757303D01*
X83457762Y-87830715D01*
X83339516Y-87935471D01*
X83249781Y-88065474D01*
X83224562Y-88131972D01*
X83182384Y-88187674D01*
X83116786Y-88211731D01*
X83108620Y-88212000D01*
X81600724Y-88212000D01*
X81533685Y-88192315D01*
X81487930Y-88139511D01*
X81485377Y-88133509D01*
X81460862Y-88071342D01*
X81460860Y-88071339D01*
X81371500Y-87953499D01*
X81253660Y-87864139D01*
X81253658Y-87864138D01*
X81116077Y-87809883D01*
X81116076Y-87809882D01*
X81116074Y-87809882D01*
X81029619Y-87799500D01*
X81029618Y-87799500D01*
X80470382Y-87799500D01*
X80470381Y-87799500D01*
X80383925Y-87809882D01*
X80383924Y-87809882D01*
X80246339Y-87864139D01*
X80128499Y-87953499D01*
X80073804Y-88025627D01*
X80017612Y-88067151D01*
X79947890Y-88071702D01*
X79886776Y-88037837D01*
X79876196Y-88025627D01*
X79821500Y-87953499D01*
X79703657Y-87864137D01*
X79696264Y-87859980D01*
X79696939Y-87858777D01*
X79648858Y-87821358D01*
X79625672Y-87755448D01*
X79625500Y-87748921D01*
X79625500Y-86049669D01*
X79640482Y-85998643D01*
X79627931Y-85974762D01*
X79625500Y-85950330D01*
X79625500Y-85507610D01*
X79645185Y-85440571D01*
X79661813Y-85419934D01*
X79822828Y-85258919D01*
X79884148Y-85225437D01*
X79953839Y-85230421D01*
X80009773Y-85272292D01*
X80034190Y-85337757D01*
X80022888Y-85399007D01*
X79946846Y-85562080D01*
X79946841Y-85562094D01*
X79889081Y-85777660D01*
X79889079Y-85777670D01*
X79873028Y-85961138D01*
X79858273Y-85998856D01*
X79868477Y-86014734D01*
X79873028Y-86038861D01*
X79889079Y-86222329D01*
X79889081Y-86222339D01*
X79946841Y-86437905D01*
X79946843Y-86437909D01*
X79946844Y-86437913D01*
X80041165Y-86640186D01*
X80169178Y-86823007D01*
X80326993Y-86980822D01*
X80509814Y-87108835D01*
X80712087Y-87203156D01*
X80712093Y-87203157D01*
X80712094Y-87203158D01*
X80721663Y-87205722D01*
X80927666Y-87260920D01*
X81105533Y-87276481D01*
X81149999Y-87280372D01*
X81150000Y-87280372D01*
X81150001Y-87280372D01*
X81187055Y-87277129D01*
X81372334Y-87260920D01*
X81587913Y-87203156D01*
X81790186Y-87108835D01*
X81973007Y-86980822D01*
X82130822Y-86823007D01*
X82248426Y-86655050D01*
X82303002Y-86611427D01*
X82372501Y-86604235D01*
X82434855Y-86635757D01*
X82451571Y-86655047D01*
X82569178Y-86823007D01*
X82726993Y-86980822D01*
X82909814Y-87108835D01*
X83112087Y-87203156D01*
X83112093Y-87203157D01*
X83112094Y-87203158D01*
X83121663Y-87205722D01*
X83327666Y-87260920D01*
X83505533Y-87276481D01*
X83549999Y-87280372D01*
X83550000Y-87280372D01*
X83550001Y-87280372D01*
X83587055Y-87277129D01*
X83772334Y-87260920D01*
X83987913Y-87203156D01*
X84190186Y-87108835D01*
X84373007Y-86980822D01*
X84530822Y-86823007D01*
X84658835Y-86640186D01*
X84662617Y-86632074D01*
X84708788Y-86579634D01*
X84775981Y-86560481D01*
X84842863Y-86580695D01*
X84887383Y-86632075D01*
X84891163Y-86640183D01*
X84891164Y-86640184D01*
X84891165Y-86640186D01*
X85019178Y-86823007D01*
X85176993Y-86980822D01*
X85359814Y-87108835D01*
X85562087Y-87203156D01*
X85562093Y-87203157D01*
X85562094Y-87203158D01*
X85571663Y-87205722D01*
X85777666Y-87260920D01*
X85955533Y-87276481D01*
X85999999Y-87280372D01*
X86000000Y-87280372D01*
X86000001Y-87280372D01*
X86037055Y-87277129D01*
X86222334Y-87260920D01*
X86437913Y-87203156D01*
X86640186Y-87108835D01*
X86823007Y-86980822D01*
X86980822Y-86823007D01*
X87098426Y-86655050D01*
X87153002Y-86611427D01*
X87222501Y-86604235D01*
X87284855Y-86635757D01*
X87301571Y-86655047D01*
X87419178Y-86823007D01*
X87576993Y-86980822D01*
X87759814Y-87108835D01*
X87962087Y-87203156D01*
X87962093Y-87203157D01*
X87962094Y-87203158D01*
X87971663Y-87205722D01*
X88177666Y-87260920D01*
X88355533Y-87276481D01*
X88399999Y-87280372D01*
X88400000Y-87280372D01*
X88400001Y-87280372D01*
X88437055Y-87277129D01*
X88622334Y-87260920D01*
X88837913Y-87203156D01*
X89040186Y-87108835D01*
X89223007Y-86980822D01*
X89270288Y-86933540D01*
X89331609Y-86900056D01*
X89401300Y-86905040D01*
X89457234Y-86946911D01*
X89481652Y-87012375D01*
X89468453Y-87077517D01*
X89465511Y-87083291D01*
X89455346Y-87099878D01*
X89441152Y-87119414D01*
X89441151Y-87119417D01*
X89433688Y-87142385D01*
X89426243Y-87160358D01*
X89415280Y-87181873D01*
X89411503Y-87205722D01*
X89406961Y-87224640D01*
X89400673Y-87243993D01*
X89364970Y-87298491D01*
X89334517Y-87325469D01*
X89334515Y-87325472D01*
X89244781Y-87455475D01*
X89244780Y-87455476D01*
X89188762Y-87603181D01*
X89169722Y-87759999D01*
X89169722Y-87760000D01*
X89188582Y-87915334D01*
X89177121Y-87984257D01*
X89164291Y-88005204D01*
X89148805Y-88025626D01*
X89092613Y-88067150D01*
X89022892Y-88071703D01*
X88961777Y-88037839D01*
X88951196Y-88025627D01*
X88896500Y-87953499D01*
X88778660Y-87864139D01*
X88778658Y-87864138D01*
X88641077Y-87809883D01*
X88641076Y-87809882D01*
X88641074Y-87809882D01*
X88554619Y-87799500D01*
X88554618Y-87799500D01*
X87995382Y-87799500D01*
X87995381Y-87799500D01*
X87908925Y-87809882D01*
X87908924Y-87809882D01*
X87771339Y-87864139D01*
X87653499Y-87953499D01*
X87564139Y-88071339D01*
X87509882Y-88208924D01*
X87509882Y-88208925D01*
X87499500Y-88295381D01*
X87499500Y-88979618D01*
X87509882Y-89066074D01*
X87509882Y-89066075D01*
X87509883Y-89066077D01*
X87562447Y-89199371D01*
X87564139Y-89203660D01*
X87653499Y-89321500D01*
X87738374Y-89385862D01*
X87771342Y-89410862D01*
X87908923Y-89465117D01*
X87966562Y-89472039D01*
X87995381Y-89475500D01*
X87995382Y-89475500D01*
X88554619Y-89475500D01*
X88576232Y-89472904D01*
X88641077Y-89465117D01*
X88778658Y-89410862D01*
X88896500Y-89321500D01*
X88985862Y-89203658D01*
X88985863Y-89203654D01*
X88989110Y-89199373D01*
X89045302Y-89157849D01*
X89115024Y-89153296D01*
X89176138Y-89187161D01*
X89186718Y-89199371D01*
X89203498Y-89221499D01*
X89321339Y-89310860D01*
X89321342Y-89310862D01*
X89458923Y-89365117D01*
X89516562Y-89372039D01*
X89545381Y-89375500D01*
X89545382Y-89375500D01*
X90104619Y-89375500D01*
X90126232Y-89372904D01*
X90191077Y-89365117D01*
X90328658Y-89310862D01*
X90446500Y-89221500D01*
X90513696Y-89132887D01*
X90569888Y-89091365D01*
X90639609Y-89086813D01*
X90700723Y-89120677D01*
X90711304Y-89132888D01*
X90778499Y-89221500D01*
X90896339Y-89310860D01*
X90896342Y-89310862D01*
X91033923Y-89365117D01*
X91091562Y-89372039D01*
X91120381Y-89375500D01*
X91120382Y-89375500D01*
X91679619Y-89375500D01*
X91701232Y-89372904D01*
X91766077Y-89365117D01*
X91903658Y-89310862D01*
X92021500Y-89221500D01*
X92060428Y-89170164D01*
X92116621Y-89128641D01*
X92186342Y-89124089D01*
X92247456Y-89157953D01*
X92258345Y-89172406D01*
X92259013Y-89171900D01*
X92353499Y-89296500D01*
X92471339Y-89385860D01*
X92471342Y-89385862D01*
X92608923Y-89440117D01*
X92666562Y-89447039D01*
X92695381Y-89450500D01*
X92695382Y-89450500D01*
X93254619Y-89450500D01*
X93276232Y-89447904D01*
X93341077Y-89440117D01*
X93478658Y-89385862D01*
X93596500Y-89296500D01*
X93685862Y-89178658D01*
X93710370Y-89116509D01*
X93753275Y-89061366D01*
X93819182Y-89038173D01*
X93825724Y-89038000D01*
X94914892Y-89038000D01*
X94914893Y-89038000D01*
X94937860Y-89030536D01*
X94956776Y-89025995D01*
X94980626Y-89022219D01*
X95002136Y-89011257D01*
X95020114Y-89003810D01*
X95043081Y-88996349D01*
X95062618Y-88982153D01*
X95079206Y-88971988D01*
X95100720Y-88961028D01*
X95196028Y-88865720D01*
X95254587Y-88807161D01*
X95254598Y-88807148D01*
X95599928Y-88461819D01*
X95661252Y-88428334D01*
X95687610Y-88425500D01*
X95772277Y-88425500D01*
X95839316Y-88445185D01*
X95874327Y-88479061D01*
X95919514Y-88544527D01*
X95919516Y-88544529D01*
X95919517Y-88544530D01*
X96037760Y-88649283D01*
X96037762Y-88649284D01*
X96177634Y-88722696D01*
X96331014Y-88760500D01*
X96331015Y-88760500D01*
X96488985Y-88760500D01*
X96642365Y-88722696D01*
X96642364Y-88722695D01*
X96782240Y-88649283D01*
X96900483Y-88544530D01*
X96990220Y-88414523D01*
X97046237Y-88266818D01*
X97065278Y-88110000D01*
X97059172Y-88059708D01*
X97046237Y-87953181D01*
X97019135Y-87881719D01*
X96990220Y-87805477D01*
X96900483Y-87675470D01*
X96782240Y-87570717D01*
X96782238Y-87570716D01*
X96782237Y-87570715D01*
X96642365Y-87497303D01*
X96488986Y-87459500D01*
X96488985Y-87459500D01*
X96331015Y-87459500D01*
X96331014Y-87459500D01*
X96177634Y-87497303D01*
X96057615Y-87560296D01*
X95999989Y-87574500D01*
X95527393Y-87574500D01*
X95392607Y-87574500D01*
X95392603Y-87574501D01*
X95392604Y-87574501D01*
X95369635Y-87581963D01*
X95350722Y-87586503D01*
X95326874Y-87590280D01*
X95305359Y-87601242D01*
X95287389Y-87608685D01*
X95264421Y-87616148D01*
X95264417Y-87616149D01*
X95244880Y-87630344D01*
X95228299Y-87640506D01*
X95206780Y-87651471D01*
X95206778Y-87651473D01*
X95165368Y-87692881D01*
X95165364Y-87692887D01*
X94707571Y-88150681D01*
X94646248Y-88184166D01*
X94619890Y-88187000D01*
X93825724Y-88187000D01*
X93758685Y-88167315D01*
X93712930Y-88114511D01*
X93710377Y-88108509D01*
X93685862Y-88046342D01*
X93685860Y-88046339D01*
X93596500Y-87928499D01*
X93478660Y-87839139D01*
X93478658Y-87839138D01*
X93341077Y-87784883D01*
X93341076Y-87784882D01*
X93341074Y-87784882D01*
X93254619Y-87774500D01*
X93254618Y-87774500D01*
X92695382Y-87774500D01*
X92695381Y-87774500D01*
X92608925Y-87784882D01*
X92608924Y-87784882D01*
X92471339Y-87839139D01*
X92353499Y-87928499D01*
X92276825Y-88029611D01*
X92220633Y-88071134D01*
X92150911Y-88075686D01*
X92089797Y-88041821D01*
X92079217Y-88029611D01*
X92021500Y-87953499D01*
X91903657Y-87864137D01*
X91896264Y-87859980D01*
X91896939Y-87858777D01*
X91848858Y-87821358D01*
X91825672Y-87755448D01*
X91825500Y-87748921D01*
X91825500Y-87632608D01*
X91825499Y-87632604D01*
X91818039Y-87609645D01*
X91813495Y-87590721D01*
X91809719Y-87566874D01*
X91798753Y-87545354D01*
X91791308Y-87527378D01*
X91783849Y-87504420D01*
X91783849Y-87504419D01*
X91769651Y-87484878D01*
X91759492Y-87468299D01*
X91748528Y-87446780D01*
X91653220Y-87351472D01*
X91651819Y-87350071D01*
X91618334Y-87288748D01*
X91615500Y-87262390D01*
X91615500Y-86608347D01*
X91635185Y-86541308D01*
X91687989Y-86495553D01*
X91757147Y-86485609D01*
X91820703Y-86514634D01*
X91851882Y-86555943D01*
X91879677Y-86615551D01*
X91891165Y-86640186D01*
X92019178Y-86823007D01*
X92176993Y-86980822D01*
X92359814Y-87108835D01*
X92562087Y-87203156D01*
X92562093Y-87203157D01*
X92562094Y-87203158D01*
X92571663Y-87205722D01*
X92777666Y-87260920D01*
X92955533Y-87276481D01*
X92999999Y-87280372D01*
X93000000Y-87280372D01*
X93000001Y-87280372D01*
X93037055Y-87277129D01*
X93222334Y-87260920D01*
X93437913Y-87203156D01*
X93640186Y-87108835D01*
X93823007Y-86980822D01*
X93980822Y-86823007D01*
X94098426Y-86655050D01*
X94153002Y-86611427D01*
X94222501Y-86604235D01*
X94284855Y-86635757D01*
X94301571Y-86655047D01*
X94419178Y-86823007D01*
X94576993Y-86980822D01*
X94759814Y-87108835D01*
X94962087Y-87203156D01*
X94962093Y-87203157D01*
X94962094Y-87203158D01*
X94971663Y-87205722D01*
X95177666Y-87260920D01*
X95355533Y-87276481D01*
X95399999Y-87280372D01*
X95400000Y-87280372D01*
X95400001Y-87280372D01*
X95437055Y-87277129D01*
X95622334Y-87260920D01*
X95837913Y-87203156D01*
X96040186Y-87108835D01*
X96223007Y-86980822D01*
X96380822Y-86823007D01*
X96508835Y-86640186D01*
X96603156Y-86437913D01*
X96660920Y-86222334D01*
X96680372Y-86000000D01*
X96680194Y-85997971D01*
X96672267Y-85907363D01*
X96660920Y-85777666D01*
X96603156Y-85562087D01*
X96508835Y-85359814D01*
X96380822Y-85176993D01*
X96223007Y-85019178D01*
X96040186Y-84891165D01*
X95837913Y-84796844D01*
X95837909Y-84796843D01*
X95837905Y-84796841D01*
X95622339Y-84739081D01*
X95622329Y-84739079D01*
X95400001Y-84719628D01*
X95399999Y-84719628D01*
X95177670Y-84739079D01*
X95177660Y-84739081D01*
X94962094Y-84796841D01*
X94962087Y-84796843D01*
X94962087Y-84796844D01*
X94759814Y-84891165D01*
X94576993Y-85019178D01*
X94576991Y-85019179D01*
X94576988Y-85019182D01*
X94419178Y-85176992D01*
X94301574Y-85344947D01*
X94246997Y-85388572D01*
X94177499Y-85395764D01*
X94115144Y-85364242D01*
X94098426Y-85344947D01*
X93993564Y-85195191D01*
X93980822Y-85176993D01*
X93823007Y-85019178D01*
X93640186Y-84891165D01*
X93437913Y-84796844D01*
X93437909Y-84796843D01*
X93437905Y-84796841D01*
X93222339Y-84739081D01*
X93222329Y-84739079D01*
X93000001Y-84719628D01*
X92999999Y-84719628D01*
X92777670Y-84739079D01*
X92777660Y-84739081D01*
X92562094Y-84796841D01*
X92562087Y-84796843D01*
X92562087Y-84796844D01*
X92548866Y-84803009D01*
X92359813Y-84891165D01*
X92359809Y-84891167D01*
X92255840Y-84963968D01*
X92189634Y-84986295D01*
X92121867Y-84969285D01*
X92074054Y-84918337D01*
X92061376Y-84849627D01*
X92087858Y-84784970D01*
X92097037Y-84774711D01*
X92102233Y-84769515D01*
X92105777Y-84758991D01*
X92109493Y-84751697D01*
X92119652Y-84735120D01*
X92133850Y-84715580D01*
X92141314Y-84692605D01*
X92148751Y-84674650D01*
X92159719Y-84653126D01*
X92163496Y-84629271D01*
X92168034Y-84610366D01*
X92175500Y-84587393D01*
X92175500Y-84542572D01*
X92195185Y-84475533D01*
X92241045Y-84433215D01*
X92338683Y-84381027D01*
X92499252Y-84249252D01*
X92631027Y-84088683D01*
X92717284Y-83927308D01*
X92728943Y-83905496D01*
X92728943Y-83905495D01*
X92728945Y-83905492D01*
X92789242Y-83706718D01*
X92809602Y-83500000D01*
X92789242Y-83293282D01*
X92728945Y-83094508D01*
X92728943Y-83094505D01*
X92728943Y-83094503D01*
X92631030Y-82911322D01*
X92631028Y-82911320D01*
X92631027Y-82911317D01*
X92558710Y-82823198D01*
X92499252Y-82750747D01*
X92338684Y-82618974D01*
X92338677Y-82618969D01*
X92155496Y-82521056D01*
X91956716Y-82460757D01*
X91750000Y-82440398D01*
X91543283Y-82460757D01*
X91344503Y-82521056D01*
X91161322Y-82618969D01*
X91161315Y-82618974D01*
X91000747Y-82750747D01*
X90868974Y-82911315D01*
X90868969Y-82911322D01*
X90809358Y-83022847D01*
X90760396Y-83072692D01*
X90692258Y-83088152D01*
X90626578Y-83064320D01*
X90590642Y-83022847D01*
X90531030Y-82911322D01*
X90531028Y-82911320D01*
X90531027Y-82911317D01*
X90458710Y-82823198D01*
X90399252Y-82750747D01*
X90238684Y-82618974D01*
X90238677Y-82618969D01*
X90055496Y-82521056D01*
X89856716Y-82460757D01*
X89650000Y-82440398D01*
X89443283Y-82460757D01*
X89244503Y-82521056D01*
X89061322Y-82618969D01*
X89061315Y-82618974D01*
X88900747Y-82750747D01*
X88768974Y-82911315D01*
X88768969Y-82911322D01*
X88671056Y-83094503D01*
X88610757Y-83293283D01*
X88590398Y-83499999D01*
X88610757Y-83706716D01*
X88671056Y-83905496D01*
X88768969Y-84088677D01*
X88768974Y-84088684D01*
X88900747Y-84249252D01*
X89061315Y-84381025D01*
X89061318Y-84381028D01*
X89080246Y-84391145D01*
X89158954Y-84433215D01*
X89208797Y-84482175D01*
X89224500Y-84542572D01*
X89224500Y-84567394D01*
X89231962Y-84590358D01*
X89236503Y-84609273D01*
X89236674Y-84610349D01*
X89240281Y-84633127D01*
X89251243Y-84654641D01*
X89258688Y-84672615D01*
X89265284Y-84692913D01*
X89266151Y-84695581D01*
X89278900Y-84713128D01*
X89280341Y-84715111D01*
X89290508Y-84731703D01*
X89301469Y-84753216D01*
X89301471Y-84753219D01*
X89301472Y-84753220D01*
X89325446Y-84777193D01*
X89325446Y-84777194D01*
X89345093Y-84796841D01*
X89369680Y-84821428D01*
X89403165Y-84882751D01*
X89398181Y-84952443D01*
X89356309Y-85008376D01*
X89290845Y-85032793D01*
X89222572Y-85017941D01*
X89210886Y-85010691D01*
X89040186Y-84891165D01*
X88837913Y-84796844D01*
X88837909Y-84796843D01*
X88837905Y-84796841D01*
X88622339Y-84739081D01*
X88622329Y-84739079D01*
X88400001Y-84719628D01*
X88399999Y-84719628D01*
X88177670Y-84739079D01*
X88177660Y-84739081D01*
X87962094Y-84796841D01*
X87962087Y-84796843D01*
X87962087Y-84796844D01*
X87759814Y-84891165D01*
X87576993Y-85019178D01*
X87576991Y-85019179D01*
X87576988Y-85019182D01*
X87419178Y-85176992D01*
X87301574Y-85344947D01*
X87246997Y-85388572D01*
X87177499Y-85395764D01*
X87115144Y-85364242D01*
X87098426Y-85344947D01*
X86993564Y-85195191D01*
X86980822Y-85176993D01*
X86823007Y-85019178D01*
X86640186Y-84891165D01*
X86437913Y-84796844D01*
X86437909Y-84796843D01*
X86437905Y-84796841D01*
X86222339Y-84739081D01*
X86222329Y-84739079D01*
X86000001Y-84719628D01*
X85999999Y-84719628D01*
X85777670Y-84739079D01*
X85777660Y-84739081D01*
X85562094Y-84796841D01*
X85562087Y-84796843D01*
X85562087Y-84796844D01*
X85359814Y-84891165D01*
X85176993Y-85019178D01*
X85176991Y-85019179D01*
X85176988Y-85019182D01*
X85019182Y-85176988D01*
X85019179Y-85176991D01*
X85019178Y-85176993D01*
X84971898Y-85244516D01*
X84891169Y-85359809D01*
X84891165Y-85359814D01*
X84887380Y-85367929D01*
X84841209Y-85420367D01*
X84774015Y-85439518D01*
X84707134Y-85419302D01*
X84662619Y-85367929D01*
X84658835Y-85359814D01*
X84530822Y-85176993D01*
X84373007Y-85019178D01*
X84190186Y-84891165D01*
X83987913Y-84796844D01*
X83987909Y-84796843D01*
X83987905Y-84796841D01*
X83772339Y-84739081D01*
X83772329Y-84739079D01*
X83550001Y-84719628D01*
X83549999Y-84719628D01*
X83327670Y-84739079D01*
X83327660Y-84739081D01*
X83112094Y-84796841D01*
X83112087Y-84796843D01*
X83112087Y-84796844D01*
X82909814Y-84891165D01*
X82726993Y-85019178D01*
X82726991Y-85019179D01*
X82726988Y-85019182D01*
X82569178Y-85176992D01*
X82451574Y-85344947D01*
X82396997Y-85388572D01*
X82327499Y-85395764D01*
X82265144Y-85364242D01*
X82248426Y-85344947D01*
X82143564Y-85195191D01*
X82130822Y-85176993D01*
X81973007Y-85019178D01*
X81790186Y-84891165D01*
X81587913Y-84796844D01*
X81587909Y-84796843D01*
X81587905Y-84796841D01*
X81372339Y-84739081D01*
X81372329Y-84739079D01*
X81150001Y-84719628D01*
X81149999Y-84719628D01*
X80927670Y-84739079D01*
X80927660Y-84739081D01*
X80712094Y-84796841D01*
X80712087Y-84796843D01*
X80712087Y-84796844D01*
X80698866Y-84803009D01*
X80509813Y-84891165D01*
X80509809Y-84891167D01*
X80472256Y-84917463D01*
X80406050Y-84939790D01*
X80338283Y-84922780D01*
X80290470Y-84871832D01*
X80277792Y-84803122D01*
X80283201Y-84777573D01*
X80283847Y-84775583D01*
X80283849Y-84775581D01*
X80291311Y-84752611D01*
X80298759Y-84734634D01*
X80309718Y-84713128D01*
X80309718Y-84713127D01*
X80309719Y-84713126D01*
X80313495Y-84689276D01*
X80318036Y-84670360D01*
X80325500Y-84647393D01*
X80325500Y-84542571D01*
X80345185Y-84475533D01*
X80391045Y-84433215D01*
X80488683Y-84381027D01*
X80649252Y-84249252D01*
X80781027Y-84088683D01*
X80867284Y-83927308D01*
X80878943Y-83905496D01*
X80878943Y-83905495D01*
X80878945Y-83905492D01*
X80939242Y-83706718D01*
X80959602Y-83500000D01*
X80939242Y-83293282D01*
X80878945Y-83094508D01*
X80878943Y-83094505D01*
X80878943Y-83094503D01*
X80781030Y-82911322D01*
X80781028Y-82911320D01*
X80781027Y-82911317D01*
X80708710Y-82823198D01*
X80649252Y-82750747D01*
X80488684Y-82618974D01*
X80488677Y-82618969D01*
X80305496Y-82521056D01*
X80106716Y-82460757D01*
X79922583Y-82442622D01*
X79900000Y-82440398D01*
X79899999Y-82440398D01*
X79693283Y-82460757D01*
X79494503Y-82521056D01*
X79311322Y-82618969D01*
X79311315Y-82618974D01*
X79150747Y-82750747D01*
X79018974Y-82911315D01*
X79018969Y-82911322D01*
X78959358Y-83022847D01*
X78910396Y-83072692D01*
X78842258Y-83088152D01*
X78776578Y-83064320D01*
X78740642Y-83022847D01*
X78681030Y-82911322D01*
X78681028Y-82911320D01*
X78681027Y-82911317D01*
X78608710Y-82823198D01*
X78549252Y-82750747D01*
X78388684Y-82618974D01*
X78388677Y-82618969D01*
X78205496Y-82521056D01*
X78006716Y-82460757D01*
X77800000Y-82440398D01*
X77593283Y-82460757D01*
X77394503Y-82521056D01*
X77211322Y-82618969D01*
X77211315Y-82618974D01*
X77050747Y-82750747D01*
X76918974Y-82911315D01*
X76918969Y-82911322D01*
X76821056Y-83094503D01*
X76760757Y-83293283D01*
X76740398Y-83499999D01*
X76760757Y-83706716D01*
X76821056Y-83905496D01*
X76918969Y-84088677D01*
X76918974Y-84088684D01*
X77050747Y-84249252D01*
X77211315Y-84381025D01*
X77211318Y-84381028D01*
X77230246Y-84391145D01*
X77308954Y-84433215D01*
X77358797Y-84482175D01*
X77374500Y-84542572D01*
X77374500Y-84782804D01*
X77354815Y-84849843D01*
X77302011Y-84895598D01*
X77232853Y-84905542D01*
X77195484Y-84892612D01*
X77195092Y-84893453D01*
X77190187Y-84891165D01*
X77190186Y-84891165D01*
X76987913Y-84796844D01*
X76987909Y-84796843D01*
X76987905Y-84796841D01*
X76772339Y-84739081D01*
X76772329Y-84739079D01*
X76550001Y-84719628D01*
X76549999Y-84719628D01*
X76327670Y-84739079D01*
X76327660Y-84739081D01*
X76112094Y-84796841D01*
X76112087Y-84796843D01*
X76112087Y-84796844D01*
X75909814Y-84891165D01*
X75726993Y-85019178D01*
X75726991Y-85019179D01*
X75726988Y-85019182D01*
X75569178Y-85176992D01*
X75451574Y-85344947D01*
X75396997Y-85388572D01*
X75327499Y-85395764D01*
X75265144Y-85364242D01*
X75248426Y-85344947D01*
X75143564Y-85195191D01*
X75130822Y-85176993D01*
X74973007Y-85019178D01*
X74790186Y-84891165D01*
X74587913Y-84796844D01*
X74587909Y-84796843D01*
X74587905Y-84796841D01*
X74372339Y-84739081D01*
X74372329Y-84739079D01*
X74150001Y-84719628D01*
X74149999Y-84719628D01*
X73927670Y-84739079D01*
X73927660Y-84739081D01*
X73712094Y-84796841D01*
X73712087Y-84796843D01*
X73712087Y-84796844D01*
X73509814Y-84891165D01*
X73344005Y-85007265D01*
X73277800Y-85029592D01*
X73210033Y-85012582D01*
X73162220Y-84961634D01*
X73149542Y-84892924D01*
X73151477Y-84880461D01*
X73156355Y-84856990D01*
X73166148Y-84809862D01*
X73185291Y-84530000D01*
X73166148Y-84250138D01*
X73135367Y-84102011D01*
X73109078Y-83975500D01*
X73109073Y-83975483D01*
X73015136Y-83711171D01*
X73015136Y-83711170D01*
X72886081Y-83462104D01*
X72724312Y-83232931D01*
X72724307Y-83232925D01*
X72532845Y-83027919D01*
X72437754Y-82950557D01*
X72315246Y-82850889D01*
X72315244Y-82850888D01*
X72315242Y-82850886D01*
X72075566Y-82705136D01*
X71818276Y-82593380D01*
X71548166Y-82517698D01*
X71548162Y-82517697D01*
X71548161Y-82517697D01*
X71409209Y-82498598D01*
X71270259Y-82479500D01*
X71270258Y-82479500D01*
X70989742Y-82479500D01*
X70989741Y-82479500D01*
X70711839Y-82517697D01*
X70711833Y-82517698D01*
X70441723Y-82593380D01*
X70184433Y-82705136D01*
X69944757Y-82850886D01*
X69727154Y-83027919D01*
X69535692Y-83232925D01*
X69535692Y-83232926D01*
X69535689Y-83232928D01*
X69535688Y-83232931D01*
X69479446Y-83312607D01*
X69373919Y-83462103D01*
X69244863Y-83711171D01*
X69150926Y-83975483D01*
X69150921Y-83975500D01*
X69093852Y-84250135D01*
X69093851Y-84250137D01*
X69074709Y-84529999D01*
X67655500Y-84529999D01*
X67655500Y-84031623D01*
X67655585Y-84028377D01*
X67671625Y-83722324D01*
X67672304Y-83715866D01*
X67681597Y-83657193D01*
X67719993Y-83414763D01*
X67721336Y-83408443D01*
X67800242Y-83113963D01*
X67802240Y-83107811D01*
X67911497Y-82823188D01*
X67914126Y-82817281D01*
X68052544Y-82545620D01*
X68055770Y-82540034D01*
X68221813Y-82284352D01*
X68225623Y-82279109D01*
X68351731Y-82123378D01*
X68417481Y-82042183D01*
X68421808Y-82037378D01*
X68637378Y-81821808D01*
X68642183Y-81817481D01*
X68879107Y-81625623D01*
X68884352Y-81621813D01*
X69140034Y-81455770D01*
X69145620Y-81452544D01*
X69417281Y-81314126D01*
X69423188Y-81311497D01*
X69707811Y-81202240D01*
X69713963Y-81200242D01*
X70008443Y-81121336D01*
X70014763Y-81119993D01*
X70315866Y-81072303D01*
X70322324Y-81071625D01*
X70382834Y-81068453D01*
X70628379Y-81055584D01*
X70631623Y-81055500D01*
X70638285Y-81055500D01*
X95892601Y-81055500D01*
X95959640Y-81075185D01*
G37*
%TD.AperFunction*%
%TA.AperFunction,Conductor*%
G36*
X113739640Y-81075185D02*
G01*
X113785395Y-81127989D01*
X113795339Y-81197147D01*
X113766314Y-81260703D01*
X113751266Y-81275353D01*
X113715063Y-81305063D01*
X113582291Y-81466846D01*
X113483629Y-81651428D01*
X113422872Y-81851715D01*
X113402359Y-82060000D01*
X113422872Y-82268284D01*
X113453250Y-82368427D01*
X113483628Y-82468569D01*
X113564021Y-82618974D01*
X113582291Y-82653153D01*
X113715063Y-82814936D01*
X113832510Y-82911322D01*
X113876850Y-82947711D01*
X114061431Y-83046372D01*
X114261714Y-83107127D01*
X114470000Y-83127641D01*
X114678286Y-83107127D01*
X114878569Y-83046372D01*
X115063150Y-82947711D01*
X115224936Y-82814936D01*
X115357711Y-82653150D01*
X115456372Y-82468569D01*
X115517127Y-82268286D01*
X115537641Y-82060000D01*
X115517127Y-81851714D01*
X115456372Y-81651431D01*
X115357711Y-81466850D01*
X115347171Y-81454007D01*
X115224936Y-81305063D01*
X115188734Y-81275353D01*
X115149400Y-81217607D01*
X115147529Y-81147763D01*
X115183717Y-81087994D01*
X115246473Y-81057279D01*
X115267399Y-81055500D01*
X116212601Y-81055500D01*
X116279640Y-81075185D01*
X116325395Y-81127989D01*
X116335339Y-81197147D01*
X116306314Y-81260703D01*
X116291266Y-81275353D01*
X116255063Y-81305063D01*
X116122291Y-81466846D01*
X116023629Y-81651428D01*
X115962872Y-81851715D01*
X115942359Y-82060000D01*
X115962872Y-82268284D01*
X115993250Y-82368427D01*
X116023628Y-82468569D01*
X116104021Y-82618974D01*
X116122291Y-82653153D01*
X116255063Y-82814936D01*
X116372510Y-82911322D01*
X116416850Y-82947711D01*
X116601431Y-83046372D01*
X116801714Y-83107127D01*
X117010000Y-83127641D01*
X117218286Y-83107127D01*
X117418569Y-83046372D01*
X117603150Y-82947711D01*
X117764936Y-82814936D01*
X117897711Y-82653150D01*
X117996372Y-82468569D01*
X118057127Y-82268286D01*
X118077641Y-82060000D01*
X118057127Y-81851714D01*
X117996372Y-81651431D01*
X117897711Y-81466850D01*
X117887171Y-81454007D01*
X117764936Y-81305063D01*
X117728734Y-81275353D01*
X117689400Y-81217607D01*
X117687529Y-81147763D01*
X117723717Y-81087994D01*
X117786473Y-81057279D01*
X117807399Y-81055500D01*
X118752601Y-81055500D01*
X118819640Y-81075185D01*
X118865395Y-81127989D01*
X118875339Y-81197147D01*
X118846314Y-81260703D01*
X118831266Y-81275353D01*
X118795063Y-81305063D01*
X118662291Y-81466846D01*
X118563629Y-81651428D01*
X118502872Y-81851715D01*
X118482359Y-82060000D01*
X118502872Y-82268284D01*
X118533250Y-82368427D01*
X118563628Y-82468569D01*
X118644021Y-82618974D01*
X118662291Y-82653153D01*
X118795063Y-82814936D01*
X118912510Y-82911322D01*
X118956850Y-82947711D01*
X119141431Y-83046372D01*
X119341714Y-83107127D01*
X119550000Y-83127641D01*
X119758286Y-83107127D01*
X119958569Y-83046372D01*
X120143150Y-82947711D01*
X120304936Y-82814936D01*
X120437711Y-82653150D01*
X120536372Y-82468569D01*
X120597127Y-82268286D01*
X120617641Y-82060000D01*
X120597127Y-81851714D01*
X120536372Y-81651431D01*
X120437711Y-81466850D01*
X120427171Y-81454007D01*
X120304936Y-81305063D01*
X120268734Y-81275353D01*
X120229400Y-81217607D01*
X120227529Y-81147763D01*
X120263717Y-81087994D01*
X120326473Y-81057279D01*
X120347399Y-81055500D01*
X121292601Y-81055500D01*
X121359640Y-81075185D01*
X121405395Y-81127989D01*
X121415339Y-81197147D01*
X121386314Y-81260703D01*
X121371266Y-81275353D01*
X121335063Y-81305063D01*
X121202291Y-81466846D01*
X121103629Y-81651428D01*
X121042872Y-81851715D01*
X121022359Y-82060000D01*
X121042872Y-82268284D01*
X121073250Y-82368427D01*
X121103628Y-82468569D01*
X121184021Y-82618974D01*
X121202291Y-82653153D01*
X121335063Y-82814936D01*
X121452510Y-82911322D01*
X121496850Y-82947711D01*
X121681431Y-83046372D01*
X121881714Y-83107127D01*
X122090000Y-83127641D01*
X122298286Y-83107127D01*
X122498569Y-83046372D01*
X122683150Y-82947711D01*
X122844936Y-82814936D01*
X122977711Y-82653150D01*
X123076372Y-82468569D01*
X123137127Y-82268286D01*
X123157641Y-82060000D01*
X123137127Y-81851714D01*
X123076372Y-81651431D01*
X122977711Y-81466850D01*
X122967171Y-81454007D01*
X122844936Y-81305063D01*
X122808734Y-81275353D01*
X122769400Y-81217607D01*
X122767529Y-81147763D01*
X122803717Y-81087994D01*
X122866473Y-81057279D01*
X122887399Y-81055500D01*
X128227020Y-81055500D01*
X128294059Y-81075185D01*
X128339814Y-81127989D01*
X128351020Y-81179344D01*
X128352749Y-82550539D01*
X128333149Y-82617603D01*
X128280403Y-82663424D01*
X128278152Y-82664429D01*
X128184425Y-82705141D01*
X127944757Y-82850886D01*
X127727154Y-83027919D01*
X127535692Y-83232925D01*
X127535692Y-83232926D01*
X127535689Y-83232928D01*
X127535688Y-83232931D01*
X127479446Y-83312607D01*
X127373919Y-83462103D01*
X127244863Y-83711171D01*
X127150926Y-83975483D01*
X127150921Y-83975500D01*
X127093852Y-84250135D01*
X127093851Y-84250137D01*
X127074709Y-84529999D01*
X127093851Y-84809862D01*
X127093852Y-84809864D01*
X127150921Y-85084499D01*
X127150926Y-85084516D01*
X127244863Y-85348828D01*
X127244864Y-85348830D01*
X127373919Y-85597896D01*
X127535688Y-85827069D01*
X127535692Y-85827073D01*
X127535692Y-85827074D01*
X127710954Y-86014734D01*
X127727155Y-86032081D01*
X127944754Y-86209111D01*
X127944756Y-86209112D01*
X127944757Y-86209113D01*
X128184433Y-86354863D01*
X128184437Y-86354865D01*
X128283144Y-86397739D01*
X128336791Y-86442502D01*
X128357721Y-86509163D01*
X128357743Y-86511317D01*
X128381737Y-105537948D01*
X128362137Y-105605012D01*
X128309391Y-105650833D01*
X128307140Y-105651838D01*
X128184425Y-105705141D01*
X127944757Y-105850886D01*
X127727154Y-106027919D01*
X127535692Y-106232925D01*
X127535692Y-106232926D01*
X127535689Y-106232928D01*
X127535688Y-106232931D01*
X127470982Y-106324597D01*
X127373919Y-106462103D01*
X127244863Y-106711171D01*
X127150926Y-106975483D01*
X127150921Y-106975500D01*
X127093852Y-107250135D01*
X127093851Y-107250137D01*
X127074709Y-107530000D01*
X127093851Y-107809862D01*
X127093852Y-107809864D01*
X127150921Y-108084499D01*
X127150926Y-108084516D01*
X127244863Y-108348828D01*
X127244864Y-108348830D01*
X127373919Y-108597896D01*
X127535688Y-108827069D01*
X127535692Y-108827073D01*
X127535692Y-108827074D01*
X127684567Y-108986480D01*
X127727155Y-109032081D01*
X127944754Y-109209111D01*
X127944756Y-109209112D01*
X127944757Y-109209113D01*
X128184433Y-109354863D01*
X128184437Y-109354865D01*
X128312164Y-109410344D01*
X128365811Y-109455107D01*
X128386741Y-109521768D01*
X128386763Y-109523922D01*
X128388474Y-110880344D01*
X128368874Y-110947408D01*
X128316128Y-110993229D01*
X128264474Y-111004500D01*
X122887399Y-111004500D01*
X122820360Y-110984815D01*
X122774605Y-110932011D01*
X122764661Y-110862853D01*
X122793686Y-110799297D01*
X122808734Y-110784647D01*
X122844936Y-110754936D01*
X122965961Y-110607467D01*
X122977711Y-110593150D01*
X123076372Y-110408569D01*
X123137127Y-110208286D01*
X123157641Y-110000000D01*
X123137127Y-109791714D01*
X123076372Y-109591431D01*
X122977711Y-109406850D01*
X122953373Y-109377194D01*
X122844936Y-109245063D01*
X122683153Y-109112291D01*
X122683151Y-109112290D01*
X122683150Y-109112289D01*
X122498569Y-109013628D01*
X122398427Y-108983250D01*
X122298284Y-108952872D01*
X122090000Y-108932359D01*
X121881715Y-108952872D01*
X121681428Y-109013629D01*
X121496846Y-109112291D01*
X121335063Y-109245063D01*
X121202291Y-109406846D01*
X121103629Y-109591428D01*
X121042872Y-109791715D01*
X121022359Y-110000000D01*
X121042872Y-110208284D01*
X121052640Y-110240484D01*
X121103628Y-110408569D01*
X121190385Y-110570880D01*
X121202291Y-110593153D01*
X121335063Y-110754936D01*
X121371266Y-110784647D01*
X121410600Y-110842393D01*
X121412471Y-110912237D01*
X121376283Y-110972006D01*
X121313527Y-111002721D01*
X121292601Y-111004500D01*
X120347399Y-111004500D01*
X120280360Y-110984815D01*
X120234605Y-110932011D01*
X120224661Y-110862853D01*
X120253686Y-110799297D01*
X120268734Y-110784647D01*
X120304936Y-110754936D01*
X120425961Y-110607467D01*
X120437711Y-110593150D01*
X120536372Y-110408569D01*
X120597127Y-110208286D01*
X120617641Y-110000000D01*
X120597127Y-109791714D01*
X120536372Y-109591431D01*
X120437711Y-109406850D01*
X120413373Y-109377194D01*
X120304936Y-109245063D01*
X120143153Y-109112291D01*
X120143151Y-109112290D01*
X120143150Y-109112289D01*
X119958569Y-109013628D01*
X119858427Y-108983250D01*
X119758284Y-108952872D01*
X119550000Y-108932359D01*
X119341715Y-108952872D01*
X119141428Y-109013629D01*
X118956846Y-109112291D01*
X118795063Y-109245063D01*
X118662291Y-109406846D01*
X118563629Y-109591428D01*
X118502872Y-109791715D01*
X118482359Y-110000000D01*
X118502872Y-110208284D01*
X118512640Y-110240484D01*
X118563628Y-110408569D01*
X118650385Y-110570880D01*
X118662291Y-110593153D01*
X118795063Y-110754936D01*
X118831266Y-110784647D01*
X118870600Y-110842393D01*
X118872471Y-110912237D01*
X118836283Y-110972006D01*
X118773527Y-111002721D01*
X118752601Y-111004500D01*
X117807399Y-111004500D01*
X117740360Y-110984815D01*
X117694605Y-110932011D01*
X117684661Y-110862853D01*
X117713686Y-110799297D01*
X117728734Y-110784647D01*
X117764936Y-110754936D01*
X117885961Y-110607467D01*
X117897711Y-110593150D01*
X117996372Y-110408569D01*
X118057127Y-110208286D01*
X118077641Y-110000000D01*
X118057127Y-109791714D01*
X117996372Y-109591431D01*
X117897711Y-109406850D01*
X117873373Y-109377194D01*
X117764936Y-109245063D01*
X117603153Y-109112291D01*
X117603151Y-109112290D01*
X117603150Y-109112289D01*
X117418569Y-109013628D01*
X117318427Y-108983250D01*
X117218284Y-108952872D01*
X117123517Y-108943539D01*
X117058730Y-108917378D01*
X117018371Y-108860344D01*
X117015638Y-108799147D01*
X117014169Y-108798971D01*
X117025500Y-108704618D01*
X117025500Y-108120381D01*
X117015117Y-108033925D01*
X117015117Y-108033924D01*
X117015117Y-108033923D01*
X116960862Y-107896342D01*
X116960860Y-107896339D01*
X116866375Y-107771741D01*
X116866506Y-107771641D01*
X116846473Y-107759521D01*
X116753660Y-107689139D01*
X116753658Y-107689138D01*
X116616077Y-107634883D01*
X116616076Y-107634882D01*
X116616074Y-107634882D01*
X116529619Y-107624500D01*
X116529618Y-107624500D01*
X115970382Y-107624500D01*
X115970381Y-107624500D01*
X115883925Y-107634882D01*
X115883924Y-107634882D01*
X115746339Y-107689139D01*
X115628500Y-107778499D01*
X115598802Y-107817661D01*
X115542608Y-107859183D01*
X115472887Y-107863734D01*
X115411774Y-107829868D01*
X115401194Y-107817658D01*
X115384152Y-107795185D01*
X115371500Y-107778500D01*
X115351713Y-107763495D01*
X115253660Y-107689139D01*
X115253658Y-107689138D01*
X115116077Y-107634883D01*
X115116076Y-107634882D01*
X115116074Y-107634882D01*
X115029619Y-107624500D01*
X115029618Y-107624500D01*
X114470382Y-107624500D01*
X114470381Y-107624500D01*
X114383925Y-107634882D01*
X114383924Y-107634882D01*
X114246339Y-107689139D01*
X114128499Y-107778499D01*
X114045520Y-107887925D01*
X113989327Y-107929449D01*
X113946716Y-107937000D01*
X113634893Y-107937000D01*
X113500107Y-107937000D01*
X113500103Y-107937001D01*
X113500104Y-107937001D01*
X113477135Y-107944463D01*
X113458222Y-107949003D01*
X113434374Y-107952780D01*
X113412859Y-107963742D01*
X113394889Y-107971185D01*
X113371921Y-107978648D01*
X113371917Y-107978649D01*
X113352380Y-107992844D01*
X113335798Y-108003006D01*
X113314283Y-108013969D01*
X113314280Y-108013971D01*
X113290306Y-108037946D01*
X112372751Y-108955500D01*
X112311428Y-108988985D01*
X112249076Y-108986480D01*
X112138284Y-108952872D01*
X112138285Y-108952872D01*
X111930000Y-108932359D01*
X111929998Y-108932359D01*
X111874878Y-108937787D01*
X111806232Y-108924767D01*
X111755523Y-108876702D01*
X111738850Y-108808851D01*
X111761506Y-108742756D01*
X111775039Y-108726708D01*
X111798528Y-108703220D01*
X111798527Y-108703220D01*
X113314928Y-107186819D01*
X113376252Y-107153334D01*
X113402610Y-107150500D01*
X113478985Y-107150500D01*
X113632365Y-107112696D01*
X113772238Y-107039284D01*
X113772237Y-107039284D01*
X113772240Y-107039283D01*
X113818627Y-106998187D01*
X113881860Y-106968466D01*
X113951123Y-106977650D01*
X114004427Y-107022822D01*
X114016208Y-107045513D01*
X114039136Y-107103654D01*
X114039139Y-107103660D01*
X114128499Y-107221500D01*
X114245403Y-107310150D01*
X114246342Y-107310862D01*
X114383923Y-107365117D01*
X114438456Y-107371666D01*
X114470381Y-107375500D01*
X114470382Y-107375500D01*
X115029619Y-107375500D01*
X115051232Y-107372904D01*
X115116077Y-107365117D01*
X115253658Y-107310862D01*
X115371500Y-107221500D01*
X115401194Y-107182341D01*
X115457385Y-107140817D01*
X115527106Y-107136264D01*
X115588221Y-107170128D01*
X115598802Y-107182339D01*
X115628498Y-107221499D01*
X115745403Y-107310150D01*
X115746342Y-107310862D01*
X115883923Y-107365117D01*
X115938456Y-107371666D01*
X115970381Y-107375500D01*
X115970382Y-107375500D01*
X116529619Y-107375500D01*
X116551232Y-107372904D01*
X116616077Y-107365117D01*
X116690341Y-107335830D01*
X116759926Y-107329549D01*
X116821862Y-107361885D01*
X116837878Y-107380742D01*
X116909517Y-107484530D01*
X117003625Y-107567902D01*
X117014127Y-107584645D01*
X117022095Y-107586310D01*
X117167634Y-107662696D01*
X117321014Y-107700500D01*
X117321015Y-107700500D01*
X117322786Y-107700500D01*
X117324035Y-107700866D01*
X117328460Y-107701404D01*
X117328370Y-107702139D01*
X117389825Y-107720185D01*
X117435580Y-107772989D01*
X117445882Y-107809554D01*
X117463762Y-107956818D01*
X117507986Y-108073424D01*
X117519780Y-108104523D01*
X117609517Y-108234530D01*
X117727760Y-108339283D01*
X117727762Y-108339284D01*
X117867634Y-108412696D01*
X118021014Y-108450500D01*
X118021015Y-108450500D01*
X118178985Y-108450500D01*
X118332365Y-108412696D01*
X118332365Y-108412695D01*
X118472240Y-108339283D01*
X118590483Y-108234530D01*
X118680220Y-108104523D01*
X118736237Y-107956818D01*
X118751082Y-107834552D01*
X118778703Y-107770376D01*
X118836637Y-107731319D01*
X118874178Y-107725500D01*
X122517392Y-107725500D01*
X122517393Y-107725500D01*
X122540360Y-107718036D01*
X122559276Y-107713495D01*
X122583126Y-107709719D01*
X122604636Y-107698757D01*
X122622614Y-107691310D01*
X122645581Y-107683849D01*
X122665118Y-107669653D01*
X122681706Y-107659488D01*
X122703220Y-107648528D01*
X122798528Y-107553220D01*
X122798528Y-107553219D01*
X123899553Y-106452195D01*
X123923528Y-106428220D01*
X123934493Y-106406698D01*
X123944654Y-106390118D01*
X123958849Y-106370581D01*
X123966309Y-106347616D01*
X123973759Y-106329634D01*
X123984718Y-106308128D01*
X123984718Y-106308127D01*
X123984719Y-106308126D01*
X123988495Y-106284276D01*
X123993036Y-106265360D01*
X124000500Y-106242393D01*
X124000500Y-106107607D01*
X124000500Y-106009065D01*
X124020185Y-105942027D01*
X124072989Y-105896272D01*
X124074414Y-105895632D01*
X124074416Y-105895631D01*
X124134913Y-105868918D01*
X124204191Y-105859847D01*
X124235085Y-105868919D01*
X124297035Y-105896272D01*
X124300009Y-105897585D01*
X124325135Y-105900500D01*
X125314864Y-105900499D01*
X125314879Y-105900497D01*
X125314882Y-105900497D01*
X125339987Y-105897586D01*
X125339987Y-105897585D01*
X125339991Y-105897585D01*
X125404914Y-105868918D01*
X125474190Y-105859847D01*
X125505085Y-105868919D01*
X125567035Y-105896272D01*
X125570009Y-105897585D01*
X125595135Y-105900500D01*
X126584864Y-105900499D01*
X126584879Y-105900497D01*
X126584882Y-105900497D01*
X126609987Y-105897586D01*
X126609988Y-105897585D01*
X126609991Y-105897585D01*
X126712765Y-105852206D01*
X126792206Y-105772765D01*
X126837585Y-105669991D01*
X126840500Y-105644865D01*
X126840499Y-104055136D01*
X126840497Y-104055117D01*
X126837586Y-104030012D01*
X126837585Y-104030010D01*
X126837585Y-104030009D01*
X126792206Y-103927235D01*
X126712765Y-103847794D01*
X126614412Y-103804366D01*
X126561036Y-103759279D01*
X126540509Y-103692493D01*
X126540499Y-103690932D01*
X126540500Y-103387698D01*
X126540500Y-102981512D01*
X126540500Y-102981511D01*
X126540500Y-102947607D01*
X126533039Y-102924645D01*
X126528495Y-102905721D01*
X126524719Y-102881874D01*
X126513753Y-102860354D01*
X126506308Y-102842378D01*
X126498849Y-102819420D01*
X126498849Y-102819419D01*
X126484649Y-102799875D01*
X126474493Y-102783300D01*
X126463528Y-102761780D01*
X126368220Y-102666472D01*
X124519194Y-100817446D01*
X124485709Y-100756123D01*
X124490693Y-100686431D01*
X124504823Y-100659327D01*
X124520220Y-100637023D01*
X124576237Y-100489318D01*
X124595278Y-100332500D01*
X124595125Y-100331235D01*
X124576237Y-100175681D01*
X124544949Y-100093182D01*
X124520220Y-100027977D01*
X124430483Y-99897970D01*
X124312240Y-99793217D01*
X124312238Y-99793216D01*
X124312237Y-99793215D01*
X124172365Y-99719803D01*
X124018986Y-99682000D01*
X124018985Y-99682000D01*
X123861015Y-99682000D01*
X123861014Y-99682000D01*
X123707634Y-99719803D01*
X123567762Y-99793215D01*
X123538986Y-99818708D01*
X123449749Y-99897765D01*
X123449516Y-99897971D01*
X123359781Y-100027975D01*
X123359780Y-100027976D01*
X123303763Y-100175680D01*
X123299310Y-100212354D01*
X123271688Y-100276532D01*
X123213753Y-100315588D01*
X123143901Y-100317123D01*
X123084307Y-100280648D01*
X123053893Y-100217745D01*
X123053118Y-100212353D01*
X123051557Y-100199500D01*
X123046237Y-100155682D01*
X122990220Y-100007977D01*
X122900483Y-99877970D01*
X122782240Y-99773217D01*
X122782238Y-99773216D01*
X122782237Y-99773215D01*
X122642365Y-99699803D01*
X122488986Y-99662000D01*
X122488985Y-99662000D01*
X122331015Y-99662000D01*
X122331014Y-99662000D01*
X122177634Y-99699803D01*
X122037762Y-99773215D01*
X121919516Y-99877971D01*
X121829781Y-100007975D01*
X121829780Y-100007976D01*
X121773762Y-100155681D01*
X121754721Y-100312499D01*
X121754721Y-100312500D01*
X121773762Y-100469318D01*
X121824161Y-100602207D01*
X121829780Y-100617023D01*
X121919517Y-100747030D01*
X121995483Y-100814330D01*
X122023738Y-100850845D01*
X122026150Y-100855578D01*
X122026151Y-100855581D01*
X122036341Y-100869606D01*
X122040341Y-100875111D01*
X122050508Y-100891703D01*
X122061470Y-100913218D01*
X124383180Y-103234928D01*
X124416665Y-103296251D01*
X124419499Y-103322609D01*
X124419499Y-103678106D01*
X124399814Y-103745145D01*
X124347010Y-103790900D01*
X124309789Y-103801280D01*
X124300010Y-103802414D01*
X124235085Y-103831081D01*
X124165807Y-103840152D01*
X124134915Y-103831081D01*
X124069992Y-103802415D01*
X124044865Y-103799500D01*
X123055143Y-103799500D01*
X123055117Y-103799502D01*
X123030012Y-103802413D01*
X123030010Y-103802414D01*
X122965085Y-103831081D01*
X122895807Y-103840152D01*
X122864915Y-103831081D01*
X122799992Y-103802415D01*
X122774865Y-103799500D01*
X121785143Y-103799500D01*
X121785117Y-103799502D01*
X121760012Y-103802413D01*
X121760010Y-103802414D01*
X121695085Y-103831081D01*
X121625807Y-103840152D01*
X121594915Y-103831081D01*
X121529992Y-103802415D01*
X121504865Y-103799500D01*
X120515143Y-103799500D01*
X120515117Y-103799502D01*
X120490012Y-103802413D01*
X120490010Y-103802414D01*
X120425085Y-103831081D01*
X120355807Y-103840152D01*
X120324915Y-103831081D01*
X120259992Y-103802415D01*
X120234865Y-103799500D01*
X119245143Y-103799500D01*
X119245117Y-103799502D01*
X119220012Y-103802413D01*
X119220010Y-103802414D01*
X119155085Y-103831081D01*
X119085807Y-103840152D01*
X119054915Y-103831081D01*
X118989992Y-103802415D01*
X118964865Y-103799500D01*
X117975143Y-103799500D01*
X117975117Y-103799502D01*
X117950012Y-103802413D01*
X117950010Y-103802414D01*
X117885085Y-103831081D01*
X117815807Y-103840152D01*
X117784915Y-103831081D01*
X117719992Y-103802415D01*
X117694865Y-103799500D01*
X116705143Y-103799500D01*
X116705117Y-103799502D01*
X116680012Y-103802413D01*
X116680010Y-103802414D01*
X116615085Y-103831081D01*
X116545807Y-103840152D01*
X116514915Y-103831081D01*
X116449992Y-103802415D01*
X116424865Y-103799500D01*
X115435143Y-103799500D01*
X115435117Y-103799502D01*
X115410012Y-103802413D01*
X115410010Y-103802414D01*
X115345085Y-103831081D01*
X115275807Y-103840152D01*
X115244915Y-103831081D01*
X115179992Y-103802415D01*
X115154868Y-103799500D01*
X115154865Y-103799500D01*
X114728986Y-103799500D01*
X114728985Y-103799500D01*
X114571015Y-103799500D01*
X114571012Y-103799500D01*
X114165143Y-103799500D01*
X114165117Y-103799502D01*
X114140012Y-103802413D01*
X114140010Y-103802414D01*
X114075085Y-103831081D01*
X114005807Y-103840152D01*
X113974915Y-103831081D01*
X113909992Y-103802415D01*
X113884865Y-103799500D01*
X112895143Y-103799500D01*
X112895117Y-103799502D01*
X112870012Y-103802413D01*
X112870010Y-103802414D01*
X112805085Y-103831081D01*
X112735807Y-103840152D01*
X112704915Y-103831081D01*
X112639992Y-103802415D01*
X112614865Y-103799500D01*
X111625143Y-103799500D01*
X111625117Y-103799502D01*
X111600012Y-103802413D01*
X111600010Y-103802414D01*
X111535085Y-103831081D01*
X111465807Y-103840152D01*
X111434915Y-103831081D01*
X111369992Y-103802415D01*
X111344868Y-103799500D01*
X111344865Y-103799500D01*
X110702610Y-103799500D01*
X110635571Y-103779815D01*
X110614929Y-103763181D01*
X110491031Y-103639283D01*
X110377194Y-103525446D01*
X110377193Y-103525446D01*
X110353220Y-103501472D01*
X110350944Y-103499819D01*
X110348845Y-103497097D01*
X110346317Y-103494569D01*
X110346643Y-103494242D01*
X110308278Y-103444489D01*
X110302299Y-103374876D01*
X110334904Y-103313080D01*
X110395742Y-103278723D01*
X110423829Y-103275500D01*
X115117392Y-103275500D01*
X115117393Y-103275500D01*
X115140360Y-103268036D01*
X115159276Y-103263495D01*
X115183126Y-103259719D01*
X115204636Y-103248757D01*
X115222614Y-103241310D01*
X115245581Y-103233849D01*
X115265118Y-103219653D01*
X115281706Y-103209488D01*
X115303220Y-103198528D01*
X115398528Y-103103220D01*
X115398528Y-103103219D01*
X117603218Y-100898529D01*
X117603220Y-100898528D01*
X117698528Y-100803220D01*
X117709493Y-100781698D01*
X117719658Y-100765112D01*
X117733849Y-100745581D01*
X117741310Y-100722614D01*
X117748759Y-100704634D01*
X117749281Y-100703611D01*
X117759719Y-100683126D01*
X117763495Y-100659276D01*
X117768036Y-100640360D01*
X117775500Y-100617393D01*
X117775500Y-100482607D01*
X117775500Y-96566512D01*
X117775500Y-96566511D01*
X117775500Y-96532607D01*
X117768037Y-96509642D01*
X117763496Y-96490728D01*
X117759719Y-96466874D01*
X117759718Y-96466872D01*
X117759718Y-96466871D01*
X117756702Y-96457587D01*
X117759167Y-96456785D01*
X117748943Y-96402389D01*
X117749216Y-96399917D01*
X117755278Y-96350000D01*
X117736237Y-96193182D01*
X117719860Y-96150000D01*
X125394721Y-96150000D01*
X125413762Y-96306818D01*
X125466349Y-96445476D01*
X125469780Y-96454523D01*
X125559517Y-96584530D01*
X125677760Y-96689283D01*
X125677762Y-96689284D01*
X125817634Y-96762696D01*
X125971014Y-96800500D01*
X125971015Y-96800500D01*
X126128985Y-96800500D01*
X126282365Y-96762696D01*
X126296941Y-96755046D01*
X126422240Y-96689283D01*
X126540483Y-96584530D01*
X126630220Y-96454523D01*
X126686237Y-96306818D01*
X126705278Y-96150000D01*
X126703737Y-96137304D01*
X126686237Y-95993181D01*
X126652028Y-95902981D01*
X126630220Y-95845477D01*
X126630218Y-95845474D01*
X126630034Y-95845123D01*
X126629976Y-95844835D01*
X126627560Y-95838464D01*
X126628619Y-95838062D01*
X126616311Y-95776614D01*
X126628026Y-95736713D01*
X126627560Y-95736536D01*
X126629857Y-95730477D01*
X126630034Y-95729877D01*
X126630215Y-95729528D01*
X126630220Y-95729523D01*
X126686237Y-95581818D01*
X126705278Y-95425000D01*
X126686237Y-95268182D01*
X126633780Y-95129865D01*
X126628414Y-95060205D01*
X126647675Y-95015455D01*
X126655216Y-95004529D01*
X126655218Y-95004526D01*
X126655218Y-95004525D01*
X126655220Y-95004523D01*
X126711237Y-94856818D01*
X126730278Y-94700000D01*
X126729048Y-94689865D01*
X126711237Y-94543181D01*
X126682014Y-94466127D01*
X126655220Y-94395477D01*
X126655218Y-94395474D01*
X126655034Y-94395123D01*
X126654976Y-94394835D01*
X126652560Y-94388464D01*
X126653619Y-94388062D01*
X126641311Y-94326614D01*
X126653026Y-94286713D01*
X126652560Y-94286536D01*
X126654857Y-94280477D01*
X126655034Y-94279877D01*
X126655217Y-94279527D01*
X126655220Y-94279523D01*
X126711237Y-94131818D01*
X126730278Y-93975000D01*
X126722341Y-93909628D01*
X126711237Y-93818181D01*
X126693986Y-93772696D01*
X126655220Y-93670477D01*
X126655217Y-93670472D01*
X126655031Y-93670116D01*
X126654973Y-93669826D01*
X126652560Y-93663464D01*
X126653618Y-93663062D01*
X126641311Y-93601606D01*
X126653028Y-93561714D01*
X126652560Y-93561537D01*
X126654868Y-93555449D01*
X126655041Y-93554863D01*
X126655217Y-93554527D01*
X126655220Y-93554523D01*
X126711237Y-93406818D01*
X126730278Y-93250000D01*
X126711237Y-93093182D01*
X126701122Y-93066512D01*
X126677446Y-93004082D01*
X126655220Y-92945477D01*
X126565483Y-92815470D01*
X126447240Y-92710717D01*
X126447238Y-92710716D01*
X126447237Y-92710715D01*
X126307365Y-92637303D01*
X126153986Y-92599500D01*
X126153985Y-92599500D01*
X125996015Y-92599500D01*
X125996014Y-92599500D01*
X125842634Y-92637303D01*
X125702762Y-92710715D01*
X125584516Y-92815471D01*
X125494781Y-92945475D01*
X125494780Y-92945476D01*
X125438762Y-93093181D01*
X125419721Y-93249999D01*
X125419721Y-93250000D01*
X125438762Y-93406818D01*
X125460648Y-93464524D01*
X125494778Y-93554519D01*
X125494782Y-93554527D01*
X125494968Y-93554882D01*
X125495025Y-93555170D01*
X125497440Y-93561536D01*
X125496380Y-93561937D01*
X125508688Y-93623391D01*
X125496975Y-93663287D01*
X125497440Y-93663464D01*
X125495156Y-93669486D01*
X125494975Y-93670103D01*
X125494784Y-93670466D01*
X125438762Y-93818181D01*
X125419721Y-93974999D01*
X125419721Y-93975000D01*
X125438762Y-94131818D01*
X125494782Y-94279527D01*
X125494968Y-94279882D01*
X125495025Y-94280170D01*
X125497440Y-94286536D01*
X125496380Y-94286937D01*
X125508688Y-94348391D01*
X125496975Y-94388287D01*
X125497440Y-94388464D01*
X125495156Y-94394486D01*
X125494975Y-94395103D01*
X125494784Y-94395466D01*
X125438762Y-94543181D01*
X125419721Y-94699999D01*
X125419721Y-94700000D01*
X125438763Y-94856818D01*
X125491218Y-94995132D01*
X125496585Y-95064795D01*
X125477331Y-95109536D01*
X125469780Y-95120476D01*
X125413762Y-95268181D01*
X125394721Y-95424999D01*
X125394721Y-95425000D01*
X125413762Y-95581818D01*
X125469783Y-95729532D01*
X125469971Y-95729889D01*
X125470029Y-95730178D01*
X125472440Y-95736536D01*
X125471382Y-95736937D01*
X125483687Y-95798399D01*
X125471974Y-95838287D01*
X125472440Y-95838464D01*
X125470148Y-95844504D01*
X125469971Y-95845111D01*
X125469783Y-95845467D01*
X125413762Y-95993181D01*
X125394721Y-96149999D01*
X125394721Y-96150000D01*
X117719860Y-96150000D01*
X117680220Y-96045477D01*
X117590483Y-95915470D01*
X117472240Y-95810717D01*
X117472238Y-95810716D01*
X117472237Y-95810715D01*
X117332365Y-95737303D01*
X117178986Y-95699500D01*
X117178985Y-95699500D01*
X117021015Y-95699500D01*
X117021014Y-95699500D01*
X116867634Y-95737303D01*
X116727762Y-95810715D01*
X116609516Y-95915471D01*
X116519781Y-96045475D01*
X116519780Y-96045476D01*
X116463762Y-96193181D01*
X116444721Y-96349999D01*
X116444721Y-96350000D01*
X116463762Y-96506817D01*
X116474049Y-96533941D01*
X116498919Y-96599517D01*
X116504286Y-96669179D01*
X116471139Y-96730685D01*
X116412652Y-96763884D01*
X116317633Y-96787304D01*
X116177762Y-96860715D01*
X116059516Y-96965471D01*
X115969781Y-97095475D01*
X115969780Y-97095476D01*
X115913762Y-97243181D01*
X115894721Y-97399999D01*
X115894721Y-97400000D01*
X115913762Y-97556818D01*
X115969780Y-97704523D01*
X115997576Y-97744793D01*
X116059517Y-97834531D01*
X116097902Y-97868536D01*
X116177760Y-97939283D01*
X116177763Y-97939284D01*
X116182726Y-97943681D01*
X116219853Y-98002870D01*
X116224500Y-98036497D01*
X116224500Y-99622390D01*
X116204815Y-99689429D01*
X116188181Y-99710071D01*
X115960071Y-99938181D01*
X115898748Y-99971666D01*
X115872390Y-99974500D01*
X115796014Y-99974500D01*
X115642634Y-100012303D01*
X115502762Y-100085715D01*
X115384513Y-100190473D01*
X115382686Y-100193121D01*
X115380849Y-100194608D01*
X115379543Y-100196084D01*
X115379297Y-100195866D01*
X115328401Y-100237109D01*
X115258952Y-100244765D01*
X115196389Y-100213658D01*
X115178590Y-100193116D01*
X115166556Y-100175682D01*
X115090483Y-100065470D01*
X114972240Y-99960717D01*
X114972238Y-99960716D01*
X114972237Y-99960715D01*
X114832365Y-99887303D01*
X114678986Y-99849500D01*
X114678985Y-99849500D01*
X114521015Y-99849500D01*
X114521014Y-99849500D01*
X114367634Y-99887303D01*
X114227762Y-99960715D01*
X114109516Y-100065470D01*
X114107089Y-100068987D01*
X114105742Y-100070938D01*
X114051463Y-100114929D01*
X114003692Y-100124500D01*
X111797702Y-100124500D01*
X111730663Y-100104815D01*
X111715482Y-100093321D01*
X111641722Y-100027976D01*
X111622237Y-100010714D01*
X111482365Y-99937303D01*
X111328986Y-99899500D01*
X111328985Y-99899500D01*
X111171015Y-99899500D01*
X111171014Y-99899500D01*
X111017634Y-99937303D01*
X110877761Y-100010715D01*
X110877759Y-100010717D01*
X110834850Y-100048730D01*
X110771617Y-100078450D01*
X110702353Y-100069265D01*
X110649051Y-100024092D01*
X110639194Y-100006006D01*
X110618917Y-99960083D01*
X110609847Y-99890807D01*
X110618919Y-99859913D01*
X110625805Y-99844319D01*
X110647585Y-99794991D01*
X110650500Y-99769865D01*
X110650499Y-98780136D01*
X110650497Y-98780117D01*
X110647586Y-98755012D01*
X110647585Y-98755010D01*
X110647585Y-98755009D01*
X110618919Y-98690086D01*
X110609847Y-98620808D01*
X110618919Y-98589913D01*
X110623293Y-98580008D01*
X110647585Y-98524991D01*
X110650500Y-98499865D01*
X110650499Y-97510136D01*
X110649119Y-97498235D01*
X110647586Y-97485012D01*
X110647585Y-97485010D01*
X110647585Y-97485009D01*
X110618919Y-97420086D01*
X110609847Y-97350808D01*
X110618919Y-97319913D01*
X110619544Y-97318499D01*
X110647585Y-97254991D01*
X110650500Y-97229865D01*
X110650499Y-96240136D01*
X110648655Y-96224235D01*
X110647586Y-96215012D01*
X110647585Y-96215010D01*
X110647585Y-96215009D01*
X110618919Y-96150086D01*
X110609847Y-96080808D01*
X110618919Y-96049913D01*
X110647079Y-95986138D01*
X110647585Y-95984991D01*
X110650500Y-95959865D01*
X110650499Y-94970136D01*
X110650497Y-94970117D01*
X110647586Y-94945012D01*
X110647585Y-94945010D01*
X110647585Y-94945009D01*
X110618919Y-94880086D01*
X110609847Y-94810808D01*
X110618919Y-94779913D01*
X110642694Y-94726069D01*
X110647585Y-94714991D01*
X110650500Y-94689865D01*
X110650499Y-93700136D01*
X110649241Y-93689285D01*
X110647586Y-93675012D01*
X110647585Y-93675010D01*
X110647585Y-93675009D01*
X110619984Y-93612499D01*
X110618919Y-93610086D01*
X110609847Y-93540808D01*
X110618919Y-93509913D01*
X110627897Y-93489581D01*
X110647585Y-93444991D01*
X110650500Y-93419865D01*
X110650499Y-92430136D01*
X110650497Y-92430117D01*
X110647586Y-92405012D01*
X110647585Y-92405010D01*
X110647585Y-92405009D01*
X110618919Y-92340086D01*
X110609847Y-92270808D01*
X110618919Y-92239914D01*
X110639192Y-92194000D01*
X110684277Y-92140624D01*
X110751064Y-92120096D01*
X110818346Y-92138934D01*
X110834852Y-92151270D01*
X110873105Y-92185159D01*
X110877759Y-92189282D01*
X110877761Y-92189284D01*
X111017634Y-92262696D01*
X111171014Y-92300500D01*
X111171015Y-92300500D01*
X111328985Y-92300500D01*
X111482365Y-92262696D01*
X111603945Y-92198884D01*
X111672453Y-92185159D01*
X111737506Y-92210651D01*
X111749252Y-92220999D01*
X111881472Y-92353220D01*
X111976780Y-92448528D01*
X111998300Y-92459493D01*
X112014875Y-92469649D01*
X112034419Y-92483849D01*
X112057381Y-92491309D01*
X112075354Y-92498753D01*
X112096874Y-92509719D01*
X112120724Y-92513495D01*
X112139645Y-92518039D01*
X112161489Y-92525136D01*
X112162607Y-92525500D01*
X112162608Y-92525500D01*
X116417392Y-92525500D01*
X116417393Y-92525500D01*
X116440360Y-92518036D01*
X116459276Y-92513495D01*
X116483126Y-92509719D01*
X116504636Y-92498757D01*
X116522614Y-92491310D01*
X116545581Y-92483849D01*
X116565118Y-92469653D01*
X116581706Y-92459488D01*
X116603220Y-92448528D01*
X116659511Y-92392237D01*
X116757115Y-92294634D01*
X116757116Y-92294635D01*
X116757123Y-92294623D01*
X116761748Y-92290000D01*
X116764941Y-92286808D01*
X116826268Y-92253330D01*
X116852611Y-92250500D01*
X116928985Y-92250500D01*
X117082365Y-92212696D01*
X117126976Y-92189282D01*
X117222240Y-92139283D01*
X117340483Y-92034530D01*
X117430220Y-91904523D01*
X117486237Y-91756818D01*
X117505278Y-91600000D01*
X117498461Y-91543852D01*
X117486237Y-91443181D01*
X117448067Y-91342537D01*
X117430220Y-91295477D01*
X117340483Y-91165470D01*
X117222240Y-91060717D01*
X117222238Y-91060716D01*
X117222237Y-91060715D01*
X117082365Y-90987303D01*
X117082362Y-90987302D01*
X117040776Y-90977052D01*
X116980396Y-90941896D01*
X116948608Y-90879676D01*
X116955505Y-90810147D01*
X116982770Y-90768977D01*
X117549554Y-90202194D01*
X117549554Y-90202193D01*
X117573528Y-90178220D01*
X117584493Y-90156699D01*
X117594650Y-90140125D01*
X117608850Y-90120581D01*
X117616311Y-90097614D01*
X117623760Y-90079633D01*
X117634718Y-90058129D01*
X117634718Y-90058128D01*
X117634718Y-90058127D01*
X117634719Y-90058126D01*
X117638496Y-90034273D01*
X117643035Y-90015366D01*
X117650500Y-89992393D01*
X117650500Y-89857607D01*
X117650500Y-88509066D01*
X117670185Y-88442027D01*
X117722989Y-88396272D01*
X117724414Y-88395632D01*
X117782465Y-88370000D01*
X117784913Y-88368918D01*
X117854191Y-88359847D01*
X117885085Y-88368919D01*
X117947035Y-88396272D01*
X117950009Y-88397585D01*
X117975135Y-88400500D01*
X118376572Y-88400499D01*
X118376582Y-88400500D01*
X118391015Y-88400500D01*
X118563419Y-88400500D01*
X118563427Y-88400499D01*
X118964856Y-88400499D01*
X118964864Y-88400499D01*
X118964879Y-88400497D01*
X118964882Y-88400497D01*
X118989987Y-88397586D01*
X118989987Y-88397585D01*
X118989991Y-88397585D01*
X119054914Y-88368918D01*
X119124190Y-88359847D01*
X119155085Y-88368919D01*
X119217035Y-88396272D01*
X119220009Y-88397585D01*
X119245135Y-88400500D01*
X120234864Y-88400499D01*
X120234879Y-88400497D01*
X120234882Y-88400497D01*
X120259987Y-88397586D01*
X120259987Y-88397585D01*
X120259991Y-88397585D01*
X120324914Y-88368918D01*
X120394190Y-88359847D01*
X120425085Y-88368919D01*
X120487035Y-88396272D01*
X120490009Y-88397585D01*
X120515135Y-88400500D01*
X121504864Y-88400499D01*
X121504879Y-88400497D01*
X121504882Y-88400497D01*
X121529987Y-88397586D01*
X121529987Y-88397585D01*
X121529991Y-88397585D01*
X121594914Y-88368918D01*
X121664190Y-88359847D01*
X121695085Y-88368919D01*
X121757035Y-88396272D01*
X121760009Y-88397585D01*
X121785135Y-88400500D01*
X121785149Y-88400499D01*
X121787647Y-88400645D01*
X121788253Y-88400861D01*
X121788694Y-88400913D01*
X121788682Y-88401015D01*
X121853440Y-88424162D01*
X121896075Y-88479515D01*
X121904499Y-88524439D01*
X121904499Y-89627744D01*
X121884814Y-89694783D01*
X121868180Y-89715425D01*
X121204392Y-90379212D01*
X121143069Y-90412697D01*
X121073377Y-90407713D01*
X121059087Y-90401329D01*
X121032365Y-90387304D01*
X121032362Y-90387303D01*
X120878985Y-90349500D01*
X120721015Y-90349500D01*
X120721014Y-90349500D01*
X120567634Y-90387303D01*
X120427762Y-90460715D01*
X120309516Y-90565471D01*
X120219781Y-90695475D01*
X120219780Y-90695476D01*
X120163762Y-90843181D01*
X120144721Y-90999999D01*
X120144721Y-91000000D01*
X120163762Y-91156818D01*
X120216349Y-91295476D01*
X120219780Y-91304523D01*
X120309517Y-91434530D01*
X120415174Y-91528133D01*
X120427761Y-91539284D01*
X120430469Y-91540705D01*
X120432085Y-91542268D01*
X120433934Y-91543545D01*
X120433721Y-91543852D01*
X120480680Y-91589291D01*
X120496653Y-91657310D01*
X120473316Y-91723167D01*
X120418079Y-91765953D01*
X120372840Y-91774500D01*
X119317393Y-91774500D01*
X119182607Y-91774500D01*
X119182603Y-91774501D01*
X119182604Y-91774501D01*
X119159635Y-91781963D01*
X119140722Y-91786503D01*
X119116874Y-91790280D01*
X119095359Y-91801242D01*
X119077389Y-91808685D01*
X119054421Y-91816148D01*
X119054417Y-91816149D01*
X119034880Y-91830344D01*
X119018299Y-91840506D01*
X118996780Y-91851471D01*
X118996778Y-91851473D01*
X118955368Y-91892881D01*
X118955364Y-91892887D01*
X117060071Y-93788181D01*
X116998748Y-93821666D01*
X116972390Y-93824500D01*
X113430821Y-93824500D01*
X113363782Y-93804815D01*
X113328771Y-93770940D01*
X113316581Y-93753280D01*
X113290483Y-93715470D01*
X113172240Y-93610717D01*
X113172238Y-93610716D01*
X113172237Y-93610715D01*
X113032365Y-93537303D01*
X112878986Y-93499500D01*
X112878985Y-93499500D01*
X112721015Y-93499500D01*
X112721014Y-93499500D01*
X112567634Y-93537303D01*
X112427762Y-93610715D01*
X112309516Y-93715471D01*
X112219781Y-93845475D01*
X112219780Y-93845476D01*
X112163762Y-93993181D01*
X112144722Y-94149999D01*
X112144722Y-94150000D01*
X112163762Y-94306818D01*
X112199879Y-94402048D01*
X112219780Y-94454523D01*
X112309517Y-94584530D01*
X112427760Y-94689283D01*
X112427762Y-94689284D01*
X112567634Y-94762696D01*
X112721014Y-94800500D01*
X112721015Y-94800500D01*
X112878985Y-94800500D01*
X113032365Y-94762696D01*
X113171439Y-94689704D01*
X113229065Y-94675500D01*
X117267392Y-94675500D01*
X117267393Y-94675500D01*
X117290360Y-94668036D01*
X117309276Y-94663495D01*
X117333126Y-94659719D01*
X117354636Y-94648757D01*
X117372614Y-94641310D01*
X117395581Y-94633849D01*
X117415118Y-94619653D01*
X117431706Y-94609488D01*
X117453220Y-94598528D01*
X117548528Y-94503220D01*
X117548528Y-94503219D01*
X119389928Y-92661819D01*
X119451252Y-92628334D01*
X119477610Y-92625500D01*
X123967392Y-92625500D01*
X123967393Y-92625500D01*
X123990360Y-92618036D01*
X124009276Y-92613495D01*
X124033126Y-92609719D01*
X124054636Y-92598757D01*
X124072614Y-92591310D01*
X124095581Y-92583849D01*
X124115118Y-92569653D01*
X124131706Y-92559488D01*
X124153220Y-92548528D01*
X124248528Y-92453220D01*
X124248528Y-92453219D01*
X124454930Y-92246816D01*
X124516253Y-92213334D01*
X124542610Y-92210500D01*
X124618985Y-92210500D01*
X124772365Y-92172696D01*
X124815882Y-92149856D01*
X124912240Y-92099283D01*
X125030483Y-91994530D01*
X125120220Y-91864523D01*
X125176237Y-91716818D01*
X125195278Y-91560000D01*
X125176237Y-91403182D01*
X125120220Y-91255477D01*
X125030483Y-91125470D01*
X124912240Y-91020717D01*
X124912238Y-91020716D01*
X124912237Y-91020715D01*
X124772365Y-90947303D01*
X124618986Y-90909500D01*
X124618985Y-90909500D01*
X124461015Y-90909500D01*
X124461014Y-90909500D01*
X124307634Y-90947303D01*
X124167762Y-91020715D01*
X124167759Y-91020717D01*
X124167760Y-91020717D01*
X124068323Y-91108810D01*
X124049516Y-91125471D01*
X123959781Y-91255475D01*
X123959780Y-91255476D01*
X123903762Y-91403181D01*
X123884722Y-91559999D01*
X123884722Y-91562166D01*
X123884273Y-91563693D01*
X123883818Y-91567445D01*
X123883194Y-91567369D01*
X123865037Y-91629205D01*
X123848404Y-91649847D01*
X123760071Y-91738181D01*
X123698748Y-91771666D01*
X123672389Y-91774500D01*
X121227160Y-91774500D01*
X121160121Y-91754815D01*
X121114366Y-91702011D01*
X121104422Y-91632853D01*
X121133447Y-91569297D01*
X121169531Y-91540705D01*
X121172238Y-91539284D01*
X121172237Y-91539284D01*
X121172240Y-91539283D01*
X121290483Y-91434530D01*
X121332948Y-91373006D01*
X121378706Y-91332959D01*
X121388342Y-91328050D01*
X121403834Y-91312557D01*
X121403841Y-91312552D01*
X122617552Y-90098841D01*
X122617557Y-90098834D01*
X122633050Y-90083342D01*
X122643109Y-90063598D01*
X122653269Y-90047018D01*
X122666296Y-90029089D01*
X122673142Y-90008017D01*
X122680588Y-89990043D01*
X122690645Y-89970305D01*
X122690646Y-89970304D01*
X122694112Y-89948416D01*
X122698651Y-89929510D01*
X122705500Y-89908433D01*
X122705500Y-89781567D01*
X122705500Y-88518063D01*
X122725185Y-88451024D01*
X122777989Y-88405269D01*
X122796954Y-88398410D01*
X122799980Y-88397586D01*
X122799991Y-88397585D01*
X122864914Y-88368918D01*
X122934190Y-88359847D01*
X122965085Y-88368919D01*
X123027035Y-88396272D01*
X123030009Y-88397585D01*
X123055135Y-88400500D01*
X124044864Y-88400499D01*
X124044879Y-88400497D01*
X124044882Y-88400497D01*
X124069987Y-88397586D01*
X124069987Y-88397585D01*
X124069991Y-88397585D01*
X124134914Y-88368918D01*
X124204190Y-88359847D01*
X124235085Y-88368919D01*
X124297035Y-88396272D01*
X124300009Y-88397585D01*
X124325135Y-88400500D01*
X125233677Y-88400499D01*
X125300716Y-88420183D01*
X125346471Y-88472987D01*
X125356897Y-88510615D01*
X125364630Y-88579250D01*
X125364631Y-88579254D01*
X125424211Y-88749523D01*
X125493993Y-88860579D01*
X125520184Y-88902262D01*
X125647738Y-89029816D01*
X125800478Y-89125789D01*
X125932256Y-89171900D01*
X125970745Y-89185368D01*
X125970750Y-89185369D01*
X126149996Y-89205565D01*
X126150000Y-89205565D01*
X126150004Y-89205565D01*
X126329249Y-89185369D01*
X126329252Y-89185368D01*
X126329255Y-89185368D01*
X126499522Y-89125789D01*
X126652262Y-89029816D01*
X126779816Y-88902262D01*
X126875789Y-88749522D01*
X126935368Y-88579255D01*
X126939016Y-88546883D01*
X126950499Y-88444960D01*
X126950500Y-88444956D01*
X126950500Y-86955043D01*
X126950499Y-86955039D01*
X126935369Y-86820750D01*
X126935366Y-86820737D01*
X126875790Y-86650478D01*
X126859505Y-86624561D01*
X126840499Y-86558590D01*
X126840499Y-86555143D01*
X126840499Y-86555136D01*
X126840497Y-86555117D01*
X126837586Y-86530012D01*
X126837585Y-86530010D01*
X126837585Y-86530009D01*
X126792206Y-86427235D01*
X126712765Y-86347794D01*
X126712764Y-86347793D01*
X126609992Y-86302415D01*
X126584868Y-86299500D01*
X126584865Y-86299500D01*
X126575494Y-86299500D01*
X126509523Y-86280494D01*
X126499525Y-86274212D01*
X126329254Y-86214631D01*
X126329249Y-86214630D01*
X126150004Y-86194435D01*
X126149996Y-86194435D01*
X125970750Y-86214630D01*
X125970737Y-86214633D01*
X125800478Y-86274210D01*
X125790472Y-86280497D01*
X125724506Y-86299500D01*
X125595143Y-86299500D01*
X125595118Y-86299502D01*
X125570011Y-86302414D01*
X125570010Y-86302414D01*
X125505085Y-86331081D01*
X125435807Y-86340152D01*
X125404915Y-86331081D01*
X125339992Y-86302415D01*
X125314865Y-86299500D01*
X124325143Y-86299500D01*
X124325117Y-86299502D01*
X124300012Y-86302413D01*
X124300010Y-86302414D01*
X124235085Y-86331081D01*
X124165807Y-86340152D01*
X124134915Y-86331081D01*
X124069992Y-86302415D01*
X124044865Y-86299500D01*
X123055143Y-86299500D01*
X123055117Y-86299502D01*
X123030012Y-86302413D01*
X123030010Y-86302414D01*
X122965085Y-86331081D01*
X122895807Y-86340152D01*
X122864915Y-86331081D01*
X122799992Y-86302415D01*
X122774865Y-86299500D01*
X121785143Y-86299500D01*
X121785117Y-86299502D01*
X121760012Y-86302413D01*
X121760010Y-86302414D01*
X121695085Y-86331081D01*
X121625807Y-86340152D01*
X121594915Y-86331081D01*
X121549679Y-86311108D01*
X121496302Y-86266023D01*
X121475774Y-86199237D01*
X121494611Y-86131954D01*
X121517539Y-86104856D01*
X121517907Y-86104530D01*
X121540483Y-86084530D01*
X121630220Y-85954523D01*
X121686237Y-85806818D01*
X121705278Y-85650000D01*
X121698952Y-85597896D01*
X121686237Y-85493181D01*
X121649291Y-85395764D01*
X121630220Y-85345477D01*
X121540483Y-85215470D01*
X121422240Y-85110717D01*
X121422238Y-85110716D01*
X121422237Y-85110715D01*
X121282365Y-85037303D01*
X121128986Y-84999500D01*
X121128985Y-84999500D01*
X121052610Y-84999500D01*
X120985571Y-84979815D01*
X120964929Y-84963181D01*
X120294635Y-84292887D01*
X120294631Y-84292881D01*
X120253221Y-84251473D01*
X120253220Y-84251472D01*
X120231696Y-84240505D01*
X120215112Y-84230341D01*
X120195581Y-84216151D01*
X120195580Y-84216150D01*
X120172615Y-84208688D01*
X120154641Y-84201243D01*
X120133127Y-84190281D01*
X120128010Y-84189470D01*
X120109273Y-84186503D01*
X120090358Y-84181962D01*
X120067394Y-84174500D01*
X120067393Y-84174500D01*
X120033488Y-84174500D01*
X111826609Y-84174500D01*
X111759570Y-84154815D01*
X111713815Y-84102011D01*
X111703871Y-84032853D01*
X111732896Y-83969297D01*
X111738928Y-83962819D01*
X111918012Y-83783736D01*
X112254554Y-83447194D01*
X112282232Y-83419516D01*
X112285776Y-83408994D01*
X112289495Y-83401694D01*
X112299650Y-83385125D01*
X112313850Y-83365581D01*
X112321311Y-83342614D01*
X112328760Y-83324633D01*
X112339718Y-83303129D01*
X112339718Y-83303128D01*
X112339718Y-83303127D01*
X112339719Y-83303126D01*
X112343496Y-83279273D01*
X112348035Y-83260366D01*
X112355500Y-83237393D01*
X112355500Y-83111643D01*
X112375185Y-83044605D01*
X112421045Y-83002286D01*
X112523150Y-82947711D01*
X112684936Y-82814936D01*
X112817711Y-82653150D01*
X112916372Y-82468569D01*
X112977127Y-82268286D01*
X112997641Y-82060000D01*
X112977127Y-81851714D01*
X112916372Y-81651431D01*
X112817711Y-81466850D01*
X112807171Y-81454007D01*
X112684936Y-81305063D01*
X112648734Y-81275353D01*
X112609400Y-81217607D01*
X112607529Y-81147763D01*
X112643717Y-81087994D01*
X112706473Y-81057279D01*
X112727399Y-81055500D01*
X113672601Y-81055500D01*
X113739640Y-81075185D01*
G37*
%TD.AperFunction*%
%TA.AperFunction,Conductor*%
G36*
X91389428Y-105895185D02*
G01*
X91410070Y-105911818D01*
X91501472Y-106003220D01*
X91596780Y-106098528D01*
X91618301Y-106109493D01*
X91634880Y-106119653D01*
X91654419Y-106133849D01*
X91677381Y-106141309D01*
X91695354Y-106148753D01*
X91716874Y-106159719D01*
X91740724Y-106163495D01*
X91759645Y-106168039D01*
X91779951Y-106174637D01*
X91782607Y-106175500D01*
X91816512Y-106175500D01*
X93123389Y-106175500D01*
X93190428Y-106195185D01*
X93236183Y-106247989D01*
X93246127Y-106317147D01*
X93217102Y-106380703D01*
X93211070Y-106387181D01*
X92988196Y-106610053D01*
X92988192Y-106610059D01*
X92951472Y-106646778D01*
X92940510Y-106668293D01*
X92930346Y-106684878D01*
X92916152Y-106704414D01*
X92916151Y-106704417D01*
X92908688Y-106727385D01*
X92901243Y-106745358D01*
X92890280Y-106766873D01*
X92886503Y-106790722D01*
X92881962Y-106809639D01*
X92874500Y-106832604D01*
X92874499Y-106832608D01*
X92874500Y-108872390D01*
X92854815Y-108939429D01*
X92838181Y-108960071D01*
X92610071Y-109188181D01*
X92548748Y-109221666D01*
X92522390Y-109224500D01*
X89884023Y-109224500D01*
X89816984Y-109204815D01*
X89771229Y-109152011D01*
X89761285Y-109082853D01*
X89790310Y-109019297D01*
X89818746Y-108995073D01*
X89867657Y-108964788D01*
X89896302Y-108947052D01*
X90053872Y-108803407D01*
X90182366Y-108633255D01*
X90246756Y-108503942D01*
X90277403Y-108442394D01*
X90277403Y-108442393D01*
X90277405Y-108442389D01*
X90335756Y-108237310D01*
X90350500Y-108078194D01*
X90350500Y-107721806D01*
X90335756Y-107562690D01*
X90287469Y-107392981D01*
X90288055Y-107323115D01*
X90326322Y-107264656D01*
X90377058Y-107238651D01*
X90482365Y-107212696D01*
X90622240Y-107139283D01*
X90740483Y-107034530D01*
X90830220Y-106904523D01*
X90886237Y-106756818D01*
X90905278Y-106600000D01*
X90903443Y-106584883D01*
X90886237Y-106443181D01*
X90855088Y-106361049D01*
X90830220Y-106295477D01*
X90740483Y-106165470D01*
X90657907Y-106092315D01*
X90620781Y-106033126D01*
X90621549Y-105963261D01*
X90659966Y-105904901D01*
X90723837Y-105876576D01*
X90740135Y-105875500D01*
X91322389Y-105875500D01*
X91389428Y-105895185D01*
G37*
%TD.AperFunction*%
%TD*%
M02*
