M48
; DRILL file {KiCad 7.0.6} date Wed Oct 11 20:15:24 2023
; FORMAT={-:-/ absolute / inch / decimal}
; #@! TF.CreationDate,2023-10-11T20:15:24+08:00
; #@! TF.GenerationSoftware,Kicad,Pcbnew,7.0.6
; #@! TF.FileFunction,Plated,1,4,PTH
FMAT,2
INCH
; #@! TA.AperFunction,Plated,PTH,ViaDrill
T1C0.0118
; #@! TA.AperFunction,Plated,PTH,ComponentDrill
T2C0.0374
; #@! TA.AperFunction,Plated,PTH,ComponentDrill
T3C0.0394
; #@! TA.AperFunction,Plated,PTH,ComponentDrill
T4C0.0400
; #@! TA.AperFunction,Plated,PTH,ComponentDrill
T5C0.0512
; #@! TA.AperFunction,Plated,PTH,ComponentDrill
T6C0.1083
%
G90
G05
T1
X2.6909Y-3.7717
X2.6909Y-3.7992
X2.6909Y-3.8268
X2.6909Y-4.0177
X2.6909Y-4.0453
X2.6909Y-4.0728
X2.6949Y-3.5591
X2.6949Y-3.5866
X2.6949Y-3.6142
X2.7205Y-3.7717
X2.7205Y-3.7992
X2.7205Y-3.8268
X2.7205Y-4.0177
X2.7205Y-4.0453
X2.7205Y-4.0728
X2.7244Y-3.5591
X2.7244Y-3.5866
X2.7244Y-3.6142
X2.7854Y-3.4685
X2.7854Y-3.498
X2.7854Y-4.1004
X2.7854Y-4.1299
X2.8042Y-3.8049
X2.8046Y-3.9035
X2.813Y-3.4685
X2.813Y-3.498
X2.813Y-4.1004
X2.813Y-4.1299
X2.8406Y-3.4685
X2.8406Y-3.498
X2.8406Y-4.1004
X2.8406Y-4.1299
X2.8642Y-4.0472
X2.8819Y-4.0591
X2.9094Y-4.2559
X2.9094Y-4.2854
X2.9094Y-4.315
X2.9094Y-4.3445
X2.937Y-4.2559
X2.937Y-4.2854
X2.937Y-4.315
X2.937Y-4.3445
X2.9547Y-3.8091
X2.9626Y-3.2146
X2.9646Y-4.2559
X2.9646Y-4.2854
X2.9646Y-4.315
X2.9646Y-4.3445
X2.9862Y-3.6922
X2.9902Y-3.2146
X3.0177Y-3.2146
X3.0469Y-4.0535
X3.0476Y-3.6933
X3.0492Y-3.4897
X3.0492Y-3.5571
X3.0866Y-3.5571
X3.1142Y-3.8406
X3.122Y-3.5571
X3.187Y-3.2106
X3.2146Y-3.2106
X3.2421Y-3.2106
X3.2756Y-3.7835
X3.3004Y-3.4791
X3.3524Y-3.9449
X3.3524Y-3.9744
X3.3524Y-4.0059
X3.3524Y-4.0354
X3.3524Y-4.065
X3.3839Y-3.9449
X3.3839Y-3.9744
X3.3839Y-4.0059
X3.3839Y-4.0354
X3.3839Y-4.065
X3.3878Y-4.1457
X3.5059Y-3.2165
X3.5335Y-3.2165
X3.5335Y-3.5591
X3.5364Y-3.4551
X3.5531Y-4.1969
X3.561Y-3.2165
X3.5689Y-3.5591
X3.6024Y-3.5591
X3.6378Y-3.2165
X3.6654Y-3.2165
X3.6709Y-3.6677
X3.6929Y-3.2165
X3.7165Y-4.2244
X3.7382Y-4.2244
X3.7598Y-4.2244
X3.7815Y-4.2244
X3.7854Y-3.6673
X3.7957Y-3.4689
X3.8031Y-4.2244
X3.861Y-3.337
X3.8661Y-3.6339
X3.8661Y-3.6732
X3.8661Y-3.7087
X3.9173Y-3.9705
X3.9252Y-4.0768
X3.9252Y-4.1063
X3.9469Y-3.315
X3.9469Y-3.3504
X3.9469Y-3.3819
X3.9528Y-4.0768
X3.9528Y-4.1063
X3.9783Y-3.7835
X4.0Y-3.876
X4.0025Y-4.1634
X4.0025Y-4.2264
X4.0315Y-4.0394
X4.0838Y-3.7359
X4.1004Y-4.2362
X4.1201Y-3.9213
X4.1358Y-3.2815
X4.1457Y-3.435
X4.1634Y-3.2815
X4.1643Y-3.807
X4.1732Y-3.435
X4.1969Y-4.2283
X4.2008Y-3.435
X4.2106Y-3.3494
X4.2146Y-3.3051
X4.2165Y-4.124
X4.2315Y-4.0364
X4.2343Y-3.9469
X4.2598Y-3.3022
X4.2657Y-4.128
X4.2913Y-4.0531
X4.3189Y-3.5
X4.3307Y-3.6075
X4.3307Y-3.9571
X4.3307Y-4.0079
X4.3642Y-3.4232
X4.3799Y-3.6083
X4.3799Y-3.9587
X4.4075Y-4.1949
X4.4134Y-3.4232
X4.4154Y-3.7795
X4.4154Y-3.8071
X4.4154Y-3.8346
X4.4154Y-4.1437
X4.4409Y-3.7067
X4.4449Y-3.5846
X4.4449Y-3.7795
X4.4449Y-3.8071
X4.4449Y-3.8346
X4.4646Y-3.4547
X4.4646Y-4.1437
X4.4646Y-4.1929
X4.4764Y-3.5512
X4.5118Y-3.9567
X4.5138Y-4.1122
X4.561Y-3.6732
X4.562Y-3.9616
X4.5689Y-3.2953
X4.5886Y-3.6732
X4.5886Y-3.8346
X4.5965Y-3.2953
X4.6004Y-3.6063
X4.6102Y-3.7933
X4.622Y-4.2146
X4.624Y-3.2953
X4.6496Y-4.2441
X4.6642Y-3.4547
X4.665Y-4.1441
X4.7146Y-3.4232
X4.715Y-3.3728
X4.748Y-3.8445
X4.748Y-3.872
X4.748Y-3.8996
X4.7559Y-3.5827
X4.7657Y-3.372
X4.7657Y-3.4232
X4.7657Y-4.1437
X4.8193Y-3.9493
X4.8795Y-3.9501
X4.8878Y-3.7411
X4.8957Y-4.2205
X4.8957Y-4.25
X4.9026Y-3.6654
X4.9026Y-3.6919
X4.9026Y-3.7195
X4.9031Y-3.6047
X4.9075Y-3.315
X4.9075Y-3.3445
X4.9152Y-3.4478
X4.9232Y-4.2205
X4.9232Y-4.25
X4.935Y-3.315
X4.935Y-3.3445
X4.9508Y-4.2205
X4.9508Y-4.25
X4.9626Y-3.315
X4.9626Y-3.3445
X4.9626Y-3.7569
X4.9626Y-3.7854
X4.9636Y-3.6713
X4.9636Y-3.6998
X4.9636Y-3.7283
X4.9665Y-3.4252
X4.9665Y-3.4528
X4.9665Y-3.4803
X4.9685Y-3.9114
X4.9685Y-3.939
X4.9685Y-3.9665
T2
X3.1181Y-4.248
X3.2165Y-4.248
X3.315Y-4.248
X3.4134Y-4.248
X3.5118Y-4.248
X3.6102Y-4.248
T3
X2.9685Y-3.2874
X3.063Y-3.2874
X3.1457Y-3.2874
X3.2402Y-3.2874
X3.435Y-3.2874
X3.439Y-3.7756
X3.5295Y-3.2874
X3.5374Y-3.7756
X3.6122Y-3.2874
X3.7067Y-3.2874
T4
X3.8067Y-3.2307
X3.8067Y-4.3307
X3.9067Y-3.2307
X3.9067Y-4.3307
X4.0067Y-3.2307
X4.0067Y-4.3307
X4.1067Y-3.2307
X4.1067Y-4.3307
X4.2067Y-3.2307
X4.2067Y-4.3307
X4.3067Y-3.2307
X4.3067Y-4.3307
X4.4067Y-3.2307
X4.4067Y-4.3307
X4.5067Y-3.2307
X4.5067Y-4.3307
X4.6067Y-3.2307
X4.6067Y-4.3307
X4.7067Y-3.2307
X4.7067Y-4.3307
X4.8067Y-3.2307
X4.8067Y-4.3307
X4.9067Y-3.2307
X4.9067Y-4.3307
T5
X2.9193Y-3.3858
X3.0138Y-3.3858
X3.1949Y-3.3858
X3.2894Y-3.3858
X3.3858Y-3.3858
X3.4803Y-3.3858
X3.6614Y-3.3858
X3.7559Y-3.3858
T6
X2.8004Y-3.328
X2.8004Y-4.2335
X5.0839Y-3.328
X5.0839Y-4.2335
T0
M30
