%TF.GenerationSoftware,KiCad,Pcbnew,7.0.6*%
%TF.CreationDate,2023-10-11T20:15:21+08:00*%
%TF.ProjectId,PCB_ESP32WROOM32E_RPI_Zero_Form_Hackster,5043425f-4553-4503-9332-57524f4f4d33,rev?*%
%TF.SameCoordinates,Original*%
%TF.FileFunction,Paste,Bot*%
%TF.FilePolarity,Positive*%
%FSLAX46Y46*%
G04 Gerber Fmt 4.6, Leading zero omitted, Abs format (unit mm)*
G04 Created by KiCad (PCBNEW 7.0.6) date 2023-10-11 20:15:21*
%MOMM*%
%LPD*%
G01*
G04 APERTURE LIST*
G04 Aperture macros list*
%AMRoundRect*
0 Rectangle with rounded corners*
0 $1 Rounding radius*
0 $2 $3 $4 $5 $6 $7 $8 $9 X,Y pos of 4 corners*
0 Add a 4 corners polygon primitive as box body*
4,1,4,$2,$3,$4,$5,$6,$7,$8,$9,$2,$3,0*
0 Add four circle primitives for the rounded corners*
1,1,$1+$1,$2,$3*
1,1,$1+$1,$4,$5*
1,1,$1+$1,$6,$7*
1,1,$1+$1,$8,$9*
0 Add four rect primitives between the rounded corners*
20,1,$1+$1,$2,$3,$4,$5,0*
20,1,$1+$1,$4,$5,$6,$7,0*
20,1,$1+$1,$6,$7,$8,$9,0*
20,1,$1+$1,$8,$9,$2,$3,0*%
G04 Aperture macros list end*
%ADD10R,0.900000X0.600000*%
%ADD11R,1.550000X0.600000*%
%ADD12R,1.800000X0.800000*%
%ADD13R,0.600000X0.900000*%
%ADD14RoundRect,0.237500X0.237500X-0.250000X0.237500X0.250000X-0.237500X0.250000X-0.237500X-0.250000X0*%
%ADD15RoundRect,0.237500X-0.300000X-0.237500X0.300000X-0.237500X0.300000X0.237500X-0.300000X0.237500X0*%
%ADD16RoundRect,0.237500X-0.237500X0.250000X-0.237500X-0.250000X0.237500X-0.250000X0.237500X0.250000X0*%
%ADD17RoundRect,0.237500X-0.250000X-0.237500X0.250000X-0.237500X0.250000X0.237500X-0.250000X0.237500X0*%
%ADD18RoundRect,0.250000X-0.425000X0.537500X-0.425000X-0.537500X0.425000X-0.537500X0.425000X0.537500X0*%
%ADD19R,1.600000X0.700000*%
%ADD20R,1.600000X1.400000*%
%ADD21R,2.200000X1.400000*%
%ADD22R,1.400000X1.800000*%
%ADD23RoundRect,0.237500X0.237500X-0.300000X0.237500X0.300000X-0.237500X0.300000X-0.237500X-0.300000X0*%
G04 APERTURE END LIST*
D10*
%TO.C,JP13*%
X112150000Y-106450000D03*
X112150000Y-105250000D03*
%TD*%
%TO.C,JP8*%
X121030000Y-86870000D03*
X121030000Y-85670000D03*
%TD*%
%TO.C,JP10*%
X113400000Y-106450000D03*
X113400000Y-105250000D03*
%TD*%
D11*
%TO.C,J2*%
X120100000Y-97600000D03*
X120100000Y-96600000D03*
X120100000Y-95600000D03*
X120100000Y-94600000D03*
D12*
X116225000Y-98900000D03*
X116225000Y-93300000D03*
%TD*%
D13*
%TO.C,JP4*%
X110050000Y-101800000D03*
X111250000Y-101800000D03*
%TD*%
%TO.C,JP3*%
X110050000Y-100550000D03*
X111250000Y-100550000D03*
%TD*%
%TO.C,JP14*%
X124240000Y-96960000D03*
X123040000Y-96960000D03*
%TD*%
D10*
%TO.C,JP9*%
X119760000Y-86870000D03*
X119760000Y-85670000D03*
%TD*%
D14*
%TO.C,R21*%
X122410000Y-100362500D03*
X122410000Y-98537500D03*
%TD*%
D10*
%TO.C,JP6*%
X118490000Y-89000000D03*
X118490000Y-87800000D03*
%TD*%
%TO.C,JP11*%
X114650000Y-103200000D03*
X114650000Y-104400000D03*
%TD*%
D15*
%TO.C,C17*%
X124317500Y-94932500D03*
X126042500Y-94932500D03*
%TD*%
D16*
%TO.C,R9*%
X126100000Y-91510000D03*
X126100000Y-93335000D03*
%TD*%
D17*
%TO.C,R10*%
X124347500Y-89982500D03*
X126172500Y-89982500D03*
%TD*%
D10*
%TO.C,JP16*%
X110850000Y-86900000D03*
X110850000Y-85700000D03*
%TD*%
D14*
%TO.C,R22*%
X123940000Y-100382500D03*
X123940000Y-98557500D03*
%TD*%
D10*
%TO.C,JP2*%
X112100000Y-86900000D03*
X112100000Y-85700000D03*
%TD*%
%TO.C,JP15*%
X95500000Y-108500000D03*
X95500000Y-107300000D03*
%TD*%
%TO.C,JP5*%
X121000000Y-106500000D03*
X121000000Y-105300000D03*
%TD*%
D18*
%TO.C,C13*%
X125800000Y-96925000D03*
X125800000Y-99800000D03*
%TD*%
D10*
%TO.C,JP7*%
X118490000Y-106460000D03*
X118490000Y-105260000D03*
%TD*%
D19*
%TO.C,P2*%
X81570000Y-94100000D03*
X81570000Y-95200000D03*
X81570000Y-96300000D03*
X81570000Y-97400000D03*
X81570000Y-98500000D03*
X81570000Y-99600000D03*
X81570000Y-100700000D03*
X81570000Y-101800000D03*
X81570000Y-102900000D03*
D20*
X80970000Y-104200000D03*
D21*
X71470000Y-104200000D03*
X71470000Y-88500000D03*
D22*
X81070000Y-89400000D03*
%TD*%
D13*
%TO.C,JP12*%
X119600000Y-91000000D03*
X120800000Y-91000000D03*
%TD*%
D23*
%TO.C,C19*%
X124540000Y-93285000D03*
X124540000Y-91560000D03*
%TD*%
D13*
%TO.C,JP1*%
X110050000Y-91650000D03*
X111250000Y-91650000D03*
%TD*%
M02*
