%TF.GenerationSoftware,KiCad,Pcbnew,7.0.6*%
%TF.CreationDate,2023-09-18T21:36:18+08:00*%
%TF.ProjectId,UPS_Lite_Pi_Zero_Form,5550535f-4c69-4746-955f-50695f5a6572,rev?*%
%TF.SameCoordinates,Original*%
%TF.FileFunction,Paste,Top*%
%TF.FilePolarity,Positive*%
%FSLAX46Y46*%
G04 Gerber Fmt 4.6, Leading zero omitted, Abs format (unit mm)*
G04 Created by KiCad (PCBNEW 7.0.6) date 2023-09-18 21:36:18*
%MOMM*%
%LPD*%
G01*
G04 APERTURE LIST*
G04 Aperture macros list*
%AMRoundRect*
0 Rectangle with rounded corners*
0 $1 Rounding radius*
0 $2 $3 $4 $5 $6 $7 $8 $9 X,Y pos of 4 corners*
0 Add a 4 corners polygon primitive as box body*
4,1,4,$2,$3,$4,$5,$6,$7,$8,$9,$2,$3,0*
0 Add four circle primitives for the rounded corners*
1,1,$1+$1,$2,$3*
1,1,$1+$1,$4,$5*
1,1,$1+$1,$6,$7*
1,1,$1+$1,$8,$9*
0 Add four rect primitives between the rounded corners*
20,1,$1+$1,$2,$3,$4,$5,0*
20,1,$1+$1,$4,$5,$6,$7,0*
20,1,$1+$1,$6,$7,$8,$9,0*
20,1,$1+$1,$8,$9,$2,$3,0*%
G04 Aperture macros list end*
%ADD10RoundRect,0.237500X-0.250000X-0.237500X0.250000X-0.237500X0.250000X0.237500X-0.250000X0.237500X0*%
%ADD11R,0.400000X1.560000*%
%ADD12RoundRect,0.112500X0.187500X0.112500X-0.187500X0.112500X-0.187500X-0.112500X0.187500X-0.112500X0*%
%ADD13RoundRect,0.237500X0.250000X0.237500X-0.250000X0.237500X-0.250000X-0.237500X0.250000X-0.237500X0*%
%ADD14RoundRect,0.237500X0.237500X-0.300000X0.237500X0.300000X-0.237500X0.300000X-0.237500X-0.300000X0*%
%ADD15R,1.750000X0.400000*%
%ADD16R,2.500000X1.425000*%
%ADD17RoundRect,0.237500X-0.237500X0.250000X-0.237500X-0.250000X0.237500X-0.250000X0.237500X0.250000X0*%
%ADD18R,1.200000X0.550000*%
%ADD19RoundRect,0.250000X0.425000X-0.450000X0.425000X0.450000X-0.425000X0.450000X-0.425000X-0.450000X0*%
%ADD20RoundRect,0.237500X-0.287500X-0.237500X0.287500X-0.237500X0.287500X0.237500X-0.287500X0.237500X0*%
%ADD21RoundRect,0.250000X-0.425000X-1.075000X0.425000X-1.075000X0.425000X1.075000X-0.425000X1.075000X0*%
%ADD22R,0.700000X1.500000*%
%ADD23R,1.000000X0.800000*%
%ADD24R,0.700000X1.300000*%
G04 APERTURE END LIST*
D10*
%TO.C,R3*%
X90345000Y-103570000D03*
X92170000Y-103570000D03*
%TD*%
D11*
%TO.C,Q1*%
X100905000Y-97852500D03*
X100255000Y-97852500D03*
X99605000Y-97852500D03*
X98955000Y-97852500D03*
X98955000Y-103612500D03*
X99605000Y-103612500D03*
X100255000Y-103612500D03*
X100905000Y-103612500D03*
%TD*%
D12*
%TO.C,D3*%
X92310000Y-101770000D03*
X90210000Y-101770000D03*
%TD*%
D13*
%TO.C,R1*%
X92220000Y-96330000D03*
X90395000Y-96330000D03*
%TD*%
%TO.C,R2*%
X95682500Y-96310000D03*
X93857500Y-96310000D03*
%TD*%
D14*
%TO.C,C1*%
X90350000Y-94742500D03*
X90350000Y-93017500D03*
%TD*%
%TO.C,C3*%
X97280000Y-96242500D03*
X97280000Y-94517500D03*
%TD*%
D15*
%TO.C,J3*%
X87810000Y-103090000D03*
X87810000Y-103740000D03*
X87810000Y-104390000D03*
X87810000Y-105040000D03*
X87810000Y-105690000D03*
D16*
X84735000Y-103427500D03*
X84735000Y-105352500D03*
%TD*%
D17*
%TO.C,R4*%
X94100000Y-91180000D03*
X94100000Y-93005000D03*
%TD*%
D18*
%TO.C,IC2*%
X95860000Y-90850000D03*
X95860000Y-91800000D03*
X95860000Y-92750000D03*
X98460000Y-92750000D03*
X98460000Y-91800000D03*
X98460000Y-90850000D03*
%TD*%
D19*
%TO.C,C6*%
X92200000Y-94567500D03*
X92200000Y-91867500D03*
%TD*%
D14*
%TO.C,C2*%
X100850000Y-93812500D03*
X100850000Y-92087500D03*
%TD*%
D20*
%TO.C,D1*%
X90447500Y-97920000D03*
X92197500Y-97920000D03*
%TD*%
D17*
%TO.C,R5*%
X98850000Y-94047500D03*
X98850000Y-95872500D03*
%TD*%
D21*
%TO.C,F1*%
X94720000Y-107120000D03*
X99220000Y-107120000D03*
%TD*%
D20*
%TO.C,D2*%
X93937500Y-94670000D03*
X95687500Y-94670000D03*
%TD*%
D22*
%TO.C,S1*%
X92190000Y-111870000D03*
X95190000Y-111870000D03*
X96690000Y-111870000D03*
D23*
X90790000Y-112570000D03*
X90790000Y-114670000D03*
X98090000Y-114670000D03*
X98090000Y-112570000D03*
%TD*%
D14*
%TO.C,C5*%
X104820000Y-109332500D03*
X104820000Y-107607500D03*
%TD*%
D19*
%TO.C,C4*%
X106670000Y-109147500D03*
X106670000Y-106447500D03*
%TD*%
D24*
%TO.C,IC1*%
X93555000Y-103520000D03*
X94825000Y-103520000D03*
X96095000Y-103520000D03*
X97365000Y-103520000D03*
X97365000Y-98020000D03*
X96095000Y-98020000D03*
X94825000Y-98020000D03*
X93555000Y-98020000D03*
%TD*%
M02*
