%TF.GenerationSoftware,KiCad,Pcbnew,7.0.6*%
%TF.CreationDate,2023-09-18T21:36:18+08:00*%
%TF.ProjectId,UPS_Lite_Pi_Zero_Form,5550535f-4c69-4746-955f-50695f5a6572,rev?*%
%TF.SameCoordinates,Original*%
%TF.FileFunction,Soldermask,Top*%
%TF.FilePolarity,Negative*%
%FSLAX46Y46*%
G04 Gerber Fmt 4.6, Leading zero omitted, Abs format (unit mm)*
G04 Created by KiCad (PCBNEW 7.0.6) date 2023-09-18 21:36:18*
%MOMM*%
%LPD*%
G01*
G04 APERTURE LIST*
G04 Aperture macros list*
%AMRoundRect*
0 Rectangle with rounded corners*
0 $1 Rounding radius*
0 $2 $3 $4 $5 $6 $7 $8 $9 X,Y pos of 4 corners*
0 Add a 4 corners polygon primitive as box body*
4,1,4,$2,$3,$4,$5,$6,$7,$8,$9,$2,$3,0*
0 Add four circle primitives for the rounded corners*
1,1,$1+$1,$2,$3*
1,1,$1+$1,$4,$5*
1,1,$1+$1,$6,$7*
1,1,$1+$1,$8,$9*
0 Add four rect primitives between the rounded corners*
20,1,$1+$1,$2,$3,$4,$5,0*
20,1,$1+$1,$4,$5,$6,$7,0*
20,1,$1+$1,$6,$7,$8,$9,0*
20,1,$1+$1,$8,$9,$2,$3,0*%
G04 Aperture macros list end*
%ADD10C,0.010000*%
%ADD11RoundRect,0.237500X-0.250000X-0.237500X0.250000X-0.237500X0.250000X0.237500X-0.250000X0.237500X0*%
%ADD12R,0.400000X1.560000*%
%ADD13RoundRect,0.112500X0.187500X0.112500X-0.187500X0.112500X-0.187500X-0.112500X0.187500X-0.112500X0*%
%ADD14RoundRect,0.237500X0.250000X0.237500X-0.250000X0.237500X-0.250000X-0.237500X0.250000X-0.237500X0*%
%ADD15RoundRect,0.237500X0.237500X-0.300000X0.237500X0.300000X-0.237500X0.300000X-0.237500X-0.300000X0*%
%ADD16RoundRect,0.250000X-0.600000X-0.750000X0.600000X-0.750000X0.600000X0.750000X-0.600000X0.750000X0*%
%ADD17O,1.700000X2.000000*%
%ADD18R,1.750000X0.400000*%
%ADD19O,2.400000X1.200000*%
%ADD20R,2.500000X1.425000*%
%ADD21RoundRect,0.237500X-0.237500X0.250000X-0.237500X-0.250000X0.237500X-0.250000X0.237500X0.250000X0*%
%ADD22R,1.200000X0.550000*%
%ADD23RoundRect,0.250000X0.425000X-0.450000X0.425000X0.450000X-0.425000X0.450000X-0.425000X-0.450000X0*%
%ADD24C,3.600000*%
%ADD25RoundRect,0.237500X-0.287500X-0.237500X0.287500X-0.237500X0.287500X0.237500X-0.287500X0.237500X0*%
%ADD26O,2.000000X1.700000*%
%ADD27RoundRect,0.250000X0.750000X-0.600000X0.750000X0.600000X-0.750000X0.600000X-0.750000X-0.600000X0*%
%ADD28RoundRect,0.250000X-0.425000X-1.075000X0.425000X-1.075000X0.425000X1.075000X-0.425000X1.075000X0*%
%ADD29C,0.900000*%
%ADD30RoundRect,0.102000X-0.350000X-0.750000X0.350000X-0.750000X0.350000X0.750000X-0.350000X0.750000X0*%
%ADD31RoundRect,0.102000X-0.500000X-0.400000X0.500000X-0.400000X0.500000X0.400000X-0.500000X0.400000X0*%
%ADD32R,0.700000X1.300000*%
%ADD33R,3.524000X3.524000*%
G04 APERTURE END LIST*
%TO.C,J3*%
D10*
X88845000Y-102590000D02*
X87185000Y-102590000D01*
X87185000Y-100390000D01*
X88845000Y-100390000D01*
X88845000Y-102590000D01*
G36*
X88845000Y-102590000D02*
G01*
X87185000Y-102590000D01*
X87185000Y-100390000D01*
X88845000Y-100390000D01*
X88845000Y-102590000D01*
G37*
X88845000Y-108390000D02*
X87185000Y-108390000D01*
X87185000Y-106190000D01*
X88845000Y-106190000D01*
X88845000Y-108390000D01*
G36*
X88845000Y-108390000D02*
G01*
X87185000Y-108390000D01*
X87185000Y-106190000D01*
X88845000Y-106190000D01*
X88845000Y-108390000D01*
G37*
X87135000Y-102415000D02*
X84185000Y-102415000D01*
X84159000Y-102414000D01*
X84133000Y-102412000D01*
X84107000Y-102409000D01*
X84081000Y-102404000D01*
X84056000Y-102398000D01*
X84030000Y-102391000D01*
X84006000Y-102382000D01*
X83982000Y-102372000D01*
X83958000Y-102361000D01*
X83935000Y-102348000D01*
X83913000Y-102334000D01*
X83891000Y-102320000D01*
X83870000Y-102304000D01*
X83850000Y-102287000D01*
X83831000Y-102269000D01*
X83813000Y-102250000D01*
X83796000Y-102230000D01*
X83780000Y-102209000D01*
X83766000Y-102187000D01*
X83752000Y-102165000D01*
X83739000Y-102142000D01*
X83728000Y-102118000D01*
X83718000Y-102094000D01*
X83709000Y-102070000D01*
X83702000Y-102044000D01*
X83696000Y-102019000D01*
X83691000Y-101993000D01*
X83688000Y-101967000D01*
X83686000Y-101941000D01*
X83685000Y-101915000D01*
X83685000Y-101415000D01*
X83686000Y-101389000D01*
X83688000Y-101363000D01*
X83691000Y-101337000D01*
X83696000Y-101311000D01*
X83702000Y-101286000D01*
X83709000Y-101260000D01*
X83718000Y-101236000D01*
X83728000Y-101212000D01*
X83739000Y-101188000D01*
X83752000Y-101165000D01*
X83766000Y-101143000D01*
X83780000Y-101121000D01*
X83796000Y-101100000D01*
X83813000Y-101080000D01*
X83831000Y-101061000D01*
X83850000Y-101043000D01*
X83870000Y-101026000D01*
X83891000Y-101010000D01*
X83913000Y-100996000D01*
X83935000Y-100982000D01*
X83958000Y-100969000D01*
X83982000Y-100958000D01*
X84006000Y-100948000D01*
X84030000Y-100939000D01*
X84056000Y-100932000D01*
X84081000Y-100926000D01*
X84107000Y-100921000D01*
X84133000Y-100918000D01*
X84159000Y-100916000D01*
X84185000Y-100915000D01*
X86235000Y-100915000D01*
X86235000Y-100390000D01*
X87135000Y-100390000D01*
X87135000Y-102415000D01*
G36*
X87135000Y-102415000D02*
G01*
X84185000Y-102415000D01*
X84159000Y-102414000D01*
X84133000Y-102412000D01*
X84107000Y-102409000D01*
X84081000Y-102404000D01*
X84056000Y-102398000D01*
X84030000Y-102391000D01*
X84006000Y-102382000D01*
X83982000Y-102372000D01*
X83958000Y-102361000D01*
X83935000Y-102348000D01*
X83913000Y-102334000D01*
X83891000Y-102320000D01*
X83870000Y-102304000D01*
X83850000Y-102287000D01*
X83831000Y-102269000D01*
X83813000Y-102250000D01*
X83796000Y-102230000D01*
X83780000Y-102209000D01*
X83766000Y-102187000D01*
X83752000Y-102165000D01*
X83739000Y-102142000D01*
X83728000Y-102118000D01*
X83718000Y-102094000D01*
X83709000Y-102070000D01*
X83702000Y-102044000D01*
X83696000Y-102019000D01*
X83691000Y-101993000D01*
X83688000Y-101967000D01*
X83686000Y-101941000D01*
X83685000Y-101915000D01*
X83685000Y-101415000D01*
X83686000Y-101389000D01*
X83688000Y-101363000D01*
X83691000Y-101337000D01*
X83696000Y-101311000D01*
X83702000Y-101286000D01*
X83709000Y-101260000D01*
X83718000Y-101236000D01*
X83728000Y-101212000D01*
X83739000Y-101188000D01*
X83752000Y-101165000D01*
X83766000Y-101143000D01*
X83780000Y-101121000D01*
X83796000Y-101100000D01*
X83813000Y-101080000D01*
X83831000Y-101061000D01*
X83850000Y-101043000D01*
X83870000Y-101026000D01*
X83891000Y-101010000D01*
X83913000Y-100996000D01*
X83935000Y-100982000D01*
X83958000Y-100969000D01*
X83982000Y-100958000D01*
X84006000Y-100948000D01*
X84030000Y-100939000D01*
X84056000Y-100932000D01*
X84081000Y-100926000D01*
X84107000Y-100921000D01*
X84133000Y-100918000D01*
X84159000Y-100916000D01*
X84185000Y-100915000D01*
X86235000Y-100915000D01*
X86235000Y-100390000D01*
X87135000Y-100390000D01*
X87135000Y-102415000D01*
G37*
X87135000Y-108390000D02*
X86235000Y-108390000D01*
X86235000Y-107865000D01*
X84185000Y-107865000D01*
X84159000Y-107864000D01*
X84133000Y-107862000D01*
X84107000Y-107859000D01*
X84081000Y-107854000D01*
X84056000Y-107848000D01*
X84030000Y-107841000D01*
X84006000Y-107832000D01*
X83982000Y-107822000D01*
X83958000Y-107811000D01*
X83935000Y-107798000D01*
X83913000Y-107784000D01*
X83891000Y-107770000D01*
X83870000Y-107754000D01*
X83850000Y-107737000D01*
X83831000Y-107719000D01*
X83813000Y-107700000D01*
X83796000Y-107680000D01*
X83780000Y-107659000D01*
X83766000Y-107637000D01*
X83752000Y-107615000D01*
X83739000Y-107592000D01*
X83728000Y-107568000D01*
X83718000Y-107544000D01*
X83709000Y-107520000D01*
X83702000Y-107494000D01*
X83696000Y-107469000D01*
X83691000Y-107443000D01*
X83688000Y-107417000D01*
X83686000Y-107391000D01*
X83685000Y-107365000D01*
X83685000Y-106865000D01*
X83686000Y-106839000D01*
X83688000Y-106813000D01*
X83691000Y-106787000D01*
X83696000Y-106761000D01*
X83702000Y-106736000D01*
X83709000Y-106710000D01*
X83718000Y-106686000D01*
X83728000Y-106662000D01*
X83739000Y-106638000D01*
X83752000Y-106615000D01*
X83766000Y-106593000D01*
X83780000Y-106571000D01*
X83796000Y-106550000D01*
X83813000Y-106530000D01*
X83831000Y-106511000D01*
X83850000Y-106493000D01*
X83870000Y-106476000D01*
X83891000Y-106460000D01*
X83913000Y-106446000D01*
X83935000Y-106432000D01*
X83958000Y-106419000D01*
X83982000Y-106408000D01*
X84006000Y-106398000D01*
X84030000Y-106389000D01*
X84056000Y-106382000D01*
X84081000Y-106376000D01*
X84107000Y-106371000D01*
X84133000Y-106368000D01*
X84159000Y-106366000D01*
X84185000Y-106365000D01*
X87135000Y-106365000D01*
X87135000Y-108390000D01*
G36*
X87135000Y-108390000D02*
G01*
X86235000Y-108390000D01*
X86235000Y-107865000D01*
X84185000Y-107865000D01*
X84159000Y-107864000D01*
X84133000Y-107862000D01*
X84107000Y-107859000D01*
X84081000Y-107854000D01*
X84056000Y-107848000D01*
X84030000Y-107841000D01*
X84006000Y-107832000D01*
X83982000Y-107822000D01*
X83958000Y-107811000D01*
X83935000Y-107798000D01*
X83913000Y-107784000D01*
X83891000Y-107770000D01*
X83870000Y-107754000D01*
X83850000Y-107737000D01*
X83831000Y-107719000D01*
X83813000Y-107700000D01*
X83796000Y-107680000D01*
X83780000Y-107659000D01*
X83766000Y-107637000D01*
X83752000Y-107615000D01*
X83739000Y-107592000D01*
X83728000Y-107568000D01*
X83718000Y-107544000D01*
X83709000Y-107520000D01*
X83702000Y-107494000D01*
X83696000Y-107469000D01*
X83691000Y-107443000D01*
X83688000Y-107417000D01*
X83686000Y-107391000D01*
X83685000Y-107365000D01*
X83685000Y-106865000D01*
X83686000Y-106839000D01*
X83688000Y-106813000D01*
X83691000Y-106787000D01*
X83696000Y-106761000D01*
X83702000Y-106736000D01*
X83709000Y-106710000D01*
X83718000Y-106686000D01*
X83728000Y-106662000D01*
X83739000Y-106638000D01*
X83752000Y-106615000D01*
X83766000Y-106593000D01*
X83780000Y-106571000D01*
X83796000Y-106550000D01*
X83813000Y-106530000D01*
X83831000Y-106511000D01*
X83850000Y-106493000D01*
X83870000Y-106476000D01*
X83891000Y-106460000D01*
X83913000Y-106446000D01*
X83935000Y-106432000D01*
X83958000Y-106419000D01*
X83982000Y-106408000D01*
X84006000Y-106398000D01*
X84030000Y-106389000D01*
X84056000Y-106382000D01*
X84081000Y-106376000D01*
X84107000Y-106371000D01*
X84133000Y-106368000D01*
X84159000Y-106366000D01*
X84185000Y-106365000D01*
X87135000Y-106365000D01*
X87135000Y-108390000D01*
G37*
%TD*%
D11*
%TO.C,R3*%
X90345000Y-103570000D03*
X92170000Y-103570000D03*
%TD*%
D12*
%TO.C,Q1*%
X100905000Y-97852500D03*
X100255000Y-97852500D03*
X99605000Y-97852500D03*
X98955000Y-97852500D03*
X98955000Y-103612500D03*
X99605000Y-103612500D03*
X100255000Y-103612500D03*
X100905000Y-103612500D03*
%TD*%
D13*
%TO.C,D3*%
X92310000Y-101770000D03*
X90210000Y-101770000D03*
%TD*%
D14*
%TO.C,R1*%
X92220000Y-96330000D03*
X90395000Y-96330000D03*
%TD*%
%TO.C,R2*%
X95682500Y-96310000D03*
X93857500Y-96310000D03*
%TD*%
D15*
%TO.C,C1*%
X90350000Y-94742500D03*
X90350000Y-93017500D03*
%TD*%
%TO.C,C3*%
X97280000Y-96242500D03*
X97280000Y-94517500D03*
%TD*%
D16*
%TO.C,J4*%
X102000000Y-112400000D03*
D17*
X104500000Y-112400000D03*
%TD*%
D18*
%TO.C,J3*%
X87810000Y-103090000D03*
X87810000Y-103740000D03*
X87810000Y-104390000D03*
X87810000Y-105040000D03*
X87810000Y-105690000D03*
D19*
X84985000Y-101665000D03*
X84985000Y-107115000D03*
D20*
X84735000Y-103427500D03*
X84735000Y-105352500D03*
%TD*%
D21*
%TO.C,R4*%
X94100000Y-91180000D03*
X94100000Y-93005000D03*
%TD*%
D22*
%TO.C,IC2*%
X95860000Y-90850000D03*
X95860000Y-91800000D03*
X95860000Y-92750000D03*
X98460000Y-92750000D03*
X98460000Y-91800000D03*
X98460000Y-90850000D03*
%TD*%
D23*
%TO.C,C6*%
X92200000Y-94567500D03*
X92200000Y-91867500D03*
%TD*%
D15*
%TO.C,C2*%
X100850000Y-93812500D03*
X100850000Y-92087500D03*
%TD*%
D24*
%TO.C,REF\u002A\u002A*%
X86940000Y-88600000D03*
X86940000Y-111600000D03*
X144940000Y-88600000D03*
X144940000Y-111600000D03*
%TD*%
D25*
%TO.C,D1*%
X90447500Y-97920000D03*
X92197500Y-97920000D03*
%TD*%
D21*
%TO.C,R5*%
X98850000Y-94047500D03*
X98850000Y-95872500D03*
%TD*%
D26*
%TO.C,J2*%
X103900000Y-95400000D03*
D27*
X103900000Y-97900000D03*
%TD*%
%TO.C,J1*%
X87560000Y-96540000D03*
D26*
X87560000Y-94040000D03*
%TD*%
D28*
%TO.C,F1*%
X94720000Y-107120000D03*
X99220000Y-107120000D03*
%TD*%
D25*
%TO.C,D2*%
X93937500Y-94670000D03*
X95687500Y-94670000D03*
%TD*%
D29*
%TO.C,S1*%
X92940000Y-113620000D03*
X95940000Y-113620000D03*
D30*
X92190000Y-111870000D03*
X95190000Y-111870000D03*
X96690000Y-111870000D03*
D31*
X90790000Y-112570000D03*
X90790000Y-114670000D03*
X98090000Y-114670000D03*
X98090000Y-112570000D03*
%TD*%
D15*
%TO.C,C5*%
X104820000Y-109332500D03*
X104820000Y-107607500D03*
%TD*%
D23*
%TO.C,C4*%
X106670000Y-109147500D03*
X106670000Y-106447500D03*
%TD*%
D32*
%TO.C,IC1*%
X93555000Y-103520000D03*
X94825000Y-103520000D03*
X96095000Y-103520000D03*
X97365000Y-103520000D03*
X97365000Y-98020000D03*
X96095000Y-98020000D03*
X94825000Y-98020000D03*
X93555000Y-98020000D03*
%TD*%
D33*
%TO.C,U\u002A1*%
X91780000Y-87660000D03*
X102180000Y-87660000D03*
X91780000Y-106660000D03*
X102180000Y-106760000D03*
%TD*%
M02*
