%TF.GenerationSoftware,KiCad,Pcbnew,7.0.6*%
%TF.CreationDate,2023-09-18T21:36:18+08:00*%
%TF.ProjectId,UPS_Lite_Pi_Zero_Form,5550535f-4c69-4746-955f-50695f5a6572,rev?*%
%TF.SameCoordinates,Original*%
%TF.FileFunction,Legend,Top*%
%TF.FilePolarity,Positive*%
%FSLAX46Y46*%
G04 Gerber Fmt 4.6, Leading zero omitted, Abs format (unit mm)*
G04 Created by KiCad (PCBNEW 7.0.6) date 2023-09-18 21:36:18*
%MOMM*%
%LPD*%
G01*
G04 APERTURE LIST*
%ADD10C,0.150000*%
%ADD11C,0.200000*%
%ADD12C,0.100000*%
%ADD13C,0.254000*%
%ADD14C,0.120000*%
%ADD15C,0.127000*%
%ADD16C,0.152400*%
G04 APERTURE END LIST*
D10*
X89904819Y-105416666D02*
X89428628Y-105749999D01*
X89904819Y-105988094D02*
X88904819Y-105988094D01*
X88904819Y-105988094D02*
X88904819Y-105607142D01*
X88904819Y-105607142D02*
X88952438Y-105511904D01*
X88952438Y-105511904D02*
X89000057Y-105464285D01*
X89000057Y-105464285D02*
X89095295Y-105416666D01*
X89095295Y-105416666D02*
X89238152Y-105416666D01*
X89238152Y-105416666D02*
X89333390Y-105464285D01*
X89333390Y-105464285D02*
X89381009Y-105511904D01*
X89381009Y-105511904D02*
X89428628Y-105607142D01*
X89428628Y-105607142D02*
X89428628Y-105988094D01*
X88904819Y-105083332D02*
X88904819Y-104464285D01*
X88904819Y-104464285D02*
X89285771Y-104797618D01*
X89285771Y-104797618D02*
X89285771Y-104654761D01*
X89285771Y-104654761D02*
X89333390Y-104559523D01*
X89333390Y-104559523D02*
X89381009Y-104511904D01*
X89381009Y-104511904D02*
X89476247Y-104464285D01*
X89476247Y-104464285D02*
X89714342Y-104464285D01*
X89714342Y-104464285D02*
X89809580Y-104511904D01*
X89809580Y-104511904D02*
X89857200Y-104559523D01*
X89857200Y-104559523D02*
X89904819Y-104654761D01*
X89904819Y-104654761D02*
X89904819Y-104940475D01*
X89904819Y-104940475D02*
X89857200Y-105035713D01*
X89857200Y-105035713D02*
X89809580Y-105083332D01*
D11*
X100547457Y-100695238D02*
X100499838Y-100790476D01*
X100499838Y-100790476D02*
X100404600Y-100885714D01*
X100404600Y-100885714D02*
X100261742Y-101028571D01*
X100261742Y-101028571D02*
X100214123Y-101123809D01*
X100214123Y-101123809D02*
X100214123Y-101219047D01*
X100452219Y-101171428D02*
X100404600Y-101266666D01*
X100404600Y-101266666D02*
X100309361Y-101361904D01*
X100309361Y-101361904D02*
X100118885Y-101409523D01*
X100118885Y-101409523D02*
X99785552Y-101409523D01*
X99785552Y-101409523D02*
X99595076Y-101361904D01*
X99595076Y-101361904D02*
X99499838Y-101266666D01*
X99499838Y-101266666D02*
X99452219Y-101171428D01*
X99452219Y-101171428D02*
X99452219Y-100980952D01*
X99452219Y-100980952D02*
X99499838Y-100885714D01*
X99499838Y-100885714D02*
X99595076Y-100790476D01*
X99595076Y-100790476D02*
X99785552Y-100742857D01*
X99785552Y-100742857D02*
X100118885Y-100742857D01*
X100118885Y-100742857D02*
X100309361Y-100790476D01*
X100309361Y-100790476D02*
X100404600Y-100885714D01*
X100404600Y-100885714D02*
X100452219Y-100980952D01*
X100452219Y-100980952D02*
X100452219Y-101171428D01*
X100452219Y-99790476D02*
X100452219Y-100361904D01*
X100452219Y-100076190D02*
X99452219Y-100076190D01*
X99452219Y-100076190D02*
X99595076Y-100171428D01*
X99595076Y-100171428D02*
X99690314Y-100266666D01*
X99690314Y-100266666D02*
X99737933Y-100361904D01*
D10*
X89504819Y-101188094D02*
X88504819Y-101188094D01*
X88504819Y-101188094D02*
X88504819Y-100949999D01*
X88504819Y-100949999D02*
X88552438Y-100807142D01*
X88552438Y-100807142D02*
X88647676Y-100711904D01*
X88647676Y-100711904D02*
X88742914Y-100664285D01*
X88742914Y-100664285D02*
X88933390Y-100616666D01*
X88933390Y-100616666D02*
X89076247Y-100616666D01*
X89076247Y-100616666D02*
X89266723Y-100664285D01*
X89266723Y-100664285D02*
X89361961Y-100711904D01*
X89361961Y-100711904D02*
X89457200Y-100807142D01*
X89457200Y-100807142D02*
X89504819Y-100949999D01*
X89504819Y-100949999D02*
X89504819Y-101188094D01*
X88504819Y-100283332D02*
X88504819Y-99664285D01*
X88504819Y-99664285D02*
X88885771Y-99997618D01*
X88885771Y-99997618D02*
X88885771Y-99854761D01*
X88885771Y-99854761D02*
X88933390Y-99759523D01*
X88933390Y-99759523D02*
X88981009Y-99711904D01*
X88981009Y-99711904D02*
X89076247Y-99664285D01*
X89076247Y-99664285D02*
X89314342Y-99664285D01*
X89314342Y-99664285D02*
X89409580Y-99711904D01*
X89409580Y-99711904D02*
X89457200Y-99759523D01*
X89457200Y-99759523D02*
X89504819Y-99854761D01*
X89504819Y-99854761D02*
X89504819Y-100140475D01*
X89504819Y-100140475D02*
X89457200Y-100235713D01*
X89457200Y-100235713D02*
X89409580Y-100283332D01*
X89554819Y-95566666D02*
X89078628Y-95899999D01*
X89554819Y-96138094D02*
X88554819Y-96138094D01*
X88554819Y-96138094D02*
X88554819Y-95757142D01*
X88554819Y-95757142D02*
X88602438Y-95661904D01*
X88602438Y-95661904D02*
X88650057Y-95614285D01*
X88650057Y-95614285D02*
X88745295Y-95566666D01*
X88745295Y-95566666D02*
X88888152Y-95566666D01*
X88888152Y-95566666D02*
X88983390Y-95614285D01*
X88983390Y-95614285D02*
X89031009Y-95661904D01*
X89031009Y-95661904D02*
X89078628Y-95757142D01*
X89078628Y-95757142D02*
X89078628Y-96138094D01*
X89554819Y-94614285D02*
X89554819Y-95185713D01*
X89554819Y-94899999D02*
X88554819Y-94899999D01*
X88554819Y-94899999D02*
X88697676Y-94995237D01*
X88697676Y-94995237D02*
X88792914Y-95090475D01*
X88792914Y-95090475D02*
X88840533Y-95185713D01*
X95254819Y-96466666D02*
X94778628Y-96799999D01*
X95254819Y-97038094D02*
X94254819Y-97038094D01*
X94254819Y-97038094D02*
X94254819Y-96657142D01*
X94254819Y-96657142D02*
X94302438Y-96561904D01*
X94302438Y-96561904D02*
X94350057Y-96514285D01*
X94350057Y-96514285D02*
X94445295Y-96466666D01*
X94445295Y-96466666D02*
X94588152Y-96466666D01*
X94588152Y-96466666D02*
X94683390Y-96514285D01*
X94683390Y-96514285D02*
X94731009Y-96561904D01*
X94731009Y-96561904D02*
X94778628Y-96657142D01*
X94778628Y-96657142D02*
X94778628Y-97038094D01*
X94350057Y-96085713D02*
X94302438Y-96038094D01*
X94302438Y-96038094D02*
X94254819Y-95942856D01*
X94254819Y-95942856D02*
X94254819Y-95704761D01*
X94254819Y-95704761D02*
X94302438Y-95609523D01*
X94302438Y-95609523D02*
X94350057Y-95561904D01*
X94350057Y-95561904D02*
X94445295Y-95514285D01*
X94445295Y-95514285D02*
X94540533Y-95514285D01*
X94540533Y-95514285D02*
X94683390Y-95561904D01*
X94683390Y-95561904D02*
X95254819Y-96133332D01*
X95254819Y-96133332D02*
X95254819Y-95514285D01*
X89409580Y-93716666D02*
X89457200Y-93764285D01*
X89457200Y-93764285D02*
X89504819Y-93907142D01*
X89504819Y-93907142D02*
X89504819Y-94002380D01*
X89504819Y-94002380D02*
X89457200Y-94145237D01*
X89457200Y-94145237D02*
X89361961Y-94240475D01*
X89361961Y-94240475D02*
X89266723Y-94288094D01*
X89266723Y-94288094D02*
X89076247Y-94335713D01*
X89076247Y-94335713D02*
X88933390Y-94335713D01*
X88933390Y-94335713D02*
X88742914Y-94288094D01*
X88742914Y-94288094D02*
X88647676Y-94240475D01*
X88647676Y-94240475D02*
X88552438Y-94145237D01*
X88552438Y-94145237D02*
X88504819Y-94002380D01*
X88504819Y-94002380D02*
X88504819Y-93907142D01*
X88504819Y-93907142D02*
X88552438Y-93764285D01*
X88552438Y-93764285D02*
X88600057Y-93716666D01*
X89504819Y-92764285D02*
X89504819Y-93335713D01*
X89504819Y-93049999D02*
X88504819Y-93049999D01*
X88504819Y-93049999D02*
X88647676Y-93145237D01*
X88647676Y-93145237D02*
X88742914Y-93240475D01*
X88742914Y-93240475D02*
X88790533Y-93335713D01*
X98659580Y-97316666D02*
X98707200Y-97364285D01*
X98707200Y-97364285D02*
X98754819Y-97507142D01*
X98754819Y-97507142D02*
X98754819Y-97602380D01*
X98754819Y-97602380D02*
X98707200Y-97745237D01*
X98707200Y-97745237D02*
X98611961Y-97840475D01*
X98611961Y-97840475D02*
X98516723Y-97888094D01*
X98516723Y-97888094D02*
X98326247Y-97935713D01*
X98326247Y-97935713D02*
X98183390Y-97935713D01*
X98183390Y-97935713D02*
X97992914Y-97888094D01*
X97992914Y-97888094D02*
X97897676Y-97840475D01*
X97897676Y-97840475D02*
X97802438Y-97745237D01*
X97802438Y-97745237D02*
X97754819Y-97602380D01*
X97754819Y-97602380D02*
X97754819Y-97507142D01*
X97754819Y-97507142D02*
X97802438Y-97364285D01*
X97802438Y-97364285D02*
X97850057Y-97316666D01*
X97754819Y-96983332D02*
X97754819Y-96364285D01*
X97754819Y-96364285D02*
X98135771Y-96697618D01*
X98135771Y-96697618D02*
X98135771Y-96554761D01*
X98135771Y-96554761D02*
X98183390Y-96459523D01*
X98183390Y-96459523D02*
X98231009Y-96411904D01*
X98231009Y-96411904D02*
X98326247Y-96364285D01*
X98326247Y-96364285D02*
X98564342Y-96364285D01*
X98564342Y-96364285D02*
X98659580Y-96411904D01*
X98659580Y-96411904D02*
X98707200Y-96459523D01*
X98707200Y-96459523D02*
X98754819Y-96554761D01*
X98754819Y-96554761D02*
X98754819Y-96840475D01*
X98754819Y-96840475D02*
X98707200Y-96935713D01*
X98707200Y-96935713D02*
X98659580Y-96983332D01*
X108216666Y-112904819D02*
X108216666Y-113619104D01*
X108216666Y-113619104D02*
X108169047Y-113761961D01*
X108169047Y-113761961D02*
X108073809Y-113857200D01*
X108073809Y-113857200D02*
X107930952Y-113904819D01*
X107930952Y-113904819D02*
X107835714Y-113904819D01*
X109121428Y-113238152D02*
X109121428Y-113904819D01*
X108883333Y-112857200D02*
X108645238Y-113571485D01*
X108645238Y-113571485D02*
X109264285Y-113571485D01*
X88254819Y-109733333D02*
X88969104Y-109733333D01*
X88969104Y-109733333D02*
X89111961Y-109780952D01*
X89111961Y-109780952D02*
X89207200Y-109876190D01*
X89207200Y-109876190D02*
X89254819Y-110019047D01*
X89254819Y-110019047D02*
X89254819Y-110114285D01*
X88254819Y-109352380D02*
X88254819Y-108733333D01*
X88254819Y-108733333D02*
X88635771Y-109066666D01*
X88635771Y-109066666D02*
X88635771Y-108923809D01*
X88635771Y-108923809D02*
X88683390Y-108828571D01*
X88683390Y-108828571D02*
X88731009Y-108780952D01*
X88731009Y-108780952D02*
X88826247Y-108733333D01*
X88826247Y-108733333D02*
X89064342Y-108733333D01*
X89064342Y-108733333D02*
X89159580Y-108780952D01*
X89159580Y-108780952D02*
X89207200Y-108828571D01*
X89207200Y-108828571D02*
X89254819Y-108923809D01*
X89254819Y-108923809D02*
X89254819Y-109209523D01*
X89254819Y-109209523D02*
X89207200Y-109304761D01*
X89207200Y-109304761D02*
X89159580Y-109352380D01*
X94854819Y-89566666D02*
X94378628Y-89899999D01*
X94854819Y-90138094D02*
X93854819Y-90138094D01*
X93854819Y-90138094D02*
X93854819Y-89757142D01*
X93854819Y-89757142D02*
X93902438Y-89661904D01*
X93902438Y-89661904D02*
X93950057Y-89614285D01*
X93950057Y-89614285D02*
X94045295Y-89566666D01*
X94045295Y-89566666D02*
X94188152Y-89566666D01*
X94188152Y-89566666D02*
X94283390Y-89614285D01*
X94283390Y-89614285D02*
X94331009Y-89661904D01*
X94331009Y-89661904D02*
X94378628Y-89757142D01*
X94378628Y-89757142D02*
X94378628Y-90138094D01*
X94188152Y-88709523D02*
X94854819Y-88709523D01*
X93807200Y-88947618D02*
X94521485Y-89185713D01*
X94521485Y-89185713D02*
X94521485Y-88566666D01*
D11*
X96223810Y-90052219D02*
X96223810Y-89052219D01*
X97271428Y-89956980D02*
X97223809Y-90004600D01*
X97223809Y-90004600D02*
X97080952Y-90052219D01*
X97080952Y-90052219D02*
X96985714Y-90052219D01*
X96985714Y-90052219D02*
X96842857Y-90004600D01*
X96842857Y-90004600D02*
X96747619Y-89909361D01*
X96747619Y-89909361D02*
X96700000Y-89814123D01*
X96700000Y-89814123D02*
X96652381Y-89623647D01*
X96652381Y-89623647D02*
X96652381Y-89480790D01*
X96652381Y-89480790D02*
X96700000Y-89290314D01*
X96700000Y-89290314D02*
X96747619Y-89195076D01*
X96747619Y-89195076D02*
X96842857Y-89099838D01*
X96842857Y-89099838D02*
X96985714Y-89052219D01*
X96985714Y-89052219D02*
X97080952Y-89052219D01*
X97080952Y-89052219D02*
X97223809Y-89099838D01*
X97223809Y-89099838D02*
X97271428Y-89147457D01*
X97652381Y-89147457D02*
X97700000Y-89099838D01*
X97700000Y-89099838D02*
X97795238Y-89052219D01*
X97795238Y-89052219D02*
X98033333Y-89052219D01*
X98033333Y-89052219D02*
X98128571Y-89099838D01*
X98128571Y-89099838D02*
X98176190Y-89147457D01*
X98176190Y-89147457D02*
X98223809Y-89242695D01*
X98223809Y-89242695D02*
X98223809Y-89337933D01*
X98223809Y-89337933D02*
X98176190Y-89480790D01*
X98176190Y-89480790D02*
X97604762Y-90052219D01*
X97604762Y-90052219D02*
X98223809Y-90052219D01*
D10*
X91983333Y-90659580D02*
X91935714Y-90707200D01*
X91935714Y-90707200D02*
X91792857Y-90754819D01*
X91792857Y-90754819D02*
X91697619Y-90754819D01*
X91697619Y-90754819D02*
X91554762Y-90707200D01*
X91554762Y-90707200D02*
X91459524Y-90611961D01*
X91459524Y-90611961D02*
X91411905Y-90516723D01*
X91411905Y-90516723D02*
X91364286Y-90326247D01*
X91364286Y-90326247D02*
X91364286Y-90183390D01*
X91364286Y-90183390D02*
X91411905Y-89992914D01*
X91411905Y-89992914D02*
X91459524Y-89897676D01*
X91459524Y-89897676D02*
X91554762Y-89802438D01*
X91554762Y-89802438D02*
X91697619Y-89754819D01*
X91697619Y-89754819D02*
X91792857Y-89754819D01*
X91792857Y-89754819D02*
X91935714Y-89802438D01*
X91935714Y-89802438D02*
X91983333Y-89850057D01*
X92840476Y-89754819D02*
X92650000Y-89754819D01*
X92650000Y-89754819D02*
X92554762Y-89802438D01*
X92554762Y-89802438D02*
X92507143Y-89850057D01*
X92507143Y-89850057D02*
X92411905Y-89992914D01*
X92411905Y-89992914D02*
X92364286Y-90183390D01*
X92364286Y-90183390D02*
X92364286Y-90564342D01*
X92364286Y-90564342D02*
X92411905Y-90659580D01*
X92411905Y-90659580D02*
X92459524Y-90707200D01*
X92459524Y-90707200D02*
X92554762Y-90754819D01*
X92554762Y-90754819D02*
X92745238Y-90754819D01*
X92745238Y-90754819D02*
X92840476Y-90707200D01*
X92840476Y-90707200D02*
X92888095Y-90659580D01*
X92888095Y-90659580D02*
X92935714Y-90564342D01*
X92935714Y-90564342D02*
X92935714Y-90326247D01*
X92935714Y-90326247D02*
X92888095Y-90231009D01*
X92888095Y-90231009D02*
X92840476Y-90183390D01*
X92840476Y-90183390D02*
X92745238Y-90135771D01*
X92745238Y-90135771D02*
X92554762Y-90135771D01*
X92554762Y-90135771D02*
X92459524Y-90183390D01*
X92459524Y-90183390D02*
X92411905Y-90231009D01*
X92411905Y-90231009D02*
X92364286Y-90326247D01*
X99649580Y-93306666D02*
X99697200Y-93354285D01*
X99697200Y-93354285D02*
X99744819Y-93497142D01*
X99744819Y-93497142D02*
X99744819Y-93592380D01*
X99744819Y-93592380D02*
X99697200Y-93735237D01*
X99697200Y-93735237D02*
X99601961Y-93830475D01*
X99601961Y-93830475D02*
X99506723Y-93878094D01*
X99506723Y-93878094D02*
X99316247Y-93925713D01*
X99316247Y-93925713D02*
X99173390Y-93925713D01*
X99173390Y-93925713D02*
X98982914Y-93878094D01*
X98982914Y-93878094D02*
X98887676Y-93830475D01*
X98887676Y-93830475D02*
X98792438Y-93735237D01*
X98792438Y-93735237D02*
X98744819Y-93592380D01*
X98744819Y-93592380D02*
X98744819Y-93497142D01*
X98744819Y-93497142D02*
X98792438Y-93354285D01*
X98792438Y-93354285D02*
X98840057Y-93306666D01*
X98840057Y-92925713D02*
X98792438Y-92878094D01*
X98792438Y-92878094D02*
X98744819Y-92782856D01*
X98744819Y-92782856D02*
X98744819Y-92544761D01*
X98744819Y-92544761D02*
X98792438Y-92449523D01*
X98792438Y-92449523D02*
X98840057Y-92401904D01*
X98840057Y-92401904D02*
X98935295Y-92354285D01*
X98935295Y-92354285D02*
X99030533Y-92354285D01*
X99030533Y-92354285D02*
X99173390Y-92401904D01*
X99173390Y-92401904D02*
X99744819Y-92973332D01*
X99744819Y-92973332D02*
X99744819Y-92354285D01*
D12*
X115250776Y-98157419D02*
X114917443Y-97681228D01*
X114679348Y-98157419D02*
X114679348Y-97157419D01*
X114679348Y-97157419D02*
X115060300Y-97157419D01*
X115060300Y-97157419D02*
X115155538Y-97205038D01*
X115155538Y-97205038D02*
X115203157Y-97252657D01*
X115203157Y-97252657D02*
X115250776Y-97347895D01*
X115250776Y-97347895D02*
X115250776Y-97490752D01*
X115250776Y-97490752D02*
X115203157Y-97585990D01*
X115203157Y-97585990D02*
X115155538Y-97633609D01*
X115155538Y-97633609D02*
X115060300Y-97681228D01*
X115060300Y-97681228D02*
X114679348Y-97681228D01*
X115679348Y-97633609D02*
X116012681Y-97633609D01*
X116155538Y-98157419D02*
X115679348Y-98157419D01*
X115679348Y-98157419D02*
X115679348Y-97157419D01*
X115679348Y-97157419D02*
X116155538Y-97157419D01*
X116917443Y-97633609D02*
X116584110Y-97633609D01*
X116584110Y-98157419D02*
X116584110Y-97157419D01*
X116584110Y-97157419D02*
X117060300Y-97157419D01*
X117584110Y-97157419D02*
X117584110Y-97395514D01*
X117346015Y-97300276D02*
X117584110Y-97395514D01*
X117584110Y-97395514D02*
X117822205Y-97300276D01*
X117441253Y-97585990D02*
X117584110Y-97395514D01*
X117584110Y-97395514D02*
X117726967Y-97585990D01*
X118346015Y-97157419D02*
X118346015Y-97395514D01*
X118107920Y-97300276D02*
X118346015Y-97395514D01*
X118346015Y-97395514D02*
X118584110Y-97300276D01*
X118203158Y-97585990D02*
X118346015Y-97395514D01*
X118346015Y-97395514D02*
X118488872Y-97585990D01*
D13*
D10*
X90511905Y-99854819D02*
X90511905Y-98854819D01*
X90511905Y-98854819D02*
X90750000Y-98854819D01*
X90750000Y-98854819D02*
X90892857Y-98902438D01*
X90892857Y-98902438D02*
X90988095Y-98997676D01*
X90988095Y-98997676D02*
X91035714Y-99092914D01*
X91035714Y-99092914D02*
X91083333Y-99283390D01*
X91083333Y-99283390D02*
X91083333Y-99426247D01*
X91083333Y-99426247D02*
X91035714Y-99616723D01*
X91035714Y-99616723D02*
X90988095Y-99711961D01*
X90988095Y-99711961D02*
X90892857Y-99807200D01*
X90892857Y-99807200D02*
X90750000Y-99854819D01*
X90750000Y-99854819D02*
X90511905Y-99854819D01*
X92035714Y-99854819D02*
X91464286Y-99854819D01*
X91750000Y-99854819D02*
X91750000Y-98854819D01*
X91750000Y-98854819D02*
X91654762Y-98997676D01*
X91654762Y-98997676D02*
X91559524Y-99092914D01*
X91559524Y-99092914D02*
X91464286Y-99140533D01*
X100404819Y-92366666D02*
X99928628Y-92699999D01*
X100404819Y-92938094D02*
X99404819Y-92938094D01*
X99404819Y-92938094D02*
X99404819Y-92557142D01*
X99404819Y-92557142D02*
X99452438Y-92461904D01*
X99452438Y-92461904D02*
X99500057Y-92414285D01*
X99500057Y-92414285D02*
X99595295Y-92366666D01*
X99595295Y-92366666D02*
X99738152Y-92366666D01*
X99738152Y-92366666D02*
X99833390Y-92414285D01*
X99833390Y-92414285D02*
X99881009Y-92461904D01*
X99881009Y-92461904D02*
X99928628Y-92557142D01*
X99928628Y-92557142D02*
X99928628Y-92938094D01*
X99404819Y-91461904D02*
X99404819Y-91938094D01*
X99404819Y-91938094D02*
X99881009Y-91985713D01*
X99881009Y-91985713D02*
X99833390Y-91938094D01*
X99833390Y-91938094D02*
X99785771Y-91842856D01*
X99785771Y-91842856D02*
X99785771Y-91604761D01*
X99785771Y-91604761D02*
X99833390Y-91509523D01*
X99833390Y-91509523D02*
X99881009Y-91461904D01*
X99881009Y-91461904D02*
X99976247Y-91414285D01*
X99976247Y-91414285D02*
X100214342Y-91414285D01*
X100214342Y-91414285D02*
X100309580Y-91461904D01*
X100309580Y-91461904D02*
X100357200Y-91509523D01*
X100357200Y-91509523D02*
X100404819Y-91604761D01*
X100404819Y-91604761D02*
X100404819Y-91842856D01*
X100404819Y-91842856D02*
X100357200Y-91938094D01*
X100357200Y-91938094D02*
X100309580Y-91985713D01*
X107216666Y-95954819D02*
X107216666Y-96669104D01*
X107216666Y-96669104D02*
X107169047Y-96811961D01*
X107169047Y-96811961D02*
X107073809Y-96907200D01*
X107073809Y-96907200D02*
X106930952Y-96954819D01*
X106930952Y-96954819D02*
X106835714Y-96954819D01*
X107645238Y-96050057D02*
X107692857Y-96002438D01*
X107692857Y-96002438D02*
X107788095Y-95954819D01*
X107788095Y-95954819D02*
X108026190Y-95954819D01*
X108026190Y-95954819D02*
X108121428Y-96002438D01*
X108121428Y-96002438D02*
X108169047Y-96050057D01*
X108169047Y-96050057D02*
X108216666Y-96145295D01*
X108216666Y-96145295D02*
X108216666Y-96240533D01*
X108216666Y-96240533D02*
X108169047Y-96383390D01*
X108169047Y-96383390D02*
X107597619Y-96954819D01*
X107597619Y-96954819D02*
X108216666Y-96954819D01*
X83954819Y-90633333D02*
X84669104Y-90633333D01*
X84669104Y-90633333D02*
X84811961Y-90680952D01*
X84811961Y-90680952D02*
X84907200Y-90776190D01*
X84907200Y-90776190D02*
X84954819Y-90919047D01*
X84954819Y-90919047D02*
X84954819Y-91014285D01*
X84954819Y-89633333D02*
X84954819Y-90204761D01*
X84954819Y-89919047D02*
X83954819Y-89919047D01*
X83954819Y-89919047D02*
X84097676Y-90014285D01*
X84097676Y-90014285D02*
X84192914Y-90109523D01*
X84192914Y-90109523D02*
X84240533Y-90204761D01*
X96566666Y-109481009D02*
X96233333Y-109481009D01*
X96233333Y-110004819D02*
X96233333Y-109004819D01*
X96233333Y-109004819D02*
X96709523Y-109004819D01*
X97614285Y-110004819D02*
X97042857Y-110004819D01*
X97328571Y-110004819D02*
X97328571Y-109004819D01*
X97328571Y-109004819D02*
X97233333Y-109147676D01*
X97233333Y-109147676D02*
X97138095Y-109242914D01*
X97138095Y-109242914D02*
X97042857Y-109290533D01*
X95011905Y-94004819D02*
X95011905Y-93004819D01*
X95011905Y-93004819D02*
X95250000Y-93004819D01*
X95250000Y-93004819D02*
X95392857Y-93052438D01*
X95392857Y-93052438D02*
X95488095Y-93147676D01*
X95488095Y-93147676D02*
X95535714Y-93242914D01*
X95535714Y-93242914D02*
X95583333Y-93433390D01*
X95583333Y-93433390D02*
X95583333Y-93576247D01*
X95583333Y-93576247D02*
X95535714Y-93766723D01*
X95535714Y-93766723D02*
X95488095Y-93861961D01*
X95488095Y-93861961D02*
X95392857Y-93957200D01*
X95392857Y-93957200D02*
X95250000Y-94004819D01*
X95250000Y-94004819D02*
X95011905Y-94004819D01*
X95964286Y-93100057D02*
X96011905Y-93052438D01*
X96011905Y-93052438D02*
X96107143Y-93004819D01*
X96107143Y-93004819D02*
X96345238Y-93004819D01*
X96345238Y-93004819D02*
X96440476Y-93052438D01*
X96440476Y-93052438D02*
X96488095Y-93100057D01*
X96488095Y-93100057D02*
X96535714Y-93195295D01*
X96535714Y-93195295D02*
X96535714Y-93290533D01*
X96535714Y-93290533D02*
X96488095Y-93433390D01*
X96488095Y-93433390D02*
X95916667Y-94004819D01*
X95916667Y-94004819D02*
X96535714Y-94004819D01*
X92453095Y-109896200D02*
X92595952Y-109943819D01*
X92595952Y-109943819D02*
X92834047Y-109943819D01*
X92834047Y-109943819D02*
X92929285Y-109896200D01*
X92929285Y-109896200D02*
X92976904Y-109848580D01*
X92976904Y-109848580D02*
X93024523Y-109753342D01*
X93024523Y-109753342D02*
X93024523Y-109658104D01*
X93024523Y-109658104D02*
X92976904Y-109562866D01*
X92976904Y-109562866D02*
X92929285Y-109515247D01*
X92929285Y-109515247D02*
X92834047Y-109467628D01*
X92834047Y-109467628D02*
X92643571Y-109420009D01*
X92643571Y-109420009D02*
X92548333Y-109372390D01*
X92548333Y-109372390D02*
X92500714Y-109324771D01*
X92500714Y-109324771D02*
X92453095Y-109229533D01*
X92453095Y-109229533D02*
X92453095Y-109134295D01*
X92453095Y-109134295D02*
X92500714Y-109039057D01*
X92500714Y-109039057D02*
X92548333Y-108991438D01*
X92548333Y-108991438D02*
X92643571Y-108943819D01*
X92643571Y-108943819D02*
X92881666Y-108943819D01*
X92881666Y-108943819D02*
X93024523Y-108991438D01*
X93976904Y-109943819D02*
X93405476Y-109943819D01*
X93691190Y-109943819D02*
X93691190Y-108943819D01*
X93691190Y-108943819D02*
X93595952Y-109086676D01*
X93595952Y-109086676D02*
X93500714Y-109181914D01*
X93500714Y-109181914D02*
X93405476Y-109229533D01*
X102833333Y-109809580D02*
X102785714Y-109857200D01*
X102785714Y-109857200D02*
X102642857Y-109904819D01*
X102642857Y-109904819D02*
X102547619Y-109904819D01*
X102547619Y-109904819D02*
X102404762Y-109857200D01*
X102404762Y-109857200D02*
X102309524Y-109761961D01*
X102309524Y-109761961D02*
X102261905Y-109666723D01*
X102261905Y-109666723D02*
X102214286Y-109476247D01*
X102214286Y-109476247D02*
X102214286Y-109333390D01*
X102214286Y-109333390D02*
X102261905Y-109142914D01*
X102261905Y-109142914D02*
X102309524Y-109047676D01*
X102309524Y-109047676D02*
X102404762Y-108952438D01*
X102404762Y-108952438D02*
X102547619Y-108904819D01*
X102547619Y-108904819D02*
X102642857Y-108904819D01*
X102642857Y-108904819D02*
X102785714Y-108952438D01*
X102785714Y-108952438D02*
X102833333Y-109000057D01*
X103738095Y-108904819D02*
X103261905Y-108904819D01*
X103261905Y-108904819D02*
X103214286Y-109381009D01*
X103214286Y-109381009D02*
X103261905Y-109333390D01*
X103261905Y-109333390D02*
X103357143Y-109285771D01*
X103357143Y-109285771D02*
X103595238Y-109285771D01*
X103595238Y-109285771D02*
X103690476Y-109333390D01*
X103690476Y-109333390D02*
X103738095Y-109381009D01*
X103738095Y-109381009D02*
X103785714Y-109476247D01*
X103785714Y-109476247D02*
X103785714Y-109714342D01*
X103785714Y-109714342D02*
X103738095Y-109809580D01*
X103738095Y-109809580D02*
X103690476Y-109857200D01*
X103690476Y-109857200D02*
X103595238Y-109904819D01*
X103595238Y-109904819D02*
X103357143Y-109904819D01*
X103357143Y-109904819D02*
X103261905Y-109857200D01*
X103261905Y-109857200D02*
X103214286Y-109809580D01*
X108859580Y-108016666D02*
X108907200Y-108064285D01*
X108907200Y-108064285D02*
X108954819Y-108207142D01*
X108954819Y-108207142D02*
X108954819Y-108302380D01*
X108954819Y-108302380D02*
X108907200Y-108445237D01*
X108907200Y-108445237D02*
X108811961Y-108540475D01*
X108811961Y-108540475D02*
X108716723Y-108588094D01*
X108716723Y-108588094D02*
X108526247Y-108635713D01*
X108526247Y-108635713D02*
X108383390Y-108635713D01*
X108383390Y-108635713D02*
X108192914Y-108588094D01*
X108192914Y-108588094D02*
X108097676Y-108540475D01*
X108097676Y-108540475D02*
X108002438Y-108445237D01*
X108002438Y-108445237D02*
X107954819Y-108302380D01*
X107954819Y-108302380D02*
X107954819Y-108207142D01*
X107954819Y-108207142D02*
X108002438Y-108064285D01*
X108002438Y-108064285D02*
X108050057Y-108016666D01*
X108288152Y-107159523D02*
X108954819Y-107159523D01*
X107907200Y-107397618D02*
X108621485Y-107635713D01*
X108621485Y-107635713D02*
X108621485Y-107016666D01*
D11*
X94423533Y-101152350D02*
X94423533Y-100152067D01*
X95471448Y-101057085D02*
X95423816Y-101104718D01*
X95423816Y-101104718D02*
X95280918Y-101152350D01*
X95280918Y-101152350D02*
X95185653Y-101152350D01*
X95185653Y-101152350D02*
X95042756Y-101104718D01*
X95042756Y-101104718D02*
X94947491Y-101009452D01*
X94947491Y-101009452D02*
X94899858Y-100914187D01*
X94899858Y-100914187D02*
X94852226Y-100723657D01*
X94852226Y-100723657D02*
X94852226Y-100580760D01*
X94852226Y-100580760D02*
X94899858Y-100390230D01*
X94899858Y-100390230D02*
X94947491Y-100294965D01*
X94947491Y-100294965D02*
X95042756Y-100199700D01*
X95042756Y-100199700D02*
X95185653Y-100152067D01*
X95185653Y-100152067D02*
X95280918Y-100152067D01*
X95280918Y-100152067D02*
X95423816Y-100199700D01*
X95423816Y-100199700D02*
X95471448Y-100247332D01*
X96424099Y-101152350D02*
X95852509Y-101152350D01*
X96138304Y-101152350D02*
X96138304Y-100152067D01*
X96138304Y-100152067D02*
X96043039Y-100294965D01*
X96043039Y-100294965D02*
X95947774Y-100390230D01*
X95947774Y-100390230D02*
X95852509Y-100437862D01*
D14*
%TO.C,R3*%
X91002776Y-103047500D02*
X91512224Y-103047500D01*
X91002776Y-104092500D02*
X91512224Y-104092500D01*
D15*
%TO.C,Q1*%
X101445000Y-98482500D02*
X101445000Y-102982500D01*
X98415000Y-98482500D02*
X98415000Y-102982500D01*
D11*
X101405000Y-96292500D02*
G75*
G03*
X101405000Y-96292500I-100000J0D01*
G01*
D14*
%TO.C,D3*%
X92870000Y-102620000D02*
X92870000Y-100920000D01*
X92870000Y-102620000D02*
X90210000Y-102620000D01*
X92870000Y-100920000D02*
X90210000Y-100920000D01*
%TO.C,R1*%
X91562224Y-96852500D02*
X91052776Y-96852500D01*
X91562224Y-95807500D02*
X91052776Y-95807500D01*
%TO.C,R2*%
X95024724Y-96832500D02*
X94515276Y-96832500D01*
X95024724Y-95787500D02*
X94515276Y-95787500D01*
%TO.C,C1*%
X89840000Y-94026267D02*
X89840000Y-93733733D01*
X90860000Y-94026267D02*
X90860000Y-93733733D01*
%TO.C,C3*%
X96770000Y-95526267D02*
X96770000Y-95233733D01*
X97790000Y-95526267D02*
X97790000Y-95233733D01*
%TO.C,J4*%
X99090000Y-112510000D02*
X99090000Y-115010000D01*
X99090000Y-115010000D02*
X101590000Y-115010000D01*
X99390000Y-110690000D02*
X99390000Y-114710000D01*
X99390000Y-112400000D02*
X99890000Y-112400000D01*
X99390000Y-113210000D02*
X100390000Y-113210000D01*
X99390000Y-114710000D02*
X107110000Y-114710000D01*
X99890000Y-111190000D02*
X106610000Y-111190000D01*
X99890000Y-112400000D02*
X99890000Y-111190000D01*
X100390000Y-113210000D02*
X100390000Y-114710000D01*
X106110000Y-113210000D02*
X106110000Y-114710000D01*
X106610000Y-111190000D02*
X106610000Y-112400000D01*
X106610000Y-112400000D02*
X107110000Y-112400000D01*
X107110000Y-110690000D02*
X99390000Y-110690000D01*
X107110000Y-113210000D02*
X106110000Y-113210000D01*
X107110000Y-114710000D02*
X107110000Y-110690000D01*
D15*
%TO.C,J3*%
X85985000Y-100640000D02*
X83285000Y-100640000D01*
X83285000Y-100640000D02*
X83285000Y-102395000D01*
X85985000Y-108140000D02*
X83285000Y-108140000D01*
X83285000Y-108140000D02*
X83285000Y-106385000D01*
D11*
X89485000Y-103090000D02*
G75*
G03*
X89485000Y-103090000I-100000J0D01*
G01*
D14*
%TO.C,R4*%
X94622500Y-91837776D02*
X94622500Y-92347224D01*
X93577500Y-91837776D02*
X93577500Y-92347224D01*
D16*
%TO.C,IC2*%
X97970000Y-90378000D02*
X97970000Y-90472000D01*
X96350000Y-90378000D02*
X97970000Y-90378000D01*
X96350000Y-90472000D02*
X96350000Y-90378000D01*
X97970000Y-91278000D02*
X97970000Y-92322000D01*
X96350000Y-91372000D02*
X96350000Y-91278000D01*
X96350000Y-92322000D02*
X96350000Y-92228000D01*
X97970000Y-93128000D02*
X97970000Y-93222000D01*
X97970000Y-93222000D02*
X96350000Y-93222000D01*
X96350000Y-93222000D02*
X96350000Y-93128000D01*
D15*
X96960000Y-90800000D02*
G75*
G03*
X96960000Y-90800000I-100000J0D01*
G01*
D14*
%TO.C,C6*%
X91265000Y-95527500D02*
X93135000Y-95527500D01*
X93135000Y-95527500D02*
X93135000Y-91617500D01*
X91265000Y-91617500D02*
X91265000Y-95527500D01*
%TO.C,C2*%
X100340000Y-93096267D02*
X100340000Y-92803733D01*
X101360000Y-93096267D02*
X101360000Y-92803733D01*
%TO.C,D1*%
X89662500Y-97185000D02*
X89662500Y-98655000D01*
X89662500Y-98655000D02*
X92122500Y-98655000D01*
X92122500Y-97185000D02*
X89662500Y-97185000D01*
%TO.C,R5*%
X99372500Y-94705276D02*
X99372500Y-95214724D01*
X98327500Y-94705276D02*
X98327500Y-95214724D01*
%TO.C,J2*%
X106210000Y-92790000D02*
X102190000Y-92790000D01*
X104710000Y-92790000D02*
X104710000Y-93790000D01*
X102190000Y-92790000D02*
X102190000Y-100510000D01*
X103900000Y-93290000D02*
X103900000Y-92790000D01*
X102690000Y-93290000D02*
X103900000Y-93290000D01*
X104710000Y-93790000D02*
X106210000Y-93790000D01*
X104710000Y-99510000D02*
X106210000Y-99510000D01*
X103900000Y-100010000D02*
X102690000Y-100010000D01*
X102690000Y-100010000D02*
X102690000Y-93290000D01*
X106210000Y-100510000D02*
X106210000Y-92790000D01*
X104710000Y-100510000D02*
X104710000Y-99510000D01*
X103900000Y-100510000D02*
X103900000Y-100010000D01*
X102190000Y-100510000D02*
X106210000Y-100510000D01*
X106510000Y-100810000D02*
X106510000Y-98310000D01*
X104010000Y-100810000D02*
X106510000Y-100810000D01*
%TO.C,J1*%
X80750000Y-99150000D02*
X80750000Y-91430000D01*
X81970000Y-99150000D02*
X81970000Y-97930000D01*
X89170000Y-99150000D02*
X80750000Y-99150000D01*
X81970000Y-97930000D02*
X86970000Y-97930000D01*
X85970000Y-97930000D02*
X85970000Y-92650000D01*
X86970000Y-97930000D02*
X86970000Y-99150000D01*
X86970000Y-97930000D02*
X89170000Y-97930000D01*
X89170000Y-97930000D02*
X89170000Y-99150000D01*
X82550000Y-96860000D02*
X82470000Y-96540000D01*
X85970000Y-96860000D02*
X82550000Y-96860000D01*
X89660000Y-96840000D02*
X89660000Y-96240000D01*
X82470000Y-96540000D02*
X82550000Y-96220000D01*
X85970000Y-96540000D02*
X85970000Y-96860000D01*
X89060000Y-96540000D02*
X89660000Y-96840000D01*
X89660000Y-96240000D02*
X89060000Y-96540000D01*
X82550000Y-96220000D02*
X85970000Y-96220000D01*
X85970000Y-96220000D02*
X85970000Y-96540000D01*
X86970000Y-95370000D02*
X86970000Y-95210000D01*
X82550000Y-94360000D02*
X82470000Y-94040000D01*
X85970000Y-94360000D02*
X82550000Y-94360000D01*
X82470000Y-94040000D02*
X82550000Y-93720000D01*
X85970000Y-94040000D02*
X85970000Y-94360000D01*
X82550000Y-93720000D02*
X85970000Y-93720000D01*
X85970000Y-93720000D02*
X85970000Y-94040000D01*
X81970000Y-92650000D02*
X86970000Y-92650000D01*
X86970000Y-92650000D02*
X86970000Y-91430000D01*
X89170000Y-92650000D02*
X86970000Y-92650000D01*
X80750000Y-91430000D02*
X89170000Y-91430000D01*
X81970000Y-91430000D02*
X81970000Y-92650000D01*
X89170000Y-91430000D02*
X89170000Y-92650000D01*
%TO.C,F1*%
X95567936Y-105760000D02*
X98372064Y-105760000D01*
X95567936Y-108480000D02*
X98372064Y-108480000D01*
%TO.C,D2*%
X93152500Y-93935000D02*
X93152500Y-95405000D01*
X93152500Y-95405000D02*
X95612500Y-95405000D01*
X95612500Y-93935000D02*
X93152500Y-93935000D01*
D15*
%TO.C,S1*%
X91090000Y-113366000D02*
X91090000Y-113874000D01*
X91610000Y-114920000D02*
X97270000Y-114920000D01*
X92940000Y-112320000D02*
X94440000Y-112320000D01*
X97790000Y-113366000D02*
X97790000Y-113874000D01*
D11*
X92211000Y-110549000D02*
G75*
G03*
X92211000Y-110549000I-100000J0D01*
G01*
D14*
%TO.C,C5*%
X104310000Y-108616267D02*
X104310000Y-108323733D01*
X105330000Y-108616267D02*
X105330000Y-108323733D01*
%TO.C,C4*%
X105735000Y-110107500D02*
X107605000Y-110107500D01*
X107605000Y-110107500D02*
X107605000Y-106197500D01*
X105735000Y-106197500D02*
X105735000Y-110107500D01*
D15*
%TO.C,IC1*%
X93260000Y-102870000D02*
X97660000Y-102870000D01*
X97660000Y-102870000D02*
X97660000Y-98670000D01*
X93260000Y-98670000D02*
X93260000Y-102870000D01*
X97660000Y-98670000D02*
X93260000Y-98670000D01*
D12*
X93983606Y-102370000D02*
G75*
G03*
X93983606Y-102370000I-223606J0D01*
G01*
%TD*%
M02*
