%TF.GenerationSoftware,KiCad,Pcbnew,7.0.6*%
%TF.CreationDate,2023-09-18T21:36:22+08:00*%
%TF.ProjectId,UPS_Lite_Pi_Zero_Form,5550535f-4c69-4746-955f-50695f5a6572,rev?*%
%TF.SameCoordinates,Original*%
%TF.FileFunction,Drillmap*%
%TF.FilePolarity,Positive*%
%FSLAX45Y45*%
G04 Gerber Fmt 4.5, Leading zero omitted, Abs format (unit mm)*
G04 Created by KiCad (PCBNEW 7.0.6) date 2023-09-18 21:36:22*
%MOMM*%
%LPD*%
G01*
G04 APERTURE LIST*
%ADD10C,0.200000*%
%ADD11C,0.090000*%
G04 APERTURE END LIST*
D10*
D11*
X9249000Y-11317000D02*
X9339000Y-11407000D01*
X9339000Y-11317000D02*
X9249000Y-11407000D01*
X9549000Y-11317000D02*
X9639000Y-11407000D01*
X9639000Y-11317000D02*
X9549000Y-11407000D01*
D10*
X8602277Y-11823984D02*
X8602277Y-11623984D01*
X8602277Y-11623984D02*
X8649896Y-11623984D01*
X8649896Y-11623984D02*
X8678467Y-11633508D01*
X8678467Y-11633508D02*
X8697515Y-11652555D01*
X8697515Y-11652555D02*
X8707039Y-11671603D01*
X8707039Y-11671603D02*
X8716563Y-11709698D01*
X8716563Y-11709698D02*
X8716563Y-11738269D01*
X8716563Y-11738269D02*
X8707039Y-11776365D01*
X8707039Y-11776365D02*
X8697515Y-11795412D01*
X8697515Y-11795412D02*
X8678467Y-11814460D01*
X8678467Y-11814460D02*
X8649896Y-11823984D01*
X8649896Y-11823984D02*
X8602277Y-11823984D01*
X8802277Y-11823984D02*
X8802277Y-11690650D01*
X8802277Y-11728746D02*
X8811801Y-11709698D01*
X8811801Y-11709698D02*
X8821324Y-11700174D01*
X8821324Y-11700174D02*
X8840372Y-11690650D01*
X8840372Y-11690650D02*
X8859420Y-11690650D01*
X8926086Y-11823984D02*
X8926086Y-11690650D01*
X8926086Y-11623984D02*
X8916563Y-11633508D01*
X8916563Y-11633508D02*
X8926086Y-11643031D01*
X8926086Y-11643031D02*
X8935610Y-11633508D01*
X8935610Y-11633508D02*
X8926086Y-11623984D01*
X8926086Y-11623984D02*
X8926086Y-11643031D01*
X9049896Y-11823984D02*
X9030848Y-11814460D01*
X9030848Y-11814460D02*
X9021324Y-11795412D01*
X9021324Y-11795412D02*
X9021324Y-11623984D01*
X9154658Y-11823984D02*
X9135610Y-11814460D01*
X9135610Y-11814460D02*
X9126086Y-11795412D01*
X9126086Y-11795412D02*
X9126086Y-11623984D01*
X9383229Y-11823984D02*
X9383229Y-11623984D01*
X9383229Y-11623984D02*
X9449896Y-11766841D01*
X9449896Y-11766841D02*
X9516563Y-11623984D01*
X9516563Y-11623984D02*
X9516563Y-11823984D01*
X9697515Y-11823984D02*
X9697515Y-11719222D01*
X9697515Y-11719222D02*
X9687991Y-11700174D01*
X9687991Y-11700174D02*
X9668944Y-11690650D01*
X9668944Y-11690650D02*
X9630848Y-11690650D01*
X9630848Y-11690650D02*
X9611801Y-11700174D01*
X9697515Y-11814460D02*
X9678467Y-11823984D01*
X9678467Y-11823984D02*
X9630848Y-11823984D01*
X9630848Y-11823984D02*
X9611801Y-11814460D01*
X9611801Y-11814460D02*
X9602277Y-11795412D01*
X9602277Y-11795412D02*
X9602277Y-11776365D01*
X9602277Y-11776365D02*
X9611801Y-11757317D01*
X9611801Y-11757317D02*
X9630848Y-11747793D01*
X9630848Y-11747793D02*
X9678467Y-11747793D01*
X9678467Y-11747793D02*
X9697515Y-11738269D01*
X9792753Y-11690650D02*
X9792753Y-11890650D01*
X9792753Y-11700174D02*
X9811801Y-11690650D01*
X9811801Y-11690650D02*
X9849896Y-11690650D01*
X9849896Y-11690650D02*
X9868944Y-11700174D01*
X9868944Y-11700174D02*
X9878467Y-11709698D01*
X9878467Y-11709698D02*
X9887991Y-11728746D01*
X9887991Y-11728746D02*
X9887991Y-11785888D01*
X9887991Y-11785888D02*
X9878467Y-11804936D01*
X9878467Y-11804936D02*
X9868944Y-11814460D01*
X9868944Y-11814460D02*
X9849896Y-11823984D01*
X9849896Y-11823984D02*
X9811801Y-11823984D01*
X9811801Y-11823984D02*
X9792753Y-11814460D01*
X9973705Y-11804936D02*
X9983229Y-11814460D01*
X9983229Y-11814460D02*
X9973705Y-11823984D01*
X9973705Y-11823984D02*
X9964182Y-11814460D01*
X9964182Y-11814460D02*
X9973705Y-11804936D01*
X9973705Y-11804936D02*
X9973705Y-11823984D01*
X9973705Y-11700174D02*
X9983229Y-11709698D01*
X9983229Y-11709698D02*
X9973705Y-11719222D01*
X9973705Y-11719222D02*
X9964182Y-11709698D01*
X9964182Y-11709698D02*
X9973705Y-11700174D01*
X9973705Y-11700174D02*
X9973705Y-11719222D01*
D11*
X8251500Y-12107500D02*
X8341500Y-12197500D01*
X8341500Y-12107500D02*
X8251500Y-12197500D01*
D10*
X8640372Y-12043984D02*
X8659420Y-12043984D01*
X8659420Y-12043984D02*
X8678467Y-12053508D01*
X8678467Y-12053508D02*
X8687991Y-12063031D01*
X8687991Y-12063031D02*
X8697515Y-12082079D01*
X8697515Y-12082079D02*
X8707039Y-12120174D01*
X8707039Y-12120174D02*
X8707039Y-12167793D01*
X8707039Y-12167793D02*
X8697515Y-12205888D01*
X8697515Y-12205888D02*
X8687991Y-12224936D01*
X8687991Y-12224936D02*
X8678467Y-12234460D01*
X8678467Y-12234460D02*
X8659420Y-12243984D01*
X8659420Y-12243984D02*
X8640372Y-12243984D01*
X8640372Y-12243984D02*
X8621324Y-12234460D01*
X8621324Y-12234460D02*
X8611801Y-12224936D01*
X8611801Y-12224936D02*
X8602277Y-12205888D01*
X8602277Y-12205888D02*
X8592753Y-12167793D01*
X8592753Y-12167793D02*
X8592753Y-12120174D01*
X8592753Y-12120174D02*
X8602277Y-12082079D01*
X8602277Y-12082079D02*
X8611801Y-12063031D01*
X8611801Y-12063031D02*
X8621324Y-12053508D01*
X8621324Y-12053508D02*
X8640372Y-12043984D01*
X8792753Y-12224936D02*
X8802277Y-12234460D01*
X8802277Y-12234460D02*
X8792753Y-12243984D01*
X8792753Y-12243984D02*
X8783229Y-12234460D01*
X8783229Y-12234460D02*
X8792753Y-12224936D01*
X8792753Y-12224936D02*
X8792753Y-12243984D01*
X8897515Y-12243984D02*
X8935610Y-12243984D01*
X8935610Y-12243984D02*
X8954658Y-12234460D01*
X8954658Y-12234460D02*
X8964182Y-12224936D01*
X8964182Y-12224936D02*
X8983229Y-12196365D01*
X8983229Y-12196365D02*
X8992753Y-12158269D01*
X8992753Y-12158269D02*
X8992753Y-12082079D01*
X8992753Y-12082079D02*
X8983229Y-12063031D01*
X8983229Y-12063031D02*
X8973705Y-12053508D01*
X8973705Y-12053508D02*
X8954658Y-12043984D01*
X8954658Y-12043984D02*
X8916563Y-12043984D01*
X8916563Y-12043984D02*
X8897515Y-12053508D01*
X8897515Y-12053508D02*
X8887991Y-12063031D01*
X8887991Y-12063031D02*
X8878467Y-12082079D01*
X8878467Y-12082079D02*
X8878467Y-12129698D01*
X8878467Y-12129698D02*
X8887991Y-12148746D01*
X8887991Y-12148746D02*
X8897515Y-12158269D01*
X8897515Y-12158269D02*
X8916563Y-12167793D01*
X8916563Y-12167793D02*
X8954658Y-12167793D01*
X8954658Y-12167793D02*
X8973705Y-12158269D01*
X8973705Y-12158269D02*
X8983229Y-12148746D01*
X8983229Y-12148746D02*
X8992753Y-12129698D01*
X9116563Y-12043984D02*
X9135610Y-12043984D01*
X9135610Y-12043984D02*
X9154658Y-12053508D01*
X9154658Y-12053508D02*
X9164182Y-12063031D01*
X9164182Y-12063031D02*
X9173705Y-12082079D01*
X9173705Y-12082079D02*
X9183229Y-12120174D01*
X9183229Y-12120174D02*
X9183229Y-12167793D01*
X9183229Y-12167793D02*
X9173705Y-12205888D01*
X9173705Y-12205888D02*
X9164182Y-12224936D01*
X9164182Y-12224936D02*
X9154658Y-12234460D01*
X9154658Y-12234460D02*
X9135610Y-12243984D01*
X9135610Y-12243984D02*
X9116563Y-12243984D01*
X9116563Y-12243984D02*
X9097515Y-12234460D01*
X9097515Y-12234460D02*
X9087991Y-12224936D01*
X9087991Y-12224936D02*
X9078467Y-12205888D01*
X9078467Y-12205888D02*
X9068944Y-12167793D01*
X9068944Y-12167793D02*
X9068944Y-12120174D01*
X9068944Y-12120174D02*
X9078467Y-12082079D01*
X9078467Y-12082079D02*
X9087991Y-12063031D01*
X9087991Y-12063031D02*
X9097515Y-12053508D01*
X9097515Y-12053508D02*
X9116563Y-12043984D01*
X9307039Y-12043984D02*
X9326086Y-12043984D01*
X9326086Y-12043984D02*
X9345134Y-12053508D01*
X9345134Y-12053508D02*
X9354658Y-12063031D01*
X9354658Y-12063031D02*
X9364182Y-12082079D01*
X9364182Y-12082079D02*
X9373705Y-12120174D01*
X9373705Y-12120174D02*
X9373705Y-12167793D01*
X9373705Y-12167793D02*
X9364182Y-12205888D01*
X9364182Y-12205888D02*
X9354658Y-12224936D01*
X9354658Y-12224936D02*
X9345134Y-12234460D01*
X9345134Y-12234460D02*
X9326086Y-12243984D01*
X9326086Y-12243984D02*
X9307039Y-12243984D01*
X9307039Y-12243984D02*
X9287991Y-12234460D01*
X9287991Y-12234460D02*
X9278467Y-12224936D01*
X9278467Y-12224936D02*
X9268944Y-12205888D01*
X9268944Y-12205888D02*
X9259420Y-12167793D01*
X9259420Y-12167793D02*
X9259420Y-12120174D01*
X9259420Y-12120174D02*
X9268944Y-12082079D01*
X9268944Y-12082079D02*
X9278467Y-12063031D01*
X9278467Y-12063031D02*
X9287991Y-12053508D01*
X9287991Y-12053508D02*
X9307039Y-12043984D01*
X9459420Y-12243984D02*
X9459420Y-12110650D01*
X9459420Y-12129698D02*
X9468944Y-12120174D01*
X9468944Y-12120174D02*
X9487991Y-12110650D01*
X9487991Y-12110650D02*
X9516563Y-12110650D01*
X9516563Y-12110650D02*
X9535610Y-12120174D01*
X9535610Y-12120174D02*
X9545134Y-12139222D01*
X9545134Y-12139222D02*
X9545134Y-12243984D01*
X9545134Y-12139222D02*
X9554658Y-12120174D01*
X9554658Y-12120174D02*
X9573705Y-12110650D01*
X9573705Y-12110650D02*
X9602277Y-12110650D01*
X9602277Y-12110650D02*
X9621325Y-12120174D01*
X9621325Y-12120174D02*
X9630848Y-12139222D01*
X9630848Y-12139222D02*
X9630848Y-12243984D01*
X9726086Y-12243984D02*
X9726086Y-12110650D01*
X9726086Y-12129698D02*
X9735610Y-12120174D01*
X9735610Y-12120174D02*
X9754658Y-12110650D01*
X9754658Y-12110650D02*
X9783229Y-12110650D01*
X9783229Y-12110650D02*
X9802277Y-12120174D01*
X9802277Y-12120174D02*
X9811801Y-12139222D01*
X9811801Y-12139222D02*
X9811801Y-12243984D01*
X9811801Y-12139222D02*
X9821325Y-12120174D01*
X9821325Y-12120174D02*
X9840372Y-12110650D01*
X9840372Y-12110650D02*
X9868944Y-12110650D01*
X9868944Y-12110650D02*
X9887991Y-12120174D01*
X9887991Y-12120174D02*
X9897515Y-12139222D01*
X9897515Y-12139222D02*
X9897515Y-12243984D01*
X10287991Y-12034460D02*
X10116563Y-12291603D01*
X10545134Y-12043984D02*
X10564182Y-12043984D01*
X10564182Y-12043984D02*
X10583229Y-12053508D01*
X10583229Y-12053508D02*
X10592753Y-12063031D01*
X10592753Y-12063031D02*
X10602277Y-12082079D01*
X10602277Y-12082079D02*
X10611801Y-12120174D01*
X10611801Y-12120174D02*
X10611801Y-12167793D01*
X10611801Y-12167793D02*
X10602277Y-12205888D01*
X10602277Y-12205888D02*
X10592753Y-12224936D01*
X10592753Y-12224936D02*
X10583229Y-12234460D01*
X10583229Y-12234460D02*
X10564182Y-12243984D01*
X10564182Y-12243984D02*
X10545134Y-12243984D01*
X10545134Y-12243984D02*
X10526087Y-12234460D01*
X10526087Y-12234460D02*
X10516563Y-12224936D01*
X10516563Y-12224936D02*
X10507039Y-12205888D01*
X10507039Y-12205888D02*
X10497515Y-12167793D01*
X10497515Y-12167793D02*
X10497515Y-12120174D01*
X10497515Y-12120174D02*
X10507039Y-12082079D01*
X10507039Y-12082079D02*
X10516563Y-12063031D01*
X10516563Y-12063031D02*
X10526087Y-12053508D01*
X10526087Y-12053508D02*
X10545134Y-12043984D01*
X10697515Y-12224936D02*
X10707039Y-12234460D01*
X10707039Y-12234460D02*
X10697515Y-12243984D01*
X10697515Y-12243984D02*
X10687991Y-12234460D01*
X10687991Y-12234460D02*
X10697515Y-12224936D01*
X10697515Y-12224936D02*
X10697515Y-12243984D01*
X10830848Y-12043984D02*
X10849896Y-12043984D01*
X10849896Y-12043984D02*
X10868944Y-12053508D01*
X10868944Y-12053508D02*
X10878468Y-12063031D01*
X10878468Y-12063031D02*
X10887991Y-12082079D01*
X10887991Y-12082079D02*
X10897515Y-12120174D01*
X10897515Y-12120174D02*
X10897515Y-12167793D01*
X10897515Y-12167793D02*
X10887991Y-12205888D01*
X10887991Y-12205888D02*
X10878468Y-12224936D01*
X10878468Y-12224936D02*
X10868944Y-12234460D01*
X10868944Y-12234460D02*
X10849896Y-12243984D01*
X10849896Y-12243984D02*
X10830848Y-12243984D01*
X10830848Y-12243984D02*
X10811801Y-12234460D01*
X10811801Y-12234460D02*
X10802277Y-12224936D01*
X10802277Y-12224936D02*
X10792753Y-12205888D01*
X10792753Y-12205888D02*
X10783229Y-12167793D01*
X10783229Y-12167793D02*
X10783229Y-12120174D01*
X10783229Y-12120174D02*
X10792753Y-12082079D01*
X10792753Y-12082079D02*
X10802277Y-12063031D01*
X10802277Y-12063031D02*
X10811801Y-12053508D01*
X10811801Y-12053508D02*
X10830848Y-12043984D01*
X10964182Y-12043984D02*
X11087991Y-12043984D01*
X11087991Y-12043984D02*
X11021325Y-12120174D01*
X11021325Y-12120174D02*
X11049896Y-12120174D01*
X11049896Y-12120174D02*
X11068944Y-12129698D01*
X11068944Y-12129698D02*
X11078468Y-12139222D01*
X11078468Y-12139222D02*
X11087991Y-12158269D01*
X11087991Y-12158269D02*
X11087991Y-12205888D01*
X11087991Y-12205888D02*
X11078468Y-12224936D01*
X11078468Y-12224936D02*
X11068944Y-12234460D01*
X11068944Y-12234460D02*
X11049896Y-12243984D01*
X11049896Y-12243984D02*
X10992753Y-12243984D01*
X10992753Y-12243984D02*
X10973706Y-12234460D01*
X10973706Y-12234460D02*
X10964182Y-12224936D01*
X11268944Y-12043984D02*
X11173706Y-12043984D01*
X11173706Y-12043984D02*
X11164182Y-12139222D01*
X11164182Y-12139222D02*
X11173706Y-12129698D01*
X11173706Y-12129698D02*
X11192753Y-12120174D01*
X11192753Y-12120174D02*
X11240372Y-12120174D01*
X11240372Y-12120174D02*
X11259420Y-12129698D01*
X11259420Y-12129698D02*
X11268944Y-12139222D01*
X11268944Y-12139222D02*
X11278467Y-12158269D01*
X11278467Y-12158269D02*
X11278467Y-12205888D01*
X11278467Y-12205888D02*
X11268944Y-12224936D01*
X11268944Y-12224936D02*
X11259420Y-12234460D01*
X11259420Y-12234460D02*
X11240372Y-12243984D01*
X11240372Y-12243984D02*
X11192753Y-12243984D01*
X11192753Y-12243984D02*
X11173706Y-12234460D01*
X11173706Y-12234460D02*
X11164182Y-12224936D01*
X11449896Y-12110650D02*
X11449896Y-12243984D01*
X11402277Y-12034460D02*
X11354658Y-12177317D01*
X11354658Y-12177317D02*
X11478467Y-12177317D01*
X11545134Y-12043984D02*
X11545134Y-12082079D01*
X11621325Y-12043984D02*
X11621325Y-12082079D01*
X11916563Y-12320174D02*
X11907039Y-12310650D01*
X11907039Y-12310650D02*
X11887991Y-12282079D01*
X11887991Y-12282079D02*
X11878468Y-12263031D01*
X11878468Y-12263031D02*
X11868944Y-12234460D01*
X11868944Y-12234460D02*
X11859420Y-12186841D01*
X11859420Y-12186841D02*
X11859420Y-12148746D01*
X11859420Y-12148746D02*
X11868944Y-12101127D01*
X11868944Y-12101127D02*
X11878468Y-12072555D01*
X11878468Y-12072555D02*
X11887991Y-12053508D01*
X11887991Y-12053508D02*
X11907039Y-12024936D01*
X11907039Y-12024936D02*
X11916563Y-12015412D01*
X11983229Y-12063031D02*
X11992753Y-12053508D01*
X11992753Y-12053508D02*
X12011801Y-12043984D01*
X12011801Y-12043984D02*
X12059420Y-12043984D01*
X12059420Y-12043984D02*
X12078468Y-12053508D01*
X12078468Y-12053508D02*
X12087991Y-12063031D01*
X12087991Y-12063031D02*
X12097515Y-12082079D01*
X12097515Y-12082079D02*
X12097515Y-12101127D01*
X12097515Y-12101127D02*
X12087991Y-12129698D01*
X12087991Y-12129698D02*
X11973706Y-12243984D01*
X11973706Y-12243984D02*
X12097515Y-12243984D01*
X12335610Y-12243984D02*
X12335610Y-12043984D01*
X12421325Y-12243984D02*
X12421325Y-12139222D01*
X12421325Y-12139222D02*
X12411801Y-12120174D01*
X12411801Y-12120174D02*
X12392753Y-12110650D01*
X12392753Y-12110650D02*
X12364182Y-12110650D01*
X12364182Y-12110650D02*
X12345134Y-12120174D01*
X12345134Y-12120174D02*
X12335610Y-12129698D01*
X12545134Y-12243984D02*
X12526087Y-12234460D01*
X12526087Y-12234460D02*
X12516563Y-12224936D01*
X12516563Y-12224936D02*
X12507039Y-12205888D01*
X12507039Y-12205888D02*
X12507039Y-12148746D01*
X12507039Y-12148746D02*
X12516563Y-12129698D01*
X12516563Y-12129698D02*
X12526087Y-12120174D01*
X12526087Y-12120174D02*
X12545134Y-12110650D01*
X12545134Y-12110650D02*
X12573706Y-12110650D01*
X12573706Y-12110650D02*
X12592753Y-12120174D01*
X12592753Y-12120174D02*
X12602277Y-12129698D01*
X12602277Y-12129698D02*
X12611801Y-12148746D01*
X12611801Y-12148746D02*
X12611801Y-12205888D01*
X12611801Y-12205888D02*
X12602277Y-12224936D01*
X12602277Y-12224936D02*
X12592753Y-12234460D01*
X12592753Y-12234460D02*
X12573706Y-12243984D01*
X12573706Y-12243984D02*
X12545134Y-12243984D01*
X12726087Y-12243984D02*
X12707039Y-12234460D01*
X12707039Y-12234460D02*
X12697515Y-12215412D01*
X12697515Y-12215412D02*
X12697515Y-12043984D01*
X12878468Y-12234460D02*
X12859420Y-12243984D01*
X12859420Y-12243984D02*
X12821325Y-12243984D01*
X12821325Y-12243984D02*
X12802277Y-12234460D01*
X12802277Y-12234460D02*
X12792753Y-12215412D01*
X12792753Y-12215412D02*
X12792753Y-12139222D01*
X12792753Y-12139222D02*
X12802277Y-12120174D01*
X12802277Y-12120174D02*
X12821325Y-12110650D01*
X12821325Y-12110650D02*
X12859420Y-12110650D01*
X12859420Y-12110650D02*
X12878468Y-12120174D01*
X12878468Y-12120174D02*
X12887991Y-12139222D01*
X12887991Y-12139222D02*
X12887991Y-12158269D01*
X12887991Y-12158269D02*
X12792753Y-12177317D01*
X12964182Y-12234460D02*
X12983230Y-12243984D01*
X12983230Y-12243984D02*
X13021325Y-12243984D01*
X13021325Y-12243984D02*
X13040372Y-12234460D01*
X13040372Y-12234460D02*
X13049896Y-12215412D01*
X13049896Y-12215412D02*
X13049896Y-12205888D01*
X13049896Y-12205888D02*
X13040372Y-12186841D01*
X13040372Y-12186841D02*
X13021325Y-12177317D01*
X13021325Y-12177317D02*
X12992753Y-12177317D01*
X12992753Y-12177317D02*
X12973706Y-12167793D01*
X12973706Y-12167793D02*
X12964182Y-12148746D01*
X12964182Y-12148746D02*
X12964182Y-12139222D01*
X12964182Y-12139222D02*
X12973706Y-12120174D01*
X12973706Y-12120174D02*
X12992753Y-12110650D01*
X12992753Y-12110650D02*
X13021325Y-12110650D01*
X13021325Y-12110650D02*
X13040372Y-12120174D01*
X13116563Y-12320174D02*
X13126087Y-12310650D01*
X13126087Y-12310650D02*
X13145134Y-12282079D01*
X13145134Y-12282079D02*
X13154658Y-12263031D01*
X13154658Y-12263031D02*
X13164182Y-12234460D01*
X13164182Y-12234460D02*
X13173706Y-12186841D01*
X13173706Y-12186841D02*
X13173706Y-12148746D01*
X13173706Y-12148746D02*
X13164182Y-12101127D01*
X13164182Y-12101127D02*
X13154658Y-12072555D01*
X13154658Y-12072555D02*
X13145134Y-12053508D01*
X13145134Y-12053508D02*
X13126087Y-12024936D01*
X13126087Y-12024936D02*
X13116563Y-12015412D01*
X13478468Y-12320174D02*
X13468944Y-12310650D01*
X13468944Y-12310650D02*
X13449896Y-12282079D01*
X13449896Y-12282079D02*
X13440372Y-12263031D01*
X13440372Y-12263031D02*
X13430849Y-12234460D01*
X13430849Y-12234460D02*
X13421325Y-12186841D01*
X13421325Y-12186841D02*
X13421325Y-12148746D01*
X13421325Y-12148746D02*
X13430849Y-12101127D01*
X13430849Y-12101127D02*
X13440372Y-12072555D01*
X13440372Y-12072555D02*
X13449896Y-12053508D01*
X13449896Y-12053508D02*
X13468944Y-12024936D01*
X13468944Y-12024936D02*
X13478468Y-12015412D01*
X13554658Y-12110650D02*
X13554658Y-12243984D01*
X13554658Y-12129698D02*
X13564182Y-12120174D01*
X13564182Y-12120174D02*
X13583230Y-12110650D01*
X13583230Y-12110650D02*
X13611801Y-12110650D01*
X13611801Y-12110650D02*
X13630849Y-12120174D01*
X13630849Y-12120174D02*
X13640372Y-12139222D01*
X13640372Y-12139222D02*
X13640372Y-12243984D01*
X13764182Y-12243984D02*
X13745134Y-12234460D01*
X13745134Y-12234460D02*
X13735611Y-12224936D01*
X13735611Y-12224936D02*
X13726087Y-12205888D01*
X13726087Y-12205888D02*
X13726087Y-12148746D01*
X13726087Y-12148746D02*
X13735611Y-12129698D01*
X13735611Y-12129698D02*
X13745134Y-12120174D01*
X13745134Y-12120174D02*
X13764182Y-12110650D01*
X13764182Y-12110650D02*
X13792753Y-12110650D01*
X13792753Y-12110650D02*
X13811801Y-12120174D01*
X13811801Y-12120174D02*
X13821325Y-12129698D01*
X13821325Y-12129698D02*
X13830849Y-12148746D01*
X13830849Y-12148746D02*
X13830849Y-12205888D01*
X13830849Y-12205888D02*
X13821325Y-12224936D01*
X13821325Y-12224936D02*
X13811801Y-12234460D01*
X13811801Y-12234460D02*
X13792753Y-12243984D01*
X13792753Y-12243984D02*
X13764182Y-12243984D01*
X13887992Y-12110650D02*
X13964182Y-12110650D01*
X13916563Y-12043984D02*
X13916563Y-12215412D01*
X13916563Y-12215412D02*
X13926087Y-12234460D01*
X13926087Y-12234460D02*
X13945134Y-12243984D01*
X13945134Y-12243984D02*
X13964182Y-12243984D01*
X14183230Y-12110650D02*
X14183230Y-12310650D01*
X14183230Y-12120174D02*
X14202277Y-12110650D01*
X14202277Y-12110650D02*
X14240373Y-12110650D01*
X14240373Y-12110650D02*
X14259420Y-12120174D01*
X14259420Y-12120174D02*
X14268944Y-12129698D01*
X14268944Y-12129698D02*
X14278468Y-12148746D01*
X14278468Y-12148746D02*
X14278468Y-12205888D01*
X14278468Y-12205888D02*
X14268944Y-12224936D01*
X14268944Y-12224936D02*
X14259420Y-12234460D01*
X14259420Y-12234460D02*
X14240373Y-12243984D01*
X14240373Y-12243984D02*
X14202277Y-12243984D01*
X14202277Y-12243984D02*
X14183230Y-12234460D01*
X14392753Y-12243984D02*
X14373706Y-12234460D01*
X14373706Y-12234460D02*
X14364182Y-12215412D01*
X14364182Y-12215412D02*
X14364182Y-12043984D01*
X14554658Y-12243984D02*
X14554658Y-12139222D01*
X14554658Y-12139222D02*
X14545134Y-12120174D01*
X14545134Y-12120174D02*
X14526087Y-12110650D01*
X14526087Y-12110650D02*
X14487992Y-12110650D01*
X14487992Y-12110650D02*
X14468944Y-12120174D01*
X14554658Y-12234460D02*
X14535611Y-12243984D01*
X14535611Y-12243984D02*
X14487992Y-12243984D01*
X14487992Y-12243984D02*
X14468944Y-12234460D01*
X14468944Y-12234460D02*
X14459420Y-12215412D01*
X14459420Y-12215412D02*
X14459420Y-12196365D01*
X14459420Y-12196365D02*
X14468944Y-12177317D01*
X14468944Y-12177317D02*
X14487992Y-12167793D01*
X14487992Y-12167793D02*
X14535611Y-12167793D01*
X14535611Y-12167793D02*
X14554658Y-12158269D01*
X14621325Y-12110650D02*
X14697515Y-12110650D01*
X14649896Y-12043984D02*
X14649896Y-12215412D01*
X14649896Y-12215412D02*
X14659420Y-12234460D01*
X14659420Y-12234460D02*
X14678468Y-12243984D01*
X14678468Y-12243984D02*
X14697515Y-12243984D01*
X14840373Y-12234460D02*
X14821325Y-12243984D01*
X14821325Y-12243984D02*
X14783230Y-12243984D01*
X14783230Y-12243984D02*
X14764182Y-12234460D01*
X14764182Y-12234460D02*
X14754658Y-12215412D01*
X14754658Y-12215412D02*
X14754658Y-12139222D01*
X14754658Y-12139222D02*
X14764182Y-12120174D01*
X14764182Y-12120174D02*
X14783230Y-12110650D01*
X14783230Y-12110650D02*
X14821325Y-12110650D01*
X14821325Y-12110650D02*
X14840373Y-12120174D01*
X14840373Y-12120174D02*
X14849896Y-12139222D01*
X14849896Y-12139222D02*
X14849896Y-12158269D01*
X14849896Y-12158269D02*
X14754658Y-12177317D01*
X15021325Y-12243984D02*
X15021325Y-12043984D01*
X15021325Y-12234460D02*
X15002277Y-12243984D01*
X15002277Y-12243984D02*
X14964182Y-12243984D01*
X14964182Y-12243984D02*
X14945134Y-12234460D01*
X14945134Y-12234460D02*
X14935611Y-12224936D01*
X14935611Y-12224936D02*
X14926087Y-12205888D01*
X14926087Y-12205888D02*
X14926087Y-12148746D01*
X14926087Y-12148746D02*
X14935611Y-12129698D01*
X14935611Y-12129698D02*
X14945134Y-12120174D01*
X14945134Y-12120174D02*
X14964182Y-12110650D01*
X14964182Y-12110650D02*
X15002277Y-12110650D01*
X15002277Y-12110650D02*
X15021325Y-12120174D01*
X15097515Y-12320174D02*
X15107039Y-12310650D01*
X15107039Y-12310650D02*
X15126087Y-12282079D01*
X15126087Y-12282079D02*
X15135611Y-12263031D01*
X15135611Y-12263031D02*
X15145134Y-12234460D01*
X15145134Y-12234460D02*
X15154658Y-12186841D01*
X15154658Y-12186841D02*
X15154658Y-12148746D01*
X15154658Y-12148746D02*
X15145134Y-12101127D01*
X15145134Y-12101127D02*
X15135611Y-12072555D01*
X15135611Y-12072555D02*
X15126087Y-12053508D01*
X15126087Y-12053508D02*
X15107039Y-12024936D01*
X15107039Y-12024936D02*
X15097515Y-12015412D01*
M02*
