%TF.GenerationSoftware,KiCad,Pcbnew,7.0.6*%
%TF.CreationDate,2023-09-18T21:36:18+08:00*%
%TF.ProjectId,UPS_Lite_Pi_Zero_Form,5550535f-4c69-4746-955f-50695f5a6572,rev?*%
%TF.SameCoordinates,Original*%
%TF.FileFunction,Legend,Bot*%
%TF.FilePolarity,Positive*%
%FSLAX46Y46*%
G04 Gerber Fmt 4.6, Leading zero omitted, Abs format (unit mm)*
G04 Created by KiCad (PCBNEW 7.0.6) date 2023-09-18 21:36:18*
%MOMM*%
%LPD*%
G01*
G04 APERTURE LIST*
%ADD10C,0.100000*%
%ADD11C,0.150000*%
%ADD12C,0.500000*%
G04 APERTURE END LIST*
D10*
X95937419Y-96017143D02*
X96746942Y-96017143D01*
X96746942Y-96017143D02*
X96842180Y-96064762D01*
X96842180Y-96064762D02*
X96889800Y-96112381D01*
X96889800Y-96112381D02*
X96937419Y-96207619D01*
X96937419Y-96207619D02*
X96937419Y-96398095D01*
X96937419Y-96398095D02*
X96889800Y-96493333D01*
X96889800Y-96493333D02*
X96842180Y-96540952D01*
X96842180Y-96540952D02*
X96746942Y-96588571D01*
X96746942Y-96588571D02*
X95937419Y-96588571D01*
X95937419Y-97207619D02*
X96175514Y-97207619D01*
X96080276Y-96969524D02*
X96175514Y-97207619D01*
X96175514Y-97207619D02*
X96080276Y-97445714D01*
X96365990Y-97064762D02*
X96175514Y-97207619D01*
X96175514Y-97207619D02*
X96365990Y-97350476D01*
X96937419Y-98350476D02*
X96937419Y-97779048D01*
X96937419Y-98064762D02*
X95937419Y-98064762D01*
X95937419Y-98064762D02*
X96080276Y-97969524D01*
X96080276Y-97969524D02*
X96175514Y-97874286D01*
X96175514Y-97874286D02*
X96223133Y-97779048D01*
D11*
X98053866Y-96898095D02*
X98006247Y-96945714D01*
X98006247Y-96945714D02*
X97958628Y-97040952D01*
X97958628Y-97040952D02*
X98053866Y-97231428D01*
X98053866Y-97231428D02*
X98006247Y-97326666D01*
X98006247Y-97326666D02*
X97958628Y-97374285D01*
D12*
%TO.C,U\u002A1*%
X103980000Y-85860000D02*
X89980000Y-85860000D01*
X103980000Y-85910000D02*
X103980000Y-108410000D01*
X89980000Y-85910000D02*
X89980000Y-108410000D01*
X103980000Y-108410000D02*
X89980000Y-108410000D01*
%TD*%
M02*
