%TF.GenerationSoftware,KiCad,Pcbnew,7.0.6*%
%TF.CreationDate,2023-09-18T21:36:18+08:00*%
%TF.ProjectId,UPS_Lite_Pi_Zero_Form,5550535f-4c69-4746-955f-50695f5a6572,rev?*%
%TF.SameCoordinates,Original*%
%TF.FileFunction,Copper,L1,Top*%
%TF.FilePolarity,Positive*%
%FSLAX46Y46*%
G04 Gerber Fmt 4.6, Leading zero omitted, Abs format (unit mm)*
G04 Created by KiCad (PCBNEW 7.0.6) date 2023-09-18 21:36:18*
%MOMM*%
%LPD*%
G01*
G04 APERTURE LIST*
G04 Aperture macros list*
%AMRoundRect*
0 Rectangle with rounded corners*
0 $1 Rounding radius*
0 $2 $3 $4 $5 $6 $7 $8 $9 X,Y pos of 4 corners*
0 Add a 4 corners polygon primitive as box body*
4,1,4,$2,$3,$4,$5,$6,$7,$8,$9,$2,$3,0*
0 Add four circle primitives for the rounded corners*
1,1,$1+$1,$2,$3*
1,1,$1+$1,$4,$5*
1,1,$1+$1,$6,$7*
1,1,$1+$1,$8,$9*
0 Add four rect primitives between the rounded corners*
20,1,$1+$1,$2,$3,$4,$5,0*
20,1,$1+$1,$4,$5,$6,$7,0*
20,1,$1+$1,$6,$7,$8,$9,0*
20,1,$1+$1,$8,$9,$2,$3,0*%
G04 Aperture macros list end*
%TA.AperFunction,EtchedComponent*%
%ADD10C,0.010000*%
%TD*%
%TA.AperFunction,SMDPad,CuDef*%
%ADD11RoundRect,0.237500X-0.250000X-0.237500X0.250000X-0.237500X0.250000X0.237500X-0.250000X0.237500X0*%
%TD*%
%TA.AperFunction,SMDPad,CuDef*%
%ADD12R,0.400000X1.560000*%
%TD*%
%TA.AperFunction,SMDPad,CuDef*%
%ADD13RoundRect,0.112500X0.187500X0.112500X-0.187500X0.112500X-0.187500X-0.112500X0.187500X-0.112500X0*%
%TD*%
%TA.AperFunction,SMDPad,CuDef*%
%ADD14RoundRect,0.237500X0.250000X0.237500X-0.250000X0.237500X-0.250000X-0.237500X0.250000X-0.237500X0*%
%TD*%
%TA.AperFunction,SMDPad,CuDef*%
%ADD15RoundRect,0.237500X0.237500X-0.300000X0.237500X0.300000X-0.237500X0.300000X-0.237500X-0.300000X0*%
%TD*%
%TA.AperFunction,ComponentPad*%
%ADD16RoundRect,0.250000X-0.600000X-0.750000X0.600000X-0.750000X0.600000X0.750000X-0.600000X0.750000X0*%
%TD*%
%TA.AperFunction,ComponentPad*%
%ADD17O,1.700000X2.000000*%
%TD*%
%TA.AperFunction,SMDPad,CuDef*%
%ADD18R,1.750000X0.400000*%
%TD*%
%TA.AperFunction,ComponentPad*%
%ADD19O,1.460000X0.730000*%
%TD*%
%TA.AperFunction,ComponentPad*%
%ADD20O,2.400000X1.200000*%
%TD*%
%TA.AperFunction,SMDPad,CuDef*%
%ADD21R,2.500000X1.425000*%
%TD*%
%TA.AperFunction,SMDPad,CuDef*%
%ADD22RoundRect,0.237500X-0.237500X0.250000X-0.237500X-0.250000X0.237500X-0.250000X0.237500X0.250000X0*%
%TD*%
%TA.AperFunction,SMDPad,CuDef*%
%ADD23R,1.200000X0.550000*%
%TD*%
%TA.AperFunction,SMDPad,CuDef*%
%ADD24RoundRect,0.250000X0.425000X-0.450000X0.425000X0.450000X-0.425000X0.450000X-0.425000X-0.450000X0*%
%TD*%
%TA.AperFunction,ComponentPad*%
%ADD25C,3.500000*%
%TD*%
%TA.AperFunction,SMDPad,CuDef*%
%ADD26RoundRect,0.237500X-0.287500X-0.237500X0.287500X-0.237500X0.287500X0.237500X-0.287500X0.237500X0*%
%TD*%
%TA.AperFunction,ComponentPad*%
%ADD27O,2.000000X1.700000*%
%TD*%
%TA.AperFunction,ComponentPad*%
%ADD28RoundRect,0.250000X0.750000X-0.600000X0.750000X0.600000X-0.750000X0.600000X-0.750000X-0.600000X0*%
%TD*%
%TA.AperFunction,SMDPad,CuDef*%
%ADD29RoundRect,0.250000X-0.425000X-1.075000X0.425000X-1.075000X0.425000X1.075000X-0.425000X1.075000X0*%
%TD*%
%TA.AperFunction,SMDPad,CuDef*%
%ADD30R,0.700000X1.500000*%
%TD*%
%TA.AperFunction,SMDPad,CuDef*%
%ADD31R,1.000000X0.800000*%
%TD*%
%TA.AperFunction,SMDPad,CuDef*%
%ADD32R,0.700000X1.300000*%
%TD*%
%TA.AperFunction,ComponentPad*%
%ADD33R,3.524000X3.524000*%
%TD*%
%TA.AperFunction,ViaPad*%
%ADD34C,0.800000*%
%TD*%
%TA.AperFunction,ViaPad*%
%ADD35C,0.700000*%
%TD*%
%TA.AperFunction,Conductor*%
%ADD36C,1.000000*%
%TD*%
%TA.AperFunction,Conductor*%
%ADD37C,1.500000*%
%TD*%
%TA.AperFunction,Conductor*%
%ADD38C,0.500000*%
%TD*%
%TA.AperFunction,Conductor*%
%ADD39C,0.300000*%
%TD*%
%TA.AperFunction,Conductor*%
%ADD40C,0.800000*%
%TD*%
G04 APERTURE END LIST*
%TO.C,J3*%
D10*
X88745000Y-102490000D02*
X87285000Y-102490000D01*
X87285000Y-100490000D01*
X88745000Y-100490000D01*
X88745000Y-102490000D01*
%TA.AperFunction,EtchedComponent*%
G36*
X88745000Y-102490000D02*
G01*
X87285000Y-102490000D01*
X87285000Y-100490000D01*
X88745000Y-100490000D01*
X88745000Y-102490000D01*
G37*
%TD.AperFunction*%
X88745000Y-108290000D02*
X87285000Y-108290000D01*
X87285000Y-106290000D01*
X88745000Y-106290000D01*
X88745000Y-108290000D01*
%TA.AperFunction,EtchedComponent*%
G36*
X88745000Y-108290000D02*
G01*
X87285000Y-108290000D01*
X87285000Y-106290000D01*
X88745000Y-106290000D01*
X88745000Y-108290000D01*
G37*
%TD.AperFunction*%
X87035000Y-102315000D02*
X84185000Y-102315000D01*
X84164000Y-102314000D01*
X84143000Y-102313000D01*
X84122000Y-102310000D01*
X84102000Y-102306000D01*
X84081000Y-102301000D01*
X84061000Y-102295000D01*
X84042000Y-102288000D01*
X84022000Y-102280000D01*
X84003000Y-102271000D01*
X83985000Y-102261000D01*
X83967000Y-102250000D01*
X83950000Y-102239000D01*
X83933000Y-102226000D01*
X83917000Y-102212000D01*
X83902000Y-102198000D01*
X83888000Y-102183000D01*
X83874000Y-102167000D01*
X83861000Y-102150000D01*
X83850000Y-102133000D01*
X83839000Y-102115000D01*
X83829000Y-102097000D01*
X83820000Y-102078000D01*
X83812000Y-102058000D01*
X83805000Y-102039000D01*
X83799000Y-102019000D01*
X83794000Y-101998000D01*
X83790000Y-101978000D01*
X83787000Y-101957000D01*
X83786000Y-101936000D01*
X83785000Y-101915000D01*
X83785000Y-101415000D01*
X83786000Y-101394000D01*
X83787000Y-101373000D01*
X83790000Y-101352000D01*
X83794000Y-101332000D01*
X83799000Y-101311000D01*
X83805000Y-101291000D01*
X83812000Y-101272000D01*
X83820000Y-101252000D01*
X83829000Y-101233000D01*
X83839000Y-101215000D01*
X83850000Y-101197000D01*
X83861000Y-101180000D01*
X83874000Y-101163000D01*
X83888000Y-101147000D01*
X83902000Y-101132000D01*
X83917000Y-101118000D01*
X83933000Y-101104000D01*
X83950000Y-101091000D01*
X83967000Y-101080000D01*
X83985000Y-101069000D01*
X84003000Y-101059000D01*
X84022000Y-101050000D01*
X84042000Y-101042000D01*
X84061000Y-101035000D01*
X84081000Y-101029000D01*
X84102000Y-101024000D01*
X84122000Y-101020000D01*
X84143000Y-101017000D01*
X84164000Y-101016000D01*
X84185000Y-101015000D01*
X86335000Y-101015000D01*
X86335000Y-100490000D01*
X87035000Y-100490000D01*
X87035000Y-102315000D01*
%TA.AperFunction,EtchedComponent*%
G36*
X87035000Y-102315000D02*
G01*
X84185000Y-102315000D01*
X84164000Y-102314000D01*
X84143000Y-102313000D01*
X84122000Y-102310000D01*
X84102000Y-102306000D01*
X84081000Y-102301000D01*
X84061000Y-102295000D01*
X84042000Y-102288000D01*
X84022000Y-102280000D01*
X84003000Y-102271000D01*
X83985000Y-102261000D01*
X83967000Y-102250000D01*
X83950000Y-102239000D01*
X83933000Y-102226000D01*
X83917000Y-102212000D01*
X83902000Y-102198000D01*
X83888000Y-102183000D01*
X83874000Y-102167000D01*
X83861000Y-102150000D01*
X83850000Y-102133000D01*
X83839000Y-102115000D01*
X83829000Y-102097000D01*
X83820000Y-102078000D01*
X83812000Y-102058000D01*
X83805000Y-102039000D01*
X83799000Y-102019000D01*
X83794000Y-101998000D01*
X83790000Y-101978000D01*
X83787000Y-101957000D01*
X83786000Y-101936000D01*
X83785000Y-101915000D01*
X83785000Y-101415000D01*
X83786000Y-101394000D01*
X83787000Y-101373000D01*
X83790000Y-101352000D01*
X83794000Y-101332000D01*
X83799000Y-101311000D01*
X83805000Y-101291000D01*
X83812000Y-101272000D01*
X83820000Y-101252000D01*
X83829000Y-101233000D01*
X83839000Y-101215000D01*
X83850000Y-101197000D01*
X83861000Y-101180000D01*
X83874000Y-101163000D01*
X83888000Y-101147000D01*
X83902000Y-101132000D01*
X83917000Y-101118000D01*
X83933000Y-101104000D01*
X83950000Y-101091000D01*
X83967000Y-101080000D01*
X83985000Y-101069000D01*
X84003000Y-101059000D01*
X84022000Y-101050000D01*
X84042000Y-101042000D01*
X84061000Y-101035000D01*
X84081000Y-101029000D01*
X84102000Y-101024000D01*
X84122000Y-101020000D01*
X84143000Y-101017000D01*
X84164000Y-101016000D01*
X84185000Y-101015000D01*
X86335000Y-101015000D01*
X86335000Y-100490000D01*
X87035000Y-100490000D01*
X87035000Y-102315000D01*
G37*
%TD.AperFunction*%
X87035000Y-108290000D02*
X86335000Y-108290000D01*
X86335000Y-107765000D01*
X84185000Y-107765000D01*
X84164000Y-107764000D01*
X84143000Y-107763000D01*
X84122000Y-107760000D01*
X84102000Y-107756000D01*
X84081000Y-107751000D01*
X84061000Y-107745000D01*
X84042000Y-107738000D01*
X84022000Y-107730000D01*
X84003000Y-107721000D01*
X83985000Y-107711000D01*
X83967000Y-107700000D01*
X83950000Y-107689000D01*
X83933000Y-107676000D01*
X83917000Y-107662000D01*
X83902000Y-107648000D01*
X83888000Y-107633000D01*
X83874000Y-107617000D01*
X83861000Y-107600000D01*
X83850000Y-107583000D01*
X83839000Y-107565000D01*
X83829000Y-107547000D01*
X83820000Y-107528000D01*
X83812000Y-107508000D01*
X83805000Y-107489000D01*
X83799000Y-107469000D01*
X83794000Y-107448000D01*
X83790000Y-107428000D01*
X83787000Y-107407000D01*
X83786000Y-107386000D01*
X83785000Y-107365000D01*
X83785000Y-106865000D01*
X83786000Y-106844000D01*
X83787000Y-106823000D01*
X83790000Y-106802000D01*
X83794000Y-106782000D01*
X83799000Y-106761000D01*
X83805000Y-106741000D01*
X83812000Y-106722000D01*
X83820000Y-106702000D01*
X83829000Y-106683000D01*
X83839000Y-106665000D01*
X83850000Y-106647000D01*
X83861000Y-106630000D01*
X83874000Y-106613000D01*
X83888000Y-106597000D01*
X83902000Y-106582000D01*
X83917000Y-106568000D01*
X83933000Y-106554000D01*
X83950000Y-106541000D01*
X83967000Y-106530000D01*
X83985000Y-106519000D01*
X84003000Y-106509000D01*
X84022000Y-106500000D01*
X84042000Y-106492000D01*
X84061000Y-106485000D01*
X84081000Y-106479000D01*
X84102000Y-106474000D01*
X84122000Y-106470000D01*
X84143000Y-106467000D01*
X84164000Y-106466000D01*
X84185000Y-106465000D01*
X87035000Y-106465000D01*
X87035000Y-108290000D01*
%TA.AperFunction,EtchedComponent*%
G36*
X87035000Y-108290000D02*
G01*
X86335000Y-108290000D01*
X86335000Y-107765000D01*
X84185000Y-107765000D01*
X84164000Y-107764000D01*
X84143000Y-107763000D01*
X84122000Y-107760000D01*
X84102000Y-107756000D01*
X84081000Y-107751000D01*
X84061000Y-107745000D01*
X84042000Y-107738000D01*
X84022000Y-107730000D01*
X84003000Y-107721000D01*
X83985000Y-107711000D01*
X83967000Y-107700000D01*
X83950000Y-107689000D01*
X83933000Y-107676000D01*
X83917000Y-107662000D01*
X83902000Y-107648000D01*
X83888000Y-107633000D01*
X83874000Y-107617000D01*
X83861000Y-107600000D01*
X83850000Y-107583000D01*
X83839000Y-107565000D01*
X83829000Y-107547000D01*
X83820000Y-107528000D01*
X83812000Y-107508000D01*
X83805000Y-107489000D01*
X83799000Y-107469000D01*
X83794000Y-107448000D01*
X83790000Y-107428000D01*
X83787000Y-107407000D01*
X83786000Y-107386000D01*
X83785000Y-107365000D01*
X83785000Y-106865000D01*
X83786000Y-106844000D01*
X83787000Y-106823000D01*
X83790000Y-106802000D01*
X83794000Y-106782000D01*
X83799000Y-106761000D01*
X83805000Y-106741000D01*
X83812000Y-106722000D01*
X83820000Y-106702000D01*
X83829000Y-106683000D01*
X83839000Y-106665000D01*
X83850000Y-106647000D01*
X83861000Y-106630000D01*
X83874000Y-106613000D01*
X83888000Y-106597000D01*
X83902000Y-106582000D01*
X83917000Y-106568000D01*
X83933000Y-106554000D01*
X83950000Y-106541000D01*
X83967000Y-106530000D01*
X83985000Y-106519000D01*
X84003000Y-106509000D01*
X84022000Y-106500000D01*
X84042000Y-106492000D01*
X84061000Y-106485000D01*
X84081000Y-106479000D01*
X84102000Y-106474000D01*
X84122000Y-106470000D01*
X84143000Y-106467000D01*
X84164000Y-106466000D01*
X84185000Y-106465000D01*
X87035000Y-106465000D01*
X87035000Y-108290000D01*
G37*
%TD.AperFunction*%
%TO.C,IC1*%
X97160370Y-101970260D02*
X93760000Y-101970260D01*
X93760000Y-99570000D01*
X97160370Y-99570000D01*
X97160370Y-101970260D01*
%TA.AperFunction,EtchedComponent*%
G36*
X97160370Y-101970260D02*
G01*
X93760000Y-101970260D01*
X93760000Y-99570000D01*
X97160370Y-99570000D01*
X97160370Y-101970260D01*
G37*
%TD.AperFunction*%
%TD*%
D11*
%TO.P,R3,1*%
%TO.N,GND*%
X90345000Y-103570000D03*
%TO.P,R3,2*%
%TO.N,Net-(IC1-PROG)*%
X92170000Y-103570000D03*
%TD*%
D12*
%TO.P,Q1,1*%
%TO.N,Net-(Q1-Pad1)*%
X100905000Y-97852500D03*
%TO.P,Q1,2*%
%TO.N,/BATT-*%
X100255000Y-97852500D03*
%TO.P,Q1,3*%
X99605000Y-97852500D03*
%TO.P,Q1,4*%
%TO.N,/OD*%
X98955000Y-97852500D03*
%TO.P,Q1,5*%
%TO.N,/OC*%
X98955000Y-103612500D03*
%TO.P,Q1,6*%
%TO.N,GND*%
X99605000Y-103612500D03*
%TO.P,Q1,7*%
X100255000Y-103612500D03*
%TO.P,Q1,8*%
%TO.N,Net-(Q1-Pad1)*%
X100905000Y-103612500D03*
%TD*%
D13*
%TO.P,D3,1,K*%
%TO.N,/BATT_VIN*%
X92310000Y-101770000D03*
%TO.P,D3,2,A*%
%TO.N,Net-(D3-A)*%
X90210000Y-101770000D03*
%TD*%
D14*
%TO.P,R1,1*%
%TO.N,Net-(IC1-CHRG)*%
X92220000Y-96330000D03*
%TO.P,R1,2*%
%TO.N,Net-(D1-K)*%
X90395000Y-96330000D03*
%TD*%
%TO.P,R2,1*%
%TO.N,Net-(IC1-STDBY)*%
X95682500Y-96310000D03*
%TO.P,R2,2*%
%TO.N,Net-(D2-K)*%
X93857500Y-96310000D03*
%TD*%
D15*
%TO.P,C1,1*%
%TO.N,/BATT_VIN*%
X90350000Y-94742500D03*
%TO.P,C1,2*%
%TO.N,GND*%
X90350000Y-93017500D03*
%TD*%
%TO.P,C3,1*%
%TO.N,/BATT+*%
X97280000Y-96242500D03*
%TO.P,C3,2*%
%TO.N,GND*%
X97280000Y-94517500D03*
%TD*%
D16*
%TO.P,J4,1,Pin_1*%
%TO.N,Net-(J4-Pin_1)*%
X102000000Y-112400000D03*
D17*
%TO.P,J4,2,Pin_2*%
%TO.N,/5V_3A*%
X104500000Y-112400000D03*
%TD*%
D18*
%TO.P,J3,1,VCC*%
%TO.N,Net-(D3-A)*%
X87810000Y-103090000D03*
%TO.P,J3,2,D-*%
%TO.N,unconnected-(J3-D--Pad2)*%
X87810000Y-103740000D03*
%TO.P,J3,3,D+*%
%TO.N,unconnected-(J3-D+-Pad3)*%
X87810000Y-104390000D03*
%TO.P,J3,4,ID*%
%TO.N,unconnected-(J3-ID-Pad4)*%
X87810000Y-105040000D03*
%TO.P,J3,5,GND*%
%TO.N,GND*%
X87810000Y-105690000D03*
D19*
%TO.P,J3,6,SHIELD*%
X88015000Y-101965000D03*
%TO.P,J3,7,SHIELD*%
X88015000Y-106815000D03*
D20*
%TO.P,J3,8,SHIELD*%
X84985000Y-101665000D03*
%TO.P,J3,9,SHIELD*%
X84985000Y-107115000D03*
D21*
%TO.P,J3,S1,SHIELD*%
X84735000Y-103427500D03*
%TO.P,J3,S2,SHIELD*%
X84735000Y-105352500D03*
%TD*%
D22*
%TO.P,R4,1*%
%TO.N,/CS*%
X94100000Y-91180000D03*
%TO.P,R4,2*%
%TO.N,GND*%
X94100000Y-93005000D03*
%TD*%
D23*
%TO.P,IC2,1,OD*%
%TO.N,/OD*%
X95860000Y-90850000D03*
%TO.P,IC2,2,CS*%
%TO.N,/CS*%
X95860000Y-91800000D03*
%TO.P,IC2,3,OC*%
%TO.N,/OC*%
X95860000Y-92750000D03*
%TO.P,IC2,4,TD*%
%TO.N,unconnected-(IC2-TD-Pad4)*%
X98460000Y-92750000D03*
%TO.P,IC2,5,VCC*%
%TO.N,/BATT_SAVE*%
X98460000Y-91800000D03*
%TO.P,IC2,6,GND*%
%TO.N,/BATT-*%
X98460000Y-90850000D03*
%TD*%
D24*
%TO.P,C6,1*%
%TO.N,/BATT_VIN*%
X92200000Y-94567500D03*
%TO.P,C6,2*%
%TO.N,GND*%
X92200000Y-91867500D03*
%TD*%
D15*
%TO.P,C2,1*%
%TO.N,/BATT_SAVE*%
X100850000Y-93812500D03*
%TO.P,C2,2*%
%TO.N,/BATT-*%
X100850000Y-92087500D03*
%TD*%
D25*
%TO.P,REF\u002A\u002A,*%
%TO.N,*%
X86940000Y-88600000D03*
X86940000Y-111600000D03*
X144940000Y-88600000D03*
X144940000Y-111600000D03*
%TD*%
D26*
%TO.P,D1,1,K*%
%TO.N,Net-(D1-K)*%
X90447500Y-97920000D03*
%TO.P,D1,2,A*%
%TO.N,/BATT_VIN*%
X92197500Y-97920000D03*
%TD*%
D22*
%TO.P,R5,1*%
%TO.N,/BATT_SAVE*%
X98850000Y-94047500D03*
%TO.P,R5,2*%
%TO.N,/BATT+*%
X98850000Y-95872500D03*
%TD*%
D27*
%TO.P,J2,2,Pin_2*%
%TO.N,/BATT+*%
X103900000Y-95400000D03*
D28*
%TO.P,J2,1,Pin_1*%
%TO.N,/BATT-*%
X103900000Y-97900000D03*
%TD*%
%TO.P,J1,1,Pin_1*%
%TO.N,/BATT_VIN*%
X87560000Y-96540000D03*
D27*
%TO.P,J1,2,Pin_2*%
%TO.N,GND*%
X87560000Y-94040000D03*
%TD*%
D29*
%TO.P,F1,1*%
%TO.N,Net-(F1-Pad1)*%
X94720000Y-107120000D03*
%TO.P,F1,2*%
%TO.N,/5V_3A*%
X99220000Y-107120000D03*
%TD*%
D26*
%TO.P,D2,1,K*%
%TO.N,Net-(D2-K)*%
X93937500Y-94670000D03*
%TO.P,D2,2,A*%
%TO.N,/BATT_VIN*%
X95687500Y-94670000D03*
%TD*%
D30*
%TO.P,S1,1*%
%TO.N,unconnected-(S1-Pad1)*%
X92190000Y-111870000D03*
%TO.P,S1,2*%
%TO.N,Net-(U\u002A1-OUT+)*%
X95190000Y-111870000D03*
%TO.P,S1,3*%
%TO.N,Net-(F1-Pad1)*%
X96690000Y-111870000D03*
D31*
%TO.P,S1,S1*%
%TO.N,N/C*%
X90790000Y-112570000D03*
%TO.P,S1,S2*%
X90790000Y-114670000D03*
%TO.P,S1,S3*%
X98090000Y-114670000D03*
%TO.P,S1,S4*%
X98090000Y-112570000D03*
%TD*%
D15*
%TO.P,C5,1*%
%TO.N,/5V_3A*%
X104820000Y-109332500D03*
%TO.P,C5,2*%
%TO.N,Net-(J4-Pin_1)*%
X104820000Y-107607500D03*
%TD*%
D24*
%TO.P,C4,1*%
%TO.N,/5V_3A*%
X106670000Y-109147500D03*
%TO.P,C4,2*%
%TO.N,Net-(J4-Pin_1)*%
X106670000Y-106447500D03*
%TD*%
D32*
%TO.P,IC1,1,TEMP*%
%TO.N,GND*%
X93555000Y-103520000D03*
%TO.P,IC1,2,PROG*%
%TO.N,Net-(IC1-PROG)*%
X94825000Y-103520000D03*
%TO.P,IC1,3,GND*%
%TO.N,GND*%
X96095000Y-103520000D03*
%TO.P,IC1,4,VCC*%
%TO.N,/BATT_VIN*%
X97365000Y-103520000D03*
%TO.P,IC1,5,BAT*%
%TO.N,/BATT+*%
X97365000Y-98020000D03*
%TO.P,IC1,6,STDBY*%
%TO.N,Net-(IC1-STDBY)*%
X96095000Y-98020000D03*
%TO.P,IC1,7,CHRG*%
%TO.N,Net-(IC1-CHRG)*%
X94825000Y-98020000D03*
%TO.P,IC1,8,CE*%
%TO.N,/BATT_VIN*%
X93555000Y-98020000D03*
%TD*%
D33*
%TO.P,U\u002A1,1,IN+*%
%TO.N,/BATT+*%
X91780000Y-87660000D03*
%TO.P,U\u002A1,2,IN-*%
%TO.N,GND*%
X102180000Y-87660000D03*
%TO.P,U\u002A1,3,OUT+*%
%TO.N,Net-(U\u002A1-OUT+)*%
X91780000Y-106660000D03*
%TO.P,U\u002A1,4,OUT-*%
%TO.N,Net-(J4-Pin_1)*%
X102180000Y-106760000D03*
%TD*%
D34*
%TO.N,/BATT-*%
X99950000Y-97450000D03*
X99950000Y-98200000D03*
D35*
%TO.N,/BATT_VIN*%
X91890000Y-94250000D03*
X92190000Y-101680000D03*
X92200000Y-100630000D03*
X97400000Y-103150000D03*
X92200000Y-97970000D03*
X92440000Y-94860000D03*
X92200000Y-99740000D03*
X95730000Y-94640000D03*
X92210000Y-98850000D03*
X97400000Y-103800000D03*
%TO.N,GND*%
X99950000Y-104000000D03*
X96250000Y-88250000D03*
X108400000Y-87300000D03*
X96950000Y-88250000D03*
X110350000Y-114050000D03*
X111750000Y-112500000D03*
X101900000Y-103550000D03*
X89400000Y-90600000D03*
X96250000Y-87500000D03*
X88700000Y-91450000D03*
X89400000Y-91450000D03*
X106300000Y-86500000D03*
X96550000Y-104950000D03*
X97650000Y-88250000D03*
X96950000Y-87500000D03*
X84150000Y-95300000D03*
X106300000Y-88050000D03*
X90900000Y-99850000D03*
X108250000Y-114050000D03*
X110350000Y-112500000D03*
X95550000Y-87500000D03*
X87300000Y-91450000D03*
X107000000Y-88050000D03*
X108250000Y-112500000D03*
X111750000Y-113300000D03*
X109100000Y-86500000D03*
X84850000Y-94500000D03*
X85550000Y-94500000D03*
X110350000Y-113300000D03*
X109100000Y-88050000D03*
X84850000Y-96050000D03*
X101900000Y-102800000D03*
X96250000Y-86700000D03*
X95150000Y-104950000D03*
X97650000Y-87500000D03*
X88000000Y-91450000D03*
X108250000Y-113300000D03*
X107000000Y-87300000D03*
X98350000Y-87500000D03*
X99950000Y-103300000D03*
X111050000Y-113300000D03*
X101900000Y-102000000D03*
X106300000Y-87300000D03*
X111050000Y-114050000D03*
X97250000Y-104950000D03*
X84850000Y-95300000D03*
X96100000Y-103200000D03*
X90200000Y-99100000D03*
X95850000Y-104950000D03*
X98350000Y-86700000D03*
X94450000Y-104950000D03*
X107700000Y-88050000D03*
X88700000Y-90600000D03*
X85550000Y-95300000D03*
X98350000Y-88250000D03*
X107700000Y-87300000D03*
X108950000Y-113300000D03*
X108950000Y-114050000D03*
X101900000Y-101250000D03*
X101900000Y-100500000D03*
X90900000Y-99100000D03*
X109650000Y-112500000D03*
X107000000Y-86500000D03*
X109650000Y-114050000D03*
X109650000Y-113300000D03*
X97650000Y-86700000D03*
X85550000Y-96050000D03*
X95550000Y-88250000D03*
X84150000Y-94500000D03*
X108400000Y-86500000D03*
X90200000Y-99850000D03*
X96950000Y-86700000D03*
X108950000Y-112500000D03*
X97950000Y-104950000D03*
X109100000Y-87300000D03*
X84150000Y-96050000D03*
X95550000Y-86700000D03*
X96100000Y-103900000D03*
X107700000Y-86500000D03*
X101900000Y-99700000D03*
X108400000Y-88050000D03*
X111050000Y-112500000D03*
X111750000Y-114050000D03*
%TO.N,/BATT+*%
X97365000Y-98020000D03*
%TO.N,Net-(IC1-PROG)*%
X94825000Y-103520000D03*
X92200000Y-103600000D03*
%TO.N,Net-(IC1-CHRG)*%
X94770000Y-97490000D03*
X92380000Y-96570000D03*
%TO.N,/OD*%
X95860000Y-90850000D03*
X99250000Y-99400000D03*
%TO.N,/OC*%
X99150000Y-101100000D03*
X97150000Y-92250000D03*
%TD*%
D36*
%TO.N,Net-(J4-Pin_1)*%
X106357500Y-106760000D02*
X106670000Y-106447500D01*
X102180000Y-106760000D02*
X106357500Y-106760000D01*
%TO.N,/5V_3A*%
X106485000Y-109332500D02*
X106670000Y-109147500D01*
X104820000Y-109332500D02*
X106485000Y-109332500D01*
D37*
X104100000Y-109900000D02*
X104500000Y-110300000D01*
X100000000Y-109900000D02*
X104100000Y-109900000D01*
X99220000Y-109120000D02*
X100000000Y-109900000D01*
X104500000Y-110300000D02*
X104500000Y-112400000D01*
X99220000Y-107120000D02*
X99220000Y-109120000D01*
D36*
%TO.N,/BATT-*%
X105787500Y-92087500D02*
X100850000Y-92087500D01*
D38*
X100850000Y-91700000D02*
X100850000Y-92087500D01*
X100000000Y-90850000D02*
X100850000Y-91700000D01*
D39*
%TO.N,/BATT_SAVE*%
X98460000Y-91800000D02*
X99350000Y-91800000D01*
D38*
X99750000Y-94047500D02*
X100615000Y-94047500D01*
X98850000Y-94047500D02*
X99750000Y-94047500D01*
D39*
X99350000Y-91800000D02*
X99750000Y-92200000D01*
X99750000Y-92200000D02*
X99750000Y-94047500D01*
D38*
X100615000Y-94047500D02*
X100850000Y-93812500D01*
%TO.N,/BATT-*%
X98460000Y-90850000D02*
X100000000Y-90850000D01*
D36*
X107200000Y-97050000D02*
X107200000Y-93500000D01*
X107200000Y-93500000D02*
X105787500Y-92087500D01*
X106350000Y-97900000D02*
X107200000Y-97050000D01*
X103900000Y-97900000D02*
X106350000Y-97900000D01*
%TO.N,/BATT+*%
X103427500Y-95872500D02*
X103900000Y-95400000D01*
X98850000Y-95872500D02*
X103427500Y-95872500D01*
D40*
%TO.N,/BATT_VIN*%
X87950000Y-96540000D02*
X89747500Y-94742500D01*
X87560000Y-96540000D02*
X87950000Y-96540000D01*
X89747500Y-94742500D02*
X90350000Y-94742500D01*
X92200000Y-94567500D02*
X90525000Y-94567500D01*
X92297500Y-98020000D02*
X92197500Y-97920000D01*
X92190000Y-101680000D02*
X92190000Y-97980000D01*
X93555000Y-98020000D02*
X92297500Y-98020000D01*
X90525000Y-94567500D02*
X90350000Y-94742500D01*
X92190000Y-97980000D02*
X92200000Y-97970000D01*
D39*
%TO.N,GND*%
X99955000Y-103680000D02*
X99955000Y-103695000D01*
X95930000Y-86695000D02*
X95945000Y-86695000D01*
X110030000Y-112495000D02*
X110045000Y-112495000D01*
X97330000Y-88245000D02*
X97345000Y-88245000D01*
X85245000Y-95295000D02*
X85250000Y-95300000D01*
X111445000Y-114045000D02*
X111450000Y-114050000D01*
X89080000Y-91445000D02*
X89095000Y-91445000D01*
X110030000Y-113295000D02*
X110045000Y-113295000D01*
X90580000Y-99095000D02*
X90595000Y-99095000D01*
X111445000Y-113295000D02*
X111450000Y-113300000D01*
X108630000Y-113295000D02*
X108645000Y-113295000D01*
X111430000Y-113295000D02*
X111445000Y-113295000D01*
X106695000Y-86495000D02*
X106700000Y-86500000D01*
X83830000Y-96045000D02*
X83845000Y-96045000D01*
X89350000Y-104565000D02*
X90345000Y-103570000D01*
X96155000Y-104955000D02*
X96150000Y-104950000D01*
X95945000Y-87495000D02*
X95950000Y-87500000D01*
X95945000Y-88245000D02*
X95950000Y-88250000D01*
X97345000Y-87495000D02*
X97350000Y-87500000D01*
X111430000Y-114045000D02*
X111445000Y-114045000D01*
X85230000Y-94495000D02*
X85245000Y-94495000D01*
X96095000Y-103520000D02*
X96095000Y-103505000D01*
X108095000Y-88045000D02*
X108100000Y-88050000D01*
X97570000Y-104955000D02*
X97555000Y-104955000D01*
X97330000Y-87495000D02*
X97345000Y-87495000D01*
X110045000Y-112495000D02*
X110050000Y-112500000D01*
X83845000Y-95295000D02*
X83850000Y-95300000D01*
X87810000Y-105690000D02*
X89110000Y-105690000D01*
X108095000Y-86495000D02*
X108100000Y-86500000D01*
X95930000Y-87495000D02*
X95945000Y-87495000D01*
X108630000Y-114045000D02*
X108645000Y-114045000D01*
X85245000Y-94495000D02*
X85250000Y-94500000D01*
X108645000Y-113295000D02*
X108650000Y-113300000D01*
X96170000Y-104955000D02*
X96155000Y-104955000D01*
X87695000Y-91445000D02*
X87700000Y-91450000D01*
X85245000Y-96045000D02*
X85250000Y-96050000D01*
X96095000Y-103505000D02*
X96100000Y-103500000D01*
X87680000Y-91445000D02*
X87695000Y-91445000D01*
X89350000Y-105450000D02*
X89350000Y-104565000D01*
X97345000Y-86695000D02*
X97350000Y-86700000D01*
X95945000Y-86695000D02*
X95950000Y-86700000D01*
X106680000Y-86495000D02*
X106695000Y-86495000D01*
X90580000Y-99845000D02*
X90595000Y-99845000D01*
X106680000Y-88045000D02*
X106695000Y-88045000D01*
X111430000Y-112495000D02*
X111445000Y-112495000D01*
X108645000Y-112495000D02*
X108650000Y-112500000D01*
X85072500Y-105690000D02*
X84735000Y-105352500D01*
X85230000Y-95295000D02*
X85245000Y-95295000D01*
X99955000Y-103695000D02*
X99950000Y-103700000D01*
X90595000Y-99095000D02*
X90600000Y-99100000D01*
X111445000Y-112495000D02*
X111450000Y-112500000D01*
X89095000Y-90595000D02*
X89100000Y-90600000D01*
X100255000Y-103612500D02*
X99605000Y-103612500D01*
X108080000Y-87295000D02*
X108095000Y-87295000D01*
X87810000Y-105690000D02*
X85072500Y-105690000D01*
D40*
X88582500Y-93017500D02*
X90350000Y-93017500D01*
D39*
X108630000Y-112495000D02*
X108645000Y-112495000D01*
X97330000Y-86695000D02*
X97345000Y-86695000D01*
X89080000Y-90595000D02*
X89095000Y-90595000D01*
D40*
X87560000Y-94040000D02*
X88582500Y-93017500D01*
D39*
X89095000Y-91445000D02*
X89100000Y-91450000D01*
X94770000Y-104955000D02*
X94755000Y-104955000D01*
X108095000Y-87295000D02*
X108100000Y-87300000D01*
X90595000Y-99845000D02*
X90600000Y-99850000D01*
X97345000Y-88245000D02*
X97350000Y-88250000D01*
X89110000Y-105690000D02*
X89350000Y-105450000D01*
X95930000Y-88245000D02*
X95945000Y-88245000D01*
X108080000Y-88045000D02*
X108095000Y-88045000D01*
X83845000Y-96045000D02*
X83850000Y-96050000D01*
X110045000Y-113295000D02*
X110050000Y-113300000D01*
X83845000Y-94495000D02*
X83850000Y-94500000D01*
X108080000Y-86495000D02*
X108095000Y-86495000D01*
X106680000Y-87295000D02*
X106695000Y-87295000D01*
X110030000Y-114045000D02*
X110045000Y-114045000D01*
X110045000Y-114045000D02*
X110050000Y-114050000D01*
X83830000Y-94495000D02*
X83845000Y-94495000D01*
X85230000Y-96045000D02*
X85245000Y-96045000D01*
X94755000Y-104955000D02*
X94750000Y-104950000D01*
X106695000Y-87295000D02*
X106700000Y-87300000D01*
X108645000Y-114045000D02*
X108650000Y-114050000D01*
X97555000Y-104955000D02*
X97550000Y-104950000D01*
X106695000Y-88045000D02*
X106700000Y-88050000D01*
X83830000Y-95295000D02*
X83845000Y-95295000D01*
%TO.N,/BATT-*%
X99605000Y-97852500D02*
X100255000Y-97852500D01*
D36*
%TO.N,/BATT+*%
X97365000Y-98020000D02*
X97365000Y-96327500D01*
X97820000Y-95872500D02*
X97365000Y-96327500D01*
X97365000Y-96327500D02*
X97280000Y-96242500D01*
X98850000Y-95872500D02*
X97820000Y-95872500D01*
D39*
%TO.N,Net-(D1-K)*%
X90447500Y-96382500D02*
X90395000Y-96330000D01*
X90447500Y-97920000D02*
X90447500Y-96382500D01*
%TO.N,Net-(D2-K)*%
X93857500Y-94750000D02*
X93937500Y-94670000D01*
X93857500Y-96310000D02*
X93857500Y-94750000D01*
%TO.N,Net-(D3-A)*%
X90210000Y-101890000D02*
X90210000Y-101770000D01*
X87810000Y-103090000D02*
X89010000Y-103090000D01*
X89010000Y-103090000D02*
X90210000Y-101890000D01*
D36*
%TO.N,Net-(F1-Pad1)*%
X94720000Y-108110000D02*
X94720000Y-107120000D01*
X96690000Y-111870000D02*
X96690000Y-110080000D01*
X96690000Y-110080000D02*
X94720000Y-108110000D01*
D39*
%TO.N,Net-(IC1-PROG)*%
X92170000Y-103570000D02*
X92200000Y-103600000D01*
%TO.N,Net-(IC1-STDBY)*%
X96095000Y-98020000D02*
X96095000Y-96722500D01*
X96095000Y-96722500D02*
X95682500Y-96310000D01*
%TO.N,Net-(IC1-CHRG)*%
X94825000Y-98020000D02*
X94825000Y-97545000D01*
X94825000Y-97545000D02*
X94770000Y-97490000D01*
%TO.N,/OD*%
X99250000Y-99400000D02*
X98955000Y-99105000D01*
X98955000Y-99105000D02*
X98955000Y-97852500D01*
D38*
%TO.N,/CS*%
X95860000Y-91800000D02*
X94720000Y-91800000D01*
X94720000Y-91800000D02*
X94100000Y-91180000D01*
D39*
%TO.N,/OC*%
X97150000Y-92250000D02*
X96650000Y-92750000D01*
X98955000Y-101295000D02*
X98955000Y-103612500D01*
X99150000Y-101100000D02*
X98955000Y-101295000D01*
X96650000Y-92750000D02*
X95860000Y-92750000D01*
%TO.N,Net-(Q1-Pad1)*%
X100905000Y-103612500D02*
X100905000Y-97852500D01*
D36*
%TO.N,Net-(U\u002A1-OUT+)*%
X91780000Y-108030000D02*
X95190000Y-111440000D01*
X91780000Y-106660000D02*
X91780000Y-108030000D01*
X95190000Y-111440000D02*
X95190000Y-111870000D01*
%TD*%
%TA.AperFunction,Conductor*%
%TO.N,GND*%
G36*
X141842122Y-85120185D02*
G01*
X141887877Y-85172989D01*
X141899083Y-85224698D01*
X141851633Y-114975698D01*
X141831841Y-115042706D01*
X141778965Y-115088376D01*
X141727633Y-115099500D01*
X99014500Y-115099500D01*
X98947461Y-115079815D01*
X98901706Y-115027011D01*
X98890500Y-114975500D01*
X98890499Y-114225143D01*
X98890499Y-114225137D01*
X98890499Y-114225136D01*
X98890435Y-114224586D01*
X98887586Y-114200012D01*
X98887585Y-114200010D01*
X98887585Y-114200009D01*
X98842206Y-114097235D01*
X98762765Y-114017794D01*
X98762765Y-114017793D01*
X98659992Y-113972415D01*
X98634865Y-113969500D01*
X97545143Y-113969500D01*
X97545117Y-113969502D01*
X97520012Y-113972413D01*
X97520008Y-113972415D01*
X97417235Y-114017793D01*
X97337794Y-114097234D01*
X97292415Y-114200006D01*
X97292415Y-114200008D01*
X97289564Y-114224586D01*
X97289500Y-114225135D01*
X97289500Y-114619885D01*
X97289501Y-114975500D01*
X97269817Y-115042539D01*
X97217013Y-115088294D01*
X97165501Y-115099500D01*
X91714500Y-115099500D01*
X91647461Y-115079815D01*
X91601706Y-115027011D01*
X91590500Y-114975500D01*
X91590499Y-114225143D01*
X91590499Y-114225137D01*
X91590499Y-114225136D01*
X91590435Y-114224586D01*
X91587586Y-114200012D01*
X91587585Y-114200010D01*
X91587585Y-114200009D01*
X91542206Y-114097235D01*
X91462765Y-114017794D01*
X91462764Y-114017793D01*
X91359992Y-113972415D01*
X91334865Y-113969500D01*
X90245143Y-113969500D01*
X90245117Y-113969502D01*
X90220012Y-113972413D01*
X90220008Y-113972415D01*
X90117235Y-114017793D01*
X90037794Y-114097234D01*
X89992415Y-114200006D01*
X89992415Y-114200008D01*
X89989564Y-114224586D01*
X89989500Y-114225135D01*
X89989500Y-114619885D01*
X89989501Y-114975500D01*
X89969817Y-115042539D01*
X89917013Y-115088294D01*
X89865501Y-115099500D01*
X86441624Y-115099500D01*
X86438378Y-115099415D01*
X86306617Y-115092509D01*
X86122985Y-115082196D01*
X86116758Y-115081530D01*
X85964369Y-115057394D01*
X85801835Y-115029778D01*
X85796171Y-115028541D01*
X85643297Y-114987579D01*
X85488273Y-114942916D01*
X85483217Y-114941221D01*
X85333841Y-114883882D01*
X85185988Y-114822638D01*
X85181566Y-114820599D01*
X85038101Y-114747500D01*
X84898520Y-114670357D01*
X84894742Y-114668090D01*
X84759138Y-114580027D01*
X84629233Y-114487854D01*
X84626092Y-114485472D01*
X84501246Y-114384374D01*
X84498974Y-114382440D01*
X84381277Y-114277260D01*
X84378750Y-114274870D01*
X84265128Y-114161248D01*
X84262738Y-114158721D01*
X84157558Y-114041024D01*
X84155631Y-114038760D01*
X84054526Y-113913905D01*
X84052144Y-113910765D01*
X83959972Y-113780861D01*
X83931119Y-113736432D01*
X83871896Y-113645236D01*
X83869641Y-113641477D01*
X83792499Y-113501898D01*
X83719399Y-113358432D01*
X83717360Y-113354010D01*
X83656122Y-113206171D01*
X83598772Y-113056766D01*
X83597082Y-113051724D01*
X83579046Y-112989122D01*
X83552414Y-112896679D01*
X83547316Y-112877652D01*
X83511453Y-112743811D01*
X83510226Y-112738194D01*
X83482601Y-112575606D01*
X83458465Y-112423212D01*
X83457803Y-112417027D01*
X83447503Y-112233628D01*
X83440584Y-112101620D01*
X83440500Y-112098377D01*
X83440500Y-111600000D01*
X84884709Y-111600000D01*
X84903851Y-111879862D01*
X84903852Y-111879864D01*
X84960921Y-112154499D01*
X84960926Y-112154516D01*
X85039311Y-112375068D01*
X85054864Y-112418830D01*
X85183919Y-112667896D01*
X85345688Y-112897069D01*
X85345692Y-112897073D01*
X85345692Y-112897074D01*
X85479164Y-113039988D01*
X85537155Y-113102081D01*
X85754754Y-113279111D01*
X85754756Y-113279112D01*
X85754757Y-113279113D01*
X85994433Y-113424863D01*
X86084693Y-113464068D01*
X86251725Y-113536620D01*
X86521839Y-113612303D01*
X86761589Y-113645256D01*
X86799741Y-113650500D01*
X86799742Y-113650500D01*
X87080259Y-113650500D01*
X87118411Y-113645256D01*
X87358161Y-113612303D01*
X87628275Y-113536620D01*
X87885568Y-113424862D01*
X88125246Y-113279111D01*
X88342845Y-113102081D01*
X88424307Y-113014856D01*
X89989500Y-113014856D01*
X89989502Y-113014882D01*
X89992413Y-113039987D01*
X89992415Y-113039991D01*
X90037793Y-113142764D01*
X90037794Y-113142765D01*
X90117235Y-113222206D01*
X90220009Y-113267585D01*
X90245135Y-113270500D01*
X91334864Y-113270499D01*
X91334879Y-113270497D01*
X91334882Y-113270497D01*
X91359987Y-113267586D01*
X91359988Y-113267585D01*
X91359991Y-113267585D01*
X91462765Y-113222206D01*
X91542206Y-113142765D01*
X91587585Y-113039991D01*
X91590500Y-113014865D01*
X91590499Y-113014860D01*
X91590598Y-113014016D01*
X91617876Y-112949691D01*
X91675600Y-112910325D01*
X91745444Y-112908417D01*
X91763857Y-112914869D01*
X91768512Y-112916924D01*
X91770009Y-112917585D01*
X91795135Y-112920500D01*
X92348329Y-112920499D01*
X92415367Y-112940183D01*
X92461122Y-112992987D01*
X92471066Y-113062146D01*
X92442041Y-113125702D01*
X92441144Y-113126726D01*
X92359264Y-113219150D01*
X92280210Y-113369773D01*
X92267253Y-113422343D01*
X92239500Y-113534944D01*
X92239500Y-113705056D01*
X92258184Y-113780861D01*
X92280210Y-113870226D01*
X92359263Y-114020849D01*
X92359266Y-114020852D01*
X92472071Y-114148183D01*
X92547158Y-114200012D01*
X92612068Y-114244817D01*
X92612069Y-114244817D01*
X92612070Y-114244818D01*
X92771128Y-114305140D01*
X92847028Y-114314356D01*
X92897626Y-114320500D01*
X92897628Y-114320500D01*
X92982374Y-114320500D01*
X93024538Y-114315380D01*
X93108872Y-114305140D01*
X93267930Y-114244818D01*
X93407929Y-114148183D01*
X93520734Y-114020852D01*
X93599790Y-113870225D01*
X93640500Y-113705056D01*
X93640500Y-113534944D01*
X93599790Y-113369775D01*
X93578078Y-113328406D01*
X93520736Y-113219150D01*
X93483181Y-113176759D01*
X93407929Y-113091817D01*
X93349845Y-113051724D01*
X93267931Y-112995182D01*
X93108874Y-112934860D01*
X93108868Y-112934859D01*
X92982374Y-112919500D01*
X92982372Y-112919500D01*
X92926548Y-112919500D01*
X92859509Y-112899815D01*
X92813754Y-112847011D01*
X92803810Y-112777853D01*
X92813114Y-112745414D01*
X92837583Y-112689995D01*
X92837585Y-112689991D01*
X92840500Y-112664865D01*
X92840499Y-111075136D01*
X92840425Y-111074500D01*
X92837586Y-111050012D01*
X92837585Y-111050010D01*
X92837585Y-111050009D01*
X92792206Y-110947235D01*
X92712765Y-110867794D01*
X92712763Y-110867793D01*
X92609992Y-110822415D01*
X92584865Y-110819500D01*
X91795143Y-110819500D01*
X91795117Y-110819502D01*
X91770012Y-110822413D01*
X91770008Y-110822415D01*
X91667235Y-110867793D01*
X91587794Y-110947234D01*
X91542415Y-111050006D01*
X91542415Y-111050008D01*
X91539500Y-111075131D01*
X91539500Y-111761374D01*
X91519815Y-111828413D01*
X91467011Y-111874168D01*
X91397853Y-111884112D01*
X91365419Y-111874811D01*
X91359992Y-111872415D01*
X91334865Y-111869500D01*
X90245143Y-111869500D01*
X90245117Y-111869502D01*
X90220012Y-111872413D01*
X90220008Y-111872415D01*
X90117235Y-111917793D01*
X90037794Y-111997234D01*
X89992415Y-112100006D01*
X89992415Y-112100008D01*
X89989500Y-112125131D01*
X89989500Y-113014856D01*
X88424307Y-113014856D01*
X88534312Y-112897069D01*
X88696081Y-112667896D01*
X88825136Y-112418830D01*
X88919075Y-112154511D01*
X88919076Y-112154504D01*
X88919078Y-112154499D01*
X88945571Y-112027005D01*
X88976148Y-111879862D01*
X88995291Y-111600000D01*
X88976148Y-111320138D01*
X88956443Y-111225315D01*
X88919078Y-111045500D01*
X88919073Y-111045483D01*
X88887122Y-110955582D01*
X88825136Y-110781170D01*
X88696081Y-110532104D01*
X88534312Y-110302931D01*
X88534307Y-110302925D01*
X88342845Y-110097919D01*
X88210713Y-109990422D01*
X88125246Y-109920889D01*
X88125244Y-109920888D01*
X88125242Y-109920886D01*
X87885566Y-109775136D01*
X87628276Y-109663380D01*
X87358166Y-109587698D01*
X87358162Y-109587697D01*
X87358161Y-109587697D01*
X87219209Y-109568598D01*
X87080259Y-109549500D01*
X87080258Y-109549500D01*
X86799742Y-109549500D01*
X86799741Y-109549500D01*
X86521839Y-109587697D01*
X86521833Y-109587698D01*
X86251723Y-109663380D01*
X85994433Y-109775136D01*
X85754757Y-109920886D01*
X85537154Y-110097919D01*
X85345692Y-110302925D01*
X85345692Y-110302926D01*
X85183919Y-110532103D01*
X85054863Y-110781171D01*
X84960926Y-111045483D01*
X84960921Y-111045500D01*
X84903852Y-111320135D01*
X84903851Y-111320137D01*
X84884709Y-111600000D01*
X83440500Y-111600000D01*
X83440500Y-107920506D01*
X83460185Y-107853467D01*
X83512989Y-107807712D01*
X83582147Y-107797768D01*
X83645703Y-107826793D01*
X83649108Y-107829856D01*
X83651802Y-107832370D01*
X83651803Y-107832372D01*
X83659100Y-107839182D01*
X83671904Y-107853106D01*
X83672851Y-107854309D01*
X83682374Y-107862641D01*
X83693684Y-107876064D01*
X83694370Y-107875447D01*
X83702059Y-107883985D01*
X83714418Y-107893436D01*
X83727481Y-107906842D01*
X83727754Y-107906555D01*
X83736091Y-107914465D01*
X83744251Y-107919745D01*
X83758181Y-107930418D01*
X83767776Y-107936282D01*
X83782230Y-107946605D01*
X83786714Y-107950319D01*
X83786715Y-107950321D01*
X83796958Y-107956011D01*
X83810733Y-107966691D01*
X83811306Y-107965902D01*
X83820606Y-107972642D01*
X83820609Y-107972645D01*
X83829034Y-107976636D01*
X83831023Y-107977578D01*
X83845228Y-107987215D01*
X83845817Y-107986287D01*
X83855514Y-107992438D01*
X83855515Y-107992438D01*
X83855517Y-107992440D01*
X83865746Y-107996531D01*
X83882466Y-108004798D01*
X83882800Y-108004921D01*
X83892812Y-108008609D01*
X83907790Y-108016930D01*
X83908303Y-108015937D01*
X83918514Y-108021204D01*
X83918516Y-108021206D01*
X83928539Y-108024212D01*
X83943662Y-108031473D01*
X83944187Y-108030295D01*
X83954680Y-108034962D01*
X83954685Y-108034965D01*
X83965363Y-108037507D01*
X83982886Y-108043080D01*
X83986082Y-108044364D01*
X83986088Y-108044368D01*
X83995398Y-108046230D01*
X84010936Y-108051982D01*
X84011382Y-108050666D01*
X84022258Y-108054351D01*
X84022262Y-108054353D01*
X84040899Y-108057015D01*
X84064660Y-108063836D01*
X84071419Y-108065435D01*
X84071425Y-108065438D01*
X84106608Y-108067112D01*
X84115064Y-108068100D01*
X84127889Y-108070498D01*
X84127892Y-108070500D01*
X84176244Y-108070500D01*
X84179192Y-108070570D01*
X84182089Y-108070707D01*
X84198747Y-108071501D01*
X84201767Y-108071083D01*
X84210261Y-108070500D01*
X85905500Y-108070500D01*
X85972539Y-108090185D01*
X86018294Y-108142989D01*
X86029500Y-108194500D01*
X86029500Y-108230088D01*
X86026307Y-108252977D01*
X86025534Y-108261323D01*
X86029235Y-108301268D01*
X86029500Y-108306991D01*
X86029500Y-108318311D01*
X86031580Y-108329437D01*
X86032371Y-108335110D01*
X86036071Y-108375050D01*
X86038369Y-108383127D01*
X86042159Y-108394433D01*
X86045196Y-108402274D01*
X86066314Y-108436380D01*
X86069102Y-108441385D01*
X86086983Y-108477295D01*
X86092032Y-108483981D01*
X86099668Y-108493176D01*
X86105322Y-108499379D01*
X86137346Y-108523562D01*
X86141728Y-108527201D01*
X86160417Y-108544238D01*
X86171387Y-108554240D01*
X86178540Y-108558669D01*
X86188939Y-108564460D01*
X86196464Y-108568207D01*
X86196468Y-108568210D01*
X86235066Y-108579191D01*
X86240475Y-108581004D01*
X86277892Y-108595500D01*
X86277895Y-108595500D01*
X86286138Y-108597041D01*
X86297967Y-108598692D01*
X86306323Y-108599466D01*
X86306323Y-108599465D01*
X86306324Y-108599466D01*
X86314677Y-108598692D01*
X86346270Y-108595765D01*
X86351993Y-108595500D01*
X86975088Y-108595500D01*
X86997967Y-108598692D01*
X87006323Y-108599466D01*
X87006323Y-108599465D01*
X87006324Y-108599466D01*
X87014677Y-108598692D01*
X87046270Y-108595765D01*
X87051993Y-108595500D01*
X87063308Y-108595500D01*
X87063310Y-108595500D01*
X87074450Y-108593416D01*
X87080088Y-108592630D01*
X87120052Y-108588928D01*
X87120053Y-108588927D01*
X87120055Y-108588927D01*
X87131108Y-108585782D01*
X87132227Y-108589715D01*
X87179580Y-108581270D01*
X87210870Y-108588906D01*
X87227892Y-108595500D01*
X87236138Y-108597041D01*
X87247967Y-108598692D01*
X87256323Y-108599466D01*
X87256323Y-108599465D01*
X87256324Y-108599466D01*
X87264677Y-108598692D01*
X87296270Y-108595765D01*
X87301993Y-108595500D01*
X88685088Y-108595500D01*
X88707967Y-108598692D01*
X88716323Y-108599466D01*
X88716323Y-108599465D01*
X88716324Y-108599466D01*
X88724677Y-108598692D01*
X88756270Y-108595765D01*
X88761993Y-108595500D01*
X88773308Y-108595500D01*
X88773310Y-108595500D01*
X88784450Y-108593416D01*
X88790088Y-108592630D01*
X88830052Y-108588928D01*
X88830053Y-108588927D01*
X88830055Y-108588927D01*
X88838179Y-108586615D01*
X88849380Y-108582861D01*
X88857264Y-108579806D01*
X88857271Y-108579805D01*
X88891377Y-108558686D01*
X88896380Y-108555900D01*
X88906832Y-108550695D01*
X88932294Y-108538017D01*
X88932296Y-108538014D01*
X88939009Y-108532945D01*
X88948163Y-108525343D01*
X88954375Y-108519679D01*
X88954379Y-108519678D01*
X88978568Y-108487645D01*
X88982199Y-108483273D01*
X88997166Y-108466856D01*
X89717500Y-108466856D01*
X89717502Y-108466882D01*
X89720413Y-108491987D01*
X89720415Y-108491991D01*
X89765793Y-108594764D01*
X89765793Y-108594765D01*
X89765794Y-108594765D01*
X89845235Y-108674206D01*
X89948009Y-108719585D01*
X89973135Y-108722500D01*
X91289059Y-108722499D01*
X91356098Y-108742184D01*
X91376740Y-108758818D01*
X94353181Y-111735259D01*
X94386666Y-111796582D01*
X94389500Y-111822940D01*
X94389500Y-111914960D01*
X94404630Y-112049249D01*
X94404633Y-112049262D01*
X94464209Y-112219518D01*
X94464210Y-112219522D01*
X94520494Y-112309096D01*
X94539500Y-112375068D01*
X94539500Y-112664856D01*
X94539502Y-112664882D01*
X94542413Y-112689987D01*
X94542415Y-112689991D01*
X94587793Y-112792764D01*
X94587794Y-112792765D01*
X94667235Y-112872206D01*
X94770009Y-112917585D01*
X94795135Y-112920500D01*
X95348329Y-112920499D01*
X95415367Y-112940183D01*
X95461122Y-112992987D01*
X95471066Y-113062146D01*
X95442041Y-113125702D01*
X95441144Y-113126726D01*
X95359264Y-113219150D01*
X95280210Y-113369773D01*
X95267253Y-113422343D01*
X95239500Y-113534944D01*
X95239500Y-113705056D01*
X95258184Y-113780861D01*
X95280210Y-113870226D01*
X95359263Y-114020849D01*
X95359266Y-114020852D01*
X95472071Y-114148183D01*
X95547158Y-114200012D01*
X95612068Y-114244817D01*
X95612069Y-114244817D01*
X95612070Y-114244818D01*
X95771128Y-114305140D01*
X95847028Y-114314356D01*
X95897626Y-114320500D01*
X95897628Y-114320500D01*
X95982374Y-114320500D01*
X96024538Y-114315380D01*
X96108872Y-114305140D01*
X96267930Y-114244818D01*
X96407929Y-114148183D01*
X96520734Y-114020852D01*
X96599790Y-113870225D01*
X96640500Y-113705056D01*
X96640500Y-113534944D01*
X96599790Y-113369775D01*
X96578078Y-113328406D01*
X96520735Y-113219149D01*
X96520733Y-113219147D01*
X96438856Y-113126726D01*
X96409134Y-113063493D01*
X96418318Y-112994229D01*
X96463490Y-112940926D01*
X96530309Y-112920506D01*
X96531534Y-112920499D01*
X97084864Y-112920499D01*
X97084879Y-112920497D01*
X97084882Y-112920497D01*
X97109987Y-112917586D01*
X97109987Y-112917585D01*
X97109991Y-112917585D01*
X97116140Y-112914869D01*
X97185417Y-112905797D01*
X97248603Y-112935619D01*
X97285635Y-112994867D01*
X97289402Y-113014017D01*
X97292414Y-113039988D01*
X97292415Y-113039991D01*
X97337793Y-113142764D01*
X97337794Y-113142765D01*
X97417235Y-113222206D01*
X97520009Y-113267585D01*
X97545135Y-113270500D01*
X98634864Y-113270499D01*
X98634879Y-113270497D01*
X98634882Y-113270497D01*
X98659987Y-113267586D01*
X98659988Y-113267585D01*
X98659991Y-113267585D01*
X98762765Y-113222206D01*
X98842206Y-113142765D01*
X98887585Y-113039991D01*
X98890500Y-113014865D01*
X98890499Y-112125136D01*
X98890497Y-112125117D01*
X98887586Y-112100012D01*
X98887585Y-112100010D01*
X98887585Y-112100009D01*
X98842206Y-111997235D01*
X98762765Y-111917794D01*
X98724814Y-111901037D01*
X98659992Y-111872415D01*
X98634868Y-111869500D01*
X97614499Y-111869500D01*
X97547460Y-111849815D01*
X97501705Y-111797011D01*
X97490499Y-111745500D01*
X97490500Y-110955583D01*
X97490500Y-110035046D01*
X97490500Y-109989806D01*
X97481207Y-109949093D01*
X97480042Y-109942233D01*
X97475368Y-109900745D01*
X97463353Y-109866408D01*
X97461576Y-109861328D01*
X97459650Y-109854641D01*
X97450360Y-109813939D01*
X97432238Y-109776307D01*
X97429583Y-109769899D01*
X97415789Y-109730478D01*
X97400694Y-109706454D01*
X97393574Y-109695122D01*
X97390209Y-109689033D01*
X97380289Y-109668435D01*
X97372092Y-109651414D01*
X97363465Y-109640596D01*
X97346055Y-109618763D01*
X97342029Y-109613089D01*
X97319819Y-109577742D01*
X97319817Y-109577739D01*
X95731819Y-107989741D01*
X95698334Y-107928418D01*
X95695500Y-107902060D01*
X95695500Y-106001903D01*
X95695500Y-106001902D01*
X95695500Y-106001898D01*
X95684877Y-105913436D01*
X95629361Y-105772658D01*
X95629360Y-105772657D01*
X95629360Y-105772656D01*
X95537922Y-105652077D01*
X95417343Y-105560639D01*
X95276561Y-105505122D01*
X95230926Y-105499642D01*
X95188102Y-105494500D01*
X94251898Y-105494500D01*
X94212853Y-105499188D01*
X94163438Y-105505122D01*
X94081732Y-105537342D01*
X94049310Y-105550129D01*
X94014767Y-105563751D01*
X94013747Y-105561165D01*
X93959170Y-105573741D01*
X93893411Y-105550129D01*
X93850856Y-105494713D01*
X93842499Y-105449963D01*
X93842499Y-104853136D01*
X93842497Y-104853117D01*
X93839586Y-104828012D01*
X93839585Y-104828010D01*
X93839585Y-104828009D01*
X93794206Y-104725235D01*
X93714765Y-104645794D01*
X93667696Y-104625011D01*
X93611992Y-104600415D01*
X93586865Y-104597500D01*
X89973143Y-104597500D01*
X89973117Y-104597502D01*
X89948012Y-104600413D01*
X89948008Y-104600415D01*
X89845235Y-104645793D01*
X89765794Y-104725234D01*
X89720415Y-104828006D01*
X89720415Y-104828008D01*
X89717500Y-104853131D01*
X89717500Y-108466856D01*
X88997166Y-108466856D01*
X89009241Y-108453611D01*
X89009242Y-108453607D01*
X89013674Y-108446452D01*
X89019449Y-108436083D01*
X89023207Y-108428535D01*
X89023210Y-108428532D01*
X89034192Y-108389931D01*
X89036010Y-108384510D01*
X89039675Y-108375050D01*
X89050500Y-108347108D01*
X89050500Y-108347106D01*
X89052041Y-108338865D01*
X89053692Y-108327032D01*
X89054466Y-108318676D01*
X89050765Y-108278730D01*
X89050500Y-108273007D01*
X89050500Y-106349912D01*
X89053692Y-106327032D01*
X89054466Y-106318676D01*
X89050765Y-106278730D01*
X89050500Y-106273007D01*
X89050500Y-106261694D01*
X89050500Y-106261690D01*
X89048416Y-106250549D01*
X89047630Y-106244913D01*
X89043928Y-106204948D01*
X89043927Y-106204945D01*
X89041627Y-106196861D01*
X89037847Y-106185584D01*
X89034805Y-106177732D01*
X89034805Y-106177729D01*
X89022560Y-106157953D01*
X89013684Y-106143617D01*
X89010896Y-106138611D01*
X88993020Y-106102711D01*
X88993018Y-106102709D01*
X88993017Y-106102706D01*
X88993014Y-106102703D01*
X88987963Y-106096014D01*
X88980325Y-106086816D01*
X88974680Y-106080625D01*
X88974678Y-106080621D01*
X88968474Y-106075935D01*
X88942667Y-106056446D01*
X88938260Y-106052787D01*
X88908610Y-106025758D01*
X88901496Y-106021353D01*
X88891029Y-106015523D01*
X88883528Y-106011788D01*
X88844943Y-106000810D01*
X88839523Y-105998994D01*
X88819073Y-105991072D01*
X88802107Y-105984499D01*
X88793858Y-105982957D01*
X88782032Y-105981307D01*
X88773676Y-105980533D01*
X88733730Y-105984235D01*
X88728007Y-105984500D01*
X87344912Y-105984500D01*
X87322032Y-105981307D01*
X87313676Y-105980533D01*
X87273730Y-105984235D01*
X87268007Y-105984500D01*
X87256684Y-105984500D01*
X87245559Y-105986579D01*
X87239891Y-105987370D01*
X87199950Y-105991071D01*
X87191909Y-105993359D01*
X87180525Y-105997174D01*
X87172728Y-106000195D01*
X87138616Y-106021314D01*
X87133616Y-106024100D01*
X87097708Y-106041981D01*
X87091048Y-106047010D01*
X87081782Y-106054705D01*
X87075620Y-106060322D01*
X87051439Y-106092341D01*
X87047781Y-106096746D01*
X87027462Y-106119036D01*
X86967752Y-106155319D01*
X86935823Y-106159500D01*
X84248949Y-106159500D01*
X84240459Y-106158917D01*
X84227512Y-106157129D01*
X84227511Y-106157129D01*
X84206509Y-106158129D01*
X84187889Y-106159015D01*
X84163278Y-106156792D01*
X84156331Y-106156494D01*
X84156330Y-106156494D01*
X84146115Y-106157953D01*
X84129553Y-106157708D01*
X84129571Y-106159088D01*
X84118087Y-106159232D01*
X84110650Y-106160719D01*
X84108481Y-106161153D01*
X84090248Y-106163410D01*
X84086796Y-106163579D01*
X84075917Y-106166169D01*
X84059199Y-106167476D01*
X84059336Y-106168751D01*
X84047915Y-106169973D01*
X84037076Y-106173225D01*
X84020109Y-106175574D01*
X84020296Y-106176671D01*
X84008971Y-106178593D01*
X83999833Y-106181960D01*
X83981895Y-106187008D01*
X83970378Y-106191615D01*
X83953657Y-106195472D01*
X83953937Y-106196535D01*
X83942828Y-106199461D01*
X83931849Y-106204662D01*
X83915149Y-106209644D01*
X83915458Y-106210570D01*
X83904557Y-106214210D01*
X83895970Y-106218981D01*
X83879886Y-106226463D01*
X83874429Y-106228540D01*
X83865400Y-106234058D01*
X83849753Y-106241988D01*
X83836884Y-106250315D01*
X83819860Y-106258098D01*
X83820039Y-106258451D01*
X83809783Y-106263635D01*
X83799612Y-106271413D01*
X83784224Y-106279841D01*
X83784693Y-106280634D01*
X83774802Y-106286482D01*
X83766725Y-106293550D01*
X83751597Y-106304873D01*
X83750302Y-106305695D01*
X83741105Y-106314279D01*
X83726407Y-106324349D01*
X83726876Y-106324986D01*
X83717630Y-106331800D01*
X83710817Y-106339100D01*
X83696898Y-106351901D01*
X83695689Y-106352852D01*
X83687347Y-106362386D01*
X83673932Y-106373691D01*
X83674548Y-106374375D01*
X83666010Y-106382063D01*
X83662997Y-106386004D01*
X83606636Y-106427297D01*
X83536897Y-106431565D01*
X83475921Y-106397451D01*
X83443069Y-106335786D01*
X83440500Y-106310676D01*
X83440500Y-102470506D01*
X83460185Y-102403467D01*
X83512989Y-102357712D01*
X83582147Y-102347768D01*
X83645703Y-102376793D01*
X83649108Y-102379856D01*
X83651802Y-102382370D01*
X83651803Y-102382372D01*
X83659100Y-102389182D01*
X83671904Y-102403106D01*
X83672851Y-102404309D01*
X83682374Y-102412641D01*
X83693684Y-102426064D01*
X83694370Y-102425447D01*
X83702059Y-102433985D01*
X83714418Y-102443436D01*
X83727481Y-102456842D01*
X83727754Y-102456555D01*
X83736091Y-102464465D01*
X83744251Y-102469745D01*
X83758181Y-102480418D01*
X83767776Y-102486282D01*
X83782230Y-102496605D01*
X83786714Y-102500319D01*
X83786715Y-102500321D01*
X83796958Y-102506011D01*
X83810733Y-102516691D01*
X83811306Y-102515902D01*
X83820606Y-102522642D01*
X83820609Y-102522645D01*
X83829034Y-102526636D01*
X83831023Y-102527578D01*
X83845228Y-102537215D01*
X83845817Y-102536287D01*
X83855514Y-102542438D01*
X83855515Y-102542438D01*
X83855517Y-102542440D01*
X83865746Y-102546531D01*
X83882466Y-102554798D01*
X83882800Y-102554921D01*
X83892812Y-102558609D01*
X83907790Y-102566930D01*
X83908303Y-102565937D01*
X83918514Y-102571204D01*
X83918516Y-102571206D01*
X83928539Y-102574212D01*
X83943662Y-102581473D01*
X83944187Y-102580295D01*
X83954680Y-102584962D01*
X83954685Y-102584965D01*
X83965363Y-102587507D01*
X83982886Y-102593080D01*
X83986082Y-102594364D01*
X83986088Y-102594368D01*
X83995398Y-102596230D01*
X84010936Y-102601982D01*
X84011382Y-102600666D01*
X84022258Y-102604351D01*
X84022262Y-102604353D01*
X84040899Y-102607015D01*
X84064660Y-102613836D01*
X84071419Y-102615435D01*
X84071425Y-102615438D01*
X84106608Y-102617112D01*
X84115064Y-102618100D01*
X84127889Y-102620498D01*
X84127892Y-102620500D01*
X84176244Y-102620500D01*
X84179192Y-102620570D01*
X84182089Y-102620707D01*
X84198747Y-102621501D01*
X84201767Y-102621083D01*
X84210261Y-102620500D01*
X86535206Y-102620500D01*
X86602245Y-102640185D01*
X86648000Y-102692989D01*
X86657944Y-102762147D01*
X86648640Y-102794587D01*
X86637415Y-102820007D01*
X86637415Y-102820008D01*
X86634500Y-102845131D01*
X86634500Y-103334856D01*
X86634502Y-103334880D01*
X86637414Y-103359989D01*
X86637415Y-103359995D01*
X86639590Y-103364920D01*
X86648658Y-103434199D01*
X86639592Y-103465076D01*
X86637416Y-103470003D01*
X86637415Y-103470009D01*
X86634500Y-103495131D01*
X86634500Y-103984856D01*
X86634502Y-103984880D01*
X86637414Y-104009989D01*
X86637415Y-104009995D01*
X86639590Y-104014920D01*
X86648658Y-104084199D01*
X86639592Y-104115076D01*
X86637416Y-104120003D01*
X86637415Y-104120009D01*
X86634500Y-104145131D01*
X86634500Y-104634856D01*
X86634502Y-104634880D01*
X86637414Y-104659989D01*
X86637415Y-104659995D01*
X86639590Y-104664920D01*
X86648658Y-104734199D01*
X86639592Y-104765076D01*
X86637416Y-104770003D01*
X86637415Y-104770009D01*
X86634500Y-104795131D01*
X86634500Y-105284856D01*
X86634502Y-105284882D01*
X86637413Y-105309987D01*
X86637415Y-105309991D01*
X86682793Y-105412764D01*
X86682794Y-105412765D01*
X86762235Y-105492206D01*
X86865009Y-105537585D01*
X86890135Y-105540500D01*
X88729864Y-105540499D01*
X88729879Y-105540497D01*
X88729882Y-105540497D01*
X88754987Y-105537586D01*
X88754988Y-105537585D01*
X88754991Y-105537585D01*
X88857765Y-105492206D01*
X88937206Y-105412765D01*
X88982585Y-105309991D01*
X88985500Y-105284865D01*
X88985499Y-104795136D01*
X88985497Y-104795117D01*
X88982586Y-104770013D01*
X88982585Y-104770011D01*
X88982585Y-104770009D01*
X88980411Y-104765086D01*
X88971339Y-104695812D01*
X88980412Y-104664911D01*
X88982585Y-104659991D01*
X88985500Y-104634865D01*
X88985499Y-104145136D01*
X88982585Y-104120009D01*
X88980410Y-104115083D01*
X88971340Y-104045805D01*
X88980409Y-104014917D01*
X88982585Y-104009991D01*
X88985500Y-103984865D01*
X88985500Y-103849618D01*
X91382000Y-103849618D01*
X91392382Y-103936074D01*
X91392382Y-103936075D01*
X91411624Y-103984868D01*
X91443223Y-104064999D01*
X91446639Y-104073660D01*
X91535999Y-104191500D01*
X91653839Y-104280860D01*
X91653842Y-104280862D01*
X91791423Y-104335117D01*
X91849062Y-104342039D01*
X91877881Y-104345500D01*
X91877882Y-104345500D01*
X92462119Y-104345500D01*
X92484901Y-104342764D01*
X92548577Y-104335117D01*
X92686158Y-104280862D01*
X92804000Y-104191500D01*
X92893362Y-104073658D01*
X92947617Y-103936077D01*
X92958000Y-103849618D01*
X92958000Y-103520000D01*
X94169722Y-103520000D01*
X94171447Y-103534211D01*
X94174048Y-103555628D01*
X94174500Y-103563107D01*
X94174500Y-104214856D01*
X94174502Y-104214882D01*
X94177413Y-104239987D01*
X94177415Y-104239991D01*
X94222793Y-104342764D01*
X94222794Y-104342765D01*
X94302235Y-104422206D01*
X94405009Y-104467585D01*
X94430135Y-104470500D01*
X95219864Y-104470499D01*
X95219879Y-104470497D01*
X95219882Y-104470497D01*
X95244987Y-104467586D01*
X95244988Y-104467585D01*
X95244991Y-104467585D01*
X95347765Y-104422206D01*
X95427206Y-104342765D01*
X95472585Y-104239991D01*
X95475500Y-104214865D01*
X95475500Y-104214856D01*
X96714500Y-104214856D01*
X96714502Y-104214882D01*
X96717413Y-104239987D01*
X96717415Y-104239991D01*
X96762793Y-104342764D01*
X96762794Y-104342765D01*
X96842235Y-104422206D01*
X96945009Y-104467585D01*
X96970135Y-104470500D01*
X97759864Y-104470499D01*
X97759879Y-104470497D01*
X97759882Y-104470497D01*
X97784987Y-104467586D01*
X97784988Y-104467585D01*
X97784991Y-104467585D01*
X97853453Y-104437356D01*
X98454500Y-104437356D01*
X98454502Y-104437382D01*
X98457413Y-104462487D01*
X98457415Y-104462491D01*
X98502793Y-104565264D01*
X98502794Y-104565265D01*
X98582235Y-104644706D01*
X98685009Y-104690085D01*
X98710135Y-104693000D01*
X99199864Y-104692999D01*
X99199879Y-104692997D01*
X99199882Y-104692997D01*
X99224987Y-104690086D01*
X99224988Y-104690085D01*
X99224991Y-104690085D01*
X99327765Y-104644706D01*
X99407206Y-104565265D01*
X99452585Y-104462491D01*
X99455500Y-104437365D01*
X99455499Y-102787636D01*
X99455497Y-102787617D01*
X99452586Y-102762513D01*
X99452585Y-102762511D01*
X99452585Y-102762509D01*
X99416064Y-102679797D01*
X99405500Y-102629714D01*
X99405500Y-101775513D01*
X99425185Y-101708474D01*
X99471873Y-101665717D01*
X99522240Y-101639283D01*
X99640483Y-101534530D01*
X99730220Y-101404523D01*
X99786237Y-101256818D01*
X99805278Y-101100000D01*
X99795166Y-101016715D01*
X99786237Y-100943181D01*
X99756313Y-100864279D01*
X99730220Y-100795477D01*
X99640483Y-100665470D01*
X99522240Y-100560717D01*
X99522238Y-100560716D01*
X99522237Y-100560715D01*
X99382365Y-100487303D01*
X99228986Y-100449500D01*
X99228985Y-100449500D01*
X99071015Y-100449500D01*
X99071014Y-100449500D01*
X98917634Y-100487303D01*
X98777762Y-100560715D01*
X98659516Y-100665471D01*
X98569781Y-100795475D01*
X98569780Y-100795476D01*
X98513762Y-100943181D01*
X98494722Y-101099999D01*
X98494722Y-101100002D01*
X98505597Y-101189579D01*
X98505118Y-101222990D01*
X98504500Y-101227093D01*
X98504500Y-101286573D01*
X98502275Y-101346009D01*
X98503316Y-101355243D01*
X98502488Y-101355336D01*
X98504499Y-101370635D01*
X98504500Y-102629714D01*
X98493934Y-102679800D01*
X98457416Y-102762504D01*
X98457415Y-102762508D01*
X98454500Y-102787631D01*
X98454500Y-104437356D01*
X97853453Y-104437356D01*
X97887765Y-104422206D01*
X97967206Y-104342765D01*
X98012585Y-104239991D01*
X98015500Y-104214865D01*
X98015499Y-104034220D01*
X98023558Y-103990247D01*
X98036237Y-103956818D01*
X98055278Y-103800000D01*
X98036237Y-103643182D01*
X98036236Y-103643180D01*
X98036236Y-103643178D01*
X98023557Y-103609747D01*
X98015499Y-103565776D01*
X98015499Y-103384223D01*
X98023558Y-103340250D01*
X98036236Y-103306820D01*
X98036235Y-103306820D01*
X98036237Y-103306818D01*
X98055278Y-103150000D01*
X98036237Y-102993182D01*
X98023557Y-102959747D01*
X98015499Y-102915776D01*
X98015499Y-102825143D01*
X98015499Y-102825136D01*
X98015497Y-102825117D01*
X98012586Y-102800012D01*
X98012585Y-102800010D01*
X98012585Y-102800009D01*
X97967206Y-102697235D01*
X97887765Y-102617794D01*
X97848974Y-102600666D01*
X97784992Y-102572415D01*
X97759868Y-102569500D01*
X97759865Y-102569500D01*
X97724272Y-102569500D01*
X97666645Y-102555296D01*
X97632363Y-102537303D01*
X97478986Y-102499500D01*
X97478985Y-102499500D01*
X97321015Y-102499500D01*
X97317929Y-102499500D01*
X97293546Y-102492340D01*
X97269746Y-102510950D01*
X97253659Y-102516101D01*
X97167631Y-102537305D01*
X97133350Y-102555297D01*
X97075727Y-102569500D01*
X96970143Y-102569500D01*
X96970118Y-102569502D01*
X96945011Y-102572414D01*
X96945008Y-102572415D01*
X96842235Y-102617793D01*
X96762794Y-102697234D01*
X96717415Y-102800006D01*
X96717415Y-102800008D01*
X96714500Y-102825131D01*
X96714500Y-104214856D01*
X95475500Y-104214856D01*
X95475499Y-103563107D01*
X95475952Y-103555629D01*
X95478552Y-103534211D01*
X95480278Y-103520000D01*
X95475950Y-103484365D01*
X95475499Y-103476887D01*
X95475499Y-102825143D01*
X95475499Y-102825136D01*
X95475497Y-102825117D01*
X95472586Y-102800012D01*
X95472585Y-102800010D01*
X95472585Y-102800009D01*
X95427206Y-102697235D01*
X95347765Y-102617794D01*
X95308974Y-102600666D01*
X95244992Y-102572415D01*
X95219865Y-102569500D01*
X94430143Y-102569500D01*
X94430117Y-102569502D01*
X94405012Y-102572413D01*
X94405008Y-102572415D01*
X94302235Y-102617793D01*
X94222794Y-102697234D01*
X94177415Y-102800006D01*
X94177415Y-102800008D01*
X94174500Y-102825131D01*
X94174500Y-103476891D01*
X94174048Y-103484365D01*
X94169722Y-103520000D01*
X92958000Y-103520000D01*
X92958000Y-103290382D01*
X92947617Y-103203923D01*
X92893362Y-103066342D01*
X92893360Y-103066339D01*
X92804000Y-102948499D01*
X92686160Y-102859139D01*
X92686158Y-102859138D01*
X92548577Y-102804883D01*
X92548576Y-102804882D01*
X92548574Y-102804882D01*
X92462119Y-102794500D01*
X92462118Y-102794500D01*
X91877882Y-102794500D01*
X91877881Y-102794500D01*
X91791425Y-102804882D01*
X91791424Y-102804882D01*
X91653839Y-102859139D01*
X91535999Y-102948499D01*
X91446639Y-103066339D01*
X91392382Y-103203924D01*
X91392382Y-103203925D01*
X91382000Y-103290381D01*
X91382000Y-103849618D01*
X88985500Y-103849618D01*
X88985499Y-103655989D01*
X89005183Y-103588951D01*
X89057987Y-103543196D01*
X89091011Y-103533377D01*
X89144287Y-103525348D01*
X89144291Y-103525345D01*
X89152447Y-103522830D01*
X89160469Y-103520023D01*
X89160472Y-103520023D01*
X89213072Y-103492222D01*
X89266642Y-103466425D01*
X89266642Y-103466424D01*
X89266644Y-103466424D01*
X89273695Y-103461616D01*
X89280538Y-103456566D01*
X89322599Y-103414504D01*
X89322598Y-103414503D01*
X89366194Y-103374055D01*
X89366196Y-103374050D01*
X89371987Y-103366790D01*
X89372643Y-103367313D01*
X89382032Y-103355070D01*
X90415298Y-102321803D01*
X90476619Y-102288320D01*
X90483554Y-102287017D01*
X90526715Y-102280182D01*
X90643281Y-102220789D01*
X90735789Y-102128281D01*
X90795182Y-102011715D01*
X90795782Y-102007931D01*
X90805959Y-101943670D01*
X90810500Y-101915003D01*
X90810499Y-101624998D01*
X90810499Y-101624996D01*
X90810499Y-101624992D01*
X90795182Y-101528286D01*
X90795182Y-101528285D01*
X90790215Y-101518536D01*
X90735789Y-101411719D01*
X90735785Y-101411715D01*
X90735784Y-101411713D01*
X90643286Y-101319215D01*
X90643282Y-101319212D01*
X90643281Y-101319211D01*
X90526715Y-101259818D01*
X90526714Y-101259817D01*
X90526711Y-101259816D01*
X90526712Y-101259816D01*
X90430003Y-101244500D01*
X89989992Y-101244500D01*
X89989992Y-101244501D01*
X89893286Y-101259817D01*
X89893285Y-101259817D01*
X89840135Y-101286899D01*
X89776719Y-101319211D01*
X89776717Y-101319212D01*
X89776718Y-101319212D01*
X89776713Y-101319215D01*
X89684215Y-101411713D01*
X89684210Y-101411720D01*
X89624816Y-101528288D01*
X89609500Y-101624996D01*
X89609500Y-101802034D01*
X89589815Y-101869073D01*
X89573181Y-101889715D01*
X89262181Y-102200715D01*
X89200858Y-102234200D01*
X89131166Y-102229216D01*
X89075233Y-102187344D01*
X89050816Y-102121880D01*
X89050500Y-102113034D01*
X89050500Y-100549912D01*
X89053692Y-100527032D01*
X89054466Y-100518676D01*
X89050765Y-100478730D01*
X89050500Y-100473007D01*
X89050500Y-100461694D01*
X89050500Y-100461690D01*
X89048416Y-100450549D01*
X89047630Y-100444913D01*
X89043928Y-100404948D01*
X89043927Y-100404945D01*
X89041627Y-100396861D01*
X89037847Y-100385584D01*
X89034805Y-100377732D01*
X89034805Y-100377729D01*
X89018545Y-100351468D01*
X89013684Y-100343617D01*
X89010896Y-100338611D01*
X88993020Y-100302711D01*
X88993018Y-100302709D01*
X88993017Y-100302706D01*
X88993014Y-100302703D01*
X88987963Y-100296014D01*
X88980325Y-100286816D01*
X88974680Y-100280625D01*
X88974678Y-100280621D01*
X88968474Y-100275935D01*
X88942667Y-100256446D01*
X88938260Y-100252787D01*
X88908610Y-100225758D01*
X88901496Y-100221353D01*
X88891029Y-100215523D01*
X88883528Y-100211788D01*
X88844943Y-100200810D01*
X88839523Y-100198994D01*
X88820370Y-100191574D01*
X88802107Y-100184499D01*
X88793858Y-100182957D01*
X88782032Y-100181307D01*
X88773676Y-100180533D01*
X88733730Y-100184235D01*
X88728007Y-100184500D01*
X87344912Y-100184500D01*
X87322032Y-100181307D01*
X87313676Y-100180533D01*
X87273730Y-100184235D01*
X87268007Y-100184500D01*
X87256684Y-100184500D01*
X87245559Y-100186579D01*
X87239891Y-100187370D01*
X87199950Y-100191071D01*
X87188900Y-100194216D01*
X87187783Y-100190292D01*
X87140329Y-100198719D01*
X87109133Y-100191095D01*
X87092107Y-100184499D01*
X87083858Y-100182957D01*
X87072032Y-100181307D01*
X87063676Y-100180533D01*
X87023730Y-100184235D01*
X87018007Y-100184500D01*
X86394912Y-100184500D01*
X86372032Y-100181307D01*
X86363676Y-100180533D01*
X86323730Y-100184235D01*
X86318007Y-100184500D01*
X86306684Y-100184500D01*
X86295559Y-100186579D01*
X86289891Y-100187370D01*
X86249950Y-100191071D01*
X86241909Y-100193359D01*
X86230525Y-100197174D01*
X86222728Y-100200195D01*
X86188616Y-100221314D01*
X86183616Y-100224100D01*
X86147708Y-100241981D01*
X86141048Y-100247010D01*
X86131782Y-100254705D01*
X86125620Y-100260322D01*
X86101439Y-100292341D01*
X86097780Y-100296747D01*
X86070758Y-100326388D01*
X86066364Y-100333485D01*
X86060514Y-100343988D01*
X86056788Y-100351471D01*
X86045810Y-100390053D01*
X86043991Y-100395481D01*
X86029500Y-100432891D01*
X86027958Y-100441138D01*
X86026307Y-100452977D01*
X86025534Y-100461324D01*
X86029234Y-100501269D01*
X86029499Y-100506991D01*
X86029500Y-100585498D01*
X86009816Y-100652538D01*
X85957013Y-100698294D01*
X85905500Y-100709500D01*
X84248949Y-100709500D01*
X84240459Y-100708917D01*
X84227512Y-100707129D01*
X84227511Y-100707129D01*
X84206509Y-100708129D01*
X84187889Y-100709015D01*
X84163278Y-100706792D01*
X84156331Y-100706494D01*
X84156330Y-100706494D01*
X84146115Y-100707953D01*
X84129553Y-100707708D01*
X84129571Y-100709088D01*
X84118087Y-100709232D01*
X84110650Y-100710719D01*
X84108481Y-100711153D01*
X84090248Y-100713410D01*
X84086796Y-100713579D01*
X84075917Y-100716169D01*
X84059199Y-100717476D01*
X84059336Y-100718751D01*
X84047915Y-100719973D01*
X84037076Y-100723225D01*
X84020109Y-100725574D01*
X84020296Y-100726671D01*
X84008971Y-100728593D01*
X83999833Y-100731960D01*
X83981895Y-100737008D01*
X83970378Y-100741615D01*
X83953657Y-100745472D01*
X83953937Y-100746535D01*
X83942828Y-100749461D01*
X83931849Y-100754662D01*
X83915149Y-100759644D01*
X83915458Y-100760570D01*
X83904557Y-100764210D01*
X83895970Y-100768981D01*
X83879886Y-100776463D01*
X83874429Y-100778540D01*
X83865400Y-100784058D01*
X83849753Y-100791988D01*
X83836884Y-100800315D01*
X83819860Y-100808098D01*
X83820039Y-100808451D01*
X83809783Y-100813635D01*
X83799612Y-100821413D01*
X83784224Y-100829841D01*
X83784693Y-100830634D01*
X83774802Y-100836482D01*
X83766725Y-100843550D01*
X83751597Y-100854873D01*
X83750302Y-100855695D01*
X83741105Y-100864279D01*
X83726407Y-100874349D01*
X83726876Y-100874986D01*
X83717630Y-100881800D01*
X83710817Y-100889100D01*
X83696898Y-100901901D01*
X83695689Y-100902852D01*
X83687347Y-100912386D01*
X83673932Y-100923691D01*
X83674548Y-100924375D01*
X83666010Y-100932063D01*
X83662997Y-100936004D01*
X83606636Y-100977297D01*
X83536897Y-100981565D01*
X83475921Y-100947451D01*
X83443069Y-100885786D01*
X83440500Y-100860676D01*
X83440500Y-97183102D01*
X86259500Y-97183102D01*
X86262627Y-97209138D01*
X86270122Y-97271561D01*
X86270122Y-97271563D01*
X86270123Y-97271564D01*
X86271616Y-97275350D01*
X86325639Y-97412343D01*
X86417077Y-97532922D01*
X86537656Y-97624360D01*
X86537657Y-97624360D01*
X86537658Y-97624361D01*
X86678436Y-97679877D01*
X86766898Y-97690500D01*
X86766903Y-97690500D01*
X88353097Y-97690500D01*
X88353102Y-97690500D01*
X88441564Y-97679877D01*
X88582342Y-97624361D01*
X88702922Y-97532922D01*
X88794361Y-97412342D01*
X88849877Y-97271564D01*
X88860500Y-97183102D01*
X88860500Y-96671518D01*
X88880185Y-96604479D01*
X88896815Y-96583841D01*
X89395319Y-96085336D01*
X89456642Y-96051852D01*
X89526334Y-96056836D01*
X89582267Y-96098708D01*
X89606684Y-96164172D01*
X89607000Y-96173018D01*
X89607000Y-96609618D01*
X89617382Y-96696074D01*
X89617382Y-96696075D01*
X89644510Y-96764867D01*
X89658971Y-96801538D01*
X89671639Y-96833660D01*
X89760999Y-96951500D01*
X89867001Y-97031883D01*
X89908524Y-97088075D01*
X89913076Y-97157796D01*
X89879211Y-97218911D01*
X89867001Y-97229491D01*
X89775999Y-97298499D01*
X89686639Y-97416339D01*
X89632382Y-97553924D01*
X89632382Y-97553925D01*
X89622000Y-97640381D01*
X89622000Y-98199618D01*
X89632382Y-98286074D01*
X89632382Y-98286075D01*
X89632383Y-98286077D01*
X89685918Y-98421833D01*
X89686639Y-98423660D01*
X89775999Y-98541500D01*
X89893839Y-98630860D01*
X89893842Y-98630862D01*
X90031423Y-98685117D01*
X90082143Y-98691208D01*
X90117881Y-98695500D01*
X90117882Y-98695500D01*
X90777119Y-98695500D01*
X90812857Y-98691208D01*
X90863577Y-98685117D01*
X91001158Y-98630862D01*
X91119000Y-98541500D01*
X91208362Y-98423658D01*
X91208364Y-98423652D01*
X91212518Y-98416266D01*
X91214452Y-98417353D01*
X91250047Y-98371601D01*
X91315954Y-98348405D01*
X91383939Y-98364523D01*
X91432418Y-98414838D01*
X91435612Y-98421833D01*
X91436639Y-98423661D01*
X91464303Y-98460140D01*
X91489127Y-98525452D01*
X91489500Y-98535066D01*
X91489500Y-101722374D01*
X91504859Y-101848868D01*
X91504860Y-101848874D01*
X91565182Y-102007931D01*
X91616676Y-102082531D01*
X91661817Y-102147929D01*
X91759197Y-102234200D01*
X91789150Y-102260736D01*
X91939773Y-102339789D01*
X91939775Y-102339790D01*
X92104944Y-102380500D01*
X92275056Y-102380500D01*
X92440225Y-102339790D01*
X92504214Y-102306205D01*
X92542435Y-102293529D01*
X92626715Y-102280182D01*
X92743281Y-102220789D01*
X92835789Y-102128281D01*
X92895182Y-102011715D01*
X92895782Y-102007931D01*
X92905959Y-101943670D01*
X92906290Y-101941583D01*
X93450534Y-101941583D01*
X93454235Y-101981528D01*
X93454500Y-101987251D01*
X93454500Y-101998571D01*
X93456580Y-102009697D01*
X93457371Y-102015370D01*
X93461071Y-102055310D01*
X93463369Y-102063387D01*
X93467159Y-102074693D01*
X93470196Y-102082534D01*
X93491314Y-102116640D01*
X93494102Y-102121645D01*
X93511983Y-102157555D01*
X93517032Y-102164241D01*
X93524668Y-102173436D01*
X93530322Y-102179639D01*
X93562346Y-102203822D01*
X93566728Y-102207461D01*
X93581346Y-102220787D01*
X93596387Y-102234500D01*
X93603540Y-102238929D01*
X93613939Y-102244720D01*
X93621464Y-102248467D01*
X93621468Y-102248470D01*
X93660066Y-102259451D01*
X93665475Y-102261264D01*
X93702892Y-102275760D01*
X93702895Y-102275760D01*
X93711138Y-102277301D01*
X93722967Y-102278952D01*
X93731323Y-102279726D01*
X93731323Y-102279725D01*
X93731324Y-102279726D01*
X93741113Y-102278819D01*
X93771270Y-102276025D01*
X93776993Y-102275760D01*
X97100458Y-102275760D01*
X97123337Y-102278952D01*
X97131693Y-102279726D01*
X97131693Y-102279725D01*
X97131694Y-102279726D01*
X97141483Y-102278819D01*
X97171640Y-102276025D01*
X97177363Y-102275760D01*
X97188677Y-102275760D01*
X97188680Y-102275760D01*
X97199822Y-102273676D01*
X97205467Y-102272889D01*
X97212545Y-102272233D01*
X97246210Y-102278819D01*
X97263292Y-102266799D01*
X97262869Y-102266116D01*
X97282744Y-102253808D01*
X97306747Y-102238946D01*
X97311750Y-102236160D01*
X97333009Y-102225574D01*
X97347664Y-102218277D01*
X97347666Y-102218274D01*
X97354379Y-102213205D01*
X97363533Y-102205603D01*
X97369745Y-102199939D01*
X97369749Y-102199938D01*
X97393938Y-102167905D01*
X97397569Y-102163533D01*
X97424611Y-102133871D01*
X97424612Y-102133867D01*
X97429044Y-102126712D01*
X97434819Y-102116343D01*
X97438577Y-102108795D01*
X97438580Y-102108792D01*
X97449562Y-102070191D01*
X97451380Y-102064770D01*
X97459800Y-102043035D01*
X97465870Y-102027368D01*
X97465870Y-102027366D01*
X97467411Y-102019125D01*
X97469062Y-102007292D01*
X97469836Y-101998936D01*
X97466135Y-101958990D01*
X97465870Y-101953267D01*
X97465870Y-99629912D01*
X97469062Y-99607032D01*
X97469836Y-99598676D01*
X97466135Y-99558730D01*
X97465870Y-99553007D01*
X97465870Y-99541694D01*
X97465870Y-99541690D01*
X97463786Y-99530549D01*
X97463000Y-99524913D01*
X97459298Y-99484948D01*
X97459297Y-99484945D01*
X97456997Y-99476861D01*
X97453217Y-99465584D01*
X97450175Y-99457732D01*
X97450175Y-99457729D01*
X97433915Y-99431468D01*
X97429054Y-99423617D01*
X97426266Y-99418611D01*
X97408390Y-99382711D01*
X97408388Y-99382709D01*
X97408387Y-99382706D01*
X97408384Y-99382703D01*
X97403333Y-99376014D01*
X97395695Y-99366816D01*
X97390050Y-99360625D01*
X97390048Y-99360621D01*
X97383844Y-99355935D01*
X97358037Y-99336446D01*
X97353630Y-99332787D01*
X97323980Y-99305758D01*
X97316866Y-99301353D01*
X97306399Y-99295523D01*
X97298898Y-99291788D01*
X97260313Y-99280810D01*
X97254893Y-99278994D01*
X97234443Y-99271072D01*
X97217477Y-99264499D01*
X97209228Y-99262957D01*
X97197402Y-99261307D01*
X97189046Y-99260533D01*
X97149100Y-99264235D01*
X97143377Y-99264500D01*
X93819912Y-99264500D01*
X93797032Y-99261307D01*
X93788676Y-99260533D01*
X93748730Y-99264235D01*
X93743007Y-99264500D01*
X93731684Y-99264500D01*
X93720559Y-99266579D01*
X93714891Y-99267370D01*
X93674950Y-99271071D01*
X93666909Y-99273359D01*
X93655525Y-99277174D01*
X93647728Y-99280195D01*
X93613616Y-99301314D01*
X93608616Y-99304100D01*
X93572708Y-99321981D01*
X93566048Y-99327010D01*
X93556782Y-99334705D01*
X93550620Y-99340322D01*
X93526439Y-99372341D01*
X93522780Y-99376747D01*
X93495758Y-99406388D01*
X93491364Y-99413485D01*
X93485514Y-99423988D01*
X93481788Y-99431471D01*
X93470810Y-99470053D01*
X93468991Y-99475481D01*
X93454500Y-99512891D01*
X93452958Y-99521138D01*
X93451307Y-99532977D01*
X93450534Y-99541323D01*
X93454235Y-99581268D01*
X93454500Y-99586991D01*
X93454500Y-101910348D01*
X93451307Y-101933237D01*
X93450534Y-101941583D01*
X92906290Y-101941583D01*
X92910500Y-101915003D01*
X92910499Y-101624998D01*
X92910499Y-101624996D01*
X92910499Y-101624992D01*
X92893656Y-101518646D01*
X92894348Y-101518536D01*
X92890500Y-101494235D01*
X92890500Y-99049924D01*
X92910185Y-98982885D01*
X92962989Y-98937130D01*
X93032147Y-98927186D01*
X93064582Y-98936488D01*
X93135009Y-98967585D01*
X93160135Y-98970500D01*
X93949864Y-98970499D01*
X93949879Y-98970497D01*
X93949882Y-98970497D01*
X93974987Y-98967586D01*
X93974988Y-98967585D01*
X93974991Y-98967585D01*
X94077765Y-98922206D01*
X94102319Y-98897652D01*
X94163642Y-98864167D01*
X94233334Y-98869151D01*
X94277681Y-98897652D01*
X94302235Y-98922206D01*
X94405009Y-98967585D01*
X94430135Y-98970500D01*
X95219864Y-98970499D01*
X95219879Y-98970497D01*
X95219882Y-98970497D01*
X95244987Y-98967586D01*
X95244988Y-98967585D01*
X95244991Y-98967585D01*
X95347765Y-98922206D01*
X95372321Y-98897649D01*
X95433640Y-98864166D01*
X95503332Y-98869150D01*
X95547677Y-98897648D01*
X95572235Y-98922206D01*
X95675009Y-98967585D01*
X95700135Y-98970500D01*
X96489864Y-98970499D01*
X96489879Y-98970497D01*
X96489882Y-98970497D01*
X96514987Y-98967586D01*
X96514988Y-98967585D01*
X96514991Y-98967585D01*
X96617765Y-98922206D01*
X96642319Y-98897651D01*
X96703642Y-98864167D01*
X96773334Y-98869151D01*
X96817681Y-98897652D01*
X96842235Y-98922206D01*
X96945009Y-98967585D01*
X96970135Y-98970500D01*
X97759864Y-98970499D01*
X97759879Y-98970497D01*
X97759882Y-98970497D01*
X97784987Y-98967586D01*
X97784988Y-98967585D01*
X97784991Y-98967585D01*
X97887765Y-98922206D01*
X97967206Y-98842765D01*
X98012585Y-98739991D01*
X98015500Y-98714865D01*
X98015499Y-98525066D01*
X98034505Y-98459095D01*
X98090789Y-98369522D01*
X98150368Y-98199255D01*
X98165500Y-98064954D01*
X98165500Y-96796999D01*
X98185185Y-96729961D01*
X98237989Y-96684206D01*
X98289500Y-96673000D01*
X98430167Y-96673000D01*
X98497206Y-96692685D01*
X98542961Y-96745489D01*
X98552905Y-96814647D01*
X98523880Y-96878203D01*
X98517848Y-96884681D01*
X98502794Y-96899734D01*
X98457415Y-97002506D01*
X98457415Y-97002508D01*
X98454500Y-97027631D01*
X98454500Y-98677356D01*
X98454502Y-98677382D01*
X98457413Y-98702486D01*
X98457414Y-98702490D01*
X98457415Y-98702491D01*
X98493935Y-98785202D01*
X98504500Y-98835286D01*
X98504500Y-99076217D01*
X98504110Y-99083155D01*
X98503160Y-99091594D01*
X98499729Y-99122034D01*
X98510788Y-99180479D01*
X98519652Y-99239290D01*
X98522162Y-99247427D01*
X98524978Y-99255475D01*
X98548787Y-99300523D01*
X98552777Y-99308072D01*
X98578082Y-99360619D01*
X98582606Y-99370012D01*
X98580710Y-99370925D01*
X98596192Y-99412109D01*
X98613763Y-99556819D01*
X98634924Y-99612615D01*
X98669780Y-99704523D01*
X98759517Y-99834530D01*
X98877760Y-99939283D01*
X98877762Y-99939284D01*
X99017634Y-100012696D01*
X99171014Y-100050500D01*
X99171015Y-100050500D01*
X99328985Y-100050500D01*
X99482365Y-100012696D01*
X99482364Y-100012695D01*
X99622240Y-99939283D01*
X99740483Y-99834530D01*
X99830220Y-99704523D01*
X99886237Y-99556818D01*
X99905278Y-99400000D01*
X99896415Y-99327010D01*
X99886237Y-99243182D01*
X99884760Y-99239287D01*
X99830220Y-99095477D01*
X99830217Y-99095472D01*
X99828746Y-99091594D01*
X99823379Y-99021931D01*
X99856526Y-98960424D01*
X99917664Y-98926603D01*
X99977245Y-98927972D01*
X99985007Y-98930084D01*
X99985009Y-98930085D01*
X100010135Y-98933000D01*
X100330500Y-98932999D01*
X100397539Y-98952683D01*
X100443294Y-99005487D01*
X100454500Y-99056999D01*
X100454500Y-102629714D01*
X100443934Y-102679800D01*
X100407416Y-102762504D01*
X100407415Y-102762508D01*
X100404500Y-102787631D01*
X100404500Y-104437356D01*
X100404502Y-104437382D01*
X100407413Y-104462486D01*
X100407414Y-104462490D01*
X100407415Y-104462491D01*
X100436597Y-104528582D01*
X100445668Y-104597859D01*
X100415844Y-104661044D01*
X100356595Y-104698075D01*
X100355721Y-104698316D01*
X100348009Y-104700414D01*
X100245235Y-104745793D01*
X100165794Y-104825234D01*
X100120415Y-104928006D01*
X100120415Y-104928008D01*
X100117500Y-104953131D01*
X100117500Y-105462769D01*
X100097815Y-105529808D01*
X100045011Y-105575563D01*
X99975853Y-105585507D01*
X99925028Y-105564271D01*
X99924734Y-105564795D01*
X99920254Y-105562276D01*
X99918581Y-105561577D01*
X99917347Y-105560641D01*
X99917345Y-105560640D01*
X99776561Y-105505122D01*
X99730926Y-105499642D01*
X99688102Y-105494500D01*
X98751898Y-105494500D01*
X98712853Y-105499188D01*
X98663438Y-105505122D01*
X98522656Y-105560639D01*
X98402077Y-105652077D01*
X98310639Y-105772656D01*
X98255122Y-105913438D01*
X98251955Y-105939815D01*
X98244500Y-106001898D01*
X98244500Y-106001903D01*
X98244500Y-106698534D01*
X98239161Y-106734529D01*
X98184699Y-106914067D01*
X98169500Y-107068395D01*
X98169500Y-109065343D01*
X98169201Y-109071424D01*
X98164417Y-109119999D01*
X98184699Y-109325931D01*
X98244769Y-109523958D01*
X98273518Y-109577742D01*
X98307118Y-109640602D01*
X98342315Y-109706450D01*
X98342317Y-109706453D01*
X98342318Y-109706454D01*
X98398683Y-109775136D01*
X98473590Y-109866410D01*
X98507935Y-109894596D01*
X98511325Y-109897378D01*
X98515825Y-109901456D01*
X99218541Y-110604172D01*
X99222621Y-110608674D01*
X99253589Y-110646410D01*
X99394550Y-110762092D01*
X99410397Y-110775098D01*
X99413550Y-110777685D01*
X99596046Y-110875232D01*
X99794066Y-110935300D01*
X99794065Y-110935300D01*
X99812529Y-110937118D01*
X100000000Y-110955583D01*
X100035436Y-110952092D01*
X100048576Y-110950799D01*
X100054657Y-110950500D01*
X101042625Y-110950500D01*
X101109664Y-110970185D01*
X101155419Y-111022989D01*
X101165363Y-111092147D01*
X101136338Y-111155703D01*
X101117550Y-111173304D01*
X101007077Y-111257077D01*
X100915639Y-111377656D01*
X100860122Y-111518438D01*
X100854188Y-111567853D01*
X100849500Y-111606898D01*
X100849500Y-113193102D01*
X100851065Y-113206133D01*
X100860122Y-113281561D01*
X100915639Y-113422343D01*
X101007077Y-113542922D01*
X101127656Y-113634360D01*
X101127657Y-113634360D01*
X101127658Y-113634361D01*
X101268436Y-113689877D01*
X101356898Y-113700500D01*
X101356903Y-113700500D01*
X102643097Y-113700500D01*
X102643102Y-113700500D01*
X102731564Y-113689877D01*
X102872342Y-113634361D01*
X102992922Y-113542922D01*
X103084361Y-113422342D01*
X103139877Y-113281564D01*
X103150500Y-113193102D01*
X103150500Y-112900001D01*
X103170185Y-112832962D01*
X103222989Y-112787207D01*
X103292147Y-112777263D01*
X103355703Y-112806288D01*
X103393477Y-112865066D01*
X103393742Y-112865983D01*
X103422595Y-112967389D01*
X103422596Y-112967392D01*
X103422596Y-112967394D01*
X103517632Y-113158253D01*
X103646127Y-113328406D01*
X103646128Y-113328407D01*
X103803698Y-113472052D01*
X103984981Y-113584298D01*
X104183802Y-113661321D01*
X104393390Y-113700500D01*
X104393392Y-113700500D01*
X104606608Y-113700500D01*
X104606610Y-113700500D01*
X104816198Y-113661321D01*
X105015019Y-113584298D01*
X105196302Y-113472052D01*
X105353872Y-113328407D01*
X105482366Y-113158255D01*
X105515448Y-113091817D01*
X105577403Y-112967394D01*
X105577403Y-112967393D01*
X105577405Y-112967389D01*
X105635756Y-112762310D01*
X105650500Y-112603194D01*
X105650500Y-112196806D01*
X105635756Y-112037690D01*
X105577405Y-111832611D01*
X105563499Y-111804683D01*
X105550500Y-111749413D01*
X105550500Y-110354654D01*
X105550799Y-110348573D01*
X105551963Y-110336748D01*
X105555583Y-110300000D01*
X105552544Y-110269153D01*
X105565564Y-110200507D01*
X105613629Y-110149797D01*
X105675948Y-110133000D01*
X106080690Y-110133000D01*
X106111079Y-110136781D01*
X106113434Y-110137376D01*
X106113436Y-110137377D01*
X106201898Y-110148000D01*
X106201903Y-110148000D01*
X107138097Y-110148000D01*
X107138102Y-110148000D01*
X107226564Y-110137377D01*
X107367342Y-110081861D01*
X107487922Y-109990422D01*
X107579361Y-109869842D01*
X107634877Y-109729064D01*
X107645500Y-109640602D01*
X107645500Y-108654398D01*
X107634877Y-108565936D01*
X107579361Y-108425158D01*
X107579360Y-108425157D01*
X107579360Y-108425156D01*
X107487922Y-108304577D01*
X107367343Y-108213139D01*
X107226561Y-108157622D01*
X107180926Y-108152142D01*
X107138102Y-108147000D01*
X106201898Y-108147000D01*
X106162853Y-108151688D01*
X106113438Y-108157622D01*
X105972656Y-108213139D01*
X105852077Y-108304577D01*
X105760640Y-108425155D01*
X105760638Y-108425158D01*
X105760639Y-108425158D01*
X105749465Y-108453491D01*
X105706561Y-108508634D01*
X105640653Y-108531827D01*
X105634112Y-108532000D01*
X105493090Y-108532000D01*
X105426051Y-108512315D01*
X105380296Y-108459511D01*
X105370352Y-108390353D01*
X105399377Y-108326797D01*
X105418165Y-108309196D01*
X105441500Y-108291500D01*
X105451184Y-108278730D01*
X105530862Y-108173658D01*
X105585117Y-108036077D01*
X105595500Y-107949618D01*
X105595500Y-107684500D01*
X105615185Y-107617461D01*
X105667989Y-107571706D01*
X105719500Y-107560500D01*
X106447694Y-107560500D01*
X106488403Y-107551208D01*
X106495260Y-107550043D01*
X106536755Y-107545368D01*
X106576180Y-107531571D01*
X106582821Y-107529658D01*
X106623561Y-107520360D01*
X106661193Y-107502236D01*
X106667605Y-107499580D01*
X106707022Y-107485789D01*
X106726389Y-107473619D01*
X106736913Y-107467007D01*
X106802886Y-107448000D01*
X107138097Y-107448000D01*
X107138102Y-107448000D01*
X107226564Y-107437377D01*
X107367342Y-107381861D01*
X107487922Y-107290422D01*
X107579361Y-107169842D01*
X107634877Y-107029064D01*
X107645500Y-106940602D01*
X107645500Y-105954398D01*
X107634877Y-105865936D01*
X107579361Y-105725158D01*
X107579360Y-105725157D01*
X107579360Y-105725156D01*
X107487922Y-105604577D01*
X107367343Y-105513139D01*
X107226561Y-105457622D01*
X107180926Y-105452142D01*
X107138102Y-105447000D01*
X106201898Y-105447000D01*
X106162853Y-105451688D01*
X106113438Y-105457622D01*
X105972656Y-105513139D01*
X105852077Y-105604577D01*
X105760639Y-105725156D01*
X105748075Y-105757017D01*
X105705123Y-105865936D01*
X105705122Y-105865938D01*
X105702207Y-105873332D01*
X105701019Y-105872863D01*
X105669619Y-105926062D01*
X105607211Y-105957479D01*
X105584916Y-105959500D01*
X104366499Y-105959500D01*
X104299460Y-105939815D01*
X104253705Y-105887011D01*
X104242499Y-105835500D01*
X104242499Y-104953143D01*
X104242499Y-104953136D01*
X104242497Y-104953117D01*
X104239586Y-104928012D01*
X104239585Y-104928010D01*
X104239585Y-104928009D01*
X104194206Y-104825235D01*
X104114765Y-104745794D01*
X104088505Y-104734199D01*
X104011992Y-104700415D01*
X103986868Y-104697500D01*
X101489119Y-104697500D01*
X101422080Y-104677815D01*
X101376325Y-104625011D01*
X101366381Y-104555853D01*
X101375685Y-104523413D01*
X101402585Y-104462491D01*
X101405500Y-104437365D01*
X101405499Y-102787636D01*
X101405497Y-102787617D01*
X101402586Y-102762513D01*
X101402585Y-102762511D01*
X101402585Y-102762509D01*
X101366064Y-102679797D01*
X101355500Y-102629714D01*
X101355500Y-98835285D01*
X101366066Y-98785198D01*
X101374290Y-98766574D01*
X101402585Y-98702491D01*
X101405500Y-98677365D01*
X101405499Y-97027636D01*
X101405497Y-97027617D01*
X101402586Y-97002512D01*
X101402585Y-97002510D01*
X101402585Y-97002509D01*
X101357206Y-96899735D01*
X101342152Y-96884681D01*
X101308667Y-96823358D01*
X101313651Y-96753666D01*
X101355523Y-96697733D01*
X101420987Y-96673316D01*
X101429833Y-96673000D01*
X102697019Y-96673000D01*
X102764058Y-96692685D01*
X102809813Y-96745489D01*
X102819757Y-96814647D01*
X102790732Y-96878203D01*
X102771945Y-96895803D01*
X102757078Y-96907076D01*
X102665639Y-97027656D01*
X102610122Y-97168438D01*
X102605241Y-97209091D01*
X102599500Y-97256898D01*
X102599500Y-98543102D01*
X102600795Y-98553885D01*
X102610122Y-98631561D01*
X102610122Y-98631563D01*
X102610123Y-98631564D01*
X102621479Y-98660360D01*
X102665639Y-98772343D01*
X102757077Y-98892922D01*
X102877656Y-98984360D01*
X102877657Y-98984360D01*
X102877658Y-98984361D01*
X103018436Y-99039877D01*
X103106898Y-99050500D01*
X103106903Y-99050500D01*
X104693097Y-99050500D01*
X104693102Y-99050500D01*
X104781564Y-99039877D01*
X104922342Y-98984361D01*
X105042922Y-98892922D01*
X105134361Y-98772342D01*
X105134362Y-98772338D01*
X105138519Y-98764948D01*
X105141412Y-98766574D01*
X105174617Y-98723881D01*
X105240520Y-98700674D01*
X105247086Y-98700500D01*
X106440194Y-98700500D01*
X106480903Y-98691208D01*
X106487760Y-98690043D01*
X106529255Y-98685368D01*
X106568680Y-98671571D01*
X106575321Y-98669658D01*
X106616061Y-98660360D01*
X106653693Y-98642236D01*
X106660105Y-98639580D01*
X106699522Y-98625789D01*
X106734889Y-98603565D01*
X106740961Y-98600209D01*
X106778587Y-98582091D01*
X106811236Y-98556052D01*
X106816895Y-98552037D01*
X106852262Y-98529816D01*
X106979816Y-98402262D01*
X107797827Y-97584251D01*
X107829816Y-97552262D01*
X107852036Y-97516896D01*
X107856054Y-97511234D01*
X107882092Y-97478586D01*
X107900211Y-97440961D01*
X107903570Y-97434881D01*
X107925789Y-97399522D01*
X107939581Y-97360107D01*
X107942244Y-97353679D01*
X107960360Y-97316061D01*
X107969658Y-97275321D01*
X107971571Y-97268680D01*
X107985368Y-97229255D01*
X107990043Y-97187760D01*
X107991208Y-97180905D01*
X107999517Y-97144500D01*
X108000500Y-97140194D01*
X108000500Y-96959805D01*
X108000500Y-93455046D01*
X108000500Y-93455045D01*
X108000500Y-93409806D01*
X107991207Y-93369093D01*
X107990042Y-93362233D01*
X107988121Y-93345183D01*
X107985368Y-93320745D01*
X107979082Y-93302780D01*
X107971576Y-93281328D01*
X107969650Y-93274641D01*
X107960360Y-93233939D01*
X107942238Y-93196307D01*
X107939583Y-93189899D01*
X107925789Y-93150478D01*
X107910675Y-93126425D01*
X107903574Y-93115123D01*
X107900208Y-93109033D01*
X107882092Y-93071415D01*
X107882092Y-93071414D01*
X107856057Y-93038768D01*
X107852037Y-93033103D01*
X107829816Y-92997738D01*
X107702262Y-92870184D01*
X107702261Y-92870183D01*
X107699929Y-92867851D01*
X107699918Y-92867841D01*
X106321752Y-91489674D01*
X106289762Y-91457684D01*
X106285505Y-91455009D01*
X106254404Y-91435466D01*
X106248729Y-91431440D01*
X106216089Y-91405410D01*
X106178459Y-91387287D01*
X106172372Y-91383922D01*
X106137025Y-91361712D01*
X106097614Y-91347921D01*
X106091188Y-91345259D01*
X106053561Y-91327139D01*
X106012845Y-91317845D01*
X106006162Y-91315920D01*
X105966759Y-91302132D01*
X105925263Y-91297455D01*
X105918408Y-91296291D01*
X105877700Y-91287001D01*
X105877696Y-91287000D01*
X105877694Y-91287000D01*
X105877691Y-91287000D01*
X101308409Y-91287000D01*
X101262920Y-91278355D01*
X101216079Y-91259883D01*
X101212176Y-91258897D01*
X101208992Y-91257089D01*
X101208683Y-91256967D01*
X101208700Y-91256923D01*
X101154884Y-91226359D01*
X100395906Y-90467381D01*
X100350680Y-90418956D01*
X100338264Y-90411405D01*
X100312861Y-90395957D01*
X100307610Y-90392383D01*
X100272341Y-90365638D01*
X100272342Y-90365638D01*
X100255642Y-90359052D01*
X100236716Y-90349652D01*
X100221380Y-90340327D01*
X100178758Y-90328384D01*
X100172740Y-90326360D01*
X100131565Y-90310124D01*
X100131556Y-90310122D01*
X100113716Y-90308288D01*
X100092951Y-90304342D01*
X100075669Y-90299500D01*
X100075665Y-90299500D01*
X100031406Y-90299500D01*
X100025064Y-90299175D01*
X99997427Y-90296333D01*
X99981029Y-90294648D01*
X99981024Y-90294648D01*
X99963344Y-90297697D01*
X99942276Y-90299500D01*
X99206167Y-90299500D01*
X99156081Y-90288935D01*
X99129991Y-90277415D01*
X99104865Y-90274500D01*
X97815143Y-90274500D01*
X97815117Y-90274502D01*
X97790012Y-90277413D01*
X97790008Y-90277415D01*
X97687235Y-90322793D01*
X97607794Y-90402234D01*
X97562415Y-90505006D01*
X97562415Y-90505008D01*
X97559500Y-90530131D01*
X97559500Y-91169856D01*
X97559502Y-91169882D01*
X97562413Y-91194987D01*
X97562414Y-91194988D01*
X97562414Y-91194990D01*
X97562415Y-91194991D01*
X97597704Y-91274913D01*
X97606776Y-91344191D01*
X97597705Y-91375083D01*
X97584315Y-91405410D01*
X97562415Y-91455009D01*
X97559500Y-91480131D01*
X97559500Y-91525150D01*
X97539815Y-91592189D01*
X97487011Y-91637944D01*
X97417853Y-91647888D01*
X97389813Y-91638813D01*
X97389377Y-91639963D01*
X97382365Y-91637303D01*
X97228986Y-91599500D01*
X97228985Y-91599500D01*
X97071015Y-91599500D01*
X97071014Y-91599500D01*
X96914173Y-91638156D01*
X96844371Y-91635086D01*
X96787309Y-91594766D01*
X96761104Y-91529996D01*
X96760499Y-91517759D01*
X96760499Y-91480143D01*
X96760499Y-91480136D01*
X96759569Y-91472118D01*
X96757586Y-91455012D01*
X96757585Y-91455011D01*
X96757585Y-91455009D01*
X96722294Y-91375083D01*
X96713223Y-91305809D01*
X96722291Y-91274922D01*
X96757585Y-91194991D01*
X96760500Y-91169865D01*
X96760499Y-90530136D01*
X96760497Y-90530117D01*
X96757586Y-90505012D01*
X96757585Y-90505010D01*
X96757585Y-90505009D01*
X96712206Y-90402235D01*
X96632765Y-90322794D01*
X96575926Y-90297697D01*
X96529992Y-90277415D01*
X96504868Y-90274500D01*
X96504865Y-90274500D01*
X96193798Y-90274500D01*
X96136172Y-90260296D01*
X96092365Y-90237304D01*
X96092364Y-90237303D01*
X96092363Y-90237303D01*
X95938986Y-90199500D01*
X95938985Y-90199500D01*
X95781015Y-90199500D01*
X95627632Y-90237304D01*
X95583824Y-90260297D01*
X95526199Y-90274500D01*
X95215143Y-90274500D01*
X95215117Y-90274502D01*
X95190012Y-90277413D01*
X95190008Y-90277415D01*
X95087235Y-90322793D01*
X95007794Y-90402234D01*
X94962415Y-90505006D01*
X94962414Y-90505012D01*
X94961877Y-90509639D01*
X94934592Y-90573961D01*
X94876864Y-90613321D01*
X94807020Y-90615223D01*
X94747236Y-90579062D01*
X94739899Y-90570263D01*
X94721499Y-90545999D01*
X94603660Y-90456639D01*
X94603658Y-90456638D01*
X94466077Y-90402383D01*
X94466076Y-90402382D01*
X94466074Y-90402382D01*
X94379619Y-90392000D01*
X94379618Y-90392000D01*
X93820382Y-90392000D01*
X93820381Y-90392000D01*
X93733925Y-90402382D01*
X93733924Y-90402382D01*
X93596339Y-90456639D01*
X93478499Y-90545999D01*
X93389139Y-90663839D01*
X93334882Y-90801424D01*
X93334882Y-90801425D01*
X93324500Y-90887881D01*
X93324500Y-91472118D01*
X93334882Y-91558574D01*
X93334882Y-91558575D01*
X93389139Y-91696160D01*
X93478499Y-91814000D01*
X93596339Y-91903360D01*
X93596342Y-91903362D01*
X93733923Y-91957617D01*
X93791562Y-91964539D01*
X93820381Y-91968000D01*
X93820382Y-91968000D01*
X94058114Y-91968000D01*
X94125153Y-91987685D01*
X94145794Y-92004318D01*
X94324079Y-92182603D01*
X94369320Y-92231044D01*
X94407140Y-92254042D01*
X94412379Y-92257607D01*
X94447658Y-92284361D01*
X94464353Y-92290944D01*
X94483290Y-92300351D01*
X94498618Y-92309672D01*
X94524618Y-92316956D01*
X94541237Y-92321613D01*
X94547254Y-92323636D01*
X94588435Y-92339876D01*
X94606284Y-92341710D01*
X94627056Y-92345658D01*
X94636414Y-92348280D01*
X94644334Y-92350500D01*
X94644335Y-92350500D01*
X94688601Y-92350500D01*
X94694942Y-92350824D01*
X94738971Y-92355351D01*
X94756650Y-92352302D01*
X94777718Y-92350500D01*
X94835500Y-92350500D01*
X94902539Y-92370185D01*
X94948294Y-92422989D01*
X94959500Y-92474500D01*
X94959500Y-93069856D01*
X94959502Y-93069882D01*
X94962413Y-93094987D01*
X94962415Y-93094991D01*
X95007793Y-93197764D01*
X95007794Y-93197765D01*
X95087235Y-93277206D01*
X95190009Y-93322585D01*
X95215135Y-93325500D01*
X96504864Y-93325499D01*
X96504879Y-93325497D01*
X96504882Y-93325497D01*
X96529987Y-93322586D01*
X96529988Y-93322585D01*
X96529991Y-93322585D01*
X96632765Y-93277206D01*
X96685185Y-93224785D01*
X96746504Y-93191303D01*
X96754349Y-93189859D01*
X96784287Y-93185348D01*
X96784288Y-93185347D01*
X96784290Y-93185347D01*
X96792447Y-93182830D01*
X96800469Y-93180023D01*
X96800472Y-93180023D01*
X96853072Y-93152222D01*
X96906642Y-93126425D01*
X96906642Y-93126424D01*
X96906644Y-93126424D01*
X96913695Y-93121616D01*
X96920538Y-93116566D01*
X96962599Y-93074504D01*
X96967600Y-93069864D01*
X97006194Y-93034055D01*
X97006196Y-93034050D01*
X97011987Y-93026790D01*
X97012643Y-93027313D01*
X97022036Y-93015067D01*
X97100287Y-92936818D01*
X97161610Y-92903333D01*
X97187967Y-92900500D01*
X97228985Y-92900500D01*
X97382365Y-92862696D01*
X97389377Y-92860037D01*
X97390334Y-92862561D01*
X97446356Y-92851325D01*
X97511415Y-92876803D01*
X97552371Y-92933410D01*
X97559500Y-92974848D01*
X97559500Y-93069855D01*
X97559502Y-93069882D01*
X97562413Y-93094987D01*
X97562415Y-93094991D01*
X97607793Y-93197764D01*
X97607794Y-93197765D01*
X97687235Y-93277206D01*
X97790009Y-93322585D01*
X97815135Y-93325500D01*
X98045579Y-93325499D01*
X98112618Y-93345183D01*
X98158373Y-93397987D01*
X98168317Y-93467146D01*
X98144386Y-93524420D01*
X98139140Y-93531337D01*
X98139139Y-93531339D01*
X98084882Y-93668924D01*
X98084882Y-93668925D01*
X98074500Y-93755381D01*
X98074500Y-94339618D01*
X98084882Y-94426074D01*
X98084882Y-94426075D01*
X98139139Y-94563660D01*
X98228499Y-94681500D01*
X98346339Y-94770860D01*
X98346342Y-94770862D01*
X98483923Y-94825117D01*
X98483924Y-94825117D01*
X98491628Y-94827064D01*
X98491182Y-94828826D01*
X98546205Y-94852422D01*
X98585338Y-94910305D01*
X98586964Y-94980156D01*
X98550568Y-95039797D01*
X98487705Y-95070294D01*
X98467206Y-95072000D01*
X97910194Y-95072000D01*
X97729806Y-95072000D01*
X97723888Y-95073350D01*
X97689089Y-95081291D01*
X97682235Y-95082455D01*
X97640744Y-95087132D01*
X97601341Y-95100919D01*
X97594659Y-95102844D01*
X97553939Y-95112139D01*
X97516320Y-95130255D01*
X97509895Y-95132916D01*
X97470483Y-95146708D01*
X97470476Y-95146712D01*
X97435120Y-95168927D01*
X97429033Y-95172291D01*
X97391410Y-95190410D01*
X97358769Y-95216441D01*
X97353096Y-95220466D01*
X97317739Y-95242683D01*
X97227165Y-95333254D01*
X97227161Y-95333260D01*
X97192242Y-95368180D01*
X97130920Y-95401666D01*
X97104560Y-95404500D01*
X97000381Y-95404500D01*
X96913925Y-95414882D01*
X96913924Y-95414882D01*
X96776339Y-95469139D01*
X96658499Y-95558499D01*
X96569139Y-95676339D01*
X96569138Y-95676341D01*
X96560455Y-95698360D01*
X96517548Y-95753503D01*
X96451640Y-95776695D01*
X96383656Y-95760573D01*
X96346297Y-95727793D01*
X96316500Y-95688499D01*
X96199555Y-95599818D01*
X96158032Y-95543626D01*
X96153480Y-95473905D01*
X96187345Y-95412790D01*
X96228990Y-95385660D01*
X96241158Y-95380862D01*
X96359000Y-95291500D01*
X96448362Y-95173658D01*
X96502617Y-95036077D01*
X96513000Y-94949618D01*
X96513000Y-94390382D01*
X96502617Y-94303923D01*
X96448362Y-94166342D01*
X96448360Y-94166339D01*
X96359000Y-94048499D01*
X96241160Y-93959139D01*
X96241158Y-93959138D01*
X96103577Y-93904883D01*
X96103576Y-93904882D01*
X96103574Y-93904882D01*
X96017119Y-93894500D01*
X96017118Y-93894500D01*
X95357882Y-93894500D01*
X95357881Y-93894500D01*
X95271425Y-93904882D01*
X95271424Y-93904882D01*
X95133839Y-93959139D01*
X95015999Y-94048499D01*
X94926639Y-94166339D01*
X94922482Y-94173734D01*
X94920548Y-94172647D01*
X94884946Y-94218403D01*
X94819037Y-94241595D01*
X94751053Y-94225472D01*
X94702578Y-94175154D01*
X94699386Y-94168163D01*
X94698360Y-94166339D01*
X94609000Y-94048499D01*
X94491160Y-93959139D01*
X94491158Y-93959138D01*
X94353577Y-93904883D01*
X94353576Y-93904882D01*
X94353574Y-93904882D01*
X94267119Y-93894500D01*
X94267118Y-93894500D01*
X93607882Y-93894500D01*
X93607881Y-93894500D01*
X93521425Y-93904882D01*
X93521424Y-93904882D01*
X93383839Y-93959139D01*
X93337440Y-93994325D01*
X93272128Y-94019148D01*
X93203764Y-94004720D01*
X93154054Y-93955622D01*
X93147164Y-93941020D01*
X93109361Y-93845158D01*
X93109360Y-93845157D01*
X93109360Y-93845156D01*
X93017922Y-93724577D01*
X92897343Y-93633139D01*
X92756561Y-93577622D01*
X92710926Y-93572142D01*
X92668102Y-93567000D01*
X91731898Y-93567000D01*
X91692853Y-93571688D01*
X91643438Y-93577622D01*
X91502656Y-93633139D01*
X91382077Y-93724577D01*
X91311290Y-93817925D01*
X91255097Y-93859449D01*
X91212486Y-93867000D01*
X90548037Y-93867000D01*
X90544293Y-93866887D01*
X90482397Y-93863143D01*
X90482390Y-93863143D01*
X90421402Y-93874319D01*
X90417701Y-93874882D01*
X90356125Y-93882360D01*
X90346642Y-93885956D01*
X90325038Y-93891978D01*
X90322942Y-93892362D01*
X90315066Y-93893806D01*
X90307902Y-93896039D01*
X90307663Y-93895275D01*
X90264688Y-93904500D01*
X90070381Y-93904500D01*
X89983925Y-93914882D01*
X89983924Y-93914882D01*
X89846339Y-93969139D01*
X89788199Y-94013227D01*
X89722887Y-94038049D01*
X89705789Y-94038196D01*
X89704896Y-94038142D01*
X89704889Y-94038142D01*
X89643886Y-94049321D01*
X89640185Y-94049884D01*
X89578628Y-94057359D01*
X89578621Y-94057361D01*
X89569147Y-94060954D01*
X89547549Y-94066975D01*
X89537568Y-94068805D01*
X89537563Y-94068806D01*
X89481005Y-94094261D01*
X89477546Y-94095693D01*
X89419570Y-94117681D01*
X89419566Y-94117684D01*
X89411223Y-94123442D01*
X89391688Y-94134460D01*
X89382448Y-94138619D01*
X89382439Y-94138624D01*
X89333624Y-94176868D01*
X89330609Y-94179086D01*
X89279568Y-94214318D01*
X89238442Y-94260740D01*
X89235875Y-94263466D01*
X88146162Y-95353181D01*
X88084839Y-95386666D01*
X88058481Y-95389500D01*
X86766898Y-95389500D01*
X86727853Y-95394188D01*
X86678438Y-95400122D01*
X86537656Y-95455639D01*
X86417077Y-95547077D01*
X86325639Y-95667656D01*
X86270122Y-95808438D01*
X86264728Y-95853360D01*
X86259500Y-95896898D01*
X86259500Y-97183102D01*
X83440500Y-97183102D01*
X83440500Y-88600000D01*
X84884709Y-88600000D01*
X84903851Y-88879862D01*
X84903852Y-88879864D01*
X84960921Y-89154499D01*
X84960926Y-89154516D01*
X85054863Y-89418828D01*
X85054864Y-89418830D01*
X85183919Y-89667896D01*
X85345688Y-89897069D01*
X85345692Y-89897073D01*
X85345692Y-89897074D01*
X85537154Y-90102080D01*
X85537155Y-90102081D01*
X85754754Y-90279111D01*
X85754756Y-90279112D01*
X85754757Y-90279113D01*
X85994433Y-90424863D01*
X86178942Y-90505006D01*
X86251725Y-90536620D01*
X86521839Y-90612303D01*
X86766159Y-90645884D01*
X86799741Y-90650500D01*
X86799742Y-90650500D01*
X87080259Y-90650500D01*
X87110219Y-90646381D01*
X87358161Y-90612303D01*
X87628275Y-90536620D01*
X87885568Y-90424862D01*
X88125246Y-90279111D01*
X88342845Y-90102081D01*
X88534312Y-89897069D01*
X88696081Y-89667896D01*
X88800251Y-89466856D01*
X89717500Y-89466856D01*
X89717502Y-89466882D01*
X89720413Y-89491987D01*
X89720415Y-89491991D01*
X89765793Y-89594764D01*
X89765793Y-89594765D01*
X89765794Y-89594765D01*
X89845235Y-89674206D01*
X89948009Y-89719585D01*
X89973135Y-89722500D01*
X93586864Y-89722499D01*
X93586879Y-89722497D01*
X93586882Y-89722497D01*
X93611987Y-89719586D01*
X93611988Y-89719585D01*
X93611991Y-89719585D01*
X93714765Y-89674206D01*
X93794206Y-89594765D01*
X93839585Y-89491991D01*
X93842500Y-89466865D01*
X93842499Y-85853136D01*
X93842497Y-85853117D01*
X93839586Y-85828012D01*
X93839585Y-85828010D01*
X93839585Y-85828009D01*
X93794206Y-85725235D01*
X93714765Y-85645794D01*
X93714764Y-85645793D01*
X93611992Y-85600415D01*
X93586865Y-85597500D01*
X89973143Y-85597500D01*
X89973117Y-85597502D01*
X89948012Y-85600413D01*
X89948008Y-85600415D01*
X89845235Y-85645793D01*
X89765794Y-85725234D01*
X89720415Y-85828006D01*
X89720415Y-85828008D01*
X89717500Y-85853131D01*
X89717500Y-89466856D01*
X88800251Y-89466856D01*
X88825136Y-89418830D01*
X88919075Y-89154511D01*
X88919076Y-89154504D01*
X88919078Y-89154499D01*
X88945571Y-89027005D01*
X88976148Y-88879862D01*
X88995291Y-88600000D01*
X88976148Y-88320138D01*
X88930740Y-88101622D01*
X88919078Y-88045500D01*
X88919073Y-88045483D01*
X88891047Y-87966625D01*
X88825136Y-87781170D01*
X88696081Y-87532104D01*
X88534312Y-87302931D01*
X88534307Y-87302925D01*
X88342845Y-87097919D01*
X88125242Y-86920886D01*
X87885566Y-86775136D01*
X87628276Y-86663380D01*
X87358166Y-86587698D01*
X87358162Y-86587697D01*
X87358161Y-86587697D01*
X87219209Y-86568598D01*
X87080259Y-86549500D01*
X87080258Y-86549500D01*
X86799742Y-86549500D01*
X86799741Y-86549500D01*
X86521839Y-86587697D01*
X86521833Y-86587698D01*
X86251723Y-86663380D01*
X85994433Y-86775136D01*
X85754757Y-86920886D01*
X85537154Y-87097919D01*
X85345692Y-87302925D01*
X85345692Y-87302926D01*
X85345689Y-87302928D01*
X85345688Y-87302931D01*
X85331982Y-87322348D01*
X85183919Y-87532103D01*
X85054863Y-87781171D01*
X84960926Y-88045483D01*
X84960921Y-88045500D01*
X84903852Y-88320135D01*
X84903851Y-88320137D01*
X84884709Y-88600000D01*
X83440500Y-88600000D01*
X83440500Y-88101622D01*
X83440585Y-88098376D01*
X83447490Y-87966625D01*
X83457803Y-87782972D01*
X83458464Y-87776789D01*
X83482611Y-87624331D01*
X83510227Y-87461796D01*
X83511451Y-87456196D01*
X83552425Y-87303279D01*
X83597083Y-87148268D01*
X83598764Y-87143254D01*
X83656123Y-86993827D01*
X83717371Y-86845962D01*
X83719387Y-86841588D01*
X83792500Y-86698097D01*
X83869656Y-86558494D01*
X83871880Y-86554788D01*
X83959981Y-86419124D01*
X84052151Y-86289224D01*
X84054505Y-86286120D01*
X84155665Y-86161198D01*
X84157527Y-86159010D01*
X84262773Y-86041239D01*
X84265092Y-86038787D01*
X84378787Y-85925092D01*
X84381239Y-85922773D01*
X84499010Y-85817527D01*
X84501198Y-85815665D01*
X84626120Y-85714505D01*
X84629224Y-85712151D01*
X84759124Y-85619981D01*
X84894788Y-85531880D01*
X84898494Y-85529656D01*
X85038077Y-85452511D01*
X85181588Y-85379387D01*
X85185962Y-85377371D01*
X85333827Y-85316123D01*
X85483254Y-85258764D01*
X85488268Y-85257083D01*
X85643279Y-85212425D01*
X85796196Y-85171451D01*
X85801796Y-85170227D01*
X85964284Y-85142618D01*
X86116791Y-85118464D01*
X86122968Y-85117803D01*
X86306566Y-85107493D01*
X86438380Y-85100584D01*
X86441622Y-85100500D01*
X141775083Y-85100500D01*
X141842122Y-85120185D01*
G37*
%TD.AperFunction*%
%TD*%
M02*
