M48
; DRILL file {KiCad 7.0.6} date Mon Sep 18 21:36:20 2023
; FORMAT={-:-/ absolute / inch / decimal}
; #@! TF.CreationDate,2023-09-18T21:36:20+08:00
; #@! TF.GenerationSoftware,Kicad,Pcbnew,7.0.6
; #@! TF.FileFunction,Plated,1,2,PTH
FMAT,2
INCH
; #@! TA.AperFunction,Plated,PTH,ViaDrill
T1C0.0118
; #@! TA.AperFunction,Plated,PTH,ViaDrill
T2C0.0157
; #@! TA.AperFunction,Plated,PTH,ComponentDrill
T3C0.0256
; #@! TA.AperFunction,Plated,PTH,ComponentDrill
T4C0.0276
; #@! TA.AperFunction,Plated,PTH,ComponentDrill
T5C0.0394
; #@! TA.AperFunction,Plated,PTH,ComponentDrill
T6C0.1083
%
G90
G05
T1
X3.313Y-3.7205
X3.313Y-3.752
X3.313Y-3.7815
X3.3406Y-3.7205
X3.3406Y-3.752
X3.3406Y-3.7815
X3.3681Y-3.7205
X3.3681Y-3.752
X3.3681Y-3.7815
X3.437Y-3.6004
X3.4646Y-3.6004
X3.4921Y-3.5669
X3.4921Y-3.6004
X3.5197Y-3.5669
X3.5197Y-3.6004
X3.5512Y-3.9016
X3.5512Y-3.9311
X3.5787Y-3.9016
X3.5787Y-3.9311
X3.6177Y-3.7106
X3.6295Y-4.0031
X3.6299Y-3.8571
X3.6299Y-3.9268
X3.6299Y-3.9618
X3.6299Y-4.0787
X3.6303Y-3.8917
X3.637Y-3.802
X3.6394Y-3.7346
X3.7185Y-4.1319
X3.7311Y-3.8382
X3.7333Y-4.0756
X3.7461Y-4.1319
X3.7618Y-3.4134
X3.7618Y-3.4449
X3.7618Y-3.4744
X3.7689Y-3.726
X3.7736Y-4.1319
X3.774Y-3.5768
X3.7835Y-4.063
X3.7835Y-4.0906
X3.7894Y-3.4134
X3.7894Y-3.4449
X3.7894Y-3.4744
X3.8012Y-4.1319
X3.8169Y-3.4134
X3.8169Y-3.4449
X3.8169Y-3.4744
X3.8248Y-3.6319
X3.8287Y-4.1319
X3.8333Y-3.8591
X3.8346Y-4.061
X3.8346Y-4.0866
X3.8445Y-3.4134
X3.8445Y-3.4449
X3.8445Y-3.4744
X3.8563Y-4.1319
X3.872Y-3.4134
X3.872Y-3.4449
X3.872Y-3.4744
X3.9035Y-3.9803
X3.9075Y-3.9134
X3.935Y-4.0669
X3.935Y-4.0945
X4.0118Y-3.9252
X4.0118Y-3.9567
X4.0118Y-3.9862
X4.0118Y-4.0157
X4.0118Y-4.0472
X4.0118Y-4.0768
X4.185Y-3.4055
X4.185Y-3.437
X4.185Y-3.4665
X4.2126Y-3.4055
X4.2126Y-3.437
X4.2126Y-3.4665
X4.2402Y-3.4055
X4.2402Y-3.437
X4.2402Y-3.4665
X4.2618Y-4.4291
X4.2618Y-4.4606
X4.2618Y-4.4902
X4.2677Y-3.4055
X4.2677Y-3.437
X4.2677Y-3.4665
X4.2894Y-4.4291
X4.2894Y-4.4606
X4.2894Y-4.4902
X4.2953Y-3.4055
X4.2953Y-3.437
X4.2953Y-3.4665
X4.3169Y-4.4291
X4.3169Y-4.4606
X4.3169Y-4.4902
X4.3445Y-4.4291
X4.3445Y-4.4606
X4.3445Y-4.4902
X4.372Y-4.4291
X4.372Y-4.4606
X4.372Y-4.4902
X4.3996Y-4.4291
X4.3996Y-4.4606
X4.3996Y-4.4902
T2
X3.935Y-3.8366
X3.935Y-3.8661
T5
X3.4472Y-3.7024
X3.4472Y-3.8008
X3.6134Y-3.4512
X3.6134Y-4.1992
X4.0157Y-4.4252
X4.0228Y-3.4512
X4.0228Y-4.2031
X4.0906Y-3.7559
X4.0906Y-3.8543
X4.1142Y-4.4252
T6
X3.4228Y-3.4882
X3.4228Y-4.3937
X5.7063Y-3.4882
X5.7063Y-4.3937
T3
G00X3.473Y-4.0144
M15
G01X3.4573Y-4.0144
M16
G05
G00X3.473Y-4.2053
M15
G01X3.4573Y-4.2053
M16
G05
T4
G00X3.3557Y-4.0026
M15
G01X3.336Y-4.0026
M16
G05
G00X3.3557Y-4.2171
M15
G01X3.336Y-4.2171
M16
G05
T0
M30
